# 3ds Max Wavefront OBJ Exporter v0.99 - (c)2007 guruware
# File Created: 28.04.2025 02:24:06

mtllib Mesa.mtl

#
# object Escritorio070
#

v  -0.0635 4.1789 5.8520
v  -0.1752 4.1749 -5.8915
v  -0.7008 4.1789 -5.8726
v  -0.3820 4.1749 -5.8915
v  -0.7008 4.1722 -5.8890
v  -0.7008 4.1546 -5.8954
v  -0.6985 -3.1955 -5.8930
v  -0.7008 4.1722 5.8684
v  -0.7008 3.8169 5.5096
v  -0.7008 3.8169 -5.5303
v  -0.1752 3.8140 -5.5277
v  -20.0976 4.1609 -3.6659
v  -0.0029 4.1610 -3.6838
v  -0.0029 4.1610 5.9137
v  0.0027 4.4007 -3.6660
v  -20.0775 4.4094 5.9195
v  -0.0053 4.4129 5.9109
v  -20.0928 4.4093 -3.6838
v  -20.0775 4.1609 5.9195
v  -0.6998 -3.1949 -5.5553
v  -0.0635 3.7620 -5.5537
v  -0.5889 3.8074 -5.5439
v  20.0811 4.4094 -3.6895
v  0.0064 4.4093 5.9138
v  20.0811 4.4094 5.9196
v  0.0064 4.1610 -3.6837
v  20.0811 4.1609 -3.6895
v  20.0811 4.1609 5.9196
v  -2.2043 3.1058 -3.4580
v  -16.3648 3.1054 -3.4576
v  -5.2149 3.0859 -3.4858
v  -16.3648 3.1106 -4.3406
v  -5.2149 3.1133 -3.5090
v  -2.2043 3.1116 -4.5204
v  0.0064 4.4093 -3.6837
v  0.0064 4.1610 5.9138
v  -17.6069 3.2511 -4.6581
v  -17.6069 3.5449 -4.8695
v  -0.9646 3.5458 -4.8681
v  -0.7874 3.8475 -5.0622
v  -17.6069 3.5586 -4.8487
v  -17.6069 3.2685 -4.6397
v  -20.0928 4.1566 -5.8955
v  -0.0029 4.1610 -3.7622
v  -20.0775 4.1609 -3.7563
v  -20.0775 4.4094 -5.9196
v  -20.0928 4.4093 -3.7622
v  -0.0181 4.4094 -3.7563
v  -0.0029 4.4093 -5.9138
v  -0.0181 4.1609 -5.9196
v  -0.9646 3.8420 -5.0783
v  19.1346 3.1171 -4.5317
v  2.3114 3.1105 -4.5164
v  19.1346 3.1136 -3.4816
v  19.1346 3.0987 -4.5445
v  19.1346 3.0902 -3.4612
v  -5.2378 3.6733 -3.4590
v  -17.6069 3.5709 -3.4573
v  -0.9646 3.1095 -4.0005
v  -2.2043 3.1314 -3.4811
v  -0.5889 4.1815 5.8546
v  -0.1752 3.8140 5.5070
v  -0.7008 4.1546 5.8747
v  -0.6777 -3.1963 5.8442
v  -0.1752 4.1749 5.8708
v  -0.6998 -3.1949 5.5346
v  -0.5889 3.8074 5.5232
v  -0.0635 3.7620 5.5331
v  20.0357 3.7620 -5.5537
v  19.5103 3.8074 -5.5438
v  19.3994 -3.1949 -5.5552
v  19.3994 -3.1949 -5.8946
v  19.5103 4.1749 -5.8914
v  20.0182 4.1255 -5.8983
v  19.3984 3.8169 5.5097
v  19.3984 3.8169 -5.5302
v  19.9240 3.8140 -5.5276
v  19.5103 4.1815 5.8547
v  19.9240 4.1815 -5.8752
v  19.3984 4.1799 -5.6874
v  19.9240 3.8140 5.5071
v  19.3994 -3.1949 5.5347
v  19.5103 3.8074 5.5233
v  20.0357 3.7620 5.5332
v  20.0357 4.1789 5.8521
v  19.3984 4.1546 5.8748
v  19.4007 -3.1955 5.8724
v  19.9240 4.1749 5.8709
v  0.1107 3.8140 5.5071
v  0.6363 3.8169 -5.5302
v  0.6363 3.8169 5.5097
v  0.1107 4.1749 -5.8914
v  -0.0010 4.1789 5.8521
v  0.5243 4.1815 5.8547
v  -0.0010 3.7620 5.5332
v  0.5243 3.8074 5.5233
v  -0.0000 -3.1949 5.5347
v  -0.0000 -3.1948 5.8741
v  0.6363 4.1546 5.8748
v  0.1107 4.1749 5.8709
v  -17.7895 4.0278 -5.1335
v  -0.9646 4.0018 -5.1353
v  -5.2149 4.0007 -5.1204
v  -2.2043 4.0234 -5.1755
v  -13.3563 4.0238 -5.1758
v  -5.2149 4.0338 -5.1428
v  -17.6069 3.0841 -3.9900
v  -17.6069 3.0851 -3.6418
v  -17.6069 3.1125 -3.6613
v  -20.1002 4.1789 5.8520
v  -19.5748 4.1815 5.8546
v  -20.1002 4.1789 -5.8726
v  -19.9885 3.8140 5.5070
v  -19.4629 3.8169 -5.5303
v  -19.4629 3.8169 5.5096
v  -20.1002 3.7620 5.5331
v  -19.5748 3.8074 5.5232
v  -20.0992 -3.1949 5.5346
v  -20.0992 -3.1948 5.8740
v  -19.4629 4.1546 5.8747
v  -19.9885 4.1749 5.8708
v  0.6353 -3.1949 -5.5552
v  0.5243 3.8074 -5.5438
v  -0.0010 3.7620 -5.5537
v  0.6340 -3.1955 -5.8929
v  0.6363 4.1546 -5.8953
v  0.6363 4.1789 -5.8726
v  0.1107 3.8140 -5.5276
v  -19.9885 3.8140 -5.5277
v  -19.5748 4.1815 -5.8753
v  -19.4639 -3.1949 -5.5553
v  -19.5748 3.8074 -5.5439
v  -20.1002 3.7620 -5.5537
v  -19.4629 4.1546 -5.8954
v  -20.0992 -3.1949 -5.8947
v  -19.9885 4.1749 -5.8915
v  2.3097 4.0079 -5.1438
v  19.1346 4.0018 -5.1352
v  14.8613 3.9934 -5.1360
v  2.3097 3.1136 -3.4816
v  20.0347 -3.1949 -5.8946
v  20.0347 -3.1949 -5.5552
v  19.4205 -4.2038 -5.5962
v  20.0126 -3.1963 -5.5849
v  20.0114 -4.4130 -5.8539
v  19.4215 -3.1963 -5.8648
v  20.0126 -3.1963 -5.8648
v  -0.0878 -4.4130 -5.8540
v  -0.6777 -3.1963 -5.8649
v  -0.0866 -3.1963 -5.8649
v  -0.0645 -3.1949 -5.8947
v  -0.0645 -3.1949 -5.5553
v  -0.6786 -4.2038 -5.5963
v  -0.0866 -3.1963 -5.5850
v  -2.2043 3.0846 -4.5211
v  -20.0761 -4.2038 5.5659
v  -20.0771 -3.1963 5.5643
v  -19.4860 -3.1963 5.5643
v  -19.4639 -3.1949 5.5346
v  -19.4639 -3.1948 5.8740
v  -19.4870 -4.2038 5.8427
v  -19.4870 -3.8010 5.8427
v  -20.0771 -3.1963 5.8442
v  0.6353 -3.1948 5.8741
v  0.6353 -3.1949 5.5347
v  0.5958 -4.4150 5.5757
v  0.0221 -3.1963 5.5644
v  0.6132 -3.1963 5.5644
v  0.0221 -3.1963 5.8443
v  0.6122 -3.8010 5.8428
v  -19.4870 -3.8010 -5.8634
v  -20.0771 -3.1963 -5.8649
v  -19.4639 -3.1949 -5.8947
v  -20.0992 -3.1949 -5.5553
v  -20.0771 -3.1963 -5.5850
v  -19.5034 -4.4150 -5.5963
v  -0.1892 -3.1957 5.8475
v  -0.0860 -4.3836 5.8334
v  -0.0645 -3.1949 5.5346
v  -0.0645 -3.1948 5.8740
v  -0.5749 -3.1957 5.5609
v  -0.0866 -3.1963 5.5643
v  -0.1040 -4.4130 5.5661
v  19.4225 -3.8010 5.8428
v  19.9100 -3.1957 5.8476
v  20.0347 -3.1949 5.5347
v  20.0347 -3.1948 5.8741
v  20.0126 -3.1963 5.5644
v  19.4389 -4.3836 5.5643
v  0.6122 -3.8010 -5.8633
v  0.0221 -3.1963 -5.8648
v  0.6132 -3.1963 -5.5849
v  0.0221 -3.1963 -5.5849
v  0.6141 -4.2038 -5.5962
v  -0.0000 -3.1949 -5.5552
v  -0.0000 -3.1949 -5.8946
v  -16.3648 4.0125 -5.1822
v  -17.6069 4.0338 -5.1428
v  20.1012 4.4094 -3.7800
v  20.0811 4.4094 -5.9195
v  0.0015 4.4094 -5.8958
v  0.0015 4.1609 -5.8958
v  20.0811 4.1609 -5.9195
v  20.1012 4.1609 -3.7800
v  0.0015 4.4094 -3.7800
v  0.0064 4.1610 -3.7621
v  -13.3563 3.1319 -3.4815
v  -2.2043 4.0290 -5.1328
v  19.1346 3.8420 -5.0782
v  19.3117 4.0197 -5.1721
v  -19.5034 -4.4150 5.5757
v  -20.0759 -4.4130 5.8333
v  -0.9646 3.0860 -3.9908
v  -0.9646 3.6566 -3.4625
v  -2.2043 3.6720 -3.4758
v  -20.0761 -4.2038 -5.5866
v  -20.0777 -4.3836 -5.8541
v  19.9952 -4.4130 -5.5867
v  19.4390 -4.4130 -5.8631
v  -0.6602 -4.4130 -5.8632
v  -0.1040 -4.4130 -5.5868
v  0.0395 -4.4130 -5.5867
v  0.0233 -4.4130 -5.8539
v  0.0395 -4.4130 5.5662
v  0.0233 -4.4130 5.8334
v  0.6121 -4.2038 5.8428
v  -0.0010 3.8102 -5.5464
v  -0.0010 3.8102 5.5259
v  -0.0010 4.1799 -5.6874
v  -0.6603 -4.3836 5.5642
v  -0.5732 -4.4132 5.8427
v  20.0114 -4.4130 5.8334
v  19.9952 -4.4130 5.5662
v  -17.6069 3.9805 -5.1715
v  -16.3648 4.0238 -5.1758
v  -19.7817 4.1749 -5.8915
v  -20.1002 3.9291 -5.8962
v  19.7172 4.1749 5.8709
v  20.0357 3.9291 5.8757
v  0.6363 4.1722 5.8684
v  2.3125 3.6711 -3.4804
v  17.7735 3.6717 -3.4589
v  -0.0635 3.8102 -5.5465
v  -0.0635 4.1799 -5.6875
v  -0.0635 3.9291 5.8756
v  -19.4629 4.1799 -5.6875
v  -19.4629 4.1722 5.8684
v  20.0357 3.8102 -5.5464
v  20.0357 4.1722 -5.8889
v  -20.1026 3.8842 5.5729
v  -20.1002 4.1722 5.8683
v  -0.0635 3.8102 5.5258
v  -0.0010 4.1722 5.8684
v  -0.0034 3.8842 5.5730
v  -0.9646 3.1086 -4.3404
v  -0.9646 3.1383 -4.5478
v  -0.9646 3.5576 -4.8503
v  -17.6069 3.3820 -3.4573
v  -17.6067 3.6718 -3.4807
v  -0.9646 3.3946 -3.4794
v  -0.9646 3.1136 -3.4817
v  -0.9646 3.3829 -3.4590
v  -20.1002 4.1722 -5.8890
v  20.0357 4.1722 5.8684
v  19.4196 -3.1963 -5.6366
v  -0.6796 -3.1963 -5.6367
v  0.3175 4.1749 -5.8914
v  20.0144 -3.1963 5.7936
v  20.0135 -4.2038 5.5757
v  -0.0033 -3.1931 5.7051
v  -0.7874 3.9803 -5.1664
v  -0.7874 3.5479 -4.8650
v  -0.7874 3.2549 -4.6541
v  -0.9646 3.0851 -4.3381
v  -0.9646 3.0944 -4.5393
v  -17.7895 3.0907 -4.5334
v  -19.4851 -4.2038 5.5756
v  -19.4842 -3.1963 5.6160
v  -19.4605 -3.1931 5.7050
v  -19.4842 -3.1963 -5.6367
v  -19.4851 -4.2038 -5.5963
v  -0.0848 -3.1963 5.7936
v  -0.0857 -4.2038 5.5756
v  -20.1025 -3.1931 5.7050
v  -0.6796 -3.1963 5.6160
v  19.4196 -3.1963 5.6161
v  0.6386 -3.1931 5.7051
v  0.6141 -4.2038 5.5757
v  0.6150 -3.1963 5.6161
v  0.6150 -3.1963 -5.6366
v  -17.6069 3.8493 -5.0570
v  -2.2043 4.0080 -5.1480
v  -17.6069 4.0068 -5.1563
v  -0.9646 3.0870 -3.6431
v  -0.9646 3.0902 -3.4612
v  -0.9646 3.1105 -3.6599
v  -17.7898 3.1094 -3.4780
v  -17.7877 3.1110 -4.0011
v  -17.7895 3.1171 -4.5318
v  -17.7877 3.5584 -4.8491
v  -17.7877 3.8491 -5.0574
v  -17.7895 4.0027 -5.1621
v  19.3117 3.5746 -3.4757
v  -2.2043 3.0976 -4.5453
v  -19.4882 -4.4121 -5.8624
v  -20.0750 -4.4121 -5.5877
v  0.5087 -4.4152 5.8335
v  19.5260 -4.4152 5.8335
v  -0.0876 -4.2038 -5.5866
v  20.0116 -4.2038 -5.5865
v  0.5087 -4.4152 -5.8540
v  0.5958 -4.4150 -5.5962
v  0.0231 -4.2038 -5.5865
v  -19.4882 -4.4121 5.8417
v  -20.0750 -4.4121 5.5670
v  -20.0759 -4.4130 -5.8540
v  -19.4870 -4.2038 -5.8634
v  -17.6069 3.1121 -4.5203
v  -17.7877 3.0846 -3.9902
v  -17.6069 3.0832 -4.4936
v  19.4066 4.0303 -3.5259
v  0.6280 4.0303 -3.5259
v  0.6280 4.0303 -2.9683
v  19.4066 3.6649 -2.9683
v  0.6280 3.6649 -2.9683
v  0.6280 3.6649 -3.5259
v  19.4066 3.6649 2.9478
v  19.4066 3.6649 3.5054
v  0.6280 3.6649 3.5054
v  19.4066 4.0303 3.5054
v  19.4066 4.0303 2.9478
v  0.6280 4.0303 2.9478
v  19.4066 4.0303 -2.9683
v  19.4066 3.6649 -3.5259
v  0.6280 3.6649 2.9478
v  0.6280 4.0303 3.5054
v  -0.6767 -3.8010 5.8427
v  -0.6755 -4.4121 5.8417
v  -19.4712 4.0303 -3.5260
v  -0.6925 4.0303 -2.9684
v  -0.6925 4.0303 -3.5260
v  -19.4712 3.6649 -3.5260
v  -0.6925 3.6649 -3.5260
v  -0.6925 3.6649 -2.9684
v  -0.6925 3.6649 2.9477
v  -0.6925 3.6649 3.5053
v  -19.4712 3.6649 2.9477
v  -0.6925 4.0303 3.5053
v  -0.6925 4.0303 2.9477
v  -19.4712 4.0303 2.9477
v  -19.4712 4.0303 -2.9684
v  -19.4712 3.6649 -2.9684
v  -19.4712 3.6649 3.5053
v  -19.4712 4.0303 3.5053
v  0.0231 -3.8010 5.5660
v  0.0233 -4.3835 5.5662
v  -17.7877 3.5451 -4.8691
v  -0.6603 -4.4150 -5.5963
v  -0.6767 -3.8010 -5.8634
v  -5.8863 3.3201 -3.3562
v  -5.7635 3.4453 -3.3559
v  -5.7227 3.2417 -3.3893
v  -5.8337 3.4728 -3.3901
v  -0.9646 3.2523 -4.6569
v  -0.7874 3.1044 -4.3400
v  -0.7874 3.0901 -3.9924
v  19.4225 -3.8010 -5.8633
v  19.4389 -4.4150 -5.5962
v  3.2779 3.6300 -3.3809
v  4.4091 3.6298 -3.4554
v  4.4091 3.1193 -3.3798
v  3.2783 3.1193 -3.4554
v  14.0630 3.6298 -3.4554
v  12.9322 3.1193 -3.4554
v  14.0630 3.1193 -3.3798
v  12.9318 3.6300 -3.3809
v  -6.7260 3.6300 -3.3809
v  -5.5948 3.6298 -3.4554
v  -5.5948 3.1193 -3.3798
v  -6.7256 3.1193 -3.4554
v  -17.7877 3.1120 -3.6610
v  -17.6069 3.1156 -3.4834
v  -17.7895 3.5712 -3.4590
v  13.8235 3.4720 -3.3562
v  13.9209 3.5045 -3.3899
v  13.8035 3.2552 -3.3903
v  13.9351 3.2417 -3.3893
v  4.1696 3.4720 -3.3562
v  4.2670 3.5045 -3.3899
v  4.1492 3.3209 -3.3903
v  4.2812 3.2417 -3.3893
v  -15.3709 3.2945 -3.3903
v  -15.4219 3.4462 -3.3903
v  -15.3498 3.4464 -3.3901
v  -5.7369 3.5045 -3.3899
v  13.0985 3.4719 -3.3567
v  13.1697 3.4720 -3.3899
v  13.1898 3.3201 -3.3562
v  13.1723 3.2450 -3.3558
v  -20.0761 -4.4132 -5.8128
v  -6.5594 3.4719 -3.3567
v  -6.4881 3.4720 -3.3899
v  -6.4681 3.3201 -3.3562
v  -6.4856 3.2450 -3.3558
v  -20.1002 3.8102 -5.5465
v  -20.1002 3.8102 5.5258
v  -16.0042 3.4455 -3.3899
v  -16.0755 3.4455 -3.3567
v  -16.0017 3.2186 -3.3558
v  -15.9842 3.2936 -3.3562
v  -16.2461 3.6057 -3.3809
v  -15.1149 3.6056 -3.4554
v  -15.1149 3.0951 -3.3798
v  -16.2457 3.0951 -3.4554
v  3.5359 3.3201 -3.3562
v  3.5879 3.4720 -3.3899
v  3.5158 3.4720 -3.3562
v  -0.7874 3.0911 -3.6460
v  -0.7874 3.1112 -3.4628
v  -0.7874 3.5746 -3.4758
v  -17.7877 3.1101 -4.3406
v  -17.7876 3.6717 -3.4590
v  -17.6069 3.3956 -3.4812
v  -0.7874 3.0944 -4.5319
v  -15.8607 3.4196 -3.3562
v  -15.8206 3.2153 -3.3893
v  -15.9322 3.4455 -3.3899
v  -6.3446 3.4461 -3.3562
v  -6.3045 3.2417 -3.3893
v  -6.4161 3.4720 -3.3899
v  -0.3820 4.1749 5.8709
v  -0.0635 4.1722 5.8683
v  20.0357 3.8102 5.5259
v  13.3516 3.5024 -3.3567
v  13.3536 3.2423 -3.3562
v  13.2418 3.4720 -3.3899
v  -17.7877 3.0837 -4.3380
v  3.6593 3.4461 -3.3562
v  3.6995 3.2417 -3.3893
v  -15.5340 3.2153 -3.3893
v  -15.5343 3.4730 -3.3567
v  4.0982 3.4726 -3.3903
v  3.9860 3.2417 -3.3893
v  3.9857 3.4994 -3.3567
v  -17.6069 3.0884 -3.4596
v  13.7521 3.4726 -3.3903
v  13.6399 3.2417 -3.3893
v  13.6396 3.4994 -3.3567
v  -0.0010 4.1722 -5.8889
v  -0.0635 4.1722 -5.8890
v  19.4225 -4.2038 5.8428
v  19.4236 -4.4121 5.8418
v  0.6110 -4.4121 -5.8623
v  0.6121 -4.2038 -5.8633
v  0.6110 -4.4121 5.8418
v  -19.4629 4.1722 -5.8890
v  -6.0182 3.4994 -3.3567
v  -5.9058 3.4726 -3.3903
v  -6.0179 3.2417 -3.3893
v  -16.1102 3.2116 -3.3898
v  -6.5941 3.2381 -3.3898
v  0.3175 3.8074 5.5233
v  -0.3820 3.8074 5.5232
v  -19.7817 3.8074 -5.5439
v  0.3175 3.8074 -5.5438
v  19.7172 3.8074 -5.5438
v  -0.3820 3.8074 -5.5439
v  19.7172 3.8074 5.5233
v  -19.7817 3.8074 5.5232
v  0.3175 4.1749 5.8709
v  -19.7817 4.1749 5.8709
v  19.3117 3.1049 -4.5174
v  -5.8668 3.2362 -3.3567
v  -17.7877 3.2514 -4.6578
v  13.0579 3.2416 -3.3883
v  -15.2406 3.4752 -3.3562
v  3.4040 3.2416 -3.3883
v  3.5184 3.2450 -3.3558
v  3.4446 3.4719 -3.3567
v  13.7911 3.2362 -3.3567
v  -15.2388 3.2153 -3.3893
v  -15.3829 3.2098 -3.3567
v  -15.2792 3.4459 -3.3899
v  4.1372 3.2362 -3.3567
v  3.6978 3.5024 -3.3567
v  19.3117 3.1094 -3.4779
v  -17.6068 4.0132 -5.1196
v  19.3984 4.1722 5.8684
v  19.7172 4.1749 -5.8914
v  19.3984 4.1722 -5.8889
v  -17.6069 3.1115 -4.0013
v  19.1346 3.6566 -3.4624
# 492 vertices

vn 0.0029 1.0000 0.0000
vn -0.0029 1.0000 -0.0000
vn 0.0000 0.9995 -0.0321
vn -0.0015 0.9995 -0.0321
vn -0.0030 0.9995 -0.0321
vn -0.0015 0.0301 -0.9995
vn 0.0000 0.0301 -0.9995
vn -0.0030 0.0301 -0.9995
vn -0.9874 0.0561 -0.1477
vn -0.0029 0.0000 -1.0000
vn 0.0029 0.0000 -1.0000
vn -0.0033 -0.0004 -1.0000
vn -1.0000 0.0033 0.0033
vn -1.0000 0.0033 -0.0034
vn -1.0000 0.0002 -0.0065
vn -1.0000 -0.0049 -0.0016
vn -1.0000 -0.0050 0.0016
vn 0.0032 -1.0000 0.0000
vn -0.0032 -1.0000 -0.0000
vn -0.0405 -0.9984 -0.0384
vn 0.0405 -0.9984 -0.0384
vn 0.0405 -0.9984 0.0384
vn 0.0405 0.9984 -0.0384
vn -0.0405 0.9984 0.0384
vn 0.0405 0.9984 0.0384
vn -0.0405 0.9984 -0.0384
vn -0.0405 -0.9984 0.0384
vn -1.0000 -0.0003 0.0071
vn 0.0032 0.0000 1.0000
vn -0.0032 0.0000 1.0000
vn -0.0036 -0.0004 1.0000
vn 0.0005 -0.0690 0.9976
vn -0.0000 -0.0689 0.9976
vn 0.0001 -0.7258 0.6879
vn 0.0000 1.0000 -0.0016
vn 0.0001 0.9991 -0.0415
vn 0.0005 0.9914 0.1309
vn -0.0010 -0.6383 -0.7698
vn -0.0009 -0.6343 -0.7731
vn 0.0092 -0.6345 -0.7729
vn 0.0087 0.6295 0.7770
vn -0.0010 0.6365 0.7713
vn -0.0011 0.6382 0.7698
vn 0.0005 0.7357 0.6773
vn 0.0085 -0.6189 -0.7854
vn 0.0097 0.9912 0.1318
vn -0.0010 1.0000 0.0092
vn 0.0101 0.9991 -0.0414
vn 0.0095 -0.9901 -0.1402
vn 0.0098 -0.9990 0.0426
vn -0.0010 -0.9900 -0.1409
vn 0.0001 0.0122 0.9999
vn -0.0010 0.0003 1.0000
vn 0.0097 0.9999 -0.0024
vn 0.0006 0.9991 -0.0415
vn -0.0029 0.0000 1.0000
vn -0.0033 -0.0004 1.0000
vn 0.0029 0.0000 1.0000
vn -0.0036 -0.0004 -1.0000
vn -0.0032 0.0000 -1.0000
vn 0.0032 0.0000 -1.0000
vn -0.0011 -0.6074 -0.7944
vn 0.0006 -0.5870 -0.8096
vn 0.0001 -0.4908 -0.8712
vn 0.0005 0.7034 -0.7108
vn 0.0000 0.9139 -0.4060
vn 0.0001 0.9139 -0.4059
vn -0.0010 -1.0000 0.0024
vn 0.0001 -0.9991 0.0425
vn -0.0010 -1.0000 0.0035
vn -0.0011 1.0000 -0.0035
vn 0.0036 -0.0004 1.0000
vn 1.0000 -0.0003 -0.0072
vn 1.0000 0.0002 -0.0065
vn 1.0000 -0.0051 0.0016
vn -0.0053 -0.5388 0.8424
vn 0.0002 -0.5360 0.8442
vn 0.0002 0.1577 0.9875
vn -0.0011 0.9991 -0.0415
vn -0.0010 -0.9991 0.0425
vn 0.0033 -0.0004 -1.0000
vn -0.0028 -0.0016 1.0000
vn 0.0014 -0.0014 1.0000
vn -0.0014 -0.0013 1.0000
vn 0.0025 -0.0014 -1.0000
vn -0.0011 -0.0014 -1.0000
vn 0.0011 -0.0013 -1.0000
vn 0.0005 -0.9991 0.0424
vn 0.0005 -0.9901 -0.1407
vn -0.0028 -0.0016 -1.0000
vn -0.0014 -0.0013 -1.0000
vn 0.0014 -0.0014 -1.0000
vn 0.0036 -0.0005 -1.0000
vn 0.0033 -0.0004 1.0000
vn 0.0025 -0.0014 1.0000
vn 0.0011 -0.0013 1.0000
vn -0.0011 -0.0013 1.0000
vn 0.0028 -0.0016 -1.0000
vn -0.0001 -0.0290 0.9996
vn 0.0002 -0.0279 0.9996
vn -0.0001 -0.0289 -0.9996
vn 0.0002 -0.0278 -0.9996
vn 0.0014 -0.0013 1.0000
vn -0.0014 -0.0014 1.0000
vn 0.0028 -0.0016 1.0000
vn 0.0036 -0.0004 -1.0000
vn -0.0014 -0.0014 -1.0000
vn 0.0014 -0.0013 -1.0000
vn 0.0001 -0.0290 0.9996
vn -0.0002 -0.0279 0.9996
vn 0.0000 0.1064 -0.9943
vn 0.0000 0.7034 -0.7108
vn 0.0000 0.9951 -0.0984
vn -0.0009 0.9788 0.2047
vn 0.0001 0.9788 0.2047
vn 0.0001 0.7276 -0.6861
vn 0.0000 0.0705 -0.9975
vn 0.0006 0.0705 -0.9975
vn 0.0005 0.8665 0.4993
vn 0.0005 0.9952 -0.0983
vn 0.0005 0.9141 -0.4055
vn 0.0095 -0.7422 -0.6702
vn -0.0011 0.7355 0.6775
vn 0.0097 0.7363 0.6766
vn 0.0075 0.5718 0.8203
vn -0.0025 -0.0014 1.0000
vn 0.0095 -1.0000 0.0024
vn 0.0129 0.0212 0.9997
vn 0.0007 0.0464 0.9989
vn -0.0011 -0.0013 -1.0000
vn -0.0025 -0.0014 -1.0000
vn -1.0000 -0.0015 0.0050
vn -1.0000 -0.0016 -0.0049
vn -1.0000 0.0065 -0.0000
vn -1.0000 0.0000 0.0064
vn -1.0000 -0.0003 0.0070
vn -0.0008 -0.4858 -0.8741
vn -0.0008 0.5824 0.8129
vn 0.0001 0.0141 -0.9999
vn 0.0004 -0.4876 -0.8731
vn 0.0093 0.9146 -0.4041
vn 0.0015 0.9995 -0.0321
vn -0.1082 0.0000 -0.9941
vn -0.1106 -0.0010 -0.9939
vn -0.0000 0.9995 0.0321
vn 0.0030 0.9995 0.0321
vn -0.0015 0.9995 0.0321
vn 0.1082 0.0000 0.9941
vn 0.1106 -0.0010 0.9939
vn -1.0000 -0.0003 0.0072
vn -1.0000 0.0001 0.0065
vn 1.0000 0.0033 0.0033
vn 1.0000 -0.0049 -0.0016
vn 1.0000 0.0002 0.0065
vn 1.0000 -0.0003 0.0072
vn -0.0009 0.0144 -0.9999
vn 0.0007 0.0520 -0.9986
vn 0.0104 0.0700 -0.9975
vn 0.0101 -0.0694 0.9975
vn -0.0008 0.0125 0.9999
vn 1.0000 -0.0016 0.0050
vn 1.0000 0.0065 0.0000
vn 1.0000 0.0000 0.0065
vn 1.0000 -0.0003 0.0069
vn 1.0000 -0.0001 0.0064
vn -1.0000 0.0067 -0.0000
vn -1.0000 -0.0003 -0.0071
vn 1.0000 0.0067 0.0000
vn 1.0000 0.0033 -0.0033
vn -1.0000 -0.0051 -0.0001
vn -1.0000 0.0032 0.0032
vn -1.0000 0.0064 -0.0002
vn -1.0000 0.0002 0.0063
vn 1.0000 0.0000 -0.0064
vn 1.0000 -0.0003 -0.0070
vn 1.0000 -0.0016 -0.0049
vn -1.0000 0.0063 0.0002
vn 0.0097 1.0000 -0.0016
vn 0.0097 0.6475 0.7620
vn 0.0095 0.6363 0.7714
vn -0.0000 0.6736 0.7391
vn 0.0001 0.6742 0.7385
vn 0.0002 -0.9981 -0.0623
vn 0.0028 -0.9419 -0.3358
vn 0.0027 -0.9225 0.3861
vn -0.0010 0.0000 1.0000
vn 0.0097 0.0000 -1.0000
vn 0.0095 0.0000 1.0000
vn -0.0040 0.9331 -0.3596
vn -0.0020 0.9331 -0.3596
vn 1.0000 -0.0003 0.0071
vn 1.0000 0.0065 -0.0002
vn 0.0040 0.9331 0.3596
vn 0.0020 0.9331 0.3596
vn -1.0000 -0.0009 0.0074
vn -1.0000 -0.0008 0.0024
vn -1.0000 -0.0010 -0.0053
vn -1.0000 -0.0003 -0.0072
vn 0.0030 0.0301 -0.9995
vn 0.0015 0.0301 -0.9995
vn 1.0000 -0.0002 0.0035
vn 1.0000 -0.0010 -0.0051
vn 1.0000 -0.0008 0.0024
vn 1.0000 -0.0009 -0.0072
vn -1.0000 -0.0003 -0.0070
vn -1.0000 -0.0002 0.0035
vn -1.0000 -0.0018 0.0073
vn -1.0000 -0.0010 0.0051
vn -1.0000 -0.0010 -0.0051
vn 0.6855 -0.3626 -0.6314
vn 0.7126 -0.4452 -0.5422
vn 1.0000 0.0000 0.0000
vn 1.0000 0.0000 -0.0001
vn 0.7149 0.4396 0.5437
vn 0.0095 -1.0000 0.0013
vn 0.0095 -0.8458 -0.5334
vn -0.0010 -0.9058 -0.4237
vn 1.0000 -0.0009 -0.0074
vn 1.0000 -0.0008 -0.0024
vn 1.0000 -0.0010 0.0053
vn 1.0000 -0.0002 -0.0036
vn 1.0000 -0.0003 -0.0071
vn 1.0000 -0.0010 -0.0053
vn 1.0000 -0.0009 0.0074
vn -0.0010 0.1061 -0.9944
vn 0.0005 0.1042 -0.9946
vn -1.0000 -0.0010 -0.0052
vn -1.0000 -0.0018 -0.0073
vn -1.0000 0.0000 -0.0065
vn 1.0000 -0.0018 -0.0073
vn 1.0000 -0.0010 0.0051
vn -1.0000 -0.0010 0.0053
vn -1.0000 -0.0008 -0.0024
vn -1.0000 -0.0009 -0.0074
vn 0.7299 0.3864 0.5638
vn -0.0009 0.6308 0.7760
vn 0.0001 0.5824 0.8129
vn -1.0000 0.0032 -0.0033
vn 1.0000 0.0063 0.0002
vn 1.0000 0.0032 0.0032
vn -0.0011 -0.8443 -0.5358
vn 0.0005 -0.8457 -0.5337
vn 0.0095 -0.9999 0.0035
vn 0.0098 0.9999 -0.0035
vn -0.8658 0.5003 0.0049
vn -0.8757 0.4822 -0.0242
vn -0.2956 0.9553 -0.0023
vn -0.2947 0.6183 0.7286
vn -0.0010 0.8667 0.4989
vn -0.8790 0.3517 0.3221
vn -0.8621 0.3225 0.3909
vn -0.9991 0.0272 0.0337
vn -0.3059 -0.5856 -0.7507
vn -0.3076 -0.8043 -0.5084
vn 0.0133 0.0229 -0.9996
vn 0.0005 -0.7425 -0.6698
vn 1.0000 -0.0001 -0.0072
vn 0.0027 -1.0000 -0.0064
vn 0.0027 -1.0000 0.0064
vn -0.0027 -1.0000 0.0064
vn 1.0000 -0.0001 0.0072
vn -0.0027 -1.0000 -0.0064
vn 0.0014 -1.0000 0.0065
vn -0.0014 -1.0000 0.0065
vn -0.0014 -1.0000 -0.0064
vn -1.0000 -0.0001 0.0072
vn 1.0000 -0.0009 0.0072
vn 0.0014 -1.0000 -0.0065
vn -1.0000 -0.0009 0.0072
vn -1.0000 -0.0009 -0.0073
vn 1.0000 -0.0009 0.0075
vn -0.0022 -0.0601 -0.9982
vn 0.0021 -0.0601 -0.9982
vn 1.0000 -0.0018 0.0073
vn -0.3015 0.9454 0.1236
vn -0.2946 0.9556 0.0088
vn -0.0011 0.9914 0.1306
vn -0.9991 -0.0418 -0.0057
vn -0.9994 0.0264 0.0238
vn -0.8566 -0.5158 0.0172
vn -0.8544 -0.5196 -0.0074
vn -0.2808 -0.9598 0.0023
vn -0.0010 -0.9999 -0.0149
vn 0.0000 1.0000 -0.0000
vn 0.0000 -1.0000 -0.0000
vn 0.1749 0.0541 0.9831
vn -0.1748 0.0540 0.9831
vn -0.1748 -0.0541 0.9831
vn -0.9864 0.0508 -0.1565
vn -0.9864 -0.0509 0.1565
vn -0.9864 0.0508 0.1565
vn -1.0000 -0.0001 -0.0070
vn -1.0000 -0.0018 -0.0072
vn -0.8532 -0.3310 -0.4031
vn -1.0000 -0.0001 -0.0072
vn -1.0000 -0.0018 -0.0075
vn -0.0070 -0.0558 -0.9984
vn -0.1570 0.0050 -0.9876
vn 0.0654 -0.0055 -0.9978
vn 0.1944 -0.1341 0.9717
vn 0.0982 -0.0563 0.9936
vn 0.1549 -0.0408 0.9871
vn 0.1748 -0.0542 -0.9831
vn -0.1748 -0.0541 -0.9831
vn 0.0096 0.0562 -0.9984
vn 0.9864 -0.0509 -0.1565
vn 0.9864 0.0508 -0.1565
vn 0.9864 0.0509 0.1565
vn 0.0094 -0.6383 -0.7697
vn 0.7133 -0.7009 0.0009
vn 0.7135 -0.7007 0.0017
vn 0.9864 -0.0509 0.1565
vn 0.9864 -0.0509 -0.1566
vn 0.9864 0.0509 -0.1565
vn 0.1748 -0.0541 -0.9831
vn -0.1748 0.0541 -0.9831
vn 0.1748 0.0541 -0.9831
vn -0.9864 -0.0508 -0.1565
vn -0.9864 -0.0508 0.1565
vn -0.9864 0.0509 0.1565
vn 0.1748 0.0541 0.9831
vn -0.1749 0.0543 0.9831
vn -0.1749 -0.0541 0.9831
vn 0.1759 0.0001 0.9844
vn -0.1749 -0.0541 -0.9831
vn 0.1748 -0.0540 0.9831
vn -0.1129 0.1506 -0.9821
vn 0.1053 0.0410 -0.9936
vn 0.1089 -0.1632 -0.9806
vn 0.1089 0.1507 0.9826
vn -0.1053 -0.0417 0.9936
vn 0.1053 -0.0417 0.9936
vn -0.2960 0.9552 -0.0032
vn -0.0011 0.0705 -0.9975
vn -0.3099 0.0584 -0.9490
vn -0.2968 0.0008 -0.9549
vn -0.0000 0.1017 -0.9948
vn 0.0000 -0.0105 -0.9999
vn 0.0621 0.1073 0.9923
vn -0.0998 -0.0563 -0.9934
vn 0.1776 0.0155 -0.9840
vn -0.1533 0.0463 0.9871
vn 0.9691 0.2099 -0.1297
vn 0.9987 0.0504 0.0054
vn 0.9758 -0.0500 0.2129
vn -0.0000 0.0868 -0.9962
vn 0.0288 0.0202 -0.9994
vn -0.1529 -0.0410 -0.9874
vn 0.0070 -0.0558 -0.9984
vn -0.0070 -0.0257 0.9996
vn 0.0396 -0.1375 0.9897
vn 0.0000 -0.0105 0.9999
vn -0.0028 -1.0000 0.0032
vn -0.9972 -0.0750 -0.0063
vn -0.9971 -0.0757 -0.0032
vn -0.1089 0.1507 0.9826
vn -0.0039 -0.1431 -0.9897
vn -0.1089 -0.1632 -0.9806
vn 0.0327 0.0202 0.9993
vn 0.1790 -0.0155 -0.9837
vn 0.7139 0.7003 -0.0025
vn 0.7137 0.7004 -0.0017
vn 0.7138 0.7003 -0.0011
vn -0.0308 0.0202 0.9993
vn -0.0396 -0.1375 -0.9897
vn 0.0255 0.9950 -0.0966
vn -0.0000 0.9954 0.0958
vn 0.0221 0.9950 0.0971
vn 0.7223 0.6910 -0.0291
vn 0.7136 0.0000 -0.7006
vn 0.7292 0.0486 -0.6826
vn -0.2731 0.6067 0.7465
vn -0.2902 0.6091 0.7381
vn -0.0010 -0.0690 0.9976
vn -0.2951 0.9555 -0.0015
vn -0.0035 0.9997 -0.0234
vn -0.0031 0.9119 0.4104
vn 0.0002 0.9093 0.4161
vn -0.0011 0.0000 -1.0000
vn 0.6894 -0.5373 -0.4857
vn 0.0094 -0.6513 -0.7588
vn -0.1287 0.0409 0.9908
vn 0.0218 -0.1121 0.9935
vn 0.0364 -0.1024 -0.9941
vn 1.0000 0.0002 0.0063
vn 0.0218 0.0968 0.9951
vn -0.2803 -0.9599 0.0012
vn -0.0263 -0.0055 -0.9996
vn -0.0354 0.0919 -0.9951
vn -0.0518 -0.0000 0.9987
vn -0.2890 -0.9562 0.0453
vn -0.2818 0.0006 0.9595
vn -0.2812 -0.0020 0.9596
vn -0.2746 -0.6099 -0.7434
vn -0.2558 -0.5967 -0.7606
vn -0.0009 0.7034 -0.7108
vn -0.1081 0.9941 -0.0000
vn 0.1082 0.0000 -0.9941
vn 0.1106 -0.0010 -0.9939
vn 0.1081 0.9941 0.0000
vn -0.0015 0.7276 -0.6860
vn -0.0022 -0.0601 0.9982
vn -0.0011 -0.0606 0.9982
vn 0.0011 -0.0606 0.9982
vn -1.0000 -0.0018 0.0074
vn -1.0000 -0.0009 0.0075
vn 1.0000 -0.0018 -0.0075
vn 1.0000 -0.0009 -0.0075
vn 0.0011 -0.0606 -0.9982
vn 0.6996 -0.0489 0.7129
vn 0.7134 0.0000 0.7007
vn 0.7054 -0.7082 0.0297
vn 1.0000 -0.0018 0.0074
vn 0.0022 -0.0601 0.9982
vn 0.0040 0.3546 -0.9350
vn 0.0020 0.3545 -0.9350
vn 0.1075 0.9942 0.0000
vn 0.1074 0.9942 0.0000
vn -0.0554 0.0052 0.9984
vn -0.0000 0.0868 0.9962
vn 0.1291 -0.0407 0.9908
vn 0.7139 0.4455 0.5403
vn -0.1234 -0.0011 -0.9924
vn -0.1209 0.0000 -0.9927
vn -0.1210 0.0000 -0.9927
vn -0.0361 -0.1024 -0.9941
vn 0.1549 0.0463 -0.9868
vn 0.0000 -0.0919 0.9958
vn -0.0071 -0.0919 0.9957
vn 0.0016 -0.0309 -0.9995
vn -0.0033 -0.0309 -0.9995
vn 0.0000 -0.0309 -0.9995
vn -1.0000 -0.0001 -0.0064
vn -0.0016 -0.0309 -0.9995
vn -0.1210 -0.9927 -0.0000
vn -0.1209 -0.9927 -0.0000
vn -0.3263 0.0283 -0.9448
vn -0.0015 0.3882 0.9216
vn -0.1202 0.0000 -0.9928
vn -0.1227 -0.0011 -0.9924
vn 0.0000 -0.9995 -0.0330
vn -0.0033 -0.9994 -0.0330
vn 0.0016 -0.9995 -0.0330
vn -0.0000 -0.9995 0.0330
vn 0.0033 -0.9994 0.0330
vn -0.0016 -0.9995 0.0330
vn 0.1202 0.0000 0.9927
vn 0.1226 -0.0011 0.9925
vn 0.0016 -0.9995 0.0330
vn -0.0033 -0.9994 0.0330
vn -0.1202 0.0000 0.9927
vn -0.1226 -0.0011 0.9925
vn 0.1748 -0.0541 0.9831
vn -0.0015 0.0301 0.9995
vn 0.0030 0.0301 0.9995
vn -0.0000 0.0300 0.9995
vn 0.0020 0.3546 0.9350
vn 0.0040 0.3546 0.9350
vn -0.0621 0.1073 0.9923
vn 0.0079 -0.4928 -0.8701
vn -0.3100 0.0251 0.9504
vn 0.0644 0.0000 -0.9979
vn 0.0000 -0.9960 0.0892
vn 0.0000 -0.9960 -0.0891
vn 0.0221 -0.9958 -0.0891
vn -0.2793 -0.6129 -0.7391
vn -0.8542 -0.3387 -0.3946
vn -0.0010 -0.7427 -0.6697
vn 0.6895 -0.7172 -0.1011
vn 0.0094 -0.9999 -0.0144
vn 0.7138 0.4470 0.5392
vn 0.7395 0.4960 0.4550
vn -0.0505 0.1628 0.9854
vn 0.0097 -0.0560 0.9984
vn -0.3035 0.9522 -0.0346
vn -0.9972 -0.0750 0.0063
vn -0.2365 -0.4634 -0.8540
vn -0.2443 0.5666 0.7870
vn 0.0037 -0.0558 -0.9984
vn -0.0210 -0.9998 -0.0000
vn -0.0176 -0.9998 0.0039
vn -0.0177 -0.9998 -0.0037
vn -0.0960 -0.0025 -0.9954
vn -0.1038 -0.0014 -0.9946
vn -0.0992 -0.0014 -0.9951
vn -0.0927 -0.0013 0.9957
vn -0.0847 -0.0025 0.9964
vn -0.0925 -0.0002 0.9957
vn 0.0210 -0.9998 0.0000
vn 0.0175 -0.9998 -0.0039
vn 0.0176 -0.9998 0.0038
vn 0.0960 -0.0025 0.9954
vn 0.1037 -0.0014 0.9946
vn 0.0994 -0.0014 0.9951
vn 0.0015 -0.9999 0.0170
vn -0.0015 -0.9999 0.0170
vn -0.0178 -0.9998 -0.0037
vn -0.0177 -0.9998 0.0038
vn -0.0994 -0.0014 0.9951
vn -0.1043 -0.0007 0.9945
vn -0.0960 -0.0025 0.9954
vn -0.0176 -0.9998 0.0038
vn -0.0175 -0.9998 -0.0039
vn 0.0017 -0.9999 -0.0168
vn -0.0017 -0.9999 -0.0168
vn 0.0177 -0.9998 -0.0037
vn 0.0176 -0.9998 0.0039
vn 0.2514 -0.9637 -0.0904
vn 0.0489 0.1628 0.9854
vn -0.0000 0.0000 1.0000
vn 0.0000 0.0000 -1.0000
vn -0.0000 0.8269 0.5624
vn -0.0000 0.3078 0.9515
vn 0.0077 0.3122 0.9500
vn -0.0033 -0.0309 0.9995
vn -0.0000 -0.0308 0.9995
vn -0.0016 -0.0309 0.9995
vn 0.0033 -0.0309 -0.9995
vn -0.1045 -0.0002 -0.9945
vn -0.0966 -0.0025 -0.9953
vn -0.1044 -0.0014 -0.9945
vn 0.1210 -0.9927 0.0000
vn 0.0015 -0.9999 -0.0169
vn -0.0015 -0.9999 -0.0169
vn 0.0851 -0.0025 0.9964
vn 0.0933 -0.0013 0.9956
vn 0.0885 -0.0014 0.9961
vn 0.0177 -0.9998 0.0038
vn 0.0209 -0.9998 0.0000
vn 0.0178 -0.9998 -0.0037
vn 0.0094 0.8658 0.5003
vn -0.0009 0.6741 0.7386
vn 0.0007 0.6686 0.7436
vn 0.0097 -0.7044 0.7097
vn 0.0095 -0.9323 0.3615
vn -0.0010 -0.9378 0.3471
vn 0.6477 0.5012 -0.5738
vn -0.0064 -0.8977 0.4406
vn -0.0050 -0.9306 0.3659
vn 0.0006 -0.8930 0.4500
vn -0.0000 0.1715 0.9852
vn -0.0000 0.4626 0.8866
vn -0.0008 0.4667 0.8844
vn -0.2755 -0.9516 -0.1362
vn 0.0450 -0.1375 -0.9895
vn 0.7162 0.4521 0.5317
vn 0.7161 0.6980 0.0071
vn 0.0177 -0.9998 0.0037
vn 0.0175 -0.9998 -0.0038
vn 0.1202 0.0000 -0.9928
vn 0.1227 -0.0011 -0.9924
vn 0.0033 -0.9994 -0.0330
vn 0.0178 -0.9998 0.0039
vn 0.0179 -0.9998 -0.0037
vn 0.0211 -0.9998 0.0000
vn 0.0016 -0.0309 0.9995
vn 0.0033 -0.0309 0.9995
vn 0.0024 -0.0674 -0.9977
vn -0.0024 -0.0673 -0.9977
vn -1.0000 -0.0018 0.0072
vn -0.1043 -0.0014 0.9945
vn -0.0966 -0.0025 0.9953
vn -0.1050 -0.0007 0.9945
vn -0.0030 0.0301 0.9995
vn -1.0000 0.0065 0.0001
vn 1.0000 -0.0018 -0.0074
vn 0.1038 -0.0014 -0.9946
vn 0.0960 -0.0025 -0.9954
vn 0.1044 -0.0007 -0.9945
vn 0.1043 -0.0007 0.9945
vn 0.0017 -0.9999 0.0167
vn -0.0017 -0.9999 0.0167
vn -0.0040 0.3546 0.9350
vn -0.0020 0.3546 0.9350
vn -0.1075 0.9942 -0.0000
vn -0.0208 -0.9998 -0.0000
vn 0.1050 -0.0007 0.9945
vn 0.0966 -0.0025 0.9953
vn 0.1043 -0.0014 0.9945
vn 1.0000 -0.0018 0.0072
vn -0.1074 0.9942 -0.0000
vn -0.1075 0.0000 -0.9942
vn -0.1099 -0.0010 -0.9939
vn -0.0176 -0.9998 -0.0038
vn -0.0177 -0.9998 0.0037
vn 1.0000 -0.0018 -0.0072
vn 0.0966 -0.0025 -0.9953
vn 0.1050 -0.0007 -0.9945
vn 0.1044 -0.0014 -0.9945
vn -0.0926 -0.0002 -0.9957
vn -0.0846 -0.0025 -0.9964
vn -0.0927 -0.0012 -0.9957
vn 0.7131 -0.4475 -0.5397
vn -0.0011 1.0000 -0.0025
vn -0.1549 0.0463 0.9868
vn 0.0030 0.9995 -0.0321
vn 0.0015 0.0301 0.9995
vn 0.0015 0.9995 0.0321
vn -0.0030 0.9995 0.0321
vn -0.0016 -0.9995 -0.0330
vn 0.7133 -0.7009 0.0025
vn -1.0000 0.0002 -0.0063
vn -0.2699 0.9424 0.1975
vn -0.2718 0.8337 0.4807
vn -0.0009 0.9139 -0.4059
vn 1.0000 0.0002 -0.0063
vn 0.0000 -0.9999 -0.0171
vn -0.0024 -0.0673 0.9977
vn 0.0024 -0.0673 0.9977
vn 0.0069 0.5296 0.8482
vn 0.0070 0.5504 -0.8349
vn -0.9972 -0.0751 0.0063
vn -0.9972 -0.0751 -0.0062
vn -0.0020 0.9331 0.3596
vn -0.0040 0.9331 0.3596
vn -0.1106 -0.0010 0.9939
vn -0.1082 0.0000 0.9941
vn -0.2755 -0.7145 -0.6432
vn -0.0013 -0.7258 0.6879
vn 0.7394 0.6673 0.0893
vn -0.0000 -0.9999 0.0172
# 621 vertex normals

vt 0.5948 0.9944 0.0000
vt 0.5999 0.7870 0.0000
vt 0.6092 0.7871 0.0000
vt 0.6037 0.7870 0.0000
vt 0.6091 0.7870 0.0000
vt 0.6092 0.7868 0.0000
vt 0.6161 0.5446 0.0000
vt 0.6178 0.9944 0.0000
vt 0.6280 0.9944 0.0000
vt 0.6210 0.7876 0.0000
vt 0.7850 0.7920 0.0000
vt 0.7646 0.9907 0.0000
vt 0.7637 0.7919 0.0000
vt 0.9355 0.0057 0.0000
vt 0.9358 0.4875 0.0000
vt 0.7291 0.4874 0.0000
vt 0.6472 0.0106 0.0000
vt 0.4412 0.4914 0.0000
vt 0.4416 0.0108 0.0000
vt 0.6473 0.4920 0.0000
vt 0.7290 0.0062 0.0000
vt 0.6279 0.5416 0.0000
vt 0.7895 0.7897 0.0000
vt 0.7683 0.7913 0.0000
vt 0.7640 0.5527 0.0000
vt 0.6477 0.0113 0.0000
vt 0.4413 0.4918 0.0000
vt 0.4414 0.0112 0.0000
vt 0.9358 0.0058 0.0000
vt 0.9360 0.4871 0.0000
vt 0.7290 0.4871 0.0000
vt 0.2749 0.9190 0.0000
vt 0.2761 0.5751 0.0000
vt 0.2778 0.7712 0.0000
vt 0.0677 0.9183 0.0000
vt 0.0349 0.5751 0.0000
vt 0.0762 0.5759 0.0000
vt 0.7292 0.0058 0.0000
vt 0.1703 0.9834 0.0000
vt 0.1552 0.9830 0.0000
vt 0.1555 0.5749 0.0000
vt 0.1125 0.5766 0.0000
vt 0.0994 0.9828 0.0000
vt 0.0841 0.9824 0.0000
vt 0.9923 0.0058 0.0000
vt 0.9463 0.4875 0.0000
vt 0.9462 0.0061 0.0000
vt 0.6676 0.0110 0.0000
vt 0.7139 0.0106 0.0000
vt 0.7141 0.4916 0.0000
vt 0.6677 0.4920 0.0000
vt 0.9928 0.4871 0.0000
vt 0.0774 0.5759 0.0000
vt 0.1411 0.5750 0.0000
vt 0.0780 0.5759 0.0000
vt 0.0754 0.9921 0.0000
vt 0.0339 0.5751 0.0000
vt 0.1775 0.5748 0.0000
vt 0.2246 0.5750 0.0000
vt 0.1792 0.9929 0.0000
vt 0.2285 0.5749 0.0000
vt 0.2467 0.5750 0.0000
vt 0.2452 0.9821 0.0000
vt 0.4525 0.9823 0.0000
vt 0.4284 0.9180 0.0000
vt 0.4762 0.9174 0.0000
vt 0.6561 0.7869 0.0000
vt 0.6654 0.7868 0.0000
vt 0.6470 0.9940 0.0000
vt 0.8808 0.8973 0.0000
vt 0.8807 0.7920 0.0000
vt 0.9020 0.7919 0.0000
vt 0.6544 0.7864 0.0000
vt 0.6474 0.5430 0.0000
vt 0.6637 0.7866 0.0000
vt 0.9017 0.5527 0.0000
vt 0.8974 0.7913 0.0000
vt 0.8762 0.7897 0.0000
vt 0.6075 0.7870 0.0000
vt 0.5983 0.7864 0.0000
vt 0.8974 0.8973 0.0000
vt 0.6125 0.9944 0.0000
vt 0.5999 0.7872 0.0000
vt 0.6106 0.7898 0.0000
vt 0.6728 0.9940 0.0000
vt 0.6475 0.5442 0.0000
vt 0.8600 0.7920 0.0000
vt 0.8395 0.9907 0.0000
vt 0.8387 0.7919 0.0000
vt 0.7162 0.8886 0.0000
vt 0.7197 0.7868 0.0000
vt 0.7290 0.7869 0.0000
vt 0.8645 0.7897 0.0000
vt 0.8433 0.7913 0.0000
vt 0.8642 0.5527 0.0000
vt 0.7127 0.5443 0.0000
vt 0.7307 0.7864 0.0000
vt 0.7214 0.7866 0.0000
vt 0.1236 0.9945 0.0000
vt 0.1206 0.5767 0.0000
vt 0.1212 0.5767 0.0000
vt 0.3707 0.9190 0.0000
vt 0.3695 0.5749 0.0000
vt 0.3709 0.7714 0.0000
vt 0.2035 0.9827 0.0000
vt 0.2234 0.5750 0.0000
vt 0.2189 0.9814 0.0000
vt 0.0348 0.9832 0.0000
vt 0.5556 0.9944 0.0000
vt 0.5379 0.9944 0.0000
vt 0.5523 0.7871 0.0000
vt 0.8267 0.5527 0.0000
vt 0.8225 0.7913 0.0000
vt 0.8012 0.7897 0.0000
vt 0.5343 0.5446 0.0000
vt 0.5412 0.7868 0.0000
vt 0.5294 0.7876 0.0000
vt 0.5412 0.7871 0.0000
vt 0.5506 0.7870 0.0000
vt 0.8141 0.9907 0.0000
vt 0.8058 0.7920 0.0000
vt 0.8270 0.7919 0.0000
vt 0.8020 0.9907 0.0000
vt 0.5429 0.7872 0.0000
vt 0.5592 0.5446 0.0000
vt 0.1237 0.9942 0.0000
vt 0.1204 0.5767 0.0000
vt 0.1289 0.5749 0.0000
vt 0.1299 0.5750 0.0000
vt 0.0256 0.9943 0.0000
vt 0.2302 0.9900 0.0000
vt 0.5912 0.5446 0.0000
vt 0.7892 0.5527 0.0000
vt 0.7650 0.5178 0.0000
vt 0.7884 0.5516 0.0000
vt 0.5923 0.5017 0.0000
vt 0.6162 0.5433 0.0000
vt 0.5911 0.5433 0.0000
vt 0.3230 0.9199 0.0000
vt 0.1786 0.5748 0.0000
vt 0.8632 0.5178 0.0000
vt 0.8634 0.5516 0.0000
vt 0.8399 0.5516 0.0000
vt 0.8390 0.5527 0.0000
vt 0.7377 0.5443 0.0000
vt 0.7364 0.5080 0.0000
vt 0.7367 0.5213 0.0000
vt 0.7127 0.5430 0.0000
vt 0.8407 0.5105 0.0000
vt 0.5353 0.5216 0.0000
vt 0.5593 0.5433 0.0000
vt 0.8015 0.5527 0.0000
vt 0.8024 0.5516 0.0000
vt 0.8250 0.5105 0.0000
vt 0.6680 0.5421 0.0000
vt 0.6714 0.5023 0.0000
vt 0.8765 0.5527 0.0000
vt 0.6724 0.5443 0.0000
vt 0.8967 0.5517 0.0000
vt 0.8773 0.5516 0.0000
vt 0.8782 0.5108 0.0000
vt 0.6484 0.5213 0.0000
vt 0.9000 0.5118 0.0000
vt 0.8259 0.5516 0.0000
vt 0.8257 0.5178 0.0000
vt 0.1319 0.9204 0.0000
vt 0.1322 0.7712 0.0000
vt 0.1328 0.5750 0.0000
vt 0.1297 0.9813 0.0000
vt 0.1312 0.5750 0.0000
vt 0.7136 0.4921 0.0000
vt 0.6676 0.4916 0.0000
vt 0.6681 0.0105 0.0000
vt 0.9923 0.0057 0.0000
vt 0.9467 0.4876 0.0000
vt 0.7136 0.0105 0.0000
vt 0.9463 0.0058 0.0000
vt 0.4739 0.7666 0.0000
vt 0.4758 0.5748 0.0000
vt 0.1308 0.5750 0.0000
vt 0.3727 0.9190 0.0000
vt 0.1195 0.5767 0.0000
vt 0.7138 0.5013 0.0000
vt 0.2980 0.9829 0.0000
vt 0.2523 0.9810 0.0000
vt 0.2524 0.9184 0.0000
vt 0.8025 0.5178 0.0000
vt 0.5582 0.5026 0.0000
vt 0.7875 0.5108 0.0000
vt 0.6141 0.5017 0.0000
vt 0.8032 0.5108 0.0000
vt 0.5581 0.5017 0.0000
vt 0.8625 0.5108 0.0000
vt 0.5638 0.7869 0.0000
vt 0.5731 0.9944 0.0000
vt 0.5537 0.7898 0.0000
vt 0.5645 0.7851 0.0000
vt 0.5711 0.5416 0.0000
vt 0.6527 0.5013 0.0000
vt 0.6713 0.5013 0.0000
vt 0.1296 0.9902 0.0000
vt 0.0302 0.5750 0.0000
vt 0.0307 0.7663 0.0000
vt 0.0128 0.5748 0.0000
vt 0.2543 0.7724 0.0000
vt 0.1330 0.9813 0.0000
vt 0.3795 0.9831 0.0000
vt 0.1313 0.9204 0.0000
vt 0.5467 0.7870 0.0000
vt 0.5539 0.7836 0.0000
vt 0.6599 0.7866 0.0000
vt 0.6671 0.7833 0.0000
vt 0.6426 0.7873 0.0000
vt 0.6544 0.7866 0.0000
vt 0.6439 0.9940 0.0000
vt 0.5326 0.9944 0.0000
vt 0.5200 0.9944 0.0000
vt 0.7426 0.7873 0.0000
vt 0.0035 0.9887 0.0000
vt 0.2485 0.7707 0.0000
vt 0.5866 0.7869 0.0000
vt 0.5967 0.7898 0.0000
vt 0.5793 0.9944 0.0000
vt 0.5793 0.5416 0.0000
vt 0.5859 0.7851 0.0000
vt 0.6356 0.5413 0.0000
vt 0.7393 0.9940 0.0000
vt 0.7307 0.7866 0.0000
vt 0.5982 0.7870 0.0000
vt 0.7111 0.7871 0.0000
vt 0.7116 0.9940 0.0000
vt 0.7198 0.7866 0.0000
vt 0.6777 0.7847 0.0000
vt 0.6842 0.5413 0.0000
vt 0.5774 0.9944 0.0000
vt 0.7009 0.9940 0.0000
vt 0.4364 0.9823 0.0000
vt 0.4262 0.9823 0.0000
vt 0.4040 0.9824 0.0000
vt 0.3715 0.5749 0.0000
vt 0.3729 0.7720 0.0000
vt 0.3838 0.7660 0.0000
vt 0.3805 0.9168 0.0000
vt 0.2277 0.9198 0.0000
vt 0.2379 0.9817 0.0000
vt 0.0036 0.9807 0.0000
vt 0.4980 0.9167 0.0000
vt 0.4883 0.9811 0.0000
vt 0.4771 0.9822 0.0000
vt 0.2628 0.9812 0.0000
vt 0.5522 0.7870 0.0000
vt 0.5225 0.5416 0.0000
vt 0.5398 0.7898 0.0000
vt 0.6654 0.7866 0.0000
vt 0.6240 0.5081 0.0000
vt 0.6248 0.5412 0.0000
vt 0.6830 0.5405 0.0000
vt 0.6745 0.5422 0.0000
vt 0.6803 0.5078 0.0000
vt 0.7009 0.5413 0.0000
vt 0.7071 0.5424 0.0000
vt 0.7021 0.5405 0.0000
vt 0.3627 0.9828 0.0000
vt 0.3701 0.9909 0.0000
vt 0.3475 0.9929 0.0000
vt 0.4040 0.9917 0.0000
vt 0.3818 0.9925 0.0000
vt 0.3888 0.9916 0.0000
vt 0.3141 0.9834 0.0000
vt 0.1781 0.5748 0.0000
vt 0.1789 0.9924 0.0000
vt 0.7456 0.5078 0.0000
vt 0.7464 0.5408 0.0000
vt 0.7433 0.5424 0.0000
vt 0.7495 0.5413 0.0000
vt 0.5256 0.5412 0.0000
vt 0.5264 0.5081 0.0000
vt 0.5698 0.5408 0.0000
vt 0.5806 0.5408 0.0000
vt 0.6388 0.5408 0.0000
vt 0.6396 0.5078 0.0000
vt 0.1147 0.9839 0.0000
vt 0.1201 0.5767 0.0000
vt 0.5628 0.9944 0.0000
vt 0.6759 0.9940 0.0000
vt 0.1224 0.9843 0.0000
vt 0.3818 0.9172 0.0000
vt 0.2822 0.9819 0.0000
vt 0.2740 0.9814 0.0000
vt 0.4687 0.9823 0.0000
vt 0.0743 0.9925 0.0000
vt 0.0256 0.9945 0.0000
vt 0.0513 0.9919 0.0000
vt 0.0762 0.9922 0.0000
vt 0.1296 0.9896 0.0000
vt 0.4968 0.7691 0.0000
vt 0.0991 0.9918 0.0000
vt 0.1145 0.9927 0.0000
vt 0.1227 0.9945 0.0000
vt 0.2558 0.9887 0.0000
vt 0.2529 0.9123 0.0000
vt 0.4954 0.9875 0.0000
vt 0.4978 0.9105 0.0000
vt 0.3317 0.9928 0.0000
vt 0.8257 0.5011 0.0000
vt 0.8026 0.5108 0.0000
vt 0.8441 0.5014 0.0000
vt 0.8966 0.5014 0.0000
vt 0.5829 0.5081 0.0000
vt 0.7656 0.5011 0.0000
vt 0.7883 0.5014 0.0000
vt 0.8217 0.5014 0.0000
vt 0.5675 0.5081 0.0000
vt 0.8025 0.5014 0.0000
vt 0.7045 0.5078 0.0000
vt 0.8400 0.5011 0.0000
vt 0.8632 0.5014 0.0000
vt 0.8631 0.5108 0.0000
vt 0.5356 0.5084 0.0000
vt 0.8775 0.5014 0.0000
vt 0.0756 0.9824 0.0000
vt 0.1394 0.9912 0.0000
vt 0.1771 0.9931 0.0000
vt 0.2041 0.9920 0.0000
vt 0.1808 0.9833 0.0000
vt 0.9735 0.9920 0.0000
vt 0.9735 0.5011 0.0000
vt 0.9866 0.5011 0.0000
vt 0.9530 0.9920 0.0000
vt 0.9530 0.5011 0.0000
vt 0.9661 0.5011 0.0000
vt 0.9080 0.5011 0.0000
vt 0.9210 0.5011 0.0000
vt 0.9210 0.9920 0.0000
vt 0.9285 0.5011 0.0000
vt 0.9416 0.5011 0.0000
vt 0.9416 0.9920 0.0000
vt 0.9866 0.9920 0.0000
vt 0.9661 0.9920 0.0000
vt 0.9080 0.9920 0.0000
vt 0.9285 0.9920 0.0000
vt 0.9007 0.5011 0.0000
vt 0.8781 0.5014 0.0000
vt 0.8966 0.5010 0.0000
vt 0.7140 0.0106 0.0000
vt 0.7187 0.0108 0.0000
vt 0.7138 0.0058 0.0000
vt 0.7041 0.5209 0.0000
vt 0.7047 0.5020 0.0000
vt 0.1547 0.9925 0.0000
vt 0.7657 0.5105 0.0000
vt 0.6151 0.5216 0.0000
vt 0.8914 0.4782 0.0000
vt 0.8358 0.5773 0.0000
vt 0.8116 0.4223 0.0000
vt 0.9922 0.0509 0.0000
vt 0.9209 0.2028 0.0000
vt 0.8916 0.1021 0.0000
vt 0.6629 0.4917 0.0000
vt 0.6629 0.0108 0.0000
vt 0.6675 0.4968 0.0000
vt 0.3319 0.9835 0.0000
vt 0.3242 0.9199 0.0000
vt 0.3473 0.9835 0.0000
vt 0.3140 0.9929 0.0000
vt 0.2976 0.9921 0.0000
vt 0.4413 0.0060 0.0000
vt 0.6478 0.0061 0.0000
vt 0.6524 0.0107 0.0000
vt 0.6474 0.4919 0.0000
vt 0.6471 0.4967 0.0000
vt 0.4411 0.4966 0.0000
vt 0.4365 0.4916 0.0000
vt 0.6679 0.0058 0.0000
vt 0.7142 0.4968 0.0000
vt 0.7187 0.4921 0.0000
vt 0.6521 0.4921 0.0000
vt 0.4368 0.0106 0.0000
vt 0.3978 0.7449 0.0000
vt 0.4628 0.0673 0.0000
vt 0.8017 0.0730 0.0000
vt 0.4114 0.0160 0.0000
vt 0.0595 0.7894 0.0000
vt 0.0731 0.0600 0.0000
vt 0.0095 0.7390 0.0000
vt 0.0348 0.9927 0.0000
vt 0.0264 0.9832 0.0000
vt 0.0067 0.9905 0.0000
vt 0.8770 0.5781 0.0000
vt 0.8203 0.5986 0.0000
vt 0.8922 0.4356 0.0000
vt 0.9281 0.2248 0.0000
vt 0.9201 0.5786 0.0000
vt 0.8779 0.1851 0.0000
vt 0.3786 0.9422 0.0000
vt 0.3704 0.9640 0.0000
vt 0.1971 0.9418 0.0000
vt 0.9634 0.7491 0.0000
vt 0.9212 0.7645 0.0000
vt 0.9105 0.6645 0.0000
vt 0.8759 0.3922 0.0000
vt 0.8348 0.3921 0.0000
vt 0.8812 0.2431 0.0000
vt 0.8025 0.5029 0.0000
vt 0.5595 0.5016 0.0000
vt 0.6989 0.9940 0.0000
vt 0.7081 0.7866 0.0000
vt 0.7890 0.7520 0.0000
vt 0.8898 0.2923 0.0000
vt 0.9193 0.3762 0.0000
vt 0.8780 0.7638 0.0000
vt 0.4527 0.9919 0.0000
vt 0.4365 0.9916 0.0000
vt 0.9629 0.1867 0.0000
vt 0.4368 0.9423 0.0000
vt 0.4785 0.9925 0.0000
vt 0.0673 0.9916 0.0000
vt 0.2494 0.9824 0.0000
vt 0.2483 0.9905 0.0000
vt 0.0149 0.9818 0.0000
vt 0.3230 0.9924 0.0000
vt 0.3234 0.9834 0.0000
vt 0.4277 0.9922 0.0000
vt 0.9614 0.3775 0.0000
vt 0.9904 0.2411 0.0000
vt 0.8123 0.6087 0.0000
vt 0.9836 0.4153 0.0000
vt 0.1880 0.9926 0.0000
vt 0.2814 0.9907 0.0000
vt 0.9917 0.4255 0.0000
vt 0.9856 0.5984 0.0000
vt 0.8119 0.0477 0.0000
vt 0.2445 0.9912 0.0000
vt 0.2268 0.9811 0.0000
vt 0.1316 0.9899 0.0000
vt 0.5596 0.9944 0.0000
vt 0.6487 0.5080 0.0000
vt 0.6489 0.5013 0.0000
vt 0.5357 0.5017 0.0000
vt 0.5396 0.5017 0.0000
vt 0.2733 0.9892 0.0000
vt 0.7363 0.5013 0.0000
vt 0.7324 0.5013 0.0000
vt 0.5413 0.7870 0.0000
vt 0.7381 0.9940 0.0000
vt 0.8118 0.2197 0.0000
vt 0.8615 0.2236 0.0000
vt 0.8644 0.6699 0.0000
vt 0.9887 0.6094 0.0000
vt 0.8109 0.2351 0.0000
vt 0.8516 0.7913 0.0000
vt 0.7074 0.7847 0.0000
vt 0.8646 0.7913 0.0000
vt 0.8013 0.9907 0.0000
vt 0.0030 0.9890 0.0000
vt 0.8891 0.7913 0.0000
vt 0.8141 0.7913 0.0000
vt 0.7766 0.7913 0.0000
vt 0.7138 0.4968 0.0000
vt 0.7187 0.0104 0.0000
vt 0.8644 0.9907 0.0000
vt 0.7252 0.7866 0.0000
vt 0.8365 0.7637 0.0000
vt 0.2977 0.9925 0.0000
vt 0.6475 0.4967 0.0000
vt 0.6524 0.0111 0.0000
vt 0.8122 0.7817 0.0000
vt 0.1085 0.9634 0.0000
vt 0.0181 0.9413 0.0000
vt 0.1703 0.9928 0.0000
vt 0.3237 0.9834 0.0000
vt 0.6629 0.0104 0.0000
vt 0.9924 0.6119 0.0000
vt 0.9849 0.2241 0.0000
vt 0.9040 0.0487 0.0000
vt 0.7142 0.0058 0.0000
vt 0.4368 0.0110 0.0000
vt 0.4365 0.4920 0.0000
vt 0.5672 0.5014 0.0000
vt 0.9008 0.5448 0.0000
vt 0.2699 0.9900 0.0000
vt 0.8258 0.5448 0.0000
vt 0.7650 0.5448 0.0000
vt 0.9941 0.9920 0.0000
vt 0.9490 0.5011 0.0000
vt 0.9490 0.9920 0.0000
vt 0.6770 0.7866 0.0000
vt 0.8633 0.5313 0.0000
vt 0.8012 0.7913 0.0000
vt 0.8761 0.7913 0.0000
vt 0.7894 0.9907 0.0000
vt 0.7887 0.9907 0.0000
vt 0.4988 0.9806 0.0000
vt 0.1284 0.9814 0.0000
vt 0.1292 0.5750 0.0000
vt 0.4274 0.9824 0.0000
vt 0.4282 0.9919 0.0000
vt 0.3802 0.9928 0.0000
vt 0.7896 0.7913 0.0000
vt 0.7047 0.5011 0.0000
vt 0.7454 0.5020 0.0000
vt 0.8400 0.5178 0.0000
vt 0.5266 0.5014 0.0000
vt 0.7883 0.5178 0.0000
vt 0.5832 0.5014 0.0000
vt 0.8371 0.7638 0.0000
vt 0.6804 0.5011 0.0000
vt 0.8775 0.5178 0.0000
vt 0.4779 0.9924 0.0000
vt 0.0511 0.9825 0.0000
vt 0.9941 0.5011 0.0000
vt 0.8632 0.5118 0.0000
vt 0.7483 0.5405 0.0000
vt 0.5237 0.5408 0.0000
vt 0.6238 0.5014 0.0000
# 515 texture coords

o Escritorio070
g Escritorio070
usemtl Material__7923
s 1
f 1/1/1 2/2/1 3/3/2 
f 4/4/3 5/5/4 3/3/5 
f 5/5/6 4/4/7 6/6/8 
f 3/3/9 5/5/9 6/6/9 
f 6/6/10 2/2/11 7/7/12 
f 8/8/13 3/3/14 6/6/15 
f 9/9/16 6/6/15 10/10/17 
f 11/11/18 9/12/19 10/13/19 
usemtl Material__7910
f 12/14/20 13/15/21 14/16/22 
f 15/17/23 16/18/24 17/19/25 
f 16/18/24 15/17/23 18/20/26 
f 14/16/22 19/21/27 12/14/20 
usemtl Material__7923
f 10/10/17 6/6/15 20/22/28 
f 21/23/29 22/24/30 20/25/31 
usemtl Material__7910
f 23/26/23 24/27/24 25/28/25 
f 26/29/20 27/30/21 28/31/22 
f 29/32/32 30/33/33 31/34/34 
f 32/35/35 33/36/36 34/37/37 
f 24/27/24 23/26/23 35/20/26 
f 28/31/22 36/38/27 26/29/20 
f 37/39/38 38/40/39 39/41/40 
f 40/42/41 41/43/42 42/44/43 
f 43/45/20 44/46/22 45/47/27 
f 46/48/26 47/49/24 48/50/25 
f 46/48/26 48/50/25 49/51/23 
f 43/45/20 50/52/21 44/46/22 
f 42/44/43 34/53/44 40/42/41 
f 51/54/45 39/41/40 38/40/39 
f 52/55/46 53/56/47 54/57/48 
f 55/58/49 56/59/50 53/60/51 
f 29/61/32 57/62/52 58/63/53 
f 59/64/54 34/65/37 60/66/55 
usemtl Material__7923
f 61/67/2 1/68/1 3/69/2 
f 11/70/18 62/71/18 9/72/19 
f 63/73/56 64/74/57 65/75/58 
f 66/76/59 67/77/60 68/78/61 
f 69/23/29 70/24/30 71/25/31 
f 72/7/12 73/79/10 74/80/11 
f 75/72/19 76/81/19 77/70/18 
f 78/82/2 79/83/1 80/84/2 
f 77/70/18 81/71/18 75/72/19 
f 82/76/59 83/77/60 84/78/61 
f 78/67/2 85/68/1 79/85/1 
f 86/73/56 87/86/57 88/75/58 
f 89/87/19 90/88/18 91/89/18 
f 92/90/2 93/91/2 94/92/1 
f 95/93/60 96/94/61 97/95/59 
f 98/96/57 99/97/58 100/98/56 
usemtl Material__7910
f 101/99/62 102/100/63 103/101/64 
f 104/102/65 105/103/66 106/104/67 
f 107/105/68 31/106/69 108/107/70 
f 33/36/36 32/35/35 109/108/71 
usemtl Material__7923
f 110/109/2 111/110/1 112/111/2 
f 113/87/19 114/88/18 115/89/18 
f 116/93/60 117/94/61 118/95/59 
f 119/96/57 120/97/58 121/98/56 
f 122/112/72 123/113/29 124/114/30 
f 125/115/73 126/116/74 90/117/75 
f 127/118/1 92/119/2 94/110/1 
f 89/120/19 128/121/19 90/122/18 
f 114/122/18 113/123/19 129/121/19 
f 130/124/1 112/111/2 111/110/1 
f 131/112/72 132/113/29 133/114/30 
f 134/116/11 135/125/12 136/119/10 
usemtl Material__7910
f 137/126/62 138/127/63 139/101/64 
f 137/126/76 139/128/77 138/129/78 
f 54/57/48 53/56/47 140/130/79 
f 53/60/51 56/59/50 140/131/80 
usemtl Material__7923
f 74/80/11 141/132/81 72/7/12 
f 71/25/31 142/133/72 69/23/29 
f 143/134/82 144/135/83 71/25/84 
f 145/136/85 146/137/86 147/138/87 
f 148/136/85 149/137/86 150/138/87 
f 2/2/11 151/132/81 7/7/12 
f 20/25/31 152/133/72 21/23/29 
f 153/134/82 154/135/83 20/25/84 
usemtl Material__7910
f 29/32/88 31/34/69 155/139/89 
f 155/140/89 31/106/69 107/105/68 
usemtl Material__7923
f 156/141/90 157/142/91 158/143/92 
f 159/144/93 118/95/59 117/94/61 
f 120/97/58 119/96/57 160/145/94 
f 161/146/95 162/147/96 163/148/97 
f 99/97/58 98/96/57 164/145/94 
f 165/144/93 97/95/59 96/94/61 
f 166/149/98 167/142/91 168/143/92 
f 164/145/99 169/148/100 170/147/99 
f 171/150/101 172/151/102 173/115/101 
f 133/114/30 174/152/31 131/112/72 
f 131/112/103 175/153/104 176/154/105 
f 135/125/12 134/116/11 173/115/81 
f 177/155/96 64/74/97 178/156/95 
f 68/78/61 179/157/106 66/76/59 
f 64/74/57 180/158/94 65/75/58 
f 181/159/107 182/160/108 183/161/98 
f 184/162/109 185/155/110 87/86/109 
f 84/78/61 186/157/106 82/76/59 
f 87/86/57 187/158/94 88/75/58 
f 82/76/107 188/160/108 189/163/90 
f 190/150/101 191/151/102 125/115/101 
f 192/164/103 193/153/104 194/165/105 
f 124/114/30 195/152/31 122/112/72 
f 125/115/81 196/125/12 92/119/10 
usemtl Material__7910
f 197/166/111 105/167/112 104/168/65 
f 105/167/113 198/169/114 106/170/115 
f 199/171/25 200/172/23 201/173/26 
f 202/174/20 203/52/21 204/175/22 
f 201/173/26 205/176/24 199/171/25 
f 204/175/22 206/177/27 202/174/20 
f 60/66/55 34/65/37 33/178/36 
f 33/178/116 207/179/117 60/66/118 
f 208/180/119 106/170/115 198/169/114 
f 208/181/120 104/102/121 106/104/67 
f 209/54/45 55/58/122 53/60/38 
f 53/56/123 52/55/124 210/182/125 
usemtl Material__7923
f 158/143/92 211/149/98 156/141/90 
f 163/148/97 212/183/126 161/146/95 
usemtl Material__7910
f 213/184/127 29/32/88 155/139/89 
f 214/185/128 215/186/129 29/32/32 
usemtl Material__7923
f 216/187/82 176/154/105 175/153/104 
f 172/151/130 171/150/87 217/188/131 
f 144/135/83 143/134/82 218/189/105 
f 146/137/86 145/136/85 219/190/131 
f 149/137/86 148/136/85 220/190/131 
f 154/135/83 153/134/82 221/189/105 
f 222/191/82 194/165/105 193/153/104 
f 191/151/130 190/150/87 223/192/131 
f 167/142/91 166/149/98 224/193/90 
f 169/148/97 225/183/126 226/146/95 
f 227/194/132 228/195/133 229/196/134 
f 124/197/135 229/196/134 195/198/136 
f 183/161/98 230/163/90 181/159/107 
f 231/199/126 178/156/95 64/74/97 
f 185/155/96 184/162/97 232/200/95 
f 233/161/98 189/163/90 188/160/108 
usemtl Material__7910
f 53/60/38 137/201/137 209/54/45 
f 210/182/125 137/126/138 53/56/123 
f 60/202/118 207/203/117 57/204/139 
f 215/186/129 57/205/52 29/32/32 
f 51/54/45 234/206/137 104/168/140 
f 102/207/141 104/102/121 208/181/120 
f 197/166/111 235/208/112 105/167/112 
f 198/169/114 105/167/113 235/208/113 
usemtl Material__7923
f 236/209/3 112/111/5 130/124/142 
f 237/210/143 136/119/143 135/125/144 
f 238/211/145 85/68/146 78/67/147 
f 239/212/148 88/75/148 187/158/149 
f 64/74/150 63/73/151 9/213/16 
f 8/214/13 6/215/15 9/213/16 
f 240/216/152 91/217/153 90/117/75 
f 91/218/153 99/97/154 164/145/155 
usemtl Material__7910
f 241/219/156 242/204/157 54/57/158 
f 56/61/159 242/62/52 241/220/160 
usemtl Material__7923
f 243/221/161 244/222/162 245/223/163 
f 152/224/164 244/222/162 21/225/165 
f 86/9/13 80/84/166 76/10/17 
f 76/10/17 80/84/166 71/22/28 
f 86/73/13 76/10/17 75/213/16 
f 82/226/167 86/73/13 75/213/16 
f 246/227/168 247/228/152 115/218/153 
f 115/218/153 120/97/154 160/145/155 
f 248/221/161 249/229/169 239/223/163 
f 142/224/164 249/229/169 69/225/165 
f 250/230/170 110/91/171 112/231/172 
f 119/96/136 251/232/173 250/230/170 
f 68/233/174 245/212/163 179/234/175 
f 245/223/163 252/235/176 243/221/161 
f 98/96/136 253/232/171 254/230/170 
f 254/230/170 93/91/177 229/236/134 
usemtl Material__7910
f 34/65/37 59/64/54 255/237/178 
f 34/65/44 256/238/179 257/239/180 
f 208/181/119 101/240/181 103/241/182 
f 103/242/183 102/207/184 208/243/185 
f 30/244/33 29/61/32 258/245/186 
f 259/246/156 57/204/139 207/203/117 
f 215/247/157 260/248/187 261/249/158 
f 29/32/32 262/250/188 214/185/128 
usemtl Material__7923
f 237/210/143 263/251/143 136/119/143 
f 263/251/189 112/111/189 136/119/190 
f 131/252/191 246/253/168 114/117/75 
f 114/117/75 246/253/168 115/217/153 
f 126/116/74 127/118/192 90/117/75 
f 90/117/75 127/118/192 240/216/152 
f 264/254/193 85/68/193 88/75/194 
f 239/212/148 264/254/148 88/75/148 
f 143/255/195 265/256/196 146/137/197 
f 72/7/198 71/22/28 80/84/166 
f 153/255/195 266/256/196 149/137/197 
f 7/7/198 20/22/28 6/6/15 
f 92/119/10 126/116/11 125/115/81 
f 126/116/199 267/209/7 127/118/200 
f 187/158/201 186/234/175 239/212/163 
f 188/257/202 268/258/203 269/259/204 
f 254/230/170 97/260/205 270/261/206 
f 225/183/207 169/148/208 167/262/209 
usemtl Material__7910
f 51/263/45 271/264/210 272/265/211 
f 273/266/212 271/267/213 40/268/214 
f 155/139/89 274/269/215 213/184/127 
f 275/270/216 155/140/89 276/271/217 
usemtl Material__7923
f 277/272/218 278/273/219 160/145/220 
f 279/274/221 159/275/222 115/218/153 
f 246/253/168 131/252/191 173/115/73 
f 173/115/223 280/276/203 281/277/224 
f 182/257/202 282/258/203 283/259/204 
f 180/158/201 179/234/175 245/212/163 
usemtl Material__7910
f 235/208/112 197/166/111 234/206/225 
f 234/206/137 197/166/111 104/168/226 
usemtl Material__7923
f 195/198/136 229/196/134 196/125/205 
f 193/278/208 191/151/227 223/192/228 
f 175/278/208 172/151/227 217/188/228 
f 174/198/136 237/210/229 135/125/205 
f 244/222/162 152/224/164 151/132/222 
f 148/136/230 150/138/202 154/279/231 
f 145/136/230 147/138/202 144/279/231 
f 249/229/169 142/224/164 141/132/222 
f 212/183/207 163/148/208 157/262/209 
f 250/230/170 118/260/205 284/261/206 
f 64/74/232 285/280/233 230/281/234 
f 9/213/16 66/226/167 64/74/150 
f 87/86/232 286/280/233 189/281/234 
f 86/73/13 82/226/167 87/86/150 
f 287/274/221 165/275/222 91/218/153 
f 288/272/218 289/273/219 164/145/220 
f 125/115/223 290/276/203 194/277/224 
f 90/117/75 122/252/191 125/115/73 
usemtl Material__7910
f 40/268/214 271/267/235 102/207/125 
f 291/282/236 40/42/41 292/283/237 
usemtl Material__7923
f 112/111/172 263/251/238 237/210/229 
f 237/210/229 250/284/170 112/111/172 
f 85/68/239 264/254/240 239/212/163 
f 249/285/169 85/68/239 239/212/163 
usemtl Material__7910
f 293/286/241 292/283/242 102/100/63 
f 102/207/125 292/287/237 40/268/41 
f 29/32/88 294/288/243 295/289/50 
f 60/66/55 296/290/244 59/64/54 
f 276/291/245 297/292/246 298/293/247 
f 299/294/248 42/44/43 41/43/42 
f 293/286/241 102/100/63 101/99/62 
f 198/169/114 101/295/249 208/180/119 
f 261/249/158 60/66/118 215/247/157 
f 60/66/118 57/296/139 215/247/157 
f 299/294/250 300/297/251 301/298/252 
f 101/99/253 302/299/254 293/286/241 
f 303/300/128 242/301/129 56/289/159 
f 303/302/255 54/249/158 242/303/157 
f 39/41/40 304/58/256 37/39/38 
f 271/264/213 273/304/212 272/265/211 
usemtl Material__7923
f 281/277/224 171/150/257 173/115/223 
f 305/305/258 176/154/259 306/306/260 
f 164/145/220 170/147/261 288/272/218 
f 224/193/262 166/149/258 307/307/263 
f 308/308/264 189/163/265 233/161/258 
f 189/281/234 184/162/266 87/86/232 
f 148/136/230 154/279/231 309/309/267 
f 220/310/262 148/311/258 221/189/259 
f 219/310/262 145/311/258 218/189/259 
f 145/136/230 144/279/231 310/309/267 
f 311/312/268 312/154/259 222/191/260 
f 194/277/224 190/150/257 125/115/223 
f 313/313/269 193/278/208 223/192/228 
f 222/191/260 223/314/262 311/312/268 
f 212/183/207 157/262/209 156/315/270 
f 314/316/259 212/317/260 315/318/262 
f 315/318/262 211/149/258 314/316/259 
f 162/147/261 161/146/271 277/272/218 
f 316/192/272 217/188/272 317/319/273 
f 216/313/269 175/278/208 217/188/228 
f 233/161/258 232/320/259 308/308/264 
f 232/200/274 269/259/204 268/258/203 
usemtl Material__7910
f 299/294/275 276/291/276 318/321/277 
f 301/322/252 276/271/278 299/323/279 
f 297/131/280 276/271/281 319/324/282 
f 107/105/68 320/325/283 155/140/89 
f 321/326/284 322/327/284 323/328/284 
f 324/329/285 325/330/285 326/331/285 
f 327/332/285 328/333/285 329/334/285 
f 330/335/284 331/336/284 332/337/284 
f 323/328/284 333/338/284 321/326/284 
f 326/331/285 334/339/285 324/329/285 
f 329/334/285 335/340/285 327/332/285 
f 332/337/284 336/341/284 330/335/284 
usemtl Material__7923
f 230/281/234 337/162/266 64/74/232 
f 338/342/260 230/163/265 183/161/258 
f 178/156/274 283/259/204 282/258/203 
f 183/161/258 178/343/259 231/344/264 
usemtl Material__7910
f 48/50/286 47/345/287 45/346/288 
f 46/48/289 45/347/290 47/49/291 
f 339/327/284 340/338/284 341/326/284 
f 342/331/285 343/339/285 344/329/285 
f 345/332/285 346/333/285 347/340/285 
f 348/335/284 349/336/284 350/337/284 
f 340/338/284 339/327/284 351/328/284 
f 344/329/285 352/330/285 342/331/285 
f 353/334/285 347/340/285 346/333/285 
f 350/337/284 354/341/284 348/335/284 
usemtl Material__7923
f 355/348/292 356/349/293 225/183/207 
f 307/307/263 225/317/260 224/193/262 
usemtl Material__7910
f 38/40/39 234/206/137 51/54/45 
f 276/271/278 301/322/252 357/350/294 
usemtl Material__7923
f 221/189/259 358/351/260 220/310/262 
f 359/352/295 220/190/296 153/255/195 
usemtl Material__27357
s 2
f 360/353/297 361/354/298 362/355/299 
f 362/356/300 363/357/301 360/358/302 
usemtl Material__7910
s 1
f 50/359/303 43/360/304 49/51/305 
f 50/361/306 49/51/307 48/50/308 
f 364/362/309 304/363/256 39/364/40 
f 274/269/215 365/365/310 366/366/311 
f 14/367/312 13/368/313 15/17/314 
f 13/369/315 18/370/316 15/17/317 
f 12/371/318 19/372/319 16/18/320 
f 17/19/321 16/18/322 19/373/323 
f 46/48/289 43/374/318 45/347/290 
f 49/51/305 43/360/304 46/48/316 
usemtl Material__7923
f 367/352/295 219/190/296 143/255/195 
f 218/189/259 368/351/260 219/310/262 
usemtl Material__7910
f 48/50/308 44/375/312 50/361/306 
f 45/346/288 44/376/324 48/50/286 
f 12/371/318 16/18/320 18/20/289 
f 13/369/315 12/377/325 18/370/316 
f 17/19/308 14/367/312 15/17/314 
f 17/19/321 19/373/323 14/378/326 
usemtl Material__27358
s 2
f 369/379/327 370/380/328 371/381/329 
f 370/382/330 372/383/331 371/384/332 
f 373/380/330 374/385/331 375/384/332 
f 376/379/327 373/380/328 375/381/329 
f 377/379/327 378/380/328 379/381/329 
f 378/382/330 380/385/331 379/384/332 
usemtl Material__7910
s 1
f 381/386/333 298/293/247 297/292/246 
f 382/387/334 297/292/335 383/388/336 
usemtl Material__27357
s 2
f 384/389/337 385/390/298 386/391/338 
f 385/392/339 384/357/301 387/356/300 
f 388/389/337 389/390/298 390/353/297 
f 389/392/339 388/357/301 391/356/300 
f 392/353/297 393/393/340 394/389/341 
f 394/357/301 393/394/342 392/358/302 
f 395/395/343 361/396/344 362/397/345 
f 395/390/346 362/355/299 361/354/298 
f 396/398/347 397/399/348 398/400/349 
f 397/401/350 396/402/351 399/403/352 
usemtl Material__7923
s 1
f 400/404/353 316/314/262 305/305/258 
f 217/188/354 316/192/354 400/405/355 
usemtl Material__27357
s 2
f 401/398/347 402/399/348 403/400/349 
f 402/401/350 401/402/351 404/403/352 
usemtl Material__7923
s 1
f 237/236/229 405/406/132 406/407/133 
f 133/197/135 237/210/229 174/198/136 
usemtl Material__27357
s 2
f 407/401/350 408/402/351 409/403/352 
f 408/398/347 407/399/348 410/400/349 
usemtl Material__27358
f 411/379/327 412/380/328 413/381/329 
f 412/382/330 414/385/331 413/384/332 
f 377/379/356 380/385/331 378/382/330 
f 377/379/327 379/381/329 380/408/357 
f 369/379/327 371/381/329 372/408/357 
f 369/379/356 372/383/331 370/382/330 
f 376/379/356 374/385/331 373/380/330 
f 376/379/327 375/381/329 374/408/358 
f 411/379/327 413/381/329 414/408/357 
f 411/379/356 414/385/331 412/382/330 
usemtl Material__27357
f 415/409/302 416/410/359 417/401/350 
f 415/400/349 417/399/348 416/411/360 
usemtl Material__7910
s 1
f 296/290/244 418/412/361 59/64/362 
f 365/413/363 59/64/362 418/412/212 
usemtl Material__27357
s 2
f 361/414/364 363/357/301 362/356/300 
f 361/354/365 363/389/346 395/390/346 
f 395/395/366 363/415/367 361/396/368 
f 363/389/337 361/354/298 360/353/297 
usemtl Material__7910
s 1
f 261/249/48 419/416/369 418/412/361 
f 420/302/370 419/416/371 261/249/158 
f 291/282/236 301/298/372 300/297/373 
f 40/42/41 291/282/236 41/43/42 
f 54/57/158 140/130/334 241/219/156 
f 140/131/374 56/61/159 241/220/160 
f 318/321/277 421/417/375 298/293/247 
f 34/37/37 318/321/277 32/35/35 
f 259/418/376 422/419/377 57/62/378 
f 383/388/336 423/420/379 382/387/334 
f 424/421/380 275/422/381 364/362/309 
f 34/65/44 424/423/124 256/238/179 
usemtl Material__27357
s 2
f 425/424/382 410/409/302 426/425/383 
f 410/400/349 427/411/360 426/426/384 
f 428/424/382 403/409/302 429/425/383 
f 403/400/349 430/411/360 429/426/384 
usemtl Material__7923
s 1
f 244/285/162 1/68/240 245/212/163 
f 431/211/145 1/68/146 61/67/147 
f 245/212/148 65/75/148 180/158/149 
f 1/68/240 432/254/385 245/212/163 
f 239/223/163 433/235/176 248/221/161 
f 84/233/174 239/212/163 186/234/175 
usemtl Material__27357
s 2
f 434/427/386 398/409/302 435/425/383 
f 398/400/349 436/411/360 435/426/384 
usemtl Material__7910
s 1
f 437/428/387 319/324/282 276/271/281 
f 320/325/283 276/271/51 155/140/89 
usemtl Material__27357
s 2
f 438/424/382 415/409/302 439/425/383 
f 415/400/349 416/411/360 439/426/384 
usemtl Material__7910
s 1
f 29/32/88 213/184/127 294/288/243 
f 365/365/212 418/429/212 366/366/311 
usemtl Material__27357
s 2
f 392/353/297 440/430/388 441/431/389 
f 393/394/342 440/432/390 392/358/302 
f 442/394/342 443/432/390 390/358/302 
f 390/353/297 443/430/388 444/431/389 
usemtl Material__7910
s 1
f 107/105/68 108/107/70 297/131/391 
f 383/433/392 297/131/393 445/434/374 
f 357/350/394 301/322/395 234/206/137 
f 234/206/225 302/435/396 235/208/112 
usemtl Material__27357
s 2
f 446/394/342 447/432/390 386/358/302 
f 386/391/338 447/430/388 448/431/389 
usemtl Material__7923
s 1
f 449/251/143 92/119/143 196/125/144 
f 229/196/397 93/436/397 92/119/397 
f 450/229/398 151/132/399 2/2/398 
f 244/285/400 2/85/400 1/68/400 
usemtl Material__7910
f 33/36/116 382/387/401 207/203/117 
f 207/203/117 382/387/334 423/420/379 
usemtl Material__7923
f 451/437/402 308/199/403 232/200/404 
f 452/438/405 451/437/406 189/281/234 
f 453/439/407 454/319/408 194/277/224 
f 454/319/273 311/440/409 223/192/272 
usemtl Material__7910
f 419/441/410 420/300/411 262/250/188 
f 419/441/412 295/289/50 294/288/243 
usemtl Material__7923
f 288/272/218 226/146/271 455/442/413 
f 226/146/414 225/183/403 307/443/404 
f 456/444/415 134/116/415 130/124/416 
f 134/116/199 236/209/7 130/124/200 
f 134/116/74 456/444/169 246/253/168 
f 173/115/73 134/116/74 246/253/168 
f 246/253/417 456/444/418 130/124/418 
f 247/228/417 246/227/417 130/445/418 
usemtl Material__27357
s 2
f 457/446/419 361/414/350 458/447/420 
f 458/393/340 360/353/297 457/431/389 
f 457/446/421 459/432/390 458/394/342 
f 457/446/419 363/357/301 361/414/350 
usemtl Material__7910
s 1
f 261/249/158 260/248/187 420/302/370 
f 214/185/128 262/250/188 420/300/411 
f 257/239/180 40/268/41 34/65/44 
f 40/268/214 257/239/422 273/266/212 
usemtl Material__27357
s 2
f 446/393/340 386/391/338 448/431/389 
f 448/446/421 447/432/390 446/394/342 
f 448/446/419 385/392/339 446/447/420 
f 448/446/419 384/357/301 385/392/339 
f 444/446/419 388/357/301 389/392/339 
f 444/446/419 389/392/339 442/447/420 
f 442/393/340 390/353/297 444/431/389 
f 444/446/421 443/432/390 442/394/342 
usemtl Material__7923
s 1
f 97/95/423 254/448/424 95/93/425 
f 228/407/133 254/230/170 229/236/134 
usemtl Material__27357
s 2
f 460/449/426 410/400/427 426/426/384 
f 426/425/383 409/403/352 460/450/428 
f 460/450/428 409/403/352 408/402/351 
f 408/398/347 410/400/349 460/449/426 
f 461/450/429 404/403/352 401/402/351 
f 461/449/426 403/400/427 429/426/384 
f 401/398/347 403/400/349 461/449/426 
f 429/425/383 404/403/352 461/450/429 
usemtl Material__7923
s 1
f 96/94/430 95/93/431 462/451/432 
f 254/230/170 228/407/133 95/452/433 
f 228/453/431 89/87/434 95/93/431 
f 128/121/435 89/123/436 228/454/436 
f 305/439/407 317/319/408 281/277/224 
f 317/319/273 305/439/273 316/192/272 
usemtl Material__7910
f 383/388/336 422/455/437 259/246/156 
f 57/62/378 422/419/377 58/63/438 
usemtl Material__7923
f 249/285/400 79/85/400 85/68/400 
f 249/229/398 141/132/399 74/80/398 
f 67/77/439 66/76/440 9/72/439 
f 463/456/441 9/72/442 62/71/443 
f 464/457/444 114/122/445 129/121/446 
f 132/113/447 131/112/448 114/122/447 
f 465/457/444 90/122/445 128/121/446 
f 123/113/447 122/112/448 90/122/447 
f 77/11/449 76/13/450 466/458/444 
f 76/13/451 71/25/452 70/24/451 
f 11/11/449 10/13/450 467/458/444 
f 10/13/451 20/25/452 22/24/451 
f 406/407/133 250/230/170 237/236/229 
f 118/95/423 250/448/424 116/93/425 
f 83/77/439 82/76/440 75/72/439 
f 468/456/441 75/72/442 81/71/443 
usemtl Material__7910
f 204/459/312 203/361/306 199/171/308 
f 206/460/288 204/376/453 199/171/286 
usemtl Material__7923
f 250/230/170 406/407/133 116/452/433 
f 117/94/430 116/93/431 469/451/432 
f 113/87/436 406/453/436 405/461/435 
f 406/453/431 113/87/434 116/93/431 
f 100/98/454 99/97/455 470/462/456 
f 91/218/153 240/228/152 99/97/154 
f 115/218/153 247/228/152 120/97/154 
f 121/98/454 120/97/455 471/462/456 
f 111/92/457 120/97/458 247/228/458 
f 130/445/418 111/92/417 247/228/417 
f 127/445/418 94/92/417 240/228/417 
f 94/92/457 99/97/458 240/228/458 
usemtl Material__27357
s 2
f 428/463/365 402/399/348 401/398/347 
f 428/424/382 401/402/459 402/401/350 
f 428/424/382 430/410/359 403/409/302 
f 429/426/384 430/411/360 428/463/365 
usemtl Material__7910
s 1
f 209/54/45 137/201/137 210/168/460 
f 209/263/45 210/264/210 472/464/380 
f 445/434/374 258/245/186 383/433/392 
f 422/419/461 383/433/392 58/63/53 
f 26/465/318 24/27/320 35/20/289 
f 27/466/315 26/377/325 35/370/316 
usemtl Material__27357
s 2
f 434/427/386 436/410/359 398/409/302 
f 434/467/462 397/399/348 396/398/347 
f 434/427/386 396/402/459 397/401/350 
f 435/426/384 436/411/360 434/467/462 
usemtl Material__7910
s 1
f 304/58/256 275/270/216 276/271/217 
f 304/363/256 364/362/309 275/422/381 
usemtl Material__27357
s 2
f 425/463/365 407/399/348 408/398/347 
f 425/424/382 408/402/459 407/401/350 
f 425/424/382 427/410/359 410/409/302 
f 426/426/384 427/411/360 425/463/365 
f 360/353/297 459/430/388 457/431/389 
f 362/355/299 459/430/388 360/353/297 
f 458/394/342 459/432/390 360/358/302 
f 473/468/463 459/469/464 362/397/465 
usemtl Material__7910
s 1
f 357/350/394 474/470/466 276/271/467 
f 276/271/468 37/39/38 304/58/256 
f 472/464/380 55/471/122 209/263/45 
f 472/464/469 56/289/50 55/471/49 
f 203/359/303 202/472/304 200/172/305 
f 203/361/306 200/172/307 199/171/308 
usemtl Material__27357
s 2
f 475/450/428 399/403/352 396/402/351 
f 396/398/347 398/400/349 475/473/426 
f 475/473/426 398/400/427 435/426/384 
f 435/425/383 399/403/352 475/450/428 
f 393/393/340 392/353/297 441/431/389 
f 441/446/421 440/432/390 393/394/342 
f 393/394/342 394/357/301 441/446/419 
f 441/446/419 476/474/339 393/447/420 
usemtl Material__7910
s 1
f 275/422/470 424/421/469 365/365/310 
f 34/65/37 255/237/178 424/423/46 
f 256/238/179 273/266/471 257/239/422 
f 256/238/179 424/423/472 273/266/471 
usemtl Material__27357
s 2
f 477/450/428 478/403/352 479/402/351 
f 479/398/347 415/400/349 477/473/426 
f 477/473/426 415/400/427 439/426/384 
f 439/425/383 478/403/352 477/450/428 
f 387/356/300 386/358/302 480/475/473 
f 386/391/338 385/390/298 387/355/299 
f 387/356/300 384/357/301 386/358/302 
f 387/355/299 447/430/388 386/391/338 
usemtl Material__7910
s 1
f 28/367/312 27/368/313 23/26/314 
f 27/466/315 35/370/316 23/26/317 
usemtl Material__7923
f 432/254/193 1/68/193 65/75/194 
f 245/212/148 432/254/148 65/75/148 
usemtl Material__7910
f 200/172/305 202/472/304 201/173/316 
f 201/173/289 202/374/318 206/476/290 
f 26/465/318 36/372/319 24/27/320 
f 28/477/474 24/27/322 36/478/323 
f 382/387/79 33/36/36 109/108/71 
f 297/292/475 382/387/79 109/108/71 
usemtl Material__7923
f 217/188/354 400/405/355 306/479/476 
f 306/306/260 400/404/353 305/305/258 
f 160/145/99 163/148/100 162/147/99 
f 160/145/220 162/147/261 277/272/218 
usemtl Material__7910
f 301/322/395 302/435/477 234/206/137 
f 293/286/138 302/299/478 301/298/372 
usemtl Material__27357
s 2
f 481/356/300 394/357/301 392/358/302 
f 481/356/300 392/358/302 482/475/473 
f 481/355/299 440/430/388 392/353/297 
f 392/353/297 483/354/298 481/355/299 
f 391/355/299 443/430/388 390/353/297 
f 391/356/300 388/357/301 390/358/302 
f 391/356/300 390/358/302 484/475/473 
f 390/353/297 389/390/298 391/355/299 
f 485/427/386 417/401/350 416/410/359 
f 438/424/382 439/425/383 485/427/386 
f 485/467/462 439/426/384 438/463/365 
f 485/467/462 416/411/479 417/399/348 
usemtl Material__7923
s 1
f 285/280/480 64/74/481 66/226/482 
f 181/159/483 230/163/484 285/480/485 
usemtl Material__7910
f 24/27/322 28/477/474 25/28/321 
f 25/28/308 28/367/312 23/26/314 
f 205/176/287 206/460/288 199/171/286 
f 201/173/289 206/476/290 205/176/291 
usemtl Material__7923
f 231/344/264 338/342/260 183/161/258 
f 231/199/486 64/74/487 337/162/488 
usemtl Material__7910
f 303/300/128 56/289/159 486/481/410 
f 56/289/50 472/464/469 486/481/412 
usemtl Material__7923
f 280/276/489 173/115/490 131/252/491 
f 131/112/492 176/154/493 280/482/494 
f 160/145/495 119/96/496 163/148/496 
f 157/262/497 163/148/498 119/96/498 
f 167/262/497 169/148/498 98/96/498 
f 164/145/495 98/96/496 169/148/496 
f 266/483/499 153/134/500 20/25/501 
f 20/22/502 7/7/503 266/256/480 
f 71/22/502 72/7/503 265/256/480 
f 265/483/499 143/134/500 71/25/501 
f 82/76/483 189/163/484 286/480/485 
f 286/280/480 87/86/481 82/226/482 
f 168/143/504 167/142/505 165/144/504 
f 165/275/506 164/145/507 289/273/489 
f 158/143/504 157/142/505 159/144/504 
f 159/275/506 160/145/507 278/273/489 
usemtl Material__27357
s 2
f 480/468/463 447/469/464 387/397/508 
f 447/432/390 480/475/509 386/358/302 
f 443/432/390 484/475/509 390/358/302 
f 484/468/463 443/469/464 391/397/508 
f 482/468/463 440/469/464 481/397/508 
f 440/432/390 482/475/509 392/358/302 
usemtl Material__7910
s 1
f 351/328/510 344/484/510 340/338/510 
f 346/333/510 348/335/510 353/334/510 
f 342/331/511 339/327/511 341/326/511 
f 345/485/511 347/486/511 350/337/511 
f 331/336/511 327/485/511 335/486/511 
f 334/339/511 326/331/511 322/327/511 
f 322/327/511 321/326/511 334/339/511 
f 335/486/511 332/337/511 331/336/511 
usemtl Material__27357
s 2
f 483/395/343 476/396/344 481/397/345 
f 483/414/364 481/356/300 476/474/339 
f 394/392/512 393/447/513 476/474/514 
f 441/446/419 394/357/301 476/474/339 
usemtl Material__7923
s 1
f 133/114/515 464/457/516 129/121/517 
f 133/197/135 405/194/132 237/210/229 
f 68/233/174 252/487/176 245/212/163 
f 68/78/518 463/456/432 62/71/430 
f 84/78/518 468/456/432 81/71/430 
f 84/233/174 433/487/176 239/212/163 
f 225/183/207 167/262/209 355/348/292 
f 355/488/519 167/142/520 224/193/521 
f 129/121/435 113/123/436 405/489/435 
f 133/114/515 129/121/517 405/489/515 
usemtl Material__7910
f 262/250/188 295/289/159 419/441/410 
f 29/32/32 295/289/159 262/250/188 
usemtl Material__7923
f 68/78/518 62/71/430 252/490/518 
f 252/491/522 62/492/522 11/11/522 
f 433/491/522 81/492/522 77/11/522 
f 84/78/518 81/71/430 433/490/518 
f 146/137/503 265/256/480 72/7/503 
f 147/138/523 146/137/524 72/7/524 
f 185/155/525 232/200/526 268/258/527 
f 187/158/528 268/258/529 188/257/530 
f 177/155/525 178/156/526 282/258/527 
f 180/158/528 282/258/529 182/257/530 
usemtl Material__7910
f 210/168/531 137/201/532 138/129/533 
f 210/182/534 138/127/535 137/126/536 
f 260/248/187 214/493/255 420/302/537 
f 215/247/157 214/493/255 260/248/187 
usemtl Material__27357
s 2
f 483/414/364 394/357/301 481/356/300 
f 476/474/339 394/357/301 483/414/350 
f 483/395/366 394/415/367 476/396/368 
f 394/389/337 483/354/298 392/353/297 
usemtl Material__7910
s 1
f 108/107/70 445/434/80 297/131/391 
f 445/434/80 108/107/70 31/106/69 
f 487/494/538 101/99/539 103/101/540 
f 103/495/541 101/295/542 487/494/543 
f 104/102/140 102/207/460 51/263/45 
f 51/263/45 102/207/460 271/264/210 
usemtl Material__27357
s 2
f 458/394/342 363/357/301 457/446/419 
f 360/353/297 458/393/340 363/389/337 
f 363/357/301 458/394/342 360/358/302 
f 363/392/512 458/447/513 361/414/514 
usemtl Material__7910
s 1
f 437/428/387 276/271/544 320/325/283 
f 319/324/282 437/428/387 320/325/283 
f 383/388/336 259/246/156 423/420/379 
f 423/420/379 259/246/156 207/203/117 
usemtl Material__27357
s 2
f 390/353/297 442/393/340 388/389/337 
f 442/394/342 388/357/301 444/446/419 
f 388/357/301 442/394/342 390/358/302 
f 388/389/545 442/393/340 389/390/346 
usemtl Material__7910
s 1
f 52/496/124 472/497/546 210/498/235 
f 472/497/547 52/496/46 54/249/48 
usemtl Material__7923
f 150/138/523 149/137/524 7/7/524 
f 149/137/503 266/256/480 7/7/503 
f 154/279/548 150/138/549 151/132/549 
f 7/7/524 151/132/523 150/138/523 
f 170/147/261 226/146/271 288/272/218 
f 226/146/95 170/147/96 169/148/97 
f 189/281/234 451/437/406 184/162/266 
f 451/437/126 232/200/95 184/162/97 
f 454/319/85 223/192/131 190/150/87 
f 194/277/224 454/319/408 190/150/257 
f 281/277/224 317/319/408 171/150/257 
f 317/319/85 217/188/131 171/150/87 
usemtl Material__7910
f 299/294/248 318/321/123 42/44/43 
f 34/53/44 42/44/43 318/321/123 
usemtl Material__7923
f 117/94/550 115/89/550 159/144/551 
f 117/94/443 469/451/441 115/89/552 
f 96/94/443 462/451/441 91/89/552 
f 96/94/550 91/89/550 165/144/551 
f 287/274/221 91/218/153 164/145/155 
f 164/145/553 165/275/554 287/274/555 
f 279/274/221 115/218/153 160/145/155 
f 160/145/553 159/275/554 279/274/555 
f 77/11/556 466/458/516 69/23/557 
f 249/229/169 248/221/161 69/225/165 
f 244/222/162 243/221/161 21/225/165 
f 11/11/556 467/458/516 21/23/557 
f 337/162/488 338/438/486 231/199/486 
f 230/281/234 338/438/405 337/162/266 
f 124/114/515 465/457/516 128/121/517 
f 124/197/135 227/194/132 229/196/134 
usemtl Material__27357
s 2
f 384/389/545 446/393/340 385/390/346 
f 384/357/301 446/394/342 386/358/302 
f 446/394/342 384/357/301 448/446/419 
f 386/391/338 446/393/340 384/389/337 
usemtl Material__7923
s 1
f 77/11/522 248/499/522 433/491/522 
f 248/499/557 77/11/556 69/23/557 
f 243/499/557 11/11/556 21/23/557 
f 11/11/522 243/499/522 252/491/522 
f 124/114/515 128/121/517 227/489/515 
f 228/454/436 227/489/435 128/121/435 
f 212/183/207 156/315/270 315/500/293 
f 211/149/558 315/318/559 156/141/559 
usemtl Material__27357
s 2
f 417/401/350 479/402/351 478/403/352 
f 479/398/347 417/399/348 415/400/349 
f 485/467/462 417/399/348 479/398/347 
f 485/427/386 479/402/459 417/401/350 
usemtl Material__7923
s 1
f 222/479/560 313/313/269 223/192/228 
f 222/191/561 193/153/562 313/187/563 
f 86/73/564 238/211/456 78/67/454 
f 488/214/565 80/215/166 86/73/13 
f 161/146/414 212/183/402 314/442/414 
f 277/272/218 161/146/271 314/442/413 
f 277/272/218 314/442/413 211/501/566 
f 211/149/567 158/143/568 277/502/569 
f 281/165/570 280/482/494 176/154/493 
f 176/503/413 305/439/407 281/277/224 
f 290/276/489 125/115/490 122/252/491 
f 122/112/571 193/153/572 192/164/571 
f 488/214/573 86/73/573 78/67/574 
f 488/214/575 78/67/575 80/69/575 
usemtl Material__27357
s 2
f 434/467/462 436/411/479 397/399/348 
f 434/427/386 397/401/350 436/410/359 
f 398/409/302 436/410/359 397/401/350 
f 398/400/349 397/399/348 436/411/360 
f 403/400/349 402/399/348 430/411/360 
f 428/463/365 430/411/479 402/399/348 
f 428/424/382 402/401/350 430/410/359 
f 403/409/302 430/410/359 402/401/350 
usemtl Material__7923
s 1
f 182/160/504 66/76/505 179/157/504 
f 182/257/530 179/234/530 180/158/528 
f 188/160/504 82/76/505 186/157/504 
f 188/257/530 186/234/530 187/158/528 
f 254/230/170 270/261/206 98/96/136 
f 97/260/497 98/96/498 270/261/576 
f 118/260/497 119/96/498 284/261/576 
f 250/230/170 284/261/206 119/96/136 
f 63/73/564 431/211/456 61/67/454 
f 63/73/151 8/214/13 9/213/16 
f 310/504/577 144/135/578 218/189/579 
f 145/136/230 310/309/267 218/505/580 
f 148/136/230 309/309/267 221/505/580 
f 309/504/577 154/135/578 221/189/579 
f 72/7/524 141/132/523 147/138/523 
f 144/279/548 147/138/549 141/132/549 
f 8/214/573 63/73/573 61/67/574 
f 8/214/575 61/67/575 3/69/581 
f 489/4/3 73/79/4 80/84/5 
f 80/84/166 490/5/14 72/7/198 
usemtl Material__27357
s 2
f 438/424/382 416/410/359 415/409/302 
f 485/427/386 416/410/359 438/424/382 
f 438/506/365 416/411/479 485/467/462 
f 439/426/384 416/411/360 438/463/365 
f 410/409/302 427/410/359 407/401/350 
f 410/400/349 407/399/348 427/411/360 
f 425/463/365 427/411/479 407/399/348 
f 425/424/382 407/401/350 427/410/359 
usemtl Material__7923
s 1
f 73/79/582 72/7/583 490/5/582 
f 73/79/4 490/5/5 80/84/5 
f 191/151/524 196/125/524 125/115/523 
f 196/125/584 191/151/584 193/278/585 
f 152/133/571 20/25/572 154/135/571 
f 151/132/549 152/224/548 154/279/548 
f 232/200/274 233/507/586 269/259/204 
f 188/160/587 269/508/588 233/161/589 
f 74/80/199 73/79/6 489/4/7 
f 79/83/200 249/229/199 74/80/199 
f 141/132/549 142/224/548 144/279/548 
f 142/133/571 71/25/572 144/135/571 
usemtl Material__27357
s 2
f 362/356/300 360/358/302 473/475/473 
f 459/432/390 473/475/509 360/358/302 
usemtl Material__7923
s 1
f 307/443/404 455/442/414 226/146/414 
f 307/307/263 166/149/258 455/316/259 
f 367/352/590 146/137/591 219/190/592 
f 146/137/197 367/352/295 143/255/195 
f 149/137/197 359/352/295 153/255/195 
f 359/352/590 149/137/591 220/190/592 
f 172/151/524 135/125/524 173/115/523 
f 135/125/584 172/151/584 175/278/585 
f 451/437/402 452/438/402 308/199/403 
f 452/342/260 189/163/265 308/308/264 
f 453/305/258 312/154/259 311/312/268 
f 454/319/273 453/439/273 311/440/409 
usemtl Material__7910
f 298/293/247 421/417/375 276/291/245 
f 318/321/277 276/291/276 421/417/375 
f 54/249/158 303/302/255 486/509/371 
f 54/249/48 486/509/369 472/497/547 
f 258/245/186 58/63/53 383/433/392 
f 58/63/53 258/245/186 29/61/32 
f 297/131/391 319/324/282 107/105/68 
f 320/325/283 107/105/68 319/324/282 
f 272/265/211 39/364/40 51/263/45 
f 39/364/40 272/265/211 273/304/593 
f 32/35/35 491/510/594 109/108/71 
f 32/35/35 318/321/277 491/510/594 
f 491/510/594 298/293/247 381/386/333 
f 298/293/247 491/510/594 318/321/277 
f 474/470/466 357/350/394 38/40/39 
f 234/206/137 38/40/39 357/350/394 
f 300/297/373 41/43/42 291/282/236 
f 41/43/42 300/297/373 299/294/248 
usemtl Material__27357
s 2
f 407/401/350 409/403/352 410/409/302 
f 409/403/595 426/425/383 410/409/302 
f 417/401/350 478/403/352 415/409/302 
f 478/403/595 439/425/383 415/409/302 
usemtl Material__7923
s 1
f 3/3/5 2/2/142 4/4/3 
f 2/2/200 6/6/8 4/4/7 
f 267/209/7 126/116/199 92/119/6 
f 267/209/3 92/119/4 127/118/596 
f 111/92/597 471/462/456 120/97/455 
f 111/92/598 110/91/599 471/462/145 
f 80/84/5 79/83/142 489/4/3 
f 489/4/7 79/83/200 74/80/199 
f 94/92/597 470/462/456 99/97/455 
f 94/92/598 93/91/599 470/462/145 
usemtl Material__27357
s 2
f 402/401/350 404/403/352 403/409/302 
f 404/403/595 429/425/383 403/409/302 
usemtl Material__7923
s 1
f 238/211/456 86/73/564 88/75/597 
f 85/68/146 238/211/145 88/75/598 
f 1/68/146 431/211/145 65/75/598 
f 431/211/456 63/73/564 65/75/597 
f 236/209/7 134/116/199 136/119/6 
f 112/111/5 236/209/3 136/119/4 
f 89/87/434 462/451/432 95/93/431 
f 89/87/600 91/89/552 462/451/441 
f 113/87/434 469/451/432 116/93/431 
f 113/87/600 115/89/552 469/451/441 
f 70/24/446 466/458/444 76/13/450 
f 70/24/517 69/23/557 466/458/516 
f 468/456/432 84/78/518 83/77/434 
f 75/72/442 468/456/441 83/77/600 
f 22/24/517 21/23/557 467/458/516 
f 22/24/446 467/458/444 10/13/450 
f 9/72/442 463/456/441 67/77/600 
f 463/456/432 68/78/518 67/77/434 
f 464/457/516 133/114/515 132/113/556 
f 114/122/445 464/457/444 132/113/449 
f 465/457/516 124/114/515 123/113/556 
f 90/122/445 465/457/444 123/113/449 
usemtl Material__7910
f 60/66/55 261/249/48 296/290/244 
f 418/412/361 296/290/244 261/249/48 
f 366/366/311 213/184/127 274/269/215 
f 213/184/127 366/366/311 418/429/601 
usemtl Material__7923
f 178/156/274 183/507/586 283/259/204 
f 182/160/587 283/508/588 183/161/589 
f 229/196/134 449/251/602 196/125/205 
f 449/251/397 229/196/397 92/119/397 
usemtl Material__7910
f 198/169/114 302/435/603 101/295/604 
f 302/435/396 198/169/605 235/208/66 
usemtl Material__27357
s 2
f 399/403/595 435/425/383 398/409/302 
f 397/401/350 399/403/352 398/409/302 
usemtl Material__7923
s 1
f 151/132/222 450/229/606 244/222/162 
f 2/2/400 244/222/400 450/229/400 
f 66/76/505 182/160/504 181/159/607 
f 285/480/485 66/76/483 181/159/483 
f 193/278/585 195/198/585 196/125/584 
f 193/153/572 122/112/571 195/152/572 
f 175/278/585 174/198/585 135/125/584 
f 175/153/572 131/112/571 174/152/572 
usemtl Material__7910
f 348/335/510 354/341/510 353/334/510 
f 324/484/510 323/328/510 325/511/510 
f 328/333/510 330/335/510 329/334/510 
f 330/335/510 336/341/510 329/334/510 
f 351/328/510 352/511/510 344/484/510 
f 342/331/511 341/326/511 343/339/511 
f 324/484/510 333/338/510 323/328/510 
f 349/336/511 345/485/511 350/337/511 
f 155/139/89 275/422/470 274/269/215 
f 365/365/310 274/269/215 275/422/470 
usemtl Material__7923
f 306/479/560 216/313/269 217/188/228 
f 216/187/608 306/306/608 176/154/609 
f 121/98/147 471/462/145 110/91/599 
f 250/230/170 251/232/173 110/91/171 
f 254/230/170 253/232/171 93/91/177 
f 100/98/147 470/462/145 93/91/599 
usemtl Material__7910
f 242/301/129 303/300/128 492/185/610 
f 492/493/611 303/302/255 242/303/157 
usemtl Material__7923
f 224/193/521 356/512/521 355/488/519 
f 225/183/612 356/349/613 224/500/613 
f 100/98/614 93/91/615 253/232/615 
f 98/96/616 100/98/617 253/232/617 
usemtl Material__7910
f 292/283/237 293/286/138 291/282/236 
f 301/298/372 291/282/236 293/286/138 
usemtl Material__7923
f 119/96/616 121/98/617 251/232/617 
f 121/98/614 110/91/615 251/232/615 
usemtl Material__7910
f 109/108/71 381/386/333 297/292/475 
f 381/386/333 109/108/71 491/510/594 
f 276/271/618 474/470/466 37/39/38 
f 38/40/39 37/39/38 474/470/466 
f 30/244/33 258/245/186 445/434/374 
f 30/244/33 445/434/619 31/106/34 
usemtl Material__7923
f 278/273/219 277/272/218 158/513/223 
f 278/273/489 158/513/506 159/275/506 
f 166/149/567 168/143/568 288/502/569 
f 288/272/218 455/442/413 166/501/566 
f 289/273/219 288/272/218 168/513/223 
f 289/273/489 168/513/506 165/275/506 
f 122/252/491 192/514/491 290/276/489 
f 192/514/220 194/277/224 290/276/203 
usemtl Material__7910
f 418/429/601 294/288/243 213/184/127 
f 294/288/243 418/429/601 419/441/412 
usemtl Material__7923
f 194/165/609 222/191/608 312/154/609 
f 312/503/413 453/439/407 194/277/224 
usemtl Material__7910
f 365/413/363 255/237/178 59/64/54 
f 255/237/178 365/413/363 424/423/620 
f 364/362/309 273/304/593 424/421/380 
f 273/304/593 364/362/309 39/364/40 
usemtl Material__7923
f 118/95/505 159/144/504 157/142/505 
f 119/96/498 118/260/497 157/262/497 
f 98/96/498 97/260/497 167/262/497 
f 97/95/505 165/144/504 167/142/505 
f 368/351/608 218/189/609 143/134/608 
f 143/255/195 219/190/296 368/515/405 
f 153/255/195 220/190/296 358/515/405 
f 358/351/608 221/189/609 153/134/608 
f 268/258/527 187/158/525 185/155/525 
f 185/155/621 187/158/495 87/86/496 
f 177/155/621 180/158/495 64/74/496 
f 282/258/527 180/158/525 177/155/525 
# 918 faces

