# 3ds Max Wavefront OBJ Exporter v0.99 - (c)2007 guruware
# File Created: 28.04.2025 01:35:22

mtllib CPU1.mtl

#
# object CPU1
#

v  -1.4209 0.5127 -1.6872
v  -1.4209 0.5127 -0.2831
v  -2.4584 0.5127 -0.2831
v  -2.4584 0.5127 -1.6872
v  -1.4209 1.9167 -1.6872
v  -2.4584 1.9167 -1.6872
v  -2.4584 1.9167 -0.2831
v  -1.4209 1.9167 -0.2831
v  -3.1267 0.5377 -2.2926
v  -3.1267 2.4919 -2.3178
v  -3.1267 -1.3523 -2.2926
v  0.1014 -1.3523 -2.2926
v  2.9965 -2.6391 0.8929
v  -3.1368 -2.6391 0.8929
v  -3.2033 -2.6993 -2.3567
v  -3.1490 -2.6501 -2.3286
v  3.0087 -2.6501 -2.3286
v  3.0087 2.9347 -2.3286
v  -3.1490 2.9347 -2.3286
v  3.0630 2.8834 -2.3567
v  3.0630 -2.6993 -2.3567
v  -2.0979 1.3884 -2.2926
v  -2.2429 0.7988 -2.2926
v  -0.6902 0.5784 -2.2926
v  -1.8307 -0.2770 -2.2926
v  -1.2044 0.0346 -2.2926
v  -2.5693 0.1325 -2.2926
v  -3.2033 2.9839 0.8929
v  -3.2033 0.7270 -0.0838
v  -3.1478 0.7270 -2.0209
v  -3.2033 2.9839 -2.3567
v  -2.6169 2.9839 -1.7939
v  2.7576 2.9236 0.8917
v  2.7698 -2.6501 -2.3298
v  3.0630 0.5984 0.3682
v  0.1014 2.4919 -2.2926
v  -0.2383 2.2550 -2.2163
v  -2.0926 1.6798 -2.2926
v  -0.6747 2.3394 -2.2926
v  -1.0970 2.4919 -2.2926
v  2.9965 2.9236 0.8929
v  2.7576 -2.6391 0.8917
v  2.9948 1.0092 0.8929
v  3.0630 2.2882 0.5968
v  -1.3932 -1.2126 -2.2926
v  -2.7240 -1.2026 -2.2926
v  0.0650 1.6637 -2.2926
v  -0.5876 0.4904 -2.2926
v  -2.2270 0.3944 -2.2926
v  -0.9275 0.1737 -2.2926
v  -0.3404 -0.9780 -2.2044
v  -1.1617 -1.2124 -2.2926
v  3.0630 1.5744 0.4304
v  3.0630 1.1790 0.4379
v  3.0630 2.0296 0.7350
v  3.0630 1.1542 0.6892
v  2.9589 2.7907 0.2791
v  2.9589 2.7371 -1.8285
v  2.9589 -1.2564 -1.8066
v  2.9678 2.7066 -1.7846
v  2.9678 2.7028 0.2676
v  2.9679 -1.1651 -1.8048
v  2.9678 -1.1644 0.2764
v  2.9589 -1.2133 0.3086
v  -3.1905 0.8233 -1.3759
v  -3.1905 2.7981 0.5696
v  -3.1905 0.8231 0.5853
v  -3.1931 0.8464 -1.3528
v  -3.1931 0.8546 0.5694
v  -3.1931 2.7457 0.5757
v  -0.4319 0.4922 -2.2926
v  -0.4999 -0.0970 -2.2044
v  -3.1931 2.7668 -1.3584
v  -3.1905 2.7953 -1.3753
v  -3.1389 -1.0156 0.3371
v  -3.2033 0.7257 0.3371
v  -3.0229 -0.3314 -2.2926
v  -2.5604 -1.0737 -2.2926
v  -2.7303 -0.5854 -2.2926
v  -1.9253 -0.5187 -2.2421
v  -2.7303 -0.5486 -2.2926
v  -1.3698 -0.6524 -2.1930
v  -2.1232 -0.6560 -2.1930
v  2.6480 -2.6603 0.4285
v  -3.1556 -2.6603 0.4285
v  -3.1556 -2.6603 -2.2419
v  -3.1556 -1.4210 -2.2419
v  -3.1556 -1.4210 0.4285
v  0.1733 -1.4210 0.1789
v  -3.1267 0.5377 -2.0054
v  -2.8298 0.7899 -2.0054
v  -2.2143 1.7754 -2.0054
v  2.6480 -1.4210 0.4285
v  -1.7087 -1.6588 0.3331
v  2.6480 -2.6603 -2.2419
v  -3.2033 -0.7034 -2.0209
v  -3.2033 -0.2453 -2.0209
v  -1.1063 2.1863 -2.2926
v  -2.0529 2.1815 -2.2926
v  -2.0951 1.8256 -2.2926
v  -2.2135 2.0757 -2.1927
v  -2.2429 0.7988 -2.1927
v  -2.2142 1.8300 -2.2926
v  2.9803 2.0296 0.3846
v  3.0630 1.7220 0.5093
v  3.0630 1.5496 0.6817
v  -3.2033 -1.0156 0.0465
v  -2.5722 0.3971 -2.2926
v  -1.3784 0.2267 -2.2926
v  -3.1405 -0.9647 -0.0838
v  -3.2033 -0.9647 -2.0209
v  -0.9111 -0.9801 -2.2926
v  -1.3947 -1.0914 -2.1930
v  -1.7087 -2.4017 0.4285
v  -2.9900 -1.6588 0.4285
v  -2.9066 0.3807 -0.9185
v  -0.2681 0.4099 -2.4585
v  1.6998 0.3807 -0.6526
v  -0.0579 1.0115 -2.2926
v  -0.2275 0.4972 -2.2926
v  -0.4628 0.5808 -2.2926
v  -0.0624 1.6616 -2.2926
v  2.7347 0.1725 -1.6790
v  2.7347 0.6588 -0.7638
v  2.8250 0.7273 -1.2214
v  3.0958 -0.2545 -1.6744
v  3.0958 0.7273 -1.2214
v  3.0958 0.6588 -0.7638
v  2.7347 -0.6539 -1.6739
v  2.7347 -1.1655 -0.7587
v  2.7347 -0.2549 -0.7587
v  3.0958 -1.1655 -0.7587
v  3.0958 -0.7125 -1.7405
v  3.0958 -0.2549 -1.6721
v  2.7347 2.6574 -1.1629
v  2.7347 1.7422 -1.6744
v  2.7347 1.7422 -0.7638
v  3.0958 1.7422 -1.6744
v  3.0958 2.7240 -1.2214
v  3.0958 2.6556 -0.7638
v  3.0956 0.6607 -0.7652
v  3.0054 0.2077 0.2166
v  3.0956 -0.2499 0.1482
v  2.7345 0.6652 -0.3382
v  2.7345 -0.2499 0.1482
v  2.7345 0.2077 0.2166
v  -3.2370 2.2400 -1.3058
v  -3.2370 2.7264 -0.3907
v  -3.2370 2.7948 -0.8482
v  -2.8759 1.8130 -1.3012
v  -2.9662 2.7948 -0.8482
v  -2.8759 2.7264 -0.3907
v  -3.2385 1.3885 0.5231
v  -3.2385 0.9021 -0.3920
v  -3.1482 0.8337 0.0656
v  -2.8773 1.8155 0.5186
v  -2.8773 0.9003 0.0070
v  -2.8773 0.9021 -0.3920
v  2.7347 0.8267 -1.1857
v  2.7347 1.7419 -1.6721
v  2.8250 1.2843 -1.7405
v  3.0958 0.8313 -0.7587
v  3.0958 1.2843 -1.7405
v  3.0958 1.7419 -1.6721
v  2.7345 2.1459 0.1499
v  2.7345 2.6574 -0.7652
v  2.7345 1.7469 -0.7652
v  3.0956 2.6574 -0.7652
v  3.0054 2.2045 0.2166
v  3.0956 1.7469 0.1482
v  -2.8759 0.9021 -0.3856
v  -2.9662 1.3551 -1.3673
v  -2.8759 1.8127 -1.2989
v  -3.2370 1.4136 -1.3007
v  -3.2370 0.9021 -0.3856
v  -3.2370 1.8127 -0.3856
v  3.0630 0.8318 0.6664
v  3.0630 -0.6657 0.4031
v  3.0630 0.9819 0.8929
v  3.0630 -2.2872 0.8664
v  3.0944 -0.2521 0.1454
v  3.0944 -1.1672 -0.3662
v  3.0944 -1.1655 -0.7652
v  2.7332 -1.1672 -0.3662
v  2.7332 -0.2521 0.1454
v  2.7332 -0.2521 -0.7652
v  -2.8761 2.7282 -0.3920
v  -2.8761 2.2167 0.5231
v  -2.8761 1.8177 0.5214
v  -3.2373 2.2167 0.5231
v  -3.2373 2.7282 -0.3920
v  -3.2373 1.8177 -0.3920
v  2.7332 0.8295 -0.3662
v  2.7332 1.7447 0.1454
v  2.7332 1.7447 -0.7652
v  3.0944 1.7447 0.1454
v  3.0944 0.8295 -0.3662
v  3.0944 0.8313 -0.7652
v  2.9907 -2.0269 0.3961
v  -3.1284 -0.0796 -1.9204
v  1.4969 -0.0796 -2.0137
v  1.4969 -0.0796 -0.1195
v  -3.1284 -0.0796 -0.1259
v  -3.1267 2.4919 -2.0054
v  -1.0970 2.4919 -2.0054
v  1.6774 2.9257 0.2845
v  1.6774 2.9328 -1.7939
v  -2.6169 2.9257 0.2845
v  -1.2057 -0.2481 -2.2926
v  -1.3061 -0.0891 -2.1893
v  -1.7457 -0.4210 -2.2421
v  -0.2277 2.2313 -2.3288
v  -0.2656 2.0345 -1.9998
v  -0.2277 1.7662 -1.9998
v  -0.2656 1.7662 -1.9998
v  2.8862 -2.4816 0.0700
v  2.8862 -1.4389 0.0700
v  2.8862 -1.4389 -1.6017
v  2.8982 -1.4991 -1.5051
v  2.8982 -1.4991 -0.0265
v  2.8982 -2.4214 -0.0265
v  2.8862 -2.4816 -1.6017
v  2.8982 -2.4214 -1.5051
v  -0.2277 0.6272 -1.9772
v  -0.2277 2.2313 -1.9772
v  -0.3592 2.2313 -2.3288
v  -0.3971 2.0345 -1.9998
v  -0.3592 1.7662 -1.9998
v  -0.3971 1.7662 -1.9998
v  -0.6699 2.2313 -1.9895
v  -0.6319 2.2313 -2.3256
v  -0.6370 1.8492 -2.0079
v  -0.6750 2.0300 -2.0079
v  -2.2783 2.3340 -2.0054
v  -2.0529 2.1815 -2.0054
v  -2.8759 0.8366 -0.8431
v  -2.9662 0.8390 -1.2901
v  -3.1468 0.8390 -1.2901
v  -3.1468 0.8366 -0.8431
v  3.0944 -0.7097 0.2108
v  3.0041 -1.2388 0.1234
v  2.8235 -1.1567 0.2085
v  2.8235 -0.7097 0.2108
v  2.9803 2.2363 0.4257
v  3.0630 1.9162 0.5968
v  3.0630 1.6934 0.6531
v  1.6998 0.4099 -2.3337
v  -0.3592 0.6272 -1.9772
v  -0.3592 2.2313 -1.9772
v  -0.1519 -0.7708 -2.2044
v  -3.1400 0.2780 0.0465
v  -3.1405 0.4658 -0.0838
v  -3.1405 -0.2453 -0.0838
v  -3.1405 0.0159 -0.0838
v  3.0956 2.7229 -0.3076
v  3.0054 2.7205 0.1394
v  2.8248 2.7205 0.1394
v  2.8248 2.7229 -0.3076
v  -2.9664 2.7937 0.0656
v  -2.9664 2.7063 0.5947
v  -3.2373 2.7913 0.5126
v  -3.1470 2.7937 0.0656
v  3.0944 1.2871 0.2108
v  3.0041 0.7580 0.1234
v  2.8235 0.8401 0.2085
v  2.8235 1.2871 0.2108
v  2.7345 0.6387 0.2215
v  3.0956 0.7261 -0.3076
v  3.0054 0.7238 0.1394
v  -0.6699 0.6272 -1.9895
v  -0.6750 1.7617 -2.0079
v  0.2074 -1.4210 -1.9133
v  2.4034 -1.4210 -1.7612
v  0.3176 -1.4210 -0.2721
v  -0.6316 1.7444 -2.0632
v  -0.3296 2.3335 -2.2163
v  -3.1405 -0.6003 -0.0838
v  3.0958 -1.2309 -1.2163
v  3.0055 -1.2286 -1.6633
v  2.8250 -1.2286 -1.6633
v  2.8250 -1.2309 -1.2163
v  3.0958 0.2030 -1.7399
v  3.0055 0.7322 -1.6525
v  2.8250 0.7322 -1.6525
v  2.9843 1.0352 0.4665
v  -3.1478 0.3803 -2.0209
v  -3.2033 0.0159 -2.0209
v  2.3240 2.6721 0.8929
v  2.9474 2.9803 0.8441
v  2.3784 -2.3495 0.8929
v  2.4213 2.5194 0.8441
v  3.0630 -2.6993 0.8929
v  -3.1482 0.8287 0.4966
v  -2.8773 1.3579 0.5840
v  -2.9676 0.8287 0.4966
v  2.8250 0.8532 -1.7454
v  3.0958 0.7658 -1.2163
v  3.0055 0.8532 -1.7454
v  -2.5632 -0.5625 -2.2926
v  -2.6938 -1.0520 -2.2926
v  -2.2816 0.7645 -2.0054
v  -2.8298 0.7899 -2.1927
v  3.0055 2.1998 -1.7399
v  3.0055 2.6468 -1.7374
v  2.8250 2.6468 -1.7374
v  2.8250 2.1998 -1.7399
v  3.0630 0.5984 0.4031
v  -2.8759 2.2706 -1.3667
v  -2.9662 2.7997 -1.2793
v  -3.1468 2.7997 -1.2793
v  -2.9900 -2.4017 0.3331
v  -0.4569 2.9827 -1.9632
v  -0.4569 2.9827 0.4834
v  -2.8715 2.9827 0.4834
v  -2.8715 2.9827 -1.9632
v  1.9410 2.9827 0.4674
v  -0.5056 2.9827 0.4674
v  -0.5056 2.9827 -1.9472
v  1.9410 2.9827 -1.9472
v  -2.3689 0.1563 -2.1547
v  -2.5706 0.2322 -2.1547
v  -1.3980 0.1927 -2.1547
v  -3.2385 1.8155 -0.3920
v  2.7347 1.7419 -0.7587
v  2.7345 -0.2499 -0.7652
v  2.7347 -0.2545 -0.7638
v  -3.2370 1.8130 -0.3907
v  3.0630 1.4682 0.5598
v  -0.5060 1.7444 -2.0632
v  -0.5063 2.2313 -2.3256
v  -0.5443 0.6272 -1.9895
v  -0.5440 2.0486 -2.0632
v  2.6480 -1.4210 -2.2419
v  -1.8193 -0.5125 -2.2926
v  -1.9810 -0.4571 -2.2926
v  -1.9423 -0.2817 -2.2421
v  -3.2033 -2.6993 0.8441
v  2.2337 -2.4252 0.8441
v  3.3920 -1.0300 -1.7152
v  2.9843 1.2579 0.5855
v  -0.3821 1.7444 -2.0632
v  -0.3824 2.2313 -2.3256
v  -0.4204 0.6272 -1.9895
v  -0.4200 2.0486 -2.0632
v  -0.2506 1.7444 -2.0632
v  -0.2509 2.2313 -2.3256
v  -0.2889 0.6272 -1.9895
v  -0.2886 2.0486 -2.0632
v  3.0630 2.2363 0.6939
v  -3.4105 2.7609 0.5734
v  -3.4105 2.7609 -1.3730
v  -3.4105 0.8399 -1.0688
v  2.8931 2.1022 0.3818
v  2.8931 1.9542 0.6587
v  2.8931 2.1022 0.7378
v  3.0693 2.0674 0.3853
v  3.0693 2.2281 0.6857
v  3.0693 2.0341 0.7242
v  -2.1037 1.5353 -2.2926
v  -2.2154 1.3910 -2.2926
v  -2.2150 1.5356 -2.2926
v  2.7282 0.7693 -1.6642
v  2.7282 0.8529 0.2218
v  2.7282 2.6360 -1.7471
v  -3.2435 0.8401 -1.2911
v  -3.2435 0.9237 0.5950
v  -3.2435 2.7068 -1.3740
v  2.7282 -1.2274 -1.6642
v  2.7282 -1.1439 0.2218
v  2.7282 0.6392 -1.7471
v  -2.8720 0.8401 0.5120
v  -2.8720 0.9237 -1.3740
v  -2.8720 2.7068 0.5950
v  3.0997 0.7693 0.1388
v  3.0997 0.8529 -1.7471
v  3.0997 2.6360 0.2218
v  3.0997 -1.2274 0.1388
v  3.0997 -1.1439 -1.7471
v  3.0997 0.6392 0.2218
v  -1.7087 -1.6588 0.1769
v  -1.7087 -2.4017 0.3635
v  -2.9900 -2.4017 0.1769
v  -2.9900 -1.6588 0.3635
v  -0.6086 1.8536 -1.9998
v  -0.6086 2.2313 -2.3288
v  -0.6086 0.6272 -1.9772
v  -0.4831 1.8536 -1.9998
v  -0.4831 0.6272 -1.9772
v  -0.4831 2.2313 -2.3288
v  0.0647 1.0165 -2.2926
v  3.3920 2.6339 0.2402
v  3.3920 2.6308 -1.7602
v  -0.4436 2.3370 -2.2926
v  -0.4712 2.2984 -2.2163
v  -2.7666 2.6893 0.8441
v  -2.8729 2.5793 0.8929
v  -2.8415 -2.3811 0.8929
v  2.9843 0.9965 0.5598
v  3.0630 1.0352 0.6531
v  2.9843 1.1790 0.6817
v  3.3920 -1.1159 0.2354
v  -3.4105 0.9013 0.5734
v  2.9843 1.6258 0.6892
v  2.9843 1.4707 0.5341
v  -3.1133 0.3807 -2.3679
v  -1.1541 -0.5217 -2.2926
v  -3.0157 -0.5829 -2.2926
v  -2.7304 -0.3351 -2.2926
v  -0.5443 2.2313 -1.9895
v  -0.5115 1.8492 -2.0079
v  -0.5495 1.7617 -2.0079
v  -2.5343 2.3277 -2.0054
v  -2.2745 2.0760 -2.0054
v  -2.2756 2.4550 -1.9126
v  -2.5307 2.4563 -2.0054
v  -1.7113 -0.3428 -2.2926
v  -0.4204 2.2313 -1.9895
v  -0.3876 1.8492 -2.0079
v  -0.4255 1.7617 -2.0079
v  -0.2889 2.2313 -1.9895
v  -0.2561 1.8492 -2.0079
v  -0.2940 1.7617 -2.0079
v  -3.1284 0.3780 -1.9204
v  1.4969 0.3780 -2.0137
v  -3.5197 4.7998 -1.6354
v  -3.4920 2.0298 -1.7731
v  -3.4635 2.0313 -1.9330
v  -3.5424 4.8434 -1.7818
v  -3.6291 2.0361 -1.8854
v  -3.5831 2.0231 -1.7876
v  -1.1063 2.1863 -2.0054
v  2.9497 1.6001 0.4416
v  2.9497 1.6001 0.6780
v  2.9497 1.7093 0.5146
v  3.0666 1.5771 0.4439
v  3.0666 1.7183 0.5598
v  3.0666 1.5549 0.6690
v  -3.4208 0.8723 -1.3935
v  -3.2319 -3.0670 0.8659
v  -3.0180 -3.0961 -2.3257
v  -3.1726 -2.6320 -2.3257
v  -2.9586 -2.6613 0.8659
v  -3.5197 4.8076 -2.2110
v  -3.4979 2.0235 -2.0696
v  -3.4469 2.0188 -2.1649
v  -3.5424 4.8356 -2.3612
v  -3.4979 2.0158 -2.2269
v  -3.5381 2.0019 -2.1659
v  -3.2033 0.7257 0.0465
v  -3.2435 2.7999 0.4967
v  3.0997 0.7323 -1.6489
v  -2.8720 2.7999 -1.2758
v  3.0997 2.7291 -1.6489
v  2.7282 0.7323 0.1236
v  2.7282 2.7291 0.1236
v  2.8250 -0.7125 -1.7405
v  3.0055 -1.1435 -1.7454
v  -0.5211 2.0345 -1.9998
v  -0.4831 2.2313 -1.9772
v  2.8250 2.7240 -1.2214
v  3.0055 2.7289 -1.6525
v  2.8931 2.2802 0.5598
v  3.0693 2.2802 0.5598
v  -2.2138 1.9761 -2.2926
v  2.8199 -2.6764 -2.3257
v  3.0301 -2.6256 0.8659
v  2.9229 -3.1026 0.8659
v  3.1331 -3.0518 -2.3257
v  -3.4208 0.8433 0.5852
v  -3.4208 2.7525 0.5933
v  3.0678 1.1049 0.4417
v  2.9485 1.2136 0.6450
v  3.0678 1.0824 0.6711
v  2.9485 1.1285 0.4394
v  2.9485 1.0616 0.6600
v  -3.0454 2.9144 0.9495
v  -2.9892 2.7231 0.9495
v  -3.1444 2.7231 0.8672
v  3.0041 0.7629 -0.3076
v  2.9138 0.7580 0.1234
v  -2.9664 2.2753 0.5897
v  -3.0566 2.7063 0.5947
v  2.8434 2.9144 0.9495
v  2.7800 2.6986 0.8672
v  2.8996 2.7231 0.9495
v  2.8220 2.9166 0.8672
v  2.9132 2.7403 0.8672
v  2.9803 2.1748 0.3846
v  -3.2185 -2.5933 0.2501
v  -3.2185 -2.5933 -1.6789
v  -3.2185 -1.5189 -1.6789
v  -3.2185 -1.5189 0.2501
v  3.0693 1.9377 0.4917
v  2.8931 1.9542 0.4609
v  2.8248 0.7261 -0.3076
v  3.0041 -1.2339 -0.3076
v  2.9138 -1.2388 0.1234
v  -2.9662 0.9240 -1.3723
v  -3.4208 2.7435 -1.3944
v  2.8434 -2.4280 0.9495
v  2.7444 -2.6193 0.8672
v  2.8640 -2.6439 0.9495
v  2.8434 2.9144 -2.3403
v  2.7444 2.7231 -2.4225
v  2.8640 2.6986 -2.3403
v  2.9485 1.2398 0.5137
v  3.0678 1.2489 0.5598
v  3.0678 1.0172 0.5137
v  2.9485 1.0103 0.5363
v  -0.6086 2.1293 -2.0500
v  -0.6086 2.0345 -1.9998
v  -0.6086 2.2313 -1.9772
v  -3.0454 -2.4280 -2.3403
v  -3.1444 -2.6193 -2.4225
v  -2.9654 -2.5826 -2.3403
v  -3.0668 -2.4259 -2.4225
v  -2.9755 -2.6021 -2.4225
v  -3.0454 -2.4280 0.9495
v  -3.1444 -2.6193 0.8672
v  -2.9654 -2.5826 0.9495
v  -3.0668 -2.4259 0.8672
v  -2.9755 -2.6021 0.8672
v  -3.0454 2.9144 -2.3403
v  -3.1444 2.7231 -2.4225
v  -2.9654 2.7599 -2.3403
v  -3.0668 2.9166 -2.4225
v  -2.9755 2.7403 -2.4225
v  2.8250 0.7658 -1.2163
v  2.9152 0.7682 -1.6633
v  -3.1482 1.3579 0.5840
v  -3.0579 0.9109 0.5816
v  -1.1436 -0.6915 -2.2926
v  2.8220 -2.4259 -2.4225
v  2.9132 -2.6021 -2.4225
v  2.7444 -2.6193 -2.4225
v  2.8434 -2.4280 -2.3403
v  2.9234 -2.5826 -2.3403
v  -3.1468 2.2706 -1.3667
v  2.8250 0.2030 -1.7399
v  2.9152 0.6500 -1.7374
v  -1.1577 -1.0512 -2.1930
v  -0.3465 0.5825 -2.2926
v  2.8250 -1.1435 -1.7454
v  -0.5574 2.2692 -2.2163
v  -0.5574 2.3406 -2.2926
v  -3.1771 -1.0757 0.5062
v  -3.1771 0.7838 0.0058
v  -3.1771 -0.2967 0.0058
v  -3.1771 -1.0769 -2.1625
v  1.4969 0.3780 -0.1195
v  2.8250 2.7289 -1.6525
v  -3.1567 0.3871 -0.1063
v  -3.1567 -0.2538 -0.1063
v  -3.1567 -0.2538 -2.0001
v  -3.1567 0.3871 -2.0001
v  -3.0566 2.7913 0.5126
v  -2.0923 1.9763 -2.2926
v  3.0666 1.4819 0.5598
v  2.9497 1.4842 0.5368
v  -2.2146 1.6784 -2.2926
v  2.9803 1.9162 0.5968
v  -3.6092 2.0213 -2.1157
v  -3.1284 0.3780 -0.1259
v  -3.1771 -0.2967 -2.1625
v  -0.6750 1.6739 -2.0079
v  -3.1973 2.2341 -2.1214
v  -3.4930 2.1472 -2.2387
v  -3.4930 2.0810 -2.0987
v  -3.1973 2.0722 -2.1135
v  3.0658 -2.3100 -0.3417
v  3.0658 -2.3100 -1.1796
v  3.0658 -1.5983 -1.1796
v  3.0658 -1.5983 -0.3417
v  -3.4930 2.1570 -1.9430
v  -3.1973 2.2312 -1.8173
v  -3.1973 2.1399 -1.9423
v  -3.4930 2.0765 -1.8108
v  -3.1973 2.0693 -1.8265
v  -3.1973 2.1302 -2.2361
v  -0.6316 -2.2958 0.4406
v  0.2189 -2.2958 0.4406
v  0.2189 -1.6287 0.4406
v  -0.6316 -1.6287 0.4406
v  -2.9066 0.3807 -0.4899
v  2.7122 2.8032 0.9495
v  2.7206 2.8466 0.8672
v  -1.2044 0.0346 -2.1893
v  -1.3085 -0.2453 -2.1893
v  -0.9547 -1.0595 -2.2038
v  -0.2662 -1.0595 -2.2038
v  -0.2662 -0.4239 -2.2038
v  -0.9547 -0.4239 -2.2038
v  -3.1682 -2.4958 -2.4225
v  -3.1765 -2.5392 -2.3403
v  -0.6086 0.6272 -2.3288
v  -0.4831 0.6272 -2.3288
v  -0.2277 0.6272 -2.3288
v  -0.3592 0.6272 -2.3288
v  2.7122 -2.5392 0.8672
v  2.7122 -2.5392 0.9495
v  2.7122 2.8032 -2.4225
v  2.7122 2.8032 -2.3403
v  -3.1765 -2.5392 0.9495
v  -3.1765 -2.5392 0.8672
v  2.7122 -2.5392 -2.3403
v  2.7206 -2.4958 -2.4225
v  -2.9592 2.8254 0.8672
v  -3.1765 2.8032 -2.4225
v  -3.1765 2.8032 -2.3403
v  -0.2889 0.6272 -2.3256
v  -0.6699 0.6272 -2.3256
v  -0.5443 0.6272 -2.3256
v  -0.4204 0.6272 -2.3256
v  -1.3791 0.1261 -2.1547
v  3.0939 -1.5126 -1.4834
v  3.0939 -1.4389 0.0700
v  3.0939 -2.4079 -0.0483
v  3.0939 -2.4816 -1.6017
v  -3.1765 2.8032 0.8672
v  -3.1765 2.8032 0.9495
v  -0.5420 2.2291 -2.3234
v  -0.4873 2.2291 -1.9291
v  -0.5420 0.6294 -1.9291
v  -0.5420 0.6294 -2.3234
v  -0.3634 2.2291 -1.9291
v  -0.4181 2.2291 -2.3234
v  -0.4181 0.6294 -2.3234
v  -0.4181 0.6294 -1.9291
v  -0.6675 2.2291 -2.3234
v  -0.6129 2.2291 -1.9291
v  -0.6675 0.6294 -1.9291
v  -0.6675 0.6294 -2.3234
v  -0.2319 2.2291 -1.9291
v  -0.2866 2.2291 -2.3234
v  -0.2866 0.6294 -2.3234
v  -0.2866 0.6294 -1.9291
v  -3.2080 2.5448 -2.2525
v  -3.2080 0.8135 -2.2525
v  -3.2080 0.8135 -1.6953
v  -3.2080 2.5448 -1.6953
v  2.9296 -2.5171 0.8672
v  2.9234 -2.5826 0.9495
v  2.9296 2.8254 -2.4225
v  2.9234 2.7599 -2.3403
v  0.0582 1.6626 -2.3313
v  -0.0447 1.0349 -2.3313
v  0.0582 1.0349 -2.1553
v  -0.0447 1.6626 -2.1553
v  2.8037 2.7920 -2.3313
v  2.7009 2.3569 -2.3313
v  2.8037 2.3569 -2.1553
v  2.7009 2.7920 -2.1553
v  -3.1771 0.7838 0.5062
v  1.8854 -1.9330 0.4357
v  0.9795 -1.9248 0.4357
v  0.9847 -2.4194 0.4357
v  1.9042 -2.4183 0.4357
v  -3.2370 2.7176 -1.3643
v  -0.6444 2.2720 -2.3217
v  -0.6354 2.2720 -1.9843
v  -0.6444 0.5866 -1.9843
v  -0.6444 0.5866 -2.3217
v  -0.2634 2.2720 -2.3217
v  -0.2544 2.2720 -1.9843
v  -0.2634 0.5866 -1.9843
v  -0.2634 0.5866 -2.3217
v  -0.5188 2.2720 -2.3217
v  -0.5098 2.2720 -1.9843
v  -0.5188 0.5866 -1.9843
v  -0.5188 0.5866 -2.3217
v  -0.3949 2.2720 -2.3217
v  -0.3859 2.2720 -1.9843
v  -0.3949 0.5866 -1.9843
v  -0.3949 0.5866 -2.3217
v  3.0054 0.6387 0.2215
v  3.0054 2.6355 0.2215
v  0.1391 -0.5954 0.2545
v  0.1920 -0.8359 0.0980
v  0.0888 -0.8351 0.0650
v  0.1367 -1.1210 -0.0813
v  0.2266 -1.0981 -0.0952
v  0.0631 -0.6041 0.2486
v  0.3003 -1.4319 -0.1856
v  0.1977 -1.4496 -0.1962
v  2.7634 2.9709 -1.7642
v  2.7680 2.9709 -1.6538
v  2.8170 2.9709 -1.6942
v  0.3722 -1.6471 -0.0231
v  0.4837 -2.0381 -0.1228
v  0.3873 -2.0591 -0.1578
v  0.6026 -2.4445 -0.2200
v  0.2675 -1.6739 -0.0318
v  -0.3109 0.4966 -2.2163
v  0.3798 -1.7753 -0.3031
v  0.2189 -1.3077 0.1401
v  -0.2785 0.1515 0.3163
v  -0.1776 0.0751 0.4633
v  -0.2588 0.0195 0.4277
v  -0.0778 -0.1156 0.4469
v  -0.1730 -0.1559 0.4631
v  -0.3005 0.2173 0.3947
v  0.0300 0.0028 0.3830
v  0.0825 -0.1540 0.3923
v  -0.0196 -0.1745 0.3811
v  -0.0628 -0.0221 0.4243
v  0.0543 -0.3403 0.2799
v  0.0389 -0.6217 0.2632
v  0.0736 -0.9614 0.2031
v  0.1713 -0.9283 0.1853
v  0.1925 -1.2825 0.0420
v  0.2783 -1.7977 -0.3154
v  0.4162 -2.1736 -0.3555
v  0.3853 -2.1727 -0.4256
v  -0.0438 0.1619 0.3950
v  -0.0864 0.2207 0.1984
v  -0.1839 0.2052 0.2330
v  -0.2593 0.2537 -0.0159
v  -0.0611 0.0925 0.3186
v  0.0793 -0.3787 0.3780
v  -0.0181 -0.3463 0.3543
v  -0.0899 -0.3863 0.4191
v  -2.3689 0.1563 -1.9838
v  -0.5588 0.4903 -2.2163
v  0.5283 -2.4761 -0.1533
v  0.6676 -2.8939 -0.1795
v  -0.4927 0.3129 -0.0505
v  -0.4317 0.2094 0.2125
v  -0.3500 0.2402 0.1781
v  -2.4281 0.0056 -0.0512
v  -2.8516 -0.3597 -0.0512
v  -0.5265 -0.1291 -0.0512
v  0.0650 -0.6460 0.3616
v  3.0462 2.0068 0.5793
v  3.0462 2.0909 0.6548
v  3.0834 2.0285 0.6394
v  3.0533 2.1615 0.6611
v  0.5982 -2.5604 -0.3929
# 737 vertices

vn 0.0000 -1.0000 -0.0000
vn 0.0000 1.0000 -0.0000
vn 0.0000 0.0000 1.0000
vn 1.0000 0.0000 -0.0000
vn -0.0000 0.0000 -1.0000
vn -1.0000 0.0000 0.0000
vn -0.0000 1.0000 -0.0020
vn 1.0000 0.0000 -0.0020
vn -1.0000 0.0000 -0.0020
vn -0.0096 0.0000 1.0000
vn 1.0000 -0.0034 -0.0000
vn -0.0000 -1.0000 -0.0020
vn -0.9894 0.1279 -0.0691
vn 0.9852 -0.0005 0.1714
vn 0.3603 -0.0001 -0.9328
vn 0.9986 0.0131 0.0509
vn -0.3854 0.0218 0.9225
vn -0.9986 -0.0131 -0.0509
vn -0.0045 -1.0000 0.0000
vn 0.0038 1.0000 -0.0000
vn 0.0309 0.0000 -0.9995
vn 0.0287 -0.9996 -0.0000
vn 0.0277 0.9996 -0.0000
vn 0.0309 0.0000 0.9995
vn 0.9516 -0.2867 0.1105
vn 0.9961 0.0165 -0.0872
vn -0.8991 -0.0108 0.4376
vn 0.0043 -1.0000 -0.0000
vn -0.0380 0.9993 0.0000
vn -0.0383 0.0000 0.9993
vn 0.0128 0.9999 -0.0000
vn 0.0026 0.0000 1.0000
vn 0.9908 -0.1352 -0.0000
vn -0.9908 0.1352 0.0000
vn 0.9649 0.0242 0.2616
vn -0.5051 -0.0316 -0.8625
vn -0.0000 0.0044 -1.0000
vn -0.0000 0.0115 -0.9999
vn 0.0000 1.0000 0.0044
vn 0.0000 0.9999 0.0115
vn 0.0000 0.0980 0.9952
vn -0.0000 0.6344 -0.7730
vn 0.0210 -0.9998 -0.0000
vn 0.9720 0.2349 -0.0000
vn -0.9720 -0.2349 0.0000
vn 0.0026 0.0000 -1.0000
vn -0.0000 -1.0000 -0.0044
vn -0.0000 -0.9999 -0.0115
vn 0.0000 -0.0115 0.9999
vn 0.0000 -0.0044 1.0000
vn -0.0383 0.0000 -0.9993
vn 0.0000 -1.0000 0.0020
vn -0.0000 -0.7730 -0.6344
vn 0.0000 1.0000 0.0054
vn 0.0154 -0.9999 -0.0000
vn 0.0000 -0.8819 0.4714
vn 0.0000 -0.0054 1.0000
vn 0.0000 -0.9999 0.0107
vn -0.0000 -1.0000 -0.0054
vn 0.0000 0.0107 0.9999
vn 0.0032 1.0000 -0.0000
vn -0.0000 0.9999 -0.0107
vn -0.0000 0.0054 -1.0000
vn -0.0000 -0.0107 -0.9999
vn -0.0369 -0.9993 0.0000
vn -0.0101 -0.9999 0.0000
vn 0.9993 -0.0361 -0.0000
vn 0.0000 -0.2903 0.9569
vn 0.0000 -0.9569 0.2903
vn -0.0000 0.9127 -0.4087
vn -0.6691 0.0536 -0.7412
vn 0.2907 -0.9463 -0.1417
vn -0.0000 0.2903 -0.9569
vn -0.3136 0.0566 0.9479
vn 0.2907 -0.9473 0.1349
vn -0.0034 0.0000 1.0000
vn 1.0000 0.0004 -0.0000
vn 0.0000 -0.9127 0.4087
vn 0.0000 0.7730 0.6344
vn 0.0000 0.9700 0.2429
vn -0.0000 -0.8032 -0.5957
vn -0.0000 0.6769 -0.7361
vn 0.0000 0.0418 0.9991
vn 0.0000 -0.4275 0.9040
vn -0.0000 0.5957 -0.8032
vn -0.0126 0.9999 0.0000
vn -0.0000 -0.7361 -0.6769
vn 0.0000 0.9391 0.3437
vn 0.6699 0.0529 -0.7405
vn 0.6699 -0.0253 -0.7420
vn -0.8991 0.0354 0.4363
vn 0.4760 -0.8795 -0.0000
vn 1.0000 -0.0067 -0.0000
vn 1.0000 -0.0055 -0.0000
vn 0.3710 -0.9286 -0.0000
vn -0.0000 -0.0980 -0.9952
vn -0.0138 -0.9999 0.0000
vn -0.0138 0.0000 -0.9999
vn -0.0138 0.9999 0.0000
vn -0.0138 0.0000 0.9999
vn 0.0000 -0.7730 0.6344
vn 0.0000 0.4714 0.8819
vn 0.6344 0.7730 -0.0000
vn -0.0000 -0.9563 -0.2923
vn 0.0000 0.9569 0.2903
vn -0.0000 -0.9053 -0.4248
vn -0.9999 -0.0157 0.0000
vn -0.0000 -0.2903 -0.9569
vn -0.0000 0.4687 -0.8834
vn 0.0231 0.9997 -0.0000
vn -0.0096 1.0000 0.0000
vn 0.0000 -0.9952 0.0980
vn 0.9569 0.2903 -0.0000
vn 0.2903 -0.9569 -0.0000
vn -0.0000 0.7192 -0.6948
vn -0.0000 -0.6948 -0.7192
vn 0.2721 0.4759 -0.8363
vn 0.2689 0.4807 -0.8346
vn -0.2427 0.4197 -0.8746
vn -0.2368 0.3829 -0.8929
vn 0.2346 -0.3836 0.8932
vn 0.2413 -0.4201 0.8748
vn -0.2719 -0.4807 0.8336
vn -0.2700 -0.4758 0.8371
vn -0.0000 -0.6344 -0.7730
vn 0.2206 -0.3148 0.9232
vn -0.2783 -0.4541 0.8463
vn -0.2236 0.3138 -0.9228
vn 0.2717 0.4539 -0.8486
vn -0.2588 0.9658 -0.0170
vn -0.9475 0.2583 0.1885
vn 0.8388 0.3522 -0.4152
vn 0.8419 0.3379 -0.4206
vn 0.4990 0.3187 -0.8058
vn 0.5157 0.2599 -0.8164
vn 0.4323 0.0329 0.9011
vn 0.4585 -0.0534 0.8871
vn -0.0283 -0.2160 0.9760
vn -0.0102 -0.2761 0.9611
vn 0.0000 -0.7192 0.6948
vn 0.0000 1.0000 0.0020
vn 0.0060 -1.0000 -0.0000
vn 0.0295 0.9996 -0.0000
vn 0.1974 -0.2171 0.9560
vn -0.2902 -0.4022 0.8683
vn 0.9571 0.2462 -0.1526
vn 0.9536 0.2617 -0.1486
vn 0.7113 0.3827 -0.5894
vn 0.7176 0.3502 -0.6019
vn -0.0000 -0.5898 -0.8075
vn 0.8367 0.3631 -0.4099
vn 0.4880 0.3620 -0.7942
vn 0.0010 -0.3133 0.9496
vn 0.4760 -0.1150 0.8719
vn 0.8557 0.3712 -0.3603
vn 0.8504 0.3731 -0.3709
vn 0.6212 0.1311 -0.7726
vn 0.5358 0.2798 -0.7966
vn 0.3962 0.0983 0.9128
vn 0.2512 0.3956 0.8834
vn -0.1895 0.1712 0.9668
vn -0.4053 0.4822 0.7767
vn -0.0940 -0.1678 -0.9813
vn -0.1954 0.1847 -0.9631
vn -0.6547 0.0317 -0.7552
vn -0.7504 -0.1550 0.6425
vn -0.7170 -0.3067 0.6260
vn -0.2959 -0.2771 0.9141
vn -0.6829 0.1896 -0.7054
vn -0.2745 -0.4223 0.8639
vn -0.4786 -0.3952 0.7840
vn -0.4791 -0.4025 0.7800
vn 0.0056 -0.3260 0.9453
vn -0.8382 -0.0488 -0.5431
vn -0.8402 -0.0446 -0.5404
vn -0.4875 0.1628 -0.8578
vn -0.4811 0.1396 -0.8654
vn 0.1139 -0.0463 0.9924
vn 0.0199 -0.9890 0.1469
vn -0.3089 -0.3278 0.8928
vn 0.1632 -0.0948 0.9820
vn -0.2010 0.2158 -0.9555
vn -0.6456 0.0491 -0.7621
vn -0.6125 -0.0686 -0.7875
vn 0.0078 0.2754 -0.9613
vn -0.0016 0.3131 -0.9497
vn 0.4817 0.3902 -0.7846
vn -0.9676 -0.2400 -0.0779
vn -0.9682 -0.2373 -0.0794
vn -0.8389 -0.3624 0.4061
vn -0.8429 -0.3512 0.4075
vn 0.4801 0.4025 -0.7794
vn 0.3854 0.6856 0.6175
vn 0.2437 0.9081 0.3405
vn -0.2260 0.8320 0.5067
vn -0.6385 -0.7694 0.0158
vn -0.6792 -0.7314 -0.0614
vn -0.9088 -0.3544 0.2203
vn -0.2825 0.8858 0.3681
vn -0.9257 -0.3191 0.2029
vn 0.0000 0.6603 0.7510
vn 0.2319 -0.3530 0.9064
vn 0.9606 0.2472 -0.1268
vn 0.9623 0.2297 -0.1454
vn 0.7213 0.3774 -0.5807
vn 0.7126 0.4068 -0.5716
vn 0.2414 -0.4169 0.8763
vn 0.8109 0.1308 0.5703
vn 0.7555 0.2688 0.5973
vn 0.2140 -0.1497 -0.9653
vn 0.0798 0.1081 -0.9909
vn -0.3994 -0.0941 -0.9119
vn -0.4584 0.0661 -0.8863
vn 0.0096 0.0000 -1.0000
vn -0.8991 -0.0076 -0.4377
vn -0.0590 -0.9684 0.2424
vn 1.0000 -0.0082 -0.0000
vn -0.0081 -1.0000 0.0000
vn -0.0058 -1.0000 0.0000
vn -0.0204 0.9998 0.0000
vn -0.4562 0.0542 -0.8882
vn -0.4294 -0.0319 -0.9025
vn -0.7953 -0.1867 -0.5767
vn -0.7820 -0.2244 -0.5815
vn 0.4161 0.0821 0.9056
vn -0.0547 -0.1330 0.9896
vn -0.6775 0.6647 0.3147
vn -0.6056 0.6438 0.4677
vn -0.2089 0.9203 0.3308
vn 0.0108 0.7400 0.6725
vn -0.1940 -0.9800 0.0436
vn -0.2681 -0.9592 -0.0897
vn -0.6660 -0.7268 0.1679
vn -0.7646 -0.6435 0.0353
vn 0.9479 0.2993 -0.1085
vn 0.9197 0.3685 -0.1357
vn 0.7463 0.6048 0.2780
vn -0.3703 0.0136 0.9288
vn -0.5100 0.3539 0.7840
vn -0.8224 0.0225 0.5684
vn -0.8904 0.1126 0.4409
vn 0.6534 0.7520 0.0861
vn -0.2308 0.3551 -0.9059
vn -0.2417 0.4171 -0.8761
vn -0.6904 0.2460 -0.6803
vn -0.6893 0.2467 -0.6811
vn 0.8819 -0.4714 -0.0000
vn 0.8378 0.3772 -0.3947
vn 0.8359 0.3757 -0.4001
vn 0.4844 0.3957 -0.7802
vn 0.0021 -0.3081 0.9513
vn -0.4860 -0.3585 0.7970
vn -0.9540 0.2419 -0.1773
vn -0.9540 0.1515 -0.2587
vn -0.5927 0.3329 -0.7334
vn 0.5928 -0.1718 -0.7868
vn 0.5928 0.1718 -0.7868
vn -0.0000 0.2134 -0.9770
vn -0.5830 -0.6553 0.4802
vn -0.5831 -0.6030 0.5445
vn -0.9481 -0.1880 0.2565
vn 0.5829 -0.2564 0.7710
vn 0.5828 0.1733 0.7939
vn 0.2409 0.9643 0.1101
vn 0.4243 0.8124 0.3999
vn 0.7326 0.6802 0.0252
vn 0.8492 0.5137 0.1222
vn -0.4596 -0.8089 -0.3665
vn -0.8627 -0.5019 -0.0618
vn 0.0000 0.6948 0.7192
vn -0.7730 -0.6344 0.0000
vn -0.6344 0.7730 0.0000
vn 0.0827 -0.5935 -0.8005
vn -0.5721 -0.2960 -0.7649
vn 0.8553 0.3417 0.3894
vn -0.0000 -0.1698 -0.9855
vn -0.9997 0.0248 0.0000
vn -0.2903 0.9569 0.0000
vn -0.0000 0.9853 -0.1709
vn 0.0000 0.9053 0.4248
vn -0.0000 -0.6603 -0.7510
vn 0.3023 -0.9531 0.0171
vn 0.0000 0.9853 0.1709
vn -0.0000 0.8205 -0.5717
vn 0.0000 -0.7510 0.6603
vn -0.0000 -0.6716 -0.7409
vn 0.0106 0.9999 -0.0000
vn 0.7283 0.3080 -0.6121
vn 0.3222 0.2309 -0.9181
vn 0.3368 0.1788 -0.9244
vn -0.9207 -0.1309 -0.3676
vn -0.8975 -0.2128 -0.3862
vn -0.9461 -0.3012 0.1187
vn -0.9421 -0.3145 0.1162
vn 1.0000 0.0075 -0.0000
vn 0.4579 -0.0650 0.8866
vn 0.8331 0.0669 0.5491
vn 0.0239 0.2473 -0.9686
vn -0.0000 0.7510 -0.6603
# 299 vertex normals

vt -0.1419 16.6149 0.1505
vt -0.1419 -15.6149 0.1505
vt -0.8581 -15.6149 0.1505
vt -0.8581 16.6149 0.1505
vt -0.8581 16.6149 0.8495
vt -0.1419 16.6149 0.8495
vt -0.1419 -15.6149 0.8495
vt -0.8581 -15.6149 0.8495
vt -0.8581 0.8495 -15.6149
vt -0.1419 0.8495 -15.6149
vt -0.1419 0.1505 -15.6149
vt -0.8581 0.1505 -15.6149
vt -16.6149 0.8495 0.8581
vt 15.6149 0.8495 0.8581
vt 15.6149 0.1505 0.8581
vt -16.6149 0.1505 0.8581
vt -0.8581 0.8495 16.6149
vt -0.1419 0.8495 16.6149
vt -0.1419 0.1505 16.6149
vt -0.8581 0.1505 16.6149
vt -16.6149 0.8495 0.1419
vt 15.6149 0.8495 0.1419
vt 15.6149 0.1505 0.1419
vt -16.6149 0.1505 0.1419
vt 0.4979 0.2500 0.0000
vt 0.6250 0.0000 0.0000
vt 0.3750 0.2500 0.0000
vt 0.3750 0.5000 0.0000
vt 0.3750 1.0000 0.0000
vt 0.6250 1.0000 0.0000
vt 0.3750 0.7500 0.0000
vt 0.1250 0.7500 0.0000
vt 0.1250 0.5000 0.0000
vt 0.6250 0.5000 0.0000
vt 0.6250 0.2500 0.0000
vt 0.6206 0.5000 0.0000
vt 0.4049 0.6995 0.0000
vt 0.3790 0.5506 0.0000
vt 0.6586 0.4950 0.0000
vt 0.4536 0.2792 0.0000
vt 0.5662 0.3580 0.0000
vt 0.3205 0.3823 0.0000
vt 0.5263 0.0758 0.0000
vt 0.5262 0.2261 0.0000
vt 0.5257 0.0751 0.0000
vt 0.8750 0.5000 0.0000
vt 0.8516 0.5433 0.0000
vt 0.6250 0.7500 0.0000
vt 0.5201 0.7096 0.0000
vt 0.8010 0.9746 0.0000
vt 0.7399 0.9155 0.0000
vt 0.4057 0.7731 0.0000
vt 0.6612 0.9372 0.0000
vt 0.8750 0.7500 0.0000
vt 0.7178 0.5000 0.0000
vt 0.5390 0.7500 0.0000
vt 0.5944 0.7272 0.0000
vt 0.8011 0.0109 0.0000
vt 0.5324 0.0444 0.0000
vt 0.2932 0.0455 0.0000
vt 0.7945 0.7670 0.0000
vt 0.6771 0.4729 0.0000
vt 0.3820 0.4485 0.0000
vt 0.6159 0.3932 0.0000
vt 0.7217 0.1044 0.0000
vt 0.5741 0.0447 0.0000
vt 0.5630 0.7144 0.0000
vt 0.5456 0.7150 0.0000
vt 0.5830 0.7379 0.0000
vt 0.5445 0.7343 0.0000
vt 0.6249 0.2464 0.0000
vt 0.6216 0.0002 0.0000
vt 0.3750 0.0028 0.0000
vt 0.6223 0.0005 0.0000
vt 0.6241 0.2482 0.0000
vt 0.3750 0.2469 0.0000
vt 0.3777 0.2498 0.0000
vt 0.6250 0.7455 0.0000
vt 0.3787 0.7500 0.0000
vt 0.6203 0.7500 0.0000
vt 0.7051 0.4733 0.0000
vt 0.6929 0.3254 0.0000
vt 0.6203 0.7491 0.0000
vt 0.6237 0.5027 0.0000
vt 0.6241 0.7455 0.0000
vt 0.4480 0.0431 0.0000
vt 0.5262 0.0431 0.0000
vt 0.3750 0.0000 0.0000
vt 0.5257 0.0428 0.0000
vt 0.2208 0.0074 0.0000
vt 0.2200 0.4847 0.0000
vt 0.2391 0.2652 0.0000
vt 0.3226 0.0780 0.0000
vt 0.2918 0.2010 0.0000
vt 0.4367 0.2182 0.0000
vt 0.2918 0.2104 0.0000
vt 0.5365 0.1852 0.0000
vt 0.4011 0.1834 0.0000
vt 0.8361 0.0359 0.0000
vt 0.8361 0.7623 0.0000
vt 0.4195 0.6944 0.0000
vt 0.2733 0.5484 0.0000
vt 0.3837 0.7973 0.0000
vt 0.9407 0.2800 0.0000
vt 0.9448 0.8488 0.0000
vt 0.2652 0.7444 0.0000
vt 0.5257 0.2242 0.0000
vt 0.4628 0.2242 0.0000
vt 0.4829 0.2242 0.0000
vt 0.5834 0.8992 0.0000
vt 0.4128 0.8991 0.0000
vt 0.4052 0.8097 0.0000
vt 0.3475 0.7481 0.0000
vt 0.3795 0.6114 0.0000
vt 0.3457 0.6678 0.0000
vt 0.5846 0.7101 0.0000
vt 0.5695 0.7205 0.0000
vt 0.5619 0.7338 0.0000
vt 0.4480 0.0657 0.0000
vt 0.4491 0.0428 0.0000
vt 0.3199 0.4491 0.0000
vt 0.5348 0.4063 0.0000
vt 0.4513 0.0751 0.0000
vt 0.4513 0.2242 0.0000
vt 0.6190 0.1033 0.0000
vt 0.5321 0.0748 0.0000
vt 0.0365 0.2864 0.0000
vt 0.2628 0.4035 0.0000
vt 0.0656 0.7458 0.0000
vt 0.1357 0.6956 0.0000
vt 0.2728 0.5000 0.0000
vt 0.3750 0.7293 0.0000
vt 0.5910 1.0047 0.0000
vt 0.0396 0.2177 0.0000
vt 1.0023 0.0819 0.0000
vt 0.7724 0.6035 0.0000
vt 0.7419 0.4745 0.0000
vt 0.6995 0.4955 0.0000
vt 0.7716 0.7664 0.0000
vt 0.2500 0.7500 0.0000
vt 0.3125 0.6250 0.0000
vt 0.4375 0.6875 0.0000
vt 0.7500 0.6875 0.0000
vt 0.6250 0.6875 0.0000
vt 0.6875 0.6250 0.0000
vt 0.3750 0.6250 0.0000
vt 0.2500 0.6875 0.0000
vt 0.2500 0.6250 0.0000
vt 0.5625 0.6875 0.0000
vt 0.3750 0.6875 0.0000
vt 0.6250 0.6250 0.0000
vt 0.5303 0.7326 0.0000
vt 0.4645 0.7123 0.0000
vt 0.5369 0.7500 0.0000
vt 0.3931 0.7480 0.0000
vt 0.1097 0.7623 0.0000
vt 0.4046 0.7118 0.0000
vt 0.1250 0.5123 0.0000
vt 0.1250 0.7416 0.0000
vt 0.6788 0.7028 0.0000
vt 0.6803 0.7032 0.0000
vt 0.6803 0.5433 0.0000
vt 0.8537 0.7028 0.0000
vt 0.5660 0.2870 0.0000
vt 0.5479 0.3268 0.0000
vt 0.4689 0.2429 0.0000
vt 0.9910 1.0022 0.0000
vt 0.2072 0.9116 0.0000
vt 0.0659 0.7101 0.0000
vt 0.9517 0.8787 0.0000
vt -0.0039 1.0010 0.0000
vt 0.9505 0.7659 0.0000
vt 0.2037 0.8244 0.0000
vt 1.0063 1.0010 0.0000
vt 0.9937 0.0033 0.0000
vt 1.0067 0.0010 0.0000
vt 1.0186 1.0015 0.0000
vt 0.0030 -0.0000 0.0000
vt 0.0022 0.9999 0.0000
vt 0.0658 0.8773 0.0000
vt 0.4046 0.7091 0.0000
vt 0.4826 0.2261 0.0000
vt 0.4621 0.2261 0.0000
vt 0.4504 0.2261 0.0000
vt 0.2192 0.9782 0.0000
vt 0.3721 0.9376 0.0000
vt 0.5850 0.9759 0.0000
vt 0.6875 0.7500 0.0000
vt 0.6363 0.7500 0.0000
vt 0.3637 0.7500 0.0000
vt 0.4375 0.8125 0.0000
vt 0.6790 0.5415 0.0000
vt 0.5625 0.7384 0.0000
vt 0.5939 0.7188 0.0000
vt 0.5780 0.7272 0.0000
vt 0.5682 0.7316 0.0000
vt 0.6250 0.5159 0.0000
vt 1.0023 0.9409 0.0000
vt 0.7555 0.1565 0.0000
vt 0.4491 0.0651 0.0000
vt 0.5056 0.0651 0.0000
vt 0.5142 0.0751 0.0000
vt 0.5061 0.0657 0.0000
vt 0.4826 0.0758 0.0000
vt 0.4943 0.0758 0.0000
vt 0.3750 0.7384 0.0000
vt 0.4152 0.1252 0.0000
vt 0.1403 0.1666 0.0000
vt 0.4014 0.5717 0.0000
vt 0.4669 0.7919 0.0000
vt 0.7234 0.9353 0.0000
vt 0.4503 0.0758 0.0000
vt 0.4667 0.0758 0.0000
vt 0.4944 0.0751 0.0000
vt 0.4830 0.0751 0.0000
vt 0.4375 0.7384 0.0000
vt 0.5402 0.7159 0.0000
vt 0.5107 0.2261 0.0000
vt 0.4943 0.2261 0.0000
vt 0.4944 0.2242 0.0000
vt 0.6127 0.7664 0.0000
vt 0.6250 0.7549 0.0000
vt 0.3904 0.7630 0.0000
vt 0.6046 0.7630 0.0000
vt 0.3219 0.2069 0.0000
vt 0.2986 0.0833 0.0000
vt 0.3720 0.5420 0.0000
vt 0.4645 0.7096 0.0000
vt 0.5625 0.0000 0.0000
vt 0.5625 0.2547 0.0000
vt 0.5000 0.2546 0.0000
vt 0.6250 0.1223 0.0000
vt 0.0000 0.0000 0.0000
vt 1.0000 0.0000 0.0000
vt 1.0000 1.0000 0.0000
vt 0.0000 1.0000 0.0000
vt 0.3566 0.3883 0.0000
vt 0.3203 0.4074 0.0000
vt 0.5313 0.3977 0.0000
vt 0.8516 0.7032 0.0000
vt 0.5583 0.7244 0.0000
vt 0.2071 0.8793 0.0000
vt 0.4557 0.2198 0.0000
vt 0.4266 0.2337 0.0000
vt 0.4335 0.2780 0.0000
vt 0.3870 0.7709 0.0000
vt 0.6216 1.0000 0.0000
vt 0.1250 0.5015 0.0000
vt 0.1250 0.7472 0.0000
vt 0.5492 0.7244 0.0000
vt 0.3750 0.6277 0.0000
vt 0.8418 0.4717 0.0000
vt 0.9197 0.0803 0.0000
vt 0.7968 0.0146 0.0000
vt 0.5921 0.7347 0.0000
vt 0.1562 0.0000 0.0000
vt 0.7500 0.4900 0.0000
vt 0.9496 0.1167 0.0000
vt 0.7500 0.0100 0.0000
vt 0.2968 0.4854 0.0000
vt 0.0803 0.0803 0.0000
vt 0.3418 0.0283 0.0000
vt 0.4037 0.7366 0.0000
vt 0.3453 0.6345 0.0000
vt 0.3454 0.6445 0.0000
vt 0.0421 0.0000 0.0000
vt 1.0000 0.0426 0.0000
vt 0.0000 0.9525 0.0000
vt 1.0021 -0.0005 0.0000
vt 1.0022 1.0028 0.0000
vt 0.0025 1.0031 0.0000
vt 0.0024 -0.0042 0.0000
vt 0.0659 0.7646 0.0000
vt 0.7945 0.6047 0.0000
vt 0.6225 0.5000 0.0000
vt 0.6223 0.7500 0.0000
vt 0.8750 0.7481 0.0000
vt 0.7028 0.9363 0.0000
vt 0.6979 0.9266 0.0000
vt 0.6134 0.9823 0.0000
vt 0.6072 0.9876 0.0000
vt 0.3870 0.9876 0.0000
vt 0.5377 0.7264 0.0000
vt 0.5393 0.7316 0.0000
vt 0.8418 0.0283 0.0000
vt 0.9900 0.2500 0.0000
vt 0.9854 0.2968 0.0000
vt 0.7032 0.4854 0.0000
vt 0.1250 0.5115 0.0000
vt -0.0036 0.9584 0.0000
vt 0.8535 0.5415 0.0000
vt 0.5753 0.2183 0.0000
vt 0.2405 0.2017 0.0000
vt 0.2917 0.2642 0.0000
vt 0.5145 0.0758 0.0000
vt 0.3260 0.9363 0.0000
vt 0.3728 0.8728 0.0000
vt 0.3726 0.9680 0.0000
vt 0.3266 0.9686 0.0000
vt 0.4751 0.2626 0.0000
vt 0.3750 0.2377 0.0000
vt 0.6250 0.2377 0.0000
vt 0.3750 0.0084 0.0000
vt 0.2812 0.5625 0.0000
vt 0.3125 0.4375 0.0000
vt 0.6250 0.3750 0.0000
vt 0.7812 0.5625 0.0000
vt 0.0000 0.4375 0.0000
vt 0.1562 0.3750 0.0000
vt 0.3779 0.7447 0.0000
vt 0.3773 0.6031 0.0000
vt 0.3465 0.7267 0.0000
vt 0.3803 0.6991 0.0000
vt 0.3477 0.6016 0.0000
vt 0.1250 0.5031 0.0000
vt 0.6223 1.0000 0.0000
vt 0.3762 1.0000 0.0000
vt 0.5283 0.3418 0.0000
vt 0.0100 0.2500 0.0000
vt 0.3808 0.2500 0.0000
vt 0.6230 0.5020 0.0000
vt 0.3870 0.9854 0.0000
vt 0.3125 0.3125 0.0000
vt 0.5312 0.3125 0.0000
vt 0.6875 0.3125 0.0000
vt 0.8125 0.0625 0.0000
vt 0.5257 0.0651 0.0000
vt 0.5262 0.0657 0.0000
vt 0.9501 1.0000 0.0000
vt 0.8750 0.5036 0.0000
vt 0.7412 0.8581 0.0000
vt 0.0019 1.0006 0.0000
vt 0.5000 0.5000 0.0000
vt 0.5625 1.0000 0.0000
vt 0.2500 0.5000 0.0000
vt 0.2500 1.0000 0.0000
vt 0.0312 1.0000 0.0000
vt 0.3795 0.6610 0.0000
vt 0.3838 0.8477 0.0000
vt 0.3837 0.8110 0.0000
vt 0.4673 0.0751 0.0000
vt 0.8833 0.0504 0.0000
vt 0.5803 0.0803 0.0000
vt 0.4197 0.0803 0.0000
vt 0.5000 0.7384 0.0000
vt 0.6582 0.0283 0.0000
vt 0.5878 0.7101 0.0000
vt 0.9197 0.4197 0.0000
vt 0.9717 0.1582 0.0000
vt 0.8125 1.0000 0.0000
vt 0.8438 0.5000 0.0000
vt 1.0000 0.5000 0.0000
vt 0.0000 0.5000 0.0000
vt 0.5625 0.7613 0.0000
vt 0.6204 0.2500 0.0000
vt 0.1875 0.5000 0.0000
vt 0.5938 0.5000 0.0000
vt 0.7812 0.5000 0.0000
vt 0.8064 0.9377 0.0000
vt 0.2070 0.9368 0.0000
vt 0.4717 0.1582 0.0000
vt 0.6250 0.8125 0.0000
vt 0.4375 0.7613 0.0000
vt 0.5000 0.7613 0.0000
vt 0.5772 0.1756 0.0000
vt 0.8750 0.7468 0.0000
vt 0.5747 0.0852 0.0000
vt 0.7205 0.4959 0.0000
vt 0.6250 0.5027 0.0000
vt 0.3776 0.5026 0.0000
vt 0.3776 0.7474 0.0000
vt 0.6823 0.9194 0.0000
vt 0.6823 0.9373 0.0000
vt 0.8125 0.4375 0.0000
vt 0.5371 0.9044 0.0000
vt 0.5834 0.9031 0.0000
vt 0.6562 0.5000 0.0000
vt 0.6099 0.0000 0.0000
vt 1.0019 -0.0211 0.0000
vt 1.0004 1.0193 0.0000
vt -0.0045 1.0182 0.0000
vt -0.0029 -0.0221 0.0000
vt 0.5625 0.8125 0.0000
vt 0.9688 0.4375 0.0000
vt 0.1097 0.0359 0.0000
vt 0.0009 0.8033 0.0000
vt 0.4057 0.8476 0.0000
vt 0.3460 0.6858 0.0000
vt 0.7500 1.0000 0.0000
vt 0.3455 0.6544 0.0000
vt 0.3837 0.7728 0.0000
vt 0.9854 0.2032 0.0000
vt 0.0625 0.3125 0.0000
vt 0.6250 0.0084 0.0000
vt 0.5894 0.9953 0.0000
vt 0.6099 1.0000 0.0000
vt 0.5625 0.9953 0.0000
vt 0.6134 0.9862 0.0000
vt 0.5100 0.2500 0.0000
vt 0.3125 1.0000 0.0000
vt 0.6875 1.0000 0.0000
vt 0.6067 0.2547 0.0000
vt 0.5201 0.7123 0.0000
vt 0.1357 0.7500 0.0000
vt 0.0396 -0.0013 0.0000
vt 0.3750 0.7613 0.0000
vt 0.5475 0.2875 0.0000
vt 0.8750 0.5018 0.0000
vt 0.3846 0.8805 0.0000
vt 0.3795 0.7136 0.0000
vt 0.3430 0.7182 0.0000
vt 0.3424 0.6315 0.0000
vt 0.0214 0.0006 0.0000
vt 0.9918 0.0023 0.0000
vt 1.0918 0.9339 0.0000
vt 0.4717 0.3418 0.0000
vt 0.3807 0.7501 0.0000
vt 0.9688 1.0000 0.0000
vt 0.5347 0.3809 0.0000
vt 0.3837 0.7367 0.0000
vt 0.3837 0.7002 0.0000
vt 0.0631 0.4049 0.0000
vt 1.0058 0.0016 0.0000
vt -0.0367 0.0006 0.0000
vt -0.0376 1.0005 0.0000
vt 1.0473 -0.0027 0.0000
vt -0.0475 0.0019 0.0000
vt -0.0156 0.9978 0.0000
vt 1.0050 1.0015 0.0000
vt 1.0475 0.9974 0.0000
vt 0.4688 0.5000 0.0000
vt 0.1875 0.8014 0.0000
vt 0.3750 0.8014 0.0000
vt 0.4688 0.8014 0.0000
vt 0.4375 0.5000 0.0000
vt 0.2812 0.5000 0.0000
vt 0.7709 0.8177 0.0000
vt 0.1464 0.8278 0.0000
vt 0.1501 0.2217 0.0000
vt 0.7838 0.2230 0.0000
vt 0.6250 0.8014 0.0000
vt 0.5388 0.9759 0.0000
vt 0.9496 0.3833 0.0000
vt 0.5000 0.8333 0.0000
vt 0.5833 0.7500 0.0000
vt 0.5833 0.2500 0.0000
vt 0.6667 0.2500 0.0000
vt 0.6667 0.5833 0.0000
vt 0.5833 1.0000 0.0000
vt 0.5000 1.0000 0.0000
vt 0.3750 0.8750 0.0000
vt 0.7500 0.7500 0.0000
vt 0.6667 1.0000 0.0000
vt 0.7500 0.1667 0.0000
vt 0.7083 0.4167 0.0000
vt 0.3333 0.0833 0.0000
vt 0.5000 0.4167 0.0000
vt 0.8333 0.7500 0.0000
vt 0.8333 0.3333 0.0000
vt 0.9167 0.6667 0.0000
vt 0.8333 1.0000 0.0000
vt 0.7269 0.4744 0.0000
vt 0.0283 0.1582 0.0000
vt 0.7500 0.2500 0.0000
vt 0.1667 0.5000 0.0000
vt 0.2500 0.8333 0.0000
vt 0.2500 0.2500 0.0000
vt 0.3333 0.7500 0.0000
vt 0.3333 1.0000 0.0000
vt 0.1667 0.9167 0.0000
vt 0.2500 0.5833 0.0000
vt 0.3333 0.6667 0.0000
vt 0.3333 0.2500 0.0000
vt 0.2500 0.1667 0.0000
vt 0.3333 0.0000 0.0000
vt 0.4167 0.4167 0.0000
vt 0.5833 0.0000 0.0000
vt 0.6667 0.0000 0.0000
vt 0.6667 0.4167 0.0000
vt 0.5833 0.6667 0.0000
vt 0.3435 0.6787 0.0000
vt 0.9167 1.0000 0.0000
vt 0.8333 0.1667 0.0000
vt 0.9167 0.2500 0.0000
vt 0.0406 0.8552 0.0000
vt 0.1667 0.8333 0.0000
vt 0.0833 0.5833 0.0000
vt 0.0833 1.0000 0.0000
vt 0.0000 0.2500 0.0000
vt 0.0833 0.1667 0.0000
vt 0.0000 0.9167 0.0000
vt 0.1667 0.4167 0.0000
vt 0.4900 0.2500 0.0000
vt 0.4167 1.0000 0.0000
vt 0.4167 0.9167 0.0000
vt 0.4167 0.5833 0.0000
vt 0.3333 0.1667 0.0000
vt 0.4167 0.1667 0.0000
vt 1.0000 0.3750 0.0000
vt 0.6822 0.4729 0.0000
vt 0.9167 0.0833 0.0000
vt 1.0000 0.0833 0.0000
vt 0.0000 0.8333 0.0000
vt 0.0833 0.2500 0.0000
vt 0.1667 0.2500 0.0000
vt 0.1667 0.0000 0.0000
vt 0.5000 0.0833 0.0000
vt 0.5626 0.9634 0.0000
vt 0.3750 0.9855 0.0000
vt 0.4761 0.8646 0.0000
vt 0.5000 0.9167 0.0000
vt 0.5000 0.0000 0.0000
vt 0.7833 0.6000 0.0000
vt 0.9833 0.6000 0.0000
vt 0.8833 0.1000 0.0000
vt 1.0000 0.4000 0.0000
vt 0.8833 1.0000 0.0000
vt 0.0833 0.8000 0.0000
vt 0.0000 0.6000 0.0000
vt 0.5625 0.8014 0.0000
vt 0.7500 0.8014 0.0000
vt 0.9688 0.8014 0.0000
vt 0.9375 0.5000 0.0000
vt 0.7188 0.5000 0.0000
vt 0.7188 0.6089 0.0000
vt 0.5625 0.6089 0.0000
vt 1.0000 0.8333 0.0000
vt 0.9167 0.0000 0.0000
vt 0.3833 0.6515 0.0000
vt 0.3830 0.7096 0.0000
vt 0.3693 0.6509 0.0000
# 531 texture coords

o CPU1
g CPU1
usemtl Material__20924
s 2
f 1/1/1 2/2/1 3/3/1 
f 3/3/1 4/4/1 1/1/1 
s 4
f 5/5/2 6/6/2 7/7/2 
f 7/7/2 8/8/2 5/5/2 
s 8
f 8/9/3 7/10/3 3/11/3 
f 3/11/3 2/12/3 8/9/3 
s 16
f 5/13/4 8/14/4 2/15/4 
f 2/15/4 1/16/4 5/13/4 
s 32
f 6/17/5 5/18/5 1/19/5 
f 1/19/5 4/20/5 6/17/5 
s 64
f 7/21/6 6/22/6 4/23/6 
f 4/23/6 3/24/6 7/21/6 
usemtl Material_016
s off
f 9/25/6 10/26/6 11/27/6 
f 12/28/5 11/29/5 10/30/5 
usemtl Material__27360
f 13/31/1 14/32/1 15/33/1 
f 16/33/7 14/32/7 13/31/7 
f 17/28/3 18/34/3 19/35/3 
f 20/36/5 21/28/5 15/27/5 
usemtl Material_016
f 22/37/3 23/38/3 24/39/3 
f 25/40/3 26/41/3 27/42/3 
usemtl Material__27360
f 28/26/8 29/43/8 30/44/8 
f 16/27/3 17/28/3 19/35/3 
f 29/45/6 28/26/6 31/35/6 
f 20/36/2 31/46/2 32/47/2 
f 33/48/9 18/34/9 34/28/9 
f 21/28/4 20/36/4 35/49/4 
usemtl Material_016
f 36/50/3 37/51/3 24/39/3 
f 10/30/5 36/34/5 12/28/5 
f 38/52/3 24/39/3 39/53/3 
f 10/54/2 40/55/2 36/34/2 
usemtl Material__27360
f 41/48/10 42/31/10 43/56/10 
f 20/36/4 41/48/4 44/57/4 
usemtl Material_016
f 12/58/3 45/59/3 46/60/3 
f 36/50/3 47/61/3 12/58/3 
f 48/62/3 49/63/3 50/64/3 
f 12/58/3 51/65/3 52/66/3 
usemtl Material__27360
f 20/36/4 53/67/4 54/68/4 
f 55/69/4 41/48/4 56/70/4 
f 57/71/6 58/72/6 59/73/6 
f 60/74/4 61/75/4 62/73/4 
f 61/75/4 63/76/4 62/73/4 
f 64/77/6 57/71/6 59/73/6 
usemtl Material_022
f 65/28/4 66/78/4 67/31/4 
f 68/28/6 69/79/6 70/80/6 
usemtl Material__27360
f 32/47/2 31/46/2 28/54/2 
f 30/44/8 19/35/8 28/26/8 
usemtl Material_016
f 71/81/3 50/64/3 72/82/3 
f 71/81/3 72/82/3 12/58/3 
usemtl Material__27360
f 16/27/8 19/35/8 30/44/8 
f 20/36/5 15/27/5 31/35/5 
f 34/28/9 42/31/9 33/48/9 
f 13/31/7 17/28/7 16/33/7 
usemtl Material_022
f 68/28/6 70/83/6 73/34/6 
f 65/28/4 74/84/4 66/85/4 
usemtl Material__27360
f 75/86/8 76/87/8 28/26/8 
f 14/88/6 28/26/6 76/89/6 
usemtl Material_016
f 12/58/3 46/60/3 11/90/3 
f 9/91/3 11/90/3 77/92/3 
f 45/59/3 78/93/3 46/60/3 
f 11/90/3 46/60/3 79/94/3 
f 80/95/3 27/42/3 81/96/3 
f 82/97/3 83/98/3 78/93/3 
usemtl Material_020
f 84/31/1 85/32/1 86/33/1 
f 87/99/2 88/100/2 89/101/2 
usemtl Material_016
f 90/91/3 91/102/3 92/103/3 
f 23/38/3 9/91/3 24/39/3 
usemtl Material_020
f 84/104/3 93/105/3 94/106/3 
f 86/33/1 95/28/1 84/31/1 
usemtl Material__27360
f 31/35/6 30/107/6 29/45/6 
f 31/35/6 96/108/6 97/109/6 
usemtl Material_016
f 98/110/3 99/111/3 100/112/3 
f 101/113/11 102/114/11 103/115/11 
usemtl Material__27360
f 20/36/4 104/116/4 105/117/4 
f 55/69/4 56/70/4 106/118/4 
f 107/119/8 14/88/8 16/27/8 
f 15/27/6 14/88/6 75/120/6 
f 75/86/8 28/26/8 14/88/8 
f 14/88/6 76/89/6 75/120/6 
usemtl Material_016
f 108/121/3 109/122/3 50/64/3 
f 26/41/3 109/122/3 27/42/3 
usemtl Material__27360
f 15/27/6 110/123/6 111/124/6 
f 31/35/6 15/27/6 111/124/6 
usemtl Material_016
f 51/65/3 112/125/3 52/66/3 
f 78/93/3 113/126/3 112/125/3 
usemtl Material_020
f 85/127/3 84/104/3 114/128/3 
f 93/105/3 115/129/3 94/106/3 
usemtl Material__20925
f 116/130/1 117/131/1 118/132/1 
f 117/133/2 116/134/2 118/135/2 
usemtl Material_016
f 119/136/3 120/137/3 12/58/3 
f 36/50/3 121/138/3 122/139/3 
usemtl Material_017
f 123/140/6 124/141/6 125/142/6 
f 126/143/4 127/144/4 128/145/4 
f 129/146/6 130/147/6 131/148/6 
f 132/143/4 133/144/4 134/145/4 
f 135/146/6 136/147/6 137/148/6 
f 138/143/4 139/144/4 140/145/4 
f 141/143/4 142/149/4 143/145/4 
f 144/140/6 145/141/6 146/150/6 
f 147/140/6 148/141/6 149/150/6 
f 150/143/4 151/149/4 152/145/4 
f 153/140/6 154/141/6 155/142/6 
f 156/143/4 157/151/4 158/145/4 
f 159/140/6 160/141/6 161/142/6 
f 162/143/4 163/144/4 164/145/4 
f 165/146/6 166/147/6 167/148/6 
f 168/143/4 169/149/4 170/145/4 
f 171/143/4 172/149/4 173/145/4 
f 174/146/6 175/147/6 176/148/6 
usemtl Material__27360
f 20/36/4 177/152/4 35/49/4 
f 178/153/4 179/154/4 180/155/4 
usemtl Material_017
f 181/143/4 182/151/4 183/145/4 
f 184/146/6 185/147/6 186/148/6 
f 187/143/4 188/151/4 189/145/4 
f 190/146/6 191/147/6 192/148/6 
f 193/146/6 194/147/6 195/148/6 
f 196/143/4 197/151/4 198/145/4 
usemtl Material_020
f 93/48/4 84/31/4 95/28/4 
f 93/156/2 89/101/2 88/100/2 
usemtl Material__27360
f 15/33/1 21/28/1 13/31/1 
f 178/153/4 180/155/4 199/157/4 
usemtl Material_061
f 200/158/1 201/28/1 202/31/1 
f 200/158/1 202/31/1 203/159/1 
usemtl Material_016
f 10/54/2 204/46/2 205/55/2 
f 204/35/6 10/26/6 9/25/6 
usemtl Material__27360
f 18/34/12 41/48/12 206/160/12 
f 206/161/2 28/54/2 41/48/2 
f 207/162/2 206/161/2 41/48/2 
f 41/48/12 208/163/12 206/160/12 
usemtl Material_016
f 209/164/3 210/165/3 211/166/3 
f 50/64/3 112/125/3 51/65/3 
f 9/91/3 77/92/3 27/42/3 
f 9/91/3 108/121/3 24/39/3 
usemtl Material__27360
f 20/36/2 32/47/2 207/162/2 
f 20/36/2 207/162/2 41/48/2 
usemtl Material_026
f 212/167/4 213/168/4 214/169/4 
f 213/170/6 212/171/6 215/172/6 
usemtl Material_047
f 216/88/6 217/26/6 218/35/6 
f 219/35/4 220/26/4 221/88/4 
f 218/35/6 222/27/6 216/88/6 
f 221/88/4 223/27/4 219/35/4 
usemtl Material_026
f 215/173/6 212/174/6 224/175/6 
f 224/176/6 225/177/6 215/172/6 
f 214/169/4 224/178/4 212/167/4 
f 214/169/4 213/168/4 224/178/4 
f 226/167/4 227/168/4 228/169/4 
f 227/170/6 226/171/6 229/172/6 
f 230/177/13 231/171/13 232/172/13 
f 231/167/14 230/179/14 233/180/14 
usemtl Material__27360
f 21/28/4 35/49/4 199/181/4 
f 13/31/4 21/28/4 199/181/4 
f 16/27/8 97/182/8 96/183/8 
f 107/119/8 16/27/8 111/184/8 
usemtl Material_016
f 204/185/3 90/91/3 92/103/3 
f 234/186/3 235/111/3 205/187/3 
usemtl Material_017
f 172/149/4 236/188/4 237/189/4 
f 174/146/6 238/190/6 239/191/6 
usemtl Material__27360
f 207/192/12 19/46/12 18/34/12 
f 207/192/12 18/34/12 206/160/12 
usemtl Material_017
f 182/151/4 240/188/4 241/193/4 
f 184/146/6 242/190/6 243/191/6 
usemtl Material__27360
f 20/36/4 44/57/4 244/194/4 
f 104/116/4 245/195/4 246/196/4 
usemtl Material__20925
f 117/131/1 247/197/1 118/132/1 
f 247/198/2 117/133/2 118/135/2 
usemtl Material_026
f 248/176/6 249/177/6 229/172/6 
f 229/173/6 226/174/6 248/175/6 
usemtl Material_016
f 72/82/3 50/64/3 51/65/3 
f 72/82/3 250/199/3 12/58/3 
usemtl Material_026
f 228/169/4 248/178/4 226/167/4 
f 228/169/4 227/168/4 248/178/4 
usemtl Material__27360
f 107/200/6 251/201/6 252/202/6 
f 251/203/8 253/204/8 254/205/8 
usemtl Material_017
f 169/149/4 255/188/4 256/189/4 
f 165/146/6 257/190/6 258/191/6 
f 188/151/4 259/188/4 260/193/4 
f 190/146/6 261/190/6 262/191/6 
f 197/151/4 263/188/4 264/193/4 
f 193/146/6 265/190/6 266/191/6 
f 144/140/6 146/150/6 267/206/6 
f 142/149/4 268/188/4 269/189/4 
usemtl Material_026
f 233/180/15 230/179/15 270/178/15 
f 271/169/16 270/178/16 231/167/16 
usemtl Material_020
f 87/99/2 272/207/2 273/208/2 
f 273/208/2 274/209/2 93/156/2 
usemtl Material_026
f 270/176/17 230/177/17 232/172/17 
f 275/210/18 231/174/18 270/175/18 
usemtl Material_016
f 98/110/3 100/112/3 39/53/3 
f 40/187/3 276/211/3 36/50/3 
usemtl Material__27360
f 251/203/8 110/212/8 277/213/8 
f 107/200/6 254/214/6 253/215/6 
usemtl Material_017
f 133/144/4 278/188/4 279/189/4 
f 129/146/6 280/190/6 281/191/6 
f 127/144/4 282/188/4 283/193/4 
f 123/140/6 125/142/6 284/216/6 
usemtl Material__27360
f 20/36/4 285/217/4 177/152/4 
f 41/48/4 177/152/4 56/70/4 
f 16/27/8 286/218/8 287/219/8 
f 31/35/6 287/220/6 286/218/6 
f 288/221/5 28/30/5 289/222/5 
f 290/223/5 291/224/5 289/222/5 
f 289/222/3 28/30/3 288/221/3 
f 292/31/3 289/222/3 291/224/3 
usemtl Material_017
f 153/140/6 155/142/6 293/216/6 
f 157/151/4 294/188/4 295/193/4 
f 159/140/6 161/142/6 296/216/6 
f 163/144/4 297/188/4 298/193/4 
usemtl Material_016
f 83/98/3 299/225/3 300/226/3 
f 91/102/3 301/227/3 92/103/3 
f 23/38/3 302/102/3 9/91/3 
usemtl Material_017
f 139/144/4 303/188/4 304/189/4 
f 135/146/6 305/190/6 306/191/6 
usemtl Material__27360
f 35/49/4 178/228/4 199/181/4 
f 35/229/5 307/230/5 178/231/5 
usemtl Material_017
f 151/149/4 308/188/4 309/193/4 
f 147/140/6 149/150/6 310/216/6 
usemtl Material_020
f 85/88/6 88/26/6 87/35/6 
f 94/34/3 115/232/3 311/27/3 
usemtl metal_mesh_500x500
f 312/233/1 313/234/1 314/235/1 
f 314/235/1 315/236/1 312/233/1 
f 316/233/1 317/234/1 318/235/1 
f 318/235/1 319/236/1 316/233/1 
usemtl Material_016
f 320/237/19 27/42/19 109/122/19 
f 27/42/20 321/238/20 322/239/20 
usemtl Material_017
f 323/148/6 154/141/6 153/140/6 
f 158/145/4 323/148/4 156/143/4 
f 324/148/6 160/141/6 159/140/6 
f 164/145/4 324/148/4 162/143/4 
f 143/145/4 325/148/4 141/143/4 
f 325/148/6 145/141/6 144/140/6 
usemtl Material_016
f 122/139/3 47/61/3 36/50/3 
f 119/136/3 122/139/3 120/137/3 
usemtl Material__27360
f 41/48/12 28/54/12 208/163/12 
f 28/54/2 208/240/2 32/47/2 
f 206/161/2 208/240/2 28/54/2 
f 208/163/12 28/54/12 19/46/12 
usemtl Material_016
f 26/41/3 209/164/3 112/125/3 
f 82/97/3 78/93/3 112/125/3 
f 48/62/3 121/138/3 36/50/3 
f 71/81/3 48/62/3 50/64/3 
usemtl Material_017
f 326/148/6 124/141/6 123/140/6 
f 128/145/4 326/148/4 126/143/4 
f 327/148/6 148/141/6 147/140/6 
f 152/145/4 327/148/4 150/143/4 
f 198/145/4 195/148/4 196/143/4 
f 195/148/6 198/145/6 193/146/6 
f 134/145/4 131/148/4 132/143/4 
f 131/148/6 134/145/6 129/146/6 
f 170/145/4 167/148/4 168/143/4 
f 167/148/6 170/145/6 165/146/6 
f 140/145/4 137/148/4 138/143/4 
f 137/148/6 140/145/6 135/146/6 
f 176/148/6 173/145/6 174/146/6 
f 173/145/4 176/148/4 171/143/4 
usemtl Material__27360
f 104/116/4 246/196/4 105/117/4 
f 56/70/4 328/241/4 106/118/4 
usemtl Material_026
f 329/210/18 330/174/18 331/175/18 
f 332/242/16 331/178/16 330/167/16 
usemtl Material_020
f 87/35/6 86/27/6 85/88/6 
f 86/27/5 87/35/5 333/34/5 
usemtl Material_016
f 209/164/3 211/166/3 334/243/3 
f 335/244/3 336/245/3 27/42/3 
usemtl Material__27360
f 292/31/3 291/224/3 290/223/3 
f 337/29/3 292/31/3 338/246/3 
f 290/223/5 289/222/5 292/31/5 
f 337/29/5 338/246/5 292/31/5 
f 339/31/21 59/29/21 58/247/21 
f 64/248/22 59/249/22 339/31/22 
usemtl Material_017
f 192/148/6 189/145/6 190/146/6 
f 189/145/4 192/148/4 187/143/4 
f 186/148/6 183/145/6 184/146/6 
f 183/145/4 186/148/4 181/143/4 
usemtl Material__27360
f 53/67/4 56/70/4 340/250/4 
f 53/67/4 340/250/4 54/68/4 
usemtl Material_020
f 311/27/3 114/251/3 94/34/3 
f 84/104/3 94/106/3 114/128/3 
usemtl Material_026
f 341/210/18 342/174/18 343/175/18 
f 344/242/16 343/178/16 342/167/16 
f 345/210/18 346/174/18 347/175/18 
f 348/242/16 347/178/16 346/167/16 
usemtl Material__27360
f 104/252/4 349/253/4 55/254/4 
f 55/69/4 349/255/4 41/48/4 
usemtl Material_020
f 333/34/5 95/28/5 86/27/5 
f 95/28/4 333/34/4 93/48/4 
usemtl metal_mesh_500x500
f 350/235/6 351/236/6 352/256/6 
usemtl Material_094
f 353/257/6 354/258/6 355/259/6 
f 356/260/4 357/261/4 358/262/4 
usemtl Material_016
f 359/263/3 22/37/3 24/39/3 
f 102/114/11 360/264/11 361/265/11 
usemtl aorus_case_fans
f 362/266/6 363/267/6 364/268/6 
f 365/266/6 366/267/6 367/268/6 
f 368/266/6 369/267/6 370/268/6 
f 371/266/4 372/267/4 373/268/4 
f 374/266/4 375/267/4 376/268/4 
f 377/266/4 378/267/4 379/268/4 
usemtl Material_027
f 380/34/5 381/31/5 382/27/5 
f 381/269/3 380/270/3 383/271/3 
f 382/27/5 383/26/5 380/34/5 
f 383/271/3 382/272/3 381/269/3 
usemtl Material_026
f 384/173/6 385/174/6 386/175/6 
f 384/273/4 386/178/4 385/167/4 
f 387/273/4 388/178/4 389/167/4 
f 387/173/6 389/174/6 388/175/6 
usemtl Material_016
f 47/61/3 122/139/3 119/136/3 
f 47/61/3 390/274/3 12/58/3 
usemtl Material__27360
f 391/275/23 392/276/23 58/277/23 
f 58/247/21 392/276/21 339/31/21 
usemtl Material_016
f 40/187/3 393/278/3 276/211/3 
f 276/211/3 394/279/3 24/39/3 
usemtl Material_017
f 258/191/6 166/147/6 165/146/6 
f 169/149/4 168/143/4 255/188/4 
f 144/140/6 141/143/6 325/148/6 
f 142/149/4 141/143/4 268/188/4 
usemtl Material__27360
f 28/30/3 395/280/3 288/221/3 
f 288/221/5 395/280/5 28/30/5 
f 28/30/5 396/281/5 397/282/5 
f 28/30/3 397/282/3 396/281/3 
f 398/283/4 399/284/4 177/152/4 
f 400/285/4 399/253/4 398/286/4 
f 339/31/22 401/28/22 64/248/22 
f 64/77/24 401/28/24 391/275/24 
usemtl metal_mesh_500x500
f 352/256/6 402/234/6 350/235/6 
usemtl Material_020
f 273/208/2 272/207/2 274/209/2 
f 272/207/2 87/99/2 274/209/2 
usemtl Material_017
f 243/191/6 185/147/6 184/146/6 
f 182/151/4 181/143/4 240/188/4 
f 266/191/6 194/147/6 193/146/6 
f 197/151/4 196/143/4 263/188/4 
f 281/191/6 130/147/6 129/146/6 
f 133/144/4 132/143/4 278/188/4 
f 239/191/6 175/147/6 174/146/6 
f 172/149/4 171/143/4 236/188/4 
usemtl Material__27360
f 403/254/4 404/287/4 53/288/4 
f 53/67/4 328/241/4 56/70/4 
usemtl Material_017
f 163/144/4 162/143/4 297/188/4 
f 159/140/6 162/143/6 324/148/6 
f 153/140/6 156/143/6 323/148/6 
f 157/151/4 156/143/4 294/188/4 
f 147/140/6 150/143/6 327/148/6 
f 151/149/4 150/143/4 308/188/4 
f 123/140/6 126/143/6 326/148/6 
f 127/144/4 126/143/4 282/188/4 
usemtl Material__20925
f 116/130/1 405/289/1 117/131/1 
f 117/133/2 405/290/2 116/134/2 
usemtl Material__27360
f 207/192/12 32/291/12 19/46/12 
f 19/46/12 32/291/12 208/163/12 
usemtl Material_016
f 209/164/3 406/292/3 112/125/3 
f 209/164/3 334/243/3 406/292/3 
f 79/94/3 407/293/3 11/90/3 
f 27/42/3 408/294/3 81/96/3 
usemtl Material_017
f 262/191/6 191/147/6 190/146/6 
f 188/151/4 187/143/4 259/188/4 
f 306/191/6 136/147/6 135/146/6 
f 139/144/4 138/143/4 303/188/4 
usemtl Material_026
f 331/176/17 409/177/17 410/172/17 
f 332/242/25 330/167/25 409/179/25 
f 411/169/15 409/179/15 331/178/15 
f 409/177/13 330/171/13 410/172/13 
usemtl Material__27360
f 252/295/8 251/203/8 254/205/8 
f 107/200/6 252/202/6 254/214/6 
usemtl Material_016
f 412/296/3 204/185/3 413/297/3 
f 414/298/3 205/187/3 415/299/3 
f 49/63/3 108/121/3 50/64/3 
f 108/121/3 49/63/3 24/39/3 
f 25/40/3 416/300/3 26/41/3 
f 416/300/3 25/40/3 80/95/3 
usemtl Material_026
f 343/176/17 417/177/17 418/172/17 
f 344/242/25 342/167/25 417/179/25 
f 419/169/15 417/179/15 343/178/15 
f 417/177/13 342/171/13 418/172/13 
f 420/177/13 346/171/13 421/172/13 
f 347/176/17 420/177/17 421/172/17 
f 348/242/25 346/167/25 420/179/25 
f 422/169/15 420/179/15 347/178/15 
usemtl Material_061
f 200/301/5 423/302/5 424/34/5 
f 423/302/6 200/301/6 203/303/6 
usemtl Material_019
f 425/304/26 426/305/26 427/306/26 
f 428/307/27 429/308/27 430/309/27 
usemtl Material_016
f 205/55/2 40/55/2 10/54/2 
f 431/310/28 235/311/28 98/312/28 
f 101/113/11 92/313/11 102/114/11 
f 235/311/28 99/314/28 98/312/28 
usemtl Material__27360
f 339/31/29 62/249/29 63/315/29 
f 60/316/30 62/317/30 339/31/30 
usemtl Material_095
f 432/257/6 433/259/6 434/318/6 
f 435/260/4 436/319/4 437/262/4 
usemtl Material_022
f 69/79/31 68/28/31 438/33/31 
f 438/320/32 68/28/32 73/321/32 
usemtl Material__27360
f 439/33/33 440/31/33 441/54/33 
f 442/34/34 441/26/34 440/88/34 
f 28/30/3 337/29/3 397/282/3 
f 337/29/5 397/322/5 338/246/5 
f 28/30/5 397/282/5 337/29/5 
f 397/322/3 337/29/3 338/246/3 
usemtl Material_019
f 443/304/35 444/323/35 445/324/35 
f 446/307/36 447/325/36 448/326/36 
usemtl Material__27360
f 252/202/6 251/201/6 449/327/6 
f 449/328/8 251/203/8 252/295/8 
usemtl aorus_case_fans
f 366/267/6 450/329/6 367/268/6 
f 378/267/4 451/329/4 379/268/4 
f 372/267/4 452/329/4 373/268/4 
f 375/267/4 453/329/4 376/268/4 
f 369/267/6 454/329/6 370/268/6 
f 363/267/6 455/329/6 364/268/6 
usemtl Material__27360
f 391/275/24 57/71/24 64/77/24 
f 58/277/23 57/330/23 391/275/23 
usemtl Material_017
f 134/145/37 133/144/37 129/146/37 
f 456/142/38 133/144/38 457/193/38 
usemtl Material_026
f 389/167/4 458/168/4 387/273/4 
f 388/176/6 459/177/6 387/172/6 
f 389/174/6 387/331/6 458/332/6 
f 458/168/4 388/178/4 387/273/4 
usemtl Material_017
f 140/145/39 139/144/39 135/146/39 
f 460/142/40 139/144/40 461/193/40 
usemtl Material_094
f 355/333/41 358/334/41 357/29/41 
f 462/335/42 463/336/42 356/337/42 
usemtl Material_016
f 92/313/11 301/338/11 102/114/11 
f 102/38/43 301/227/43 91/102/43 
f 26/41/3 50/64/3 109/122/3 
f 50/64/3 26/41/3 112/125/3 
f 464/339/3 103/340/3 100/112/3 
f 38/52/3 359/263/3 24/39/3 
usemtl Material__27360
f 441/54/33 442/34/33 439/33/33 
f 440/88/34 439/27/34 442/34/34 
f 465/30/44 466/34/44 467/33/44 
f 468/88/45 467/27/45 466/34/45 
f 466/34/45 465/26/45 468/88/45 
f 467/33/44 468/31/44 465/30/44 
f 107/200/6 253/215/6 277/341/6 
f 251/203/8 277/213/8 253/204/8 
f 31/35/6 97/109/6 287/220/6 
f 16/27/8 287/219/8 97/182/8 
usemtl Material_022
f 69/79/46 469/29/46 470/247/46 
f 438/33/31 469/32/31 69/79/31 
usemtl Material_096
f 471/260/4 472/261/4 473/262/4 
f 474/257/6 475/342/6 472/343/6 
usemtl Material_009
f 476/257/5 477/342/5 478/343/5 
f 476/260/3 478/261/3 477/344/3 
usemtl Material_017
f 198/145/47 197/151/47 193/146/47 
f 193/146/48 479/149/48 480/345/48 
f 190/146/49 481/149/49 482/345/49 
f 189/145/50 188/151/50 190/146/50 
usemtl Material_009
f 483/260/3 484/261/3 485/344/3 
f 486/257/5 487/258/5 484/346/5 
usemtl Material__27360
f 20/36/4 488/347/4 104/116/4 
f 104/252/4 244/348/4 44/349/4 
usemtl psuback
f 489/233/4 490/234/4 491/235/4 
f 491/235/4 492/236/4 489/233/4 
usemtl Material__27360
f 63/315/29 401/28/29 339/31/29 
f 391/275/51 401/28/51 63/76/51 
f 42/31/10 180/155/10 43/56/10 
f 17/28/52 13/31/52 42/31/52 
usemtl Material_094
f 493/350/53 494/351/53 353/352/53 
f 356/337/42 353/353/42 462/335/42 
usemtl Material_017
f 269/354/49 267/206/49 146/150/49 
f 267/206/54 269/354/54 495/191/54 
f 183/145/47 182/151/47 184/146/47 
f 184/146/48 496/149/48 497/345/48 
f 173/145/37 172/149/37 174/146/37 
f 174/146/38 172/149/38 498/193/38 
f 165/146/49 169/149/49 256/354/49 
f 170/145/50 169/149/50 165/146/50 
usemtl Material_022
f 470/54/55 499/46/55 73/34/55 
f 73/321/32 499/355/32 438/320/32 
usemtl Material_009
f 500/260/3 501/261/3 502/262/3 
f 500/257/5 502/258/5 501/343/5 
f 503/260/3 504/261/3 505/262/3 
f 503/257/5 505/258/5 504/343/5 
usemtl Material_096
f 506/356/42 507/336/42 471/337/42 
f 508/350/56 475/357/56 509/358/56 
usemtl Material_026
f 510/359/6 511/170/6 512/177/6 
f 512/179/4 511/180/4 510/360/4 
f 511/180/4 512/179/4 386/178/4 
f 386/176/6 512/177/6 384/172/6 
usemtl Material_009
f 513/260/3 514/261/3 515/361/3 
f 516/257/5 517/258/5 514/343/5 
usemtl Material__27360
f 30/107/6 31/35/6 286/218/6 
f 16/27/8 30/44/8 286/218/8 
usemtl Material_009
f 518/260/3 519/261/3 520/361/3 
f 521/257/5 522/258/5 519/343/5 
f 523/260/3 524/261/3 525/361/3 
f 526/257/5 527/258/5 524/343/5 
usemtl Material_017
f 497/345/57 241/193/57 240/362/57 
f 241/193/48 497/345/48 496/149/48 
f 265/363/57 480/345/57 266/191/57 
f 480/345/48 265/190/48 193/146/48 
f 162/143/58 528/191/58 297/362/58 
f 297/362/59 528/191/59 529/364/59 
f 294/362/57 530/191/57 531/364/57 
f 156/143/60 530/191/60 294/362/60 
usemtl Material_016
f 408/294/3 27/42/3 77/92/3 
f 79/94/3 408/294/3 77/92/3 
f 532/365/3 82/97/3 112/125/3 
f 82/97/61 406/292/61 80/95/61 
usemtl Material_009
f 533/257/5 534/258/5 535/343/5 
f 536/260/3 535/261/3 537/361/3 
usemtl Material_017
f 268/362/54 495/191/54 269/354/54 
f 141/143/62 495/191/62 268/362/62 
f 308/362/63 538/191/63 310/216/63 
f 150/143/64 538/191/64 308/362/64 
f 282/362/63 539/191/63 540/364/63 
f 126/143/64 539/191/64 282/362/64 
usemtl Material__27360
f 339/31/30 392/276/30 60/316/30 
f 60/366/65 392/276/65 391/275/65 
usemtl Material_017
f 498/193/38 238/363/38 174/146/38 
f 238/363/59 237/354/59 239/191/59 
usemtl Material_016
f 78/93/3 45/59/3 113/126/3 
f 112/125/3 541/367/3 52/66/3 
usemtl Material_017
f 255/362/54 258/191/54 256/354/54 
f 168/143/62 258/191/62 255/362/62 
usemtl Material_016
f 205/187/3 204/185/3 415/299/3 
f 204/185/3 412/296/3 415/299/3 
usemtl Material_017
f 240/362/57 243/191/57 497/345/57 
f 181/143/60 243/191/60 240/362/60 
f 263/362/57 266/191/57 480/345/57 
f 196/143/60 266/191/60 263/362/60 
f 236/362/59 239/191/59 237/354/59 
f 171/143/58 239/191/58 236/362/58 
f 132/143/58 281/191/58 278/362/58 
f 278/362/59 281/191/59 279/354/59 
f 128/145/39 127/144/39 125/142/39 
f 125/142/40 127/144/40 283/193/40 
f 257/363/54 256/354/54 258/191/54 
f 256/354/49 257/190/49 165/146/49 
usemtl Material_016
f 542/368/3 71/81/3 12/58/3 
f 122/139/3 121/138/3 542/368/3 
usemtl Material_022
f 74/369/5 65/370/5 438/320/5 
f 438/33/66 65/28/66 67/371/66 
usemtl Material_017
f 280/363/59 279/354/59 281/191/59 
f 457/193/38 543/216/38 456/142/38 
usemtl Material__27360
f 20/36/4 54/68/4 285/217/4 
f 400/285/4 285/348/4 54/288/4 
f 107/119/8 75/86/8 14/88/8 
f 15/27/6 75/120/6 107/200/6 
f 42/31/10 13/31/10 180/155/10 
f 180/155/4 13/31/4 199/181/4 
usemtl Material_016
f 394/279/3 544/372/3 24/39/3 
f 40/187/3 39/53/3 545/373/3 
usemtl Material_017
f 283/193/40 284/216/40 125/142/40 
f 540/364/63 283/193/63 282/362/63 
usemtl metal_mesh_500x500
f 546/234/6 547/350/6 548/374/6 
f 548/374/6 549/233/6 546/234/6 
usemtl Material_016
f 431/375/67 98/376/67 40/187/67 
f 40/187/3 98/110/3 39/53/3 
usemtl Material__27360
f 76/87/8 449/328/8 28/26/8 
f 28/26/6 449/327/6 76/89/6 
usemtl Material_061
f 424/34/5 201/28/5 200/301/5 
f 201/28/4 424/34/4 550/48/4 
usemtl Material_017
f 305/363/63 304/354/63 306/191/63 
f 461/193/40 551/216/40 460/142/40 
f 310/216/63 309/193/63 308/362/63 
f 309/193/40 310/216/40 151/149/40 
f 298/193/38 296/216/38 161/142/38 
f 529/364/59 298/193/59 297/362/59 
usemtl Material_094
f 358/334/68 355/333/68 354/377/68 
f 354/377/69 493/350/69 358/334/69 
usemtl Material_017
f 152/145/39 151/149/39 149/150/39 
f 149/150/40 151/149/40 310/216/40 
usemtl Material__27360
f 307/230/70 35/229/70 43/378/70 
f 180/155/3 179/154/3 43/56/3 
usemtl Material_017
f 146/150/49 142/149/49 269/354/49 
f 143/145/50 142/149/50 146/150/50 
f 295/193/48 293/216/48 155/142/48 
f 531/364/57 295/193/57 294/362/57 
usemtl Material_086
f 552/48/4 553/31/4 554/28/4 
f 553/379/6 552/380/6 555/381/6 
f 554/28/4 555/34/4 552/48/4 
f 555/381/6 554/382/6 553/379/6 
usemtl Material_017
f 556/364/54 260/193/54 259/383/54 
f 260/193/49 482/345/49 481/149/49 
usemtl Material_019
f 428/307/71 427/306/71 429/384/71 
f 429/384/72 427/306/72 426/305/72 
usemtl Material_020
f 333/385/2 273/208/2 93/156/2 
f 273/208/2 333/385/2 87/99/2 
usemtl Material_017
f 161/142/38 163/144/38 298/193/38 
f 164/145/37 163/144/37 161/142/37 
usemtl Material_016
f 108/121/3 27/42/3 109/122/3 
f 108/121/3 9/91/3 27/42/3 
usemtl Material_026
f 341/173/18 419/386/18 343/175/18 
f 419/386/18 341/210/18 343/175/18 
f 329/173/18 411/386/18 331/175/18 
f 411/386/18 329/210/18 331/175/18 
usemtl Material_017
f 158/145/47 157/151/47 155/142/47 
f 155/142/48 157/151/48 295/193/48 
usemtl Material_026
f 422/386/18 345/210/18 347/175/18 
f 345/173/18 422/386/18 347/175/18 
usemtl Material_017
f 187/143/62 262/191/62 259/383/62 
f 259/383/54 262/191/54 556/364/54 
f 303/383/63 306/191/63 304/354/63 
f 138/143/64 306/191/64 303/383/64 
usemtl Material_016
f 99/111/3 557/387/3 100/112/3 
f 101/113/11 103/115/11 464/388/11 
usemtl Material_095
f 558/389/56 433/333/56 559/358/56 
f 435/337/73 432/353/73 434/356/73 
usemtl Material_016
f 102/114/11 361/265/11 560/390/11 
f 359/263/3 38/52/3 560/391/3 
usemtl Material__27360
f 20/36/4 105/117/4 53/67/4 
f 403/254/4 53/288/4 105/287/4 
f 104/252/4 55/254/4 561/392/4 
f 246/196/4 245/195/4 55/69/4 
f 16/27/8 96/183/8 111/184/8 
f 31/35/6 111/124/6 96/108/6 
usemtl Material_016
f 83/98/3 80/95/3 299/225/3 
f 83/98/3 82/97/3 80/95/3 
usemtl Material_019
f 443/304/74 562/393/74 444/323/74 
f 444/323/75 448/326/75 447/325/75 
usemtl Material_061
f 202/31/76 550/48/76 563/394/76 
f 550/48/4 202/31/4 201/28/4 
usemtl metal_mesh_500x500
f 549/233/6 548/374/6 564/308/6 
usemtl Material_026
f 275/173/18 565/386/18 270/175/18 
f 565/386/18 275/210/18 270/175/18 
usemtl Material_022
f 67/371/66 469/32/66 438/33/66 
f 470/247/3 469/29/3 67/31/3 
usemtl Material_016
f 79/94/77 81/96/77 408/294/77 
usemtl Material_022
f 73/34/55 70/83/55 470/54/55 
f 470/247/46 70/80/46 69/79/46 
usemtl Material__27360
f 177/395/78 43/396/78 35/397/78 
f 41/48/4 43/56/4 177/152/4 
f 396/281/3 395/280/3 28/30/3 
f 395/280/5 396/398/5 28/30/5 
usemtl Material_016
f 234/186/3 412/296/3 235/111/3 
f 414/298/3 415/299/3 412/296/3 
usemtl Material_094
f 353/257/6 355/259/6 462/399/6 
f 463/336/79 462/335/79 355/333/79 
usemtl Material_026
f 510/360/4 385/167/4 512/179/4 
f 512/177/6 385/171/6 510/359/6 
f 384/173/6 510/332/6 385/174/6 
f 385/167/4 510/360/4 511/180/4 
usemtl Material_016
f 12/58/3 250/199/3 51/65/3 
f 51/65/3 250/199/3 72/82/3 
f 299/225/3 81/96/3 300/226/3 
f 299/225/3 80/95/3 81/96/3 
usemtl Material_019
f 566/400/80 567/353/80 568/377/80 
f 569/401/81 568/377/81 567/352/81 
usemtl maxresdefault__1_
f 570/233/4 571/234/4 572/235/4 
f 572/235/4 573/236/4 570/233/4 
usemtl Material_019
f 574/353/82 575/400/82 576/337/82 
f 577/377/83 578/401/83 575/400/83 
f 568/377/84 569/401/84 566/400/84 
f 567/353/85 566/400/85 579/337/85 
usemtl Material_022
f 438/320/5 499/355/5 74/369/5 
f 74/84/86 499/46/86 470/54/86 
usemtl Material_019
f 578/401/87 577/377/87 574/352/87 
f 575/400/88 574/353/88 577/377/88 
f 430/309/27 425/304/27 428/307/27 
f 427/306/89 428/307/89 425/304/89 
usemtl Material_016
f 48/62/3 36/50/3 24/39/3 
f 48/62/3 24/39/3 49/63/3 
usemtl Material__27360
f 307/230/70 43/378/70 179/402/70 
f 178/153/4 307/403/4 179/154/4 
usemtl Material_019
f 447/325/90 446/307/90 443/304/90 
f 562/393/91 443/304/91 446/307/91 
usemtl rgb_hdd_cover_aorus_v1
f 580/233/3 581/234/3 582/235/3 
f 582/235/3 583/236/3 580/233/3 
usemtl Material__20925
f 584/404/1 116/130/1 118/132/1 
f 116/134/2 584/405/2 118/135/2 
usemtl Material_017
f 261/406/54 556/364/54 262/191/54 
f 482/345/49 261/406/49 190/146/49 
usemtl Material_016
f 90/91/92 9/91/92 302/102/92 
f 9/25/6 90/25/6 204/35/6 
usemtl Material_009
f 483/260/3 585/319/3 484/261/3 
f 486/257/5 484/346/5 586/318/5 
usemtl Material_016
f 26/41/93 587/41/93 588/407/94 
f 416/300/3 210/165/3 26/41/3 
f 122/139/3 542/368/3 120/137/3 
f 12/58/3 120/137/3 542/368/3 
usemtl Material__27360
f 63/76/51 61/75/51 391/275/51 
f 391/275/65 61/408/65 60/366/65 
usemtl Material_026
f 417/179/25 419/169/25 344/242/25 
f 409/179/25 411/169/25 332/242/25 
f 420/179/25 422/169/25 348/242/25 
usemtl Material_061
f 563/394/76 203/303/76 202/31/76 
f 203/303/6 563/394/6 423/302/6 
usemtl test_aorus_m2_souris_aorus_rgb2
f 589/233/3 590/234/3 591/235/3 
f 591/235/3 592/236/3 589/233/3 
usemtl Material_016
f 544/372/3 39/53/3 24/39/3 
f 39/53/3 544/372/3 545/373/3 
f 557/387/3 99/111/3 101/409/3 
f 99/410/95 235/411/95 101/412/95 
usemtl Material_026
f 421/413/18 345/173/18 347/175/18 
f 345/210/18 421/331/18 346/174/18 
usemtl Material__27360
f 291/224/5 288/221/5 289/222/5 
f 289/222/3 288/221/3 291/224/3 
usemtl Material_026
f 418/413/18 341/173/18 343/175/18 
f 341/210/18 418/331/18 342/174/18 
f 232/413/18 275/173/18 270/175/18 
f 275/210/18 232/331/18 231/174/18 
f 329/210/18 410/331/18 330/174/18 
f 410/413/18 329/173/18 331/175/18 
usemtl Material_009
f 516/257/5 514/343/5 593/318/5 
f 513/260/3 594/319/3 514/261/3 
usemtl Material_016
f 83/98/3 300/226/3 78/93/3 
f 78/93/3 300/226/3 46/60/3 
usemtl Material_026
f 386/178/4 595/414/4 385/167/4 
f 385/174/6 595/415/6 386/175/6 
f 389/174/6 596/415/6 388/175/6 
f 388/178/4 596/414/4 389/167/4 
f 212/174/6 597/415/6 224/175/6 
f 224/178/4 597/414/4 212/167/4 
f 248/178/4 598/414/4 226/167/4 
f 226/174/6 598/415/6 248/175/6 
usemtl Material_009
f 500/257/5 501/343/5 599/399/5 
f 500/260/3 600/319/3 501/261/3 
f 503/257/5 504/343/5 601/399/5 
f 503/260/3 602/319/3 504/261/3 
f 518/260/3 603/319/3 519/261/3 
f 521/257/5 519/343/5 604/399/5 
f 536/260/3 605/319/3 535/261/3 
f 533/257/5 535/343/5 606/318/5 
f 476/260/3 477/344/3 607/416/3 
f 476/257/5 607/287/5 477/342/5 
usemtl Material_016
f 92/103/3 413/297/3 204/185/3 
f 101/113/11 413/417/11 92/313/11 
usemtl Material_009
f 526/257/5 524/343/5 608/399/5 
f 523/260/3 609/319/3 524/261/3 
usemtl Material_096
f 471/418/96 509/358/96 474/352/96 
f 474/257/6 509/287/6 475/342/6 
usemtl Material_026
f 347/178/16 610/414/16 346/167/16 
f 346/174/18 610/415/18 347/175/18 
f 270/178/16 611/414/16 231/167/16 
f 231/174/18 611/415/18 270/175/18 
f 330/174/18 612/415/18 331/175/18 
f 331/178/16 612/414/16 330/167/16 
f 342/174/18 613/415/18 343/175/18 
f 343/178/16 613/414/16 342/167/16 
f 249/177/6 226/171/6 227/170/6 
f 227/168/4 249/179/4 248/178/4 
f 249/177/6 227/170/6 229/172/6 
f 227/168/4 226/167/4 249/179/4 
f 225/177/6 213/170/6 215/172/6 
f 213/168/4 225/179/4 224/178/4 
f 213/168/4 212/167/4 225/179/4 
f 225/177/6 212/171/6 213/170/6 
usemtl Material_016
f 322/239/20 109/122/20 27/42/20 
f 109/122/19 614/419/19 320/237/19 
f 361/420/3 360/421/3 22/37/3 
f 22/37/3 360/421/3 23/38/3 
usemtl Material_047
f 615/34/97 616/48/97 220/54/97 
f 220/30/98 616/48/98 617/31/98 
f 617/31/99 618/28/99 223/33/99 
f 223/27/100 618/28/100 615/34/100 
usemtl Material_020
f 85/127/3 311/422/3 115/129/3 
f 311/422/3 85/127/3 114/128/3 
usemtl Material_016
f 80/95/3 335/244/3 27/42/3 
f 336/245/3 335/244/3 80/95/3 
usemtl Material_009
f 476/257/5 478/343/5 619/399/5 
f 476/260/3 620/319/3 478/261/3 
usemtl Material_008
f 621/423/4 622/424/4 623/425/4 
f 622/426/6 621/427/6 624/428/6 
f 625/426/6 626/427/6 627/428/6 
f 626/423/4 625/424/4 628/425/4 
f 629/423/4 630/424/4 631/425/4 
f 630/426/6 629/427/6 632/428/6 
f 633/426/6 634/427/6 635/428/6 
f 634/423/4 633/424/4 636/425/4 
usemtl IOSHIELD
f 637/233/6 638/234/6 639/235/6 
f 639/235/6 640/236/6 637/233/6 
usemtl Material_095
f 433/333/101 558/389/101 437/334/101 
f 437/334/102 434/356/102 433/333/102 
f 434/356/79 437/334/79 436/336/79 
f 434/356/42 436/336/42 435/337/42 
usemtl Material_016
f 37/51/3 276/211/3 24/39/3 
f 276/211/3 37/51/3 36/50/3 
usemtl Material_009
f 500/257/5 641/287/5 502/258/5 
f 641/358/103 500/418/103 642/401/103 
f 643/358/103 503/418/103 644/401/103 
f 503/257/5 643/287/5 505/258/5 
usemtl Material_008
f 631/425/4 632/429/4 629/423/4 
f 632/428/6 631/430/6 630/426/6 
f 623/425/4 624/429/4 621/423/4 
f 624/428/6 623/430/6 622/426/6 
f 627/428/6 628/430/6 625/426/6 
f 628/425/4 627/429/4 626/423/4 
f 636/425/4 635/429/4 634/423/4 
f 635/428/6 636/430/6 633/426/6 
usemtl Material__27360
f 403/431/104 105/432/104 246/433/104 
f 55/69/4 106/118/4 246/196/4 
usemtl Material_096
f 507/336/105 506/356/105 472/28/105 
f 471/260/4 507/319/4 472/261/4 
usemtl Material_083
f 645/34/6 646/27/6 647/88/6 
f 648/54/4 647/31/4 646/33/4 
f 647/88/6 648/26/6 645/34/6 
f 646/33/4 645/34/4 648/54/4 
usemtl Material__27360
f 400/285/4 54/288/4 340/392/4 
f 56/434/106 400/435/106 340/436/106 
usemtl Material_083
f 649/34/6 650/27/6 651/88/6 
f 652/30/4 651/31/4 650/33/4 
usemtl Material_016
f 321/238/3 320/237/3 322/239/3 
f 27/42/107 320/237/107 321/238/107 
usemtl Material_047
f 217/30/3 216/29/3 617/31/3 
f 617/31/1 216/32/1 222/33/1 
f 222/27/5 218/35/5 615/34/5 
f 615/34/2 218/46/2 217/54/2 
usemtl Material_026
f 458/168/4 459/179/4 388/178/4 
f 459/177/6 389/171/6 458/170/6 
f 459/177/6 458/170/6 387/172/6 
f 458/168/4 389/167/4 459/179/4 
usemtl Material__27360
f 292/31/3 290/223/3 338/246/3 
f 338/246/5 290/223/5 292/31/5 
usemtl Material_094
f 356/260/4 358/262/4 493/416/4 
f 353/352/108 356/418/108 493/350/108 
usemtl Material_017
f 196/143/60 194/147/60 266/191/60 
f 195/148/2 194/147/2 196/143/2 
f 161/142/37 160/141/37 164/145/37 
f 138/143/64 136/147/64 306/191/64 
f 137/148/1 136/147/1 138/143/1 
f 131/148/3 130/147/3 132/143/3 
f 132/143/58 130/147/58 281/191/58 
f 181/143/60 185/147/60 243/191/60 
f 186/148/2 185/147/2 181/143/2 
f 125/142/39 124/141/39 128/145/39 
f 187/143/62 191/147/62 262/191/62 
f 192/148/5 191/147/5 187/143/5 
f 155/142/47 154/141/47 158/145/47 
f 149/150/39 148/141/39 152/145/39 
f 171/143/58 175/147/58 239/191/58 
f 176/148/3 175/147/3 171/143/3 
f 168/143/62 166/147/62 258/191/62 
f 167/148/5 166/147/5 168/143/5 
f 146/150/50 145/141/50 143/145/50 
usemtl Material_016
f 82/97/3 532/365/3 406/292/3 
f 406/292/3 532/365/3 112/125/3 
usemtl metal_mesh_500x500
f 547/350/6 546/234/6 653/235/6 
usemtl NVIDIA_LOGO
f 654/437/3 655/438/3 656/439/3 
usemtl Material_022
f 67/31/3 66/78/3 470/247/3 
f 470/54/86 66/85/86 74/84/86 
usemtl Material_016
f 45/59/3 52/66/3 541/367/3 
f 12/58/3 52/66/3 45/59/3 
usemtl Material__27360
f 41/48/4 349/255/4 44/57/4 
f 104/252/4 44/349/4 349/253/4 
usemtl NVIDIA_LOGO
f 656/439/3 657/440/3 654/437/3 
usemtl Material__27360
f 177/152/4 399/284/4 56/70/4 
f 56/434/109 399/441/109 400/435/109 
usemtl Material_017
f 497/345/48 242/363/48 184/146/48 
f 242/363/57 497/345/57 243/191/57 
usemtl Material_016
f 205/442/67 431/375/67 40/187/67 
f 235/111/3 431/110/3 205/187/3 
usemtl Material_094
f 356/260/4 463/319/4 357/261/4 
f 355/333/79 357/29/79 463/336/79 
usemtl Material_017
f 147/140/6 310/216/6 658/190/6 
f 658/406/63 310/216/63 538/191/63 
usemtl Material_016
f 45/59/3 541/367/3 113/126/3 
f 113/126/3 541/367/3 112/125/3 
f 545/373/110 544/372/110 394/279/110 
f 393/278/111 394/279/111 276/211/111 
usemtl Material_025
f 659/423/4 660/424/4 661/425/4 
f 660/426/6 659/427/6 662/428/6 
f 663/423/4 664/424/4 665/425/4 
f 664/426/6 663/427/6 666/428/6 
f 667/423/4 668/424/4 669/425/4 
f 668/426/6 667/427/6 670/428/6 
f 671/423/4 672/424/4 673/425/4 
f 672/426/6 671/427/6 674/428/6 
usemtl Material_083
f 650/33/4 649/34/4 652/30/4 
f 651/88/6 652/26/6 649/34/6 
usemtl Material_025
f 669/425/4 670/429/4 667/423/4 
f 670/428/6 669/430/6 668/426/6 
f 673/425/4 674/429/4 671/423/4 
f 674/428/6 673/430/6 672/426/6 
f 662/428/6 661/430/6 660/426/6 
f 661/425/4 662/429/4 659/423/4 
f 665/425/4 666/429/4 663/423/4 
f 666/428/6 665/430/6 664/426/6 
usemtl Material_095
f 435/418/96 559/358/96 432/352/96 
f 432/257/6 559/287/6 433/259/6 
usemtl Material_017
f 480/345/57 264/193/57 263/362/57 
f 264/193/48 480/345/48 479/149/48 
usemtl Material_026
f 384/172/6 511/170/6 510/359/6 
f 511/180/4 386/178/4 384/273/4 
f 512/177/6 511/170/6 384/172/6 
f 385/167/4 511/180/4 384/273/4 
usemtl Material_020
f 87/99/2 89/101/2 274/209/2 
f 93/156/2 274/209/2 89/101/2 
usemtl Material_094
f 353/257/6 494/443/6 354/258/6 
f 493/350/112 354/377/112 494/351/112 
usemtl Material_009
f 515/401/113 517/377/113 516/352/113 
f 515/401/114 514/28/114 517/377/114 
usemtl Material_017
f 283/193/115 540/364/115 284/216/115 
f 284/216/63 540/364/63 539/191/63 
usemtl Material_009
f 485/30/113 487/377/113 486/352/113 
f 485/30/114 484/435/114 487/377/114 
usemtl Material_016
f 103/340/3 560/391/3 38/52/3 
f 102/114/11 560/390/11 103/115/11 
usemtl Material_009
f 520/401/113 522/377/113 521/352/113 
f 520/401/114 519/28/114 522/377/114 
f 525/401/114 524/28/114 527/377/114 
f 525/401/113 527/377/113 526/352/113 
f 537/401/113 534/377/113 533/352/113 
f 537/401/114 535/28/114 534/377/114 
usemtl Material_017
f 296/216/59 529/364/59 528/191/59 
f 296/216/116 298/193/116 529/364/116 
usemtl Material_016
f 11/90/3 407/293/3 77/92/3 
f 77/92/3 407/293/3 79/94/3 
usemtl Material_017
f 237/189/38 498/193/38 172/149/38 
f 238/363/116 498/193/116 237/354/116 
f 142/149/4 269/189/4 675/193/4 
f 675/193/49 269/354/49 142/149/49 
f 676/193/49 256/354/49 169/149/49 
f 169/149/4 256/189/4 676/193/4 
usemtl Material_085
f 677/444/117 678/445/118 679/446/119 
f 680/447/120 679/446/119 678/445/118 
f 681/448/121 678/445/122 679/449/123 
f 682/450/124 679/449/123 678/445/122 
usemtl Material_017
f 162/143/58 159/140/58 528/191/58 
f 528/191/59 159/451/59 296/216/59 
usemtl Material_016
f 80/95/3 334/243/3 416/300/3 
f 334/243/3 80/95/3 406/292/3 
usemtl Material_017
f 530/191/57 153/451/57 293/216/57 
f 156/143/60 153/140/60 530/191/60 
usemtl Material_096
f 471/260/4 473/262/4 508/416/4 
f 509/358/125 471/418/125 508/350/125 
usemtl Material_085
f 683/452/126 681/448/121 680/453/127 
f 684/454/128 680/447/120 681/448/129 
f 678/445/118 681/448/129 680/447/120 
f 679/449/123 680/453/127 681/448/121 
usemtl Material_013
f 685/455/130 686/456/130 687/457/130 
f 687/334/131 686/456/131 685/455/131 
usemtl Material__27360
f 104/252/4 488/252/4 244/348/4 
f 20/36/4 244/194/4 488/347/4 
usemtl Material_085
f 688/452/132 689/458/133 690/459/134 
f 691/460/135 690/459/134 689/458/133 
f 691/460/136 689/458/137 690/461/138 
f 692/389/139 690/461/138 689/458/137 
usemtl Material__27360
f 285/217/4 398/283/4 177/152/4 
f 400/285/4 398/286/4 285/348/4 
usemtl Material_017
f 293/216/57 531/364/57 530/191/57 
f 293/216/140 295/193/140 531/364/140 
usemtl Material_016
f 100/112/3 38/52/3 39/53/3 
f 38/52/3 100/112/3 103/340/3 
usemtl Material__27360
f 41/48/10 33/48/10 42/31/10 
f 18/34/141 33/48/141 41/48/141 
usemtl Material_016
f 693/462/142 542/368/142 120/137/142 
f 693/462/143 120/137/143 542/368/143 
usemtl Material_085
f 694/458/144 683/452/126 684/389/145 
f 680/453/127 684/389/145 683/452/126 
f 681/448/146 683/452/147 684/454/148 
f 694/458/149 684/454/148 683/452/147 
usemtl Material_019
f 576/260/4 575/463/4 578/361/4 
f 574/352/150 576/418/150 578/401/150 
usemtl Material_085
f 695/453/151 688/452/132 692/464/152 
f 690/459/134 692/464/152 688/452/132 
f 695/453/153 692/389/139 688/452/154 
f 689/458/137 688/452/154 692/389/139 
usemtl Material__27360
f 107/200/6 277/341/6 110/123/6 
f 15/27/6 107/200/6 110/123/6 
f 107/119/8 111/184/8 110/212/8 
f 251/203/8 107/119/8 110/212/8 
usemtl Material_085
f 696/465/155 697/466/156 698/467/157 
f 699/468/158 698/467/157 697/466/156 
f 700/469/159 697/466/160 698/336/161 
f 701/470/162 698/336/161 697/466/160 
f 702/471/163 703/472/164 704/473/165 
f 705/474/166 704/473/167 703/475/168 
f 706/476/169 704/473/165 703/472/164 
f 706/476/170 703/475/168 704/473/167 
usemtl Material_016
f 302/102/92 91/102/92 90/91/92 
f 91/102/43 302/102/43 102/38/43 
usemtl Material_026
f 271/169/15 233/180/15 270/178/15 
f 233/180/16 271/169/16 231/167/16 
usemtl Material_085
f 707/333/171 708/446/172 709/477/173 
f 695/478/153 709/477/173 708/446/172 
f 710/479/174 708/446/175 709/480/176 
f 707/333/177 709/480/176 708/446/175 
usemtl Material_019
f 425/304/178 430/309/178 426/305/178 
f 429/308/179 426/305/179 430/309/179 
usemtl Material_016
f 412/296/3 413/297/3 235/111/3 
f 235/411/95 413/481/95 101/412/95 
usemtl Material_085
f 684/389/145 711/461/180 694/458/144 
f 712/482/181 694/458/144 711/461/180 
f 684/454/128 694/458/182 711/483/183 
f 713/484/184 711/483/183 694/458/182 
usemtl Material_020
f 115/129/3 88/485/3 85/127/3 
f 93/105/3 88/485/3 115/129/3 
usemtl Material_017
f 126/143/64 123/140/64 539/191/64 
f 539/191/63 123/451/63 284/216/63 
f 141/143/62 144/140/62 495/191/62 
f 495/191/54 144/451/54 267/206/54 
f 150/143/64 147/140/64 538/191/64 
f 538/191/63 147/451/63 658/406/63 
usemtl Material_016
f 210/165/3 416/300/3 211/166/3 
f 334/243/3 211/166/3 416/300/3 
usemtl Material_017
f 129/146/6 543/216/6 280/190/6 
f 279/354/116 280/363/116 543/216/116 
usemtl Material_085
f 692/464/185 710/479/186 695/453/187 
f 708/446/188 710/479/189 695/478/190 
f 692/464/191 695/478/190 710/479/189 
f 709/480/192 695/453/187 710/479/186 
f 714/486/193 715/487/194 716/488/195 
f 717/489/196 715/487/197 716/490/198 
f 717/491/199 716/488/195 715/487/194 
f 718/492/200 716/490/198 715/487/197 
usemtl Material_095
f 559/358/125 435/418/125 558/389/125 
f 435/260/4 437/262/4 558/493/4 
usemtl Material_017
f 135/146/201 139/144/201 460/142/201 
f 135/146/40 460/142/40 551/216/40 
usemtl Material_085
f 703/472/168 706/494/170 719/495/202 
f 703/472/203 719/495/204 706/476/205 
f 677/444/206 706/476/205 719/495/204 
f 677/444/207 719/495/202 706/494/170 
f 720/496/208 699/468/209 700/469/159 
f 697/466/160 700/469/159 699/468/209 
f 698/467/210 699/468/211 700/497/212 
f 721/498/213 700/497/212 699/468/211 
usemtl Material__27360
f 42/31/52 34/28/52 17/28/52 
f 18/34/214 17/28/214 34/28/214 
usemtl Material_019
f 446/307/215 448/326/215 562/499/215 
f 448/326/216 444/323/216 562/393/216 
usemtl Material_016
f 109/122/217 322/239/217 614/419/217 
f 614/419/218 322/239/218 722/237/218 
f 22/37/3 359/263/3 361/420/3 
f 560/391/3 361/420/3 359/263/3 
f 723/500/219 48/62/219 71/81/219 
f 48/62/220 723/500/220 121/138/220 
usemtl Material_017
f 135/146/6 551/216/6 305/190/6 
f 304/354/115 305/363/115 551/216/115 
usemtl Material_085
f 690/459/221 691/460/222 724/501/223 
f 725/502/224 724/501/223 691/460/222 
f 725/235/225 691/460/136 724/482/226 
f 690/461/138 724/482/226 691/460/136 
f 726/503/227 727/488/228 728/487/229 
f 701/470/230 728/487/229 727/488/228 
f 726/503/231 728/487/232 727/504/233 
f 701/505/234 727/504/233 728/487/232 
f 702/471/235 718/492/236 714/486/237 
f 705/474/238 714/506/239 718/492/240 
f 716/490/241 718/492/240 714/506/239 
f 715/487/242 714/486/237 718/492/236 
f 706/476/243 677/444/244 682/507/245 
f 679/446/246 682/507/245 677/444/244 
f 706/494/170 682/450/124 677/444/207 
f 678/445/122 677/444/207 682/450/124 
usemtl Material_047
f 217/54/2 616/48/2 615/34/2 
f 617/31/3 616/48/3 217/30/3 
f 222/33/1 618/28/1 617/31/1 
f 615/34/5 618/28/5 222/27/5 
usemtl Material_009
f 500/260/3 502/262/3 642/361/3 
f 642/401/247 502/334/247 641/358/247 
f 644/401/247 505/334/247 643/358/247 
f 503/260/3 505/262/3 644/361/3 
usemtl Material_016
f 121/138/3 71/81/3 542/368/3 
f 71/81/3 121/138/3 723/500/3 
usemtl Material_064
f 729/508/3 730/509/3 731/510/3 
usemtl Material_096
f 475/357/41 473/334/41 472/28/41 
f 475/357/101 508/350/101 473/334/101 
usemtl Material__27360
f 449/327/6 29/45/6 252/202/6 
f 449/328/8 29/43/8 28/26/8 
f 252/295/8 29/43/8 449/328/8 
f 28/26/6 29/45/6 449/327/6 
usemtl Material_017
f 543/216/116 457/193/116 279/354/116 
f 133/144/4 279/189/4 457/193/4 
f 139/144/4 304/189/4 461/193/4 
f 551/216/115 461/193/115 304/354/115 
usemtl Material_016
f 390/274/3 119/136/3 12/58/3 
f 119/136/3 390/274/3 47/61/3 
usemtl Material_085
f 720/496/248 732/511/249 707/333/250 
f 709/480/192 707/333/250 732/511/249 
f 709/477/173 732/512/251 707/333/171 
f 721/498/252 707/333/171 732/512/251 
usemtl Material_016
f 722/237/218 320/237/218 614/419/218 
usemtl Material_104
f 733/513/253 734/514/254 735/515/255 
f 736/516/256 735/515/257 734/514/258 
f 733/513/259 735/517/260 734/514/261 
f 735/236/262 736/518/263 734/519/3 
usemtl Material_085
f 728/487/264 701/470/265 696/465/266 
f 697/466/267 696/465/266 701/470/265 
f 728/487/232 696/465/268 701/505/234 
f 698/467/269 701/505/234 696/465/268 
usemtl Material_017
f 260/193/270 556/364/270 482/345/270 
f 261/406/270 482/345/270 556/364/270 
usemtl Material_016
f 25/40/3 336/245/3 80/95/3 
f 336/245/3 25/40/3 27/42/3 
usemtl Material_009
f 600/336/271 599/335/271 501/28/271 
f 599/335/272 600/336/272 500/337/272 
f 602/336/271 601/335/271 504/28/271 
f 601/335/272 602/336/272 503/337/272 
f 604/335/272 603/336/272 518/337/272 
f 603/336/271 604/335/271 519/28/271 
usemtl Material_096
f 474/257/6 472/343/6 506/318/6 
f 471/337/73 474/353/73 506/356/73 
usemtl Material_016
f 412/296/3 234/186/3 414/298/3 
f 414/298/3 234/186/3 205/187/3 
usemtl Material_085
f 718/492/273 702/471/163 705/474/274 
f 714/486/237 705/466/275 702/471/235 
f 703/472/203 702/471/235 705/466/275 
f 704/473/165 705/474/274 702/471/163 
usemtl Material__27360
f 246/433/276 106/520/276 403/431/276 
f 403/254/4 106/342/4 404/287/4 
usemtl Material_016
f 588/407/94 209/164/94 26/41/93 
f 209/164/277 588/407/277 210/165/277 
usemtl Material_009
f 518/337/278 521/353/278 604/335/278 
f 521/352/103 518/418/103 520/401/103 
f 483/337/278 486/353/278 586/356/278 
f 486/352/103 483/418/103 485/30/103 
usemtl Material__27360
f 404/358/279 106/520/279 328/521/279 
f 328/521/280 53/522/280 404/358/280 
usemtl Material_009
f 516/352/103 513/418/103 515/401/103 
f 513/337/278 516/353/278 593/356/278 
f 536/337/278 533/353/278 606/356/278 
f 533/352/103 536/418/103 537/401/103 
f 523/337/278 526/353/278 608/335/278 
f 526/352/103 523/418/103 525/401/103 
usemtl Material_017
f 479/149/48 197/151/48 264/193/48 
f 479/149/281 193/146/281 197/151/281 
usemtl Material_009
f 585/336/271 586/356/271 484/435/271 
f 586/356/272 585/336/272 483/337/272 
f 605/336/271 606/356/271 535/28/271 
f 606/356/272 605/336/272 536/337/272 
f 593/356/272 594/336/272 513/337/272 
f 594/336/271 593/356/271 514/28/271 
usemtl Material_019
f 447/325/282 445/324/282 444/323/282 
f 443/304/90 445/324/90 447/325/90 
usemtl Material__27360
f 104/523/283 561/524/283 245/525/283 
f 55/526/284 245/525/284 561/524/284 
usemtl Material_017
f 496/149/48 182/151/48 241/193/48 
f 184/146/281 182/151/281 496/149/281 
f 190/146/285 188/151/285 481/149/285 
f 481/149/49 188/151/49 260/193/49 
usemtl Material_019
f 567/352/286 579/418/286 569/401/286 
f 579/260/4 566/463/4 569/361/4 
usemtl Material_016
f 210/165/3 588/407/3 587/41/3 
f 26/41/287 210/165/287 587/41/287 
f 394/279/110 393/278/110 545/373/110 
f 40/187/3 545/373/3 393/278/3 
usemtl Material_047
f 223/33/99 221/32/99 617/31/99 
f 617/31/98 221/29/98 220/30/98 
f 220/54/97 219/46/97 615/34/97 
f 615/34/100 219/35/100 223/27/100 
usemtl Material_016
f 464/339/3 557/387/3 101/409/3 
f 100/112/3 557/387/3 464/339/3 
usemtl Material_085
f 694/458/149 712/482/288 713/484/289 
f 737/527/290 713/484/289 712/482/288 
f 711/483/291 713/484/292 712/528/293 
f 737/234/294 712/528/293 713/484/292 
usemtl Material_016
f 23/38/43 102/38/43 302/102/43 
f 23/529/295 360/530/295 102/531/295 
usemtl Material_009
f 620/336/271 619/335/271 478/28/271 
f 619/335/272 620/336/272 476/337/272 
f 609/336/271 608/335/271 524/28/271 
f 608/335/272 609/336/272 523/337/272 
usemtl Material_085
f 700/469/159 721/494/296 720/496/208 
f 732/511/297 720/496/208 721/494/296 
f 699/468/211 720/496/298 721/498/213 
f 707/333/177 721/498/213 720/496/298 
usemtl Material_017
f 129/146/38 456/142/38 543/216/38 
f 133/144/299 456/142/299 129/146/299 
# 1144 faces

