# 3ds Max Wavefront OBJ Exporter v0.99 - (c)2007 guruware
# File Created: 09.05.2025 23:09:34

mtllib ProfesorLeftLeg.mtl

#
# object ProfesorLeftLeg
#

v  -0.1103 -0.0405 -0.1374
v  -0.1096 -0.0644 -0.1355
v  -0.1725 -0.0646 -0.1416
v  -0.1730 -0.0406 -0.1441
v  -0.1001 -0.3572 -0.0968
v  -0.1005 -0.3217 -0.1014
v  -0.0584 -0.3208 -0.0715
v  -0.2495 -0.1440 -0.0171
v  -0.2274 -0.1449 -0.0808
v  -0.2147 -0.2162 -0.0737
v  -0.2400 -0.2163 -0.0148
v  -0.2470 -0.0390 -0.0976
v  -0.2180 -0.1430 0.0447
v  -0.1456 -0.3222 0.0690
v  -0.1978 -0.3232 0.0384
v  -0.1893 -0.3585 0.0389
v  -0.1388 -0.3576 0.0631
v  -0.0439 -0.2822 0.0243
v  -0.0398 -0.2128 0.0256
v  -0.0884 -0.2136 0.0672
v  -0.0872 -0.2829 0.0638
v  -0.0558 -0.2826 -0.0801
v  -0.0506 -0.2133 -0.0934
v  -0.0237 -0.2126 -0.0356
v  -0.0292 -0.2821 -0.0307
v  -0.0312 -0.3202 -0.0251
v  -0.0330 -0.3560 -0.0263
v  -0.0598 -0.3565 -0.0678
v  -0.0871 -0.3213 0.0577
v  -0.0842 -0.3566 0.0621
v  -0.0463 -0.3206 0.0264
v  -0.1032 -0.2835 -0.1110
v  -0.1571 -0.3230 -0.1035
v  -0.1611 -0.2845 -0.1088
v  -0.2040 -0.2853 -0.0681
v  -0.1954 -0.3234 -0.0675
v  -0.2222 -0.3236 -0.0147
v  -0.2287 -0.2855 -0.0135
v  -0.0074 -0.0353 -0.0343
v  -0.0281 -0.0350 -0.1061
v  -0.0175 -0.0048 -0.1071
v  -0.2547 -0.0063 -0.1036
v  -0.2412 -0.0720 -0.0925
v  -0.2599 -0.0399 -0.0231
v  -0.1724 -0.0893 -0.1383
v  -0.0935 -0.0038 0.0733
v  -0.0358 -0.0357 0.0285
v  -0.0347 -0.0031 0.0298
v  -0.1652 -0.0713 0.0820
v  -0.0927 -0.0367 0.0731
v  -0.1669 -0.0382 0.0829
v  -0.2567 -0.0726 -0.0202
v  -0.2296 -0.0396 0.0437
v  -0.2261 -0.0729 0.0456
v  -0.0362 -0.0013 -0.1306
v  -0.1109 -0.0274 -0.1396
v  -0.1510 -0.3581 -0.0961
v  -0.1918 -0.3587 -0.0618
v  -0.0390 -0.1399 0.0248
v  -0.0198 -0.1400 -0.0396
v  -0.0113 -0.0682 -0.0369
v  -0.0369 -0.0684 0.0270
v  -0.1524 -0.2145 0.0748
v  -0.2083 -0.2154 0.0427
v  -0.2001 -0.2849 0.0418
v  -0.1467 -0.2839 0.0711
v  -0.1716 -0.1431 -0.1277
v  -0.1073 -0.1419 -0.1303
v  -0.1071 -0.2144 -0.1222
v  -0.1690 -0.2151 -0.1151
v  -0.0475 -0.1410 -0.1058
v  -0.0383 -0.0689 -0.1084
v  -0.1086 -0.0878 -0.1346
v  -0.0923 -0.0697 0.0723
v  -0.0907 -0.1413 0.0695
v  -0.1590 -0.1418 0.0793
v  -0.1734 -0.0277 -0.1464
v  -0.0465 -0.3561 0.0234
v  -0.0026 -0.0026 -0.0315
v  -0.2182 -0.3590 -0.0126
v  -0.2477 -0.0024 -0.1277
# 81 vertices

vn 0.1017 -0.1181 -0.9878
vn 0.0806 -0.0667 -0.9945
vn -0.2378 -0.1244 -0.9633
vn -0.1856 -0.1799 -0.9660
vn 0.5808 -0.1007 -0.8078
vn 0.5644 -0.1460 -0.8125
vn 0.7358 -0.1356 -0.6635
vn -0.9902 -0.1270 0.0586
vn -0.8158 -0.1920 -0.5455
vn -0.8045 -0.1736 -0.5680
vn -0.9877 -0.1485 0.0482
vn -0.8194 -0.2398 -0.5207
vn -0.7209 -0.1002 0.6858
vn -0.1729 -0.1271 0.9767
vn -0.7320 -0.1291 0.6690
vn -0.6728 -0.1530 0.7238
vn -0.1753 -0.0866 0.9807
vn 0.8529 -0.0361 0.5208
vn 0.8471 -0.0314 0.5306
vn 0.4055 -0.0296 0.9136
vn 0.4145 -0.0682 0.9075
vn 0.7344 -0.1753 -0.6557
vn 0.7259 -0.1459 -0.6721
vn 0.9930 -0.0744 -0.0916
vn 0.9878 -0.0867 -0.1293
vn 0.9927 -0.0574 -0.1061
vn 0.9877 -0.0169 -0.1554
vn 0.7158 -0.0682 -0.6950
vn 0.3878 -0.0263 0.9214
vn 0.3814 0.0189 0.9242
vn 0.8375 -0.0273 0.5458
vn 0.5189 -0.1648 -0.8388
vn -0.0100 -0.1828 -0.9831
vn 0.0251 -0.1982 -0.9798
vn -0.3549 -0.2179 -0.9092
vn -0.3860 -0.1548 -0.9094
vn -0.7992 -0.1704 -0.5764
vn -0.7740 -0.1897 -0.6041
vn -0.9879 -0.1528 -0.0271
vn -0.9872 -0.1559 0.0321
vn 0.9858 -0.1470 0.0807
vn 0.7098 -0.2120 -0.6717
vn 0.7726 -0.4382 -0.4595
vn -0.8800 -0.3520 -0.3189
vn -0.8193 -0.2203 -0.5293
vn -0.9899 -0.0777 0.1188
vn -0.2750 -0.1643 -0.9473
vn 0.3731 0.0028 0.9278
vn 0.7758 -0.0578 0.6284
vn 0.7452 -0.0623 0.6639
vn -0.2031 -0.0460 0.9781
vn 0.3921 -0.0110 0.9199
vn -0.2074 -0.0262 0.9779
vn -0.9891 -0.1077 0.1003
vn -0.7550 -0.0245 0.6552
vn -0.7373 -0.0654 0.6724
vn 0.5116 -0.6716 -0.5359
vn 0.3080 -0.1599 -0.9378
vn 0.2371 -0.4371 -0.8676
vn -0.3289 -0.2007 -0.9228
vn -0.0120 -0.1432 -0.9896
vn -0.7709 -0.1477 -0.6195
vn 0.8365 -0.0382 0.5467
vn 0.9934 -0.0967 -0.0622
vn 0.9927 -0.1201 0.0104
vn 0.8007 -0.0489 0.5970
vn -0.1927 -0.0671 0.9790
vn -0.7106 -0.1082 0.6952
vn -0.7103 -0.0970 0.6972
vn -0.1827 -0.0633 0.9811
vn -0.3514 -0.1579 -0.9228
vn -0.0383 -0.0956 -0.9947
vn -0.0778 -0.1377 -0.9874
vn -0.4118 -0.1595 -0.8972
vn 0.6927 -0.1187 -0.7114
vn 0.6811 -0.1231 -0.7218
vn 0.3650 -0.0506 -0.9296
vn 0.3797 -0.0824 -0.9214
vn 0.3975 -0.0217 0.9174
vn 0.4351 -0.1290 -0.8911
vn 0.4082 -0.0270 0.9125
vn -0.1909 -0.0660 0.9794
vn 0.3562 -0.0412 -0.9335
vn 0.0317 -0.0840 -0.9960
vn -0.0965 -0.3995 -0.9116
vn 0.0974 -0.4686 -0.8780
vn 0.8640 0.0080 0.5035
vn 0.9642 -0.2078 0.1645
vn -0.9909 -0.1346 0.0032
vn -0.7133 -0.6695 -0.2073
# 90 vertex normals

vt 0.5042 0.5115 0.0000
vt 0.5119 0.5041 0.0000
vt 0.5367 0.5340 0.0000
vt 0.5225 0.5477 0.0000
vt 0.9541 0.3439 0.0000
vt 0.9541 0.3652 0.0000
vt 0.9116 0.3685 0.0000
vt 0.6484 0.5012 0.0000
vt 0.6064 0.4964 0.0000
vt 0.6138 0.4469 0.0000
vt 0.6542 0.4511 0.0000
vt 0.5794 0.5732 0.0000
vt 0.6938 0.5001 0.0000
vt 0.7399 0.3717 0.0000
vt 0.6976 0.3763 0.0000
vt 0.7001 0.3524 0.0000
vt 0.7399 0.3476 0.0000
vt 0.8286 0.3980 0.0000
vt 0.8299 0.4454 0.0000
vt 0.7855 0.4455 0.0000
vt 0.7852 0.3985 0.0000
vt 0.9123 0.3937 0.0000
vt 0.9152 0.4411 0.0000
vt 0.8729 0.4445 0.0000
vt 0.8709 0.3968 0.0000
vt 0.8689 0.3708 0.0000
vt 0.8708 0.3470 0.0000
vt 0.9124 0.3457 0.0000
vt 0.7857 0.3719 0.0000
vt 0.7849 0.3482 0.0000
vt 0.8267 0.3716 0.0000
vt 0.9541 0.3888 0.0000
vt 0.5393 0.3871 0.0000
vt 0.5395 0.3635 0.0000
vt 0.5786 0.3704 0.0000
vt 0.5780 0.3946 0.0000
vt 0.6170 0.4002 0.0000
vt 0.6153 0.3744 0.0000
vt 0.6564 0.3775 0.0000
vt 0.6569 0.4037 0.0000
vt 0.8779 0.5729 0.0000
vt 0.9263 0.5707 0.0000
vt 0.9273 0.5979 0.0000
vt 0.5613 0.6008 0.0000
vt 0.5914 0.5474 0.0000
vt 0.6319 0.5768 0.0000
vt 0.5474 0.5184 0.0000
vt 0.7862 0.5932 0.0000
vt 0.8335 0.5711 0.0000
vt 0.8329 0.5960 0.0000
vt 0.7399 0.5423 0.0000
vt 0.7867 0.5687 0.0000
vt 0.7399 0.5657 0.0000
vt 0.6397 0.5513 0.0000
vt 0.6849 0.5736 0.0000
vt 0.6893 0.5488 0.0000
vt 0.9475 0.6007 0.0000
vt 0.9802 0.5553 0.0000
vt 0.9827 0.5627 0.0000
vt 0.5779 0.3479 0.0000
vt 0.5397 0.3422 0.0000
vt 0.6170 0.3516 0.0000
vt 0.8322 0.4957 0.0000
vt 0.8768 0.4953 0.0000
vt 0.8780 0.5466 0.0000
vt 0.8333 0.5459 0.0000
vt 0.7399 0.4452 0.0000
vt 0.6973 0.4498 0.0000
vt 0.6991 0.4023 0.0000
vt 0.7399 0.3979 0.0000
vt 0.5636 0.4854 0.0000
vt 0.5283 0.4690 0.0000
vt 0.5390 0.4290 0.0000
vt 0.5760 0.4395 0.0000
vt 0.9238 0.4911 0.0000
vt 0.9274 0.5425 0.0000
vt 0.9727 0.5212 0.0000
vt 0.9651 0.4828 0.0000
vt 0.7866 0.5443 0.0000
vt 0.9590 0.4327 0.0000
vt 0.7862 0.4949 0.0000
vt 0.7399 0.4947 0.0000
vt 0.9761 0.5387 0.0000
vt 0.5188 0.4915 0.0000
vt 0.5105 0.5534 0.0000
vt 0.5009 0.5138 0.0000
vt 0.8282 0.3478 0.0000
vt 0.8772 0.5991 0.0000
vt 0.6574 0.3540 0.0000
vt 0.5279 0.6043 0.0000
# 90 texture coords

o ProfesorLeftLeg
g ProfesorLeftLeg
usemtl mat_8_Doctor_Pants_D_jpg
s 1
f 1/1/1 2/2/2 3/3/3 
f 1/1/1 3/3/3 4/4/4 
f 5/5/5 6/6/6 7/7/7 
f 8/8/8 9/9/9 10/10/10 
f 8/8/8 10/10/10 11/11/11 
f 4/4/4 3/3/3 12/12/12 
f 13/13/13 8/8/8 11/11/11 
f 14/14/14 15/15/15 16/16/16 
f 14/14/14 16/16/16 17/17/17 
f 18/18/18 19/19/19 20/20/20 
f 18/18/18 20/20/20 21/21/21 
f 22/22/22 23/23/23 24/24/24 
f 22/22/22 24/24/24 25/25/25 
f 7/7/7 26/26/26 27/27/27 
f 7/7/7 27/27/27 28/28/28 
f 29/29/29 14/14/14 17/17/17 
f 29/29/29 17/17/17 30/30/30 
f 18/18/18 31/31/31 26/26/26 
f 18/18/18 26/26/26 25/25/25 
f 22/22/22 7/7/7 6/6/6 
f 22/22/22 6/6/6 32/32/32 
f 21/21/21 29/29/29 31/31/31 
f 21/21/21 31/31/31 18/18/18 
f 32/33/33 6/34/34 33/35/35 
f 32/33/33 33/35/35 34/36/36 
f 35/37/37 36/38/38 37/39/39 
f 35/37/37 37/39/39 38/40/40 
f 39/41/41 40/42/42 41/43/43 
f 25/25/25 26/26/26 7/7/7 
f 25/25/25 7/7/7 22/22/22 
f 4/4/4 12/12/12 42/44/44 
f 43/45/45 44/46/46 12/12/12 
f 43/45/45 12/12/12 3/3/3 
f 43/45/45 3/3/3 45/47/47 
f 46/48/48 47/49/49 48/50/50 
f 49/51/51 50/52/52 51/53/53 
f 43/45/45 52/54/54 44/46/46 
f 52/54/54 53/55/55 44/46/46 
f 54/56/56 49/51/51 51/53/53 
f 54/56/56 51/53/53 53/55/55 
f 9/9/9 8/8/8 52/54/54 
f 9/9/9 52/54/54 43/45/45 
f 8/8/8 13/13/13 54/56/56 
f 8/8/8 54/56/56 52/54/54 
f 46/48/48 50/52/52 47/49/49 
f 55/57/57 41/43/43 1/58/58 
f 55/57/57 1/58/58 56/59/59 
f 57/60/60 33/35/35 6/34/34 
f 57/60/60 6/34/34 5/61/61 
f 36/38/38 33/35/35 57/60/60 
f 36/38/38 57/60/60 58/62/62 
f 59/63/63 60/64/64 61/65/65 
f 59/63/63 61/65/65 62/66/66 
f 63/67/67 64/68/68 65/69/69 
f 63/67/67 65/69/69 66/70/70 
f 67/71/71 68/72/72 69/73/73 
f 67/71/71 69/73/73 70/74/74 
f 60/64/64 71/75/75 72/76/76 
f 60/64/64 72/76/76 61/65/65 
f 23/23/23 71/75/75 60/64/64 
f 23/23/23 60/64/64 24/24/24 
f 73/77/77 71/75/75 68/78/78 
f 20/20/20 63/67/67 66/70/70 
f 20/20/20 66/70/70 21/21/21 
f 62/66/66 47/49/49 50/52/52 
f 62/66/66 50/52/52 74/79/79 
f 24/24/24 60/64/64 59/63/63 
f 24/24/24 59/63/63 19/19/19 
f 73/77/77 72/76/76 71/75/75 
f 62/66/66 61/65/65 39/41/41 
f 62/66/66 39/41/41 47/49/49 
f 69/80/80 68/78/78 71/75/75 
f 69/80/80 71/75/75 23/23/23 
f 75/81/81 59/63/63 62/66/66 
f 75/81/81 62/66/66 74/79/79 
f 32/32/32 69/80/80 23/23/23 
f 32/32/32 23/23/23 22/22/22 
f 76/82/82 64/68/68 63/67/67 
f 76/82/82 74/79/79 49/51/51 
f 64/68/68 11/11/11 38/40/40 
f 64/68/68 38/40/40 65/69/69 
f 1/58/58 41/43/43 40/42/42 
f 1/58/58 40/42/42 2/83/83 
f 45/47/47 3/3/3 2/2/2 
f 45/47/47 2/2/2 73/84/84 
f 67/71/71 45/47/47 73/84/84 
f 67/71/71 73/84/84 68/72/72 
f 38/40/40 37/39/39 15/15/15 
f 38/40/40 15/15/15 65/69/69 
f 21/21/21 66/70/70 14/14/14 
f 21/21/21 14/14/14 29/29/29 
f 65/69/69 15/15/15 14/14/14 
f 65/69/69 14/14/14 66/70/70 
f 34/36/36 33/35/35 36/38/38 
f 34/36/36 36/38/38 35/37/37 
f 4/4/4 77/85/85 56/86/86 
f 4/4/4 56/86/86 1/1/1 
f 31/31/31 29/29/29 30/30/30 
f 31/31/31 30/30/30 78/87/87 
f 38/40/40 11/11/11 10/10/10 
f 38/40/40 10/10/10 35/37/37 
f 47/49/49 39/41/41 79/88/88 
f 9/9/9 67/71/71 70/74/74 
f 9/9/9 70/74/74 10/10/10 
f 61/65/65 72/76/76 40/42/42 
f 61/65/65 40/42/42 39/41/41 
f 13/13/13 11/11/11 64/68/68 
f 2/83/83 40/42/42 72/76/76 
f 2/83/83 72/76/76 73/77/77 
f 75/81/81 76/82/82 63/67/67 
f 75/81/81 63/67/67 20/20/20 
f 76/82/82 13/13/13 64/68/68 
f 26/26/26 78/87/87 27/27/27 
f 76/82/82 75/81/81 74/79/79 
f 19/19/19 59/63/63 75/81/81 
f 19/19/19 75/81/81 20/20/20 
f 13/13/13 76/82/82 49/51/51 
f 13/13/13 49/51/51 54/56/56 
f 25/25/25 24/24/24 19/19/19 
f 25/25/25 19/19/19 18/18/18 
f 15/15/15 37/39/39 80/89/89 
f 15/15/15 80/89/89 16/16/16 
f 37/39/39 36/38/38 58/62/62 
f 37/39/39 58/62/62 80/89/89 
f 35/37/37 10/10/10 70/74/74 
f 35/37/37 70/74/74 34/36/36 
f 39/41/41 41/43/43 79/88/88 
f 47/49/49 79/88/88 48/50/50 
f 26/26/26 31/31/31 78/87/87 
f 5/5/5 7/7/7 28/28/28 
f 34/36/36 70/74/74 69/73/73 
f 34/36/36 69/73/73 32/33/33 
f 9/9/9 43/45/45 45/47/47 
f 9/9/9 45/47/47 67/71/71 
f 52/54/54 54/56/56 53/55/55 
f 49/51/51 74/79/79 50/52/52 
f 51/53/53 50/52/52 46/48/48 
f 81/90/90 77/85/85 4/4/4 
f 81/90/90 4/4/4 42/44/44 
# 0 polygons - 139 triangles

