# 3ds Max Wavefront OBJ Exporter v0.99 - (c)2007 guruware
# File Created: 16.04.2025 20:09:50

mtllib ProfesorLeftArm.mtl

#
# object ProfesorLeftArm
#

v  -2.8448 -6.9404 5.9093
v  -0.5634 -7.8826 4.6727
v  -0.5873 -6.5359 5.6883
v  -3.4441 -5.8766 7.4359
v  -0.6738 -4.3729 5.9973
v  -2.5788 -3.8789 7.0292
v  -2.2844 4.0042 -1.8559
v  -0.8134 3.4940 -1.6954
v  -1.0255 2.8603 -2.8339
v  -2.4006 3.3660 -3.0476
v  -1.3044 1.7148 -4.1585
v  -2.4890 2.2927 -4.4615
v  -1.6221 -0.0071 -5.2835
v  -2.7436 0.5695 -5.6033
v  -1.8668 -8.9103 -2.1487
v  -1.6598 -9.2374 -0.5980
v  -2.9295 -8.0735 -0.5726
v  -1.3782 -9.2397 0.9541
v  -2.7326 -8.0290 1.1207
v  -3.2351 -2.1225 -6.0702
v  -2.1210 -2.6302 -5.6957
v  -2.1691 4.0447 0.7381
v  -2.4671 3.2510 2.1829
v  -1.1115 2.8708 2.1281
v  -0.6661 3.5482 0.7781
v  -0.6364 3.7623 -0.5116
v  -2.1545 4.2826 -0.6202
v  -1.0574 -9.0363 2.3773
v  -2.5841 -7.8325 2.7735
v  -0.7596 -8.6236 3.6157
v  -2.5941 -7.4735 4.3623
v  -2.6170 -1.7474 6.2844
v  -1.3730 -1.9158 5.6836
v  -2.0109 0.1456 4.8274
v  -1.7614 1.7657 3.5193
v  0.8973 -4.3924 5.8558
v  2.6958 -7.5083 5.2032
v  3.8059 -6.6352 5.0436
v  1.7387 -3.9150 5.5859
v  2.6274 -9.2471 4.2356
v  5.7494 -9.9636 4.3361
v  6.5644 -9.0046 4.2452
v  5.1385 -11.0759 4.0029
v  1.1698 1.1986 2.6355
v  1.3873 0.5058 3.0631
v  1.8097 0.6138 2.0976
v  1.3522 1.4104 1.8715
v  0.7317 1.3530 2.8806
v  0.7663 0.4071 3.7359
v  0.9381 1.9127 1.8923
v  1.9845 -0.3897 -2.6702
v  2.1024 0.2475 -1.4232
v  2.8209 -0.4874 -1.2883
v  2.7715 -0.9872 -2.3499
v  1.3110 0.4581 -2.5770
v  1.4722 1.0344 -1.4677
v  2.9663 -1.9818 -3.1035
v  2.2678 -1.7219 -3.4872
v  1.6325 -1.6777 -3.9690
v  1.5076 -0.5392 -3.4309
v  1.0519 -1.5297 -4.3072
v  1.0732 -0.1601 -3.5400
v  3.5108 -2.2544 -2.8319
v  3.5915 -1.9132 -2.1819
v  4.6663 -3.2191 -2.2587
v  4.2663 -3.3453 -3.0426
v  3.7040 -3.3891 -3.5523
v  0.2673 -9.4436 -4.8015
v  0.0683 -10.5072 -3.4661
v  -1.9762 -8.2872 -3.5901
v  -1.9614 -7.2525 -4.8832
v  2.7180 -12.6455 -4.3990
v  2.2644 -13.2752 -3.3245
v  -0.6355 -6.3202 -5.3876
v  0.7387 -6.4563 -5.3685
v  1.8970 -9.3626 -5.2325
v  3.7399 -11.9508 -4.9798
v  -2.1630 -5.2632 -5.5885
v  10.0899 -9.5178 1.5439
v  10.4115 -9.5731 0.5547
v  9.4726 -8.6158 0.6657
v  9.4202 -8.7030 1.3480
v  -0.2393 2.3376 -2.7158
v  -0.5384 1.1842 -3.9729
v  -0.7623 -0.6043 -5.0533
v  -0.9610 -3.3278 -5.4717
v  0.0190 0.6949 -3.8346
v  -0.0850 -1.0497 -4.8330
v  0.0540 -3.6506 -5.3225
v  0.4872 -1.3166 -4.5956
v  0.9199 -3.7033 -5.0735
v  1.8051 -6.3086 -5.2743
v  3.1019 -8.9065 -5.2588
v  1.6284 -3.6435 -4.8043
v  2.7146 -6.0070 -5.0158
v  4.0905 -8.3578 -5.0802
v  5.6458 -10.4162 -4.9436
v  4.7413 -11.1906 -5.1051
v  3.5242 -5.6867 -4.6599
v  4.9501 -7.8217 -4.7355
v  6.4616 -9.7327 -4.6205
v  7.9125 -11.3777 -4.4488
v  7.1494 -12.1692 -4.7822
v  5.6915 -7.3658 -4.2828
v  7.1334 -9.1146 -4.1333
v  8.5335 -10.6231 -3.9248
v  6.3305 -7.0371 -3.7230
v  7.6683 -8.6292 -3.5616
v  8.9273 -9.9220 -3.3049
v  6.8698 -6.8687 -3.0410
v  8.0869 -8.3432 -2.9591
v  8.9377 -9.3346 -2.8834
v  7.3777 -6.8977 -2.2037
v  8.5997 -8.3897 -2.2173
v  9.5661 -9.6313 -2.3259
v  7.8339 -7.0563 -1.2045
v  9.0746 -8.4915 -1.2875
v  10.1208 -9.6775 -1.4181
v  8.2078 -7.2870 -0.0997
v  9.3800 -8.5553 -0.2723
v  10.4026 -9.6197 -0.4207
v  5.4816 -13.8362 -4.7413
v  6.3283 -13.0117 -4.9047
v  4.6905 -14.5818 -4.1871
v  4.1580 -15.2115 -3.2280
v  3.9703 -15.5720 -1.9635
v  2.1993 -13.5063 -1.9834
v  4.1693 -15.5725 -0.4721
v  2.4017 -13.7736 -0.4612
v  0.3457 -11.3252 -0.5051
v  0.1090 -11.0359 -2.0314
v  0.1714 3.1167 0.7944
v  0.1662 3.2370 -0.4361
v  -0.0140 2.9398 -1.5948
v  0.6242 2.7198 -0.4003
v  0.4667 2.3709 -1.5416
v  0.2738 1.7761 -2.6555
v  0.9305 1.7375 -1.5050
v  0.7573 1.1573 -2.6113
v  0.5399 0.2799 -3.6944
v  1.0386 2.1236 -0.3775
v  1.5336 1.4256 -0.3299
v  1.0528 2.1929 0.7865
v  1.4873 1.5569 0.8218
v  2.0173 0.7334 0.9676
v  2.1168 0.6364 -0.2369
v  2.8058 -0.2767 -0.0959
v  2.7411 -0.2962 1.1752
v  3.7474 -1.5683 1.3586
v  3.7205 -1.3493 0.0069
v  2.4749 -0.4613 2.4456
v  3.5054 -2.0485 2.7467
v  5.0869 -4.3468 2.7536
v  5.2563 -3.7445 1.4122
v  1.9516 -0.7147 3.6138
v  2.9221 -2.6803 4.0548
v  4.6518 -5.1884 3.7642
v  6.9424 -7.2471 3.0497
v  6.9905 -6.6110 2.2546
v  2.3293 -3.3637 4.9788
v  4.2870 -5.9992 4.4459
v  6.9148 -8.0730 3.8275
v  9.0776 -9.7640 2.9257
v  8.7262 -8.6343 2.3398
v  8.5779 -10.7035 3.6540
v  8.0184 -11.7784 3.8975
v  4.7429 -15.2100 1.1210
v  5.5357 -14.5537 2.5854
v  3.6674 -12.9014 2.5367
v  2.9354 -13.5170 1.1111
v  1.4378 -10.8895 2.4079
v  0.7721 -11.3293 1.0206
v  2.1496 -10.1532 3.4548
v  4.4226 -12.1350 3.5687
v  6.3655 -13.7749 3.6646
v  7.2617 -12.8314 4.0570
v  1.2383 -1.0888 4.5349
v  0.4399 -1.4419 5.1962
v  -0.0405 0.3131 4.2416
v  -0.9877 0.2273 4.5909
v  -0.3429 -1.8146 5.4710
v  -0.7064 1.5753 3.3479
v  -0.1140 2.5490 2.0623
v  0.1104 1.4538 3.1364
v  0.4950 2.2419 1.9797
v  0.6574 2.6914 0.7935
v  8.4781 -7.9290 1.7568
v  8.4010 -7.5498 0.9439
v  7.0184 -6.0431 1.2702
v  6.8109 -5.5792 0.0392
v  5.1874 -3.3724 0.0429
v  6.4667 -5.2920 -1.1699
v  4.9704 -3.1875 -1.2095
v  3.6604 -1.5282 -1.1965
v  6.0481 -5.1342 -2.2355
v  5.5384 -5.1103 -3.0949
v  4.9372 -5.2050 -3.7263
v  4.2529 -5.3972 -4.2364
v  3.0324 -3.4312 -3.9956
v  2.3358 -3.5443 -4.4321
v  10.1475 -10.0748 2.1427
v  14.0168 -16.9527 -3.2328
v  14.5704 -16.3010 -2.8166
v  15.1449 -17.5196 -2.8751
v  14.4757 -17.6224 -3.1782
v  14.1557 -18.4824 -3.3368
v  13.4682 -17.8737 -3.5139
v  10.9910 -10.7969 -1.6150
v  11.8945 -11.8690 -1.6834
v  11.3879 -12.3495 -2.6364
v  10.2356 -10.9564 -2.7277
v  10.8280 -13.1288 -3.4477
v  9.7723 -11.9019 -3.6207
v  11.2745 -10.6182 1.2133
v  11.4064 -10.5430 0.3504
v  11.3267 -10.6218 -0.5974
v  12.2003 -11.5656 -0.7389
v  12.3147 -11.4624 0.1511
v  14.0231 -13.2516 -0.3760
v  13.8566 -13.4178 -1.1744
v  13.0343 -12.5125 -0.9493
v  13.1824 -12.3530 -0.0858
v  12.2580 -11.5565 0.9745
v  13.1472 -12.4319 0.7677
v  13.9999 -13.3407 0.4323
v  15.6051 -15.1473 -0.0566
v  15.5906 -15.1190 -0.8572
v  14.8163 -14.1695 -0.6448
v  14.8238 -14.2235 0.1500
v  13.8178 -13.6113 1.2711
v  14.6353 -14.4819 0.9936
v  13.4498 -14.0708 2.0982
v  14.2362 -14.9245 1.8662
v  9.2018 -20.5187 -0.3745
v  8.3296 -19.6554 -0.3771
v  8.3696 -19.8262 -1.6806
v  9.2595 -20.7536 -1.5710
v  8.6700 -19.7267 -2.7355
v  9.5784 -20.7068 -2.5566
v  9.1824 -19.3752 -3.5025
v  10.0766 -20.3876 -3.2836
v  10.9621 -21.2681 -2.9901
v  9.7878 -18.7636 -3.9712
v  10.6981 -19.7906 -3.7190
v  11.5554 -20.6793 -3.4321
v  12.8658 -18.9019 -3.6675
v  12.0802 -18.0614 -3.8727
v  11.3828 -18.9953 -3.9080
v  10.4869 -17.9627 -4.1358
v  11.2364 -17.0883 -4.0655
v  11.9433 -16.1429 -3.7877
v  12.7424 -17.0777 -3.6605
v  11.0808 -15.0992 -3.9053
v  10.3614 -16.0079 -4.2247
v  9.4642 -14.8759 -4.4032
v  10.1847 -13.9912 -4.0448
v  11.7625 -14.2318 -3.3679
v  12.6130 -15.2208 -3.3263
v  9.1760 -12.7760 -4.2432
v  8.4300 -13.6260 -4.5943
v  8.7048 -15.7395 -4.5010
v  7.6475 -14.4836 -4.6999
v  6.8649 -15.3002 -4.5195
v  6.1568 -16.0228 -3.9992
v  5.6414 -16.6083 -3.1441
v  5.4052 -16.8983 -1.9469
v  10.0726 -12.0460 3.2976
v  10.5454 -11.2636 2.6490
v  9.5291 -13.1014 3.8078
v  10.4709 -14.0145 3.7308
v  11.1664 -13.0477 3.1347
v  8.6297 -14.1689 3.9758
v  9.5008 -15.0962 3.8754
v  10.2548 -15.9263 3.8127
v  11.0169 -16.7444 3.6813
v  12.0355 -15.6385 3.4878
v  11.2582 -14.8212 3.6410
v  8.5401 -16.0628 3.5208
v  9.2853 -16.9420 3.4415
v  10.0461 -17.7830 3.2898
v  8.4818 -17.7282 2.3983
v  7.7036 -16.8240 2.4961
v  7.0142 -17.4283 1.0780
v  7.8345 -18.3637 1.0549
v  6.5860 -17.8342 -0.4503
v  7.4794 -18.7604 -0.4093
v  8.6444 -19.2529 1.0009
v  5.5409 -16.8215 -0.4794
v  6.0482 -16.4090 1.0913
v  6.5107 -17.9470 -1.8679
v  6.8221 -15.8175 2.5431
v  7.6795 -15.0795 3.5828
v  12.8679 -14.7376 2.8750
v  12.0545 -13.8992 3.0288
v  11.6622 -12.3197 2.4517
v  12.0566 -11.8565 1.7300
v  11.0844 -10.9397 1.9390
v  6.7755 -17.7398 -3.0264
v  7.2911 -17.2366 -3.8423
v  7.9585 -16.5373 -4.3173
v  8.9022 -17.6773 -4.1470
v  9.6311 -16.9016 -4.3283
v  14.6469 -14.3155 -1.3970
v  14.3477 -14.6733 -2.1039
v  13.5796 -13.7810 -1.9502
v  12.3278 -13.4545 -2.6451
v  13.1604 -14.4066 -2.6896
v  12.7699 -12.8691 -1.8123
v  7.4643 -18.8578 -1.7415
v  12.5991 -13.2129 2.3032
v  12.9634 -12.7319 1.5462
v  7.7543 -18.7265 -2.8645
v  8.2546 -18.3040 -3.6623
v  13.3600 -16.1343 -3.2814
v  9.2429 -18.6146 2.2995
v  9.4359 -20.0658 0.8939
v  13.9151 -15.2938 -2.7522
v  15.0468 -15.6963 -2.2532
v  15.4030 -15.2815 -1.5933
v  12.2088 -19.8696 -3.6489
# 320 vertices

vn 0.6778 -0.4469 0.5839
vn -0.1143 -0.6838 0.7206
vn 0.1791 -0.3647 0.9137
vn 0.7084 -0.0702 0.7023
vn 0.3151 0.0122 0.9490
vn 0.5529 0.1221 0.8243
vn 0.3607 0.8581 -0.3653
vn 0.4225 0.8256 -0.3739
vn 0.4394 0.7030 -0.5591
vn 0.3823 0.7555 -0.5321
vn 0.4575 0.5370 -0.7087
vn 0.3983 0.5888 -0.7033
vn 0.3859 0.2472 -0.8888
vn 0.3818 0.2899 -0.8776
vn -0.6831 -0.7173 -0.1375
vn -0.6969 -0.7154 0.0513
vn 0.0149 -0.9968 -0.0790
vn -0.6523 -0.7255 0.2194
vn 0.1462 -0.9866 0.0724
vn 0.3742 0.0305 -0.9268
vn 0.2569 0.0259 -0.9661
vn 0.3001 0.8842 0.3580
vn 0.2603 0.7657 0.5881
vn 0.2638 0.7660 0.5862
vn 0.3397 0.8774 0.3387
vn 0.4071 0.9123 -0.0453
vn 0.3472 0.9375 -0.0249
vn -0.5423 -0.7520 0.3746
vn 0.3407 -0.9135 0.2223
vn -0.3671 -0.7677 0.5252
vn 0.5384 -0.7509 0.3824
vn 0.4492 0.4118 0.7928
vn 0.3198 0.3312 0.8877
vn 0.2493 0.5327 0.8088
vn 0.2244 0.6575 0.7193
vn 0.1520 -0.0153 0.9883
vn 0.0612 -0.2884 0.9555
vn 0.3475 0.0748 0.9347
vn 0.3653 0.1770 0.9139
vn -0.1698 -0.4916 0.8541
vn 0.0721 -0.1740 0.9821
vn 0.3474 0.0992 0.9325
vn -0.1488 -0.2793 0.9486
vn 0.6772 0.5723 0.4625
vn 0.6573 0.5476 0.5178
vn 0.7759 0.5554 0.2991
vn 0.7750 0.5706 0.2717
vn 0.4799 0.6391 0.6010
vn 0.4656 0.5583 0.6867
vn 0.6570 0.6576 0.3687
vn 0.6640 0.5690 -0.4852
vn 0.7373 0.6116 -0.2870
vn 0.7447 0.6270 -0.2286
vn 0.6786 0.5905 -0.4368
vn 0.6935 0.5631 -0.4494
vn 0.7557 0.5735 -0.3163
vn 0.5740 0.5143 -0.6372
vn 0.5636 0.4625 -0.6844
vn 0.5254 0.3953 -0.7535
vn 0.6143 0.4729 -0.6317
vn 0.4726 0.3433 -0.8117
vn 0.5958 0.4791 -0.6445
vn 0.6439 0.5569 -0.5246
vn 0.7278 0.5967 -0.3380
vn 0.7534 0.5697 -0.3283
vn 0.6598 0.5159 -0.5463
vn 0.5295 0.4458 -0.7217
vn -0.4186 -0.4270 -0.8015
vn -0.6831 -0.6137 -0.3959
vn -0.5931 -0.6909 -0.4133
vn -0.3085 -0.4912 -0.8146
vn -0.4587 -0.4638 -0.7579
vn -0.6808 -0.6154 -0.3971
vn -0.0645 -0.1526 -0.9862
vn -0.0034 -0.0519 -0.9986
vn -0.1312 -0.1755 -0.9757
vn -0.1637 -0.2396 -0.9570
vn 0.0671 -0.1709 -0.9830
vn 0.6828 0.6227 0.3823
vn 0.7143 0.6972 0.0603
vn 0.7192 0.6913 0.0695
vn 0.6951 0.6560 0.2939
vn 0.5814 0.5965 -0.5532
vn 0.5278 0.4729 -0.7055
vn 0.3726 0.2349 -0.8978
vn 0.1829 0.0443 -0.9821
vn 0.5675 0.4515 -0.6886
vn 0.3852 0.2624 -0.8848
vn 0.1841 0.0916 -0.9786
vn 0.4360 0.3036 -0.8472
vn 0.2772 0.1755 -0.9447
vn 0.1423 0.0763 -0.9869
vn 0.0732 0.0000 -0.9973
vn 0.3595 0.2578 -0.8968
vn 0.2626 0.1831 -0.9474
vn 0.2146 0.1205 -0.9692
vn 0.2028 0.0839 -0.9756
vn 0.0530 -0.0488 -0.9974
vn 0.3525 0.2701 -0.8960
vn 0.3274 0.2198 -0.9190
vn 0.3304 0.1969 -0.9231
vn 0.3525 0.1953 -0.9152
vn 0.2090 0.0702 -0.9754
vn 0.4386 0.3143 -0.8419
vn 0.4531 0.3037 -0.8381
vn 0.4910 0.3113 -0.8136
vn 0.5599 0.4106 -0.7197
vn 0.5589 0.4045 -0.7239
vn 0.5872 0.4042 -0.7013
vn 0.6770 0.5139 -0.5269
vn 0.6629 0.5220 -0.5367
vn 0.6556 0.5080 -0.5586
vn 0.7421 0.5842 -0.3286
vn 0.7140 0.6027 -0.3563
vn 0.6909 0.5570 -0.4608
vn 0.7578 0.6270 -0.1809
vn 0.7230 0.6488 -0.2374
vn 0.7050 0.6224 -0.3401
vn 0.7536 0.6563 -0.0367
vn 0.7219 0.6849 -0.0983
vn 0.7123 0.6837 -0.1589
vn -0.1560 -0.2731 -0.9492
vn 0.0532 -0.0771 -0.9956
vn -0.4006 -0.4860 -0.7767
vn -0.6192 -0.6449 -0.4479
vn -0.7092 -0.6994 -0.0889
vn -0.7516 -0.6534 -0.0902
vn -0.6815 -0.6964 0.2250
vn -0.7272 -0.6650 0.1704
vn -0.7345 -0.6712 0.1001
vn -0.7442 -0.6589 -0.1095
vn 0.5046 0.8131 0.2902
vn 0.6190 0.7798 -0.0940
vn 0.6234 0.6863 -0.3747
vn 0.7671 0.6256 -0.1422
vn 0.7429 0.5692 -0.3523
vn 0.6713 0.5311 -0.5170
vn 0.7637 0.5524 -0.3341
vn 0.6922 0.5356 -0.4836
vn 0.5839 0.4639 -0.6662
vn 0.8053 0.5724 -0.1546
vn 0.8072 0.5751 -0.1327
vn 0.7871 0.6091 0.0973
vn 0.8183 0.5694 0.0789
vn 0.8103 0.5751 0.1126
vn 0.7982 0.5963 -0.0849
vn 0.7805 0.6243 -0.0329
vn 0.7795 0.6041 0.1659
vn 0.7868 0.5812 0.2079
vn 0.7934 0.6087 0.0027
vn 0.7438 0.5540 0.3740
vn 0.7365 0.5126 0.4413
vn 0.7239 0.5037 0.4715
vn 0.7892 0.5705 0.2276
vn 0.6533 0.4989 0.5695
vn 0.6563 0.4243 0.6239
vn 0.6416 0.4273 0.6370
vn 0.6274 0.5020 0.5953
vn 0.7029 0.5524 0.4482
vn 0.5718 0.3495 0.7423
vn 0.5591 0.3464 0.7533
vn 0.5475 0.3844 0.7433
vn 0.5677 0.4028 0.7180
vn 0.6453 0.5480 0.5322
vn 0.3882 0.1862 0.9026
vn 0.1600 0.0275 0.9867
vn -0.6028 -0.6442 0.4708
vn -0.5179 -0.5616 0.6453
vn -0.5363 -0.5618 0.6299
vn -0.6390 -0.6348 0.4343
vn -0.5409 -0.6380 0.5480
vn -0.6643 -0.6656 0.3402
vn -0.3717 -0.5739 0.7297
vn -0.3758 -0.4158 0.8282
vn -0.3409 -0.3767 0.8613
vn -0.0652 -0.1206 0.9906
vn 0.5149 0.4548 0.7266
vn 0.3124 0.3921 0.8652
vn 0.2900 0.5570 0.7782
vn 0.1846 0.5284 0.8287
vn 0.1606 0.2976 0.9411
vn 0.2419 0.6655 0.7061
vn 0.3478 0.7464 0.5673
vn 0.3343 0.6621 0.6707
vn 0.4947 0.7125 0.4976
vn 0.6901 0.6995 0.1857
vn 0.6848 0.6238 0.3767
vn 0.7325 0.6635 0.1522
vn 0.7659 0.6040 0.2206
vn 0.7919 0.6106 0.0114
vn 0.8077 0.5893 0.0186
vn 0.7925 0.5907 -0.1519
vn 0.7924 0.5901 -0.1545
vn 0.7740 0.6088 -0.1739
vn 0.7636 0.5587 -0.3236
vn 0.6784 0.5021 -0.5363
vn 0.5441 0.4210 -0.7257
vn 0.4355 0.3463 -0.8309
vn 0.4702 0.3968 -0.7883
vn 0.4253 0.3327 -0.8417
vn 0.6265 0.5295 0.5719
vn 0.3429 0.1892 -0.9201
vn 0.4463 0.3067 -0.8407
vn 0.4307 0.2014 -0.8797
vn 0.3547 0.1221 -0.9270
vn 0.2987 0.0008 -0.9543
vn 0.2716 0.0511 -0.9610
vn 0.6774 0.5847 -0.4463
vn 0.6359 0.5800 -0.5092
vn 0.5737 0.4638 -0.6751
vn 0.6234 0.4592 -0.6328
vn 0.4894 0.3326 -0.8061
vn 0.5179 0.3266 -0.7906
vn 0.6947 0.6535 0.3007
vn 0.7118 0.7019 0.0274
vn 0.7023 0.6729 -0.2322
vn 0.6818 0.6681 -0.2979
vn 0.7145 0.6992 -0.0248
vn 0.7232 0.6835 -0.0991
vn 0.6396 0.6610 -0.3925
vn 0.6557 0.6675 -0.3529
vn 0.7175 0.6934 -0.0665
vn 0.7030 0.6545 0.2782
vn 0.7266 0.6385 0.2539
vn 0.7484 0.6240 0.2247
vn 0.7694 0.6276 0.1186
vn 0.7736 0.6092 -0.1745
vn 0.7404 0.6599 -0.1275
vn 0.7582 0.6232 0.1918
vn 0.7055 0.5270 0.4738
vn 0.7095 0.5429 0.4493
vn 0.6177 0.4220 0.6636
vn 0.6293 0.4289 0.6481
vn -0.6923 -0.6860 0.2239
vn -0.7018 -0.6785 0.2172
vn -0.7160 -0.6927 -0.0862
vn -0.6928 -0.7169 -0.0779
vn -0.6247 -0.6423 -0.4441
vn -0.5870 -0.6854 -0.4308
vn -0.4031 -0.4981 -0.7677
vn -0.3564 -0.5451 -0.7588
vn -0.3025 -0.6061 -0.7356
vn -0.1366 -0.3036 -0.9430
vn -0.0940 -0.3418 -0.9351
vn -0.0524 -0.3906 -0.9191
vn 0.2121 -0.0740 -0.9744
vn 0.2060 -0.0259 -0.9782
vn 0.0902 -0.1663 -0.9819
vn 0.0744 -0.1289 -0.9889
vn 0.2117 0.0137 -0.9772
vn 0.3052 0.1450 -0.9412
vn 0.2834 0.1022 -0.9535
vn 0.3399 0.1755 -0.9240
vn 0.2252 0.0397 -0.9735
vn 0.2369 0.0458 -0.9705
vn 0.3785 0.1885 -0.9062
vn 0.4312 0.3189 -0.8440
vn 0.3826 0.2854 -0.8787
vn 0.3829 0.1938 -0.9032
vn 0.2279 0.0549 -0.9721
vn 0.0614 -0.1045 -0.9926
vn 0.0588 -0.0961 -0.9936
vn -0.1503 -0.2830 -0.9473
vn -0.3833 -0.4790 -0.7897
vn -0.5847 -0.6486 -0.4874
vn -0.6786 -0.7288 -0.0914
vn 0.4100 0.2885 0.8653
vn 0.5374 0.4104 0.7367
vn 0.2247 0.1366 0.9648
vn 0.2493 0.1511 0.9566
vn 0.4269 0.3312 0.8415
vn -0.0187 -0.0885 0.9959
vn -0.0099 -0.0938 0.9955
vn 0.0164 -0.1114 0.9936
vn 0.0675 -0.1564 0.9854
vn 0.3121 0.0893 0.9458
vn 0.2731 0.1297 0.9532
vn -0.3353 -0.3616 0.8700
vn -0.3078 -0.3784 0.8730
vn -0.2518 -0.4158 0.8739
vn -0.5395 -0.5365 0.6489
vn -0.5538 -0.5286 0.6433
vn -0.6463 -0.6093 0.4593
vn -0.6504 -0.6083 0.4549
vn -0.6926 -0.6820 0.2349
vn -0.7096 -0.6701 0.2178
vn -0.6249 -0.6310 0.4597
vn -0.6654 -0.7049 0.2456
vn -0.6130 -0.6348 0.4704
vn -0.6888 -0.7197 -0.0871
vn -0.5337 -0.5463 0.6455
vn -0.3338 -0.3745 0.8651
vn 0.4922 0.2869 0.8219
vn 0.4548 0.3188 0.8316
vn 0.5375 0.4396 0.7196
vn 0.6352 0.5509 0.5414
vn 0.6297 0.5373 0.5610
vn -0.5917 -0.6516 -0.4746
vn -0.3875 -0.4767 -0.7890
vn -0.1533 -0.2807 -0.9475
vn -0.1572 -0.2838 -0.9459
vn 0.0631 -0.1076 -0.9922
vn 0.6502 0.6242 -0.4331
vn 0.5366 0.5187 -0.6655
vn 0.5459 0.5685 -0.6155
vn 0.5100 0.4585 -0.7278
vn 0.4577 0.4340 -0.7760
vn 0.5856 0.5814 -0.5649
vn -0.7073 -0.7016 -0.0860
vn 0.5714 0.4389 0.6935
vn 0.6683 0.5416 0.5099
vn -0.6130 -0.6477 -0.4523
vn -0.4056 -0.4843 -0.7752
vn 0.3524 0.2380 -0.9051
vn -0.4939 -0.5632 0.6625
vn -0.6138 -0.6363 0.4672
vn 0.4361 0.3815 -0.8150
vn 0.5550 0.4181 -0.7191
vn 0.6856 0.5415 -0.4866
vn 0.1129 -0.2144 -0.9702
# 320 vertex normals

vt 0.5741 0.6077 0.0000
vt 0.5704 0.5990 0.0000
vt 0.5798 0.5947 0.0000
vt 0.5880 0.6042 0.0000
vt 0.5928 0.5832 0.0000
vt 0.5986 0.5875 0.0000
vt 0.6489 0.5038 0.0000
vt 0.6448 0.5020 0.0000
vt 0.6475 0.4926 0.0000
vt 0.6515 0.4944 0.0000
vt 0.6516 0.4803 0.0000
vt 0.6552 0.4818 0.0000
vt 0.6586 0.4633 0.0000
vt 0.6627 0.4650 0.0000
vt 0.5213 0.6073 0.0000
vt 0.5316 0.6068 0.0000
vt 0.5325 0.6102 0.0000
vt 0.5427 0.6049 0.0000
vt 0.5442 0.6102 0.0000
vt 0.6698 0.4447 0.0000
vt 0.6646 0.4427 0.0000
vt 0.6416 0.5210 0.0000
vt 0.6369 0.5304 0.0000
vt 0.6320 0.5282 0.0000
vt 0.6374 0.5191 0.0000
vt 0.6415 0.5104 0.0000
vt 0.6458 0.5124 0.0000
vt 0.5529 0.6032 0.0000
vt 0.5547 0.6092 0.0000
vt 0.5621 0.6018 0.0000
vt 0.5642 0.6079 0.0000
vt 0.6111 0.5708 0.0000
vt 0.6074 0.5675 0.0000
vt 0.6182 0.5521 0.0000
vt 0.6257 0.5387 0.0000
vt 0.8252 0.2081 0.0000
vt 0.8229 0.2039 0.0000
vt 0.8352 0.1967 0.0000
vt 0.8448 0.2029 0.0000
vt 0.8458 0.2102 0.0000
vt 0.8261 0.2124 0.0000
vt 0.8408 0.1919 0.0000
vt 0.8519 0.1952 0.0000
vt 0.8662 0.2033 0.0000
vt 0.8666 0.2097 0.0000
vt 0.8677 0.1963 0.0000
vt 0.7958 0.2405 0.0000
vt 0.8022 0.2359 0.0000
vt 0.8033 0.2427 0.0000
vt 0.7954 0.2463 0.0000
vt 0.7922 0.2393 0.0000
vt 0.7982 0.2308 0.0000
vt 0.7896 0.2475 0.0000
vt 0.8122 0.2719 0.0000
vt 0.8069 0.2645 0.0000
vt 0.8158 0.2615 0.0000
vt 0.8212 0.2677 0.0000
vt 0.8021 0.2740 0.0000
vt 0.7980 0.2680 0.0000
vt 0.8293 0.2722 0.0000
vt 0.8250 0.2763 0.0000
vt 0.8222 0.2804 0.0000
vt 0.8118 0.2771 0.0000
vt 0.8186 0.2850 0.0000
vt 0.8069 0.2801 0.0000
vt 0.8338 0.2690 0.0000
vt 0.8312 0.2646 0.0000
vt 0.8445 0.2617 0.0000
vt 0.8442 0.2680 0.0000
vt 0.8420 0.2735 0.0000
vt 0.8683 0.3090 0.0000
vt 0.8766 0.3165 0.0000
vt 0.8667 0.3202 0.0000
vt 0.8583 0.3151 0.0000
vt 0.8889 0.3059 0.0000
vt 0.8917 0.3128 0.0000
vt 0.8484 0.3068 0.0000
vt 0.8503 0.3032 0.0000
vt 0.8697 0.3018 0.0000
vt 0.8884 0.2988 0.0000
vt 0.8459 0.3108 0.0000
vt 0.8906 0.2267 0.0000
vt 0.8935 0.2318 0.0000
vt 0.8869 0.2326 0.0000
vt 0.8853 0.2288 0.0000
vt 0.7952 0.2912 0.0000
vt 0.7849 0.2833 0.0000
vt 0.7879 0.2809 0.0000
vt 0.7973 0.2886 0.0000
vt 0.8119 0.2965 0.0000
vt 0.8096 0.3002 0.0000
vt 0.8291 0.3027 0.0000
vt 0.8274 0.3067 0.0000
vt 0.7992 0.2859 0.0000
vt 0.8139 0.2927 0.0000
vt 0.8308 0.2990 0.0000
vt 0.8162 0.2889 0.0000
vt 0.8328 0.2948 0.0000
vt 0.8520 0.2984 0.0000
vt 0.8712 0.2960 0.0000
vt 0.8356 0.2890 0.0000
vt 0.8532 0.2927 0.0000
vt 0.8711 0.2893 0.0000
vt 0.8881 0.2843 0.0000
vt 0.8886 0.2914 0.0000
vt 0.8546 0.2841 0.0000
vt 0.8715 0.2819 0.0000
vt 0.8877 0.2777 0.0000
vt 0.9017 0.2752 0.0000
vt 0.9031 0.2820 0.0000
vt 0.8722 0.2758 0.0000
vt 0.8870 0.2724 0.0000
vt 0.9001 0.2694 0.0000
vt 0.8731 0.2692 0.0000
vt 0.8867 0.2664 0.0000
vt 0.8981 0.2632 0.0000
vt 0.8742 0.2626 0.0000
vt 0.8867 0.2603 0.0000
vt 0.8954 0.2587 0.0000
vt 0.8758 0.2551 0.0000
vt 0.8875 0.2532 0.0000
vt 0.8963 0.2524 0.0000
vt 0.8781 0.2468 0.0000
vt 0.8884 0.2453 0.0000
vt 0.8955 0.2444 0.0000
vt 0.8790 0.2391 0.0000
vt 0.8880 0.2382 0.0000
vt 0.8943 0.2374 0.0000
vt 0.9056 0.2963 0.0000
vt 0.9042 0.2891 0.0000
vt 0.9069 0.3035 0.0000
vt 0.9080 0.3104 0.0000
vt 0.9090 0.3186 0.0000
vt 0.8938 0.3202 0.0000
vt 0.9096 0.3282 0.0000
vt 0.8961 0.3296 0.0000
vt 0.8856 0.3319 0.0000
vt 0.8815 0.3239 0.0000
vt 0.8766 0.3357 0.0000
vt 0.8721 0.3275 0.0000
vt 0.7740 0.2568 0.0000
vt 0.7787 0.2570 0.0000
vt 0.7795 0.2658 0.0000
vt 0.7747 0.2667 0.0000
vt 0.7824 0.2737 0.0000
vt 0.7783 0.2754 0.0000
vt 0.7842 0.2646 0.0000
vt 0.7865 0.2717 0.0000
vt 0.7907 0.2786 0.0000
vt 0.7916 0.2697 0.0000
vt 0.7938 0.2761 0.0000
vt 0.8010 0.2834 0.0000
vt 0.7899 0.2631 0.0000
vt 0.7965 0.2612 0.0000
vt 0.7885 0.2560 0.0000
vt 0.7948 0.2541 0.0000
vt 0.8026 0.2508 0.0000
vt 0.8038 0.2585 0.0000
vt 0.8147 0.2553 0.0000
vt 0.8145 0.2466 0.0000
vt 0.8283 0.2439 0.0000
vt 0.8284 0.2526 0.0000
vt 0.8141 0.2376 0.0000
vt 0.8282 0.2342 0.0000
vt 0.8453 0.2304 0.0000
vt 0.8451 0.2390 0.0000
vt 0.8132 0.2294 0.0000
vt 0.8276 0.2253 0.0000
vt 0.8452 0.2223 0.0000
vt 0.8639 0.2219 0.0000
vt 0.8630 0.2279 0.0000
vt 0.8271 0.2182 0.0000
vt 0.8458 0.2164 0.0000
vt 0.8661 0.2166 0.0000
vt 0.8856 0.2186 0.0000
vt 0.8801 0.2237 0.0000
vt 0.8860 0.2112 0.0000
vt 0.8852 0.2036 0.0000
vt 0.8830 0.1705 0.0000
vt 0.8834 0.1806 0.0000
vt 0.8690 0.1821 0.0000
vt 0.8697 0.1723 0.0000
vt 0.8684 0.1621 0.0000
vt 0.8818 0.1597 0.0000
vt 0.8564 0.1820 0.0000
vt 0.8578 0.1728 0.0000
vt 0.8576 0.1631 0.0000
vt 0.8456 0.1805 0.0000
vt 0.8467 0.1725 0.0000
vt 0.8479 0.1633 0.0000
vt 0.8551 0.1887 0.0000
vt 0.8440 0.1869 0.0000
vt 0.8688 0.1894 0.0000
vt 0.8837 0.1886 0.0000
vt 0.8842 0.1958 0.0000
vt 0.8112 0.2234 0.0000
vt 0.8093 0.2187 0.0000
vt 0.7959 0.2280 0.0000
vt 0.7936 0.2255 0.0000
vt 0.8075 0.2154 0.0000
vt 0.7910 0.2229 0.0000
vt 0.8055 0.2122 0.0000
vt 0.7816 0.2350 0.0000
vt 0.7846 0.2367 0.0000
vt 0.7801 0.2471 0.0000
vt 0.7763 0.2464 0.0000
vt 0.7872 0.2380 0.0000
vt 0.7836 0.2480 0.0000
vt 0.7830 0.2569 0.0000
vt 0.8778 0.2276 0.0000
vt 0.8789 0.2327 0.0000
vt 0.8631 0.2339 0.0000
vt 0.8626 0.2420 0.0000
vt 0.8450 0.2480 0.0000
vt 0.8625 0.2510 0.0000
vt 0.8443 0.2552 0.0000
vt 0.8285 0.2587 0.0000
vt 0.8607 0.2583 0.0000
vt 0.8595 0.2653 0.0000
vt 0.8574 0.2723 0.0000
vt 0.8561 0.2782 0.0000
vt 0.8398 0.2787 0.0000
vt 0.8378 0.2832 0.0000
vt 0.8929 0.2227 0.0000
vt 0.7900 0.4827 0.0000
vt 0.7912 0.4768 0.0000
vt 0.7956 0.4793 0.0000
vt 0.7929 0.4832 0.0000
vt 0.7954 0.4909 0.0000
vt 0.7921 0.4910 0.0000
vt 0.7680 0.4614 0.0000
vt 0.7732 0.4630 0.0000
vt 0.7713 0.4717 0.0000
vt 0.7649 0.4711 0.0000
vt 0.7578 0.4657 0.0000
vt 0.7607 0.4586 0.0000
vt 0.7729 0.4814 0.0000
vt 0.7665 0.4810 0.0000
vt 0.7540 0.4808 0.0000
vt 0.7546 0.4748 0.0000
vt 0.7723 0.4451 0.0000
vt 0.7710 0.4493 0.0000
vt 0.7638 0.4460 0.0000
vt 0.7638 0.4399 0.0000
vt 0.7698 0.4545 0.0000
vt 0.7625 0.4517 0.0000
vt 0.7749 0.4566 0.0000
vt 0.7763 0.4518 0.0000
vt 0.7875 0.4566 0.0000
vt 0.7850 0.4609 0.0000
vt 0.7796 0.4585 0.0000
vt 0.7812 0.4539 0.0000
vt 0.7776 0.4476 0.0000
vt 0.7827 0.4500 0.0000
vt 0.7896 0.4526 0.0000
vt 0.8001 0.4575 0.0000
vt 0.7972 0.4617 0.0000
vt 0.7929 0.4590 0.0000
vt 0.7955 0.4550 0.0000
vt 0.7918 0.4480 0.0000
vt 0.7983 0.4504 0.0000
vt 0.7934 0.4422 0.0000
vt 0.7998 0.4444 0.0000
vt 0.8181 0.3862 0.0000
vt 0.8120 0.3846 0.0000
vt 0.8158 0.3767 0.0000
vt 0.8213 0.3788 0.0000
vt 0.7837 0.5339 0.0000
vt 0.7780 0.5334 0.0000
vt 0.7797 0.5263 0.0000
vt 0.7855 0.5278 0.0000
vt 0.7819 0.5202 0.0000
vt 0.7878 0.5223 0.0000
vt 0.7931 0.5231 0.0000
vt 0.7844 0.5149 0.0000
vt 0.7904 0.5176 0.0000
vt 0.7952 0.5192 0.0000
vt 0.7943 0.5022 0.0000
vt 0.7899 0.5017 0.0000
vt 0.7900 0.5096 0.0000
vt 0.7847 0.5079 0.0000
vt 0.7858 0.5014 0.0000
vt 0.7851 0.4914 0.0000
vt 0.7888 0.4911 0.0000
vt 0.7809 0.4918 0.0000
vt 0.7809 0.5012 0.0000
vt 0.7739 0.4990 0.0000
vt 0.7746 0.4906 0.0000
vt 0.7788 0.4820 0.0000
vt 0.7832 0.4820 0.0000
vt 0.7678 0.4895 0.0000
vt 0.7664 0.4969 0.0000
vt 0.7521 0.4930 0.0000
vt 0.7533 0.4863 0.0000
vt 0.7719 0.5044 0.0000
vt 0.7644 0.5028 0.0000
vt 0.7510 0.5003 0.0000
vt 0.7629 0.5089 0.0000
vt 0.7504 0.5079 0.0000
vt 0.7618 0.5156 0.0000
vt 0.7496 0.5156 0.0000
vt 0.7608 0.5232 0.0000
vt 0.7492 0.5228 0.0000
vt 0.7595 0.5316 0.0000
vt 0.7490 0.5313 0.0000
vt 0.7671 0.4239 0.0000
vt 0.7771 0.4282 0.0000
vt 0.7746 0.4348 0.0000
vt 0.7633 0.4301 0.0000
vt 0.7695 0.4167 0.0000
vt 0.7796 0.4197 0.0000
vt 0.7853 0.4217 0.0000
vt 0.7828 0.4304 0.0000
vt 0.7715 0.4088 0.0000
vt 0.7818 0.4118 0.0000
vt 0.7878 0.4138 0.0000
vt 0.7933 0.4156 0.0000
vt 0.7999 0.4178 0.0000
vt 0.7972 0.4260 0.0000
vt 0.7907 0.4236 0.0000
vt 0.7901 0.4067 0.0000
vt 0.7958 0.4083 0.0000
vt 0.8025 0.4104 0.0000
vt 0.7983 0.4006 0.0000
vt 0.7925 0.3990 0.0000
vt 0.7954 0.3900 0.0000
vt 0.8012 0.3917 0.0000
vt 0.7996 0.3805 0.0000
vt 0.8051 0.3826 0.0000
vt 0.8085 0.3937 0.0000
vt 0.7937 0.3781 0.0000
vt 0.7892 0.3880 0.0000
vt 0.7806 0.3843 0.0000
vt 0.7849 0.3743 0.0000
vt 0.7890 0.3654 0.0000
vt 0.7986 0.3696 0.0000
vt 0.8042 0.3722 0.0000
vt 0.7863 0.3972 0.0000
vt 0.7767 0.3939 0.0000
vt 0.7738 0.4017 0.0000
vt 0.7840 0.4049 0.0000
vt 0.7949 0.4348 0.0000
vt 0.7881 0.4324 0.0000
vt 0.7806 0.4373 0.0000
vt 0.7796 0.4429 0.0000
vt 0.7744 0.4406 0.0000
vt 0.7672 0.5239 0.0000
vt 0.7657 0.5321 0.0000
vt 0.7687 0.5167 0.0000
vt 0.7705 0.5105 0.0000
vt 0.7774 0.5120 0.0000
vt 0.7787 0.5061 0.0000
vt 0.7897 0.4629 0.0000
vt 0.7877 0.4676 0.0000
vt 0.7832 0.4663 0.0000
vt 0.7541 0.4702 0.0000
vt 0.7772 0.4725 0.0000
vt 0.7824 0.4735 0.0000
vt 0.7780 0.4646 0.0000
vt 0.7677 0.4372 0.0000
vt 0.8094 0.3744 0.0000
vt 0.7861 0.4397 0.0000
vt 0.7844 0.4452 0.0000
vt 0.7731 0.5246 0.0000
vt 0.7713 0.5328 0.0000
vt 0.7751 0.5178 0.0000
vt 0.7871 0.4821 0.0000
vt 0.8053 0.4025 0.0000
vt 0.8148 0.3953 0.0000
vt 0.7869 0.4744 0.0000
vt 0.7921 0.4700 0.0000
vt 0.7943 0.4655 0.0000
vt 0.7949 0.5112 0.0000
# 373 texture coords

o ProfesorLeftArm
g ProfesorLeftArm
usemtl rp_carla_rigged_001_mat
s off
f 1/1/1 2/2/2 3/3/3 4/4/4 
f 4/4/4 3/3/3 5/5/5 6/6/6 
f 7/7/7 8/8/8 9/9/9 10/10/10 
f 9/9/9 11/11/11 12/12/12 10/10/10 
f 11/11/11 13/13/13 14/14/14 12/12/12 
f 15/15/15 16/16/16 17/17/17 
f 16/16/16 18/18/18 19/19/19 17/17/17 
f 20/20/20 14/14/14 13/13/13 21/21/21 
f 22/22/22 23/23/23 24/24/24 25/25/25 
f 22/22/22 25/25/25 26/26/26 27/27/27 
f 8/8/8 7/7/7 27/27/27 26/26/26 
f 28/28/28 29/29/29 19/19/19 18/18/18 
f 30/30/30 31/31/31 29/29/29 28/28/28 
f 31/31/31 30/30/30 2/2/2 1/1/1 
f 32/32/32 33/33/33 34/34/34 
f 33/33/33 32/32/32 6/6/6 5/5/5 
f 35/35/35 24/24/24 23/23/23 
f 36/36/36 5/37/5 3/38/3 37/39/37 
f 37/39/37 38/40/38 39/41/39 36/36/36 
f 37/39/37 3/38/3 2/42/2 40/43/40 
f 41/44/41 42/45/42 38/40/38 37/39/37 
f 40/43/40 43/46/43 41/44/41 37/39/37 
f 44/47/44 45/48/45 46/49/46 47/50/47 
f 48/51/48 49/52/49 45/48/45 44/47/44 
f 44/47/44 47/50/47 50/53/50 48/51/48 
f 51/54/51 52/55/52 53/56/53 54/57/54 
f 55/58/55 56/59/56 52/55/52 51/54/51 
f 54/57/54 57/60/57 58/61/58 51/54/51 
f 58/61/58 59/62/59 60/63/60 51/54/51 
f 60/63/60 59/62/59 61/64/61 62/65/62 
f 62/65/62 55/58/55 51/54/51 60/63/60 
f 63/66/63 64/67/64 65/68/65 66/69/66 
f 63/66/63 66/69/66 67/70/67 57/60/57 
f 57/60/57 54/57/54 64/67/64 63/66/63 
f 68/71/68 69/72/69 70/73/70 71/74/71 
f 72/75/72 73/76/73 69/72/69 68/71/68 
f 68/71/68 74/77/74 75/78/75 76/79/76 
f 76/79/76 77/80/77 72/75/72 68/71/68 
f 71/74/71 78/81/78 74/77/74 68/71/68 
f 79/82/79 80/83/80 81/84/81 82/85/82 
f 11/86/11 9/87/9 83/88/83 84/89/84 
f 84/89/84 85/90/85 13/91/13 11/86/11 
f 85/90/85 86/92/86 21/93/21 13/91/13 
f 85/90/85 84/89/84 87/94/87 88/95/88 
f 88/95/88 89/96/89 86/92/86 85/90/85 
f 89/96/89 75/78/75 74/77/74 86/92/86 
f 89/96/89 88/95/88 90/97/90 91/98/91 
f 91/98/91 92/99/92 75/78/75 89/96/89 
f 92/99/92 93/100/93 76/79/76 75/78/75 
f 92/99/92 91/98/91 94/101/94 95/102/95 
f 95/102/95 96/103/96 93/100/93 92/99/92 
f 96/103/96 97/104/97 98/105/98 93/100/93 
f 96/103/96 95/102/95 99/106/99 100/107/100 
f 100/107/100 101/108/101 97/104/97 96/103/96 
f 102/109/102 103/110/103 97/104/97 101/108/101 
f 101/108/101 100/107/100 104/111/104 105/112/105 
f 101/108/101 105/112/105 106/113/106 102/109/102 
f 105/112/105 104/111/104 107/114/107 108/115/108 
f 105/112/105 108/115/108 109/116/109 106/113/106 
f 108/115/108 107/114/107 110/117/110 111/118/111 
f 108/115/108 111/118/111 112/119/112 109/116/109 
f 111/118/111 110/117/110 113/120/113 114/121/114 
f 114/121/114 115/122/115 112/119/112 111/118/111 
f 114/121/114 113/120/113 116/123/116 117/124/117 
f 117/124/117 118/125/118 115/122/115 114/121/114 
f 117/124/117 116/123/116 119/126/119 120/127/120 
f 120/127/120 121/128/121 118/125/118 117/124/117 
f 120/127/120 81/84/81 80/83/80 121/128/121 
f 122/129/122 77/80/77 98/105/98 123/130/123 
f 98/105/98 97/104/97 103/110/103 123/130/123 
f 124/131/124 72/75/72 77/80/77 122/129/122 
f 124/131/124 125/132/125 73/76/73 72/75/72 
f 125/132/125 126/133/126 127/134/127 73/76/73 
f 126/133/126 128/135/128 129/136/129 127/134/127 
f 127/134/127 129/136/129 130/137/130 131/138/131 
f 131/138/131 69/72/69 73/76/73 127/134/127 
f 131/138/131 130/137/130 16/139/16 15/140/15 
f 15/140/15 70/73/70 69/72/69 131/138/131 
f 25/141/25 132/142/132 133/143/133 26/144/26 
f 26/144/26 133/143/133 134/145/134 8/146/8 
f 134/145/134 83/88/83 9/87/9 8/146/8 
f 134/145/134 133/143/133 135/147/135 136/148/136 
f 136/148/136 137/149/137 83/88/83 134/145/134 
f 137/149/137 87/94/87 84/89/84 83/88/83 
f 137/149/137 136/148/136 138/150/138 139/151/139 
f 139/151/139 140/152/140 87/94/87 137/149/137 
f 140/152/140 90/97/90 88/95/88 87/94/87 
f 140/152/140 139/151/139 55/58/55 62/65/62 
f 62/65/62 61/64/61 90/97/90 140/152/140 
f 139/151/139 138/150/138 56/59/56 55/58/55 
f 136/148/136 135/147/135 141/153/141 138/150/138 
f 138/150/138 141/153/141 142/154/142 56/59/56 
f 141/153/141 143/155/143 144/156/144 142/154/142 
f 144/156/144 145/157/145 146/158/146 142/154/142 
f 146/158/146 52/55/52 56/59/56 142/154/142 
f 147/159/147 53/56/53 52/55/52 146/158/146 
f 145/157/145 148/160/148 147/159/147 146/158/146 
f 148/160/148 149/161/149 150/162/150 147/159/147 
f 148/160/148 145/157/145 46/49/46 151/163/151 
f 151/163/151 152/164/152 149/161/149 148/160/148 
f 152/164/152 153/165/153 154/166/154 149/161/149 
f 152/164/152 151/163/151 155/167/155 156/168/156 
f 156/168/156 157/169/157 153/165/153 152/164/152 
f 157/169/157 158/170/158 159/171/159 153/165/153 
f 157/169/157 156/168/156 160/172/160 161/173/161 
f 161/173/161 162/174/162 158/170/158 157/169/157 
f 162/174/162 163/175/163 164/176/164 158/170/158 
f 162/174/162 161/173/161 38/40/38 42/45/42 
f 42/45/42 165/177/165 163/175/163 162/174/162 
f 165/177/165 42/45/42 41/44/41 166/178/166 
f 167/179/167 168/180/168 169/181/169 170/182/170 
f 170/182/170 129/183/129 128/184/128 167/179/167 
f 170/182/170 169/181/169 171/185/171 172/186/172 
f 172/186/172 130/187/130 129/183/129 170/182/170 
f 172/186/172 171/185/171 28/188/28 18/189/18 
f 18/189/18 16/190/16 130/187/130 172/186/172 
f 171/185/171 173/191/173 30/192/30 28/188/28 
f 30/192/30 173/191/173 40/43/40 2/42/2 
f 173/191/173 174/193/174 43/46/43 40/43/40 
f 173/191/173 171/185/171 169/181/169 174/193/174 
f 174/193/174 175/194/175 176/195/176 43/46/43 
f 174/193/174 169/181/169 168/180/168 175/194/175 
f 166/178/166 41/44/41 43/46/43 176/195/176 
f 161/173/161 160/172/160 39/41/39 38/40/38 
f 156/168/156 155/167/155 177/196/177 160/172/160 
f 160/172/160 177/196/177 178/197/178 39/41/39 
f 177/196/177 49/52/49 179/198/179 178/197/178 
f 178/197/178 179/198/179 180/199/180 181/200/181 
f 181/200/181 36/36/36 39/41/39 178/197/178 
f 180/199/180 34/201/34 33/202/33 181/200/181 
f 181/200/181 33/202/33 5/37/5 36/36/36 
f 35/203/35 34/201/34 180/199/180 182/204/182 
f 182/204/182 183/205/183 24/206/24 35/203/35 
f 183/205/183 132/142/132 25/141/25 24/206/24 
f 183/205/183 182/204/182 184/207/184 185/208/185 
f 183/205/183 185/208/185 186/209/186 132/142/132 
f 135/147/135 133/143/133 132/142/132 186/209/186 
f 185/208/185 50/53/50 143/155/143 186/209/186 
f 186/209/186 143/155/143 141/153/141 135/147/135 
f 185/208/185 184/207/184 48/51/48 50/53/50 
f 182/204/182 180/199/180 179/198/179 184/207/184 
f 184/207/184 179/198/179 49/52/49 48/51/48 
f 155/167/155 45/48/45 49/52/49 177/196/177 
f 159/171/159 187/210/187 188/211/188 189/212/189 
f 189/212/189 154/166/154 153/165/153 159/171/159 
f 158/170/158 164/176/164 187/210/187 159/171/159 
f 189/212/189 188/211/188 119/126/119 190/213/190 
f 190/213/190 191/214/191 154/166/154 189/212/189 
f 191/214/191 190/213/190 192/215/192 193/216/193 
f 193/216/193 194/217/194 150/162/150 191/214/191 
f 191/214/191 150/162/150 149/161/149 154/166/154 
f 193/216/193 65/68/65 64/67/64 194/217/194 
f 194/217/194 64/67/64 54/57/54 53/56/53 
f 53/56/53 147/159/147 150/162/150 194/217/194 
f 193/216/193 192/215/192 195/218/195 65/68/65 
f 195/218/195 113/120/113 110/117/110 196/219/196 
f 196/219/196 66/69/66 65/68/65 195/218/195 
f 192/215/192 116/123/116 113/120/113 195/218/195 
f 196/219/196 110/117/110 107/114/107 197/220/197 
f 197/220/197 67/70/67 66/69/66 196/219/196 
f 197/220/197 107/114/107 104/111/104 198/221/198 
f 198/221/198 199/222/199 67/70/67 197/220/197 
f 199/222/199 198/221/198 99/106/99 200/223/200 
f 200/223/200 59/62/59 58/61/58 199/222/199 
f 199/222/199 58/61/58 57/60/57 67/70/67 
f 200/223/200 99/106/99 95/102/95 94/101/94 
f 94/101/94 61/64/61 59/62/59 200/223/200 
f 198/221/198 104/111/104 100/107/100 99/106/99 
f 190/213/190 119/126/119 116/123/116 192/215/192 
f 188/211/188 81/84/81 120/127/120 119/126/119 
f 188/211/188 187/210/187 82/85/82 81/84/81 
f 151/163/151 46/49/46 45/48/45 155/167/155 
f 145/157/145 144/156/144 47/50/47 46/49/46 
f 144/156/144 143/155/143 50/53/50 47/50/47 
f 77/80/77 76/79/76 93/100/93 98/105/98 
f 91/98/91 90/97/90 61/64/61 94/101/94 
f 86/92/86 74/77/74 78/81/78 21/93/21 
f 82/85/82 187/210/187 164/176/164 79/82/79 
f 79/82/79 164/176/164 163/175/163 201/224/201 
f 202/225/202 203/226/203 204/227/204 205/228/205 
f 205/228/205 206/229/206 207/230/207 202/225/202 
f 208/231/208 209/232/209 210/233/210 211/234/211 
f 211/234/211 115/235/115 118/236/118 208/231/208 
f 210/233/210 212/237/212 213/238/213 211/234/211 
f 211/234/211 213/238/213 106/239/106 109/240/109 
f 214/241/214 215/242/215 80/243/80 79/244/79 
f 216/245/216 208/231/208 118/236/118 121/246/121 
f 121/246/121 80/243/80 215/242/215 216/245/216 
f 217/247/217 209/232/209 208/231/208 216/245/216 
f 216/245/216 215/242/215 218/248/218 217/247/217 
f 219/249/219 220/250/220 221/251/221 222/252/222 
f 218/248/218 223/253/223 224/254/224 222/252/222 
f 222/252/222 224/254/224 225/255/225 219/249/219 
f 226/256/226 227/257/227 228/258/228 229/259/229 
f 225/255/225 230/260/230 231/261/231 229/259/229 
f 230/260/230 232/262/232 233/263/233 231/261/231 
f 234/264/234 235/265/235 236/266/236 237/267/237 
f 237/268/237 236/269/236 238/270/238 239/271/239 
f 238/270/238 240/272/240 241/273/241 239/271/239 
f 239/271/239 241/273/241 242/274/242 
f 240/272/240 243/275/243 244/276/244 241/273/241 
f 241/273/241 244/276/244 245/277/245 242/274/242 
f 246/278/246 207/230/207 206/229/206 
f 247/279/247 248/280/248 249/281/249 250/282/250 
f 250/282/250 251/283/251 252/284/252 247/279/247 
f 253/285/253 254/286/254 255/287/255 256/288/256 
f 256/288/256 212/237/212 257/289/257 253/285/253 
f 253/285/253 257/289/257 258/290/258 251/283/251 
f 259/291/259 260/292/260 103/293/103 102/294/102 
f 102/294/102 106/239/106 213/238/213 259/291/259 
f 255/287/255 261/295/261 262/296/262 260/292/260 
f 260/292/260 262/296/262 123/297/123 103/293/103 
f 262/296/262 263/298/263 122/299/122 123/297/123 
f 263/298/263 264/300/264 124/301/124 122/299/122 
f 264/300/264 265/302/265 125/303/125 124/301/124 
f 265/302/265 266/304/266 126/305/126 125/303/125 
f 165/306/165 267/307/267 268/308/268 163/309/163 
f 166/310/166 269/311/269 267/307/267 165/306/165 
f 269/311/269 270/312/270 271/313/271 267/307/267 
f 269/311/269 166/310/166 176/314/176 272/315/272 
f 272/315/272 273/316/273 270/312/270 269/311/269 
f 274/317/274 275/318/275 276/319/276 277/320/277 
f 274/317/274 273/316/273 278/321/278 279/322/279 
f 279/322/279 280/323/280 275/318/275 274/317/274 
f 281/324/281 282/325/282 283/326/283 284/327/284 
f 284/327/284 283/326/283 285/328/285 286/329/286 
f 286/329/286 235/265/235 287/330/287 284/327/284 
f 288/331/288 289/332/289 167/333/167 128/334/128 
f 128/334/128 126/335/126 266/336/266 288/331/288 
f 288/331/288 266/336/266 290/337/290 285/328/285 
f 289/332/289 291/338/291 168/339/168 167/333/167 
f 175/340/175 292/341/292 272/315/272 176/314/176 
f 175/340/175 168/339/168 291/338/291 292/341/292 
f 291/338/291 282/325/282 278/321/278 292/341/292 
f 277/320/277 276/319/276 293/342/293 294/343/294 
f 295/344/295 296/345/296 297/346/297 268/308/268 
f 267/307/267 271/313/271 295/344/295 268/308/268 
f 296/345/296 223/253/223 214/241/214 297/346/297 
f 266/304/266 265/302/265 298/347/298 290/348/290 
f 265/302/265 264/300/264 299/349/299 298/347/298 
f 264/300/264 263/298/263 300/350/300 299/349/299 
f 263/298/263 262/296/262 261/295/261 300/350/300 
f 249/281/249 243/275/243 301/351/301 302/352/302 
f 303/353/303 304/354/304 305/355/305 220/250/220 
f 115/235/115 211/234/211 109/240/109 112/356/112 
f 257/289/257 306/357/306 307/358/307 258/290/258 
f 306/357/306 308/359/308 305/355/305 307/358/307 
f 268/308/268 297/346/297 201/360/201 163/309/163 
f 214/241/214 79/244/79 201/360/201 297/346/297 
f 210/233/210 209/232/209 308/359/308 306/357/306 
f 306/357/306 257/289/257 212/237/212 210/233/210 
f 221/251/221 308/359/308 209/232/209 217/247/217 
f 217/247/217 218/248/218 222/252/222 221/251/221 
f 215/242/215 214/241/214 223/253/223 218/248/218 
f 256/288/256 255/287/255 260/292/260 259/291/259 
f 259/291/259 213/238/213 212/237/212 256/288/256 
f 254/286/254 302/352/302 261/295/261 255/287/255 
f 270/312/270 277/320/277 294/343/294 271/313/271 
f 273/316/273 274/317/274 277/320/277 270/312/270 
f 273/316/273 272/315/272 292/341/292 278/321/278 
f 283/326/283 282/325/282 291/338/291 289/332/289 
f 289/332/289 288/331/288 285/328/285 283/326/283 
f 285/328/285 290/337/290 309/361/309 286/329/286 
f 282/325/282 281/324/281 279/322/279 278/321/278 
f 310/362/310 311/363/311 296/345/296 295/344/295 
f 271/313/271 294/343/294 310/362/310 295/344/295 
f 311/363/311 224/254/224 223/253/223 296/345/296 
f 290/348/290 298/347/298 312/364/312 309/365/309 
f 298/347/298 299/349/299 313/366/313 312/364/312 
f 299/349/299 300/350/300 301/351/301 313/366/313 
f 300/350/300 261/295/261 302/352/302 301/351/301 
f 228/258/228 303/353/303 220/250/220 219/249/219 
f 219/249/219 225/255/225 229/259/229 228/258/228 
f 224/254/224 311/363/311 230/260/230 225/255/225 
f 311/363/311 310/362/310 232/262/232 230/260/230 
f 310/362/310 294/343/294 293/342/293 232/262/232 
f 235/265/235 286/329/286 309/361/309 236/266/236 
f 236/269/236 309/365/309 312/364/312 238/270/238 
f 312/364/312 313/366/313 240/272/240 238/270/238 
f 313/366/313 301/351/301 243/275/243 240/272/240 
f 250/282/250 249/281/249 302/352/302 254/286/254 
f 254/286/254 253/285/253 251/283/251 250/282/250 
f 251/283/251 258/290/258 314/367/314 252/284/252 
f 280/323/280 279/322/279 281/324/281 315/368/315 
f 315/368/315 281/324/281 284/327/284 287/330/287 
f 235/265/235 234/264/234 316/369/316 287/330/287 
f 248/280/248 244/276/244 243/275/243 249/281/249 
f 220/250/220 305/355/305 308/359/308 221/251/221 
f 258/290/258 307/358/307 317/370/317 314/367/314 
f 307/358/307 305/355/305 304/354/304 317/370/317 
f 314/367/314 317/370/317 203/226/203 202/225/202 
f 202/225/202 207/230/207 252/284/252 314/367/314 
f 317/370/317 304/354/304 318/371/318 203/226/203 
f 319/372/319 318/371/318 304/354/304 303/353/303 
f 303/353/303 228/258/228 227/257/227 319/372/319 
f 244/276/244 248/280/248 320/373/320 245/277/245 
f 246/278/246 320/373/320 248/280/248 247/279/247 
f 247/279/247 252/284/252 207/230/207 246/278/246 
# 293 polygons - 5 triangles

