# 3ds Max Wavefront OBJ Exporter v0.99 - (c)2007 guruware
# File Created: 09.05.2025 23:08:56

mtllib ProfesorRightLeg.mtl

#
# object ProfesorRightLeg
#

v  -0.2300 -0.3045 -0.0008
v  -0.2259 -0.3400 -0.0028
v  -0.2002 -0.3394 0.0465
v  -0.2039 -0.3041 0.0521
v  -0.0646 -0.2627 0.0654
v  -0.1124 -0.2637 0.0960
v  -0.1094 -0.3019 0.0865
v  -0.0669 -0.3009 0.0569
v  -0.0940 -0.2634 -0.0787
v  -0.0939 -0.3017 -0.0725
v  -0.1520 -0.3029 -0.0841
v  -0.1533 -0.2646 -0.0863
v  -0.0373 -0.2622 0.0161
v  -0.0318 -0.1927 0.0209
v  -0.0596 -0.1933 0.0786
v  -0.1703 -0.2649 0.0935
v  -0.1166 -0.1945 0.1071
v  -0.1785 -0.1955 0.0996
v  -0.0468 -0.1202 -0.0397
v  -0.0450 -0.0486 -0.0421
v  -0.0203 -0.0482 0.0220
v  -0.0284 -0.1200 0.0248
v  -0.1661 -0.3034 0.0884
v  -0.2127 -0.2660 0.0526
v  -0.2366 -0.2664 -0.0021
v  -0.2048 -0.3040 -0.0537
v  -0.1964 -0.3394 -0.0542
v  -0.1829 -0.0696 0.1225
v  -0.1190 -0.0680 0.1192
v  -0.1200 -0.0446 0.1200
v  -0.2657 -0.0534 0.0039
v  -0.2691 -0.0206 0.0067
v  -0.2380 -0.0204 -0.0600
v  -0.2512 -0.0525 0.0762
v  -0.1831 -0.0450 0.1257
v  -0.2571 -0.0195 0.0813
v  -0.1729 -0.0521 -0.0978
v  -0.1747 -0.0190 -0.0988
v  -0.1006 -0.0173 -0.0886
v  -0.1001 -0.0503 -0.0877
v  -0.1816 -0.1235 0.1121
v  -0.1174 -0.1221 0.1150
v  -0.1660 -0.1226 -0.0949
v  -0.2368 -0.1255 0.0648
v  -0.2581 -0.1249 0.0010
v  -0.2343 -0.0537 -0.0617
v  -0.2257 -0.1239 -0.0606
v  -0.1456 -0.3383 -0.0780
v  -0.1592 -0.1952 -0.0902
v  -0.2072 -0.2657 -0.0573
v  -0.2155 -0.1963 -0.0584
v  -0.2237 -0.1968 0.0579
v  -0.2481 -0.1972 -0.0011
v  -0.0512 -0.2625 -0.0390
v  -0.0472 -0.1930 -0.0404
v  -0.0908 -0.3371 -0.0768
v  -0.0486 -0.0490 0.0933
v  -0.0570 -0.1209 0.0908
v  -0.0981 -0.1219 -0.0847
v  -0.0955 -0.1941 -0.0823
v  -0.1598 -0.3385 0.0810
v  -0.1088 -0.3374 0.0821
v  -0.0681 -0.3366 0.0533
v  -0.0407 -0.3361 0.0118
v  -0.0391 -0.3003 0.0106
v  -0.1767 0.0143 -0.0992
v  -0.1208 -0.0206 0.1218
v  -0.1836 -0.0209 0.1282
v  -0.0440 -0.0159 -0.0437
v  -0.0118 0.0174 0.0164
v  -0.0164 -0.0152 0.0192
v  -0.1015 0.0155 -0.0889
v  -0.0431 0.0166 -0.0450
v  -0.0470 0.0186 0.1154
v  -0.1217 -0.0075 0.1240
v  -0.0278 0.0152 0.0919
v  -0.0382 -0.0150 0.0909
v  -0.1840 -0.0080 0.1305
v  -0.0536 -0.3364 -0.0379
v  -0.0535 -0.3009 -0.0409
v  -0.2584 0.0172 0.1112
v  -0.2649 0.0131 0.0872
# 82 vertices

vn -0.9877 -0.1556 0.0144
vn -0.9906 -0.1361 -0.0149
vn -0.7762 -0.1510 0.6121
vn -0.7795 -0.1910 0.5966
vn 0.7283 -0.1714 0.6635
vn 0.5125 -0.1606 0.8436
vn 0.5582 -0.1412 0.8176
vn 0.7297 -0.1307 0.6711
vn 0.4216 -0.0686 -0.9042
vn 0.3944 -0.0271 -0.9185
vn -0.1647 -0.1292 -0.9778
vn -0.1758 -0.0663 -0.9822
vn 0.9864 -0.0840 0.1416
vn 0.9920 -0.0713 0.1037
vn 0.7195 -0.1417 0.6799
vn -0.3919 -0.1543 0.9070
vn -0.0147 -0.1805 0.9835
vn -0.0828 -0.1357 0.9873
vn -0.4175 -0.1596 0.8946
vn 0.8417 -0.0355 -0.5387
vn 0.8064 -0.0470 -0.5895
vn 0.9933 -0.1157 0.0037
vn 0.9930 -0.0908 0.0750
vn -0.3606 -0.2171 0.9071
vn 0.0205 -0.1957 0.9805
vn -0.8046 -0.1721 0.5684
vn -0.9863 -0.1590 -0.0445
vn -0.7243 -0.1310 -0.6769
vn -0.6661 -0.1536 -0.7299
vn -0.2811 -0.1635 0.9457
vn 0.0264 -0.0816 0.9963
vn 0.0753 -0.0640 0.9951
vn -0.9873 -0.1124 -0.1121
vn -0.9883 -0.0794 -0.1299
vn -0.7487 -0.0286 -0.6622
vn -0.8240 -0.2223 0.5211
vn -0.2434 -0.1227 0.9621
vn -0.8241 -0.2402 0.5131
vn -0.1965 -0.0494 -0.9793
vn -0.2008 -0.0294 -0.9792
vn 0.3971 -0.0120 -0.9177
vn 0.4029 -0.0216 -0.9150
vn -0.3574 -0.1579 0.9205
vn -0.0435 -0.0936 0.9947
vn -0.1830 -0.0695 -0.9807
vn -0.8205 -0.1956 0.5372
vn -0.9887 -0.1327 -0.0703
vn -0.7304 -0.0708 -0.6793
vn -0.7131 -0.1062 -0.6930
vn -0.1695 -0.0887 -0.9815
vn -0.1857 -0.0699 -0.9801
vn -0.7026 -0.1007 -0.7044
vn -0.7026 -0.1126 -0.7026
vn -0.8096 -0.1763 0.5598
vn -0.9864 -0.1531 -0.0603
vn 0.8584 -0.0350 -0.5118
vn 0.8522 -0.0302 -0.5223
vn 0.3886 0.0175 -0.9212
vn 0.4280 -0.1248 0.8951
vn 0.6732 -0.1181 0.7299
vn 0.6864 -0.1119 0.7186
vn 0.4143 -0.0272 -0.9097
vn 0.4114 -0.0304 -0.9109
vn -0.3352 -0.2013 0.9204
vn -0.0170 -0.1410 0.9899
vn 0.7095 -0.0627 0.7019
vn 0.9858 -0.0116 0.1673
vn 0.9916 -0.0531 0.1182
vn 0.5746 -0.0941 0.8130
vn 0.3506 -0.0380 0.9357
vn 0.3590 -0.0466 0.9322
vn -0.2217 -0.0063 -0.9751
vn 0.0965 -0.1148 0.9887
vn -0.1915 -0.1782 0.9652
vn 0.3724 -0.0781 0.9248
vn 0.7816 -0.0559 -0.6212
vn 0.9672 -0.2037 -0.1516
vn 0.9875 -0.1425 -0.0671
vn 0.3789 0.0015 -0.9254
vn 0.7514 -0.0602 -0.6571
vn 0.5085 -0.6687 0.5424
vn 0.2323 -0.4361 0.8694
vn 0.3018 -0.1557 0.9406
vn 0.7690 -0.4330 0.4702
vn 0.7034 -0.2079 0.6797
vn 0.0940 -0.4633 0.8812
vn -0.1000 -0.3959 0.9128
vn 0.8692 0.0105 -0.4943
vn 0.8434 -0.0256 -0.5367
vn -0.7140 -0.6712 0.1991
vn -0.8822 -0.3560 0.3083
# 91 vertex normals

vt 0.3408 0.3810 0.0000
vt 0.3396 0.3575 0.0000
vt 0.3779 0.3540 0.0000
vt 0.3799 0.3769 0.0000
vt 0.0856 0.3932 0.0000
vt 0.0428 0.3868 0.0000
vt 0.0428 0.3633 0.0000
vt 0.0862 0.3679 0.0000
vt 0.2151 0.4020 0.0000
vt 0.2145 0.3753 0.0000
vt 0.2616 0.3767 0.0000
vt 0.2616 0.4030 0.0000
vt 0.1279 0.3976 0.0000
vt 0.1259 0.4453 0.0000
vt 0.0827 0.4407 0.0000
vt 0.4157 0.3959 0.0000
vt 0.4523 0.3869 0.0000
vt 0.4535 0.4286 0.0000
vt 0.4187 0.4408 0.0000
vt 0.1678 0.4978 0.0000
vt 0.1669 0.5480 0.0000
vt 0.1218 0.5476 0.0000
vt 0.1225 0.4962 0.0000
vt 0.4146 0.3717 0.0000
vt 0.4516 0.3635 0.0000
vt 0.3786 0.4027 0.0000
vt 0.3407 0.4072 0.0000
vt 0.3015 0.3805 0.0000
vt 0.2989 0.3565 0.0000
vt 0.4492 0.5187 0.0000
vt 0.4761 0.4915 0.0000
vt 0.4839 0.5029 0.0000
vt 0.3593 0.5543 0.0000
vt 0.3668 0.5795 0.0000
vt 0.3150 0.5776 0.0000
vt 0.4067 0.5491 0.0000
vt 0.4597 0.5342 0.0000
vt 0.4183 0.5746 0.0000
vt 0.2616 0.5479 0.0000
vt 0.2616 0.5716 0.0000
vt 0.2141 0.5722 0.0000
vt 0.2140 0.5478 0.0000
vt 0.4329 0.4859 0.0000
vt 0.4675 0.4668 0.0000
vt 0.2616 0.5000 0.0000
vt 0.3911 0.4987 0.0000
vt 0.3503 0.5045 0.0000
vt 0.3107 0.5530 0.0000
vt 0.3060 0.5044 0.0000
vt 0.2616 0.3524 0.0000
vt 0.2616 0.4504 0.0000
vt 0.3001 0.4067 0.0000
vt 0.3023 0.4542 0.0000
vt 0.3827 0.4494 0.0000
vt 0.3438 0.4546 0.0000
vt 0.1710 0.4000 0.0000
vt 0.1698 0.4475 0.0000
vt 0.2154 0.3514 0.0000
vt 0.0388 0.4285 0.0000
vt 0.0723 0.5429 0.0000
vt 0.0750 0.4912 0.0000
vt 0.2144 0.4985 0.0000
vt 0.2149 0.4490 0.0000
vt 0.4150 0.3493 0.0000
vt 0.4510 0.3422 0.0000
vt 0.0854 0.3450 0.0000
vt 0.1278 0.3476 0.0000
vt 0.1298 0.3715 0.0000
vt 0.0428 0.3419 0.0000
vt 0.0236 0.5395 0.0000
vt 0.0266 0.5219 0.0000
vt 0.2616 0.5957 0.0000
vt 0.4901 0.5109 0.0000
vt 0.4731 0.5477 0.0000
vt 0.0334 0.4830 0.0000
vt 0.1669 0.5731 0.0000
vt 0.1231 0.6001 0.0000
vt 0.1222 0.5739 0.0000
vt 0.2147 0.5966 0.0000
vt 0.1676 0.5980 0.0000
vt 0.0527 0.6010 0.0000
vt 0.0172 0.5632 0.0000
vt 0.0197 0.5559 0.0000
vt 0.0729 0.5982 0.0000
vt 0.0737 0.5712 0.0000
vt 0.4935 0.5131 0.0000
vt 0.4843 0.5534 0.0000
vt 0.1713 0.3497 0.0000
vt 0.1728 0.3736 0.0000
vt 0.4664 0.6045 0.0000
vt 0.4351 0.6016 0.0000
# 91 texture coords

o ProfesorRightLeg
g ProfesorRightLeg
usemtl mat_8_Doctor_Pants_D_jpg
s 1
f 1/1/1 2/2/2 3/3/3 
f 1/1/1 3/3/3 4/4/4 
f 5/5/5 6/6/6 7/7/7 
f 5/5/5 7/7/7 8/8/8 
f 9/9/9 10/10/10 11/11/11 
f 9/9/9 11/11/11 12/12/12 
f 5/5/5 13/13/13 14/14/14 
f 5/5/5 14/14/14 15/15/15 
f 16/16/16 6/17/17 17/18/18 
f 16/16/16 17/18/18 18/19/19 
f 19/20/20 20/21/21 21/22/22 
f 19/20/20 21/22/22 22/23/23 
f 6/17/17 16/16/16 23/24/24 
f 6/17/17 23/24/24 7/25/25 
f 24/26/26 25/27/27 1/1/1 
f 24/26/26 1/1/1 4/4/4 
f 26/28/28 27/29/29 2/2/2 
f 26/28/28 2/2/2 1/1/1 
f 28/30/30 29/31/31 30/32/32 
f 31/33/33 32/34/34 33/35/35 
f 34/36/36 28/30/30 35/37/37 
f 34/36/36 35/37/37 36/38/38 
f 37/39/39 38/40/40 39/41/41 
f 37/39/39 39/41/41 40/42/42 
f 41/43/43 42/44/44 29/31/31 
f 34/36/36 36/38/38 32/34/34 
f 43/45/45 37/39/39 40/42/42 
f 44/46/46 31/33/33 45/47/47 
f 45/47/47 31/33/33 46/48/48 
f 45/47/47 46/48/48 47/49/49 
f 11/11/11 48/50/50 27/29/29 
f 11/11/11 27/29/29 26/28/28 
f 49/51/51 12/12/12 50/52/52 
f 49/51/51 50/52/52 51/53/53 
f 25/27/27 24/26/26 52/54/54 
f 25/27/27 52/54/54 53/55/55 
f 44/46/46 52/54/54 18/19/19 
f 44/46/46 18/19/19 41/43/43 
f 41/43/43 18/19/19 17/18/18 
f 41/43/43 17/18/18 42/44/44 
f 16/16/16 24/26/26 4/4/4 
f 16/16/16 4/4/4 23/24/24 
f 13/13/13 54/56/56 55/57/57 
f 13/13/13 55/57/57 14/14/14 
f 10/10/10 56/58/58 48/50/50 
f 10/10/10 48/50/50 11/11/11 
f 24/26/26 16/16/16 18/19/19 
f 24/26/26 18/19/19 52/54/54 
f 6/6/6 5/5/5 15/15/15 
f 6/6/6 15/15/15 17/59/59 
f 45/47/47 53/55/55 52/54/54 
f 45/47/47 52/54/54 44/46/46 
f 22/23/23 21/22/22 57/60/60 
f 22/23/23 57/60/60 58/61/61 
f 59/62/62 60/63/63 49/51/51 
f 59/62/62 49/51/51 43/45/45 
f 43/45/45 49/51/51 51/53/53 
f 47/49/49 53/55/55 45/47/47 
f 55/57/57 60/63/63 59/62/62 
f 55/57/57 59/62/62 19/20/20 
f 60/63/63 9/9/9 12/12/12 
f 60/63/63 12/12/12 49/51/51 
f 59/62/62 40/42/42 20/21/21 
f 59/62/62 20/21/21 19/20/20 
f 51/53/53 50/52/52 25/27/27 
f 51/53/53 25/27/27 53/55/55 
f 14/14/14 55/57/57 19/20/20 
f 14/14/14 19/20/20 22/23/23 
f 54/56/56 9/9/9 60/63/63 
f 54/56/56 60/63/63 55/57/57 
f 43/45/45 51/53/53 47/49/49 
f 43/45/45 40/42/42 59/62/62 
f 47/49/49 51/53/53 53/55/55 
f 44/46/46 34/36/36 31/33/33 
f 4/4/4 3/3/3 61/64/64 
f 4/4/4 61/64/64 23/24/24 
f 61/64/64 62/65/65 7/25/25 
f 61/64/64 7/25/25 23/24/24 
f 50/52/52 12/12/12 11/11/11 
f 50/52/52 11/11/11 26/28/28 
f 25/27/27 50/52/52 26/28/28 
f 25/27/27 26/28/28 1/1/1 
f 8/8/8 63/66/66 64/67/67 
f 8/8/8 64/67/67 65/68/68 
f 62/69/69 63/66/66 8/8/8 
f 30/70/70 29/71/71 57/60/60 
f 41/43/43 29/31/31 28/30/30 
f 44/46/46 41/43/43 28/30/30 
f 44/46/46 28/30/30 34/36/36 
f 33/35/35 66/72/72 38/40/40 
f 34/36/36 32/34/34 31/33/33 
f 31/33/33 33/35/35 46/48/48 
f 67/73/73 68/74/74 35/37/37 
f 67/73/73 35/37/37 30/32/32 
f 29/71/71 42/75/75 58/61/61 
f 29/71/71 58/61/61 57/60/60 
f 69/76/76 70/77/77 71/78/78 
f 38/40/40 66/72/72 72/79/79 
f 38/40/40 72/79/79 39/41/41 
f 69/76/76 73/80/80 70/77/77 
f 20/21/21 39/41/41 69/76/76 
f 74/81/81 75/82/82 67/83/83 
f 74/81/81 67/83/83 76/84/84 
f 30/70/70 57/60/60 77/85/85 
f 47/49/49 46/48/48 37/39/39 
f 47/49/49 37/39/39 43/45/45 
f 15/15/15 14/14/14 22/23/23 
f 15/15/15 22/23/23 58/61/61 
f 21/22/22 71/78/78 77/85/85 
f 21/22/22 77/85/85 57/60/60 
f 20/21/21 69/76/76 71/78/78 
f 20/21/21 71/78/78 21/22/22 
f 67/83/83 30/70/70 77/85/85 
f 67/83/83 77/85/85 76/84/84 
f 72/79/79 73/80/80 69/76/76 
f 28/30/30 30/32/32 35/37/37 
f 68/74/74 67/73/73 75/86/86 
f 68/74/74 75/86/86 78/87/87 
f 65/68/68 64/67/67 79/88/88 
f 65/68/68 79/88/88 80/89/89 
f 81/90/90 82/91/91 68/74/74 
f 81/90/90 68/74/74 78/87/87 
f 71/78/78 70/77/77 76/84/84 
f 71/78/78 76/84/84 77/85/85 
f 72/79/79 69/76/76 39/41/41 
f 46/48/48 33/35/35 38/40/40 
f 46/48/48 38/40/40 37/39/39 
f 17/59/59 15/15/15 58/61/61 
f 17/59/59 58/61/61 42/75/75 
f 68/74/74 82/91/91 36/38/38 
f 68/74/74 36/38/38 35/37/37 
f 20/21/21 40/42/42 39/41/41 
f 62/69/69 8/8/8 7/7/7 
f 13/13/13 5/5/5 8/8/8 
f 13/13/13 8/8/8 65/68/68 
f 54/56/56 13/13/13 65/68/68 
f 54/56/56 65/68/68 80/89/89 
f 80/89/89 79/88/88 56/58/58 
f 80/89/89 56/58/58 10/10/10 
f 9/9/9 54/56/56 80/89/89 
f 9/9/9 80/89/89 10/10/10 
# 0 polygons - 141 triangles

