# 3ds Max Wavefront OBJ Exporter v0.99 - (c)2007 guruware
# File Created: 09.05.2025 23:10:20

mtllib ProfesorSubLeftLeg.mtl

#
# object ProfesorSubLeftLeg
#

v  0.1806 -0.4033 0.0550
v  0.1336 -0.4056 0.0574
v  0.1379 -0.4733 0.0573
v  0.1858 -0.4728 0.0574
v  0.0822 -0.4084 -0.0421
v  0.1153 -0.4075 -0.0688
v  0.1149 -0.4746 -0.0690
v  0.0796 -0.4750 -0.0425
v  0.2202 -0.4017 0.0271
v  0.2246 -0.4725 0.0266
v  0.0731 0.0056 -0.0961
v  0.0797 -0.0318 -0.0902
v  0.0357 -0.0327 -0.0584
v  0.0323 0.0050 -0.0618
v  0.0966 -0.1039 0.0667
v  0.0485 -0.1054 0.0350
v  0.0570 -0.1423 0.0372
v  0.1023 -0.1405 0.0651
v  0.0917 -0.0674 0.0676
v  0.0456 -0.0686 0.0373
v  0.0424 -0.0689 -0.0586
v  0.0817 -0.0679 -0.0896
v  0.0853 0.0061 0.0631
v  0.0867 -0.0313 0.0632
v  0.1384 -0.0305 0.0601
v  0.0625 -0.2075 -0.0557
v  0.0981 -0.2061 -0.0902
v  0.1061 -0.2678 -0.0824
v  0.1911 0.0077 -0.0263
v  0.1923 -0.0295 -0.0257
v  0.1674 -0.0301 -0.0634
v  0.1643 0.0072 -0.0678
v  0.1776 0.0076 0.0234
v  0.1818 -0.0296 0.0253
v  0.0463 -0.1056 -0.0585
v  0.0226 -0.1063 -0.0142
v  0.0167 -0.0695 -0.0120
v  0.1299 -0.0666 -0.0906
v  0.1259 -0.0308 -0.0908
v  0.1714 -0.0653 -0.0657
v  0.2153 -0.1362 -0.0240
v  0.2013 -0.1368 0.0317
v  0.2094 -0.2011 0.0307
v  0.2237 -0.2005 -0.0240
v  0.0419 -0.2084 -0.0085
v  0.0293 -0.1435 -0.0110
v  0.0516 -0.1426 -0.0583
v  0.1570 -0.1385 0.0671
v  0.1654 -0.2029 0.0641
v  0.0695 -0.2071 0.0349
v  0.1460 -0.0659 0.0630
v  0.1508 -0.1021 0.0660
v  0.1976 -0.0644 -0.0237
v  0.2070 -0.1000 -0.0239
v  0.1818 -0.1011 -0.0673
v  0.0348 0.0052 0.0389
v  0.0059 0.0047 -0.0126
v  0.0108 -0.0328 -0.0122
v  0.0389 -0.0322 0.0360
v  0.0545 -0.2711 -0.0058
v  0.0810 -0.2685 0.0333
v  0.1871 -0.0649 0.0276
v  0.1359 -0.1028 -0.0938
v  0.0852 -0.1044 -0.0925
v  0.1943 -0.1004 0.0297
v  0.1240 0.0065 -0.0968
v  0.0889 -0.1412 -0.0940
v  0.1875 -0.1374 -0.0716
v  0.0728 -0.2697 -0.0500
v  0.1129 -0.2052 0.0607
v  0.1970 -0.2018 -0.0722
v  0.1408 -0.1393 -0.0962
v  0.1127 -0.5734 -0.0759
v  0.1227 -0.5727 -0.0607
v  0.0906 -0.5731 -0.0390
v  0.0738 -0.5737 -0.0456
v  0.1220 -0.2651 0.0579
v  0.1585 -0.4738 -0.0794
v  0.2287 -0.4021 -0.0215
v  0.2296 -0.4725 -0.0217
v  0.1576 -0.4059 -0.0787
v  0.1989 -0.4038 -0.0588
v  0.1985 -0.4729 -0.0573
v  0.1022 -0.5741 0.0373
v  0.1398 -0.5760 0.0513
v  0.1361 -0.5757 0.0708
v  0.0906 -0.5742 0.0515
v  0.0818 -0.3357 -0.0454
v  0.0651 -0.3368 -0.0053
v  0.0782 -0.5737 0.0014
v  0.0589 -0.5746 0.0060
v  0.0898 -0.3347 0.0320
v  0.0685 -0.4749 0.0010
v  0.0571 -0.5333 0.0060
v  0.0891 -0.5342 0.0466
v  0.0979 -0.4739 0.0349
v  0.0944 -0.4074 0.0338
v  0.0678 -0.4087 -0.0012
v  0.0741 -0.5324 -0.0451
v  0.1359 -0.5329 0.0694
v  0.1858 -0.5715 0.0504
v  0.1925 -0.5712 0.0688
v  0.1544 -0.2641 -0.0902
v  0.1490 -0.2039 -0.0954
v  0.2003 -0.2603 -0.0675
v  0.1295 -0.3319 0.0560
v  0.2242 -0.5687 0.0215
v  0.2241 -0.5708 -0.0206
v  0.2405 -0.5703 -0.0263
v  0.2417 -0.5680 0.0321
v  0.1717 -0.2615 0.0608
v  0.2143 -0.2580 0.0299
v  0.2280 -0.2575 -0.0223
v  0.1583 -0.5719 -0.0832
v  0.1585 -0.5719 -0.0670
v  0.2071 -0.5720 -0.0662
v  0.1957 -0.5722 -0.0522
v  0.2044 -0.5310 -0.0642
v  0.2385 -0.5267 -0.0246
v  0.2006 -0.3284 -0.0631
v  0.1579 -0.3317 -0.0852
v  0.1161 -0.5337 -0.0745
v  0.1132 -0.3343 -0.0753
v  0.1574 -0.5347 -0.0829
v  0.2374 -0.5261 0.0343
v  0.1893 -0.5309 0.0678
v  0.1776 -0.3286 0.0560
v  0.2189 -0.3259 0.0273
v  0.2303 -0.3260 -0.0230
v  0.1399 0.0071 0.0621
v  -0.0318 -0.6838 -0.0457
v  -0.0320 -0.6692 -0.0284
v  -0.0030 -0.6809 -0.0453
v  -0.0065 -0.6615 -0.0263
v  -0.0547 -0.6751 -0.0297
v  -0.0707 -0.6788 -0.0358
v  -0.0763 -0.6755 -0.0232
v  -0.0703 -0.6830 -0.0468
v  -0.0802 -0.6799 -0.0396
v  -0.1151 -0.6779 -0.0294
v  -0.1048 -0.7002 -0.0502
v  -0.1309 -0.6881 -0.0285
v  -0.0944 -0.6872 -0.0482
v  -0.0543 -0.6840 -0.0470
v  -0.1353 -0.7021 -0.0253
v  -0.1104 -0.7139 -0.0453
v  -0.1414 -0.6993 -0.0021
v  -0.1396 -0.6847 -0.0037
v  -0.0942 -0.6757 -0.0260
v  -0.0840 -0.7252 -0.0561
v  -0.0799 -0.7100 -0.0604
v  0.1315 -0.6873 0.0631
v  0.0882 -0.6998 0.0670
v  0.0962 -0.7249 0.0514
v  0.0773 -0.6741 0.0609
v  0.0602 -0.6537 0.0432
v  0.0304 -0.6789 0.0496
v  -0.0547 -0.6978 -0.0599
v  -0.0552 -0.7140 -0.0650
v  -0.0724 -0.6948 -0.0572
v  -0.0295 -0.7153 -0.0648
v  0.0043 -0.7137 -0.0607
v  -0.0324 -0.7310 -0.0633
v  0.0104 -0.7281 -0.0575
v  0.2130 -0.6717 -0.0564
v  0.2094 -0.7128 -0.0522
v  0.1723 -0.6732 -0.0634
v  0.1702 -0.7133 -0.0566
v  -0.0301 -0.6999 -0.0603
v  0.0521 -0.7180 -0.0472
v  0.0448 -0.7000 -0.0521
v  0.1303 -0.6780 -0.0619
v  0.1379 -0.7125 -0.0480
v  0.0009 -0.6979 -0.0565
v  0.0385 -0.6816 -0.0544
v  -0.0326 -0.7043 0.0692
v  -0.0560 -0.7016 0.0596
v  -0.0565 -0.7183 0.0641
v  0.0085 -0.7210 0.0785
v  0.0072 -0.7058 0.0730
v  -0.0329 -0.7199 0.0726
v  -0.0771 -0.6971 0.0512
v  -0.0551 -0.6902 0.0422
v  0.0482 -0.7127 0.0738
v  0.0402 -0.6947 0.0649
v  -0.0330 -0.7338 0.0692
v  0.0531 -0.7311 0.0653
v  0.0094 -0.7348 0.0748
v  0.0020 -0.6907 0.0522
v  0.1372 -0.7141 0.0488
v  0.1193 -0.6431 0.0521
v  0.0868 -0.6903 -0.0555
v  -0.0325 -0.6906 0.0504
v  -0.0701 -0.6869 0.0346
v  -0.0342 -0.7359 0.0732
v  0.0089 -0.7365 0.0781
v  0.0107 -0.7294 -0.0616
v  -0.0329 -0.7321 -0.0682
v  -0.0541 -0.7319 0.0612
v  -0.0553 -0.7338 0.0661
v  -0.0538 -0.7306 -0.0621
v  -0.0543 -0.7318 -0.0657
v  -0.0858 -0.7260 -0.0590
v  0.2400 -0.7127 -0.0293
v  0.2360 -0.7157 -0.0386
v  0.2102 -0.7158 -0.0540
v  0.2366 -0.7444 0.0311
v  0.2365 -0.7156 0.0318
v  0.2096 -0.7445 0.0468
v  0.2095 -0.7157 0.0468
v  0.1382 -0.7242 -0.0505
v  0.1396 -0.7434 -0.0508
v  0.1422 -0.7257 0.0036
v  0.2058 -0.6314 -0.0497
v  0.0955 -0.7137 -0.0451
v  0.0529 -0.7196 -0.0504
v  0.0940 -0.7124 -0.0391
v  -0.0708 -0.6830 0.0239
v  -0.0820 -0.6830 0.0286
v  -0.0989 -0.6900 0.0378
v  -0.0827 -0.7111 0.0556
v  -0.1396 -0.7029 -0.0258
v  -0.1460 -0.6991 -0.0021
v  -0.1144 -0.7139 -0.0473
v  -0.1407 -0.7041 0.0207
v  -0.1369 -0.7034 0.0195
v  -0.1487 -0.7073 -0.0021
v  -0.1422 -0.7097 -0.0256
v  0.0532 -0.7426 0.0676
v  0.0968 -0.7359 0.0538
v  0.0533 -0.7326 0.0673
v  0.0967 -0.7269 0.0562
v  0.2361 -0.7445 -0.0379
v  0.2103 -0.7446 -0.0540
v  0.1697 -0.7446 0.0549
v  0.1696 -0.7158 0.0547
v  0.0108 -0.7392 -0.0648
v  0.0530 -0.7299 -0.0512
v  -0.0348 -0.7439 0.0736
v  -0.0567 -0.7417 0.0676
v  0.0956 -0.7226 -0.0422
v  0.0090 -0.7456 0.0788
v  -0.0894 -0.7347 0.0558
v  -0.0868 -0.7265 0.0550
v  -0.1185 -0.7236 0.0418
v  -0.1159 -0.7154 0.0414
v  -0.0549 -0.6701 -0.0076
v  -0.0320 -0.6667 -0.0066
v  0.0188 -0.6422 -0.0058
v  0.0201 -0.6463 -0.0271
v  -0.0073 -0.6556 -0.0055
v  -0.0550 -0.6803 0.0172
v  -0.0884 -0.7344 -0.0597
v  -0.1170 -0.7222 -0.0476
v  -0.1433 -0.7109 0.0207
v  -0.0762 -0.6773 0.0084
v  -0.0789 -0.6744 -0.0085
v  -0.0960 -0.6762 0.0128
v  -0.1004 -0.6732 -0.0068
v  -0.1172 -0.6808 0.0205
v  -0.1216 -0.6747 -0.0044
v  -0.1117 -0.7006 0.0419
v  -0.1344 -0.6898 0.0219
v  -0.1121 -0.7153 0.0399
v  -0.0849 -0.7256 0.0523
v  0.2477 -0.7156 -0.0221
v  0.2401 -0.7126 0.0239
v  0.2475 -0.7156 0.0182
v  0.2501 -0.7126 -0.0048
v  0.1423 -0.7447 0.0036
v  0.1390 -0.7446 0.0490
v  0.2478 -0.7444 -0.0216
v  0.2528 -0.7156 -0.0048
v  0.2087 -0.7127 0.0450
v  0.1694 -0.7132 0.0517
v  0.1382 -0.7144 -0.0505
v  0.2475 -0.7444 0.0177
v  0.1753 -0.6801 0.0594
v  0.2467 -0.6713 -0.0372
v  0.2123 -0.6754 0.0506
v  0.2579 -0.6734 -0.0053
v  0.1672 -0.6346 -0.0553
v  0.2469 -0.6727 0.0256
v  0.2361 -0.6285 0.0236
v  0.2095 -0.6299 0.0399
v  0.2481 -0.6279 -0.0047
v  -0.0569 -0.7401 -0.0664
v  -0.0540 -0.7430 -0.0014
v  -0.0871 -0.7360 -0.0027
v  0.0298 -0.6654 -0.0465
v  0.0973 -0.7334 0.0019
v  -0.0321 -0.6780 0.0201
v  0.0207 -0.6560 0.0219
v  0.0459 -0.6341 0.0224
v  0.1376 -0.7257 0.0515
v  0.2529 -0.7444 -0.0047
v  0.1705 -0.7447 -0.0614
v  -0.1365 -0.7137 -0.0020
v  -0.1194 -0.7230 -0.0025
v  0.0968 -0.6021 -0.0504
v  0.1191 -0.6383 -0.0568
v  0.0605 -0.6482 -0.0480
v  0.0761 -0.6651 -0.0551
v  0.0409 -0.6268 -0.0049
v  0.0680 -0.5861 -0.0043
v  0.0453 -0.6313 -0.0299
v  0.0764 -0.5887 -0.0325
v  0.0788 -0.5904 0.0256
v  0.0988 -0.6039 0.0451
v  0.1430 -0.5570 0.0459
v  0.1471 -0.5282 0.0468
v  0.1225 -0.5261 0.0462
v  0.1174 -0.5519 0.0456
v  0.1347 -0.5934 0.0467
v  0.1724 -0.5600 0.0445
v  0.1753 -0.5310 0.0447
v  0.1693 -0.6346 0.0520
v  0.1696 -0.5945 0.0488
v  0.2172 -0.5601 -0.0290
v  0.1988 -0.5611 -0.0454
v  0.2168 -0.5358 -0.0301
v  0.2004 -0.5347 -0.0476
v  0.2160 -0.5339 0.0196
v  0.2173 -0.5600 0.0193
v  0.2227 -0.5348 -0.0052
v  0.2244 -0.5593 -0.0052
v  0.1987 -0.5609 0.0360
v  0.2014 -0.5931 0.0385
v  0.1376 -0.7159 0.0513
v  -0.0040 -0.6706 0.0216
v  0.1705 -0.7159 -0.0596
v  0.0531 -0.7406 0.0055
v  0.0105 -0.7430 0.0052
v  -0.0323 -0.7443 0.0005
v  -0.0330 -0.7404 -0.0697
v  0.2365 -0.6291 -0.0344
v  0.0834 -0.5446 -0.0038
v  0.0975 -0.5453 0.0284
v  0.0936 -0.5228 0.0205
v  0.0942 -0.5219 -0.0266
v  0.0971 -0.5433 -0.0349
v  0.0896 -0.5024 -0.0044
v  0.0875 -0.5202 -0.0041
v  0.0950 -0.5032 0.0215
v  0.1060 -0.5222 0.0383
v  0.1994 -0.5344 0.0362
v  0.2013 -0.5933 -0.0461
v  0.2242 -0.5913 -0.0299
v  0.1108 -0.5382 0.0303
v  0.2246 -0.5908 0.0206
v  0.2324 -0.5904 -0.0053
v  0.1726 -0.5598 -0.0535
v  0.1762 -0.5309 -0.0561
v  0.1691 -0.5951 -0.0539
v  0.1428 -0.5569 -0.0532
v  0.1336 -0.5935 -0.0533
v  0.1168 -0.5512 -0.0516
v  0.1477 -0.5272 -0.0571
v  0.1063 -0.5213 -0.0458
v  0.1229 -0.5245 -0.0542
v  0.1079 -0.5093 0.0299
v  0.0934 -0.5035 -0.0271
v  0.1106 -0.5359 -0.0320
v  0.1086 -0.5084 -0.0363
v  0.1104 -0.5369 -0.0363
v  0.1108 -0.5371 0.0251
# 366 vertices

vn 0.3140 0.0273 0.9490
vn -0.2402 -0.0025 0.9707
vn -0.2422 0.0968 0.9654
vn 0.3146 0.1269 0.9407
vn -0.8124 -0.0079 -0.5830
vn -0.4454 -0.0347 -0.8947
vn -0.4279 0.0493 -0.9025
vn -0.8257 0.0610 -0.5608
vn 0.8449 0.0383 0.5335
vn 0.8733 0.1438 0.4655
vn -0.3289 -0.2007 -0.9228
vn -0.3089 -0.1242 -0.9429
vn -0.7562 -0.1394 -0.6393
vn -0.7709 -0.1477 -0.6195
vn -0.2634 -0.0558 0.9631
vn -0.7342 -0.1164 0.6689
vn -0.7023 -0.1397 0.6981
vn -0.2753 -0.0878 0.9573
vn -0.2463 0.0092 0.9691
vn -0.7058 -0.0896 0.7027
vn -0.7515 -0.1038 -0.6515
vn -0.3509 -0.0048 -0.9364
vn -0.1753 -0.0866 0.9807
vn -0.2496 0.0273 0.9680
vn 0.3553 0.0710 0.9320
vn -0.8055 -0.1706 -0.5675
vn -0.4039 -0.1300 -0.9055
vn -0.4359 -0.1419 -0.8887
vn 0.9877 -0.0169 -0.1554
vn 0.9781 0.0972 -0.1840
vn 0.7070 0.0469 -0.7057
vn 0.7158 -0.0682 -0.6950
vn 0.8640 0.0080 0.5035
vn 0.8461 0.1464 0.5125
vn -0.7779 -0.0999 -0.6204
vn -0.9859 -0.1651 -0.0263
vn -0.9879 -0.1539 0.0175
vn 0.5197 0.1176 -0.8462
vn 0.5615 -0.0170 -0.8273
vn 0.6758 0.1695 -0.7173
vn 0.9750 0.1760 -0.1354
vn 0.8290 0.1402 0.5413
vn 0.8284 0.0778 0.5547
vn 0.9868 0.0928 -0.1329
vn -0.9791 -0.1911 0.0697
vn -0.9829 -0.1806 0.0347
vn -0.7991 -0.1349 -0.5858
vn 0.3134 0.0383 0.9489
vn 0.2941 -0.0093 0.9557
vn -0.6836 -0.1501 0.7143
vn 0.3705 0.1241 0.9205
vn 0.3299 0.0964 0.9391
vn 0.9668 0.1988 -0.1605
vn 0.9617 0.2339 -0.1426
vn 0.6879 0.1999 -0.6978
vn -0.6728 -0.1530 0.7238
vn -0.9909 -0.1346 0.0032
vn -0.9891 -0.1461 0.0166
vn -0.6970 -0.1077 0.7089
vn -0.9780 -0.1800 0.1051
vn -0.6746 -0.1263 0.7273
vn 0.8435 0.1788 0.5065
vn -0.0240 0.0394 -0.9989
vn -0.0343 0.0661 -0.9972
vn -0.3694 0.0131 -0.9292
vn -0.0141 -0.0835 -0.9964
vn 0.4955 0.1458 -0.8563
vn 0.8327 0.1949 0.5183
vn -0.0120 -0.1432 -0.9896
vn 0.5808 -0.1007 -0.8078
vn -0.3880 -0.0527 -0.9201
vn 0.6741 0.1431 -0.7246
vn -0.8106 -0.1705 -0.5602
vn -0.2868 -0.0965 0.9531
vn 0.6845 0.0423 -0.7278
vn 0.4721 0.0969 -0.8762
vn -0.0556 0.0021 -0.9985
vn -0.2900 -0.6488 -0.7035
vn 0.0292 -0.9994 0.0190
vn 0.0334 -0.9994 0.0124
vn -0.6182 -0.6519 -0.4391
vn -0.2878 -0.0752 0.9547
vn -0.2251 0.0403 -0.9735
vn 0.9696 0.0036 -0.2447
vn 0.9505 0.0881 -0.2979
vn 0.4450 -0.0441 -0.8945
vn 0.6238 -0.0382 -0.7807
vn 0.6210 0.0735 -0.7804
vn 0.4553 0.0609 -0.8883
vn -0.0155 -0.9998 -0.0139
vn 0.0239 -0.9995 0.0207
vn -0.1215 -0.6612 0.7403
vn -0.4961 -0.6277 0.5999
vn -0.8123 -0.0994 -0.5747
vn -0.9915 -0.0872 0.0962
vn 0.0367 -0.9993 -0.0103
vn -0.7496 -0.6476 0.1370
vn -0.6839 -0.0578 0.7273
vn -0.9740 0.0924 0.2068
vn -0.9795 0.0838 0.1834
vn -0.6327 0.1366 0.7623
vn -0.6250 0.1002 0.7742
vn -0.6624 -0.0160 0.7490
vn -0.9868 -0.0127 0.1613
vn -0.8115 0.0699 -0.5802
vn -0.2252 -0.0432 -0.9734
vn -0.2088 0.1272 0.9696
vn 0.0739 -0.9972 -0.0069
vn 0.2922 -0.6220 0.7264
vn 0.4468 -0.0462 -0.8935
vn 0.4419 0.0140 -0.8969
vn 0.6764 -0.0162 -0.7363
vn -0.2640 -0.0390 0.9637
vn 0.0373 -0.9992 0.0137
vn 0.0406 -0.9987 0.0305
vn 0.7468 -0.6092 -0.2666
vn 0.7432 -0.5717 0.3476
vn 0.2918 -0.0221 0.9562
vn 0.8220 0.0463 0.5676
vn 0.9879 0.0566 -0.1441
vn -0.1165 -0.6656 -0.7372
vn 0.0252 -0.9997 0.0044
vn 0.4582 -0.6266 -0.6304
vn 0.0175 -0.9998 -0.0055
vn -0.0018 -1.0000 0.0001
vn 0.2616 -0.6032 -0.7535
vn 0.5843 0.0974 -0.8057
vn 0.9333 0.1291 -0.3352
vn 0.6476 -0.0456 -0.7606
vn 0.4577 -0.0539 -0.8875
vn -0.3834 0.0613 -0.9216
vn -0.1525 -0.0896 -0.9842
vn -0.1989 -0.0962 -0.9753
vn -0.4596 -0.1147 -0.8807
vn -0.1977 0.0304 -0.9798
vn 0.8674 0.1605 0.4710
vn 0.2960 0.1177 0.9479
vn 0.3083 -0.0189 0.9511
vn 0.8335 0.0145 0.5524
vn 0.9801 -0.0053 -0.1984
vn 0.3538 0.0421 -0.9344
vn -0.1101 -0.0750 -0.9911
vn 0.3814 0.0189 0.9242
vn -0.0413 0.7367 -0.6749
vn -0.1873 0.8870 -0.4221
vn -0.1457 0.6087 -0.7799
vn -0.3459 0.7957 -0.4972
vn -0.1088 0.9238 -0.3672
vn -0.0180 0.9425 -0.3338
vn -0.0538 0.9809 -0.1869
vn -0.0724 0.8019 -0.5930
vn -0.0615 0.8922 -0.4475
vn -0.3071 0.8333 -0.4597
vn -0.4600 0.1755 -0.8704
vn -0.6853 0.4501 -0.5726
vn -0.2247 0.6354 -0.7388
vn 0.0214 0.7984 -0.6017
vn -0.5311 0.6334 -0.5628
vn -0.2140 0.5672 -0.7953
vn -0.5751 0.7722 -0.2700
vn -0.8086 0.4955 -0.3171
vn -0.0335 0.9638 -0.2644
vn -0.0955 0.5379 -0.8376
vn -0.2692 0.0460 -0.9620
vn 0.0630 -0.0862 0.9943
vn 0.1449 -0.0880 0.9855
vn 0.1067 0.3544 0.9290
vn -0.1126 0.3851 0.9160
vn -0.3512 0.4642 0.8131
vn -0.2823 0.6365 0.7178
vn -0.0119 0.4950 -0.8688
vn -0.0959 0.0521 -0.9940
vn -0.1212 0.4984 -0.8584
vn 0.0670 0.0813 -0.9944
vn 0.1513 0.0550 -0.9870
vn 0.0205 0.5992 -0.8004
vn 0.0705 0.5694 -0.8190
vn 0.3510 0.0201 -0.9362
vn 0.3422 0.2509 -0.9055
vn 0.0577 0.0279 -0.9979
vn -0.0375 0.3361 -0.9411
vn 0.0390 0.4683 -0.8827
vn 0.0640 0.3786 -0.9233
vn 0.0897 -0.1207 -0.9886
vn -0.0863 -0.1235 -0.9886
vn -0.1995 0.2523 -0.9469
vn 0.0344 0.3791 -0.9247
vn -0.0690 0.1316 -0.9889
vn -0.1608 0.5274 0.8343
vn -0.2150 0.5810 0.7850
vn -0.3208 -0.0088 0.9471
vn -0.0106 0.0210 0.9997
vn -0.0517 0.5606 0.8264
vn -0.2331 -0.0038 0.9724
vn -0.1996 0.6451 0.7375
vn -0.0902 0.8846 0.4575
vn 0.1506 0.0421 0.9877
vn -0.0852 0.5372 0.8391
vn -0.1889 0.4550 0.8702
vn 0.1966 0.2965 0.9346
vn 0.0191 0.4453 0.8952
vn -0.1154 0.7909 0.6010
vn -0.0435 0.1740 0.9838
vn -0.0704 0.2020 0.9769
vn 0.0008 -0.2961 -0.9552
vn -0.1111 0.8508 0.5136
vn 0.0096 0.9001 0.4357
vn -0.1411 0.5339 0.8337
vn 0.0377 0.5202 0.8532
vn 0.0699 0.6875 -0.7228
vn -0.0078 0.6598 -0.7514
vn -0.2076 0.4759 0.8546
vn -0.1619 0.6480 0.7442
vn -0.0525 0.5493 -0.8340
vn -0.0732 0.6171 -0.7835
vn -0.0681 0.5920 -0.8031
vn 0.7597 0.2919 -0.5811
vn 0.5980 0.4377 -0.6714
vn 0.3215 0.2790 -0.9049
vn 0.6507 -0.0133 0.7592
vn 0.5715 0.4200 0.7050
vn 0.3497 -0.0013 0.9369
vn 0.3309 0.2833 0.9001
vn -0.7169 -0.6963 0.0343
vn -0.6505 -0.7590 0.0264
vn -0.6821 -0.7294 -0.0529
vn 0.3076 0.1774 -0.9348
vn -0.0448 0.5404 -0.8402
vn 0.0756 0.5735 -0.8157
vn 0.0002 0.3202 -0.9473
vn 0.0510 0.9417 0.3325
vn 0.0235 0.9052 0.4243
vn -0.1790 0.7286 0.6611
vn -0.3577 0.1284 0.9250
vn -0.5459 0.6723 -0.5000
vn -0.5792 0.7653 -0.2807
vn -0.1949 0.6294 -0.7523
vn -0.5619 0.7706 0.3006
vn -0.5203 0.6781 0.5191
vn -0.6230 0.7292 0.2831
vn -0.5217 0.6607 0.5397
vn -0.9071 0.3022 -0.2929
vn -0.7753 0.2851 -0.5636
vn 0.2644 0.0326 0.9639
vn 0.2047 -0.2302 0.9514
vn 0.1814 0.4531 0.8728
vn 0.0662 0.4404 0.8954
vn 0.6855 -0.0145 -0.7279
vn 0.3457 0.0072 -0.9383
vn 0.0346 -0.0168 0.9993
vn 0.0365 0.4014 0.9152
vn 0.1697 0.2972 -0.9396
vn 0.2195 0.0944 -0.9710
vn -0.1854 0.0634 0.9806
vn -0.2839 0.2177 0.9338
vn 0.0207 -0.2647 -0.9641
vn 0.0631 0.0752 0.9952
vn -0.3254 0.1923 0.9258
vn -0.1266 0.6219 0.7728
vn -0.4638 0.1864 0.8661
vn -0.2159 0.6308 0.7453
vn -0.1558 0.9731 -0.1695
vn -0.2394 0.9597 -0.1471
vn -0.5065 0.8410 -0.1904
vn -0.4621 0.7337 -0.4981
vn -0.4325 0.8671 -0.2471
vn -0.0787 0.9263 0.3684
vn -0.2487 0.1625 -0.9548
vn -0.4485 0.1713 -0.8772
vn -0.9099 0.3080 0.2778
vn -0.7664 0.2914 0.5725
vn 0.0187 0.9632 0.2681
vn -0.1253 0.9327 0.3383
vn -0.0632 0.9933 -0.0969
vn 0.0002 0.9557 0.2943
vn -0.0403 0.9849 0.1684
vn -0.0347 0.9898 -0.1384
vn -0.2446 0.8513 0.4642
vn -0.2747 0.9294 0.2463
vn -0.3404 0.9133 -0.2236
vn 0.0024 0.9886 0.1508
vn -0.4607 0.2739 0.8443
vn -0.7050 0.4629 0.5373
vn -0.2410 0.5575 0.7944
vn -0.7665 0.5826 0.2704
vn -0.1633 0.5348 0.8290
vn 0.8199 0.4221 -0.3867
vn 0.7432 0.3218 0.5866
vn 0.8148 0.4383 0.3794
vn 0.9092 0.3110 0.2768
vn 0.0028 -1.0000 0.0002
vn 0.0017 -1.0000 0.0004
vn -0.6909 -0.7229 -0.0101
vn -0.6916 -0.7196 -0.0620
vn 0.8985 -0.0034 -0.4389
vn 0.9072 0.3256 -0.2664
vn 0.9175 0.3352 0.2143
vn 0.3584 0.2193 0.9074
vn 0.0678 0.2826 0.9568
vn -0.1870 0.4433 -0.8767
vn 0.8975 -0.0028 0.4409
vn 0.8942 0.3080 -0.3249
vn 0.1536 -0.0231 0.9879
vn 0.7688 -0.0098 -0.6395
vn 0.4144 0.0312 0.9096
vn 0.9411 -0.0089 -0.3379
vn 0.0593 0.1185 -0.9912
vn 0.8007 0.0305 0.5983
vn 0.7325 0.2516 0.6326
vn 0.4184 0.1804 0.8902
vn 0.8844 0.2879 0.3673
vn 0.8918 0.2888 -0.3482
vn 0.9416 0.0037 0.3367
vn -0.0951 -0.9947 -0.0400
vn -0.1282 -0.9917 -0.0136
vn -0.2786 -0.9601 -0.0255
vn -0.2904 -0.9569 -0.0096
vn -0.2856 0.4563 -0.8428
vn 0.1160 -0.9792 -0.1663
vn 0.1681 -0.9758 -0.1398
vn -0.2590 0.0059 -0.9659
vn -0.1948 0.9060 0.3758
vn -0.2696 -0.9629 0.0096
vn -0.1439 -0.9896 0.0074
vn -0.4612 0.6807 0.5692
vn -0.6085 0.5507 0.5713
vn -0.5152 -0.8533 -0.0809
vn 0.9730 0.0031 0.2307
vn 0.0026 -1.0000 0.0015
vn -0.0136 -0.9999 -0.0054
vn 0.0025 -1.0000 0.0011
vn 0.0025 -1.0000 0.0008
vn 0.0025 -1.0000 0.0012
vn -0.4710 -0.8815 -0.0339
vn -0.4227 -0.9060 -0.0241
vn -0.4616 -0.8870 -0.0147
vn -0.3919 -0.9200 0.0009
vn -0.4646 -0.8849 -0.0338
vn -0.4715 -0.8809 -0.0400
vn -0.3195 0.1663 -0.9329
vn -0.0673 0.1074 -0.9919
vn -0.2914 0.3327 -0.8969
vn -0.1240 0.1158 -0.9855
vn -0.6846 0.6908 -0.2327
vn -0.8471 0.4487 -0.2847
vn -0.5778 0.5897 -0.5643
vn -0.7169 0.3688 -0.5917
vn -0.6888 0.6588 0.3025
vn -0.8286 0.4372 0.3497
vn -0.7141 0.3609 0.5999
vn -0.3256 0.1834 0.9276
vn 0.0035 0.0113 0.9999
vn 0.0168 -0.0271 0.9995
vn -0.2198 0.0175 0.9754
vn -0.3093 0.0471 0.9498
vn -0.0477 0.0612 0.9970
vn 0.1869 0.0419 0.9815
vn 0.1998 -0.0262 0.9795
vn 0.1168 0.1493 0.9819
vn 0.1294 0.0836 0.9881
vn 0.8284 0.0787 -0.5546
vn 0.4952 -0.0100 -0.8687
vn 0.8577 -0.0162 -0.5139
vn 0.5159 -0.1080 -0.8498
vn 0.8619 0.0398 0.5055
vn 0.8361 0.1133 0.5368
vn 0.9609 0.0571 0.2709
vn 0.9474 0.1524 0.2814
vn 0.4953 0.0452 0.8675
vn 0.4560 0.1266 0.8809
vn 0.9499 0.1323 -0.2833
vn 0.9701 0.0682 -0.2328
vn -0.5092 0.7681 0.3883
vn -0.0785 0.5012 0.8618
vn -0.4047 0.7871 0.4654
vn -0.3097 0.8041 0.5074
vn -0.0532 0.4117 -0.9098
vn 0.1887 -0.9812 -0.0400
vn 0.1084 -0.9874 -0.1157
vn 0.0926 -0.9952 -0.0323
vn -0.2381 0.8808 0.4094
vn -0.1604 0.1368 -0.9775
vn -0.0403 -0.0282 0.9988
vn -0.1875 -0.1412 0.9721
vn -0.0559 0.0494 -0.9972
vn -0.3229 -0.0053 -0.9464
vn -0.4154 -0.9092 -0.0285
vn 0.1205 -0.9912 -0.0548
vn 0.0571 -0.9968 -0.0562
vn -0.0148 -0.9996 -0.0226
vn -0.0526 -0.9986 -0.0104
vn 0.0042 -0.9987 -0.0514
vn 0.0089 -0.9994 -0.0342
vn -0.0083 0.1703 -0.9854
vn 0.1858 -0.9731 -0.1359
vn 0.7080 0.2737 -0.6511
vn -0.9110 0.2118 0.3538
vn -0.7284 0.2798 0.6254
vn -0.7687 0.0268 0.6390
vn -0.7575 0.0118 -0.6527
vn -0.7219 0.3066 -0.6203
vn -0.9070 0.2411 -0.3454
vn -0.9714 0.1184 0.2058
vn -0.9633 0.1259 0.2371
vn -0.8364 0.0447 0.5462
vn 0.9580 0.0024 -0.2867
vn -0.7174 0.1604 0.6779
vn 0.5119 -0.0128 0.8589
vn 0.4231 0.0990 -0.9007
vn 0.7626 0.2378 -0.6016
vn -0.3505 0.7869 -0.5079
vn 0.7860 0.2361 0.5714
vn 0.9093 0.2854 0.3029
vn 0.1399 -0.0476 -0.9890
vn 0.1652 -0.1094 -0.9802
vn 0.0951 0.0277 -0.9951
vn -0.0471 -0.0457 -0.9978
vn -0.0429 0.0387 -0.9983
vn -0.3304 0.0268 -0.9435
vn -0.0616 -0.1082 -0.9922
vn 0.9000 0.2914 -0.3241
vn -0.7190 0.1345 -0.6819
vn -0.2684 -0.0429 -0.9624
vn -0.4818 -0.0951 0.8711
vn 0.0025 -1.0000 0.0014
vn -0.8368 -0.0111 -0.5474
vn -0.9613 0.0975 -0.2575
vn -0.3336 0.5054 -0.7958
vn -0.4859 -0.1067 -0.8675
vn -0.9789 0.1135 -0.1701
vn -0.3500 0.8270 0.4400
vn -0.3327 0.4873 0.8074
# 432 vertex normals

vt 0.7830 0.1065 0.0000
vt 0.7399 0.1065 0.0000
vt 0.7399 0.0746 0.0000
vt 0.7838 0.0736 0.0000
vt 0.6199 0.1076 0.0000
vt 0.5811 0.1072 0.0000
vt 0.5808 0.0752 0.0000
vt 0.6196 0.0756 0.0000
vt 0.8264 0.1066 0.0000
vt 0.8279 0.0728 0.0000
vt 0.5779 0.3479 0.0000
vt 0.5768 0.3241 0.0000
vt 0.6180 0.3280 0.0000
vt 0.6170 0.3516 0.0000
vt 0.7399 0.2783 0.0000
vt 0.6975 0.2827 0.0000
vt 0.6997 0.2597 0.0000
vt 0.7399 0.2562 0.0000
vt 0.7399 0.3006 0.0000
vt 0.6997 0.3052 0.0000
vt 0.6168 0.3054 0.0000
vt 0.5782 0.3021 0.0000
vt 0.7399 0.3476 0.0000
vt 0.7399 0.3233 0.0000
vt 0.7827 0.3240 0.0000
vt 0.6191 0.2196 0.0000
vt 0.5804 0.2178 0.0000
vt 0.5812 0.1797 0.0000
vt 0.8708 0.3470 0.0000
vt 0.8716 0.3227 0.0000
vt 0.9112 0.3222 0.0000
vt 0.9124 0.3457 0.0000
vt 0.8282 0.3478 0.0000
vt 0.8282 0.3232 0.0000
vt 0.6177 0.2831 0.0000
vt 0.6559 0.2848 0.0000
vt 0.6571 0.3074 0.0000
vt 0.9541 0.2996 0.0000
vt 0.9541 0.3212 0.0000
vt 0.9125 0.3000 0.0000
vt 0.8697 0.2543 0.0000
vt 0.8259 0.2547 0.0000
vt 0.8252 0.2144 0.0000
vt 0.8689 0.2142 0.0000
vt 0.6593 0.2208 0.0000
vt 0.6578 0.2619 0.0000
vt 0.6183 0.2604 0.0000
vt 0.7826 0.2557 0.0000
vt 0.7819 0.2154 0.0000
vt 0.6998 0.2187 0.0000
vt 0.7841 0.3009 0.0000
vt 0.7829 0.2782 0.0000
vt 0.8707 0.2999 0.0000
vt 0.8704 0.2770 0.0000
vt 0.9111 0.2773 0.0000
vt 0.7001 0.3524 0.0000
vt 0.6574 0.3540 0.0000
vt 0.6573 0.3301 0.0000
vt 0.6987 0.3282 0.0000
vt 0.6595 0.1807 0.0000
vt 0.6994 0.1799 0.0000
vt 0.8276 0.3004 0.0000
vt 0.5401 0.2979 0.0000
vt 0.5402 0.2759 0.0000
vt 0.5787 0.2799 0.0000
vt 0.5399 0.3195 0.0000
vt 0.9541 0.2775 0.0000
vt 0.8271 0.2775 0.0000
vt 0.5397 0.3422 0.0000
vt 0.9541 0.3439 0.0000
vt 0.5794 0.2579 0.0000
vt 0.9124 0.2550 0.0000
vt 0.6197 0.1804 0.0000
vt 0.7399 0.2158 0.0000
vt 0.9119 0.2152 0.0000
vt 0.9541 0.2554 0.0000
vt 0.5404 0.2537 0.0000
vt 0.5794 0.0205 0.0000
vt 0.5785 0.0118 0.0000
vt 0.6163 0.0125 0.0000
vt 0.6177 0.0204 0.0000
vt 0.7399 0.1786 0.0000
vt 0.5419 0.0746 0.0000
vt 0.8700 0.1070 0.0000
vt 0.8711 0.0737 0.0000
vt 0.9541 0.1084 0.0000
vt 0.9125 0.1077 0.0000
vt 0.9131 0.0753 0.0000
vt 0.9541 0.0763 0.0000
vt 0.7002 0.0140 0.0000
vt 0.7399 0.0147 0.0000
vt 0.7399 0.0197 0.0000
vt 0.7005 0.0197 0.0000
vt 0.6201 0.1428 0.0000
vt 0.6591 0.1429 0.0000
vt 0.6577 0.0132 0.0000
vt 0.6583 0.0203 0.0000
vt 0.6991 0.1424 0.0000
vt 0.6593 0.0756 0.0000
vt 0.6593 0.0438 0.0000
vt 0.6991 0.0427 0.0000
vt 0.6996 0.0757 0.0000
vt 0.6992 0.1074 0.0000
vt 0.6593 0.1077 0.0000
vt 0.6183 0.0448 0.0000
vt 0.5417 0.1067 0.0000
vt 0.7399 0.0431 0.0000
vt 0.7850 0.0143 0.0000
vt 0.7841 0.0203 0.0000
vt 0.9541 0.1803 0.0000
vt 0.9541 0.2165 0.0000
vt 0.9118 0.1802 0.0000
vt 0.7399 0.1415 0.0000
vt 0.8320 0.0139 0.0000
vt 0.8731 0.0135 0.0000
vt 0.8745 0.0204 0.0000
vt 0.8305 0.0207 0.0000
vt 0.7819 0.1795 0.0000
vt 0.8251 0.1798 0.0000
vt 0.8687 0.1800 0.0000
vt 0.5424 0.0206 0.0000
vt 0.5425 0.0111 0.0000
vt 0.9146 0.0213 0.0000
vt 0.9148 0.0131 0.0000
vt 0.9541 0.0127 0.0000
vt 0.9541 0.0222 0.0000
vt 0.9141 0.0447 0.0000
vt 0.8727 0.0456 0.0000
vt 0.9120 0.1432 0.0000
vt 0.9541 0.1434 0.0000
vt 0.5779 0.0436 0.0000
vt 0.5411 0.1786 0.0000
vt 0.5414 0.1418 0.0000
vt 0.5814 0.1424 0.0000
vt 0.5422 0.0424 0.0000
vt 0.8277 0.0445 0.0000
vt 0.7826 0.0430 0.0000
vt 0.7823 0.1422 0.0000
vt 0.8255 0.1426 0.0000
vt 0.8692 0.1428 0.0000
vt 0.9541 0.0440 0.0000
vt 0.5408 0.2148 0.0000
vt 0.7849 0.3482 0.0000
vt 0.8429 0.3567 0.0000
vt 0.7984 0.3407 0.0000
vt 0.8303 0.4140 0.0000
vt 0.7744 0.3910 0.0000
vt 0.8090 0.2946 0.0000
vt 0.8271 0.2679 0.0000
vt 0.8069 0.2466 0.0000
vt 0.8488 0.2769 0.0000
vt 0.8389 0.2516 0.0000
vt 0.8448 0.1799 0.0000
vt 0.8941 0.2121 0.0000
vt 0.8662 0.1526 0.0000
vt 0.8671 0.2300 0.0000
vt 0.8462 0.3086 0.0000
vt 0.8908 0.1368 0.0000
vt 0.9201 0.1961 0.0000
vt 0.8654 0.0966 0.0000
vt 0.8369 0.1122 0.0000
vt 0.8228 0.2142 0.0000
vt 0.9422 0.2541 0.0000
vt 0.9118 0.2657 0.0000
vt 0.1616 0.3236 0.0000
vt 0.1355 0.4126 0.0000
vt 0.0777 0.3909 0.0000
vt 0.1900 0.4355 0.0000
vt 0.2379 0.4726 0.0000
vt 0.1904 0.5390 0.0000
vt 0.8838 0.3150 0.0000
vt 0.9173 0.3158 0.0000
vt 0.8799 0.2790 0.0000
vt 0.9163 0.3675 0.0000
vt 0.9058 0.4314 0.0000
vt 0.9498 0.3607 0.0000
vt 0.9384 0.4456 0.0000
vt 0.8140 0.8454 0.0000
vt 0.8963 0.8467 0.0000
vt 0.8173 0.7657 0.0000
vt 0.8978 0.7667 0.0000
vt 0.8847 0.3658 0.0000
vt 0.9162 0.5328 0.0000
vt 0.8758 0.5129 0.0000
vt 0.8259 0.6821 0.0000
vt 0.8982 0.6991 0.0000
vt 0.8720 0.4250 0.0000
vt 0.8363 0.4976 0.0000
vt 0.0981 0.6597 0.0000
vt 0.1001 0.7074 0.0000
vt 0.0665 0.7052 0.0000
vt 0.0814 0.5753 0.0000
vt 0.1146 0.5807 0.0000
vt 0.0674 0.6573 0.0000
vt 0.1076 0.7518 0.0000
vt 0.1406 0.7159 0.0000
vt 0.1076 0.4963 0.0000
vt 0.1503 0.5144 0.0000
vt 0.0384 0.6569 0.0000
vt 0.0664 0.4803 0.0000
vt 0.0515 0.5710 0.0000
vt 0.1606 0.5985 0.0000
vt 0.1006 0.3102 0.0000
vt 0.2546 0.3476 0.0000
vt 0.8512 0.5959 0.0000
vt 0.1411 0.6680 0.0000
vt 0.1492 0.7502 0.0000
vt 0.0286 0.6581 0.0000
vt 0.0437 0.5719 0.0000
vt 0.9461 0.4456 0.0000
vt 0.9589 0.3603 0.0000
vt 0.0393 0.7019 0.0000
vt 0.0286 0.7024 0.0000
vt 0.9512 0.3167 0.0000
vt 0.9584 0.3171 0.0000
vt 0.9484 0.2513 0.0000
vt 0.8936 0.9247 0.0000
vt 0.9045 0.9068 0.0000
vt 0.9037 0.8474 0.0000
vt 0.0373 0.0969 0.0000
vt 0.0957 0.0979 0.0000
vt 0.0374 0.1600 0.0000
vt 0.0967 0.1604 0.0000
vt 0.5465 0.0584 0.0000
vt 0.5390 0.0585 0.0000
vt 0.5457 0.0400 0.0000
vt 0.7337 0.8345 0.0000
vt 0.9170 0.6192 0.0000
vt 0.9230 0.5327 0.0000
vt 0.9066 0.6159 0.0000
vt 0.1711 0.7586 0.0000
vt 0.1570 0.7784 0.0000
vt 0.1253 0.8022 0.0000
vt 0.0772 0.7595 0.0000
vt 0.8962 0.1299 0.0000
vt 0.8717 0.0901 0.0000
vt 0.9251 0.1887 0.0000
vt 0.1274 0.9359 0.0000
vt 0.0977 0.8981 0.0000
vt 0.1336 0.9286 0.0000
vt 0.1037 0.8923 0.0000
vt 0.8869 0.0820 0.0000
vt 0.9092 0.1238 0.0000
vt 0.0413 0.4809 0.0000
vt 0.0491 0.3887 0.0000
vt 0.0619 0.4818 0.0000
vt 0.0680 0.3896 0.0000
vt 0.9607 0.9096 0.0000
vt 0.9616 0.8497 0.0000
vt 0.0368 0.2424 0.0000
vt 0.0951 0.2432 0.0000
vt 0.9664 0.4456 0.0000
vt 0.9434 0.5323 0.0000
vt 0.0123 0.6579 0.0000
vt 0.0124 0.7042 0.0000
vt 0.9354 0.6205 0.0000
vt 0.0246 0.5702 0.0000
vt 0.0244 0.7757 0.0000
vt 0.0413 0.7705 0.0000
vt 0.0485 0.8419 0.0000
vt 0.0651 0.8347 0.0000
vt 0.7675 0.2753 0.0000
vt 0.7504 0.3133 0.0000
vt 0.6973 0.4125 0.0000
vt 0.7406 0.4444 0.0000
vt 0.7279 0.3625 0.0000
vt 0.1914 0.7304 0.0000
vt 0.9652 0.2468 0.0000
vt 0.9416 0.1837 0.0000
vt 0.1120 0.9448 0.0000
vt 0.0845 0.9048 0.0000
vt 0.1992 0.7787 0.0000
vt 0.2414 0.7451 0.0000
vt 0.7823 0.2311 0.0000
vt 0.1809 0.8159 0.0000
vt 0.2297 0.7935 0.0000
vt 0.7939 0.1888 0.0000
vt 0.1505 0.8497 0.0000
vt 0.1938 0.8791 0.0000
vt 0.8101 0.1468 0.0000
vt 0.2143 0.8370 0.0000
vt 0.0988 0.8219 0.0000
vt 0.1275 0.8786 0.0000
vt 0.0695 0.8271 0.0000
vt 0.1659 0.9152 0.0000
vt 0.0476 0.7674 0.0000
vt 0.9026 0.9453 0.0000
vt 0.1061 0.0820 0.0000
vt 0.0958 0.0643 0.0000
vt 0.1062 0.0191 0.0000
vt 0.5129 0.0202 0.0000
vt 0.5283 0.0175 0.0000
vt 0.5391 0.0394 0.0000
vt 0.5400 0.0201 0.0000
vt 0.9593 0.9494 0.0000
vt 0.9000 0.9808 0.0000
vt 0.0985 0.0169 0.0000
vt 0.1043 0.1609 0.0000
vt 0.1032 0.2438 0.0000
vt 0.9037 0.7013 0.0000
vt 0.0377 0.0614 0.0000
vt 0.8924 0.9787 0.0000
vt 0.1733 0.2351 0.0000
vt 0.8105 0.9182 0.0000
vt 0.1812 0.1604 0.0000
vt 0.8099 0.9839 0.0000
vt 0.7389 0.7562 0.0000
vt 0.1879 0.0778 0.0000
vt 0.2771 0.0932 0.0000
vt 0.2748 0.1567 0.0000
vt 0.2852 0.0315 0.0000
vt 0.7174 0.9643 0.0000
vt 0.1901 0.0123 0.0000
vt 0.6223 0.0660 0.0000
vt 0.6215 0.0411 0.0000
vt 0.6347 0.0625 0.0000
vt 0.6344 0.0412 0.0000
vt 0.7994 0.4783 0.0000
vt 0.5630 0.0561 0.0000
vt 0.5631 0.0397 0.0000
vt 0.9235 0.7037 0.0000
vt 0.1980 0.6835 0.0000
vt 0.6358 0.0191 0.0000
vt 0.6230 0.0146 0.0000
vt 0.2514 0.5715 0.0000
vt 0.2936 0.5144 0.0000
vt 0.5474 0.0200 0.0000
vt 0.0393 0.0144 0.0000
vt 0.5119 0.0588 0.0000
vt 0.5271 0.0620 0.0000
vt 0.4981 0.0310 0.0000
vt 0.5025 0.0260 0.0000
vt 0.4959 0.0395 0.0000
vt 0.6553 0.0416 0.0000
vt 0.6478 0.0415 0.0000
vt 0.6583 0.0330 0.0000
vt 0.6477 0.0247 0.0000
vt 0.6606 0.0418 0.0000
vt 0.6578 0.0505 0.0000
vt 0.6671 0.6123 0.0000
vt 0.7452 0.6587 0.0000
vt 0.7611 0.5392 0.0000
vt 0.7998 0.5723 0.0000
vt 0.6647 0.4518 0.0000
vt 0.6000 0.5083 0.0000
vt 0.7092 0.4957 0.0000
vt 0.6280 0.5589 0.0000
vt 0.3415 0.5561 0.0000
vt 0.4129 0.5002 0.0000
vt 0.3814 0.4426 0.0000
vt 0.3406 0.3879 0.0000
vt 0.4318 0.2849 0.0000
vt 0.4945 0.2696 0.0000
vt 0.5041 0.3187 0.0000
vt 0.4488 0.3377 0.0000
vt 0.3570 0.3100 0.0000
vt 0.4215 0.2250 0.0000
vt 0.4829 0.2140 0.0000
vt 0.2677 0.2432 0.0000
vt 0.3501 0.2377 0.0000
vt 0.5905 0.8786 0.0000
vt 0.5927 0.8282 0.0000
vt 0.5404 0.8774 0.0000
vt 0.5390 0.8313 0.0000
vt 0.4752 0.1166 0.0000
vt 0.4193 0.1155 0.0000
vt 0.4777 0.0650 0.0000
vt 0.4237 0.0636 0.0000
vt 0.4176 0.1679 0.0000
vt 0.3507 0.1684 0.0000
vt 0.5860 0.9279 0.0000
vt 0.5342 0.9274 0.0000
vt 0.3091 0.5981 0.0000
vt 0.0947 0.3084 0.0000
vt 0.2771 0.6495 0.0000
vt 0.2191 0.6255 0.0000
vt 0.9060 0.7681 0.0000
vt 0.5636 0.0217 0.0000
vt 0.5803 0.0401 0.0000
vt 0.5806 0.0165 0.0000
vt 0.2533 0.7011 0.0000
vt 0.9752 0.3121 0.0000
vt 0.0754 0.3078 0.0000
vt 0.0370 0.3060 0.0000
vt 0.9646 0.7706 0.0000
vt 0.9629 0.7069 0.0000
vt 0.6468 0.0576 0.0000
vt 0.5962 0.0672 0.0000
vt 0.5967 0.0407 0.0000
vt 0.6131 0.0411 0.0000
vt 0.6145 0.0128 0.0000
vt 0.6131 0.0682 0.0000
vt 0.5977 0.0123 0.0000
vt 0.9755 0.3605 0.0000
vt 0.5796 0.0608 0.0000
vt 0.7293 0.9025 0.0000
vt 0.4929 0.4796 0.0000
vt 0.4774 0.3947 0.0000
vt 0.5333 0.4221 0.0000
vt 0.4803 0.5755 0.0000
vt 0.5358 0.6042 0.0000
vt 0.5249 0.5255 0.0000
vt 0.5912 0.4743 0.0000
vt 0.5455 0.4813 0.0000
vt 0.5784 0.4178 0.0000
vt 0.9574 0.9843 0.0000
vt 0.5142 0.3549 0.0000
vt 0.4741 0.1636 0.0000
vt 0.6576 0.8299 0.0000
vt 0.6532 0.8872 0.0000
vt 0.4977 0.3746 0.0000
vt 0.3551 0.1076 0.0000
vt 0.3631 0.0533 0.0000
vt 0.5894 0.7728 0.0000
vt 0.5303 0.7824 0.0000
vt 0.6602 0.7622 0.0000
vt 0.5813 0.7134 0.0000
vt 0.6547 0.6900 0.0000
vt 0.5649 0.6604 0.0000
vt 0.5185 0.7286 0.0000
vt 0.6440 0.9378 0.0000
vt 0.5033 0.6449 0.0000
vt 0.5102 0.6815 0.0000
vt 0.5529 0.3785 0.0000
vt 0.4977 0.0460 0.0000
vt 0.5021 0.0524 0.0000
vt 0.4343 0.5709 0.0000
vt 0.4751 0.5218 0.0000
vt 0.5059 0.6177 0.0000
vt 0.4554 0.6160 0.0000
vt 0.4295 0.5232 0.0000
vt 0.5209 0.6207 0.0000
vt 0.5060 0.3812 0.0000
# 433 texture coords

o ProfesorSubLeftLeg
g ProfesorSubLeftLeg
usemtl mat_8_Doctor_Pants_D_jpg
s 1
f 1/1/1 2/2/2 3/3/3 
f 1/1/1 3/3/3 4/4/4 
f 5/5/5 6/6/6 7/7/7 
f 5/5/5 7/7/7 8/8/8 
f 9/9/9 1/1/1 4/4/4 
f 9/9/9 4/4/4 10/10/10 
f 11/11/11 12/12/12 13/13/13 
f 11/11/11 13/13/13 14/14/14 
f 15/15/15 16/16/16 17/17/17 
f 15/15/15 17/17/17 18/18/18 
f 19/19/19 20/20/20 16/16/16 
f 19/19/19 16/16/16 15/15/15 
f 21/21/21 13/13/13 12/12/12 
f 21/21/21 12/12/12 22/22/22 
f 23/23/23 24/24/24 25/25/25 
f 26/26/26 27/27/27 28/28/28 
f 29/29/29 30/30/30 31/31/31 
f 29/29/29 31/31/31 32/32/32 
f 33/33/33 34/34/34 30/30/30 
f 33/33/33 30/30/30 29/29/29 
f 21/21/21 35/35/35 36/36/36 
f 21/21/21 36/36/36 37/37/37 
f 38/38/38 39/39/39 31/31/31 
f 38/38/38 31/31/31 40/40/40 
f 41/41/41 42/42/42 43/43/43 
f 41/41/41 43/43/43 44/44/44 
f 45/45/45 46/46/46 47/47/47 
f 45/45/45 47/47/47 26/26/26 
f 42/42/42 48/48/48 49/49/49 
f 42/42/42 49/49/49 43/43/43 
f 17/17/17 46/46/46 45/45/45 
f 17/17/17 45/45/45 50/50/50 
f 51/51/51 19/19/19 15/15/15 
f 51/51/51 15/15/15 52/52/52 
f 53/53/53 54/54/54 55/55/55 
f 53/53/53 55/55/55 40/40/40 
f 56/56/56 57/57/57 58/58/58 
f 56/56/56 58/58/58 59/59/59 
f 23/23/23 56/56/56 59/59/59 
f 23/23/23 59/59/59 24/24/24 
f 33/33/33 25/25/25 34/34/34 
f 50/50/50 60/60/60 61/61/61 
f 53/53/53 30/30/30 34/34/34 
f 53/53/53 34/34/34 62/62/62 
f 37/37/37 36/36/36 16/16/16 
f 37/37/37 16/16/16 20/20/20 
f 25/25/25 24/24/24 19/19/19 
f 25/25/25 19/19/19 51/51/51 
f 40/40/40 31/31/31 30/30/30 
f 40/40/40 30/30/30 53/53/53 
f 34/34/34 25/25/25 51/51/51 
f 34/34/34 51/51/51 62/62/62 
f 38/63/63 63/64/64 64/65/65 
f 38/63/63 64/65/65 22/22/22 
f 22/22/22 12/12/12 39/66/66 
f 22/22/22 39/66/66 38/63/63 
f 40/40/40 55/55/55 63/67/67 
f 40/40/40 63/67/67 38/38/38 
f 37/37/37 58/58/58 13/13/13 
f 37/37/37 13/13/13 21/21/21 
f 53/53/53 62/62/62 65/68/68 
f 53/53/53 65/68/68 54/54/54 
f 59/59/59 58/58/58 37/37/37 
f 59/59/59 37/37/37 20/20/20 
f 66/69/69 39/66/66 12/12/12 
f 66/69/69 12/12/12 11/11/11 
f 46/46/46 36/36/36 35/35/35 
f 46/46/46 35/35/35 47/47/47 
f 32/32/32 31/31/31 39/39/39 
f 32/32/32 39/39/39 66/70/70 
f 16/16/16 36/36/36 46/46/46 
f 16/16/16 46/46/46 17/17/17 
f 26/26/26 47/47/47 67/71/71 
f 26/26/26 67/71/71 27/27/27 
f 68/72/72 55/55/55 54/54/54 
f 68/72/72 54/54/54 41/41/41 
f 45/45/45 26/26/26 69/73/73 
f 45/45/45 69/73/73 60/60/60 
f 52/52/52 15/15/15 18/18/18 
f 52/52/52 18/18/18 48/48/48 
f 48/48/48 18/18/18 70/74/74 
f 48/48/48 70/74/74 49/49/49 
f 18/18/18 17/17/17 50/50/50 
f 18/18/18 50/50/50 70/74/74 
f 71/75/75 68/72/72 41/41/41 
f 71/75/75 41/41/41 44/44/44 
f 47/47/47 35/35/35 64/65/65 
f 47/47/47 64/65/65 67/71/71 
f 72/76/76 63/67/67 55/55/55 
f 72/76/76 55/55/55 68/72/72 
f 67/71/71 64/65/65 63/64/64 
f 67/71/71 63/64/64 72/77/77 
f 14/14/14 13/13/13 58/58/58 
f 26/26/26 28/28/28 69/73/73 
f 65/68/68 52/52/52 48/48/48 
f 65/68/68 48/48/48 42/42/42 
f 54/54/54 65/68/68 42/42/42 
f 54/54/54 42/42/42 41/41/41 
f 73/78/78 74/79/79 75/80/80 
f 73/78/78 75/80/80 76/81/81 
f 70/74/74 50/50/50 61/61/61 
f 70/74/74 61/61/61 77/82/82 
f 6/6/6 78/83/83 7/7/7 
f 79/84/84 10/10/10 80/85/85 
f 81/86/86 82/87/87 83/88/88 
f 81/86/86 83/88/88 78/89/89 
f 84/90/90 85/91/91 86/92/92 
f 84/90/90 86/92/92 87/93/93 
f 60/60/60 69/73/73 88/94/94 
f 60/60/60 88/94/94 89/95/95 
f 90/96/96 84/90/90 87/93/93 
f 90/96/96 87/93/93 91/97/97 
f 61/61/61 60/60/60 89/95/95 
f 61/61/61 89/95/95 92/98/98 
f 93/99/99 94/100/100 95/101/101 
f 93/99/99 95/101/101 96/102/102 
f 97/103/103 98/104/104 93/99/99 
f 97/103/103 93/99/99 96/102/102 
f 99/105/105 94/100/100 93/99/99 
f 99/105/105 93/99/99 8/8/8 
f 2/2/2 97/103/103 96/102/102 
f 2/2/2 96/102/102 3/3/3 
f 82/87/87 79/84/84 80/85/85 
f 82/87/87 80/85/85 83/88/88 
f 79/84/84 9/9/9 10/10/10 
f 6/6/6 81/106/106 78/83/83 
f 96/102/102 95/101/101 100/107/107 
f 96/102/102 100/107/107 3/3/3 
f 98/104/104 5/5/5 8/8/8 
f 98/104/104 8/8/8 93/99/99 
f 86/92/92 85/91/91 101/108/108 
f 86/92/92 101/108/108 102/109/109 
f 103/110/110 104/111/111 71/75/75 
f 103/110/110 71/75/75 105/112/112 
f 76/81/81 75/80/80 90/96/96 
f 76/81/81 90/96/96 91/97/97 
f 77/82/82 61/61/61 92/98/98 
f 77/82/82 92/98/98 106/113/113 
f 107/114/114 108/115/115 109/116/116 
f 107/114/114 109/116/116 110/117/117 
f 43/43/43 49/49/49 111/118/118 
f 43/43/43 111/118/118 112/119/119 
f 102/109/109 101/108/108 107/114/114 
f 102/109/109 107/114/114 110/117/117 
f 44/44/44 43/43/43 112/119/119 
f 44/44/44 112/119/119 113/120/120 
f 114/121/121 115/122/122 74/79/79 
f 114/121/121 74/79/79 73/78/78 
f 105/112/112 71/75/75 44/44/44 
f 105/112/112 44/44/44 113/120/120 
f 116/123/123 117/124/124 115/125/125 
f 116/123/123 115/125/125 114/126/126 
f 49/49/49 70/74/74 77/82/82 
f 49/49/49 77/82/82 111/118/118 
f 109/116/116 116/123/123 118/127/127 
f 109/116/116 118/127/127 119/128/128 
f 103/110/110 105/112/112 120/129/129 
f 103/110/110 120/129/129 121/130/130 
f 73/78/78 76/81/81 99/105/105 
f 73/78/78 99/105/105 122/131/131 
f 28/28/28 103/132/132 121/133/133 
f 28/28/28 121/133/133 123/134/134 
f 76/81/81 91/97/97 94/100/100 
f 76/81/81 94/100/100 99/105/105 
f 106/113/113 92/98/98 97/103/103 
f 106/113/113 97/103/103 2/2/2 
f 114/121/121 73/78/78 122/131/131 
f 114/121/121 122/131/131 124/135/135 
f 69/73/73 28/28/28 123/134/134 
f 69/73/73 123/134/134 88/94/94 
f 87/93/93 86/92/92 100/107/107 
f 87/93/93 100/107/107 95/101/101 
f 89/95/95 88/94/94 5/5/5 
f 89/95/95 5/5/5 98/104/104 
f 91/97/97 87/93/93 95/101/101 
f 91/97/97 95/101/101 94/100/100 
f 92/98/98 89/95/95 98/104/104 
f 92/98/98 98/104/104 97/103/103 
f 102/109/109 110/117/117 125/136/136 
f 102/109/109 125/136/136 126/137/137 
f 112/119/119 111/118/118 127/138/138 
f 112/119/119 127/138/138 128/139/139 
f 100/107/107 86/92/92 102/109/109 
f 100/107/107 102/109/109 126/137/137 
f 113/120/120 112/119/119 128/139/139 
f 113/120/120 128/139/139 129/140/140 
f 116/123/123 114/126/126 124/141/141 
f 116/123/123 124/141/141 118/127/127 
f 105/112/112 113/120/120 129/140/140 
f 105/112/112 129/140/140 120/129/129 
f 110/117/117 109/116/116 119/128/128 
f 110/117/117 119/128/128 125/136/136 
f 111/118/118 77/82/82 106/113/113 
f 111/118/118 106/113/113 127/138/138 
f 118/127/127 124/141/141 78/89/89 
f 118/127/127 78/89/89 83/88/88 
f 120/129/129 129/140/140 79/84/84 
f 120/129/129 79/84/84 82/87/87 
f 10/10/10 125/136/136 119/128/128 
f 10/10/10 119/128/128 80/85/85 
f 1/1/1 127/138/138 106/113/113 
f 1/1/1 106/113/113 2/2/2 
f 108/115/115 117/124/124 116/123/123 
f 108/115/115 116/123/123 109/116/116 
f 28/28/28 27/27/27 104/142/142 
f 28/28/28 104/142/142 103/132/132 
f 78/83/83 124/135/135 122/131/131 
f 78/83/83 122/131/131 7/7/7 
f 88/94/94 123/134/134 6/6/6 
f 88/94/94 6/6/6 5/5/5 
f 119/128/128 118/127/127 83/88/88 
f 119/128/128 83/88/88 80/85/85 
f 121/130/130 120/129/129 82/87/87 
f 121/130/130 82/87/87 81/86/86 
f 7/7/7 122/131/131 99/105/105 
f 7/7/7 99/105/105 8/8/8 
f 123/134/134 121/133/133 81/106/106 
f 123/134/134 81/106/106 6/6/6 
f 4/4/4 126/137/137 125/136/136 
f 4/4/4 125/136/136 10/10/10 
f 9/9/9 128/139/139 127/138/138 
f 9/9/9 127/138/138 1/1/1 
f 3/3/3 100/107/107 126/137/137 
f 3/3/3 126/137/137 4/4/4 
f 79/84/84 129/140/140 128/139/139 
f 79/84/84 128/139/139 9/9/9 
f 104/111/111 72/76/76 68/72/72 
f 104/111/111 68/72/72 71/75/75 
f 27/27/27 67/71/71 72/77/77 
f 27/27/27 72/77/77 104/142/142 
f 50/50/50 45/45/45 60/60/60 
f 62/62/62 51/51/51 52/52/52 
f 62/62/62 52/52/52 65/68/68 
f 24/24/24 59/59/59 20/20/20 
f 24/24/24 20/20/20 19/19/19 
f 22/22/22 64/65/65 35/35/35 
f 22/22/22 35/35/35 21/21/21 
f 23/23/23 25/25/25 130/143/143 
f 33/33/33 130/143/143 25/25/25 
f 14/14/14 58/58/58 57/57/57 
usemtl mat_3_Doctor_Shoes_D_jpg
f 131/144/144 132/145/145 133/146/146 
f 132/145/145 134/147/147 133/146/146 
f 135/148/148 136/149/149 137/150/150 
f 138/151/151 139/152/152 136/149/149 
f 140/153/153 141/154/154 142/155/155 
f 143/156/156 141/154/154 140/153/153 
f 132/145/145 131/144/144 135/148/148 
f 131/144/144 144/157/157 135/148/148 
f 145/158/158 142/155/155 146/159/159 
f 142/155/155 141/154/154 146/159/159 
f 147/160/160 148/161/161 145/158/158 
f 148/161/161 142/155/155 145/158/158 
f 149/162/162 137/150/150 139/152/152 
f 137/150/150 136/149/149 139/152/152 
f 146/159/159 141/154/154 150/163/163 
f 141/154/154 151/164/164 150/163/163 
f 152/165/165 153/166/166 154/167/167 
f 155/168/168 156/169/169 157/170/170 
f 158/171/171 159/172/172 160/173/173 
f 159/172/172 151/164/164 160/173/173 
f 161/174/174 162/175/175 163/176/176 
f 162/175/175 164/177/177 163/176/176 
f 165/178/178 166/179/179 167/180/180 
f 166/179/179 168/181/181 167/180/180 
f 158/171/171 160/173/173 144/157/157 
f 160/173/173 138/151/151 144/157/157 
f 140/153/153 149/162/162 143/156/156 
f 149/162/162 139/152/152 143/156/156 
f 141/154/154 143/156/156 151/164/164 
f 143/156/156 160/173/173 151/164/164 
f 144/157/157 131/144/144 158/171/171 
f 131/144/144 169/182/182 158/171/171 
f 170/183/183 164/177/177 171/184/184 
f 164/177/177 162/175/175 171/184/184 
f 167/180/180 168/181/181 172/185/185 
f 168/181/181 173/186/186 172/185/185 
f 169/182/182 174/187/187 161/174/174 
f 174/187/187 162/175/175 161/174/174 
f 162/175/175 174/187/187 171/184/184 
f 174/187/187 175/188/188 171/184/184 
f 176/189/189 177/190/190 178/191/191 
f 179/192/192 180/193/193 181/194/194 
f 182/195/195 177/190/190 183/196/196 
f 181/194/194 176/189/189 178/191/191 
f 184/197/197 185/198/198 180/193/193 
f 184/197/197 153/166/166 185/198/198 
f 180/193/193 176/189/189 181/194/194 
f 179/192/192 184/197/197 180/193/193 
f 179/192/192 181/194/194 186/199/199 
f 187/200/200 184/197/197 188/201/201 
f 185/198/198 157/170/170 189/202/202 
f 188/201/201 179/192/192 186/199/199 
f 155/168/168 153/166/166 152/165/165 
f 190/203/203 152/165/165 154/167/167 
f 153/166/166 155/168/168 185/198/198 
f 191/204/204 155/168/168 152/165/165 
f 171/184/184 192/205/205 170/183/183 
f 180/193/193 185/198/198 189/202/202 
f 174/187/187 169/182/182 133/146/146 
f 169/182/182 131/144/144 133/146/146 
f 189/202/202 193/206/206 176/189/189 
f 194/207/207 182/195/195 183/196/196 
f 184/197/197 179/192/192 188/201/201 
f 180/193/193 189/202/202 176/189/189 
f 195/208/208 196/209/209 186/199/199 
f 196/209/209 188/201/201 186/199/199 
f 164/177/177 197/210/210 163/176/176 
f 197/210/210 198/211/211 163/176/176 
f 199/212/212 200/213/213 186/199/199 
f 200/213/213 195/208/208 186/199/199 
f 201/214/214 202/215/215 150/163/163 
f 202/215/215 203/216/216 150/163/163 
f 204/217/217 205/218/218 166/179/179 
f 205/218/218 206/219/219 166/179/179 
f 207/220/220 208/221/221 209/222/222 
f 208/221/221 210/223/223 209/222/222 
f 211/224/224 212/225/225 213/226/226 
f 165/178/178 167/180/180 214/227/227 
f 215/228/228 216/229/229 217/230/230 
f 216/229/229 170/183/183 217/230/230 
f 194/207/207 218/231/231 219/232/232 
f 220/233/233 182/195/195 219/232/232 
f 138/151/151 136/149/149 144/157/157 
f 136/149/149 135/148/148 144/157/157 
f 177/190/190 182/195/195 221/234/234 
f 161/174/174 159/172/172 169/182/182 
f 182/195/195 194/207/207 219/232/232 
f 178/191/191 177/190/190 221/234/234 
f 145/158/158 222/235/235 147/160/160 
f 222/235/235 223/236/236 147/160/160 
f 150/163/163 203/216/216 146/159/159 
f 203/216/216 224/237/237 146/159/159 
f 138/151/151 160/173/173 139/152/152 
f 160/173/173 143/156/156 139/152/152 
f 223/238/238 225/239/239 147/240/240 
f 225/239/239 226/241/241 147/240/240 
f 223/236/236 222/235/235 227/242/242 
f 222/235/235 228/243/243 227/242/242 
f 229/244/244 230/245/245 231/246/246 
f 230/245/245 232/247/247 231/246/246 
f 233/248/248 234/249/249 205/218/218 
f 234/249/249 206/219/219 205/218/218 
f 235/250/250 209/222/222 236/251/251 
f 209/222/222 210/223/223 236/251/251 
f 237/252/252 197/210/210 238/253/253 
f 197/210/210 216/229/229 238/253/253 
f 239/254/254 195/208/208 240/255/255 
f 195/208/208 200/213/213 240/255/255 
f 238/253/253 216/229/229 241/256/256 
f 216/229/229 215/228/228 241/256/256 
f 242/257/257 229/244/244 196/209/209 
f 229/244/244 231/246/246 196/209/209 
f 240/255/255 200/213/213 243/258/258 
f 200/213/213 244/259/259 243/258/258 
f 243/258/258 244/259/259 245/260/260 
f 244/259/259 246/261/261 245/260/260 
f 231/246/246 232/247/247 187/200/200 
f 232/247/247 154/167/167 187/200/200 
f 146/159/159 224/237/237 145/158/158 
f 224/237/237 222/235/235 145/158/158 
f 247/262/262 248/263/263 132/145/145 
f 249/264/264 250/265/265 251/266/266 
f 194/207/207 183/196/196 252/267/267 
f 135/148/148 247/262/262 132/145/145 
f 253/268/268 254/269/269 203/216/216 
f 254/269/269 224/237/237 203/216/216 
f 223/238/238 227/270/270 225/239/239 
f 227/270/270 255/271/271 225/239/239 
f 256/272/272 252/267/267 247/273/273 
f 137/150/150 149/162/162 257/274/274 
f 258/275/275 256/272/272 257/276/276 
f 257/276/276 256/272/272 247/273/273 
f 259/277/277 149/162/162 140/153/153 
f 260/278/278 258/275/275 261/279/279 
f 149/162/162 259/277/277 257/274/274 
f 261/280/280 259/277/277 140/153/153 
f 247/262/262 135/148/148 137/150/150 
f 219/232/232 258/275/275 220/233/233 
f 261/280/280 140/153/153 142/155/155 
f 257/274/274 247/262/262 137/150/150 
f 219/232/232 218/231/231 256/272/272 
f 259/281/281 258/275/275 257/276/276 
f 258/275/275 260/278/278 220/233/233 
f 258/275/275 219/232/232 256/272/272 
f 262/282/282 263/283/283 226/241/241 
f 260/278/278 261/279/279 263/283/283 
f 221/234/234 262/282/282 264/284/284 
f 264/284/284 262/282/282 226/241/241 
f 260/278/278 263/283/283 262/282/282 
f 262/282/282 221/234/234 220/233/233 
f 261/279/279 148/285/285 263/283/283 
f 220/233/233 260/278/278 262/282/282 
f 263/283/283 148/285/285 147/240/240 
f 199/212/212 178/191/191 265/286/286 
f 258/275/275 259/281/281 261/279/279 
f 226/241/241 263/283/283 147/240/240 
f 181/194/194 178/191/191 199/212/212 
f 265/286/286 221/234/234 264/284/284 
f 178/191/191 221/234/234 265/286/286 
f 186/199/199 181/194/194 199/212/212 
f 204/217/217 266/287/287 205/218/218 
f 267/288/288 268/289/289 269/290/290 
f 209/291/291 235/292/292 270/293/293 
f 235/292/292 271/294/294 270/293/293 
f 268/289/289 208/221/221 207/220/220 
f 272/295/295 266/287/287 273/296/296 
f 268/289/289 273/297/297 269/290/290 
f 205/218/218 266/287/287 233/248/248 
f 274/298/298 275/299/299 236/251/251 
f 173/186/186 168/181/181 276/300/300 
f 266/287/287 272/295/295 233/248/248 
f 277/301/301 268/289/289 207/220/220 
f 268/289/289 267/288/288 208/221/221 
f 267/288/288 274/298/298 208/221/221 
f 204/217/217 269/302/302 266/287/287 
f 269/302/302 273/296/296 266/287/287 
f 278/303/303 275/299/299 274/298/298 
f 279/304/304 204/217/217 165/178/178 
f 280/305/305 274/298/298 267/288/288 
f 280/305/305 278/303/303 274/298/298 
f 281/306/306 269/302/302 204/217/217 
f 167/180/180 282/307/307 214/227/227 
f 204/217/217 166/179/179 165/178/178 
f 279/304/304 281/306/306 204/217/217 
f 283/308/308 284/309/309 285/310/310 
f 284/309/309 283/308/308 286/311/311 
f 286/312/312 281/306/306 279/304/304 
f 280/305/305 283/308/308 285/310/310 
f 283/308/308 267/288/288 269/290/290 
f 283/308/308 280/305/305 267/288/288 
f 283/308/308 281/313/313 286/311/311 
f 281/313/313 283/308/308 269/290/290 
f 287/314/314 288/315/315 253/316/316 
f 288/315/315 289/317/317 253/316/316 
f 133/146/146 134/147/147 290/318/318 
f 155/168/168 191/204/204 156/169/169 
f 211/224/224 213/226/226 241/319/319 
f 213/226/226 291/320/320 241/319/319 
f 211/321/321 241/256/256 276/300/300 
f 241/256/256 215/228/228 276/300/300 
f 218/231/231 252/267/267 256/272/272 
f 218/231/231 194/207/207 252/267/267 
f 193/206/206 292/322/322 183/196/196 
f 292/322/322 252/267/267 183/196/196 
f 289/317/317 288/315/315 243/323/323 
f 288/315/315 240/324/324 243/323/323 
f 157/170/170 156/169/169 293/325/325 
f 156/169/169 294/326/326 293/325/325 
f 213/226/226 295/327/327 291/320/320 
f 212/225/225 270/293/293 213/226/226 
f 296/328/328 273/297/297 277/301/301 
f 273/297/297 268/289/289 277/301/301 
f 234/329/329 270/293/293 297/330/330 
f 297/330/330 270/293/293 212/225/225 
f 270/293/293 277/331/331 207/332/332 
f 270/293/293 296/333/333 277/331/331 
f 264/284/284 246/261/261 244/259/259 
f 298/334/334 299/335/335 255/336/336 
f 226/241/241 225/239/239 246/261/261 
f 265/286/286 264/284/284 244/259/259 
f 197/210/210 164/177/177 216/229/229 
f 164/177/177 170/183/183 216/229/229 
f 299/335/335 245/337/337 255/336/336 
f 227/338/338 228/339/339 298/334/334 
f 300/340/340 301/341/341 302/342/342 
f 301/341/341 303/343/343 302/342/342 
f 304/344/344 305/345/345 306/346/346 
f 305/345/345 307/347/347 306/346/346 
f 304/348/348 294/326/326 305/349/349 
f 294/326/326 308/350/350 305/349/349 
f 306/346/346 250/265/265 304/344/344 
f 191/204/204 309/351/351 156/169/169 
f 310/352/352 311/353/353 312/354/354 
f 310/352/352 313/355/355 314/356/356 
f 315/357/357 316/358/358 311/353/353 
f 313/355/355 310/352/352 312/354/354 
f 317/359/359 318/360/360 314/356/356 
f 317/359/359 285/310/310 318/360/360 
f 275/299/299 278/303/303 152/165/165 
f 285/310/310 317/359/359 280/305/305 
f 319/361/361 320/362/362 321/363/363 
f 320/362/362 322/364/364 321/363/363 
f 323/365/365 324/366/366 325/367/367 
f 324/366/366 326/368/368 325/367/367 
f 327/369/369 315/357/357 328/370/370 
f 315/357/357 318/360/360 328/370/370 
f 319/361/361 321/363/363 326/371/371 
f 321/363/363 325/372/372 326/371/371 
f 250/265/265 306/346/346 290/318/318 
f 134/147/147 250/265/265 290/318/318 
f 304/348/348 249/373/373 294/326/326 
f 306/346/346 302/342/342 290/318/318 
f 192/205/205 303/343/343 172/185/185 
f 303/343/343 301/341/341 172/185/185 
f 290/318/318 302/342/342 175/188/188 
f 302/342/342 303/343/343 175/188/188 
f 190/203/203 154/167/167 329/374/374 
f 154/167/167 232/247/247 329/374/374 
f 251/375/375 330/376/376 293/325/325 
f 264/284/284 226/241/241 246/261/261 
f 168/181/181 331/377/377 276/300/300 
f 213/226/226 270/293/293 271/294/294 
f 274/298/298 210/223/223 208/221/221 
f 210/223/223 274/298/298 236/251/251 
f 244/259/259 200/213/213 265/286/286 
f 200/213/213 199/212/212 265/286/286 
f 291/320/320 230/378/378 332/379/379 
f 230/378/378 229/380/380 332/379/379 
f 254/269/269 228/243/243 224/237/237 
f 228/243/243 222/235/235 224/237/237 
f 248/381/381 292/322/322 330/376/376 
f 295/327/327 230/378/378 291/320/320 
f 202/215/215 201/214/214 198/211/211 
f 201/214/214 163/176/176 198/211/211 
f 245/260/260 246/261/261 255/271/271 
f 246/261/261 225/239/239 255/271/271 
f 253/268/268 203/216/216 287/382/382 
f 203/216/216 202/215/215 287/382/382 
f 230/245/245 295/383/383 232/247/247 
f 295/383/383 329/374/374 232/247/247 
f 271/384/384 235/250/250 295/383/383 
f 235/250/250 236/251/251 295/383/383 
f 331/377/377 297/385/385 211/321/321 
f 297/385/385 212/386/386 211/321/321 
f 297/385/385 331/377/377 234/249/249 
f 331/377/377 206/219/219 234/249/249 
f 211/321/321 276/300/300 331/377/377 
f 295/383/383 236/251/251 329/374/374 
f 188/201/201 196/209/209 231/246/246 
f 298/334/334 228/339/339 299/335/335 
f 242/257/257 196/209/209 195/208/208 
f 187/200/200 188/201/201 231/246/246 
f 253/316/316 289/317/317 254/387/387 
f 289/317/317 299/335/335 254/387/387 
f 228/339/339 254/387/387 299/335/335 
f 227/338/338 298/334/334 255/336/336 
f 237/388/388 333/389/389 334/390/390 
f 334/390/390 333/389/389 239/391/391 
f 249/373/373 251/375/375 293/325/325 
f 335/392/392 237/388/388 334/390/390 
f 198/211/211 197/210/210 237/252/252 
f 239/254/254 242/257/257 195/208/208 
f 333/389/389 242/393/393 239/391/391 
f 335/394/394 198/211/211 237/252/252 
f 237/388/388 238/395/395 333/389/389 
f 238/395/395 332/379/379 333/389/389 
f 288/315/315 334/390/390 240/324/324 
f 334/390/390 239/391/391 240/324/324 
f 238/395/395 241/319/319 332/379/379 
f 241/319/319 291/320/320 332/379/379 
f 332/379/379 229/380/380 333/389/389 
f 229/380/380 242/393/393 333/389/389 
f 134/147/147 132/145/145 248/263/263 
f 153/166/166 184/197/197 187/200/200 
f 250/265/265 134/147/147 251/266/266 
f 251/266/266 134/147/147 248/263/263 
f 287/314/314 335/392/392 288/315/315 
f 335/392/392 334/390/390 288/315/315 
f 299/335/335 289/317/317 245/337/337 
f 289/317/317 243/323/323 245/337/337 
f 189/202/202 330/376/376 193/206/206 
f 330/376/376 292/322/322 193/206/206 
f 185/198/198 155/168/168 157/170/170 
f 249/373/373 293/325/325 294/326/326 
f 247/273/273 252/267/267 248/381/381 
f 252/267/267 292/322/322 248/381/381 
f 293/325/325 330/376/376 157/170/170 
f 330/376/376 189/202/202 157/170/170 
f 251/375/375 248/381/381 330/376/376 
f 148/161/161 261/280/280 142/155/155 
f 159/172/172 158/171/171 169/182/182 
f 183/196/196 177/190/190 193/206/206 
f 177/190/190 176/189/189 193/206/206 
f 214/227/227 336/396/396 165/178/178 
f 290/318/318 175/188/188 133/146/146 
f 175/188/188 174/187/187 133/146/146 
f 337/397/397 338/398/398 339/399/399 
f 191/204/204 317/359/359 314/356/356 
f 313/355/355 309/351/351 314/356/356 
f 190/203/203 275/299/299 152/165/165 
f 340/400/400 341/401/401 337/402/402 
f 342/403/403 343/404/404 344/405/405 
f 317/359/359 191/204/204 152/165/165 
f 296/406/406 272/295/295 273/296/296 
f 343/404/404 337/397/397 339/399/399 
f 309/351/351 308/350/350 294/326/326 
f 317/359/359 278/303/303 280/305/305 
f 278/303/303 317/359/359 152/165/165 
f 190/203/203 329/374/374 275/299/299 
f 329/374/374 236/251/251 275/299/299 
f 168/181/181 166/179/179 331/377/377 
f 166/179/179 206/219/219 331/377/377 
f 307/347/347 300/340/340 306/346/346 
f 300/340/340 302/342/342 306/346/346 
f 175/188/188 303/343/343 171/184/184 
f 303/343/343 192/205/205 171/184/184 
f 192/205/205 172/185/185 217/230/230 
f 172/185/185 173/186/186 217/230/230 
f 167/180/180 172/185/185 282/307/307 
f 192/205/205 217/230/230 170/183/183 
f 250/265/265 249/264/264 304/344/344 
f 156/169/169 309/351/351 294/326/326 
f 345/407/407 338/398/398 313/355/355 
f 309/351/351 313/355/355 308/350/350 
f 310/352/352 314/356/356 318/360/360 
f 310/352/352 315/357/357 311/353/353 
f 313/355/355 338/398/398 308/350/350 
f 315/357/357 310/352/352 318/360/360 
f 323/365/365 346/408/408 324/366/366 
f 346/408/408 327/369/369 324/366/366 
f 316/358/358 315/357/357 346/408/408 
f 315/357/357 327/369/369 346/408/408 
f 214/227/227 347/409/409 348/410/410 
f 320/362/362 319/361/361 347/409/409 
f 345/407/407 349/411/411 338/398/398 
f 312/354/354 345/407/407 313/355/355 
f 350/412/412 284/309/309 351/413/413 
f 284/309/309 286/311/311 351/413/413 
f 284/309/309 350/412/412 285/310/310 
f 350/412/412 328/370/370 285/310/310 
f 327/369/369 328/370/370 324/366/366 
f 328/370/370 350/412/412 324/366/366 
f 324/366/366 350/412/412 326/368/368 
f 350/412/412 351/413/413 326/368/368 
f 287/382/382 202/215/215 335/394/394 
f 202/215/215 198/211/211 335/394/394 
f 221/234/234 182/195/195 220/233/233 
f 154/167/167 153/166/166 187/200/200 
f 201/214/214 159/172/172 163/176/176 
f 159/172/172 161/174/174 163/176/176 
f 201/214/214 150/163/163 159/172/172 
f 150/163/163 151/164/164 159/172/172 
f 320/362/362 352/414/414 322/364/364 
f 352/414/414 353/415/415 322/364/364 
f 354/416/416 352/414/414 347/409/409 
f 352/414/414 320/362/362 347/409/409 
f 355/417/417 356/418/418 357/419/419 
f 356/418/418 300/340/340 357/419/419 
f 355/417/417 358/420/420 352/414/414 
f 358/420/420 353/415/415 352/414/414 
f 217/230/230 173/186/186 215/228/228 
f 173/186/186 276/300/300 215/228/228 
f 319/361/361 348/410/410 347/409/409 
f 351/421/421 348/410/410 326/371/371 
f 341/401/401 359/422/422 357/419/419 
f 359/422/422 360/423/423 357/419/419 
f 357/419/419 360/423/423 355/417/417 
f 360/423/423 358/420/420 355/417/417 
f 301/341/341 356/418/418 282/307/307 
f 356/418/418 354/416/416 282/307/307 
f 352/414/414 354/416/416 355/417/417 
f 354/416/416 356/418/418 355/417/417 
f 344/405/405 339/399/399 361/424/424 
f 172/185/185 301/341/341 282/307/307 
f 285/310/310 328/370/370 318/360/360 
f 309/351/351 191/204/204 314/356/356 
f 272/425/333 296/333/333 270/293/293 
f 270/293/293 207/332/332 209/291/291 
f 270/293/293 234/329/329 233/426/425 
f 233/426/425 272/425/333 270/293/293 
f 337/397/397 305/349/349 308/350/350 
f 341/401/401 307/347/347 337/402/402 
f 307/347/347 341/401/401 357/419/419 
f 338/398/398 337/397/397 308/350/350 
f 362/427/426 340/400/400 343/428/427 
f 363/429/428 340/400/400 364/430/429 
f 343/404/404 339/399/399 344/405/405 
f 342/431/430 362/427/426 343/428/427 
f 365/432/431 341/401/401 363/429/428 
f 300/340/340 307/347/347 357/419/419 
f 340/400/400 362/427/426 364/430/429 
f 359/422/422 341/401/401 365/432/431 
f 214/227/227 282/307/307 354/416/416 
f 356/418/418 301/341/341 300/340/340 
f 348/410/410 319/361/361 326/371/371 
f 286/312/312 336/396/396 351/421/421 
f 336/396/396 348/410/410 351/421/421 
f 347/409/409 214/227/227 354/416/416 
f 336/396/396 279/304/304 165/178/178 
f 336/396/396 286/312/312 279/304/304 
f 295/327/327 213/226/226 271/294/294 
f 343/428/427 340/400/400 337/402/402 
f 307/347/347 305/345/345 337/402/402 
f 363/429/428 341/401/401 340/400/400 
f 339/399/399 366/433/432 361/424/424 
f 336/396/396 214/227/227 348/410/410 
f 339/399/399 338/398/398 366/433/432 
f 366/433/432 338/398/398 349/411/411 
# 0 polygons - 688 triangles

