# 3ds Max Wavefront OBJ Exporter v0.99 - (c)2007 guruware
# File Created: 16.04.2025 20:11:30

mtllib ProfesorRightArm.mtl

#
# object ProfesorRightArm
#

v  -2.7482 -5.3694 4.1633
v  -3.9966 -7.2732 4.0832
v  -2.7048 -8.3504 4.3691
v  -1.1700 -6.3101 4.4556
v  -1.7851 -9.4879 3.8628
v  -0.3445 -7.9563 3.8584
v  1.1101 -6.7731 3.8672
v  0.7580 -5.7199 4.6073
v  -0.8313 1.5698 0.2311
v  -0.5413 1.7062 0.6382
v  -0.3026 2.3696 -0.3031
v  -0.7482 1.8824 -0.5300
v  -1.2807 0.8992 0.5409
v  -0.9704 0.8264 1.4297
v  -1.3468 1.1012 -0.5157
v  0.3435 2.3491 -4.2505
v  0.7251 2.8136 -4.1741
v  0.8356 2.2660 -4.9537
v  0.5279 2.1261 -4.8421
v  0.4335 1.4066 -5.2156
v  0.0656 1.6334 -4.5368
v  0.9609 -9.3858 -3.6073
v  -0.7152 -11.4096 -3.5069
v  -1.4657 -10.7141 -4.9365
v  0.8008 -8.3082 -5.6368
v  -2.4179 -9.7410 -5.7483
v  -0.6254 -7.7151 -6.4900
v  1.7522 0.8523 3.6644
v  0.9665 0.9000 3.3045
v  0.3326 -0.9238 4.3306
v  1.2951 -1.0914 4.7266
v  -0.4617 -3.4016 4.7851
v  0.7738 -3.4428 5.1339
v  -0.5379 -0.7611 3.8109
v  -1.5086 -2.9831 4.2479
v  -1.2570 -0.5990 3.1171
v  -2.3360 -2.5866 3.3660
v  -3.6764 -4.5689 3.4507
v  -4.9967 -6.3830 3.3326
v  -2.8877 -2.1238 2.3066
v  -4.2837 -3.9315 2.3726
v  -5.7281 -5.7001 2.3079
v  -6.9598 -7.3378 2.3679
v  -6.2453 -7.9946 3.3855
v  -4.6742 -3.4964 1.0522
v  -6.0857 -5.3068 1.0100
v  -7.4018 -6.9797 1.0715
v  -8.5685 -8.4789 1.1992
v  -8.0386 -8.8021 2.4497
v  -6.2464 -5.1996 -0.4708
v  -7.5993 -6.9755 -0.3900
v  -8.8933 -8.5285 -0.2331
v  -7.6689 -7.2377 -1.9338
v  -8.9724 -8.9067 -1.7416
v  -7.5257 -7.6068 -3.3639
v  -8.8482 -9.3970 -3.1697
v  -7.2534 -8.0434 -4.5041
v  -8.5479 -9.8614 -4.2858
v  -6.7811 -8.6729 -5.3061
v  -8.0827 -10.4832 -5.0686
v  -7.3659 -9.3942 3.4700
v  -6.5436 -10.2411 4.1613
v  -5.3253 -8.8902 4.1032
v  -5.5627 -11.2332 4.3918
v  -4.2244 -9.9230 4.3826
v  -4.6259 -12.2229 4.0974
v  -3.2502 -10.9312 3.9529
v  -3.8737 -13.1439 3.2746
v  -2.4881 -11.8681 3.0430
v  -1.0385 -10.4644 2.9503
v  -1.9653 -12.6492 1.7906
v  -0.5564 -11.1462 1.6589
v  0.7019 -9.4945 1.6404
v  0.2770 -8.9214 2.8899
v  1.8155 -8.0934 1.6241
v  1.5268 -7.5953 2.9039
v  1.1203 2.0205 1.9485
v  0.4651 1.9565 1.5882
v  0.1972 0.8831 2.8551
v  -0.1466 1.8352 1.1325
v  -0.4691 0.8473 2.2282
v  -1.7062 -0.3675 2.1302
v  -2.0835 -0.2035 0.8869
v  -3.2596 -1.7473 1.0272
v  -2.2015 0.0450 -0.4253
v  -3.3979 -1.4952 -0.4285
v  -4.8465 -3.2836 -0.4551
v  -3.2837 -1.2489 -1.9583
v  -4.7846 -3.2762 -2.0554
v  -6.2549 -5.3226 -2.0391
v  -4.5778 -3.4762 -3.5237
v  -6.1500 -5.5667 -3.5282
v  -4.2269 -3.9042 -4.7769
v  -5.8367 -5.9991 -4.7151
v  -3.6587 -4.6137 -5.7441
v  -5.3213 -6.6652 -5.5948
v  -2.8151 -5.6427 -6.2911
v  -4.4773 -7.5941 -5.9897
v  -6.0131 -9.5253 -5.6572
v  -7.3143 -11.2517 -5.3709
v  -3.4564 -8.6558 -6.0092
v  -5.0576 -10.4789 -5.6130
v  -6.4299 -12.1076 -5.3006
v  -4.1223 -11.5078 -5.2954
v  -5.5215 -13.0104 -4.8809
v  -3.3817 -13.9550 2.0611
v  -3.1951 -14.5657 0.5262
v  -1.7290 -13.2141 0.2290
v  -3.3871 -14.8336 -1.1851
v  -1.8900 -13.3507 -1.5480
v  -0.2865 -11.4861 -1.7411
v  -0.3080 -11.4063 0.0910
v  1.1052 -9.7133 -1.7053
v  0.9613 -9.7607 0.0906
v  0.3294 3.1205 -1.1362
v  0.8405 3.4322 -0.9213
v  0.9169 3.6067 -2.0789
v  0.4471 3.2645 -2.2358
v  0.5568 3.1115 -3.2523
v  0.1408 2.6151 -3.4064
v  -0.0283 2.7367 -2.4170
v  -0.1612 2.6983 -1.3617
v  0.1687 2.6571 0.0086
v  -0.4759 2.0477 -2.6308
v  -0.6230 2.1221 -1.5596
v  -1.2366 1.3202 -1.6911
v  -1.0455 1.2465 -2.8759
v  -1.8550 0.1256 -3.1470
v  -2.0854 0.2791 -1.8101
v  -0.2433 1.8860 -3.6493
v  -0.7469 0.9590 -3.9787
v  -1.4686 -0.2253 -4.3708
v  -2.5934 -1.8283 -4.7456
v  -3.0027 -1.3936 -3.4430
v  -0.3116 0.6058 -4.9564
v  -0.8918 -0.7091 -5.4606
v  -2.0161 -2.4758 -5.8441
v  -0.2554 -1.3920 -6.2127
v  -1.2405 -3.4327 -6.5104
v  0.4673 -2.0010 -6.7115
v  -0.3852 -4.3745 -6.8150
v  -1.7160 -6.7502 -6.4772
v  0.6228 -5.0666 -6.9097
v  1.2864 -2.4980 -6.9888
v  1.8791 -5.5308 -6.8269
v  0.8163 -0.0381 -6.2783
v  0.2230 0.2366 -5.7307
v  0.8576 1.3518 -5.6331
v  0.7223 2.8377 0.3184
v  -2.3743 -13.1213 -3.2128
v  -3.9113 -14.5429 -2.7744
v  -4.6480 -13.8703 -4.0293
v  -3.1508 -12.4409 -4.5020
v  -13.8431 -13.7768 -0.3720
v  -12.7666 -12.7140 0.2633
v  -12.7164 -12.7346 -0.6105
v  -13.1691 -13.3924 -1.2845
v  -13.7884 -13.9200 1.3985
v  -12.6499 -12.9325 1.6671
v  -13.4210 -14.3700 -2.1108
v  -14.3056 -15.0347 -1.6588
v  -11.9222 -11.9238 0.3333
v  -12.1628 -12.2720 -0.8478
v  -12.4486 -13.0093 -1.8935
v  -11.3113 -11.5189 -1.2921
v  -11.3903 -12.4748 -2.7248
v  -10.6658 -12.9504 -3.9651
v  -11.4150 -14.3203 -4.0600
v  -12.0508 -13.9371 -3.2457
v  -12.7468 -13.9798 -2.6009
v  -12.9691 -14.7191 -2.9924
v  -13.4992 -15.2013 -2.7939
v  -12.6058 -14.9993 -3.4799
v  -13.2538 -15.8750 -3.4070
v  -10.0193 -9.8883 -0.0727
v  -9.6433 -9.7712 1.3608
v  -10.1663 -10.3483 -1.5459
v  -10.0708 -10.9594 -2.9432
v  -9.6906 -11.4666 -4.0889
v  -9.1320 -12.0809 -4.8607
v  -9.9743 -13.5340 -4.6950
v  -10.7137 -14.8770 -4.5823
v  -8.3462 -12.7738 -5.1215
v  -9.1924 -14.1556 -4.9236
v  -9.9478 -15.4643 -4.7511
v  -10.7333 -16.7020 -4.5405
v  -11.4321 -16.0930 -4.4413
v  -8.3652 -14.7962 -4.7732
v  -9.1496 -16.0508 -4.5678
v  -9.9790 -17.3018 -4.3764
v  -10.9466 -18.5442 -4.1520
v  -11.6467 -17.9304 -4.3351
v  -8.3258 -16.6100 -4.1249
v  -9.1719 -17.8225 -3.8995
v  -10.1312 -19.0442 -3.6806
v  -11.2886 -20.3011 -3.3765
v  -12.1656 -19.8249 -3.8295
v  -8.3573 -18.2099 -3.0578
v  -9.3329 -19.3715 -2.8450
v  -10.4124 -20.5673 -2.6112
v  -8.6292 -19.6307 -1.7281
v  -9.6575 -20.7366 -1.5685
v  -13.2256 -18.3958 -3.9202
v  -12.2631 -17.2726 -4.2568
v  -12.7361 -19.1333 -4.0178
v  -13.6808 -17.6210 -3.6103
v  -12.8022 -16.5731 -3.9476
v  -12.0810 -15.5064 -4.0849
v  -14.1369 -16.8275 -3.1559
v  -15.5307 -16.9741 -2.1670
v  -14.4082 -15.9825 -2.5306
v  -15.5692 -16.0296 -1.3323
v  -15.3168 -15.1522 -0.2165
v  -14.9991 -15.0698 1.1795
v  -12.8338 -15.0520 3.5567
v  -11.7137 -13.9764 3.7803
v  -12.3259 -13.3475 2.8962
v  -13.4407 -14.4224 2.6823
v  -10.5135 -12.8360 3.8189
v  -11.1591 -12.2653 2.8728
v  -11.6313 -11.9301 1.6726
v  -10.0561 -11.1765 2.7399
v  -10.6416 -10.8998 1.5301
v  -11.0355 -11.0167 0.1326
v  -9.3636 -11.7253 3.6957
v  -8.3538 -10.6290 3.5286
v  -9.0469 -10.0712 2.5636
v  -7.5537 -11.4114 4.2097
v  -7.5039 -13.5200 -5.0130
v  -6.6623 -14.2921 -4.5542
v  -7.5426 -15.4244 -4.3063
v  -5.8360 -15.0201 -3.6740
v  -6.7162 -15.9697 -3.4378
v  -7.4822 -17.0474 -3.2823
v  -5.8285 -16.4805 -2.2332
v  -6.6131 -17.4042 -2.0805
v  -7.6302 -18.5141 -1.8565
v  -6.1337 -17.5023 -0.5215
v  -7.1529 -18.6470 -0.3632
v  -8.1514 -19.7497 -0.2959
v  -9.1240 -20.7717 -0.2374
v  -7.1812 -18.4046 1.2591
v  -8.2100 -19.4991 1.2957
v  -9.1651 -20.4113 1.2548
v  -11.0501 -16.7307 4.3454
v  -9.9817 -15.6513 4.5102
v  -10.8881 -14.7855 4.3023
v  -11.9998 -15.8489 4.1085
v  -8.7782 -14.4628 4.5887
v  -9.6896 -13.5933 4.4191
v  -7.6594 -13.3779 4.5500
v  -8.5633 -12.4975 4.3069
v  -7.8543 -15.3363 4.4082
v  -6.7665 -14.2901 4.2922
v  -5.7398 -13.3006 4.2143
v  -6.6376 -12.3451 4.4729
v  -7.0749 -16.1391 3.6793
v  -6.0221 -15.1130 3.5383
v  -5.0191 -14.1564 3.4054
v  -6.4605 -16.7817 2.5657
v  -5.4783 -15.8037 2.3922
v  -4.5159 -14.9284 2.2620
v  -4.2874 -15.5391 0.7826
v  -5.0318 -15.6060 -2.4372
v  -4.4659 -15.8507 -0.8922
v  -5.2491 -16.6211 -0.6873
v  -5.1438 -16.3528 0.9667
v  -6.0796 -17.2660 1.1396
v  -7.5962 -17.9346 2.6830
v  -8.6359 -19.0005 2.6616
v  -8.2492 -17.2782 3.7440
v  -9.2908 -18.3454 3.6627
v  -9.0629 -16.5019 4.4012
v  -10.1145 -17.5798 4.2063
# 274 vertices

vn -0.3326 0.1495 0.9312
vn -0.2594 0.1785 0.9491
vn 0.0507 -0.0641 0.9967
vn -0.0570 -0.1114 0.9921
vn 0.3522 -0.3113 0.8826
vn 0.3291 -0.3647 0.8710
vn 0.1083 -0.6162 0.7801
vn -0.2468 -0.3403 0.9074
vn -0.7526 0.6195 0.2230
vn -0.6799 0.6576 0.3244
vn -0.6975 0.6880 0.2005
vn -0.7792 0.6182 0.1038
vn -0.7472 0.6211 0.2364
vn -0.6875 0.6320 0.3576
vn -0.7787 0.6196 0.0988
vn -0.7251 0.5522 -0.4114
vn -0.5818 0.6824 -0.4426
vn -0.4785 0.5906 -0.6498
vn -0.6639 0.5020 -0.5543
vn -0.6372 0.4287 -0.6405
vn -0.7366 0.4744 -0.4821
vn 0.6675 -0.6685 -0.3279
vn 0.6542 -0.6468 -0.3921
vn 0.4353 -0.5753 -0.6925
vn 0.4292 -0.5843 -0.6888
vn 0.1263 -0.3799 -0.9164
vn 0.0898 -0.3296 -0.9398
vn -0.3259 0.6234 0.7107
vn -0.3230 0.6345 0.7022
vn -0.3368 0.3919 0.8562
vn -0.4153 0.3875 0.8230
vn -0.2601 0.0641 0.9634
vn -0.4276 0.0092 0.9039
vn -0.4691 0.4515 0.7590
vn -0.4291 0.2334 0.8726
vn -0.6225 0.5126 0.5914
vn -0.6090 0.4165 0.6750
vn -0.5536 0.3693 0.7464
vn -0.4995 0.3676 0.7845
vn -0.7064 0.5326 0.4663
vn -0.6804 0.5219 0.5145
vn -0.6683 0.5158 0.5361
vn -0.6502 0.5235 0.5506
vn -0.4666 0.3983 0.7897
vn -0.7563 0.5936 0.2750
vn -0.7640 0.5920 0.2568
vn -0.7554 0.6026 0.2575
vn -0.7354 0.6162 0.2818
vn -0.6339 0.5358 0.5577
vn -0.8002 0.5983 0.0404
vn -0.7873 0.6163 0.0197
vn -0.7740 0.6331 0.0103
vn -0.7971 0.5862 -0.1446
vn -0.7795 0.5982 -0.1858
vn -0.7891 0.5371 -0.2980
vn -0.7690 0.5431 -0.3371
vn -0.7195 0.4472 -0.5314
vn -0.7095 0.4426 -0.5484
vn -0.4910 0.2381 -0.8380
vn -0.4867 0.2258 -0.8439
vn -0.4673 0.4196 0.7782
vn -0.2375 0.2457 0.9398
vn -0.2382 0.2258 0.9446
vn 0.0435 0.0061 0.9990
vn 0.0502 -0.0259 0.9984
vn 0.3324 -0.2617 0.9061
vn 0.3448 -0.2930 0.8918
vn 0.5270 -0.4676 0.7097
vn 0.5394 -0.4791 0.6925
vn 0.5644 -0.4866 0.6668
vn 0.6702 -0.6011 0.4353
vn 0.7137 -0.5833 0.3879
vn 0.7302 -0.5845 0.3538
vn 0.5848 -0.5141 0.6274
vn 0.6325 -0.7030 0.3252
vn 0.4528 -0.6953 0.5582
vn -0.3148 0.7754 0.5474
vn -0.4242 0.7554 0.4994
vn -0.4375 0.6487 0.6228
vn -0.5656 0.7096 0.4202
vn -0.5758 0.6507 0.4950
vn -0.7135 0.5691 0.4088
vn -0.7569 0.6011 0.2565
vn -0.7544 0.5964 0.2742
vn -0.7799 0.6166 0.1078
vn -0.7830 0.6147 0.0952
vn -0.7935 0.6045 0.0703
vn -0.7857 0.6117 -0.0920
vn -0.7970 0.5953 -0.1020
vn -0.8047 0.5829 -0.1123
vn -0.7622 0.5782 -0.2911
vn -0.7836 0.5538 -0.2814
vn -0.6736 0.5113 -0.5337
vn -0.6975 0.4772 -0.5345
vn -0.4903 0.3266 -0.8081
vn -0.4819 0.2747 -0.8321
vn -0.2716 0.0839 -0.9587
vn -0.2266 0.0214 -0.9738
vn -0.1976 -0.0168 -0.9801
vn -0.1766 -0.0351 -0.9837
vn -0.0858 -0.1587 -0.9836
vn -0.0183 -0.1953 -0.9806
vn 0.0284 -0.2259 -0.9737
vn 0.1559 -0.3815 -0.9111
vn 0.2005 -0.4190 -0.8856
vn 0.6345 -0.6110 0.4734
vn 0.6867 -0.7035 0.1829
vn 0.7333 -0.6642 0.1451
vn 0.6579 -0.7385 -0.1476
vn 0.7054 -0.6954 -0.1372
vn 0.7616 -0.6397 -0.1040
vn 0.7749 -0.6193 0.1265
vn 0.7586 -0.6484 -0.0634
vn 0.7731 -0.6194 0.1363
vn -0.6091 0.7809 0.1383
vn -0.4447 0.8626 0.2413
vn -0.4779 0.8784 0.0061
vn -0.6521 0.7551 -0.0672
vn -0.6550 0.7115 -0.2546
vn -0.7532 0.5937 -0.2831
vn -0.7557 0.6394 -0.1417
vn -0.7315 0.6813 0.0271
vn -0.5637 0.7603 0.3227
vn -0.7834 0.5861 -0.2070
vn -0.7873 0.6148 -0.0465
vn -0.7808 0.6210 -0.0682
vn -0.7565 0.6010 -0.2579
vn -0.7392 0.6072 -0.2915
vn -0.7786 0.6227 -0.0779
vn -0.7684 0.5372 -0.3477
vn -0.7161 0.5541 -0.4246
vn -0.6681 0.5659 -0.4831
vn -0.6615 0.5402 -0.5202
vn -0.7451 0.5936 -0.3041
vn -0.6496 0.4869 -0.5839
vn -0.5525 0.4760 -0.6842
vn -0.5075 0.3968 -0.7648
vn -0.4045 0.3265 -0.8543
vn -0.3237 0.1892 -0.9270
vn -0.2706 0.1816 -0.9454
vn -0.1890 0.0259 -0.9816
vn -0.1440 -0.0916 -0.9853
vn -0.0107 -0.1526 -0.9882
vn -0.1490 0.0580 -0.9871
vn 0.1961 -0.3464 -0.9174
vn -0.3997 0.3129 -0.8616
vn -0.5437 0.3952 -0.7404
vn -0.4669 0.4334 -0.7708
vn -0.4162 0.8100 0.4132
vn 0.5802 -0.6827 -0.4442
vn 0.5345 -0.7048 -0.4664
vn 0.3692 -0.5945 -0.7143
vn 0.3758 -0.5708 -0.7300
vn -0.7063 0.7002 -0.1037
vn -0.6949 0.7162 0.0647
vn -0.6755 0.7190 -0.1637
vn -0.6998 0.6341 -0.3289
vn -0.6913 0.6783 0.2489
vn -0.6765 0.6803 0.2818
vn -0.6921 0.5586 -0.4572
vn -0.6555 0.6028 -0.4549
vn -0.6989 0.7128 0.0582
vn -0.6855 0.6954 -0.2157
vn -0.6667 0.6110 -0.4267
vn -0.7171 0.6528 -0.2443
vn -0.6904 0.5494 -0.4706
vn -0.6377 0.3996 -0.6585
vn -0.5534 0.3434 -0.7589
vn -0.6255 0.4707 -0.6222
vn -0.6502 0.5296 -0.5447
vn -0.6277 0.4653 -0.6241
vn -0.6301 0.4691 -0.6188
vn -0.5776 0.3846 -0.7200
vn -0.5623 0.3189 -0.7630
vn -0.7558 0.6548 0.0058
vn -0.7062 0.6426 0.2973
vn -0.7535 0.6192 -0.2210
vn -0.7383 0.5461 -0.3959
vn -0.6867 0.4226 -0.5915
vn -0.4742 0.1984 -0.8578
vn -0.4252 0.1717 -0.8887
vn -0.3466 0.1236 -0.9298
vn -0.1524 -0.0565 -0.9867
vn -0.1097 -0.0732 -0.9913
vn -0.0702 -0.0984 -0.9927
vn -0.0532 -0.1251 -0.9907
vn -0.2869 0.0618 -0.9560
vn 0.1425 -0.2579 -0.9556
vn 0.1766 -0.2670 -0.9474
vn 0.1796 -0.2922 -0.9393
vn 0.1549 -0.3342 -0.9297
vn -0.0755 -0.1541 -0.9852
vn 0.3956 -0.4097 -0.8220
vn 0.3978 -0.4449 -0.8024
vn 0.3732 -0.4854 -0.7906
vn 0.2914 -0.5499 -0.7827
vn 0.0767 -0.4082 -0.9097
vn 0.5500 -0.5607 -0.6190
vn 0.5405 -0.5843 -0.6054
vn 0.4831 -0.6307 -0.6073
vn 0.6504 -0.6440 -0.4028
vn 0.6170 -0.6776 -0.4002
vn -0.3696 0.0000 -0.9292
vn -0.3006 0.0229 -0.9535
vn -0.1571 -0.1937 -0.9684
vn -0.4830 0.1297 -0.8660
vn -0.4669 0.1778 -0.8662
vn -0.4768 0.2510 -0.8424
vn -0.5480 0.2717 -0.7911
vn -0.6520 0.3685 -0.6627
vn -0.6071 0.4579 -0.6494
vn -0.6828 0.5714 -0.4553
vn -0.6967 0.7024 -0.1456
vn -0.6717 0.6977 0.2491
vn -0.5027 0.3021 0.8100
vn -0.4464 0.3708 0.8144
vn -0.5961 0.5717 0.5637
vn -0.6379 0.5211 0.5670
vn -0.4047 0.4456 0.7985
vn -0.5589 0.6096 0.5622
vn -0.6603 0.6881 0.3008
vn -0.5562 0.6089 0.5655
vn -0.6753 0.6743 0.2988
vn -0.7241 0.6894 0.0166
vn -0.3959 0.4821 0.7816
vn -0.4424 0.4518 0.7747
vn -0.5941 0.5722 0.5654
vn -0.2245 0.2700 0.9363
vn 0.0826 -0.2518 -0.9642
vn 0.2713 -0.4385 -0.8568
vn 0.3530 -0.4158 -0.8382
vn 0.4167 -0.5838 -0.6968
vn 0.4964 -0.5332 -0.6850
vn 0.5421 -0.5265 -0.6549
vn 0.6088 -0.6416 -0.4666
vn 0.6444 -0.6324 -0.4300
vn 0.6547 -0.6399 -0.4023
vn 0.7168 -0.6914 -0.0905
vn 0.7293 -0.6799 -0.0772
vn 0.7214 -0.6888 -0.0715
vn 0.7052 -0.7052 -0.0731
vn 0.7099 -0.6553 0.2582
vn 0.6856 -0.6717 0.2805
vn 0.6952 -0.6620 0.2801
vn -0.1455 -0.0977 0.9845
vn -0.0732 -0.0366 0.9966
vn -0.2644 0.1526 0.9523
vn -0.3250 0.0900 0.9414
vn -0.0044 0.0069 1.0000
vn -0.2146 0.2235 0.9508
vn 0.0383 0.0351 0.9986
vn -0.1957 0.2793 0.9401
vn 0.2619 -0.2312 0.9370
vn 0.3094 -0.2335 0.9218
vn 0.3200 -0.2457 0.9150
vn 0.0416 0.0305 0.9987
vn 0.5015 -0.4441 0.7425
vn 0.5228 -0.4500 0.7240
vn 0.5151 -0.4670 0.7188
vn 0.6375 -0.5738 0.5142
vn 0.6373 -0.5835 0.5034
vn 0.6233 -0.6063 0.4939
vn 0.6835 -0.6974 0.2154
vn 0.5499 -0.6851 -0.4778
vn 0.6660 -0.7331 -0.1376
vn 0.6954 -0.7097 -0.1127
vn 0.6975 -0.6775 0.2333
vn 0.7096 -0.6613 0.2431
vn 0.6135 -0.5828 0.5328
vn 0.5716 -0.6071 0.5520
vn 0.4445 -0.4592 0.7691
vn 0.3698 -0.4844 0.7929
vn 0.1820 -0.2548 0.9497
vn 0.0915 -0.2982 0.9501
# 274 vertex normals

vt 0.7977 0.0618 0.0000
vt 0.7854 0.0623 0.0000
vt 0.7842 0.0541 0.0000
vt 0.7967 0.0534 0.0000
vt 0.7821 0.0468 0.0000
vt 0.7899 0.0455 0.0000
vt 0.7956 0.0434 0.0000
vt 0.8026 0.0479 0.0000
vt 0.8534 0.0836 0.0000
vt 0.8557 0.0809 0.0000
vt 0.8609 0.0881 0.0000
vt 0.8550 0.0895 0.0000
vt 0.8461 0.0808 0.0000
vt 0.8454 0.0755 0.0000
vt 0.8458 0.0891 0.0000
vt 0.8645 0.1142 0.0000
vt 0.8690 0.1140 0.0000
vt 0.8671 0.1194 0.0000
vt 0.8644 0.1182 0.0000
vt 0.8600 0.1216 0.0000
vt 0.8582 0.1166 0.0000
vt 0.7987 0.1769 0.0000
vt 0.7907 0.1758 0.0000
vt 0.7913 0.1683 0.0000
vt 0.8068 0.1669 0.0000
vt 0.7912 0.1584 0.0000
vt 0.8057 0.1567 0.0000
vt 0.8503 0.0604 0.0000
vt 0.8493 0.0631 0.0000
vt 0.8323 0.0569 0.0000
vt 0.8332 0.0531 0.0000
vt 0.8139 0.0553 0.0000
vt 0.8162 0.0503 0.0000
vt 0.8313 0.0607 0.0000
vt 0.8135 0.0613 0.0000
vt 0.8310 0.0652 0.0000
vt 0.8133 0.0667 0.0000
vt 0.7976 0.0699 0.0000
vt 0.7855 0.0710 0.0000
vt 0.8143 0.0740 0.0000
vt 0.7987 0.0781 0.0000
vt 0.7872 0.0798 0.0000
vt 0.7765 0.0797 0.0000
vt 0.7748 0.0708 0.0000
vt 0.8001 0.0860 0.0000
vt 0.7888 0.0880 0.0000
vt 0.7763 0.0881 0.0000
vt 0.7644 0.0877 0.0000
vt 0.7650 0.0789 0.0000
vt 0.7891 0.0973 0.0000
vt 0.7758 0.0981 0.0000
vt 0.7632 0.0978 0.0000
vt 0.7755 0.1091 0.0000
vt 0.7616 0.1091 0.0000
vt 0.7761 0.1185 0.0000
vt 0.7602 0.1195 0.0000
vt 0.7763 0.1263 0.0000
vt 0.7610 0.1286 0.0000
vt 0.7759 0.1330 0.0000
vt 0.7608 0.1355 0.0000
vt 0.7642 0.0703 0.0000
vt 0.7632 0.0617 0.0000
vt 0.7737 0.0620 0.0000
vt 0.7622 0.0535 0.0000
vt 0.7726 0.0538 0.0000
vt 0.7612 0.0460 0.0000
vt 0.7721 0.0466 0.0000
vt 0.7607 0.0382 0.0000
vt 0.7718 0.0386 0.0000
vt 0.7808 0.0391 0.0000
vt 0.7729 0.2119 0.0000
vt 0.7728 0.2029 0.0000
vt 0.7828 0.2037 0.0000
vt 0.7821 0.2123 0.0000
vt 0.7891 0.2053 0.0000
vt 0.7878 0.2138 0.0000
vt 0.7868 0.0385 0.0000
vt 0.7951 0.2076 0.0000
vt 0.7934 0.2157 0.0000
vt 0.7924 0.0368 0.0000
vt 0.8633 0.0719 0.0000
vt 0.8617 0.0743 0.0000
vt 0.8482 0.0660 0.0000
vt 0.8583 0.0774 0.0000
vt 0.8472 0.0693 0.0000
vt 0.8313 0.0714 0.0000
vt 0.8316 0.0796 0.0000
vt 0.8158 0.0824 0.0000
vt 0.8325 0.0896 0.0000
vt 0.8178 0.0926 0.0000
vt 0.8019 0.0953 0.0000
vt 0.8193 0.1025 0.0000
vt 0.8035 0.1050 0.0000
vt 0.7898 0.1072 0.0000
vt 0.8047 0.1134 0.0000
vt 0.7912 0.1159 0.0000
vt 0.8055 0.1216 0.0000
vt 0.7921 0.1239 0.0000
vt 0.8061 0.1297 0.0000
vt 0.7923 0.1313 0.0000
vt 0.8059 0.1390 0.0000
vt 0.7919 0.1393 0.0000
vt 0.7758 0.1399 0.0000
vt 0.7612 0.1419 0.0000
vt 0.7904 0.1488 0.0000
vt 0.7753 0.1478 0.0000
vt 0.7616 0.1488 0.0000
vt 0.7751 0.1573 0.0000
vt 0.7617 0.1568 0.0000
vt 0.7609 0.2033 0.0000
vt 0.7607 0.1939 0.0000
vt 0.7737 0.1936 0.0000
vt 0.7647 0.2105 0.0000
vt 0.7608 0.1842 0.0000
vt 0.7754 0.1837 0.0000
vt 0.7878 0.1846 0.0000
vt 0.7845 0.1944 0.0000
vt 0.7943 0.1862 0.0000
vt 0.7908 0.1960 0.0000
vt 0.8691 0.0950 0.0000
vt 0.8730 0.0938 0.0000
vt 0.8741 0.1017 0.0000
vt 0.8699 0.1023 0.0000
vt 0.8697 0.1084 0.0000
vt 0.8650 0.1090 0.0000
vt 0.8645 0.1029 0.0000
vt 0.8641 0.0960 0.0000
vt 0.8652 0.0861 0.0000
vt 0.8568 0.1047 0.0000
vt 0.8566 0.0971 0.0000
vt 0.8461 0.0982 0.0000
vt 0.8468 0.1071 0.0000
vt 0.8351 0.1090 0.0000
vt 0.8335 0.1002 0.0000
vt 0.8574 0.1111 0.0000
vt 0.8479 0.1144 0.0000
vt 0.8360 0.1169 0.0000
vt 0.8210 0.1192 0.0000
vt 0.8202 0.1111 0.0000
vt 0.8490 0.1210 0.0000
vt 0.8365 0.1242 0.0000
vt 0.8214 0.1273 0.0000
vt 0.8372 0.1327 0.0000
vt 0.8217 0.1370 0.0000
vt 0.8386 0.1407 0.0000
vt 0.8221 0.1461 0.0000
vt 0.8049 0.1491 0.0000
vt 0.8229 0.1526 0.0000
vt 0.8404 0.1464 0.0000
vt 0.8256 0.1600 0.0000
vt 0.8522 0.1325 0.0000
vt 0.8500 0.1271 0.0000
vt 0.8623 0.1252 0.0000
vt 0.8699 0.0846 0.0000
vt 0.7766 0.1752 0.0000
vt 0.7612 0.1755 0.0000
vt 0.7614 0.1666 0.0000
vt 0.7757 0.1672 0.0000
vt 0.9249 0.1376 0.0000
vt 0.9185 0.1430 0.0000
vt 0.9182 0.1396 0.0000
vt 0.9224 0.1338 0.0000
vt 0.9295 0.1512 0.0000
vt 0.9216 0.1522 0.0000
vt 0.9268 0.1283 0.0000
vt 0.9302 0.1299 0.0000
vt 0.9131 0.1449 0.0000
vt 0.9147 0.1392 0.0000
vt 0.9185 0.1315 0.0000
vt 0.9075 0.1363 0.0000
vt 0.9116 0.1262 0.0000
vt 0.9093 0.1149 0.0000
vt 0.9165 0.1133 0.0000
vt 0.9186 0.1201 0.0000
vt 0.9237 0.1261 0.0000
vt 0.9266 0.1235 0.0000
vt 0.9293 0.1241 0.0000
vt 0.9246 0.1181 0.0000
vt 0.9289 0.1178 0.0000
vt 0.8885 0.1437 0.0000
vt 0.8966 0.1438 0.0000
vt 0.8953 0.1524 0.0000
vt 0.8872 0.1521 0.0000
vt 0.8902 0.1342 0.0000
vt 0.8992 0.1351 0.0000
vt 0.8917 0.1252 0.0000
vt 0.9025 0.1257 0.0000
vt 0.8909 0.1169 0.0000
vt 0.9007 0.1159 0.0000
vt 0.8917 0.1104 0.0000
vt 0.9009 0.1096 0.0000
vt 0.9090 0.1088 0.0000
vt 0.9163 0.1073 0.0000
vt 0.9007 0.1037 0.0000
vt 0.9085 0.1031 0.0000
vt 0.9161 0.1018 0.0000
vt 0.9253 0.0995 0.0000
vt 0.9251 0.1050 0.0000
vt 0.9079 0.0969 0.0000
vt 0.9154 0.0958 0.0000
vt 0.9248 0.0941 0.0000
vt 0.9314 0.0937 0.0000
vt 0.9313 0.0988 0.0000
vt 0.9149 0.0894 0.0000
vt 0.9244 0.0878 0.0000
vt 0.9313 0.0876 0.0000
vt 0.9388 0.0883 0.0000
vt 0.9387 0.0944 0.0000
vt 0.9239 0.0806 0.0000
vt 0.9309 0.0809 0.0000
vt 0.9386 0.0817 0.0000
vt 0.9311 0.0733 0.0000
vt 0.9385 0.0743 0.0000
vt 0.9372 0.1041 0.0000
vt 0.9311 0.1040 0.0000
vt 0.9380 0.0992 0.0000
vt 0.9354 0.1105 0.0000
vt 0.9301 0.1106 0.0000
vt 0.9247 0.1115 0.0000
vt 0.9329 0.1179 0.0000
vt 0.9404 0.1265 0.0000
vt 0.9326 0.1250 0.0000
vt 0.9387 0.1318 0.0000
vt 0.9358 0.1395 0.0000
vt 0.9378 0.1500 0.0000
vt 0.9304 0.1658 0.0000
vt 0.9219 0.1667 0.0000
vt 0.9217 0.1597 0.0000
vt 0.9298 0.1587 0.0000
vt 0.9114 0.1675 0.0000
vt 0.9115 0.1604 0.0000
vt 0.9119 0.1529 0.0000
vt 0.9024 0.1604 0.0000
vt 0.9031 0.1527 0.0000
vt 0.9046 0.1440 0.0000
vt 0.9023 0.1676 0.0000
vt 0.8943 0.1673 0.0000
vt 0.8943 0.1599 0.0000
vt 0.8948 0.1747 0.0000
vt 0.8871 0.1745 0.0000
vt 0.8865 0.1668 0.0000
vt 0.8931 0.0972 0.0000
vt 0.9007 0.0972 0.0000
vt 0.8924 0.1041 0.0000
vt 0.8946 0.0890 0.0000
vt 0.9014 0.0899 0.0000
vt 0.9080 0.0901 0.0000
vt 0.9029 0.0800 0.0000
vt 0.9088 0.0809 0.0000
vt 0.9147 0.0814 0.0000
vt 0.9096 0.0713 0.0000
vt 0.9154 0.0719 0.0000
vt 0.9242 0.0726 0.0000
vt 0.9132 0.2309 0.0000
vt 0.9115 0.2221 0.0000
vt 0.9214 0.2209 0.0000
vt 0.9220 0.2294 0.0000
vt 0.9292 0.2207 0.0000
vt 0.9289 0.2295 0.0000
vt 0.9372 0.2209 0.0000
vt 0.9366 0.2297 0.0000
vt 0.9209 0.2118 0.0000
vt 0.9292 0.2117 0.0000
vt 0.9377 0.2116 0.0000
vt 0.9304 0.1809 0.0000
vt 0.9218 0.1811 0.0000
vt 0.9220 0.1739 0.0000
vt 0.9305 0.1734 0.0000
vt 0.9112 0.1815 0.0000
vt 0.9114 0.1745 0.0000
vt 0.9025 0.1819 0.0000
vt 0.9024 0.1748 0.0000
vt 0.9109 0.1884 0.0000
vt 0.9025 0.1888 0.0000
vt 0.8954 0.1891 0.0000
vt 0.8951 0.1821 0.0000
vt 0.9105 0.1954 0.0000
vt 0.9025 0.1961 0.0000
vt 0.8959 0.1965 0.0000
vt 0.9102 0.2037 0.0000
vt 0.9028 0.2044 0.0000
vt 0.8967 0.2051 0.0000
vt 0.8981 0.2146 0.0000
vt 0.8927 0.2156 0.0000
vt 0.8909 0.2058 0.0000
vt 0.8986 0.0694 0.0000
vt 0.9042 0.0705 0.0000
vt 0.8967 0.0788 0.0000
vt 0.8947 0.2258 0.0000
vt 0.9001 0.2245 0.0000
vt 0.9022 0.2336 0.0000
vt 0.8967 0.2350 0.0000
vt 0.9075 0.2324 0.0000
vt 0.9054 0.2233 0.0000
vt 0.9038 0.2137 0.0000
vt 0.9102 0.2127 0.0000
vt 0.9210 0.2029 0.0000
vt 0.9294 0.2028 0.0000
vt 0.9212 0.1948 0.0000
vt 0.9298 0.1947 0.0000
vt 0.9216 0.1879 0.0000
vt 0.9302 0.1879 0.0000
vt 0.8860 0.1593 0.0000
vt 0.8883 0.1893 0.0000
vt 0.8876 0.1821 0.0000
vt 0.8894 0.1970 0.0000
# 306 texture coords

o ProfesorRightArm
g ProfesorRightArm
usemtl rp_carla_rigged_001_mat
s off
f 1/1/1 2/2/2 3/3/3 4/4/4 
f 3/3/3 5/5/5 6/6/6 4/4/4 
f 4/4/4 6/6/6 7/7/7 8/8/8 
f 9/9/9 10/10/10 11/11/11 12/12/12 
f 13/13/13 14/14/14 10/10/10 9/9/9 
f 9/9/9 12/12/12 15/15/15 13/13/13 
f 16/16/16 17/17/17 18/18/18 19/19/19 
f 19/19/19 20/20/20 21/21/21 16/16/16 
f 22/22/22 23/23/23 24/24/24 25/25/25 
f 24/24/24 26/26/26 27/27/27 25/25/25 
f 28/28/28 29/29/29 30/30/30 31/31/31 
f 30/30/30 32/32/32 33/33/33 31/31/31 
f 32/32/32 4/4/4 8/8/8 33/33/33 
f 30/30/30 34/34/34 35/35/35 32/32/32 
f 32/32/32 35/35/35 1/1/1 4/4/4 
f 34/34/34 36/36/36 37/37/37 35/35/35 
f 35/35/35 37/37/37 38/38/38 1/1/1 
f 39/39/39 2/2/2 1/1/1 38/38/38 
f 37/37/37 40/40/40 41/41/41 38/38/38 
f 38/38/38 41/41/41 42/42/42 39/39/39 
f 43/43/43 44/44/44 39/39/39 42/42/42 
f 41/41/41 45/45/45 46/46/46 42/42/42 
f 42/42/42 46/46/46 47/47/47 43/43/43 
f 48/48/48 49/49/49 43/43/43 47/47/47 
f 47/47/47 46/46/46 50/50/50 51/51/51 
f 51/51/51 52/52/52 48/48/48 47/47/47 
f 52/52/52 51/51/51 53/53/53 54/54/54 
f 54/54/54 53/53/53 55/55/55 56/56/56 
f 56/56/56 55/55/55 57/57/57 58/58/58 
f 58/58/58 57/57/57 59/59/59 60/60/60 
f 61/61/61 62/62/62 63/63/63 44/44/44 
f 44/44/44 43/43/43 49/49/49 61/61/61 
f 62/62/62 64/64/64 65/65/65 63/63/63 
f 65/65/65 3/3/3 2/2/2 63/63/63 
f 2/2/2 39/39/39 44/44/44 63/63/63 
f 65/65/65 64/64/64 66/66/66 67/67/67 
f 65/65/65 67/67/67 5/5/5 3/3/3 
f 67/67/67 66/66/66 68/68/68 69/69/69 
f 67/67/67 69/69/69 70/70/70 5/5/5 
f 69/71/69 71/72/71 72/73/72 70/74/70 
f 70/74/70 72/73/72 73/75/73 74/76/74 
f 74/77/74 6/6/6 5/5/5 70/70/70 
f 74/76/74 73/75/73 75/78/75 76/79/76 
f 76/80/76 7/7/7 6/6/6 74/77/74 
f 77/81/77 78/82/78 79/83/79 29/29/29 
f 34/34/34 30/30/30 29/29/29 79/83/79 
f 78/82/78 80/84/80 81/85/81 79/83/79 
f 79/83/79 81/85/81 36/36/36 34/34/34 
f 80/84/80 10/10/10 14/14/14 81/85/81 
f 81/85/81 14/14/14 82/86/82 36/36/36 
f 40/40/40 37/37/37 36/36/36 82/86/82 
f 14/14/14 13/13/13 83/87/83 82/86/82 
f 82/86/82 83/87/83 84/88/84 40/40/40 
f 45/45/45 41/41/41 40/40/40 84/88/84 
f 83/87/83 85/89/85 86/90/86 84/88/84 
f 84/88/84 86/90/86 87/91/87 45/45/45 
f 50/50/50 46/46/46 45/45/45 87/91/87 
f 86/90/86 88/92/88 89/93/89 87/91/87 
f 89/93/89 90/94/90 50/50/50 87/91/87 
f 90/94/90 53/53/53 51/51/51 50/50/50 
f 90/94/90 89/93/89 91/95/91 92/96/92 
f 92/96/92 55/55/55 53/53/53 90/94/90 
f 92/96/92 91/95/91 93/97/93 94/98/94 
f 94/98/94 57/57/57 55/55/55 92/96/92 
f 94/98/94 93/97/93 95/99/95 96/100/96 
f 96/100/96 59/59/59 57/57/57 94/98/94 
f 96/100/96 95/99/95 97/101/97 98/102/98 
f 98/102/98 99/103/99 59/59/59 96/100/96 
f 99/103/99 100/104/100 60/60/60 59/59/59 
f 99/103/99 98/102/98 101/105/101 102/106/102 
f 102/106/102 103/107/103 100/104/100 99/103/99 
f 103/107/103 102/106/102 104/108/104 105/109/105 
f 106/110/106 107/111/107 108/112/108 71/72/71 
f 71/72/71 69/71/69 68/113/68 106/110/106 
f 108/112/108 107/111/107 109/114/109 110/115/110 
f 110/115/110 111/116/111 112/117/112 108/112/108 
f 112/117/112 72/73/72 71/72/71 108/112/108 
f 111/116/111 113/118/113 114/119/114 112/117/112 
f 114/119/114 73/75/73 72/73/72 112/117/112 
f 115/120/115 116/121/116 117/122/117 118/123/118 
f 119/124/119 120/125/120 121/126/121 118/123/118 
f 118/123/118 121/126/121 122/127/122 115/120/115 
f 11/11/11 123/128/123 115/120/115 122/127/122 
f 121/126/121 124/129/124 125/130/125 122/127/122 
f 122/127/122 125/130/125 12/12/12 11/11/11 
f 126/131/126 15/15/15 12/12/12 125/130/125 
f 124/129/124 127/132/127 126/131/126 125/130/125 
f 127/132/127 128/133/128 129/134/129 126/131/126 
f 127/132/127 124/129/124 130/135/130 131/136/131 
f 131/136/131 132/137/132 128/133/128 127/132/127 
f 132/137/132 133/138/133 134/139/134 128/133/128 
f 132/137/132 131/136/131 135/140/135 136/141/136 
f 136/141/136 137/142/137 133/138/133 132/137/132 
f 137/142/137 95/99/95 93/97/93 133/138/133 
f 137/142/137 136/141/136 138/143/138 139/144/139 
f 139/144/139 97/101/97 95/99/95 137/142/137 
f 139/144/139 138/143/138 140/145/140 141/146/141 
f 141/146/141 142/147/142 97/101/97 139/144/139 
f 142/147/142 101/105/101 98/102/98 97/101/97 
f 142/147/142 141/146/141 143/148/143 27/27/27 
f 27/27/27 26/26/26 101/105/101 142/147/142 
f 141/146/141 140/145/140 144/149/144 143/148/143 
f 145/150/145 25/25/25 27/27/27 143/148/143 
f 146/151/146 140/145/140 138/143/138 147/152/147 
f 147/152/147 20/20/20 148/153/148 146/151/146 
f 147/152/147 138/143/138 136/141/136 135/140/135 
f 135/140/135 21/21/21 20/20/20 147/152/147 
f 131/136/131 130/135/130 21/21/21 135/140/135 
f 134/139/134 91/95/91 89/93/89 88/92/88 
f 88/92/88 129/134/129 128/133/128 134/139/134 
f 133/138/133 93/97/93 91/95/91 134/139/134 
f 124/129/124 121/126/121 120/125/120 130/135/130 
f 130/135/130 120/125/120 16/16/16 21/21/21 
f 88/92/88 86/90/86 85/89/85 129/134/129 
f 129/134/129 85/89/85 15/15/15 126/131/126 
f 80/84/80 78/82/78 149/154/149 123/128/123 
f 123/128/123 149/154/149 116/121/116 115/120/115 
f 123/128/123 11/11/11 10/10/10 80/84/80 
f 120/125/120 119/124/119 17/17/17 16/16/16 
f 111/116/111 23/23/23 22/22/22 113/118/113 
f 110/115/110 150/155/150 23/23/23 111/116/111 
f 150/155/150 151/156/151 152/157/152 153/158/153 
f 153/158/153 24/24/24 23/23/23 150/155/150 
f 110/115/110 109/114/109 151/156/151 150/155/150 
f 153/158/153 152/157/152 105/109/105 104/108/104 
f 104/108/104 26/26/26 24/24/24 153/158/153 
f 102/106/102 101/105/101 26/26/26 104/108/104 
f 85/89/85 83/87/83 13/13/13 15/15/15 
f 154/159/154 155/160/155 156/161/156 157/162/157 
f 158/163/158 159/164/159 155/160/155 154/159/154 
f 154/159/154 157/162/157 160/165/160 161/166/161 
f 155/160/155 162/167/162 163/168/163 156/161/156 
f 156/161/156 163/168/163 164/169/164 157/162/157 
f 164/169/164 163/168/163 165/170/165 166/171/166 
f 167/172/167 168/173/168 169/174/169 166/171/166 
f 169/174/169 170/175/170 164/169/164 166/171/166 
f 171/176/171 172/177/172 160/165/160 170/175/170 
f 173/178/173 174/179/174 172/177/172 171/176/171 
f 171/176/171 170/175/170 169/174/169 173/178/173 
f 52/180/52 175/181/175 176/182/176 48/183/48 
f 54/184/54 177/185/177 175/181/175 52/180/52 
f 56/186/56 178/187/178 177/185/177 54/184/54 
f 58/188/58 179/189/179 178/187/178 56/186/56 
f 60/190/60 180/191/180 179/189/179 58/188/58 
f 181/192/181 182/193/182 168/173/168 167/172/167 
f 181/192/181 180/191/180 183/194/183 184/195/184 
f 184/195/184 185/196/185 182/193/182 181/192/181 
f 185/196/185 186/197/186 187/198/187 182/193/182 
f 185/196/185 184/195/184 188/199/188 189/200/189 
f 189/200/189 190/201/190 186/197/186 185/196/185 
f 190/201/190 191/202/191 192/203/192 186/197/186 
f 190/201/190 189/200/189 193/204/193 194/205/194 
f 190/201/190 194/205/194 195/206/195 191/202/191 
f 196/207/196 197/208/197 191/202/191 195/206/195 
f 194/205/194 198/209/198 199/210/199 195/206/195 
f 195/206/195 199/210/199 200/211/200 196/207/196 
f 199/210/199 201/212/201 202/213/202 200/211/200 
f 203/214/203 204/215/204 192/203/192 205/216/205 
f 205/216/205 192/203/192 191/202/191 197/208/197 
f 204/215/204 203/214/203 206/217/206 207/218/207 
f 207/218/207 208/219/208 187/198/187 204/215/204 
f 204/215/204 187/198/187 186/197/186 192/203/192 
f 208/219/208 207/218/207 174/179/174 173/178/173 
f 173/178/173 169/174/169 168/173/168 208/219/208 
f 208/219/208 168/173/168 182/193/182 187/198/187 
f 207/218/207 206/217/206 209/220/209 174/179/174 
f 210/221/210 211/222/211 209/220/209 
f 211/222/211 172/177/172 174/179/174 209/220/209 
f 211/222/211 210/221/210 212/223/212 161/166/161 
f 161/166/161 160/165/160 172/177/172 211/222/211 
f 213/224/213 154/159/154 161/166/161 212/223/212 
f 214/225/214 158/163/158 154/159/154 213/224/213 
f 215/226/215 216/227/216 217/228/217 218/229/218 
f 218/229/218 217/228/217 159/164/159 158/163/158 
f 216/227/216 219/230/219 220/231/220 217/228/217 
f 217/228/217 220/231/220 221/232/221 159/164/159 
f 220/231/220 222/233/222 223/234/223 221/232/221 
f 221/232/221 223/234/223 224/235/224 162/167/162 
f 162/167/162 155/160/155 159/164/159 221/232/221 
f 222/233/222 220/231/220 219/230/219 225/236/225 
f 222/233/222 225/236/225 226/237/226 227/238/227 
f 222/233/222 227/238/227 176/182/176 223/234/223 
f 226/237/226 228/239/228 62/240/62 61/241/61 
f 103/242/103 229/243/229 183/194/183 100/244/100 
f 105/245/105 230/246/230 229/243/229 103/242/103 
f 231/247/231 193/204/193 189/200/189 188/199/188 
f 231/247/231 230/246/230 232/248/232 233/249/233 
f 233/249/233 234/250/234 193/204/193 231/247/231 
f 198/209/198 194/205/194 193/204/193 234/250/234 
f 233/249/233 235/251/235 236/252/236 234/250/234 
f 234/250/234 236/252/236 237/253/237 198/209/198 
f 201/212/201 199/210/199 198/209/198 237/253/237 
f 236/254/236 238/255/238 239/256/239 237/257/237 
f 237/257/237 239/256/239 240/258/240 201/259/201 
f 241/260/241 202/261/202 201/259/201 240/258/240 
f 239/256/239 242/262/242 243/263/243 240/258/240 
f 240/258/240 243/263/243 244/264/244 241/260/241 
f 245/265/245 246/266/246 247/267/247 248/268/248 
f 248/268/248 247/267/247 216/227/216 215/226/215 
f 246/266/246 249/269/249 250/270/250 247/267/247 
f 247/267/247 250/270/250 219/230/219 216/227/216 
f 249/269/249 251/271/251 252/272/252 250/270/250 
f 252/272/252 225/236/225 219/230/219 250/270/250 
f 251/271/251 249/269/249 253/273/253 254/274/254 
f 254/274/254 255/275/255 256/276/256 251/271/251 
f 256/276/256 228/239/228 252/272/252 251/271/251 
f 254/274/254 253/273/253 257/277/257 258/278/258 
f 258/278/258 259/279/259 255/275/255 254/274/254 
f 258/278/258 257/277/257 260/280/260 261/281/261 
f 261/281/261 262/282/262 259/279/259 258/278/258 
f 262/282/262 263/283/263 107/284/107 106/285/106 
f 151/286/151 264/287/264 232/248/232 152/288/152 
f 109/289/109 265/290/265 264/291/264 151/292/151 
f 238/255/238 236/254/236 235/293/235 266/294/266 
f 265/290/265 263/283/263 267/295/267 266/294/266 
f 266/294/266 267/295/267 268/296/268 238/255/238 
f 242/262/242 239/256/239 238/255/238 268/296/268 
f 268/296/268 267/295/267 261/281/261 260/280/260 
f 260/280/260 269/297/269 242/262/242 268/296/268 
f 270/298/270 243/263/243 242/262/242 269/297/269 
f 269/297/269 260/280/260 257/277/257 271/299/271 
f 269/297/269 271/299/271 272/300/272 270/298/270 
f 271/299/271 273/301/273 274/302/274 272/300/272 
f 274/302/274 273/301/273 246/266/246 245/265/245 
f 271/299/271 257/277/257 253/273/253 273/301/273 
f 273/301/273 253/273/253 249/269/249 246/266/246 
f 165/170/165 163/168/163 162/167/162 224/235/224 
f 170/175/170 160/165/160 157/162/157 164/169/164 
f 175/181/175 224/235/224 223/234/223 176/182/176 
f 177/185/177 165/170/165 224/235/224 175/181/175 
f 178/187/178 166/171/166 165/170/165 177/185/177 
f 178/187/178 179/189/179 167/172/167 166/171/166 
f 180/191/180 181/192/181 167/172/167 179/189/179 
f 180/191/180 60/190/60 100/244/100 183/194/183 
f 227/238/227 226/237/226 61/241/61 49/303/49 
f 227/238/227 49/303/49 48/183/48 176/182/176 
f 225/236/225 252/272/252 228/239/228 226/237/226 
f 229/243/229 188/199/188 184/195/184 183/194/183 
f 230/246/230 231/247/231 188/199/188 229/243/229 
f 230/246/230 105/245/105 152/288/152 232/248/232 
f 256/276/256 255/275/255 66/304/66 64/305/64 
f 64/305/64 62/240/62 228/239/228 256/276/256 
f 259/279/259 68/306/68 66/304/66 255/275/255 
f 259/279/259 262/282/262 106/285/106 68/306/68 
f 261/281/261 267/295/267 263/283/263 262/282/262 
f 264/287/264 235/251/235 233/249/233 232/248/232 
f 265/290/265 266/294/266 235/293/235 264/291/264 
f 109/289/109 107/284/107 263/283/263 265/290/265 
# 247 polygons - 1 triangles

