# 3ds Max Wavefront OBJ Exporter v0.99 - (c)2007 guruware
# File Created: 09.05.2025 23:10:48

mtllib ProfesorSubRightLeg.mtl

#
# object ProfesorSubRightleg
#

v  0.2143 -0.1475 0.0101
v  0.2088 -0.2126 -0.0445
v  0.2010 -0.1481 -0.0457
v  0.0568 -0.1534 -0.0520
v  0.0689 -0.2181 -0.0495
v  0.0407 -0.2191 -0.0062
v  0.0284 -0.1544 -0.0040
v  0.1466 -0.2148 0.0813
v  0.1949 -0.2130 0.0583
v  0.1858 -0.1485 0.0575
v  0.1388 -0.1503 0.0818
v  0.0607 -0.2183 0.0411
v  0.0501 -0.1535 0.0434
v  0.1572 -0.1498 -0.0813
v  0.1651 -0.2143 -0.0781
v  0.1126 -0.2164 -0.0750
v  0.1025 -0.1518 -0.0796
v  0.0869 -0.1521 0.0794
v  0.0833 -0.1153 0.0777
v  0.0449 -0.1165 0.0436
v  0.0303 -0.0065 0.0465
v  0.0046 -0.0071 -0.0028
v  0.0096 -0.0447 -0.0031
v  0.0341 -0.0440 0.0433
v  0.0341 -0.0065 -0.0542
v  0.0383 -0.0439 -0.0511
v  0.1769 -0.0035 -0.0379
v  0.1898 -0.0032 0.0118
v  0.1911 -0.0405 0.0114
v  0.1813 -0.0407 -0.0396
v  0.0968 -0.1151 -0.0813
v  0.0483 -0.1166 -0.0500
v  0.1217 -0.0045 0.0821
v  0.0707 -0.0056 0.0810
v  0.0777 -0.0429 0.0753
v  0.1241 -0.0419 0.0762
v  0.0218 -0.1174 -0.0009
v  0.1093 -0.5843 0.0624
v  0.0708 -0.5846 0.0319
v  0.0876 -0.5840 0.0253
v  0.1194 -0.5838 0.0472
v  0.1548 -0.4169 0.0651
v  0.1555 -0.4849 0.0659
v  0.1957 -0.4842 0.0440
v  0.1964 -0.4151 0.0454
v  0.1382 -0.0417 -0.0747
v  0.1397 -0.0042 -0.0768
v  0.0531 -0.2819 -0.0072
v  0.0708 -0.2805 0.0371
v  0.1941 -0.1117 -0.0438
v  0.1510 -0.1134 -0.0804
v  0.1214 -0.2763 -0.0705
v  0.0802 -0.2795 -0.0461
v  0.1981 -0.2716 0.0552
v  0.2264 -0.2689 0.0102
v  0.2223 -0.2120 0.0102
v  0.1796 -0.4148 -0.0685
v  0.1845 -0.4842 -0.0707
v  0.1366 -0.4846 -0.0709
v  0.1325 -0.4168 -0.0712
v  0.2188 -0.4132 -0.0405
v  0.2230 -0.4841 -0.0397
v  0.1967 -0.0755 0.0095
v  0.1700 -0.0765 0.0513
v  0.1802 -0.1121 0.0531
v  0.2060 -0.1112 0.0098
v  0.1911 -0.5827 -0.0819
v  0.2397 -0.5796 -0.0450
v  0.2221 -0.5802 -0.0345
v  0.1840 -0.5829 -0.0636
v  0.1519 -0.2752 0.0777
v  0.2378 -0.5818 0.0134
v  0.2215 -0.5822 0.0076
v  0.2134 -0.2695 -0.0421
v  0.2273 -0.4840 0.0086
v  0.2266 -0.4135 0.0082
v  0.1346 -0.5870 -0.0842
v  0.1381 -0.5873 -0.0647
v  0.1037 -0.2786 0.0696
v  0.0958 -0.2169 0.0758
v  0.0566 -0.5855 -0.0198
v  0.0758 -0.5847 -0.0151
v  0.0889 -0.5853 -0.0651
v  0.1002 -0.5852 -0.0509
v  0.1287 -0.3431 -0.0700
v  0.0887 -0.3458 -0.0462
v  0.1926 -0.5835 0.0391
v  0.2038 -0.5832 0.0532
v  0.1548 -0.5830 0.0699
v  0.1552 -0.5830 0.0537
v  0.1712 -0.2729 -0.0732
v  0.2359 -0.5381 0.0116
v  0.2014 -0.5423 0.0511
v  0.1107 -0.3452 0.0612
v  0.1552 -0.3427 0.0714
v  0.1346 -0.5442 -0.0829
v  0.1880 -0.5424 -0.0810
v  0.1983 -0.3397 0.0495
v  0.0635 -0.3476 -0.0090
v  0.1129 -0.5446 0.0609
v  0.0713 -0.5432 0.0313
v  0.0796 -0.3465 0.0312
v  0.1540 -0.5458 0.0695
v  0.1768 -0.3400 -0.0698
v  0.2285 -0.3375 0.0096
v  0.2357 -0.5377 -0.0473
v  0.2177 -0.3374 -0.0408
v  0.0771 -0.4858 0.0285
v  0.0665 -0.4858 -0.0150
v  0.0550 -0.5442 -0.0199
v  0.0798 -0.4192 0.0280
v  0.1126 -0.4185 0.0549
v  0.0963 -0.4850 -0.0487
v  0.0874 -0.5452 -0.0604
v  0.0930 -0.4185 -0.0478
v  0.1120 -0.4855 0.0552
v  0.0660 -0.4196 -0.0129
v  0.0919 -0.0788 -0.0824
v  0.0454 -0.0800 -0.0523
v  0.1462 -0.0773 -0.0775
v  0.0865 -0.0429 -0.0781
v  0.0410 -0.0800 0.0436
v  0.0798 -0.0789 0.0748
v  0.0159 -0.0808 -0.0032
v  0.1280 -0.0776 0.0760
v  0.1657 -0.0410 0.0490
v  0.1624 -0.0037 0.0533
v  0.1868 -0.0761 -0.0419
v  0.0849 -0.0054 -0.0780
v  0.1340 -0.1137 0.0794
v  0.2114 -0.5453 -0.0359
v  0.2127 -0.5713 -0.0356
v  0.1949 -0.5458 -0.0526
v  0.1129 -0.5634 -0.0616
v  0.1181 -0.5376 -0.0623
v  0.1386 -0.5684 -0.0620
v  0.1679 -0.5714 -0.0607
v  0.1426 -0.5397 -0.0630
v  0.1302 -0.6048 -0.0627
v  0.1328 -0.7256 -0.0645
v  0.1271 -0.6988 -0.0789
v  0.1649 -0.7247 -0.0675
v  0.0944 -0.6153 -0.0610
v  0.1149 -0.6546 -0.0679
v  0.1649 -0.6460 -0.0680
v  0.1062 -0.5484 -0.0411
v  0.0929 -0.5567 -0.0444
v  0.0890 -0.5342 -0.0365
v  0.2482 -0.7557 -0.0113
v  0.2481 -0.7269 -0.0113
v  0.2430 -0.7557 0.0056
v  0.1709 -0.6916 -0.0753
v  0.0827 -0.5315 -0.0119
v  0.0904 -0.5146 -0.0376
v  0.1034 -0.5207 -0.0460
v  0.0742 -0.6018 -0.0414
v  0.0787 -0.5559 -0.0121
v  0.1119 -0.5624 0.0356
v  0.0922 -0.5546 0.0190
v  0.0715 -0.6000 0.0166
v  0.0633 -0.5974 -0.0115
v  0.1056 -0.5482 0.0203
v  0.1013 -0.5325 0.0298
v  0.0894 -0.5332 0.0106
v  0.1057 -0.5472 0.0160
v  0.1037 -0.5197 0.0202
v  0.0919 -0.6133 0.0345
v  0.0849 -0.5137 -0.0117
v  0.0886 -0.5148 0.0110
v  0.1939 -0.5723 0.0292
v  0.1964 -0.6046 0.0299
v  0.2124 -0.5714 0.0127
v  0.2193 -0.6026 0.0136
v  0.2009 -0.6426 0.0336
v  0.2197 -0.5706 -0.0112
v  0.1331 -0.7372 -0.0672
v  0.1345 -0.7560 -0.0647
v  0.1376 -0.7370 -0.0193
v  0.1331 -0.7274 -0.0670
v  0.1652 -0.7273 -0.0705
v  0.1655 -0.7271 0.0438
v  0.1333 -0.7256 0.0348
v  0.1333 -0.7354 0.0348
v  0.1656 -0.7559 0.0456
v  0.2054 -0.7558 0.0381
v  0.0906 -0.7249 0.0295
v  0.0480 -0.7308 0.0351
v  0.0907 -0.7338 0.0266
v  0.1347 -0.7546 0.0352
v  0.1653 -0.7561 -0.0707
v  0.2316 -0.6403 0.0182
v  0.2419 -0.6826 0.0211
v  0.2434 -0.6392 -0.0116
v  0.2081 -0.6829 0.0404
v  0.1642 -0.6063 0.0378
v  0.2277 -0.6017 -0.0110
v  0.1141 -0.6495 0.0410
v  0.1287 -0.6047 0.0373
v  0.1623 -0.6458 0.0393
v  0.1376 -0.7560 -0.0193
v  0.2313 -0.7557 0.0219
v  0.2320 -0.7558 -0.0471
v  0.2051 -0.7559 -0.0627
v  0.2078 -0.6869 -0.0666
v  0.2049 -0.6414 -0.0560
v  0.2423 -0.6840 -0.0418
v  0.2532 -0.6848 -0.0110
v  0.2315 -0.6399 -0.0398
v  0.1329 -0.7238 0.0322
v  0.0892 -0.7237 0.0235
v  0.0711 -0.6763 0.0394
v  0.0819 -0.7015 0.0399
v  0.1253 -0.6892 0.0461
v  0.0413 -0.6455 -0.0380
v  0.0336 -0.6928 0.0389
v  0.0556 -0.6594 0.0324
v  0.0249 -0.6767 0.0310
v  0.0260 -0.6903 -0.0651
v  0.0358 -0.7062 -0.0803
v  -0.0024 -0.7021 -0.0675
v  0.0838 -0.7113 -0.0826
v  0.0918 -0.7363 -0.0669
v  0.0487 -0.7426 -0.0808
v  -0.0351 -0.7111 0.0451
v  -0.0041 -0.7091 0.0412
v  -0.0079 -0.6921 0.0299
v  -0.0367 -0.6951 0.0304
v  0.2051 -0.7271 -0.0627
v  0.2043 -0.7241 -0.0609
v  0.2355 -0.7240 -0.0400
v  0.2319 -0.7270 -0.0478
v  0.1652 -0.7245 0.0407
v  -0.1453 -0.7155 -0.0356
v  -0.1415 -0.7148 -0.0343
v  -0.1204 -0.7268 -0.0563
v  0.0161 -0.6674 -0.0374
v  -0.0086 -0.6820 -0.0370
v  -0.0120 -0.6670 -0.0099
v  0.2429 -0.7270 -0.0342
v  0.0472 -0.7292 0.0317
v  0.0399 -0.7112 0.0367
v  -0.0938 -0.7461 -0.0707
v  -0.0611 -0.7531 -0.0827
v  -0.0587 -0.7543 -0.0136
v  -0.0917 -0.7473 -0.0120
v  -0.0007 -0.7249 0.0455
v  -0.0344 -0.7265 0.0497
v  -0.0374 -0.7421 0.0481
v  0.0054 -0.7394 0.0422
v  0.1674 -0.6844 0.0475
v  -0.1412 -0.7251 -0.0128
v  -0.1470 -0.7209 0.0108
v  -0.1534 -0.7186 -0.0128
v  -0.1479 -0.7222 -0.0355
v  -0.1230 -0.7350 -0.0567
v  -0.1241 -0.7343 -0.0124
v  0.0923 -0.7383 -0.0717
v  -0.1166 -0.7268 -0.0548
v  -0.0912 -0.7379 -0.0700
v  -0.0894 -0.7371 -0.0673
v  0.2429 -0.7558 -0.0337
v  -0.0370 -0.7158 -0.0844
v  -0.0604 -0.7130 -0.0747
v  -0.0370 -0.7020 -0.0656
v  -0.0597 -0.7090 0.0447
v  -0.0602 -0.7252 0.0499
v  -0.0596 -0.7016 -0.0574
v  -0.0367 -0.6894 -0.0354
v  -0.0596 -0.6917 -0.0324
v  -0.0754 -0.6945 -0.0390
v  -0.0746 -0.6983 -0.0498
v  -0.0808 -0.6887 -0.0235
v  0.0141 -0.6535 -0.0097
v  0.0362 -0.6381 -0.0108
v  0.2053 -0.7270 0.0380
v  0.2045 -0.7240 0.0362
v  0.2454 -0.7239 -0.0113
v  0.2312 -0.7269 0.0225
v  0.2352 -0.7239 0.0133
v  0.2429 -0.7269 0.0060
v  0.0926 -0.7447 -0.0174
v  -0.0609 -0.7298 -0.0792
v  -0.0372 -0.7316 -0.0877
v  -0.0585 -0.7434 -0.0763
v  -0.0871 -0.7226 -0.0707
v  -0.1162 -0.7121 -0.0568
v  -0.0373 -0.7453 -0.0844
v  -0.1461 -0.7106 -0.0128
v  -0.1390 -0.7012 -0.0368
v  -0.1263 -0.6861 -0.0106
v  -0.1051 -0.6845 -0.0082
v  -0.1006 -0.6876 -0.0278
v  -0.1443 -0.6960 -0.0112
v  -0.1218 -0.6922 -0.0355
v  -0.1034 -0.7014 -0.0528
v  -0.0865 -0.6944 -0.0437
v  -0.0836 -0.6858 -0.0066
v  -0.0595 -0.6864 0.0145
v  -0.0596 -0.6814 -0.0076
v  -0.0811 -0.6868 0.0081
v  -0.1357 -0.6994 0.0136
v  -0.1199 -0.6892 0.0144
v  -0.0991 -0.6870 0.0110
v  -0.1507 -0.7104 -0.0127
v  -0.0907 -0.7373 0.0440
v  -0.1193 -0.7251 0.0324
v  -0.1219 -0.7334 0.0327
v  -0.0933 -0.7456 0.0448
v  -0.0368 -0.6805 0.0131
v  -0.0113 -0.6728 0.0109
v  -0.0368 -0.6780 -0.0087
v  0.0152 -0.6575 0.0117
v  -0.1153 -0.7251 0.0304
v  -0.1401 -0.7134 0.0105
v  -0.1444 -0.7142 0.0109
v  -0.0588 -0.7418 0.0471
v  -0.0593 -0.7430 0.0506
v  -0.0379 -0.7433 0.0531
v  0.0046 -0.7480 -0.0934
v  0.0489 -0.7441 -0.0827
v  0.0488 -0.7541 -0.0830
v  0.0047 -0.7571 -0.0940
v  0.0480 -0.7411 0.0359
v  -0.0385 -0.7475 -0.0883
v  -0.0391 -0.7555 -0.0887
v  -0.0597 -0.7453 -0.0813
v  0.0057 -0.7406 0.0463
v  0.0058 -0.7503 0.0495
v  0.0923 -0.7473 -0.0693
v  -0.0773 -0.7060 0.0421
v  -0.0752 -0.6942 0.0317
v  -0.0851 -0.6911 0.0245
v  -0.0993 -0.6984 0.0332
v  -0.0889 -0.7364 0.0411
v  -0.0815 -0.7085 -0.0663
v  -0.0756 -0.6900 0.0207
v  -0.0592 -0.6952 0.0319
v  0.0050 -0.7463 -0.0901
v  -0.0370 -0.7556 -0.0156
v  -0.0380 -0.7516 0.0546
v  -0.0619 -0.7513 0.0514
v  0.0484 -0.7520 -0.0208
v  0.0058 -0.7544 -0.0204
v  0.0438 -0.7242 -0.0892
v  0.0029 -0.7173 -0.0883
v  0.0042 -0.7325 -0.0938
v  0.0729 -0.6856 -0.0765
v  0.0405 -0.6425 0.0143
v  -0.0849 -0.7212 0.0454
v  0.1651 -0.6059 -0.0649
v  0.1968 -0.6045 -0.0547
v  0.1379 -0.5681 0.0371
v  0.1677 -0.5710 0.0373
v  0.2120 -0.5471 0.0138
v  0.2180 -0.5461 -0.0112
v  0.1942 -0.5723 -0.0523
v  0.1955 -0.5460 0.0312
v  0.1180 -0.5357 0.0381
v  0.1427 -0.5384 0.0409
v  0.1712 -0.5422 0.0399
v  -0.1097 -0.7114 0.0353
v  0.1015 -0.5336 -0.0544
v  0.1708 -0.5424 -0.0610
v  0.0557 -0.6652 -0.0588
v  0.2200 -0.6022 -0.0369
v  0.1062 -0.5496 -0.0464
# 366 vertices

vn 0.9741 0.1722 0.1468
vn 0.8338 0.0651 -0.5482
vn 0.8352 0.1363 -0.5328
vn -0.6960 -0.1383 -0.7046
vn -0.6757 -0.1565 -0.7203
vn -0.9784 -0.1897 -0.0822
vn -0.9831 -0.1775 -0.0457
vn 0.4354 0.0246 0.8999
vn 0.6786 0.0500 0.7328
vn 0.6680 0.1415 0.7305
vn 0.4660 0.0966 0.8795
vn -0.8146 -0.1616 0.5571
vn -0.8055 -0.1314 0.5778
vn 0.3202 0.0351 -0.9467
vn 0.3002 -0.0251 -0.9535
vn -0.2798 -0.1087 -0.9539
vn -0.2692 -0.0887 -0.9590
vn -0.3948 -0.0494 0.9174
vn -0.3759 0.0156 0.9265
vn -0.7842 -0.0985 0.6127
vn -0.7762 -0.1510 0.6121
vn -0.9906 -0.1361 -0.0149
vn -0.9877 -0.1541 -0.0257
vn -0.7601 -0.1449 0.6334
vn -0.6661 -0.1536 -0.7299
vn -0.6902 -0.1142 -0.7146
vn 0.8692 0.0105 -0.4943
vn 0.9858 -0.0116 0.1673
vn 0.9754 0.1022 0.1955
vn 0.8507 0.1498 -0.5038
vn -0.2567 -0.0577 -0.9648
vn -0.7276 -0.1173 -0.6759
vn -0.0170 -0.1410 0.9899
vn -0.3352 -0.2013 0.9204
vn -0.3141 -0.1246 0.9412
vn -0.0195 -0.0808 0.9965
vn -0.9862 -0.1651 0.0154
vn -0.2977 -0.6455 0.7034
vn -0.6258 -0.6479 0.4343
vn 0.0294 -0.9995 -0.0095
vn 0.0251 -0.9996 -0.0154
vn 0.4387 -0.0433 0.8976
vn 0.4491 0.0610 0.8914
vn 0.6146 0.0729 0.7854
vn 0.6170 -0.0382 0.7860
vn 0.3604 0.0708 -0.9301
vn 0.3886 0.0175 -0.9212
vn -0.9788 -0.1748 -0.1069
vn -0.8173 -0.1643 0.5523
vn 0.8383 0.1933 -0.5097
vn 0.3369 0.0941 -0.9368
vn -0.2831 -0.0777 -0.9559
vn -0.6701 -0.1260 -0.7315
vn 0.6675 -0.0160 0.7444
vn 0.9854 0.0533 0.1617
vn 0.9858 0.0904 0.1414
vn 0.3204 0.0242 -0.9470
vn 0.3215 0.1241 -0.9387
vn -0.2358 0.0953 -0.9671
vn -0.2339 -0.0039 -0.9722
vn 0.8506 0.0345 -0.5247
vn 0.8788 0.1403 -0.4561
vn 0.9647 0.2001 0.1714
vn 0.6692 0.1722 0.7228
vn 0.6818 0.1996 0.7037
vn 0.9604 0.2325 0.1537
vn 0.2949 -0.6245 -0.7232
vn 0.7450 -0.5749 -0.3384
vn 0.0340 -0.9994 -0.0112
vn 0.0705 -0.9975 0.0098
vn 0.4404 -0.0438 0.8967
vn 0.7412 -0.6118 0.2762
vn 0.0375 -0.9989 -0.0277
vn 0.8305 0.0412 -0.5554
vn 0.9473 0.0853 0.3088
vn 0.9667 0.0012 0.2560
vn -0.1192 -0.6624 -0.7396
vn 0.0201 -0.9996 -0.0184
vn -0.4411 -0.1374 0.8869
vn -0.1583 -0.0854 0.9837
vn -0.1168 -0.0597 0.9914
vn -0.4130 -0.1159 0.9033
vn -0.7503 -0.6452 -0.1442
vn 0.0331 -0.9994 0.0130
vn -0.4931 -0.6274 -0.6026
vn -0.0192 -0.9997 0.0157
vn -0.2583 -0.0291 -0.9656
vn -0.6773 -0.0485 -0.7341
vn 0.0159 -0.9999 0.0035
vn 0.4521 -0.6265 0.6350
vn 0.2516 -0.5999 0.7594
vn -0.0147 -0.9999 -0.0023
vn 0.2996 -0.0270 -0.9537
vn -0.1226 -0.6644 0.7373
vn 0.0220 -0.9998 -0.0014
vn 0.9299 0.1259 0.3456
vn 0.5780 0.0966 0.8103
vn -0.4665 -0.1217 0.8761
vn -0.2039 -0.1049 0.9734
vn -0.2023 0.1256 -0.9712
vn 0.3028 0.1147 -0.9461
vn 0.4515 -0.0632 0.8900
vn 0.6416 -0.0545 0.7651
vn -0.9904 -0.0827 -0.1109
vn -0.3895 0.0650 0.9187
vn -0.8172 0.0747 0.5715
vn -0.8188 -0.1023 0.5649
vn 0.3479 0.0427 0.9366
vn 0.3133 -0.0113 -0.9496
vn -0.2032 0.0335 0.9786
vn 0.9783 -0.0102 0.2070
vn 0.8729 0.1564 -0.4622
vn 0.8379 0.0167 -0.5456
vn -0.8313 0.0653 0.5520
vn -0.9712 0.0949 -0.2184
vn -0.9770 0.0872 -0.1947
vn -0.8185 -0.0042 0.5745
vn -0.4520 -0.0314 0.8915
vn -0.6181 0.1002 -0.7797
vn -0.6256 0.1369 -0.7680
vn -0.6557 -0.0156 -0.7548
vn -0.2307 0.0433 0.9721
vn -0.4340 0.0530 0.8993
vn -0.2310 -0.0404 0.9721
vn -0.9849 -0.0100 -0.1726
vn -0.2389 0.0058 -0.9710
vn -0.6981 -0.0956 -0.7096
vn 0.3777 0.1236 -0.9176
vn -0.2445 0.0231 -0.9694
vn -0.7576 -0.1044 0.6443
vn -0.3572 -0.0033 0.9340
vn -0.9867 -0.1603 -0.0276
vn -0.0294 0.0417 0.9987
vn 0.5137 0.1196 0.8496
vn 0.7004 0.0518 0.7119
vn 0.5563 -0.0125 0.8309
vn 0.7095 -0.0627 0.7019
vn 0.8488 0.1793 -0.4974
vn -0.0611 0.0046 0.9981
vn -0.1695 -0.0887 -0.9815
vn 0.5746 -0.0941 0.8130
vn 0.4894 0.1465 0.8597
vn -0.0398 0.0686 0.9968
vn 0.8631 0.0386 -0.5035
vn 0.8372 0.1124 -0.5353
vn 0.5111 -0.0148 -0.8594
vn -0.3111 0.0447 -0.9493
vn -0.2223 0.0151 -0.9749
vn 0.0003 0.0091 -1.0000
vn 0.1841 0.0397 -0.9821
vn 0.0138 -0.0293 -0.9995
vn -0.0509 0.0589 -0.9970
vn -0.0465 0.1713 -0.9841
vn 0.0598 -0.0886 -0.9943
vn 0.0646 0.2800 -0.9578
vn -0.3276 0.1807 -0.9274
vn -0.0734 0.1997 -0.9771
vn 0.1139 0.1471 -0.9825
vn -0.3356 0.4856 -0.8072
vn -0.7275 0.2777 -0.6274
vn -0.7680 0.0253 -0.6399
vn 0.9568 0.0031 0.2906
vn 0.9064 0.3253 0.2695
vn 0.8971 -0.0024 0.4417
vn 0.1506 -0.0254 -0.9883
vn -0.9624 0.1249 -0.2414
vn -0.8352 0.0430 -0.5482
vn -0.4829 -0.0971 -0.8703
vn -0.7136 0.3584 -0.6019
vn -0.9098 0.2106 -0.3575
vn -0.3286 0.0291 0.9440
vn -0.7231 0.3086 0.6180
vn -0.7173 0.3715 0.5895
vn -0.8478 0.4500 0.2804
vn -0.9081 0.2422 0.3415
vn -0.8277 0.4357 -0.3538
vn -0.3514 0.8257 -0.4412
vn -0.7192 0.1361 0.6814
vn -0.7583 0.0131 0.6518
vn -0.3313 0.5074 0.7954
vn -0.4849 -0.1050 0.8682
vn -0.3175 0.1690 0.9331
vn -0.9796 0.1138 0.1655
vn -0.9624 0.0981 0.2532
vn -0.8380 -0.0099 0.5456
vn -0.9706 0.1175 -0.2101
vn 0.4962 -0.0080 0.8682
vn 0.4246 0.1008 0.8998
vn 0.8272 0.0797 0.5562
vn 0.7618 0.2384 0.6024
vn 0.3098 0.1791 0.9338
vn 0.9487 0.1328 0.2869
vn -0.5177 -0.8517 0.0805
vn -0.6903 -0.7210 0.0603
vn -0.6819 -0.7296 0.0511
vn -0.0810 0.4989 -0.8629
vn 0.0340 0.3991 -0.9163
vn -0.0433 -0.0304 -0.9986
vn -0.0508 0.4140 0.9089
vn -0.1845 0.4446 0.8765
vn -0.2564 0.0083 0.9665
vn -0.0532 0.0516 0.9973
vn 0.3477 0.0092 0.9376
vn -0.0414 0.5430 0.8387
vn 0.0768 0.5779 0.8125
vn 0.0244 -0.2623 0.9647
vn -0.3206 -0.0031 0.9472
vn 0.0317 -0.0189 -0.9993
vn -0.1903 -0.1433 -0.9712
vn 0.7077 0.2741 0.6512
vn 0.7680 -0.0084 0.6404
vn 0.8908 0.2888 0.3507
vn 0.3528 0.0223 0.9354
vn 0.0982 0.0299 0.9947
vn 0.8989 0.2916 0.3271
vn -0.0642 0.1097 0.9919
vn -0.0396 0.0410 0.9984
vn 0.0625 0.1207 0.9907
vn -0.6908 -0.7230 0.0085
vn 0.0026 -1.0000 0.0010
vn 0.0026 -1.0000 0.0007
vn 0.0027 -1.0000 0.0006
vn 0.0026 -1.0000 0.0013
vn 0.0028 -1.0000 0.0019
vn 0.0025 -1.0000 0.0011
vn 0.4130 0.0293 -0.9103
vn 0.4167 0.1789 -0.8913
vn 0.8016 0.0293 -0.5971
vn 0.9399 -0.0080 0.3415
vn 0.9429 0.0030 -0.3332
vn 0.8855 0.2878 -0.3648
vn 0.7330 0.2509 -0.6323
vn -0.1969 0.2533 0.9471
vn 0.0029 0.3229 0.9464
vn -0.1209 0.1182 0.9856
vn 0.0039 -0.2938 0.9559
vn -0.0831 -0.1215 0.9891
vn -0.6089 0.5479 -0.5737
vn -0.0662 0.1342 0.9887
vn -0.2891 0.3355 0.8966
vn -0.2837 0.4588 0.8420
vn -0.2842 0.6338 -0.7194
vn -0.0877 0.5349 -0.8403
vn -0.1174 0.7891 -0.6029
vn 0.1420 -0.0908 -0.9857
vn 0.1045 0.3517 -0.9303
vn 0.1940 0.2944 -0.9358
vn 0.0421 0.4703 0.8815
vn 0.0372 0.3818 0.9235
vn -0.1435 0.6111 0.7784
vn -0.0387 0.7384 0.6733
vn 0.3291 0.2819 -0.9012
vn 0.3564 0.2179 -0.9086
vn 0.7438 0.3216 -0.5860
vn 0.5714 0.4186 -0.7059
vn -0.0343 0.3387 0.9403
vn -0.5203 0.6763 -0.5215
vn -0.5225 0.6581 -0.5421
vn -0.2168 0.6297 -0.7460
vn -0.4623 0.6779 -0.5716
vn -0.3109 0.8021 -0.5099
vn -0.4056 0.7849 -0.4684
vn 0.8159 0.4374 -0.3780
vn 0.0652 0.3859 0.9202
vn 0.0928 -0.1184 0.9886
vn -0.2694 -0.9630 -0.0087
vn -0.1455 -0.9893 -0.0051
vn -0.1280 -0.9917 0.0152
vn -0.2904 -0.9568 0.0105
vn 0.1542 0.0571 0.9864
vn 0.0701 0.0835 0.9940
vn 0.0231 0.6007 0.7992
vn 0.0726 0.5713 0.8175
vn 0.0608 0.0302 0.9977
vn -0.4708 -0.8816 0.0337
vn -0.4713 -0.8811 0.0398
vn -0.4647 -0.8848 0.0337
vn -0.4614 -0.8871 0.0146
vn -0.3918 -0.9201 -0.0006
vn -0.4226 -0.9060 0.0242
vn 0.0631 0.4377 -0.8969
vn -0.2420 0.5568 -0.7946
vn -0.1295 0.6216 -0.7726
vn -0.1654 0.5344 -0.8289
vn 0.0025 -1.0000 0.0012
vn -0.6517 -0.7580 -0.0278
vn -0.0137 -0.9999 0.0077
vn 0.9181 0.3356 -0.2110
vn 0.9740 0.0026 -0.2267
vn 0.8987 -0.0039 -0.4385
vn -0.7150 -0.6982 -0.0359
vn -0.1629 0.5239 -0.8361
vn -0.2173 0.5793 -0.7856
vn -0.1133 0.8493 -0.5156
vn -0.0089 0.4969 0.8678
vn -0.0928 0.0543 0.9942
vn -0.0914 0.8834 -0.4597
vn -0.1962 0.9045 -0.3787
vn -0.0803 0.9250 -0.3713
vn 0.0499 0.9415 -0.3333
vn 0.0090 0.8995 -0.4369
vn 0.0179 0.9625 -0.2707
vn -0.5093 0.7662 -0.3919
vn -0.6882 0.6575 -0.3066
vn 0.3232 0.2809 0.9037
vn 0.3442 0.2528 0.9042
vn 0.9102 0.3105 -0.2740
vn 0.6508 -0.0151 -0.7591
vn 0.3478 -0.0034 -0.9376
vn 0.5980 0.4390 0.6706
vn 0.7589 0.2925 0.5818
vn 0.8930 0.3088 0.3275
vn 0.8189 0.4226 0.3883
vn 0.1168 -0.9787 0.1691
vn 0.1685 -0.9753 0.1427
vn 0.6852 -0.0129 0.7283
vn 0.0017 -1.0000 0.0018
vn -0.3235 -0.0110 -0.9462
vn -0.2354 -0.0106 -0.9718
vn -0.2078 0.4791 -0.8528
vn -0.3598 0.1260 -0.9245
vn -0.4617 0.2717 -0.8444
vn -0.1910 0.4495 -0.8726
vn -0.6209 0.7294 -0.2871
vn -0.7045 0.4610 -0.5396
vn -0.2760 0.9282 -0.2495
vn 0.0019 0.9883 -0.1528
vn -0.0005 0.9551 -0.2963
vn -0.7668 0.5802 -0.2747
vn -0.2455 0.8496 -0.4669
vn -0.1808 0.7267 -0.6628
vn 0.0233 0.9046 -0.4257
vn -0.0404 0.9846 -0.1702
vn -0.1069 0.9250 0.3645
vn -0.1554 0.9737 0.1667
vn -0.0535 0.9815 0.1837
vn -0.3391 0.9147 0.2200
vn -0.8085 0.4983 0.3132
vn -0.6857 0.4524 0.5703
vn -0.0635 0.9935 0.0945
vn -0.3068 0.8348 0.4571
vn -0.0340 0.9901 0.1359
vn -0.0330 0.9645 0.2619
vn -0.1263 0.9317 -0.3405
vn -0.7660 0.2897 -0.5739
vn -0.9090 0.3067 -0.2821
vn -0.5634 0.7679 -0.3047
vn -0.0657 0.5941 0.8017
vn -0.1943 0.6303 0.7517
vn -0.4463 0.1751 0.8776
vn -0.2454 0.1682 0.9547
vn -0.1857 0.8884 0.4199
vn -0.3448 0.7976 0.4949
vn -0.2395 0.9601 0.1441
vn -0.4612 0.7360 0.4955
vn -0.5064 0.8419 0.1865
vn -0.4323 0.8683 0.2433
vn -0.2135 0.5673 0.7954
vn -0.5300 0.6367 0.5601
vn -0.5459 0.6735 0.4983
vn -0.2389 0.8793 -0.4120
vn -0.3292 0.1890 -0.9252
vn -0.4653 0.1835 -0.8659
vn -0.0501 0.5508 0.8331
vn -0.0710 0.6185 0.7826
vn -0.0053 0.6613 0.7501
vn 0.0348 0.5185 -0.8544
vn 0.1789 0.4512 -0.8743
vn 0.2618 0.0299 -0.9647
vn 0.0601 0.0731 -0.9955
vn 0.2220 0.0929 0.9706
vn -0.1429 0.5290 -0.8365
vn -0.1880 0.0619 -0.9802
vn -0.2866 0.2037 -0.9361
vn -0.1629 0.6447 -0.7469
vn 0.0715 0.6895 0.7208
vn 0.1718 0.3003 0.9383
vn 0.2021 -0.2334 -0.9511
vn -0.5778 0.7680 0.2763
vn -0.9081 0.3035 0.2885
vn -0.7761 0.2863 0.5619
vn -0.1187 0.5005 0.8576
vn -0.0708 0.8026 0.5924
vn -0.0614 0.8931 0.4456
vn -0.2232 0.6375 0.7374
vn -0.0937 0.5389 0.8371
vn -0.5770 0.7721 0.2663
vn -0.2013 0.6432 -0.7388
vn -0.0176 0.9433 0.3314
vn 0.0237 0.7995 0.6002
vn 0.0160 0.4432 -0.8963
vn -0.0148 -0.9996 0.0251
vn 0.0042 -0.9986 0.0535
vn -0.0955 -0.9946 0.0418
vn -0.2790 -0.9599 0.0264
vn 0.0930 -0.9951 0.0350
vn 0.1088 -0.9870 0.1183
vn 0.0575 -0.9966 0.0590
vn 0.0104 -0.9993 0.0365
vn 0.1861 -0.9727 0.1386
vn -0.0533 -0.9985 0.0133
vn 0.1202 -0.9911 0.0575
vn -0.0050 0.1726 0.9850
vn -0.4156 -0.9091 0.0287
vn 0.1478 0.0395 -0.9882
vn -0.0550 0.5581 -0.8280
vn -0.0139 0.0187 -0.9997
vn -0.1153 0.3825 -0.9167
vn -0.5773 0.5925 0.5619
vn -0.2668 0.0482 0.9625
vn 0.1267 0.0814 -0.9886
vn 0.4547 0.1251 -0.8818
vn -0.0438 -0.0435 0.9981
vn 0.1429 -0.0453 0.9887
vn 0.8564 -0.0149 0.5160
vn 0.9692 0.0688 0.2366
vn 0.4944 0.0434 -0.8681
vn 0.9620 0.0567 -0.2670
vn 0.9485 0.1521 -0.2780
vn 0.5167 -0.1057 0.8496
vn -0.2662 -0.0407 0.9631
vn -0.0585 -0.1061 0.9926
vn 0.1680 -0.1071 0.9800
vn -0.4590 0.1779 0.8704
vn -0.1577 0.1399 0.9775
vn -0.7176 0.1583 -0.6782
vn 0.1970 -0.0285 -0.9800
vn -0.3531 0.4613 -0.8140
vn -0.6853 0.6916 0.2283
vn 0.1890 -0.9810 0.0429
vn 0.7867 0.2356 -0.5706
vn 0.9103 0.2852 -0.3001
vn -0.3487 0.7876 0.5080
# 433 vertex normals

vt 0.1289 0.2544 0.0000
vt 0.1743 0.2152 0.0000
vt 0.1735 0.2558 0.0000
vt 0.2987 0.2628 0.0000
vt 0.2984 0.2213 0.0000
vt 0.3364 0.2230 0.0000
vt 0.3383 0.2645 0.0000
vt 0.0428 0.2147 0.0000
vt 0.0859 0.2142 0.0000
vt 0.0853 0.2541 0.0000
vt 0.0428 0.2536 0.0000
vt 0.3739 0.2214 0.0000
vt 0.3753 0.2624 0.0000
vt 0.2176 0.2579 0.0000
vt 0.2182 0.2172 0.0000
vt 0.2616 0.2187 0.0000
vt 0.2616 0.2596 0.0000
vt 0.4118 0.2592 0.0000
vt 0.4129 0.2812 0.0000
vt 0.3762 0.2852 0.0000
vt 0.3779 0.3540 0.0000
vt 0.3396 0.3575 0.0000
vt 0.3395 0.3334 0.0000
vt 0.3766 0.3304 0.0000
vt 0.2989 0.3565 0.0000
vt 0.3002 0.3322 0.0000
vt 0.1713 0.3497 0.0000
vt 0.1278 0.3476 0.0000
vt 0.1270 0.3232 0.0000
vt 0.1713 0.3249 0.0000
vt 0.2616 0.2822 0.0000
vt 0.3011 0.2861 0.0000
vt 0.4510 0.3422 0.0000
vt 0.4150 0.3493 0.0000
vt 0.4156 0.3254 0.0000
vt 0.4503 0.3197 0.0000
vt 0.3404 0.2876 0.0000
vt 0.4080 0.0213 0.0000
vt 0.3731 0.0204 0.0000
vt 0.3742 0.0119 0.0000
vt 0.4086 0.0123 0.0000
vt 0.0428 0.1068 0.0000
vt 0.0428 0.0747 0.0000
vt 0.0848 0.0738 0.0000
vt 0.0854 0.1064 0.0000
vt 0.2175 0.3270 0.0000
vt 0.2154 0.3514 0.0000
vt 0.3357 0.1826 0.0000
vt 0.3727 0.1820 0.0000
vt 0.1724 0.2788 0.0000
vt 0.2173 0.2807 0.0000
vt 0.2616 0.1810 0.0000
vt 0.2986 0.1819 0.0000
vt 0.0861 0.1792 0.0000
vt 0.1300 0.1797 0.0000
vt 0.1298 0.2141 0.0000
vt 0.2172 0.1067 0.0000
vt 0.2165 0.0730 0.0000
vt 0.2616 0.0747 0.0000
vt 0.2616 0.1074 0.0000
vt 0.1732 0.1061 0.0000
vt 0.1718 0.0717 0.0000
vt 0.1279 0.3003 0.0000
vt 0.0852 0.2992 0.0000
vt 0.0867 0.2765 0.0000
vt 0.1283 0.2772 0.0000
vt 0.2162 0.0178 0.0000
vt 0.1691 0.0184 0.0000
vt 0.1675 0.0108 0.0000
vt 0.2155 0.0107 0.0000
vt 0.0428 0.1786 0.0000
vt 0.1242 0.0183 0.0000
vt 0.1256 0.0110 0.0000
vt 0.1744 0.1803 0.0000
vt 0.1277 0.0724 0.0000
vt 0.1288 0.1061 0.0000
vt 0.2616 0.0174 0.0000
vt 0.2616 0.0105 0.0000
vt 0.4087 0.1810 0.0000
vt 0.4462 0.1795 0.0000
vt 0.4473 0.2155 0.0000
vt 0.4101 0.2191 0.0000
vt 0.3360 0.0193 0.0000
vt 0.3365 0.0114 0.0000
vt 0.2971 0.0178 0.0000
vt 0.2978 0.0110 0.0000
vt 0.2616 0.1432 0.0000
vt 0.2988 0.1440 0.0000
vt 0.0829 0.0111 0.0000
vt 0.0832 0.0195 0.0000
vt 0.0428 0.0208 0.0000
vt 0.0428 0.0113 0.0000
vt 0.2183 0.1808 0.0000
vt 0.4416 0.0222 0.0000
vt 0.4414 0.0127 0.0000
vt 0.1261 0.0439 0.0000
vt 0.0838 0.0431 0.0000
vt 0.4077 0.1436 0.0000
vt 0.4452 0.1428 0.0000
vt 0.2616 0.0421 0.0000
vt 0.2176 0.0416 0.0000
vt 0.0428 0.1418 0.0000
vt 0.0858 0.1420 0.0000
vt 0.3358 0.1443 0.0000
vt 0.4098 0.0445 0.0000
vt 0.3726 0.0451 0.0000
vt 0.3718 0.1441 0.0000
vt 0.0428 0.0425 0.0000
vt 0.2179 0.1430 0.0000
vt 0.4423 0.0439 0.0000
vt 0.1296 0.1422 0.0000
vt 0.1719 0.0429 0.0000
vt 0.1741 0.1426 0.0000
vt 0.3716 0.0763 0.0000
vt 0.3350 0.0759 0.0000
vt 0.3349 0.0435 0.0000
vt 0.3716 0.1086 0.0000
vt 0.4075 0.1084 0.0000
vt 0.2979 0.0758 0.0000
vt 0.2983 0.0419 0.0000
vt 0.2985 0.1083 0.0000
vt 0.4432 0.0760 0.0000
vt 0.4073 0.0763 0.0000
vt 0.4441 0.1079 0.0000
vt 0.3353 0.1086 0.0000
vt 0.2616 0.3049 0.0000
vt 0.2990 0.3090 0.0000
vt 0.2161 0.3036 0.0000
vt 0.2616 0.3279 0.0000
vt 0.3774 0.3077 0.0000
vt 0.4138 0.3034 0.0000
vt 0.3394 0.3106 0.0000
vt 0.4497 0.2982 0.0000
vt 0.0428 0.2977 0.0000
vt 0.0866 0.3215 0.0000
vt 0.0428 0.3193 0.0000
vt 0.0854 0.3450 0.0000
vt 0.1719 0.3019 0.0000
vt 0.4484 0.2542 0.0000
vt 0.2616 0.3524 0.0000
vt 0.0428 0.3419 0.0000
vt 0.0428 0.2757 0.0000
vt 0.4490 0.2762 0.0000
vt 0.4752 0.1166 0.0000
vt 0.4193 0.1155 0.0000
vt 0.4741 0.1636 0.0000
vt 0.4488 0.3377 0.0000
vt 0.5041 0.3187 0.0000
vt 0.4318 0.2849 0.0000
vt 0.4215 0.2250 0.0000
vt 0.4945 0.2696 0.0000
vt 0.3570 0.3100 0.0000
vt 0.1006 0.3102 0.0000
vt 0.1616 0.3236 0.0000
vt 0.1032 0.2438 0.0000
vt 0.3406 0.3879 0.0000
vt 0.2546 0.3476 0.0000
vt 0.2677 0.2432 0.0000
vt 0.5060 0.3812 0.0000
vt 0.4774 0.3947 0.0000
vt 0.5333 0.4221 0.0000
vt 0.9574 0.9843 0.0000
vt 0.9000 0.9808 0.0000
vt 0.9593 0.9494 0.0000
vt 0.1733 0.2351 0.0000
vt 0.5455 0.4813 0.0000
vt 0.5784 0.4178 0.0000
vt 0.5529 0.3785 0.0000
vt 0.3814 0.4426 0.0000
vt 0.4929 0.4796 0.0000
vt 0.5649 0.6604 0.0000
vt 0.5358 0.6042 0.0000
vt 0.6280 0.5589 0.0000
vt 0.6000 0.5083 0.0000
vt 0.5249 0.5255 0.0000
vt 0.4129 0.5002 0.0000
vt 0.5209 0.6207 0.0000
vt 0.5033 0.6449 0.0000
vt 0.4803 0.5755 0.0000
vt 0.5059 0.6177 0.0000
vt 0.4554 0.6160 0.0000
vt 0.6671 0.6123 0.0000
vt 0.4295 0.5232 0.0000
vt 0.4751 0.5218 0.0000
vt 0.4343 0.5709 0.0000
vt 0.5912 0.4743 0.0000
vt 0.5927 0.8282 0.0000
vt 0.6576 0.8299 0.0000
vt 0.5905 0.8786 0.0000
vt 0.6532 0.8872 0.0000
vt 0.7337 0.8345 0.0000
vt 0.5860 0.9279 0.0000
vt 0.5474 0.0200 0.0000
vt 0.5400 0.0201 0.0000
vt 0.5457 0.0400 0.0000
vt 0.0947 0.3084 0.0000
vt 0.0951 0.2432 0.0000
vt 0.0754 0.3078 0.0000
vt 0.9060 0.7681 0.0000
vt 0.9037 0.7013 0.0000
vt 0.9235 0.7037 0.0000
vt 0.9646 0.7706 0.0000
vt 0.9616 0.8497 0.0000
vt 0.9170 0.6192 0.0000
vt 0.9230 0.5327 0.0000
vt 0.9354 0.6205 0.0000
vt 0.9629 0.7069 0.0000
vt 0.0368 0.2424 0.0000
vt 0.0370 0.3060 0.0000
vt 0.7293 0.9025 0.0000
vt 0.8105 0.9182 0.0000
vt 0.7174 0.9643 0.0000
vt 0.8140 0.8454 0.0000
vt 0.6602 0.7622 0.0000
vt 0.6440 0.9378 0.0000
vt 0.7452 0.6587 0.0000
vt 0.6547 0.6900 0.0000
vt 0.7389 0.7562 0.0000
vt 0.5391 0.0394 0.0000
vt 0.4977 0.0460 0.0000
vt 0.5021 0.0524 0.0000
vt 0.5119 0.0588 0.0000
vt 0.5025 0.0260 0.0000
vt 0.5129 0.0202 0.0000
vt 0.4959 0.0395 0.0000
vt 0.1812 0.1604 0.0000
vt 0.2748 0.1567 0.0000
vt 0.1879 0.0778 0.0000
vt 0.8099 0.9839 0.0000
vt 0.1901 0.0123 0.0000
vt 0.2852 0.0315 0.0000
vt 0.2771 0.0932 0.0000
vt 0.8982 0.6991 0.0000
vt 0.9066 0.6159 0.0000
vt 0.7998 0.5723 0.0000
vt 0.8512 0.5959 0.0000
vt 0.8259 0.6821 0.0000
vt 0.2936 0.5144 0.0000
vt 0.8363 0.4976 0.0000
vt 0.7611 0.5392 0.0000
vt 0.7994 0.4783 0.0000
vt 0.1904 0.5390 0.0000
vt 0.1503 0.5144 0.0000
vt 0.1606 0.5985 0.0000
vt 0.1355 0.4126 0.0000
vt 0.0777 0.3909 0.0000
vt 0.0664 0.4803 0.0000
vt 0.8847 0.3658 0.0000
vt 0.8720 0.4250 0.0000
vt 0.8303 0.4140 0.0000
vt 0.8429 0.3567 0.0000
vt 0.0967 0.1604 0.0000
vt 0.1043 0.1609 0.0000
vt 0.1061 0.0820 0.0000
vt 0.0957 0.0979 0.0000
vt 0.8978 0.7667 0.0000
vt 0.0977 0.8981 0.0000
vt 0.1037 0.8923 0.0000
vt 0.0651 0.8347 0.0000
vt 0.2514 0.5715 0.0000
vt 0.2191 0.6255 0.0000
vt 0.2771 0.6495 0.0000
vt 0.0958 0.0643 0.0000
vt 0.9162 0.5328 0.0000
vt 0.8758 0.5129 0.0000
vt 0.6358 0.0191 0.0000
vt 0.6230 0.0146 0.0000
vt 0.6215 0.0411 0.0000
vt 0.6344 0.0412 0.0000
vt 0.9058 0.4314 0.0000
vt 0.9163 0.3675 0.0000
vt 0.9498 0.3607 0.0000
vt 0.9384 0.4456 0.0000
vt 0.8173 0.7657 0.0000
vt 0.6553 0.0416 0.0000
vt 0.6578 0.0505 0.0000
vt 0.6606 0.0418 0.0000
vt 0.6583 0.0330 0.0000
vt 0.6477 0.0247 0.0000
vt 0.6478 0.0415 0.0000
vt 0.0680 0.3896 0.0000
vt 0.0695 0.8271 0.0000
vt 0.0413 0.7705 0.0000
vt 0.0476 0.7674 0.0000
vt 0.4981 0.0310 0.0000
vt 0.5390 0.0585 0.0000
vt 0.5271 0.0620 0.0000
vt 0.0985 0.0169 0.0000
vt 0.0393 0.0144 0.0000
vt 0.0377 0.0614 0.0000
vt 0.5465 0.0584 0.0000
vt 0.0981 0.6597 0.0000
vt 0.1001 0.7074 0.0000
vt 0.1411 0.6680 0.0000
vt 0.8838 0.3150 0.0000
vt 0.9173 0.3158 0.0000
vt 0.1406 0.7159 0.0000
vt 0.1980 0.6835 0.0000
vt 0.1914 0.7304 0.0000
vt 0.1711 0.7586 0.0000
vt 0.1492 0.7502 0.0000
vt 0.1992 0.7787 0.0000
vt 0.3091 0.5981 0.0000
vt 0.3415 0.5561 0.0000
vt 0.9037 0.8474 0.0000
vt 0.8963 0.8467 0.0000
vt 0.1062 0.0191 0.0000
vt 0.0373 0.0969 0.0000
vt 0.0374 0.1600 0.0000
vt 0.9045 0.9068 0.0000
vt 0.8936 0.9247 0.0000
vt 0.8924 0.9787 0.0000
vt 0.9026 0.9453 0.0000
vt 0.5630 0.0561 0.0000
vt 0.5631 0.0397 0.0000
vt 0.9607 0.9096 0.0000
vt 0.5283 0.0175 0.0000
vt 0.0665 0.7052 0.0000
vt 0.0674 0.6573 0.0000
vt 0.0393 0.7019 0.0000
vt 0.0772 0.7595 0.0000
vt 0.0988 0.8219 0.0000
vt 0.0384 0.6569 0.0000
vt 0.1336 0.9286 0.0000
vt 0.1275 0.8786 0.0000
vt 0.1938 0.8791 0.0000
vt 0.2143 0.8370 0.0000
vt 0.1809 0.8159 0.0000
vt 0.1659 0.9152 0.0000
vt 0.1505 0.8497 0.0000
vt 0.1253 0.8022 0.0000
vt 0.1570 0.7784 0.0000
vt 0.2297 0.7935 0.0000
vt 0.8090 0.2946 0.0000
vt 0.7675 0.2753 0.0000
vt 0.8069 0.2466 0.0000
vt 0.8101 0.1468 0.0000
vt 0.8369 0.1122 0.0000
vt 0.8662 0.1526 0.0000
vt 0.7823 0.2311 0.0000
vt 0.8448 0.1799 0.0000
vt 0.7939 0.1888 0.0000
vt 0.8228 0.2142 0.0000
vt 0.2414 0.7451 0.0000
vt 0.0845 0.9048 0.0000
vt 0.1120 0.9448 0.0000
vt 0.1274 0.9359 0.0000
vt 0.9484 0.2513 0.0000
vt 0.9251 0.1887 0.0000
vt 0.9416 0.1837 0.0000
vt 0.9652 0.2468 0.0000
vt 0.7984 0.3407 0.0000
vt 0.7744 0.3910 0.0000
vt 0.7504 0.3133 0.0000
vt 0.7406 0.4444 0.0000
vt 0.6973 0.4125 0.0000
vt 0.7279 0.3625 0.0000
vt 0.9201 0.1961 0.0000
vt 0.8908 0.1368 0.0000
vt 0.8962 0.1299 0.0000
vt 0.2533 0.7011 0.0000
vt 0.0244 0.7757 0.0000
vt 0.0485 0.8419 0.0000
vt 0.9512 0.3167 0.0000
vt 0.9584 0.3171 0.0000
vt 0.9589 0.3603 0.0000
vt 0.0437 0.5719 0.0000
vt 0.0619 0.4818 0.0000
vt 0.0413 0.4809 0.0000
vt 0.0246 0.5702 0.0000
vt 0.9434 0.5323 0.0000
vt 0.0286 0.6581 0.0000
vt 0.0123 0.6579 0.0000
vt 0.0124 0.7042 0.0000
vt 0.0286 0.7024 0.0000
vt 0.9461 0.4456 0.0000
vt 0.9664 0.4456 0.0000
vt 0.0491 0.3887 0.0000
vt 0.8717 0.0901 0.0000
vt 0.8869 0.0820 0.0000
vt 0.9092 0.1238 0.0000
vt 0.8799 0.2790 0.0000
vt 0.8488 0.2769 0.0000
vt 0.8389 0.2516 0.0000
vt 0.8671 0.2300 0.0000
vt 0.9422 0.2541 0.0000
vt 0.8654 0.0966 0.0000
vt 0.1076 0.7518 0.0000
vt 0.8271 0.2679 0.0000
vt 0.8462 0.3086 0.0000
vt 0.0515 0.5710 0.0000
vt 0.6131 0.0411 0.0000
vt 0.6131 0.0682 0.0000
vt 0.6223 0.0660 0.0000
vt 0.6347 0.0625 0.0000
vt 0.5806 0.0165 0.0000
vt 0.5803 0.0401 0.0000
vt 0.5967 0.0407 0.0000
vt 0.5977 0.0123 0.0000
vt 0.5796 0.0608 0.0000
vt 0.6145 0.0128 0.0000
vt 0.5962 0.0672 0.0000
vt 0.9755 0.3605 0.0000
vt 0.6468 0.0576 0.0000
vt 0.1076 0.4963 0.0000
vt 0.1146 0.5807 0.0000
vt 0.0814 0.5753 0.0000
vt 0.1900 0.4355 0.0000
vt 0.7092 0.4957 0.0000
vt 0.9118 0.2657 0.0000
vt 0.3501 0.2377 0.0000
vt 0.3507 0.1684 0.0000
vt 0.5813 0.7134 0.0000
vt 0.5894 0.7728 0.0000
vt 0.5404 0.8774 0.0000
vt 0.5342 0.9274 0.0000
vt 0.4176 0.1679 0.0000
vt 0.4777 0.0650 0.0000
vt 0.4237 0.0636 0.0000
vt 0.5390 0.8313 0.0000
vt 0.5102 0.6815 0.0000
vt 0.5185 0.7286 0.0000
vt 0.5303 0.7824 0.0000
vt 0.8941 0.2121 0.0000
vt 0.9752 0.3121 0.0000
vt 0.5142 0.3549 0.0000
vt 0.4829 0.2140 0.0000
vt 0.2379 0.4726 0.0000
vt 0.6647 0.4518 0.0000
vt 0.5636 0.0217 0.0000
vt 0.3551 0.1076 0.0000
vt 0.3631 0.0533 0.0000
vt 0.4977 0.3746 0.0000
# 433 texture coords

o ProfesorSubRightleg
g ProfesorSubRightleg
usemtl mat_8_Doctor_Pants_D_jpg
s 1
f 1/1/1 2/2/2 3/3/3 
f 4/4/4 5/5/5 6/6/6 
f 4/4/4 6/6/6 7/7/7 
f 8/8/8 9/9/9 10/10/10 
f 8/8/8 10/10/10 11/11/11 
f 6/6/6 12/12/12 13/13/13 
f 6/6/6 13/13/13 7/7/7 
f 14/14/14 15/15/15 16/16/16 
f 14/14/14 16/16/16 17/17/17 
f 13/13/13 18/18/18 19/19/19 
f 13/13/13 19/19/19 20/20/20 
f 3/3/3 2/2/2 15/15/15 
f 3/3/3 15/15/15 14/14/14 
f 17/17/17 16/16/16 5/5/5 
f 5/5/5 4/4/4 17/17/17 
f 21/21/21 22/22/22 23/23/23 
f 21/21/21 23/23/23 24/24/24 
f 25/25/25 26/26/26 23/23/23 
f 25/25/25 23/23/23 22/22/22 
f 27/27/27 28/28/28 29/29/29 
f 27/27/27 29/29/29 30/30/30 
f 17/17/17 4/4/4 31/31/31 
f 31/31/31 4/4/4 32/32/32 
f 33/33/33 34/34/34 35/35/35 
f 33/33/33 35/35/35 36/36/36 
f 32/32/32 4/4/4 7/7/7 
f 32/32/32 7/7/7 37/37/37 
f 38/38/38 39/39/39 40/40/40 
f 38/38/38 40/40/40 41/41/41 
f 42/42/42 43/43/43 44/44/44 
f 42/42/42 44/44/44 45/45/45 
f 27/27/27 30/30/30 46/46/46 
f 27/27/27 46/46/46 47/47/47 
f 48/48/48 49/49/49 12/12/12 
f 48/48/48 12/12/12 6/6/6 
f 50/50/50 3/3/3 14/14/14 
f 50/50/50 14/14/14 51/51/51 
f 16/16/16 52/52/52 53/53/53 
f 54/54/54 55/55/55 56/56/56 
f 57/57/57 58/58/58 59/59/59 
f 57/57/57 59/59/59 60/60/60 
f 61/61/61 62/62/62 58/58/58 
f 61/61/61 58/58/58 57/57/57 
f 63/63/63 64/64/64 65/65/65 
f 63/63/63 65/65/65 66/66/66 
f 67/67/67 68/68/68 69/69/69 
f 67/67/67 69/69/69 70/70/70 
f 71/71/71 54/54/54 9/9/9 
f 71/71/71 9/9/9 8/8/8 
f 69/69/69 68/68/68 72/72/72 
f 69/69/69 72/72/72 73/73/73 
f 56/56/56 55/55/55 74/74/74 
f 56/56/56 74/74/74 2/2/2 
f 45/45/45 44/44/44 75/75/75 
f 45/45/45 75/75/75 76/76/76 
f 77/77/77 67/67/67 70/70/70 
f 77/77/77 70/70/70 78/78/78 
f 79/79/79 71/80/80 8/81/81 
f 79/79/79 8/81/81 80/82/82 
f 39/39/39 81/83/83 82/84/84 
f 39/39/39 82/84/84 40/40/40 
f 49/49/49 79/79/79 80/82/82 
f 54/54/54 56/56/56 9/9/9 
f 82/84/84 81/83/83 83/85/85 
f 82/84/84 83/85/85 84/86/86 
f 52/52/52 85/87/87 86/88/88 
f 52/52/52 86/88/88 53/53/53 
f 87/89/89 88/90/90 89/91/91 
f 87/89/89 89/91/91 90/92/92 
f 2/2/2 74/74/74 91/93/93 
f 2/2/2 91/93/93 15/15/15 
f 89/94/94 38/38/38 41/41/41 
f 89/94/94 41/41/41 90/95/95 
f 15/15/15 91/93/93 52/52/52 
f 15/15/15 52/52/52 16/16/16 
f 72/72/72 92/96/96 93/97/97 
f 72/72/72 93/97/97 88/90/90 
f 79/79/79 94/98/98 95/99/99 
f 79/79/79 95/99/99 71/80/80 
f 96/100/100 97/101/101 67/67/67 
f 96/100/100 67/67/67 77/77/77 
f 71/71/71 95/102/102 98/103/103 
f 71/71/71 98/103/103 54/54/54 
f 84/86/86 83/85/85 77/77/77 
f 84/86/86 77/77/77 78/78/78 
f 53/53/53 86/88/88 99/104/104 
f 53/53/53 99/104/104 48/48/48 
f 38/38/38 100/105/105 101/106/106 
f 38/38/38 101/106/106 39/39/39 
f 48/48/48 99/104/104 102/107/107 
f 48/48/48 102/107/107 49/49/49 
f 88/90/90 93/97/97 103/108/108 
f 88/90/90 103/108/108 89/91/91 
f 91/93/93 104/109/109 85/87/87 
f 91/93/93 85/87/87 52/52/52 
f 89/94/94 103/110/110 100/105/105 
f 89/94/94 100/105/105 38/38/38 
f 54/54/54 98/103/103 105/111/111 
f 54/54/54 105/111/111 55/55/55 
f 67/67/67 97/101/101 106/112/112 
f 67/67/67 106/112/112 68/68/68 
f 55/55/55 105/111/111 107/113/113 
f 55/55/55 107/113/113 74/74/74 
f 68/68/68 106/112/112 92/96/96 
f 68/68/68 92/96/96 72/72/72 
f 74/74/74 107/113/113 104/109/109 
f 74/74/74 104/109/109 91/93/93 
f 101/106/106 108/114/114 109/115/115 
f 101/106/106 109/115/115 110/116/116 
f 102/107/107 111/117/117 112/118/118 
f 102/107/107 112/118/118 94/98/98 
f 109/115/115 113/119/119 114/120/120 
f 109/115/115 114/120/120 110/116/116 
f 60/60/60 59/59/59 113/119/119 
f 60/60/60 113/119/119 115/121/121 
f 93/97/97 44/44/44 43/43/43 
f 93/97/97 43/43/43 103/108/108 
f 57/57/57 60/60/60 85/87/87 
f 57/57/57 85/87/87 104/109/109 
f 43/122/122 116/123/123 100/105/105 
f 43/122/122 100/105/105 103/110/110 
f 98/103/103 45/45/45 76/76/76 
f 98/103/103 76/76/76 105/111/111 
f 73/73/73 72/72/72 88/90/90 
f 73/73/73 88/90/90 87/89/89 
f 5/5/5 53/53/53 48/48/48 
f 16/16/16 53/53/53 5/5/5 
f 76/76/76 75/75/75 62/62/62 
f 76/76/76 62/62/62 61/61/61 
f 112/118/118 116/123/123 43/122/122 
f 112/118/118 43/122/122 42/124/124 
f 113/119/119 59/59/59 96/100/100 
f 113/119/119 96/100/100 114/120/120 
f 115/121/121 113/119/119 109/115/115 
f 115/121/121 109/115/115 117/125/125 
f 111/117/117 108/114/114 116/123/123 
f 111/117/117 116/123/123 112/118/118 
f 117/125/125 109/115/115 108/114/114 
f 117/125/125 108/114/114 111/117/117 
f 83/85/85 114/120/120 96/100/100 
f 83/85/85 96/100/100 77/77/77 
f 86/88/88 115/121/121 117/125/125 
f 86/88/88 117/125/125 99/104/104 
f 116/123/123 108/114/114 101/106/106 
f 116/123/123 101/106/106 100/105/105 
f 99/104/104 117/125/125 111/117/117 
f 99/104/104 111/117/117 102/107/107 
f 39/39/39 101/106/106 110/116/116 
f 39/39/39 110/116/116 81/83/83 
f 49/49/49 102/107/107 94/98/98 
f 49/49/49 94/98/98 79/79/79 
f 81/83/83 110/116/116 114/120/120 
f 81/83/83 114/120/120 83/85/85 
f 85/87/87 60/60/60 115/121/121 
f 85/87/87 115/121/121 86/88/88 
f 58/58/58 62/62/62 106/112/112 
f 58/58/58 106/112/112 97/101/101 
f 76/76/76 61/61/61 107/113/113 
f 76/76/76 107/113/113 105/111/111 
f 62/62/62 75/75/75 92/96/96 
f 62/62/62 92/96/96 106/112/112 
f 61/61/61 57/57/57 104/109/109 
f 61/61/61 104/109/109 107/113/113 
f 92/96/96 75/75/75 44/44/44 
f 92/96/96 44/44/44 93/97/97 
f 94/98/98 112/118/118 42/124/124 
f 94/98/98 42/124/124 95/99/99 
f 59/59/59 58/58/58 97/101/101 
f 59/59/59 97/101/101 96/100/100 
f 95/102/102 42/42/42 45/45/45 
f 95/102/102 45/45/45 98/103/103 
f 118/126/126 31/31/31 32/32/32 
f 118/126/126 32/32/32 119/127/127 
f 46/46/46 120/128/128 118/126/126 
f 46/46/46 118/126/126 121/129/129 
f 34/34/34 21/21/21 24/24/24 
f 34/34/34 24/24/24 35/35/35 
f 122/130/130 123/131/131 35/35/35 
f 122/130/130 35/35/35 24/24/24 
f 122/130/130 124/132/132 37/37/37 
f 122/130/130 37/37/37 20/20/20 
f 123/131/131 125/133/133 36/36/36 
f 123/131/131 36/36/36 35/35/35 
f 124/132/132 119/127/127 32/32/32 
f 124/132/132 32/32/32 37/37/37 
f 125/134/134 64/64/64 126/135/135 
f 125/134/134 126/135/135 36/136/136 
f 56/56/56 1/1/1 9/9/9 
f 9/9/9 1/1/1 10/10/10 
f 10/10/10 1/1/1 66/66/66 
f 10/10/10 66/66/66 65/65/65 
f 28/28/28 127/137/137 126/135/135 
f 28/28/28 126/135/135 29/29/29 
f 12/12/12 80/82/82 18/18/18 
f 12/12/12 18/18/18 13/13/13 
f 63/63/63 128/138/138 30/30/30 
f 63/63/63 30/30/30 29/29/29 
f 7/7/7 13/13/13 20/20/20 
f 7/7/7 20/20/20 37/37/37 
f 66/66/66 1/1/1 3/3/3 
f 66/66/66 3/3/3 50/50/50 
f 64/64/64 63/63/63 29/29/29 
f 64/64/64 29/29/29 126/135/135 
f 80/82/82 8/81/81 11/139/139 
f 80/82/82 11/139/139 18/18/18 
f 129/140/140 121/129/129 26/26/26 
f 129/140/140 26/26/26 25/25/25 
f 123/131/131 122/130/130 20/20/20 
f 123/131/131 20/20/20 19/19/19 
f 120/128/128 51/51/51 31/31/31 
f 120/128/128 31/31/31 118/126/126 
f 129/140/140 47/47/47 46/46/46 
f 129/140/140 46/46/46 121/129/129 
f 127/137/137 33/141/141 36/136/136 
f 127/137/137 36/136/136 126/135/135 
f 30/30/30 128/138/138 120/128/128 
f 30/30/30 120/128/128 46/46/46 
f 49/49/49 80/82/82 12/12/12 
f 5/5/5 48/48/48 6/6/6 
f 51/51/51 14/14/14 17/17/17 
f 51/51/51 17/17/17 31/31/31 
f 11/11/11 10/10/10 65/65/65 
f 11/11/11 65/65/65 130/142/142 
f 64/64/64 125/134/134 130/142/142 
f 64/64/64 130/142/142 65/65/65 
f 26/26/26 119/127/127 124/132/132 
f 26/26/26 124/132/132 23/23/23 
f 125/133/133 123/131/131 19/19/19 
f 125/133/133 19/19/19 130/143/143 
f 124/132/132 122/130/130 24/24/24 
f 124/132/132 24/24/24 23/23/23 
f 128/138/138 50/50/50 51/51/51 
f 128/138/138 51/51/51 120/128/128 
f 63/63/63 66/66/66 50/50/50 
f 63/63/63 50/50/50 128/138/138 
f 121/129/129 118/126/126 119/127/127 
f 121/129/129 119/127/127 26/26/26 
f 1/1/1 56/56/56 2/2/2 
usemtl mat_3_Doctor_Shoes_D_jpg
f 131/144/144 132/145/145 133/146/146 
f 134/147/147 135/148/148 136/149/149 
f 137/150/150 136/149/149 138/151/151 
f 136/149/149 139/152/152 134/147/147 
f 135/148/148 138/151/151 136/149/149 
f 140/153/153 141/154/154 142/155/155 
f 139/152/152 143/156/156 134/147/147 
f 144/157/157 139/152/152 145/158/158 
f 146/159/159 147/160/160 148/161/161 
f 149/162/162 150/163/163 151/164/164 
f 145/158/158 152/165/165 141/154/154 
f 148/161/161 153/166/166 154/167/167 
f 148/161/161 154/167/167 155/168/168 
f 147/160/160 156/169/169 157/170/170 
f 158/171/171 159/172/172 160/173/173 
f 161/174/174 160/173/173 157/175/175 
f 156/169/169 161/176/176 157/170/170 
f 162/177/177 159/172/172 163/178/178 
f 164/179/179 165/180/180 166/181/181 
f 167/182/182 158/171/171 160/173/173 
f 165/180/180 159/172/172 162/177/177 
f 168/183/183 153/184/184 169/185/185 
f 153/166/166 168/186/186 154/167/167 
f 169/185/185 164/179/179 166/181/181 
f 153/184/184 164/179/179 169/185/185 
f 170/187/187 171/188/188 172/189/189 
f 173/190/190 171/188/188 174/191/191 
f 172/189/189 173/190/190 175/192/192 
f 171/188/188 173/190/190 172/189/189 
f 157/170/170 153/166/166 148/161/161 
f 147/160/160 157/170/170 148/161/161 
f 146/159/159 148/161/161 155/168/168 
f 176/193/193 177/194/194 178/195/195 
f 179/196/196 180/197/197 176/198/198 
f 181/199/199 182/200/200 183/201/201 
f 181/199/199 184/202/202 185/203/203 
f 186/204/204 187/205/205 188/206/206 
f 184/202/202 181/199/199 183/201/201 
f 189/207/207 184/202/202 183/201/201 
f 176/198/198 180/197/197 190/208/208 
f 177/209/209 176/198/198 190/208/208 
f 191/210/210 192/211/211 193/212/212 
f 194/213/213 192/211/211 191/210/210 
f 171/188/188 195/214/214 174/191/191 
f 191/210/210 193/212/212 196/215/215 
f 173/190/190 191/210/210 196/215/215 
f 173/190/190 196/215/215 175/192/192 
f 167/182/182 197/216/216 198/217/217 
f 195/214/214 199/218/218 174/191/191 
f 200/219/219 151/220/220 201/221/221 
f 201/221/221 185/222/222 200/219/219 
f 202/223/223 200/219/219 203/224/224 
f 200/219/219 149/225/225 151/220/220 
f 204/226/226 205/227/227 206/228/228 
f 192/211/211 207/229/229 193/212/212 
f 207/230/230 206/228/228 193/231/231 
f 205/227/227 208/232/232 206/228/228 
f 186/204/204 182/200/200 209/233/233 
f 210/234/234 186/204/204 209/233/233 
f 182/200/200 186/204/204 188/206/206 
f 183/201/201 182/200/200 188/206/206 
f 211/235/235 212/236/236 213/237/237 
f 197/216/216 211/235/235 213/237/237 
f 156/169/169 143/156/156 214/238/238 
f 156/169/169 147/160/160 134/147/147 
f 215/239/239 211/235/235 216/240/240 
f 217/241/241 215/239/239 216/240/240 
f 218/242/242 219/243/243 220/244/244 
f 221/245/245 222/246/246 223/247/247 
f 224/248/248 225/249/249 226/250/250 
f 227/251/251 224/248/248 226/250/250 
f 215/239/239 217/241/241 226/250/250 
f 225/249/249 215/239/239 226/250/250 
f 228/252/252 180/197/197 229/253/253 
f 229/253/253 230/254/254 231/255/255 
f 177/194/194 200/219/219 178/195/195 
f 232/256/256 209/233/233 182/200/200 
f 233/257/257 234/258/258 235/259/259 
f 236/260/260 237/261/261 238/262/262 
f 228/252/252 229/253/253 231/255/255 
f 231/255/255 230/254/254 239/263/263 
f 240/264/264 210/234/234 212/236/236 
f 241/265/265 240/264/264 212/236/236 
f 242/266/266 243/267/267 244/268/268 
f 245/269/269 242/266/266 244/268/268 
f 241/265/265 212/236/236 211/235/235 
f 215/239/239 241/265/265 211/235/235 
f 246/270/270 247/271/271 248/272/272 
f 249/273/273 246/270/270 248/272/272 
f 241/265/265 215/239/239 225/249/249 
f 246/270/270 241/265/265 225/249/249 
f 247/271/271 246/270/270 225/249/249 
f 224/248/248 247/271/271 225/249/249 
f 232/256/256 250/274/274 213/237/237 
f 209/233/233 232/256/256 213/237/237 
f 241/265/265 246/270/270 249/273/273 
f 240/264/264 241/265/265 249/273/273 
f 251/275/275 252/276/276 253/277/277 
f 254/278/278 255/279/279 256/280/280 
f 222/246/246 140/153/153 179/196/196 
f 257/281/281 222/246/246 179/196/196 
f 235/259/259 258/282/282 259/283/283 
f 234/258/258 258/282/282 235/259/259 
f 251/275/275 254/278/278 256/280/280 
f 258/282/282 260/284/284 259/283/283 
f 261/285/285 149/225/225 200/219/219 
f 202/223/223 261/285/285 200/219/219 
f 189/286/286 200/219/219 184/287/287 
f 184/287/287 200/219/219 185/222/222 
f 150/288/288 149/289/289 261/290/290 
f 239/263/263 150/288/288 261/290/290 
f 178/195/195 200/219/219 189/286/286 
f 183/291/291 178/195/195 189/286/286 
f 262/292/292 263/293/293 264/294/294 
f 224/248/248 265/295/295 266/296/296 
f 174/191/191 194/213/213 191/210/210 
f 263/293/293 267/297/297 264/294/294 
f 268/298/298 264/294/294 267/297/297 
f 269/299/299 268/298/298 267/297/297 
f 270/300/300 269/299/299 271/301/301 
f 272/302/302 269/299/299 270/300/300 
f 214/238/238 236/260/260 273/303/303 
f 274/304/304 214/238/238 273/303/303 
f 237/261/261 220/244/244 264/294/294 
f 268/298/298 237/261/261 264/294/294 
f 181/199/199 275/305/305 276/306/306 
f 232/256/256 181/199/199 276/306/306 
f 142/155/155 180/197/197 179/196/196 
f 140/153/153 142/155/155 179/196/196 
f 207/230/230 277/307/307 206/228/228 
f 206/228/228 208/232/232 193/231/231 
f 206/228/228 230/254/254 204/226/226 
f 277/307/307 230/254/254 206/228/228 
f 231/255/255 202/308/308 203/309/309 
f 228/252/252 231/255/255 203/309/309 
f 278/310/310 279/311/311 276/306/306 
f 275/305/305 278/310/310 276/306/306 
f 192/211/211 279/311/311 207/229/229 
f 279/311/311 192/211/211 194/213/213 
f 250/274/274 194/213/213 174/191/191 
f 279/311/311 277/312/312 207/229/229 
f 142/155/155 152/165/165 229/253/253 
f 230/254/254 229/253/253 204/226/226 
f 276/306/306 279/311/311 194/213/213 
f 152/165/165 204/226/226 229/253/253 
f 181/199/199 232/256/256 182/200/200 
f 180/197/197 142/155/155 229/253/253 
f 277/312/312 279/311/311 280/313/313 
f 150/163/163 277/312/312 280/313/313 
f 178/195/195 183/291/291 188/314/314 
f 281/315/315 178/195/195 188/314/314 
f 261/290/290 202/308/308 239/263/263 
f 280/313/313 278/310/310 201/316/316 
f 151/164/164 280/313/313 201/316/316 
f 239/263/263 230/254/254 277/307/307 
f 150/163/163 280/313/313 151/164/164 
f 202/308/308 231/255/255 239/263/263 
f 200/219/219 177/194/194 190/317/317 
f 200/219/219 190/317/317 203/224/224 
f 150/288/288 239/263/263 277/307/307 
f 278/310/310 280/313/313 279/311/311 
f 282/318/318 283/319/319 284/320/320 
f 260/284/284 285/321/321 282/318/318 
f 286/322/322 285/321/321 258/282/282 
f 283/319/319 287/323/323 284/320/320 
f 234/258/258 288/324/324 289/325/325 
f 290/326/326 291/327/327 292/328/328 
f 284/320/320 260/284/284 282/318/318 
f 288/324/324 293/329/329 289/325/325 
f 289/325/325 294/330/330 286/322/322 
f 289/325/325 293/329/329 290/326/326 
f 286/322/322 295/331/331 285/321/321 
f 294/330/330 295/331/331 286/322/322 
f 289/325/325 286/322/322 234/258/258 
f 285/321/321 260/284/284 258/282/282 
f 294/330/330 289/325/325 290/326/326 
f 286/322/322 258/282/282 234/258/258 
f 292/328/328 272/302/302 296/332/332 
f 292/328/328 296/332/332 295/331/331 
f 291/327/327 297/333/333 292/328/328 
f 272/302/302 270/300/300 296/332/332 
f 298/334/334 299/335/335 300/336/336 
f 290/337/337 293/338/338 301/339/339 
f 294/330/330 292/328/328 295/331/331 
f 299/335/335 297/340/340 300/336/336 
f 290/337/337 302/341/341 291/342/342 
f 297/340/340 291/342/342 303/343/343 
f 294/330/330 290/326/326 292/328/328 
f 302/341/341 303/343/343 291/342/342 
f 297/333/333 299/344/344 272/302/302 
f 297/333/333 272/302/302 292/328/328 
f 300/336/336 297/340/340 303/343/343 
f 299/344/344 269/299/299 272/302/302 
f 233/257/257 254/345/345 253/346/346 
f 304/347/347 233/257/257 253/346/346 
f 305/348/348 306/349/349 307/350/350 
f 308/351/351 305/348/348 307/350/350 
f 309/352/352 310/353/353 311/354/354 
f 312/355/355 273/356/356 238/357/357 
f 141/154/154 140/153/153 222/246/246 
f 310/353/353 238/357/357 311/354/354 
f 306/349/349 313/358/358 314/359/359 
f 315/360/360 306/349/349 314/359/359 
f 302/341/341 290/337/337 301/339/339 
f 238/262/262 237/261/261 311/361/361 
f 259/283/283 242/362/362 255/363/363 
f 235/259/259 259/283/283 255/363/363 
f 316/364/364 317/365/365 318/366/366 
f 248/272/272 316/364/364 318/366/366 
f 319/367/367 320/368/368 321/369/369 
f 322/370/370 319/367/367 321/369/369 
f 187/205/205 323/371/371 188/206/206 
f 237/261/261 268/298/298 311/361/361 
f 324/372/372 325/373/373 243/374/374 
f 326/375/375 324/372/372 243/374/374 
f 327/376/376 328/377/377 323/371/371 
f 187/205/205 327/376/376 323/371/371 
f 180/197/197 228/252/252 203/309/309 
f 190/208/208 180/197/197 203/309/309 
f 278/310/310 275/305/305 185/203/203 
f 201/316/316 278/310/310 185/203/203 
f 320/368/368 257/281/281 329/378/378 
f 321/369/369 320/368/368 329/378/378 
f 315/360/360 304/379/379 253/380/380 
f 252/381/381 315/360/360 253/380/380 
f 233/257/257 304/347/347 288/324/324 
f 234/258/258 233/257/257 288/324/324 
f 330/382/382 331/383/383 332/384/384 
f 333/385/385 330/382/382 332/384/384 
f 305/348/348 334/386/386 313/358/358 
f 306/349/349 305/348/348 313/358/358 
f 288/387/387 304/379/379 315/360/360 
f 314/359/359 288/387/387 315/360/360 
f 335/388/388 263/293/293 285/321/321 
f 296/332/332 271/301/301 335/388/388 
f 247/271/271 224/248/248 266/296/296 
f 263/293/293 282/318/318 285/321/321 
f 336/389/389 331/383/383 337/390/390 
f 298/334/334 336/389/389 337/390/390 
f 295/331/331 296/332/332 335/388/388 
f 296/332/332 270/300/300 271/301/301 
f 187/205/205 186/204/204 210/234/234 
f 240/264/264 187/205/205 210/234/234 
f 257/281/281 320/368/368 223/247/247 
f 222/246/246 257/281/281 223/247/247 
f 298/334/334 309/352/352 299/335/335 
f 269/299/299 267/297/297 271/301/301 
f 310/353/353 312/355/355 238/357/357 
f 309/352/352 311/354/354 299/335/335 
f 334/386/386 305/348/348 317/365/365 
f 316/364/364 334/386/386 317/365/365 
f 287/323/323 324/372/372 326/375/375 
f 284/320/320 287/323/323 326/375/375 
f 248/272/272 318/366/366 327/376/376 
f 249/273/273 248/272/272 327/376/376 
f 319/367/367 324/372/372 287/323/323 
f 338/391/391 319/367/367 287/323/323 
f 255/279/279 242/266/266 245/269/269 
f 256/280/280 255/279/279 245/269/269 
f 244/268/268 339/392/392 340/393/393 
f 341/394/394 244/268/268 340/393/393 
f 199/218/218 250/274/274 174/191/191 
f 275/305/305 181/199/199 185/203/203 
f 244/268/268 341/394/394 308/395/395 
f 245/269/269 244/268/268 308/395/395 
f 321/396/396 342/397/397 343/398/398 
f 322/399/399 321/396/396 343/398/398 
f 342/397/397 281/315/315 188/314/314 
f 323/400/400 342/397/397 188/314/314 
f 243/267/267 325/401/401 339/392/392 
f 244/268/268 243/267/267 339/392/392 
f 343/398/398 342/397/397 323/400/400 
f 328/402/402 343/398/398 323/400/400 
f 327/376/376 318/366/366 328/377/377 
f 325/401/401 322/399/399 343/398/398 
f 325/373/373 324/372/372 322/370/370 
f 318/366/366 340/403/403 328/377/377 
f 340/393/393 339/392/392 328/402/402 
f 273/303/303 236/260/260 238/262/262 
f 339/392/392 325/401/401 343/398/398 
f 339/392/392 343/398/398 328/402/402 
f 254/278/278 251/275/275 253/277/277 
f 252/276/276 251/275/275 256/280/280 
f 245/269/269 308/395/395 307/404/404 
f 256/280/280 245/269/269 307/404/404 
f 223/247/247 320/368/368 338/391/391 
f 324/372/372 319/367/367 322/370/370 
f 307/404/404 252/276/276 256/280/280 
f 320/368/368 319/367/367 338/391/391 
f 264/294/294 220/244/244 262/292/292 
f 344/405/405 223/247/247 338/391/391 
f 263/293/293 335/388/388 267/297/297 
f 220/244/244 345/406/406 262/292/292 
f 283/319/319 346/407/407 287/323/323 
f 219/243/243 345/406/406 220/244/244 
f 346/407/407 344/405/405 338/391/391 
f 346/407/407 338/391/391 287/323/323 
f 346/407/407 345/406/406 344/405/405 
f 283/319/319 262/292/292 345/406/406 
f 347/408/408 221/245/245 219/243/243 
f 345/406/406 219/243/243 344/405/405 
f 263/293/293 262/292/292 282/318/318 
f 335/388/388 271/301/301 267/297/297 
f 346/407/407 283/319/319 345/406/406 
f 262/292/292 283/319/319 282/318/318 
f 221/245/245 347/408/408 141/154/154 
f 221/245/245 344/405/405 219/243/243 
f 221/245/245 141/154/154 222/246/246 
f 347/408/408 144/157/157 141/154/154 
f 217/241/241 216/240/240 348/409/409 
f 312/355/355 217/241/241 348/409/409 
f 310/353/353 226/250/250 217/241/241 
f 312/355/355 310/353/353 217/241/241 
f 334/386/386 316/364/364 266/296/296 
f 349/410/410 334/386/386 266/296/296 
f 248/272/272 247/271/271 266/296/296 
f 316/364/364 248/272/272 266/296/296 
f 344/405/405 221/245/245 223/247/247 
f 295/331/331 335/388/388 285/321/321 
f 326/375/375 243/374/374 242/362/362 
f 259/283/283 326/375/375 242/362/362 
f 139/152/152 144/157/157 143/156/156 
f 350/411/411 351/412/412 205/227/227 
f 213/237/237 250/274/274 199/218/218 
f 197/216/216 213/237/237 199/218/218 
f 352/413/413 198/217/217 195/214/214 
f 353/414/414 352/413/413 195/214/214 
f 198/217/217 197/216/216 199/218/218 
f 195/214/214 198/217/217 199/218/218 
f 354/415/415 172/189/189 175/192/192 
f 355/416/416 354/415/415 175/192/192 
f 137/150/150 356/417/417 351/412/412 
f 350/411/411 137/150/150 351/412/412 
f 132/145/145 131/144/144 355/418/418 
f 175/419/419 132/145/145 355/418/418 
f 170/187/187 172/189/189 354/415/415 
f 357/420/420 170/187/187 354/415/415 
f 358/421/421 158/171/171 352/413/413 
f 359/422/422 358/421/421 352/413/413 
f 158/171/171 358/421/421 163/178/178 
f 159/172/172 158/171/171 163/178/178 
f 164/179/179 159/172/172 165/180/180 
f 160/173/173 159/172/172 157/175/175 
f 164/179/179 153/184/184 157/175/175 
f 159/172/172 164/179/179 157/175/175 
f 359/422/422 352/413/413 353/414/414 
f 360/423/423 359/422/422 353/414/414 
f 198/217/217 352/413/413 158/171/171 
f 167/182/182 198/217/217 158/171/171 
f 353/414/414 195/214/214 171/188/188 
f 170/187/187 353/414/414 171/188/188 
f 353/414/414 170/187/187 357/420/420 
f 360/423/423 353/414/414 357/420/420 
f 265/295/295 224/248/248 227/251/251 
f 337/390/390 265/295/295 227/251/251 
f 349/410/410 330/382/382 333/385/385 
f 361/424/424 349/410/410 333/385/385 
f 303/343/343 302/341/341 333/385/385 
f 332/384/384 303/343/343 333/385/385 
f 330/382/382 265/295/295 337/390/390 
f 331/383/383 330/382/382 337/390/390 
f 250/274/274 232/256/256 276/306/306 
f 194/213/213 250/274/274 276/306/306 
f 210/234/234 209/233/233 213/237/237 
f 212/236/236 210/234/234 213/237/237 
f 330/382/382 349/410/410 266/296/296 
f 265/295/295 330/382/382 266/296/296 
f 317/365/365 341/425/425 340/403/403 
f 318/366/366 317/365/365 340/403/403 
f 361/424/424 313/358/358 334/386/386 
f 349/410/410 361/424/424 334/386/386 
f 300/336/336 303/343/343 332/384/384 
f 336/389/389 300/336/336 332/384/384 
f 293/338/338 288/387/387 314/359/359 
f 301/339/339 293/338/338 314/359/359 
f 313/358/358 361/424/424 301/339/339 
f 314/359/359 313/358/358 301/339/339 
f 298/334/334 337/390/390 227/251/251 
f 309/352/352 298/334/334 227/251/251 
f 302/341/341 301/339/339 361/424/424 
f 333/385/385 302/341/341 361/424/424 
f 336/389/389 332/384/384 331/383/383 
f 300/336/336 336/389/389 298/334/334 
f 309/352/352 227/251/251 226/250/250 
f 310/353/353 309/352/352 226/250/250 
f 152/165/165 145/158/158 204/226/226 
f 141/154/154 152/165/165 142/155/155 
f 145/158/158 350/411/411 205/227/227 
f 139/152/152 350/411/411 145/158/158 
f 143/156/156 156/169/169 134/147/147 
f 362/426/426 135/148/148 134/147/147 
f 363/427/427 137/150/150 138/151/151 
f 350/411/411 139/152/152 136/149/149 
f 364/428/428 143/156/156 144/157/157 
f 161/174/174 274/429/429 348/409/409 
f 161/176/176 156/169/169 214/238/238 
f 274/304/304 161/176/176 214/238/238 
f 144/157/157 145/158/158 141/154/154 
f 145/158/158 205/227/227 204/226/226 
f 347/408/408 219/243/243 218/242/242 
f 347/408/408 364/428/428 144/157/157 
f 137/150/150 350/411/411 136/149/149 
f 143/156/156 364/428/428 214/238/238 
f 167/182/182 160/173/173 348/409/409 
f 216/240/240 167/182/182 348/409/409 
f 364/428/428 347/408/408 218/242/242 
f 160/173/173 161/174/174 348/409/409 
f 197/216/216 167/182/182 216/240/240 
f 211/235/235 197/216/216 216/240/240 
f 218/242/242 220/244/244 237/261/261 
f 236/260/260 218/242/242 237/261/261 
f 269/299/299 299/344/344 311/361/361 
f 268/298/298 269/299/299 311/361/361 
f 236/260/260 214/238/238 364/428/428 
f 218/242/242 236/260/260 364/428/428 
f 274/429/429 273/356/356 312/355/355 
f 348/409/409 274/429/429 312/355/355 
f 176/193/193 178/195/195 281/315/315 
f 329/430/430 176/193/193 281/315/315 
f 306/349/349 315/360/360 252/381/381 
f 307/350/350 306/349/349 252/381/381 
f 329/430/430 281/315/315 342/397/397 
f 321/396/396 329/430/430 342/397/397 
f 187/205/205 240/264/264 249/273/273 
f 327/376/376 187/205/205 249/273/273 
f 257/281/281 179/196/196 176/198/198 
f 329/378/378 257/281/281 176/198/198 
f 305/348/348 308/351/351 341/425/425 
f 317/365/365 305/348/348 341/425/425 
f 235/259/259 255/363/363 254/345/345 
f 233/257/257 235/259/259 254/345/345 
f 284/320/320 326/375/375 259/283/283 
f 260/284/284 284/320/320 259/283/283 
f 365/431/431 132/145/145 175/419/419 
f 196/432/432 365/431/431 175/419/419 
f 351/412/412 356/417/417 132/145/145 
f 365/431/431 351/412/412 132/145/145 
f 365/431/431 208/232/232 205/227/227 
f 351/412/412 365/431/431 205/227/227 
f 208/232/232 365/431/431 196/432/432 
f 193/231/231 208/232/232 196/432/432 
f 147/160/160 362/426/426 134/147/147 
f 147/160/160 366/433/433 362/426/426 
f 191/210/210 173/190/190 174/191/191 
f 366/433/433 147/160/160 146/159/159 
f 137/150/150 363/427/427 133/146/146 
f 356/417/417 137/150/150 133/146/146 
f 132/145/145 356/417/417 133/146/146 
usemtl mat_8_Doctor_Pants_D_jpg
f 18/18/18 11/139/139 130/143/143 
f 18/18/18 130/143/143 19/19/19 
# 0 polygons - 688 triangles

