# 3ds Max Wavefront OBJ Exporter v0.99 - (c)2007 guruware
# File Created: 11.05.2025 16:06:18

mtllib piso.mtl

#
# object cube
#

v  -200.5269 -3.1250 -193.1061
v  -200.5269 0.0000 -193.1061
v  200.5269 0.0000 -193.1061
v  200.5269 -3.1250 -193.1061
v  200.5269 0.0000 193.1061
v  200.5269 -3.1250 193.1061
v  -200.5269 0.0000 193.1061
v  -200.5269 -3.1250 193.1061
# 8 vertices

vn 0.0000 0.0000 -1.0000
vn 1.0000 0.0000 -0.0000
vn 0.0000 0.0000 1.0000
vn -1.0000 0.0000 -0.0000
vn 0.0000 1.0000 -0.0000
vn 0.0000 -1.0000 -0.0000
# 6 vertex normals

vt 0.0000 20.0000 -0.0000
vt 0.0000 20.0000 1.0000
vt 20.0000 20.0000 1.0000
vt 20.0000 20.0000 -0.0000
vt 20.0000 -0.0000 1.0000
vt 20.0000 -0.0000 -0.0000
vt 0.0000 0.0000 1.0000
vt 0.0000 0.0000 -0.0000
# 8 texture coords

o cube
g cube
usemtl Material__26
s 1
f 1/1/1 2/2/1 3/3/1 
f 3/3/1 4/4/1 1/1/1 
f 4/4/2 3/3/2 5/5/2 
f 5/5/2 6/6/2 4/4/2 
f 6/6/3 5/5/3 7/7/3 
f 7/7/3 8/8/3 6/6/3 
f 8/8/4 7/7/4 2/2/4 
f 2/2/4 1/1/4 8/8/4 
f 5/5/5 3/3/5 2/2/5 
f 2/2/5 7/7/5 5/5/5 
f 4/4/6 6/6/6 8/8/6 
f 8/8/6 1/1/6 4/4/6 
# 12 faces

