# 3ds Max Wavefront OBJ Exporter v0.99 - (c)2007 guruware
# File Created: 14.05.2025 18:30:39

mtllib ProfesorSubLeftLeg2.mtl

#
# object ProfesorSubLeftLeg
#

v  0.7496 -0.5080 -1.2473
v  0.7625 -0.0972 -1.1427
v  0.3689 -0.2646 -0.8361
v  0.4717 -0.7780 -1.1084
v  0.7434 -1.2685 -1.4109
v  1.0189 -0.7188 -1.5482
v  1.1392 -0.1048 -1.5411
v  -0.7766 -3.4019 -1.5841
v  -0.5487 -2.8246 -1.5558
v  -1.0504 -2.6442 -1.7638
v  -1.3458 -2.8637 -1.8251
v  0.1612 -3.4585 -1.3999
v  0.1939 -2.8824 -1.3864
v  -0.4967 -4.0498 -1.6877
v  0.2113 -4.0440 -1.4372
v  -1.2815 -3.5800 -2.1020
v  -0.9690 -4.0884 -2.1809
v  -1.7380 -3.0559 -2.0913
v  -0.5028 -2.2406 -1.6694
v  -1.1869 -2.1445 -1.8477
v  -1.6893 -2.1905 -1.9695
v  1.4870 -2.2344 -1.8898
v  1.1303 -1.7445 -1.6994
v  0.8657 -2.1716 -1.0319
v  0.9484 -2.7611 -1.2782
v  1.9894 -2.0886 -2.4561
v  1.9817 -1.2814 -2.5222
v  1.7094 -1.4839 -2.1853
v  1.4849 -0.9655 -1.9980
v  1.5474 -3.0911 -1.8365
v  1.9865 -2.9156 -2.3947
v  -1.9275 -3.1589 -2.6751
v  -2.0339 -2.2569 -2.1882
v  -2.2233 -2.2472 -2.6564
v  -2.3010 -2.1676 -3.1877
v  -2.0740 -3.0127 -3.2835
v  -1.5304 -3.6960 -2.4523
v  1.6069 -0.1526 -1.8386
v  2.1469 -0.5952 -2.2658
v  2.1999 0.0621 -2.1157
v  -1.4327 -4.1354 -2.5570
v  -1.8868 -3.9572 -2.9090
v  -2.3377 0.3272 -4.1935
v  -2.1179 -0.2059 -4.3088
v  -2.3924 -0.4801 -3.8646
v  -2.5256 0.0163 -3.4369
v  -2.4498 -0.6586 -3.1978
v  -2.3877 -0.6558 -2.6461
v  -2.5253 0.0096 -2.6284
v  -2.4983 -0.7711 -3.5896
v  -2.3514 -1.2571 -3.6380
v  -2.4189 -1.3478 -3.1710
v  -2.2595 -1.1027 -4.0694
v  -1.3307 -1.0980 -1.4518
v  -0.7631 -1.2491 -1.1067
v  -0.9598 -0.7193 -0.7612
v  -1.4864 -0.5760 -1.0928
v  -1.5659 0.1516 -0.8913
v  -2.0981 0.3458 -1.3082
v  -2.0062 -0.3276 -1.4976
v  -1.9533 -0.9462 -1.7037
v  -1.7979 -1.5384 -2.0247
v  -1.2375 -1.5891 -1.7816
v  -2.3836 -0.1107 -1.9873
v  -2.3004 -0.7938 -2.1013
v  -2.1796 -1.5019 -2.2096
v  -2.4193 -1.4352 -2.6529
v  -2.4388 0.5362 -1.9078
v  -1.8837 -0.0121 -4.8095
v  -1.3358 0.1200 -5.1056
v  -1.2895 -0.5722 -5.2824
v  -1.7187 -0.6930 -4.9082
v  -0.6519 0.2263 -5.4239
v  -0.6047 -0.4904 -5.5324
v  -0.5637 -1.3790 -5.7324
v  -1.2108 -1.4519 -5.4351
v  0.1331 0.2701 -5.4947
v  0.2015 -0.4582 -5.5952
v  0.2576 -1.3532 -5.7411
v  0.3039 -2.3147 -5.9011
v  -0.5117 -2.3568 -5.8841
v  0.9365 -0.4669 -5.3603
v  1.0223 -1.3635 -5.4836
v  1.0823 -2.3094 -5.6529
v  1.1035 -3.2244 -5.7830
v  0.3353 -3.2498 -6.0231
v  1.6492 -1.4178 -5.0219
v  1.7203 -2.3596 -5.1726
v  1.7398 -3.2506 -5.2906
v  1.6178 -5.4794 -5.4056
v  1.0506 -5.4362 -5.9452
v  1.0931 -4.2100 -5.8733
v  1.7125 -4.2238 -5.3708
v  2.1369 -3.3222 -4.6382
v  2.1028 -4.2590 -4.7076
v  2.0167 -5.4985 -4.7840
v  1.8782 -6.9426 -4.8186
v  1.4486 -6.9079 -5.3957
v  -2.1574 -3.8671 -3.3943
v  2.1439 -5.4904 -4.1272
v  2.0517 -6.9166 -4.2552
v  1.9447 -8.3316 -4.3386
v  1.6167 -8.3251 -4.8040
v  2.2252 -5.4960 -3.5566
v  2.0833 -6.8906 -3.7202
v  1.9508 -8.2879 -3.8524
v  1.7825 -9.5334 -3.8981
v  1.6757 -9.5596 -4.2813
v  1.9097 -6.8498 -3.2350
v  1.7753 -8.2402 -3.3820
v  1.6175 -9.4986 -3.4879
v  1.6011 -10.5139 -3.4006
v  1.8368 -10.5252 -3.8178
v  1.5832 -8.2183 -2.8776
v  1.4200 -9.4728 -3.0130
v  1.3347 -10.4967 -2.9934
v  1.1148 -11.3881 -2.9362
v  1.4499 -11.3628 -3.3295
v  1.0712 -9.4202 -2.6272
v  1.0047 -10.4580 -2.6172
v  0.8140 -11.4106 -2.6282
v  0.7697 -11.4542 -2.7357
v  1.0261 -11.4156 -3.0475
v  0.6015 -10.4128 -2.3350
v  0.4547 -11.4094 -2.3868
v  0.4267 -11.4613 -2.4666
v  0.0237 -11.3956 -2.2660
v  0.0292 -11.4543 -2.3636
v  1.3088 -11.2296 -3.6848
v  1.7779 -11.3492 -3.7705
v  1.2291 -11.3496 -3.3986
v  1.2856 -11.0220 -4.1051
v  1.8501 -11.2992 -4.2840
v  1.7889 -10.5450 -4.2964
v  1.6478 -11.2866 -4.8116
v  1.6239 -10.5316 -4.8330
v  1.4616 -9.5657 -4.7985
v  1.3553 -10.5303 -5.4538
v  1.3143 -9.5588 -5.5056
v  1.2640 -8.3003 -5.4146
v  0.8518 -9.5678 -6.0478
v  0.9100 -8.2627 -6.0763
v  0.9603 -6.8450 -5.9986
v  0.2764 -8.2365 -6.3264
v  0.3231 -6.7985 -6.2894
v  0.3534 -5.4111 -6.1976
v  -0.3644 -6.7894 -6.3030
v  -0.3676 -5.4319 -6.2183
v  -1.9451 -2.6344 -4.7959
v  -1.7027 -2.5102 -5.2744
v  -1.6692 -3.4841 -5.3839
v  -2.0242 -3.5858 -4.9286
v  2.3874 -3.4891 -3.4086
v  2.3221 -4.3529 -3.4528
v  2.2560 -4.3044 -4.0190
v  2.2917 -3.4097 -3.9637
v  -1.0528 -5.4884 -6.0259
v  -1.1051 -4.3770 -5.9164
v  -0.4061 -4.2916 -6.1364
v  -1.1569 -3.3899 -5.7799
v  -0.4584 -3.3086 -6.0222
v  0.3567 -4.2316 -6.1323
v  -1.1893 -2.4260 -5.6154
v  -1.6502 -1.5514 -5.0548
v  -1.9734 -1.7153 -4.6708
v  -2.0107 -0.8568 -4.5306
v  -2.1744 -1.8694 -4.2140
v  -2.2418 -2.7696 -4.3579
v  -2.2164 -2.9089 -3.8082
v  -2.3655 -2.0483 -3.7099
v  -2.2429 -3.7868 -3.8970
v  -2.1355 -3.6909 -4.3987
v  -2.1452 -5.6715 -4.5166
v  -2.1673 -5.7028 -4.0460
v  -2.2345 -4.6799 -3.9752
v  -2.1593 -4.6276 -4.4505
v  -2.0124 -4.5564 -4.9921
v  -2.0201 -5.6168 -5.0670
v  -1.8837 -6.8878 -5.1102
v  -2.1368 -6.8936 -4.5785
v  -1.6188 -5.5600 -5.6087
v  -1.5228 -6.8588 -5.6436
v  -1.5435 -8.1994 -5.7201
v  -1.8375 -8.1867 -5.1562
v  -1.0401 -6.8070 -6.1441
v  -1.0613 -8.2140 -6.1846
v  -1.1157 -9.5316 -6.1750
v  -1.6274 -9.5030 -5.7381
v  -0.3983 -8.2213 -6.3532
v  -0.4510 -9.5460 -6.4010
v  -0.5041 -10.5657 -6.4444
v  -1.2059 -10.5312 -6.1841
v  0.2517 -9.5581 -6.3716
v  0.2527 -10.5817 -6.4358
v  0.1429 -11.2977 -6.3872
v  -0.5304 -11.2818 -6.3907
v  0.8751 -10.5694 -6.0170
v  0.9093 -11.2993 -5.9265
v  0.5295 -10.7796 -5.4785
v  0.0389 -10.7490 -5.6850
v  1.3512 -11.2792 -5.3721
v  0.8890 -10.8113 -5.0573
v  1.1551 -10.9050 -4.5710
v  -0.4627 -10.7203 -5.7433
v  -0.9323 -10.7236 -5.5565
v  -1.2362 -11.2681 -6.0496
v  -1.3180 -10.7176 -5.1928
v  -1.7147 -11.2453 -5.5462
v  -1.6523 -10.5028 -5.6453
v  -1.9960 -11.1605 -5.0415
v  -1.9785 -10.4352 -5.1176
v  -1.8671 -9.4643 -5.1484
v  -2.1830 -10.3704 -4.6407
v  -2.0495 -9.4286 -4.6514
v  -2.0135 -8.1724 -4.6290
v  -2.0251 -9.3990 -4.2173
v  -2.0369 -8.1525 -4.1563
v  -2.1301 -6.8864 -4.1052
v  -1.9693 -8.1368 -3.7160
v  -2.0250 -6.8384 -3.6712
v  -2.0220 -5.7216 -3.6020
v  -1.7251 -6.8058 -3.1870
v  -1.7432 -5.7078 -3.1276
v  2.2089 -3.5703 -2.9126
v  2.1590 -4.4077 -2.9525
v  2.2509 -2.7853 -2.8988
v  1.9269 -3.6730 -2.4108
v  -1.2565 -6.7739 -2.6663
v  -1.3199 -5.7112 -2.6150
v  1.5323 -3.8138 -1.9422
v  -0.7744 -6.7675 -2.1417
v  -0.8003 -5.6951 -2.1680
v  0.9997 -3.9694 -1.6080
v  0.9736 -3.3900 -1.3113
v  -0.2031 -6.7696 -1.8578
v  -0.2329 -5.6865 -1.8611
v  0.3874 -6.7875 -1.8091
v  0.3630 -5.6512 -1.7079
v  0.8966 -6.7999 -2.0339
v  0.9481 -5.6192 -1.7953
v  0.9674 -4.6532 -1.6248
v  1.3934 -5.5820 -2.1280
v  1.4956 -4.5581 -1.9699
v  0.3062 -4.7489 -1.5616
v  1.7719 -5.5431 -2.5804
v  1.9289 -4.4794 -2.4235
v  2.0948 -5.5180 -3.0336
v  2.3830 -2.6802 -3.3967
v  2.3899 -1.7847 -3.3878
v  2.2313 -1.9300 -2.9244
v  2.2094 -0.8857 -3.3346
v  2.3698 -1.0669 -2.8590
v  2.1625 -0.0732 -3.2516
v  2.2185 -0.2996 -2.7734
v  2.2267 0.6020 -3.2168
v  2.0949 0.3544 -2.6902
v  -0.0648 -0.4789 -0.6108
v  0.1427 -1.0704 -0.8435
v  -0.1361 0.2062 -0.3608
v  -0.6508 0.0183 -0.1283
v  -0.5367 -0.7295 -0.3713
v  -0.3386 -1.3029 -0.7137
v  -0.0366 -1.7849 -1.1269
v  0.5331 -1.6610 -0.9294
v  -0.5800 -1.7036 -1.4819
v  0.1895 -2.2538 -1.4188
v  2.0870 0.1028 -3.8003
v  2.2053 -0.7111 -3.8564
v  1.9463 -0.5900 -4.3820
v  1.7801 0.1843 -4.3489
v  2.0958 -1.5174 -4.4807
v  1.5127 -0.5099 -4.9020
v  1.3759 0.2378 -4.8805
v  2.2759 -1.6557 -3.9126
v  2.3240 -2.5784 -3.9432
v  2.1324 -2.4602 -4.5658
v  0.8554 0.2716 -5.3486
v  1.6580 -6.8386 -2.7553
v  1.3821 -6.8283 -2.2893
v  1.2818 -8.1869 -2.4429
v  0.8301 -8.1446 -2.1664
v  0.7225 -9.3802 -2.2480
v  0.3270 -8.1100 -1.9850
v  0.2230 -9.3191 -2.1492
v  0.1294 -10.3623 -2.2146
v  -0.2859 -9.2697 -2.2328
v  -0.3640 -10.3174 -2.2501
v  -0.4079 -11.3786 -2.3362
v  -0.3821 -11.4164 -2.4262
v  -0.8496 -10.3015 -2.4394
v  -0.8354 -11.3368 -2.5485
v  -0.7985 -11.3800 -2.6172
v  -1.2229 -11.2876 -2.8677
v  -1.1598 -11.3293 -2.9006
v  -1.6696 -10.9704 -4.4793
v  -2.1467 -11.1458 -4.5856
v  -1.5749 -10.7871 -4.7861
v  -1.6624 -11.0260 -4.2737
v  -2.0939 -11.1527 -4.1840
v  -2.0774 -10.3645 -4.2131
v  -1.8335 -11.1895 -3.7044
v  -1.8616 -10.3645 -3.7980
v  -1.9187 -9.3671 -3.7746
v  -1.5989 -10.3491 -3.3106
v  -1.6204 -9.3210 -3.2920
v  -1.6731 -8.0838 -3.2314
v  -1.2281 -9.2737 -2.8086
v  -1.2494 -8.0498 -2.7321
v  -0.8196 -9.2588 -2.3651
v  -0.7445 -8.0504 -2.3162
v  -0.2403 -8.0820 -1.9772
v  -1.2632 -10.3191 -2.8198
v  -1.5466 -11.2328 -3.2690
v  -1.4879 -11.2692 -3.3181
v  -1.6777 -11.2062 -3.7556
v  -2.0893 -4.7332 -3.5267
v  -1.6595 -4.4704 -5.5103
v  -1.8106 -4.7756 -3.0482
v  -1.1177 0.0136 -0.4790
v  1.7904 0.5410 -1.6010
v  1.2535 0.5590 -1.4016
v  0.7869 0.5156 -1.0336
v  0.3553 0.3685 -0.6188
v  -1.4073 -4.8132 -2.5627
v  -0.8727 -4.8102 -2.1598
v  -0.3019 -4.7763 -1.7984
v  -0.8443 -20.2349 2.0499
v  -0.9049 -20.0656 2.2378
v  -1.2811 -20.0900 2.0200
v  -1.0559 -20.2694 1.8217
v  -0.7656 -20.3231 1.6257
v  -0.5946 -20.2701 1.9438
v  -0.5243 -20.0907 2.2353
v  -0.6841 -20.3493 1.1866
v  -0.5021 -20.3364 1.3830
v  -0.9469 -20.3376 1.2960
v  -1.0599 -20.3644 0.8747
v  -0.6553 -20.3765 0.8616
v  -0.3206 -20.3773 0.9992
v  -1.3787 -17.9173 -4.8012
v  -1.5267 -17.5804 -5.4252
v  -1.3013 -18.1429 -5.3223
v  -0.9385 -18.1726 -4.8638
v  -0.8061 -18.4416 -4.0348
v  -1.1563 -18.3623 -4.0056
v  -0.4227 -18.3104 -4.7597
v  -0.4300 -18.4885 -4.0386
v  -0.7544 -18.7180 -5.1301
v  -0.3273 -18.6844 -5.1067
v  -1.0571 -18.7300 -5.2689
v  -0.1681 -18.7685 -5.4771
v  -0.0134 -18.2032 -5.6751
v  -0.0037 -18.2535 -5.2585
v  -0.0915 -18.2740 -4.7763
v  -0.9905 -20.4021 -5.2193
v  -0.9602 -19.9138 -5.2338
v  -1.0763 -19.9205 -5.4120
v  -1.0866 -20.4089 -5.3814
v  -0.7967 -20.3861 -5.1706
v  -0.7565 -19.9107 -5.1434
v  -0.8251 -20.4634 -5.4014
v  -0.4879 -20.3388 -5.3671
v  -0.6016 -20.3870 -5.2373
v  -0.6505 -20.4636 -5.4364
v  -0.4854 -20.4037 -5.5190
v  -0.4030 -19.9358 -5.3623
v  -0.5366 -19.9258 -5.1881
v  -0.4031 -19.9422 -5.5708
v  -0.8195 -20.4602 -5.5718
v  -0.6791 -20.4719 -5.5640
v  -0.7622 -20.4034 -5.7585
v  -0.5728 -20.4078 -5.6796
v  -0.9436 -20.3403 -5.7276
v  -1.0694 -20.4092 -5.5904
v  -1.0543 -19.9208 -5.6188
v  -0.9120 -19.9124 -5.7685
v  -0.7108 -19.9251 -5.8178
v  -1.7161 -19.7166 -2.2146
v  -1.3732 -20.0018 -2.3929
v  -1.6402 -20.3916 -1.2799
v  -2.0455 -20.1654 -1.2442
v  -1.7030 -20.4310 -0.3428
v  -2.1029 -20.2773 -0.2994
v  -1.6460 -20.3697 0.3987
v  -2.0066 -20.2292 0.4850
v  -1.1652 -20.4424 -1.2694
v  -1.2054 -20.4611 -0.3625
v  -1.1537 -20.4090 0.3252
v  -1.5045 -20.3239 0.9870
v  -0.6761 -20.4745 -0.3338
v  -0.6553 -20.4231 0.3416
v  -0.1677 -20.4830 -0.2807
v  -0.2107 -20.4207 0.4478
v  0.2951 -20.4739 -0.1636
v  0.1887 -20.3936 0.6468
v  -0.0222 -20.3455 1.2528
v  -0.3009 -20.2981 1.6812
v  0.5352 -20.3415 0.8912
v  0.2201 -20.2366 1.5377
v  -0.1549 -20.1583 1.9879
v  -1.8221 -20.1793 1.1058
v  -1.3086 -20.2908 1.4580
v  -1.5811 -20.1266 1.6086
v  -0.2867 -16.6868 -6.6328
v  -0.3391 -17.4005 -6.4553
v  -0.6508 -17.3081 -6.5196
v  -0.6276 -16.5682 -6.7029
v  0.0127 -16.8562 -6.4304
v  -0.0542 -17.5202 -6.2638
v  -0.1363 -18.1506 -6.0028
v  -0.3647 -18.0936 -6.1910
v  0.2360 -17.0729 -6.0890
v  0.1232 -17.6557 -5.9112
v  0.3619 -17.3160 -5.5917
v  0.1521 -17.8010 -5.4325
v  0.3789 -17.6602 -4.9501
v  0.1554 -18.0373 -4.8564
v  0.4101 -18.1996 -4.2026
v  0.1247 -18.3848 -4.1414
v  -0.1391 -18.4682 -4.0763
v  -0.1294 -19.1122 -3.3333
v  -0.4454 -19.1230 -3.2678
v  0.1629 -19.0802 -3.3875
v  0.2047 -20.1621 -2.5087
v  -0.1668 -20.1571 -2.4948
v  0.4801 -18.9913 -3.3938
v  0.6053 -19.9357 -2.3829
v  0.7086 -20.3549 -1.1826
v  0.2747 -20.4785 -1.2436
v  0.7124 -20.4076 -0.0164
v  -0.1771 -20.4816 -1.2771
v  -0.6649 -20.4697 -1.2639
v  -0.5540 -20.1278 -2.4468
v  -0.9591 -20.0769 -2.4164
v  -0.7770 -19.0917 -3.2220
v  -1.1020 -19.0468 -3.1774
v  -1.4361 -18.9514 -3.0748
v  -1.4898 -18.1940 -3.9457
v  -1.6774 -17.4902 -4.7811
v  -1.7886 -16.9490 -5.4994
v  -1.5906 -16.6322 -6.0237
v  -1.4561 -17.3777 -5.9186
v  -1.2533 -18.0626 -5.7148
v  -1.3146 -16.5097 -6.4138
v  -1.2589 -17.2805 -6.2991
v  -1.1102 -18.0209 -6.0092
v  -1.0205 -18.7221 -5.7722
v  -1.1369 -18.7268 -5.5514
v  -0.9648 -17.2688 -6.4815
v  -0.8984 -18.0232 -6.1967
v  -0.8475 -18.7342 -5.9324
v  -0.8653 -19.3824 -5.8100
v  -1.0156 -19.3722 -5.6614
v  -0.6301 -18.0446 -6.2532
v  -0.6298 -18.7534 -6.0111
v  -0.6641 -19.3969 -5.8668
v  -0.4101 -18.7632 -5.9395
v  -0.4610 -19.4031 -5.8061
v  -0.5199 -19.9417 -5.7410
v  -0.3220 -19.3985 -5.6274
v  -0.2578 -18.7674 -5.7565
v  -0.2918 -19.3851 -5.3780
v  -0.4505 -19.3513 -5.1574
v  -0.7158 -19.3475 -5.1594
v  -0.9417 -19.3537 -5.2599
v  -1.0623 -19.3625 -5.4543
v  -0.9801 -16.5080 -6.6335
v  -1.9014 -18.2338 -1.3054
v  -1.8005 -18.2695 -0.9299
v  -1.7691 -17.6001 -1.4636
v  -1.8913 -17.7201 -1.8374
v  -1.9390 -18.0140 -2.1563
v  -2.0001 -18.5420 -1.3411
v  -1.8098 -18.8760 -0.5151
v  0.5730 -16.4323 -2.7188
v  0.5851 -17.5006 -2.2396
v  0.7967 -17.7939 -2.6021
v  0.6857 -16.6696 -3.4411
v  0.6829 -15.7383 -3.4571
v  0.5583 -15.6315 -2.8611
v  0.6479 -15.9759 -4.2104
v  0.7036 -15.4020 -4.0526
v  -1.5489 -14.8113 -4.3603
v  -1.3899 -14.3975 -4.9520
v  -1.5081 -14.9644 -4.9825
v  -1.7346 -15.6860 -4.1604
v  -1.7984 -15.6356 -3.3837
v  -1.6754 -14.9254 -3.6965
v  0.3307 -12.0777 -2.4688
v  0.6607 -12.0772 -2.7035
v  -0.0517 -12.0447 -2.3769
v  -0.1291 -12.7249 -2.3331
v  0.2293 -12.7731 -2.4368
v  -0.4402 -11.9934 -2.4287
v  -0.5060 -12.6688 -2.3732
v  -0.5959 -13.5126 -2.2225
v  -0.2119 -13.5822 -2.1890
v  -0.8161 -11.9280 -2.6049
v  -0.8641 -12.6117 -2.5340
v  -0.9483 -13.4544 -2.3902
v  -1.0581 -14.3782 -2.1630
v  -0.6751 -14.4539 -2.0381
v  -1.1653 -12.5739 -2.8181
v  -1.2274 -13.4202 -2.6777
v  -1.3846 -14.3220 -2.4262
v  -1.3883 -14.9746 -2.2330
v  -1.0653 -15.0332 -2.0114
v  -1.4131 -13.4099 -3.0697
v  -1.5623 -14.3049 -2.8470
v  -1.5883 -14.9570 -2.6256
v  -1.5972 -16.5969 -1.7510
v  -1.3165 -16.6151 -1.4843
v  -1.3481 -15.6122 -1.9970
v  -1.5778 -15.5942 -2.3397
v  -1.6843 -14.9521 -3.1169
v  -1.6890 -15.6067 -2.8129
v  -1.7930 -16.6361 -2.1545
v  -1.5653 -17.5751 -1.1230
v  -1.9013 -16.7660 -2.6214
v  -1.9165 -17.0654 -3.0710
v  -1.0105 -18.9758 -0.0198
v  -0.6943 -19.0197 0.0030
v  -0.6911 -18.5230 -0.3949
v  -0.9922 -18.4272 -0.3434
v  -1.2997 -18.3310 -0.4234
v  -1.3049 -18.8788 -0.1463
v  -1.5767 -18.2766 -0.6303
v  -1.3018 -17.5866 -0.8893
v  -1.0032 -17.6460 -0.7673
v  -1.0178 -16.6654 -1.2949
v  -0.6944 -17.7452 -0.7848
v  -0.6756 -16.7501 -1.2246
v  -0.6893 -15.7619 -1.7299
v  -1.0406 -15.6781 -1.8178
v  -0.3366 -16.8952 -1.3255
v  -0.3191 -15.8736 -1.7481
v  -0.3070 -15.2162 -1.9406
v  -0.6903 -15.1142 -1.9141
v  0.0488 -15.3410 -2.1131
v  0.0700 -14.6365 -2.2369
v  -0.2835 -14.5434 -2.0644
v  0.1436 -13.6490 -2.3330
v  0.3833 -14.7216 -2.5030
v  0.4305 -13.6975 -2.5937
v  0.5292 -12.7980 -2.6691
v  0.6254 -13.7073 -2.9518
v  0.7325 -12.7827 -3.0103
v  0.8888 -12.0421 -3.0403
v  0.8236 -12.7377 -3.4197
v  0.9974 -11.9770 -3.4230
v  1.0362 -11.8574 -3.8062
v  0.7032 -11.4206 -5.0471
v  0.3811 -11.3266 -5.3523
v  0.9222 -11.5345 -4.6408
v  0.7013 -12.3290 -4.6758
v  0.5017 -12.1804 -5.0229
v  1.0150 -11.6870 -4.2142
v  0.8246 -12.4938 -4.2800
v  0.6892 -13.4465 -4.3270
v  0.4994 -13.2534 -4.6938
v  0.8546 -12.6386 -3.8500
v  0.7260 -13.5979 -3.8618
v  0.7179 -14.6759 -3.9200
v  0.5626 -14.3851 -4.4058
v  0.7043 -13.6814 -3.3928
v  0.7067 -14.8307 -3.3970
v  0.6083 -14.7940 -2.8916
v  0.4946 -14.9656 -4.5314
v  0.2800 -14.6330 -4.8902
v  0.3149 -14.1119 -4.7480
v  0.0772 -14.3827 -5.1776
v  0.1124 -13.8874 -5.0439
v  0.2894 -13.0702 -4.9975
v  -0.0692 -13.7195 -5.2885
v  0.0698 -12.9161 -5.2424
v  0.2295 -12.0358 -5.2747
v  -0.1892 -12.8198 -5.3834
v  -0.0907 -11.9578 -5.3998
v  -0.0199 -11.2817 -5.4940
v  -0.4278 -11.9170 -5.4101
v  -0.4296 -11.2466 -5.5084
v  -0.8189 -11.2381 -5.3970
v  -1.1430 -11.8773 -2.8975
v  -1.3913 -11.8394 -3.2933
v  -1.3810 -12.5627 -3.2056
v  -1.5385 -11.7938 -3.7288
v  -1.5045 -12.5380 -3.6593
v  -1.4898 -13.3843 -3.5482
v  -1.6157 -14.2931 -3.3432
v  -1.5367 -12.4512 -4.1083
v  -1.4870 -13.2963 -4.0370
v  -1.5502 -14.2219 -3.8848
v  -1.4697 -12.3028 -4.5258
v  -1.4024 -13.1400 -4.4978
v  -1.4735 -14.0491 -4.4530
v  -1.2904 -12.1218 -4.8692
v  -1.2294 -12.9568 -4.8658
v  -1.2721 -13.7786 -4.9103
v  -1.0430 -11.9690 -5.1392
v  -1.0073 -12.8197 -5.1295
v  -1.0475 -13.6195 -5.1824
v  -1.1109 -14.1555 -5.2688
v  -0.7567 -12.7648 -5.3080
v  -0.8165 -13.5537 -5.3608
v  -0.8610 -14.0684 -5.4298
v  -0.6161 -14.0569 -5.5231
v  -0.6823 -14.5281 -5.6592
v  -0.9429 -14.5450 -5.5792
v  0.3220 -19.1476 -0.4126
v  0.2891 -18.6768 -0.8913
v  -0.0246 -18.6613 -0.6814
v  0.0168 -19.1137 -0.1950
v  -0.3613 -18.5984 -0.5062
v  -0.3293 -19.0600 -0.0486
v  -0.0367 -17.9622 -1.0966
v  -0.3747 -17.8529 -0.9025
v  0.0001 -17.0701 -1.5412
v  0.2956 -18.0790 -1.3344
v  0.3450 -17.2570 -1.8388
v  0.3420 -16.2056 -2.2487
v  0.0225 -16.0324 -1.9421
v  0.3519 -15.4748 -2.4148
v  0.5701 -18.2636 -1.5719
v  -0.4275 -14.5555 -5.6590
v  -0.3519 -14.0997 -5.5478
v  -0.1171 -14.2030 -5.4070
v  -0.1732 -14.6492 -5.5565
v  0.0594 -14.8236 -5.3582
v  -0.2903 -13.6205 -5.4390
v  -0.5574 -13.5597 -5.4630
v  -0.4781 -12.7700 -5.4019
v  -0.7497 -11.9136 -5.3155
v  -1.1575 -11.2690 -5.1603
v  -1.3899 -11.3859 -4.8490
v  -1.5286 -11.5738 -4.5030
v  -1.5779 -11.7188 -4.1287
v  0.8082 -18.5760 -1.7174
v  0.5177 -18.6934 -1.0905
v  0.6296 -19.1269 -0.8088
v  -1.5556 -18.7168 -0.3593
v  0.4635 -15.4512 -4.7076
v  0.2602 -15.0870 -5.0719
v  -1.2002 -14.6557 -5.3739
v  -0.0575 -19.3051 1.4708
v  -0.1049 -19.4737 1.8446
v  0.2390 -19.5969 1.5195
v  0.1679 -19.4313 1.3619
v  -1.6512 -19.2892 0.8534
v  -1.3953 -19.2421 1.1791
v  -1.2466 -19.1369 0.8202
v  -1.4830 -19.1726 0.6604
v  -1.4887 -19.0826 0.1890
v  -1.7919 -19.2399 0.3634
v  -1.1230 -19.0864 0.3924
v  -2.1616 -19.2026 -0.8300
v  -2.1245 -19.4221 -0.1722
v  -1.9171 -19.1846 -0.0886
v  -1.9931 -19.4973 0.4483
v  1.0445 -19.4543 -0.9255
v  1.0170 -19.0009 -1.9527
v  0.2895 -19.2133 0.2421
v  0.6015 -19.3639 0.1428
v  -2.0885 -17.4213 -3.4350
v  -2.0226 -18.3255 -2.4880
v  -2.1232 -18.8782 -1.6204
v  -1.8782 -17.8671 -3.7343
v  -1.7999 -18.6648 -2.8111
v  -2.0069 -19.2875 -1.9564
v  -2.2219 -19.6690 -1.0872
v  -2.2058 -19.8388 -0.2580
v  0.3207 -19.8926 1.6219
v  -0.0825 -19.7834 2.0521
v  -0.5149 -19.7071 2.1941
v  -0.4721 -19.3702 1.9569
v  -0.8404 -19.3102 1.9424
v  -0.9118 -19.6791 2.1890
v  -1.1906 -19.3592 1.7669
v  -1.2759 -19.6919 1.9716
v  -1.5241 -19.4548 1.4384
v  -1.6086 -19.7558 1.5801
v  -1.8610 -19.8257 1.0786
v  -2.0592 -19.8458 0.4756
v  -1.8022 -19.5161 0.9947
v  -1.0591 -19.1593 1.3833
v  -0.7053 -19.1279 1.4921
v  -0.5417 -19.0942 0.9451
v  -0.9013 -19.1039 0.9217
v  -0.3957 -19.1044 0.4230
v  -0.7690 -19.0997 0.4445
v  -1.1838 -15.2113 -6.0171
v  -1.4946 -15.3434 -5.6657
v  -0.8386 -15.1405 -6.2381
v  -0.9304 -15.8308 -6.5519
v  -1.3194 -15.8664 -6.3298
v  -0.4484 -15.1838 -6.2359
v  -0.5283 -15.8796 -6.5913
v  -0.1267 -15.3045 -6.0784
v  -0.1635 -15.9971 -6.4899
v  0.1492 -16.1661 -6.2786
v  0.8252 -18.6582 -3.2066
v  0.8585 -19.4859 -2.2060
v  0.9983 -19.9495 -1.0972
v  0.9835 -20.0818 0.0722
v  0.8988 -19.6608 0.1080
v  0.5991 -19.6570 0.9462
v  0.6985 -20.0045 0.9871
v  0.3819 -19.4090 0.8964
v  0.1151 -19.2460 0.9057
v  -0.0367 -19.1308 0.3454
v  -0.1940 -19.1380 0.9287
v  -0.3604 -19.1800 1.5109
v  0.9681 -18.1855 -2.9178
v  0.7879 -17.8087 -4.0890
v  0.8623 -17.2379 -3.8116
v  0.7168 -16.5282 -4.5611
v  0.6582 -17.1322 -4.8550
v  0.5582 -16.7023 -5.4806
v  0.5289 -16.0521 -5.1115
v  0.3894 -16.3979 -5.9468
v  0.3205 -15.7211 -5.5123
v  0.1196 -15.4769 -5.8322
v  -1.9810 -17.0236 -4.6280
v  -1.9252 -16.3696 -5.3660
v  -1.6329 -16.0201 -5.9196
v  -1.8173 -15.6677 -5.1628
v  -2.0685 -16.3563 -4.4204
# 726 vertices

vn 0.6572 -0.1896 0.7295
vn 0.6735 -0.1999 0.7117
vn 0.6096 -0.2167 0.7625
vn 0.6627 -0.0664 0.7459
vn 0.7030 0.1072 0.7030
vn 0.6230 -0.1312 0.7712
vn 0.5726 -0.2331 0.7860
vn -0.4040 -0.1900 0.8948
vn -0.2589 0.0839 0.9622
vn -0.2857 0.1171 0.9511
vn -0.4530 -0.1232 0.8830
vn -0.1351 -0.1244 0.9830
vn -0.2189 -0.0217 0.9755
vn -0.4491 -0.2415 0.8602
vn -0.0967 -0.1949 0.9760
vn -0.6156 -0.4116 0.6720
vn -0.6203 -0.2479 0.7441
vn -0.7203 -0.3208 0.6150
vn -0.3437 -0.1183 0.9316
vn -0.3143 -0.0507 0.9480
vn -0.4214 -0.0408 0.9060
vn 0.7397 0.0702 0.6693
vn 0.7195 0.1099 0.6857
vn 0.4298 -0.0275 0.9025
vn 0.3945 -0.0114 0.9188
vn 0.8034 0.0317 0.5946
vn 0.7729 -0.1038 0.6260
vn 0.6804 -0.0122 0.7327
vn 0.5959 -0.1305 0.7924
vn 0.7299 -0.0298 0.6829
vn 0.8235 -0.0038 0.5673
vn -0.8973 -0.2621 0.3553
vn -0.7822 -0.1896 0.5935
vn -0.9402 -0.2503 0.2310
vn -0.9751 -0.2056 0.0832
vn -0.9675 -0.1415 0.2096
vn -0.6896 -0.3792 0.6170
vn 0.5241 -0.2384 0.8176
vn 0.7730 -0.1629 0.6131
vn 0.8792 -0.0954 0.4669
vn -0.6654 -0.1701 0.7268
vn -0.8306 -0.1400 0.5389
vn -0.8891 -0.1133 -0.4435
vn -0.8679 -0.0580 -0.4933
vn -0.9290 -0.0591 -0.3653
vn -0.9808 -0.1289 -0.1463
vn -0.9963 -0.0851 0.0137
vn -0.9856 -0.1083 0.1300
vn -0.9828 -0.1606 0.0913
vn -0.9819 -0.1049 -0.1578
vn -0.9825 -0.0748 -0.1707
vn -0.9957 -0.0904 0.0208
vn -0.9138 -0.0210 -0.4057
vn -0.4913 -0.5516 0.6740
vn -0.5186 -0.6203 0.5885
vn -0.5897 -0.4700 0.6568
vn -0.6027 -0.4097 0.6848
vn -0.6838 -0.2568 0.6830
vn -0.7876 -0.1678 0.5928
vn -0.7250 -0.2842 0.6274
vn -0.6092 -0.4023 0.6833
vn -0.4773 -0.2831 0.8319
vn -0.4072 -0.3948 0.8236
vn -0.9133 -0.1888 0.3608
vn -0.8852 -0.2018 0.4191
vn -0.8124 -0.1881 0.5519
vn -0.9737 -0.1205 0.1932
vn -0.9183 -0.0992 0.3832
vn -0.7128 -0.0015 -0.7014
vn -0.4724 0.0797 -0.8778
vn -0.5004 0.1205 -0.8574
vn -0.7206 0.0420 -0.6920
vn -0.2425 0.1133 -0.9635
vn -0.2252 0.1625 -0.9607
vn -0.2085 0.1629 -0.9644
vn -0.5086 0.1373 -0.8500
vn 0.0472 0.1007 -0.9938
vn 0.1079 0.1533 -0.9823
vn 0.1368 0.1747 -0.9751
vn 0.1411 0.1545 -0.9779
vn -0.1951 0.1434 -0.9702
vn 0.4640 0.1457 -0.8738
vn 0.4610 0.1770 -0.8696
vn 0.4567 0.1553 -0.8759
vn 0.4655 0.1041 -0.8789
vn 0.1475 0.1221 -0.9815
vn 0.6988 0.1679 -0.6953
vn 0.7176 0.1247 -0.6852
vn 0.7401 0.0660 -0.6693
vn 0.7689 -0.0465 -0.6377
vn 0.5478 0.0019 -0.8366
vn 0.4963 0.0469 -0.8669
vn 0.7558 0.0042 -0.6548
vn 0.9183 0.0156 -0.3955
vn 0.9243 -0.0298 -0.3804
vn 0.9128 -0.0637 -0.4035
vn 0.8810 -0.0980 -0.4629
vn 0.8021 -0.0797 -0.5919
vn -0.9452 -0.0580 0.3212
vn 0.9826 -0.0694 -0.1721
vn 0.9753 -0.0813 -0.2053
vn 0.9486 -0.1308 -0.2882
vn 0.8813 -0.1062 -0.4605
vn 0.9920 -0.1003 0.0765
vn 0.9867 -0.1079 0.1219
vn 0.9805 -0.1282 0.1489
vn 0.9889 -0.0633 0.1345
vn 0.9515 -0.0427 -0.3047
vn 0.9101 -0.1389 0.3904
vn 0.9175 -0.1312 0.3755
vn 0.9104 -0.0774 0.4064
vn 0.8597 -0.0370 0.5094
vn 0.9743 0.0193 0.2246
vn 0.8606 -0.1404 0.4896
vn 0.8398 -0.1124 0.5312
vn 0.7949 -0.0803 0.6014
vn 0.7421 -0.2686 0.6142
vn 0.7832 -0.3407 0.5202
vn 0.6980 -0.1303 0.7041
vn 0.6765 -0.0973 0.7300
vn 0.6270 -0.2192 0.7475
vn 0.6985 -0.2779 0.6595
vn 0.8056 -0.4436 0.3928
vn 0.4292 -0.0977 0.8979
vn 0.3934 -0.1713 0.9033
vn 0.4363 -0.2190 0.8728
vn 0.0552 -0.1354 0.9893
vn 0.0561 -0.1810 0.9819
vn 0.5184 -0.8154 -0.2575
vn 0.8257 -0.5192 0.2205
vn 0.7528 -0.6556 0.0587
vn 0.2999 -0.9180 -0.2594
vn 0.7529 -0.6212 -0.2173
vn 0.9729 0.0725 -0.2194
vn 0.5700 -0.7640 -0.3023
vn 0.9359 0.0715 -0.3450
vn 0.9291 0.0034 -0.3698
vn 0.8598 0.0113 -0.5105
vn 0.8773 0.0153 -0.4798
vn 0.8569 -0.0509 -0.5130
vn 0.6477 0.0051 -0.7619
vn 0.6469 -0.0072 -0.7625
vn 0.6107 -0.0149 -0.7917
vn 0.2240 0.0206 -0.9744
vn 0.2121 0.0378 -0.9765
vn 0.1968 0.0519 -0.9791
vn -0.1080 0.0507 -0.9929
vn -0.1232 0.0675 -0.9901
vn -0.8753 0.0774 -0.4774
vn -0.7275 0.1160 -0.6762
vn -0.7183 0.0797 -0.6911
vn -0.8942 0.0446 -0.4455
vn 0.9965 -0.0435 0.0707
vn 0.9949 -0.0759 0.0669
vn 0.9822 -0.0542 -0.1798
vn 0.9802 -0.0210 -0.1969
vn -0.4539 0.0538 -0.8894
vn -0.4538 0.0771 -0.8877
vn -0.1480 0.0870 -0.9852
vn -0.4679 0.1045 -0.8776
vn -0.1739 0.1221 -0.9772
vn 0.1706 0.0797 -0.9821
vn -0.4870 0.1339 -0.8631
vn -0.7260 0.1053 -0.6795
vn -0.8594 0.0660 -0.5071
vn -0.8494 0.0076 -0.5277
vn -0.9371 0.0217 -0.3485
vn -0.9597 0.0118 -0.2808
vn -0.9972 -0.0694 0.0280
vn -0.9937 -0.0820 -0.0761
vn -0.9991 -0.0103 0.0411
vn -0.9756 0.0057 -0.2194
vn -0.9817 -0.0206 -0.1892
vn -0.9930 -0.0401 0.1108
vn -0.9975 -0.0420 0.0570
vn -0.9811 0.0061 -0.1934
vn -0.9033 0.0298 -0.4280
vn -0.8918 -0.0160 -0.4521
vn -0.8862 -0.0317 -0.4623
vn -0.9775 -0.0484 -0.2051
vn -0.7257 0.0095 -0.6880
vn -0.7619 0.0057 -0.6476
vn -0.7907 0.0351 -0.6112
vn -0.9085 0.0109 -0.4178
vn -0.4720 0.0423 -0.8806
vn -0.4830 0.0360 -0.8749
vn -0.5041 0.0322 -0.8630
vn -0.8011 0.0322 -0.5977
vn -0.1128 0.0317 -0.9931
vn -0.1369 0.0395 -0.9898
vn -0.1766 -0.0086 -0.9842
vn -0.5489 -0.0187 -0.8357
vn 0.2534 0.0244 -0.9671
vn 0.2964 -0.0204 -0.9548
vn 0.1292 -0.8650 -0.4849
vn -0.1475 -0.8580 -0.4920
vn 0.6487 -0.0338 -0.7603
vn 0.3629 -0.8575 -0.3647
vn -0.1779 -0.9725 0.1503
vn -0.1300 -0.9692 0.2093
vn 0.4816 -0.8157 -0.3205
vn -0.0345 -0.9974 -0.0640
vn 0.1427 -0.9760 -0.1647
vn 0.0599 -0.9606 0.2715
vn 0.1767 -0.9608 0.2138
vn -0.3382 -0.8592 -0.3838
vn 0.1268 -0.9902 0.0592
vn -0.4885 -0.8252 -0.2837
vn -0.8057 -0.0044 -0.5923
vn -0.6358 -0.6895 -0.3468
vn -0.9034 0.0271 -0.4279
vn -0.9159 0.0490 -0.3985
vn -0.9897 0.0525 -0.1334
vn -0.9837 0.0568 -0.1708
vn -0.9787 -0.0240 -0.2041
vn -0.9863 0.0122 0.1643
vn -0.9946 -0.0450 0.0931
vn -0.9933 -0.0504 0.1042
vn -0.9200 -0.0551 0.3881
vn -0.9157 -0.0465 0.3991
vn -0.9096 -0.0614 0.4109
vn -0.8008 -0.0496 0.5969
vn -0.8083 -0.0759 0.5839
vn 0.9223 -0.0561 0.3824
vn 0.9220 -0.0908 0.3763
vn 0.9230 -0.0099 0.3848
vn 0.8337 -0.0599 0.5489
vn -0.7219 -0.0565 0.6896
vn -0.7138 -0.0706 0.6968
vn 0.6977 -0.1049 0.7087
vn -0.5930 -0.0557 0.8032
vn -0.5784 -0.0462 0.8144
vn 0.3876 -0.1633 0.9073
vn 0.3599 -0.1286 0.9241
vn -0.2973 -0.0671 0.9524
vn -0.3592 -0.0599 0.9313
vn 0.1143 -0.1099 0.9873
vn -0.0073 -0.1236 0.9923
vn 0.4185 -0.1354 0.8981
vn 0.3884 -0.1594 0.9076
vn 0.3600 -0.1282 0.9241
vn 0.6770 -0.1568 0.7191
vn 0.6645 -0.1221 0.7373
vn -0.0780 -0.1553 0.9848
vn 0.8179 -0.1537 0.5544
vn 0.8194 -0.1095 0.5627
vn 0.9086 -0.1412 0.3930
vn 0.9980 -0.0004 0.0635
vn 0.9988 0.0492 -0.0053
vn 0.9296 -0.0031 0.3686
vn 0.9912 0.1099 -0.0743
vn 0.9771 -0.0057 0.2126
vn 0.9929 0.0877 -0.0807
vn 0.9977 0.0484 0.0469
vn 0.9924 0.0904 -0.0836
vn 0.9963 0.0786 0.0350
vn 0.5202 -0.2308 0.8223
vn 0.4782 -0.1694 0.8618
vn 0.4827 -0.2121 0.8497
vn -0.0896 -0.2930 0.9519
vn -0.0992 -0.4246 0.8999
vn -0.1764 -0.5565 0.8119
vn -0.2983 -0.5355 0.7901
vn 0.3957 -0.0881 0.9142
vn -0.4454 -0.5210 0.7281
vn -0.3269 -0.2464 0.9124
vn 0.9416 0.1354 -0.3083
vn 0.9634 0.1408 -0.2283
vn 0.8452 0.1759 -0.5047
vn 0.8446 0.1564 -0.5120
vn 0.8734 0.1304 -0.4691
vn 0.7029 0.1698 -0.6907
vn 0.7252 0.1053 -0.6804
vn 0.9716 0.0923 -0.2177
vn 0.9763 0.0183 -0.2158
vn 0.9002 0.0652 -0.4305
vn 0.4413 0.0809 -0.8937
vn 0.8500 -0.1263 0.5115
vn 0.6849 -0.1263 0.7176
vn 0.6898 -0.1465 0.7090
vn 0.4347 -0.1320 0.8909
vn 0.4463 -0.1219 0.8865
vn 0.1301 -0.1314 0.9828
vn 0.0686 -0.1083 0.9917
vn 0.0550 -0.0656 0.9963
vn -0.2387 -0.0862 0.9673
vn -0.2408 -0.0473 0.9694
vn -0.2731 -0.1371 0.9522
vn -0.2922 -0.1467 0.9450
vn -0.5358 -0.0454 0.8431
vn -0.5362 -0.1389 0.8326
vn -0.5455 -0.1238 0.8289
vn -0.7295 -0.1223 0.6730
vn -0.7447 -0.1654 0.6465
vn -0.4137 -0.8528 -0.3188
vn -0.8603 -0.4919 -0.1341
vn -0.0552 -0.9833 -0.1735
vn -0.6907 -0.7019 -0.1740
vn -0.8885 -0.3485 0.2985
vn -0.9548 0.0315 0.2957
vn -0.8605 -0.2426 0.4480
vn -0.8866 -0.0076 0.4624
vn -0.9133 -0.0395 0.4053
vn -0.8325 -0.0225 0.5536
vn -0.8187 -0.0429 0.5726
vn -0.8020 -0.0546 0.5948
vn -0.7407 -0.0261 0.6713
vn -0.7231 -0.0517 0.6888
vn -0.5491 -0.0389 0.8348
vn -0.5847 -0.0740 0.8079
vn -0.2695 -0.1179 0.9558
vn -0.7469 -0.0303 0.6642
vn -0.8283 -0.1154 0.5483
vn -0.8611 -0.2933 0.4153
vn -0.8445 -0.5344 0.0350
vn -0.9179 -0.1026 0.3834
vn -0.7104 0.0549 -0.7016
vn -0.8079 -0.1190 0.5772
vn -0.6177 -0.2983 0.7277
vn 0.6234 -0.2327 0.7465
vn 0.4789 -0.2777 0.8328
vn 0.6398 -0.1915 0.7443
vn 0.6203 -0.1854 0.7621
vn -0.6853 -0.0904 0.7226
vn -0.5891 -0.0950 0.8025
vn -0.4356 -0.1480 0.8879
vn -0.1198 -0.8871 0.4457
vn -0.2637 -0.2452 0.9329
vn -0.6249 -0.3522 0.6968
vn -0.2253 -0.9322 0.2833
vn -0.0299 -0.9921 0.1215
vn 0.0750 -0.9397 0.3338
vn 0.2234 -0.3613 0.9053
vn -0.0219 -0.9970 0.0741
vn 0.0072 -0.9948 0.1015
vn -0.0592 -0.9943 0.0883
vn -0.0518 -0.9947 0.0891
vn -0.0261 -0.9962 0.0830
vn 0.0035 -0.9959 0.0903
vn -0.7049 -0.6888 -0.1693
vn -0.8828 -0.4317 -0.1851
vn -0.8732 -0.4630 0.1522
vn -0.5021 -0.8520 0.1484
vn -0.2293 -0.8605 -0.4549
vn -0.4316 -0.7772 -0.4579
vn -0.0039 -0.9879 0.1549
vn -0.0954 -0.8728 -0.4787
vn -0.3266 -0.3230 0.8882
vn 0.4784 -0.4598 0.7481
vn -0.7804 -0.2572 0.5699
vn 0.9578 -0.2770 0.0767
vn 0.9187 -0.3468 -0.1889
vn 0.8738 -0.4761 0.0990
vn 0.5095 -0.8579 -0.0667
vn -0.5916 -0.2824 0.7552
vn -0.6327 0.0492 0.7729
vn -0.9750 0.0458 0.2175
vn -0.9177 -0.3200 0.2354
vn -0.0525 -0.3363 0.9403
vn -0.1086 -0.0116 0.9940
vn -0.0730 -0.9853 0.1547
vn 0.8806 -0.3202 0.3492
vn 0.4609 -0.4093 0.7874
vn 0.2400 -0.9542 0.1786
vn 0.8865 -0.4088 -0.2166
vn 0.9281 -0.1770 0.3275
vn 0.4911 -0.1124 0.8638
vn 0.9361 -0.1855 -0.2989
vn -0.1458 -0.9654 -0.2161
vn 0.1329 -0.9761 -0.1720
vn 0.0568 -0.3707 -0.9270
vn 0.5916 -0.3640 -0.7194
vn -0.4886 -0.2391 -0.8391
vn -0.8655 -0.3609 -0.3473
vn -0.9085 0.0126 -0.4176
vn -0.5017 -0.0398 -0.8641
vn 0.0598 -0.1137 -0.9917
vn -0.7199 -0.4666 -0.5138
vn -0.3642 -0.7302 -0.5781
vn -0.3345 -0.9062 -0.2587
vn -0.7748 -0.5629 -0.2878
vn -0.2390 -0.9710 -0.0005
vn -0.7693 -0.6388 0.0091
vn -0.2030 -0.9732 0.1081
vn -0.7645 -0.6116 0.2039
vn -0.0909 -0.9782 -0.1866
vn -0.0552 -0.9983 0.0194
vn -0.0477 -0.9953 0.0844
vn -0.2110 -0.9664 0.1466
vn -0.0277 -0.9992 0.0275
vn -0.0253 -0.9964 0.0812
vn -0.0038 -0.9994 0.0337
vn -0.0020 -0.9963 0.0864
vn 0.1042 -0.9941 0.0314
vn 0.0676 -0.9918 0.1081
vn 0.0891 -0.9832 0.1596
vn 0.1208 -0.9642 0.2360
vn 0.5263 -0.8066 0.2690
vn 0.5346 -0.7088 0.4602
vn 0.4691 -0.5794 0.6665
vn -0.7557 -0.5620 0.3363
vn -0.2370 -0.9508 0.1996
vn -0.7320 -0.4744 0.4890
vn 0.3669 -0.0623 -0.9282
vn 0.2908 -0.2995 -0.9087
vn -0.0392 -0.2856 -0.9575
vn 0.0231 -0.0294 -0.9993
vn 0.6640 -0.1138 -0.7390
vn 0.6378 -0.3121 -0.7041
vn 0.7252 -0.3569 -0.5889
vn 0.3561 -0.3560 -0.8640
vn 0.8554 -0.1959 -0.4794
vn 0.8642 -0.3380 -0.3728
vn 0.8988 -0.3160 -0.3038
vn 0.8865 -0.4212 -0.1918
vn 0.8127 -0.4585 -0.3596
vn 0.7165 -0.6403 -0.2769
vn 0.6566 -0.5555 -0.5102
vn 0.3215 -0.7632 -0.5605
vn 0.0731 -0.8512 -0.5198
vn -0.0711 -0.6768 -0.7327
vn -0.1297 -0.6787 -0.7229
vn 0.1812 -0.6703 -0.7196
vn 0.2065 -0.8293 -0.5193
vn -0.0653 -0.8469 -0.5277
vn 0.6062 -0.5478 -0.5766
vn 0.6486 -0.6263 -0.4325
vn 0.6218 -0.7638 -0.1731
vn 0.1871 -0.9699 -0.1556
vn 0.5502 -0.8332 0.0555
vn -0.0186 -0.9895 -0.1433
vn -0.0557 -0.9860 -0.1569
vn -0.1126 -0.8399 -0.5309
vn -0.1389 -0.8218 -0.5526
vn -0.1637 -0.6803 -0.7144
vn -0.3395 -0.6423 -0.6872
vn -0.6488 -0.5208 -0.5548
vn -0.6825 -0.6078 -0.4059
vn -0.8303 -0.4925 -0.2610
vn -0.9080 -0.2822 -0.3098
vn -0.8615 -0.1061 -0.4966
vn -0.8510 -0.3022 -0.4295
vn -0.8903 -0.3322 -0.3114
vn -0.6936 -0.0364 -0.7194
vn -0.6976 -0.2585 -0.6683
vn -0.7219 -0.3420 -0.6016
vn -0.7935 -0.2211 -0.5670
vn -0.9699 -0.2156 -0.1134
vn -0.3770 -0.2683 -0.8865
vn -0.4169 -0.3522 -0.8379
vn -0.4938 -0.2581 -0.8304
vn -0.5134 -0.1019 -0.8521
vn -0.8618 -0.0612 -0.5036
vn -0.0394 -0.3487 -0.9364
vn -0.0259 -0.2893 -0.9569
vn 0.0079 -0.1637 -0.9865
vn 0.4889 -0.2969 -0.8202
vn 0.5743 -0.1919 -0.7958
vn 0.6062 -0.1676 -0.7775
vn 0.9113 -0.1880 -0.3663
vn 0.8381 -0.2813 -0.4674
vn 0.9516 -0.1720 0.2545
vn 0.4733 -0.1096 0.8741
vn -0.1804 -0.0329 0.9830
vn -0.6646 -0.0261 0.7467
vn -0.9910 -0.0461 0.1257
vn -0.3550 -0.0175 -0.9347
vn -0.9536 0.2241 0.2011
vn -0.8499 0.3243 0.4152
vn -0.9009 0.2558 0.3506
vn -0.9817 0.1313 0.1376
vn -0.9826 0.1544 0.1031
vn -0.9383 0.2941 0.1822
vn -0.7664 0.5269 0.3675
vn 0.9539 0.1237 0.2736
vn 0.9150 0.2363 0.3269
vn 0.9438 0.2498 0.2162
vn 0.9820 0.1443 0.1222
vn 0.9965 -0.0159 0.0822
vn 0.9578 0.0138 0.2871
vn 0.9916 0.1034 -0.0779
vn 0.9892 -0.0071 -0.1465
vn -0.9789 0.1530 -0.1357
vn -0.9278 0.1781 -0.3278
vn -0.9287 0.3414 -0.1449
vn -0.9664 0.2539 0.0397
vn -0.9930 0.1180 -0.0053
vn -0.9879 0.1347 -0.0768
vn 0.4361 -0.0429 0.8989
vn 0.7229 -0.1080 0.6825
vn 0.0647 0.0175 0.9978
vn 0.1122 0.1034 0.9883
vn 0.4745 0.0223 0.8800
vn -0.2726 0.0645 0.9600
vn -0.2443 0.1514 0.9578
vn -0.1904 0.1966 0.9618
vn 0.1865 0.1289 0.9740
vn -0.5401 0.0744 0.8383
vn -0.5445 0.1572 0.8239
vn -0.5123 0.2308 0.8272
vn -0.4510 0.2414 0.8593
vn -0.1148 0.1960 0.9739
vn -0.7865 0.1234 0.6052
vn -0.7868 0.2178 0.5774
vn -0.7710 0.2380 0.5906
vn -0.7337 0.2014 0.6489
vn -0.3712 0.2382 0.8975
vn -0.9426 0.1558 0.2952
vn -0.9441 0.1864 0.2719
vn -0.9420 0.1306 0.3090
vn -0.8016 0.3123 0.5098
vn -0.5313 0.4108 0.7409
vn -0.6345 0.3141 0.7062
vn -0.8878 0.2252 0.4013
vn -0.9880 0.1212 0.0959
vn -0.9656 0.1765 0.1908
vn -0.9401 0.2117 0.2671
vn -0.7058 0.3920 0.5901
vn -0.9911 0.1139 0.0693
vn -0.9798 0.1631 0.1155
vn 0.0257 0.7886 0.6144
vn 0.1649 0.8314 0.5306
vn 0.2864 0.5156 0.8075
vn 0.0427 0.4974 0.8665
vn -0.3080 0.4802 0.8213
vn -0.2490 0.6846 0.6850
vn -0.6231 0.4328 0.6515
vn -0.4252 0.4676 0.7750
vn -0.0559 0.4721 0.8798
vn -0.2025 0.4552 0.8671
vn 0.2910 0.4176 0.8608
vn 0.1785 0.4212 0.8892
vn 0.0486 0.3798 0.9238
vn -0.2953 0.3731 0.8796
vn 0.4889 0.3409 0.8030
vn 0.4167 0.3110 0.8542
vn 0.3226 0.2044 0.9242
vn -0.0409 0.2338 0.9714
vn 0.6168 0.1425 0.7741
vn 0.5701 0.0765 0.8180
vn 0.2613 0.1348 0.9558
vn 0.5279 0.0530 0.8477
vn 0.7970 0.0246 0.6035
vn 0.7779 -0.0008 0.6283
vn 0.7559 -0.0605 0.6519
vn 0.9422 -0.0351 0.3331
vn 0.9282 -0.1266 0.3498
vn 0.8932 -0.1900 0.4075
vn 0.9809 -0.1604 0.1101
vn 0.9539 -0.2604 0.1493
vn 0.9551 -0.2836 -0.0853
vn 0.7468 -0.2399 -0.6202
vn 0.5073 -0.2500 -0.8247
vn 0.8693 -0.2512 -0.4258
vn 0.8607 -0.1928 -0.4712
vn 0.7334 -0.1932 -0.6518
vn 0.9277 -0.2722 -0.2553
vn 0.9478 -0.1766 -0.2653
vn 0.9368 -0.1072 -0.3330
vn 0.8269 -0.1387 -0.5450
vn 0.9840 -0.1699 -0.0537
vn 0.9947 -0.0729 -0.0729
vn 0.9935 -0.0143 -0.1130
vn 0.9247 -0.0274 -0.3798
vn 0.9929 -0.0511 0.1075
vn 0.9936 -0.0197 0.1112
vn 0.9461 -0.0129 0.3235
vn 0.9190 0.0446 -0.3916
vn 0.8681 0.0938 -0.4875
vn 0.8245 -0.0425 -0.5643
vn 0.8275 0.1198 -0.5485
vn 0.7900 -0.0473 -0.6113
vn 0.7465 -0.1486 -0.6486
vn 0.6734 -0.0114 -0.7392
vn 0.5871 -0.1026 -0.8030
vn 0.5150 -0.1583 -0.8425
vn 0.2667 -0.0221 -0.9635
vn 0.2021 -0.1057 -0.9736
vn 0.1848 -0.2584 -0.9482
vn -0.1279 -0.0771 -0.9888
vn -0.1292 -0.2703 -0.9541
vn -0.4404 -0.2447 -0.8638
vn -0.7627 0.0347 0.6459
vn -0.9029 -0.0357 0.4284
vn -0.9301 0.0593 0.3626
vn -0.9798 -0.0938 0.1769
vn -0.9888 -0.0090 0.1488
vn -0.9944 0.0761 0.0732
vn -0.9900 0.1356 0.0398
vn -0.9958 -0.0589 -0.0703
vn -0.9962 0.0179 -0.0856
vn -0.9906 0.0966 -0.0972
vn -0.9412 -0.0765 -0.3292
vn -0.9564 -0.0025 -0.2920
vn -0.9736 0.0896 -0.2099
vn -0.8177 -0.0765 -0.5706
vn -0.8455 0.0010 -0.5339
vn -0.8903 0.1076 -0.4425
vn -0.6454 -0.0790 -0.7598
vn -0.6789 0.0172 -0.7340
vn -0.7218 0.1221 -0.6813
vn -0.7444 0.2241 -0.6291
vn -0.4511 0.0359 -0.8918
vn -0.4905 0.1207 -0.8630
vn -0.4975 0.2365 -0.8346
vn -0.1728 0.2245 -0.9590
vn -0.1760 0.5690 -0.8033
vn -0.5542 0.5100 -0.6578
vn 0.4200 0.8311 0.3644
vn 0.5840 0.5293 0.6154
vn 0.4972 0.5479 0.6727
vn 0.3410 0.8565 0.3875
vn 0.4151 0.5381 0.7336
vn 0.2548 0.8603 0.4415
vn 0.5948 0.3775 0.7097
vn 0.4891 0.3795 0.7853
vn 0.6521 0.2947 0.6985
vn 0.7121 0.3747 0.5937
vn 0.8060 0.2569 0.5332
vn 0.8367 0.1699 0.5206
vn 0.6570 0.2313 0.7176
vn 0.8289 0.0704 0.5549
vn 0.8215 0.3718 0.4323
vn 0.2941 0.5155 -0.8049
vn 0.2976 0.1861 -0.9364
vn 0.6869 0.1347 -0.7141
vn 0.6586 0.3968 -0.6393
vn 0.8378 0.2985 -0.4571
vn 0.3239 0.0649 -0.9439
vn -0.1412 0.1106 -0.9838
vn -0.1271 0.0307 -0.9914
vn -0.4173 -0.0755 -0.9056
vn -0.6732 -0.1947 -0.7134
vn -0.8218 -0.1572 -0.5476
vn -0.9401 -0.1253 -0.3169
vn -0.9921 -0.1101 -0.0598
vn 0.8661 0.3905 0.3121
vn 0.7182 0.4786 0.5051
vn 0.7067 0.6232 0.3351
vn -0.5232 0.5339 0.6643
vn 0.9476 0.1635 -0.2744
vn 0.9082 0.2288 -0.3504
vn -0.7842 0.4117 -0.4643
vn 0.4540 0.8340 0.3136
vn 0.5217 0.6148 0.5915
vn 0.7395 0.4809 0.4711
vn 0.6104 0.7188 0.3328
vn -0.5702 0.7786 0.2620
vn -0.4370 0.8627 0.2546
vn -0.1753 0.9779 0.1140
vn -0.2794 0.9453 0.1685
vn -0.2931 0.8940 0.3390
vn -0.5827 0.7648 0.2748
vn -0.0447 0.9818 0.1844
vn -0.9611 0.2601 0.0925
vn -0.9263 0.3317 0.1787
vn -0.6431 0.7073 0.2935
vn -0.8866 0.3805 0.2630
vn 0.9626 0.2475 0.1099
vn 0.9968 0.0779 0.0188
vn 0.3609 0.9206 0.1490
vn 0.5934 0.7749 0.2177
vn -0.9994 0.0089 0.0343
vn -0.9953 -0.0551 -0.0797
vn -0.9929 0.1040 -0.0581
vn -0.8717 -0.3990 -0.2843
vn -0.8508 -0.3690 -0.3742
vn -0.9074 -0.2210 -0.3576
vn -0.9766 -0.1317 -0.1700
vn -0.9946 -0.0767 0.0694
vn 0.8085 -0.0259 0.5880
vn 0.5960 0.1257 0.7931
vn 0.2190 0.3019 0.9278
vn 0.2222 0.7304 0.6459
vn -0.1434 0.7776 0.6122
vn -0.2554 0.3555 0.8991
vn -0.4827 0.7137 0.5076
vn -0.6383 0.3020 0.7081
vn -0.6848 0.5911 0.4262
vn -0.8282 0.1999 0.5236
vn -0.9230 0.0885 0.3744
vn -0.9711 0.0034 0.2386
vn -0.8179 0.4592 0.3468
vn -0.2581 0.9403 0.2218
vn -0.0126 0.9709 0.2393
vn 0.0464 0.9976 0.0505
vn -0.0817 0.9951 0.0557
vn 0.0796 0.9950 0.0602
vn 0.0178 0.9956 0.0925
vn -0.6275 0.4957 -0.6004
vn -0.8257 0.4105 -0.3869
vn -0.2272 0.5604 -0.7965
vn -0.2986 0.3129 -0.9016
vn -0.6847 0.2699 -0.6770
vn 0.2647 0.5315 -0.8046
vn 0.1648 0.3044 -0.9382
vn 0.6195 0.4466 -0.6456
vn 0.5285 0.2610 -0.8078
vn 0.7772 0.1906 -0.5997
vn 0.8906 -0.3047 -0.3377
vn 0.9066 -0.3193 -0.2759
vn 0.9370 -0.3297 -0.1154
vn 0.9505 -0.2825 0.1297
vn 0.8964 0.3915 0.2077
vn 0.8280 0.4480 0.3373
vn 0.9088 -0.1470 0.3904
vn 0.6174 0.7449 0.2529
vn 0.4214 0.8886 0.1811
vn 0.2077 0.9748 0.0814
vn 0.2303 0.9671 0.1084
vn 0.2448 0.9283 0.2798
vn 0.9986 0.0524 -0.0101
vn 0.9113 -0.2521 -0.3256
vn 0.9955 0.0907 -0.0271
vn 0.9880 0.1159 -0.1025
vn 0.9513 -0.1553 -0.2661
vn 0.9615 -0.0317 -0.2730
vn 0.9600 0.1912 -0.2045
vn 0.9116 0.0940 -0.4001
vn 0.9135 0.2757 -0.2990
vn 0.8226 0.3540 -0.4449
vn -0.9483 -0.2398 -0.2077
vn -0.9620 0.0109 -0.2729
vn -0.8689 0.1878 -0.4579
vn -0.9392 0.3220 -0.1190
vn -0.9825 0.1779 0.0554
# 726 vertex normals

vt 0.1558 0.0460 0.0000
vt 0.1561 0.0411 0.0000
vt 0.1635 0.0436 0.0000
vt 0.1603 0.0508 0.0000
vt 0.1549 0.0576 0.0000
vt 0.1502 0.0503 0.0000
vt 0.1480 0.0419 0.0000
vt 0.1796 0.0931 0.0000
vt 0.1772 0.0851 0.0000
vt 0.1854 0.0835 0.0000
vt 0.1888 0.0878 0.0000
vt 0.1658 0.0916 0.0000
vt 0.1662 0.0837 0.0000
vt 0.1752 0.1015 0.0000
vt 0.1643 0.0998 0.0000
vt 0.1888 0.0980 0.0000
vt 0.1842 0.1052 0.0000
vt 0.1944 0.0919 0.0000
vt 0.1786 0.0761 0.0000
vt 0.1900 0.0760 0.0000
vt 0.1970 0.0787 0.0000
vt 0.1428 0.0718 0.0000
vt 0.1476 0.0658 0.0000
vt 0.1583 0.0703 0.0000
vt 0.1564 0.0805 0.0000
vt 0.1329 0.0703 0.0000
vt 0.1304 0.0586 0.0000
vt 0.1375 0.0613 0.0000
vt 0.1409 0.0541 0.0000
vt 0.1440 0.0845 0.0000
vt 0.1346 0.0822 0.0000
vt 0.2029 0.0949 0.0000
vt 0.2014 0.0804 0.0000
vt 0.2079 0.0830 0.0000
vt 0.0020 0.0726 0.0000
vt 0.0096 0.0721 0.0000
vt 0.0093 0.0848 0.0000
vt 0.0005 0.0852 0.0000
vt 0.1930 0.1035 0.0000
vt 0.1404 0.0435 0.0000
vt 0.1308 0.0484 0.0000
vt 0.1317 0.0397 0.0000
vt 0.1919 0.1086 0.0000
vt 0.2010 0.1071 0.0000
vt 0.0286 0.0370 0.0000
vt 0.0306 0.0450 0.0000
vt 0.0221 0.0487 0.0000
vt 0.0170 0.0411 0.0000
vt 0.0127 0.0503 0.0000
vt 0.0048 0.0495 0.0000
vt 0.0057 0.0404 0.0000
vt 0.0181 0.0529 0.0000
vt 0.0181 0.0591 0.0000
vt 0.0111 0.0599 0.0000
vt 0.0249 0.0571 0.0000
vt 0.1913 0.0609 0.0000
vt 0.1811 0.0603 0.0000
vt 0.1834 0.0524 0.0000
vt 0.1928 0.0529 0.0000
vt 0.1948 0.0439 0.0000
vt 0.2047 0.0438 0.0000
vt 0.2030 0.0522 0.0000
vt 0.2018 0.0606 0.0000
vt 0.2002 0.0706 0.0000
vt 0.1911 0.0689 0.0000
vt 0.2120 0.0520 0.0000
vt 0.2093 0.0604 0.0000
vt 0.2054 0.0710 0.0000
vt 0.2171 0.0623 0.0000
vt 0.2128 0.0724 0.0000
vt 0.0039 0.0606 0.0000
vt 0.2210 0.0540 0.0000
vt 0.2144 0.0444 0.0000
vt 0.0382 0.0424 0.0000
vt 0.0470 0.0404 0.0000
vt 0.0475 0.0515 0.0000
vt 0.0398 0.0529 0.0000
vt 0.0583 0.0390 0.0000
vt 0.0582 0.0505 0.0000
vt 0.0583 0.0643 0.0000
vt 0.0485 0.0648 0.0000
vt 0.0697 0.0384 0.0000
vt 0.0701 0.0503 0.0000
vt 0.0703 0.0639 0.0000
vt 0.0704 0.0778 0.0000
vt 0.0588 0.0784 0.0000
vt 0.0808 0.0501 0.0000
vt 0.0816 0.0637 0.0000
vt 0.0816 0.0773 0.0000
vt 0.0816 0.0896 0.0000
vt 0.0706 0.0904 0.0000
vt 0.0928 0.0639 0.0000
vt 0.0928 0.0774 0.0000
vt 0.0926 0.0892 0.0000
vt 0.0926 0.1192 0.0000
vt 0.0815 0.1192 0.0000
vt 0.0815 0.1024 0.0000
vt 0.0925 0.1017 0.0000
vt 0.1031 0.0894 0.0000
vt 0.1031 0.1014 0.0000
vt 0.1026 0.1188 0.0000
vt 0.1031 0.1394 0.0000
vt 0.0928 0.1394 0.0000
vt 0.0020 0.0972 0.0000
vt 0.0103 0.0970 0.0000
vt 0.1121 0.1180 0.0000
vt 0.1106 0.1385 0.0000
vt 0.1097 0.1586 0.0000
vt 0.1022 0.1587 0.0000
vt 0.1200 0.1177 0.0000
vt 0.1182 0.1381 0.0000
vt 0.1160 0.1578 0.0000
vt 0.1149 0.1761 0.0000
vt 0.1100 0.1764 0.0000
vt 0.1250 0.1373 0.0000
vt 0.1232 0.1574 0.0000
vt 0.1210 0.1759 0.0000
vt 0.1219 0.1903 0.0000
vt 0.1155 0.1901 0.0000
vt 0.1309 0.1573 0.0000
vt 0.1286 0.1760 0.0000
vt 0.1284 0.1901 0.0000
vt 0.1286 0.2033 0.0000
vt 0.1222 0.2025 0.0000
vt 0.1363 0.1757 0.0000
vt 0.1354 0.1898 0.0000
vt 0.1353 0.2038 0.0000
vt 0.1348 0.2054 0.0000
vt 0.1288 0.2051 0.0000
vt 0.1423 0.1896 0.0000
vt 0.1415 0.2046 0.0000
vt 0.1415 0.2059 0.0000
vt 0.1474 0.2055 0.0000
vt 0.1475 0.2067 0.0000
vt 0.1169 0.2067 0.0000
vt 0.1154 0.2009 0.0000
vt 0.1222 0.2049 0.0000
vt 0.1090 0.2090 0.0000
vt 0.1087 0.1999 0.0000
vt 0.1093 0.1904 0.0000
vt 0.1010 0.2001 0.0000
vt 0.1018 0.1901 0.0000
vt 0.1020 0.1765 0.0000
vt 0.0929 0.1898 0.0000
vt 0.0911 0.1765 0.0000
vt 0.0921 0.1587 0.0000
vt 0.0818 0.1767 0.0000
vt 0.0811 0.1581 0.0000
vt 0.0812 0.1389 0.0000
vt 0.0721 0.1583 0.0000
vt 0.0717 0.1385 0.0000
vt 0.0714 0.1192 0.0000
vt 0.0622 0.1387 0.0000
vt 0.0613 0.1198 0.0000
vt 0.0327 0.0808 0.0000
vt 0.0400 0.0797 0.0000
vt 0.0401 0.0934 0.0000
vt 0.0322 0.0943 0.0000
vt 0.1204 0.0904 0.0000
vt 0.1206 0.1017 0.0000
vt 0.1132 0.1015 0.0000
vt 0.1130 0.0900 0.0000
vt 0.0514 0.1208 0.0000
vt 0.0502 0.1059 0.0000
vt 0.0604 0.1046 0.0000
vt 0.0491 0.0924 0.0000
vt 0.0595 0.0914 0.0000
vt 0.0709 0.1034 0.0000
vt 0.0484 0.0790 0.0000
vt 0.0401 0.0655 0.0000
vt 0.0331 0.0671 0.0000
vt 0.0324 0.0547 0.0000
vt 0.0254 0.0689 0.0000
vt 0.0254 0.0822 0.0000
vt 0.0173 0.0835 0.0000
vt 0.0169 0.0711 0.0000
vt 0.0172 0.0962 0.0000
vt 0.0246 0.0953 0.0000
vt 0.0238 0.1226 0.0000
vt 0.0176 0.1226 0.0000
vt 0.0171 0.1091 0.0000
vt 0.0237 0.1086 0.0000
vt 0.0318 0.1080 0.0000
vt 0.0318 0.1223 0.0000
vt 0.0329 0.1407 0.0000
vt 0.0245 0.1410 0.0000
vt 0.0415 0.1217 0.0000
vt 0.0429 0.1401 0.0000
vt 0.0440 0.1590 0.0000
vt 0.0346 0.1595 0.0000
vt 0.0525 0.1393 0.0000
vt 0.0531 0.1587 0.0000
vt 0.0535 0.1773 0.0000
vt 0.0444 0.1777 0.0000
vt 0.0627 0.1584 0.0000
vt 0.0631 0.1767 0.0000
vt 0.0633 0.1902 0.0000
vt 0.0537 0.1905 0.0000
vt 0.0728 0.1767 0.0000
vt 0.0731 0.1897 0.0000
vt 0.0729 0.1988 0.0000
vt 0.0636 0.1987 0.0000
vt 0.0827 0.1901 0.0000
vt 0.0825 0.1994 0.0000
vt 0.0816 0.2104 0.0000
vt 0.0721 0.2111 0.0000
vt 0.0923 0.1996 0.0000
vt 0.0910 0.2102 0.0000
vt 0.1011 0.2095 0.0000
vt 0.0632 0.2115 0.0000
vt 0.0543 0.2111 0.0000
vt 0.0541 0.1998 0.0000
vt 0.0450 0.2113 0.0000
vt 0.0450 0.2004 0.0000
vt 0.0445 0.1911 0.0000
vt 0.0370 0.2008 0.0000
vt 0.0362 0.1912 0.0000
vt 0.0353 0.1778 0.0000
vt 0.0291 0.1911 0.0000
vt 0.0281 0.1783 0.0000
vt 0.0263 0.1599 0.0000
vt 0.0223 0.1782 0.0000
vt 0.0199 0.1601 0.0000
vt 0.0183 0.1407 0.0000
vt 0.0138 0.1600 0.0000
vt 0.0124 0.1405 0.0000
vt 0.0117 0.1225 0.0000
vt 0.0045 0.1406 0.0000
vt 0.0039 0.1224 0.0000
vt 0.1273 0.0913 0.0000
vt 0.1275 0.1024 0.0000
vt 0.1268 0.0806 0.0000
vt 0.1353 0.0925 0.0000
vt 0.1965 0.1312 0.0000
vt 0.1920 0.1483 0.0000
vt 0.1821 0.1449 0.0000
vt 0.1866 0.1277 0.0000
vt 0.1444 0.0945 0.0000
vt 0.1722 0.1420 0.0000
vt 0.1762 0.1245 0.0000
vt 0.1547 0.0975 0.0000
vt 0.1556 0.0893 0.0000
vt 0.1638 0.1399 0.0000
vt 0.1674 0.1224 0.0000
vt 0.1556 0.1385 0.0000
vt 0.1590 0.1208 0.0000
vt 0.1480 0.1378 0.0000
vt 0.1509 0.1195 0.0000
vt 0.1534 0.1066 0.0000
vt 0.1429 0.1183 0.0000
vt 0.1441 0.1046 0.0000
vt 0.1622 0.1088 0.0000
vt 0.1349 0.1177 0.0000
vt 0.1355 0.1033 0.0000
vt 0.1272 0.1176 0.0000
vt 0.1197 0.0797 0.0000
vt 0.1184 0.0672 0.0000
vt 0.1252 0.0685 0.0000
vt 0.1172 0.0541 0.0000
vt 0.1236 0.0562 0.0000
vt 0.1169 0.0422 0.0000
vt 0.1240 0.0452 0.0000
vt 0.1169 0.0330 0.0000
vt 0.1246 0.0363 0.0000
vt 0.1709 0.0467 0.0000
vt 0.1675 0.0547 0.0000
vt 0.1731 0.0383 0.0000
vt 0.1796 0.0407 0.0000
vt 0.1774 0.0492 0.0000
vt 0.1746 0.0568 0.0000
vt 0.1705 0.0667 0.0000
vt 0.1622 0.0644 0.0000
vt 0.1798 0.0686 0.0000
vt 0.1681 0.0742 0.0000
vt 0.1088 0.0398 0.0000
vt 0.1093 0.0523 0.0000
vt 0.1013 0.0509 0.0000
vt 0.0995 0.0390 0.0000
vt 0.1026 0.0647 0.0000
vt 0.0915 0.0502 0.0000
vt 0.0897 0.0385 0.0000
vt 0.1107 0.0661 0.0000
vt 0.1122 0.0790 0.0000
vt 0.1029 0.0780 0.0000
vt 0.0799 0.0383 0.0000
vt 0.1328 0.1377 0.0000
vt 0.1402 0.1375 0.0000
vt 0.1379 0.1572 0.0000
vt 0.1453 0.1575 0.0000
vt 0.1436 0.1756 0.0000
vt 0.1527 0.1580 0.0000
vt 0.1508 0.1758 0.0000
vt 0.1490 0.1898 0.0000
vt 0.1581 0.1765 0.0000
vt 0.1559 0.1905 0.0000
vt 0.1533 0.2059 0.0000
vt 0.1530 0.2073 0.0000
vt 0.1629 0.1919 0.0000
vt 0.1599 0.2070 0.0000
vt 0.1600 0.2082 0.0000
vt 0.1662 0.2083 0.0000
vt 0.1664 0.2092 0.0000
vt 0.0309 0.2093 0.0000
vt 0.0308 0.2010 0.0000
vt 0.0374 0.2108 0.0000
vt 0.0248 0.2079 0.0000
vt 0.0253 0.2027 0.0000
vt 0.0238 0.1919 0.0000
vt 0.0189 0.2043 0.0000
vt 0.0177 0.1930 0.0000
vt 0.0161 0.1785 0.0000
vt 0.0098 0.1939 0.0000
vt 0.0079 0.1789 0.0000
vt 0.0056 0.1597 0.0000
vt 0.1867 0.1662 0.0000
vt 0.1820 0.1841 0.0000
vt 0.1735 0.1806 0.0000
vt 0.1780 0.1630 0.0000
vt 0.1655 0.1781 0.0000
vt 0.1688 0.1607 0.0000
vt 0.1604 0.1590 0.0000
vt 0.1704 0.1945 0.0000
vt 0.1783 0.1978 0.0000
vt 0.1743 0.2094 0.0000
vt 0.1740 0.2101 0.0000
vt 0.0117 0.2068 0.0000
vt 0.0191 0.2065 0.0000
vt 0.0117 0.2076 0.0000
vt 0.0115 0.1093 0.0000
vt 0.0406 0.1071 0.0000
vt 0.0041 0.1094 0.0000
vt 0.1861 0.0430 0.0000
vt 0.1406 0.0333 0.0000
vt 0.1478 0.0333 0.0000
vt 0.1566 0.0339 0.0000
vt 0.1652 0.0358 0.0000
vt 0.1901 0.1165 0.0000
vt 0.1999 0.1192 0.0000
vt 0.1799 0.1135 0.0000
vt 0.1707 0.1110 0.0000
vt 0.5760 0.8759 0.0000
vt 0.5787 0.8741 0.0000
vt 0.5809 0.8801 0.0000
vt 0.5760 0.8806 0.0000
vt 0.5710 0.8801 0.0000
vt 0.5722 0.8749 0.0000
vt 0.5750 0.8710 0.0000
vt 0.5661 0.8839 0.0000
vt 0.5660 0.8802 0.0000
vt 0.5700 0.8852 0.0000
vt 0.5673 0.8906 0.0000
vt 0.5628 0.8871 0.0000
vt 0.5606 0.8826 0.0000
vt 0.4570 0.9816 0.0000
vt 0.4569 0.9716 0.0000
vt 0.4642 0.9750 0.0000
vt 0.4624 0.9823 0.0000
vt 0.5094 0.9582 0.0000
vt 0.5138 0.9468 0.0000
vt 0.5180 0.9495 0.0000
vt 0.5145 0.9617 0.0000
vt 0.5021 0.9530 0.0000
vt 0.5093 0.9435 0.0000
vt 0.5025 0.9621 0.0000
vt 0.4974 0.9587 0.0000
vt 0.4714 0.9795 0.0000
vt 0.4701 0.9840 0.0000
vt 0.4913 0.9615 0.0000
vt 0.4856 0.9544 0.0000
vt 0.4917 0.9525 0.0000
vt 0.4981 0.9497 0.0000
vt 0.4889 0.9935 0.0000
vt 0.4831 0.9892 0.0000
vt 0.4848 0.9868 0.0000
vt 0.4901 0.9920 0.0000
vt 0.4881 0.9958 0.0000
vt 0.4811 0.9915 0.0000
vt 0.4925 0.9939 0.0000
vt 0.4983 0.9861 0.0000
vt 0.5002 0.9868 0.0000
vt 0.4976 0.9882 0.0000
vt 0.4969 0.9864 0.0000
vt 0.4977 0.9784 0.0000
vt 0.5007 0.9787 0.0000
vt 0.4949 0.9788 0.0000
vt 0.4982 0.9905 0.0000
vt 0.4945 0.9907 0.0000
vt 0.4958 0.9887 0.0000
vt 0.4940 0.9880 0.0000
vt 0.4955 0.9870 0.0000
vt 0.4924 0.9894 0.0000
vt 0.4914 0.9906 0.0000
vt 0.4864 0.9847 0.0000
vt 0.4880 0.9823 0.0000
vt 0.4900 0.9807 0.0000
vt 0.5438 0.9299 0.0000
vt 0.5394 0.9264 0.0000
vt 0.5546 0.9184 0.0000
vt 0.5584 0.9222 0.0000
vt 0.5642 0.9096 0.0000
vt 0.5692 0.9125 0.0000
vt 0.5704 0.9012 0.0000
vt 0.5750 0.9029 0.0000
vt 0.5499 0.9135 0.0000
vt 0.5583 0.9052 0.0000
vt 0.5636 0.8975 0.0000
vt 0.5739 0.8937 0.0000
vt 0.5529 0.8997 0.0000
vt 0.5581 0.8926 0.0000
vt 0.5476 0.8945 0.0000
vt 0.5544 0.8874 0.0000
vt 0.5437 0.8887 0.0000
vt 0.5520 0.8814 0.0000
vt 0.5598 0.8769 0.0000
vt 0.5668 0.8750 0.0000
vt 0.5512 0.8749 0.0000
vt 0.5606 0.8714 0.0000
vt 0.5690 0.8704 0.0000
vt 0.5784 0.8946 0.0000
vt 0.5760 0.8868 0.0000
vt 0.5803 0.8873 0.0000
vt 0.4606 0.9431 0.0000
vt 0.4687 0.9505 0.0000
vt 0.4646 0.9523 0.0000
vt 0.4563 0.9452 0.0000
vt 0.4658 0.9421 0.0000
vt 0.4734 0.9489 0.0000
vt 0.4806 0.9559 0.0000
vt 0.4766 0.9577 0.0000
vt 0.4722 0.9421 0.0000
vt 0.4790 0.9482 0.0000
vt 0.4801 0.9417 0.0000
vt 0.4859 0.9476 0.0000
vt 0.4895 0.9428 0.0000
vt 0.4944 0.9462 0.0000
vt 0.4984 0.9389 0.0000
vt 0.5026 0.9397 0.0000
vt 0.5059 0.9418 0.0000
vt 0.5140 0.9308 0.0000
vt 0.5181 0.9327 0.0000
vt 0.5104 0.9290 0.0000
vt 0.5233 0.9127 0.0000
vt 0.5271 0.9159 0.0000
vt 0.5072 0.9272 0.0000
vt 0.5204 0.9093 0.0000
vt 0.5303 0.8949 0.0000
vt 0.5342 0.8992 0.0000
vt 0.5410 0.8830 0.0000
vt 0.5387 0.9041 0.0000
vt 0.5446 0.9085 0.0000
vt 0.5313 0.9192 0.0000
vt 0.5353 0.9226 0.0000
vt 0.5218 0.9352 0.0000
vt 0.5254 0.9378 0.0000
vt 0.5294 0.9401 0.0000
vt 0.5212 0.9522 0.0000
vt 0.5198 0.9673 0.0000
vt 0.4507 0.9779 0.0000
vt 0.4474 0.9663 0.0000
vt 0.4475 0.9582 0.0000
vt 0.4575 0.9644 0.0000
vt 0.4659 0.9699 0.0000
vt 0.4496 0.9521 0.0000
vt 0.4589 0.9584 0.0000
vt 0.4679 0.9656 0.0000
vt 0.4756 0.9725 0.0000
vt 0.4736 0.9754 0.0000
vt 0.4615 0.9550 0.0000
vt 0.4702 0.9624 0.0000
vt 0.4782 0.9697 0.0000
vt 0.4841 0.9768 0.0000
vt 0.4819 0.9790 0.0000
vt 0.4732 0.9596 0.0000
vt 0.4809 0.9672 0.0000
vt 0.4865 0.9748 0.0000
vt 0.4839 0.9650 0.0000
vt 0.4891 0.9730 0.0000
vt 0.4924 0.9797 0.0000
vt 0.4921 0.9715 0.0000
vt 0.4871 0.9633 0.0000
vt 0.4954 0.9705 0.0000
vt 0.4989 0.9696 0.0000
vt 0.5024 0.9703 0.0000
vt 0.5038 0.9790 0.0000
vt 0.4779 0.9841 0.0000
vt 0.4762 0.9869 0.0000
vt 0.4798 0.9815 0.0000
vt 0.4528 0.9482 0.0000
vt 0.5021 0.9882 0.0000
vt 0.6137 0.9188 0.0000
vt 0.6103 0.9149 0.0000
vt 0.6220 0.9147 0.0000
vt 0.6236 0.9203 0.0000
vt 0.6221 0.9266 0.0000
vt 0.6102 0.9219 0.0000
vt 0.6007 0.9157 0.0000
vt 0.6397 0.8681 0.0000
vt 0.6208 0.8699 0.0000
vt 0.6180 0.8641 0.0000
vt 0.6354 0.8569 0.0000
vt 0.6467 0.8589 0.0000
vt 0.6496 0.8683 0.0000
vt 0.6455 0.8486 0.0000
vt 0.6528 0.8510 0.0000
vt 0.6728 0.9309 0.0000
vt 0.6824 0.9366 0.0000
vt 0.6763 0.9391 0.0000
vt 0.6638 0.9331 0.0000
vt 0.6607 0.9226 0.0000
vt 0.6690 0.9218 0.0000
vt 0.7105 0.8727 0.0000
vt 0.7014 0.8740 0.0000
vt 0.7014 0.8683 0.0000
vt 0.7107 0.8666 0.0000
vt 0.7106 0.8782 0.0000
vt 0.7022 0.8795 0.0000
vt 0.6929 0.8812 0.0000
vt 0.6919 0.8758 0.0000
vt 0.7115 0.8832 0.0000
vt 0.7035 0.8850 0.0000
vt 0.6941 0.8867 0.0000
vt 0.6819 0.8888 0.0000
vt 0.6803 0.8834 0.0000
vt 0.7056 0.8906 0.0000
vt 0.6957 0.8922 0.0000
vt 0.6836 0.8942 0.0000
vt 0.6681 0.8966 0.0000
vt 0.6663 0.8912 0.0000
vt 0.6975 0.8980 0.0000
vt 0.6853 0.8997 0.0000
vt 0.6702 0.9020 0.0000
vt 0.6607 0.9026 0.0000
vt 0.6586 0.8977 0.0000
vt 0.6870 0.9057 0.0000
vt 0.6725 0.9079 0.0000
vt 0.6631 0.9083 0.0000
vt 0.6364 0.9094 0.0000
vt 0.6344 0.9045 0.0000
vt 0.6523 0.9034 0.0000
vt 0.6547 0.9088 0.0000
vt 0.6656 0.9147 0.0000
vt 0.6575 0.9153 0.0000
vt 0.6388 0.9152 0.0000
vt 0.6195 0.9098 0.0000
vt 0.6403 0.9218 0.0000
vt 0.6384 0.9297 0.0000
vt 0.5945 0.9050 0.0000
vt 0.5931 0.9014 0.0000
vt 0.6019 0.8994 0.0000
vt 0.6031 0.9035 0.0000
vt 0.6055 0.9072 0.0000
vt 0.5965 0.9086 0.0000
vt 0.6080 0.9109 0.0000
vt 0.6177 0.9055 0.0000
vt 0.6159 0.9018 0.0000
vt 0.6319 0.8999 0.0000
vt 0.6142 0.8978 0.0000
vt 0.6299 0.8953 0.0000
vt 0.6481 0.8934 0.0000
vt 0.6501 0.8988 0.0000
vt 0.6278 0.8904 0.0000
vt 0.6460 0.8880 0.0000
vt 0.6547 0.8870 0.0000
vt 0.6566 0.8923 0.0000
vt 0.6529 0.8813 0.0000
vt 0.6632 0.8801 0.0000
vt 0.6646 0.8857 0.0000
vt 0.6793 0.8779 0.0000
vt 0.6620 0.8742 0.0000
vt 0.6784 0.8724 0.0000
vt 0.6913 0.8703 0.0000
vt 0.6783 0.8666 0.0000
vt 0.6915 0.8645 0.0000
vt 0.7021 0.8625 0.0000
vt 0.6915 0.8583 0.0000
vt 0.7025 0.8568 0.0000
vt 0.7124 0.8554 0.0000
vt 0.7113 0.8611 0.0000
vt 0.7038 0.8512 0.0000
vt 0.7136 0.8511 0.0000
vt 0.7157 0.8311 0.0000
vt 0.7071 0.8319 0.0000
vt 0.7070 0.8256 0.0000
vt 0.7144 0.8239 0.0000
vt 0.7168 0.8390 0.0000
vt 0.7069 0.8385 0.0000
vt 0.6954 0.8393 0.0000
vt 0.6962 0.8333 0.0000
vt 0.7161 0.8453 0.0000
vt 0.7055 0.8450 0.0000
vt 0.6938 0.8455 0.0000
vt 0.6799 0.8463 0.0000
vt 0.6817 0.8401 0.0000
vt 0.6924 0.8519 0.0000
vt 0.6790 0.8532 0.0000
vt 0.6613 0.8535 0.0000
vt 0.6655 0.8456 0.0000
vt 0.6786 0.8601 0.0000
vt 0.6599 0.8607 0.0000
vt 0.6611 0.8681 0.0000
vt 0.6587 0.8438 0.0000
vt 0.6625 0.8380 0.0000
vt 0.6685 0.8393 0.0000
vt 0.6652 0.8328 0.0000
vt 0.6709 0.8340 0.0000
vt 0.6833 0.8346 0.0000
vt 0.6727 0.8295 0.0000
vt 0.6845 0.8296 0.0000
vt 0.6973 0.8275 0.0000
vt 0.6849 0.8253 0.0000
vt 0.6967 0.8227 0.0000
vt 0.7055 0.8199 0.0000
vt 0.6956 0.8180 0.0000
vt 0.7040 0.8143 0.0000
vt 0.7098 0.8109 0.0000
vt 0.7121 0.8173 0.0000
vt 0.7325 0.9406 0.0000
vt 0.7259 0.9407 0.0000
vt 0.7257 0.9349 0.0000
vt 0.7326 0.9341 0.0000
vt 0.7130 0.8896 0.0000
vt 0.7148 0.8953 0.0000
vt 0.7077 0.8967 0.0000
vt 0.7178 0.9021 0.0000
vt 0.7099 0.9030 0.0000
vt 0.6992 0.9042 0.0000
vt 0.7123 0.9094 0.0000
vt 0.7012 0.9108 0.0000
vt 0.6896 0.9127 0.0000
vt 0.6748 0.9144 0.0000
vt 0.7043 0.9167 0.0000
vt 0.6927 0.9191 0.0000
vt 0.6784 0.9212 0.0000
vt 0.7079 0.9220 0.0000
vt 0.6967 0.9249 0.0000
vt 0.6833 0.9284 0.0000
vt 0.7115 0.9268 0.0000
vt 0.7004 0.9297 0.0000
vt 0.6895 0.9339 0.0000
vt 0.7152 0.9315 0.0000
vt 0.7033 0.9340 0.0000
vt 0.6923 0.9375 0.0000
vt 0.6868 0.9404 0.0000
vt 0.7050 0.9380 0.0000
vt 0.6945 0.9410 0.0000
vt 0.6894 0.9436 0.0000
vt 0.6914 0.9468 0.0000
vt 0.6874 0.9492 0.0000
vt 0.6850 0.9462 0.0000
vt 0.5916 0.8868 0.0000
vt 0.6011 0.8843 0.0000
vt 0.6004 0.8894 0.0000
vt 0.5915 0.8919 0.0000
vt 0.6012 0.8947 0.0000
vt 0.5916 0.8967 0.0000
vt 0.6120 0.8875 0.0000
vt 0.6129 0.8931 0.0000
vt 0.6255 0.8845 0.0000
vt 0.6107 0.8817 0.0000
vt 0.6233 0.8776 0.0000
vt 0.6419 0.8757 0.0000
vt 0.6439 0.8822 0.0000
vt 0.6513 0.8752 0.0000
vt 0.6088 0.8763 0.0000
vt 0.6637 0.8237 0.0000
vt 0.6682 0.8248 0.0000
vt 0.6672 0.8286 0.0000
vt 0.6624 0.8275 0.0000
vt 0.6602 0.8318 0.0000
vt 0.6733 0.8258 0.0000
vt 0.6690 0.8213 0.0000
vt 0.6739 0.8218 0.0000
vt 0.6845 0.8212 0.0000
vt 0.6958 0.9447 0.0000
vt 0.7059 0.9420 0.0000
vt 0.7166 0.9360 0.0000
vt 0.7171 0.9408 0.0000
vt 0.7247 0.9291 0.0000
vt 0.7223 0.9241 0.0000
vt 0.7293 0.9211 0.0000
vt 0.7318 0.9267 0.0000
vt 0.7179 0.9195 0.0000
vt 0.7261 0.9168 0.0000
vt 0.7210 0.9082 0.0000
vt 0.7231 0.9127 0.0000
vt 0.7146 0.9147 0.0000
vt 0.6045 0.8723 0.0000
vt 0.6009 0.8802 0.0000
vt 0.5936 0.8806 0.0000
vt 0.6004 0.9118 0.0000
vt 0.6528 0.8421 0.0000
vt 0.6572 0.8367 0.0000
vt 0.6821 0.9431 0.0000
vt 0.6644 0.8202 0.0000
vt 0.9354 0.7703 0.0000
vt 0.9404 0.7723 0.0000
vt 0.9359 0.7759 0.0000
vt 0.9338 0.7733 0.0000
vt 0.9409 0.7491 0.0000
vt 0.9410 0.7540 0.0000
vt 0.9355 0.7521 0.0000
vt 0.9364 0.7481 0.0000
vt 0.9314 0.7422 0.0000
vt 0.9373 0.7425 0.0000
vt 0.9294 0.7487 0.0000
vt 0.9312 0.7277 0.0000
vt 0.9386 0.7235 0.0000
vt 0.9401 0.7337 0.0000
vt 0.9357 0.7353 0.0000
vt 0.9421 0.7421 0.0000
vt 0.9587 0.5172 0.0000
vt 0.9594 0.5325 0.0000
vt 0.9517 0.5321 0.0000
vt 0.9517 0.5170 0.0000
vt 0.9089 0.7721 0.0000
vt 0.9175 0.7700 0.0000
vt 0.9164 0.7754 0.0000
vt 0.9032 0.7774 0.0000
vt 0.9338 0.6769 0.0000
vt 0.9406 0.6757 0.0000
vt 0.9410 0.6951 0.0000
vt 0.9348 0.6963 0.0000
vt 0.9396 0.7104 0.0000
vt 0.9334 0.7125 0.0000
vt 0.9484 0.6771 0.0000
vt 0.9484 0.6944 0.0000
vt 0.9467 0.7084 0.0000
vt 0.9461 0.7217 0.0000
vt 0.9566 0.6934 0.0000
vt 0.9567 0.7087 0.0000
vt 0.9539 0.7219 0.0000
vt 0.9522 0.7330 0.0000
vt 0.9459 0.7326 0.0000
vt 0.9475 0.7796 0.0000
vt 0.9400 0.7841 0.0000
vt 0.9377 0.7796 0.0000
vt 0.9440 0.7755 0.0000
vt 0.9476 0.7715 0.0000
vt 0.9517 0.7746 0.0000
vt 0.9430 0.7688 0.0000
vt 0.9444 0.7650 0.0000
vt 0.9500 0.7674 0.0000
vt 0.9548 0.7702 0.0000
vt 0.9456 0.7612 0.0000
vt 0.9505 0.7624 0.0000
vt 0.9564 0.7634 0.0000
vt 0.9460 0.7554 0.0000
vt 0.9503 0.7558 0.0000
vt 0.9559 0.7559 0.0000
vt 0.9493 0.7491 0.0000
vt 0.9542 0.7489 0.0000
vt 0.9468 0.7418 0.0000
vt 0.9525 0.7416 0.0000
vt 0.9448 0.7488 0.0000
vt 0.9395 0.7585 0.0000
vt 0.9384 0.7630 0.0000
vt 0.9304 0.7609 0.0000
vt 0.9331 0.7566 0.0000
vt 0.9228 0.7595 0.0000
vt 0.9260 0.7538 0.0000
vt 0.9162 0.7590 0.0000
vt 0.9204 0.7521 0.0000
vt 0.9235 0.7461 0.0000
vt 0.9265 0.7396 0.0000
vt 0.9443 0.6264 0.0000
vt 0.9422 0.6324 0.0000
vt 0.9308 0.6268 0.0000
vt 0.9311 0.6225 0.0000
vt 0.9316 0.6187 0.0000
vt 0.9452 0.6212 0.0000
vt 0.9548 0.6227 0.0000
vt 0.9537 0.6286 0.0000
vt 0.9318 0.6150 0.0000
vt 0.9456 0.6163 0.0000
vt 0.9558 0.6174 0.0000
vt 0.9646 0.6185 0.0000
vt 0.9636 0.6241 0.0000
vt 0.9458 0.6114 0.0000
vt 0.9565 0.6122 0.0000
vt 0.9661 0.6130 0.0000
vt 0.9572 0.6068 0.0000
vt 0.9669 0.6069 0.0000
vt 0.9713 0.5516 0.0000
vt 0.9636 0.5505 0.0000
vt 0.9676 0.5326 0.0000
vt 0.9756 0.5307 0.0000
vt 0.9653 0.5167 0.0000
vt 0.9719 0.5146 0.0000
vt 0.9041 0.7923 0.0000
vt 0.9186 0.7871 0.0000
vt 0.9207 0.7929 0.0000
vt 0.9068 0.7989 0.0000
vt 0.9033 0.7851 0.0000
vt 0.9171 0.7820 0.0000
vt 0.9278 0.7785 0.0000
vt 0.9296 0.7832 0.0000
vt 0.9267 0.7739 0.0000
vt 0.9271 0.7696 0.0000
vt 0.9196 0.7648 0.0000
vt 0.9283 0.7653 0.0000
vt 0.9365 0.7666 0.0000
vt 0.9126 0.7661 0.0000
vt 0.9312 0.7878 0.0000
vt 0.9560 0.5503 0.0000
vt 0.9603 0.5672 0.0000
vt 0.9508 0.5692 0.0000
vt 0.9492 0.5494 0.0000
vt 0.9489 0.5832 0.0000
vt 0.9582 0.5824 0.0000
vt 0.9581 0.5930 0.0000
vt 0.9473 0.5930 0.0000
vt 0.9360 0.5924 0.0000
vt 0.9392 0.5823 0.0000
vt 0.9577 0.6008 0.0000
vt 0.9462 0.6004 0.0000
vt 0.9342 0.5999 0.0000
vt 0.9457 0.6064 0.0000
vt 0.9330 0.6060 0.0000
vt 0.9322 0.6109 0.0000
vt 0.9677 0.5998 0.0000
vt 0.9671 0.5911 0.0000
vt 0.9672 0.5802 0.0000
vt 0.9687 0.5668 0.0000
vt 0.9569 0.6784 0.0000
vt 0.9491 0.6596 0.0000
vt 0.9568 0.6621 0.0000
vt 0.9503 0.6457 0.0000
vt 0.9573 0.6480 0.0000
vt 0.9523 0.6358 0.0000
vt 0.9591 0.6382 0.0000
vt 0.9617 0.6303 0.0000
vt 0.9413 0.6409 0.0000
vt 0.9409 0.6540 0.0000
vt 0.9308 0.6342 0.0000
vt 0.9310 0.6489 0.0000
vt 0.9424 0.5686 0.0000
vt 0.9278 0.7323 0.0000
# 837 texture coords

o ProfesorSubLeftLeg
g ProfesorSubLeftLeg
usemtl rp_carla_rigged_001_mat
s off
f 1/1/1 2/2/2 3/3/3 4/4/4 
f 4/4/4 5/5/5 6/6/6 1/1/1 
f 1/1/1 6/6/6 7/7/7 2/2/2 
f 8/8/8 9/9/9 10/10/10 11/11/11 
f 12/12/12 13/13/13 9/9/9 8/8/8 
f 14/14/14 15/15/15 12/12/12 8/8/8 
f 8/8/8 16/16/16 17/17/17 14/14/14 
f 11/11/11 18/18/18 16/16/16 8/8/8 
f 10/10/10 9/9/9 19/19/19 20/20/20 
f 20/20/20 21/21/21 11/11/11 10/10/10 
f 22/22/22 23/23/23 24/24/24 25/25/25 
f 26/26/26 27/27/27 28/28/28 22/22/22 
f 28/28/28 29/29/29 23/23/23 22/22/22 
f 22/22/22 30/30/30 31/31/31 26/26/26 
f 32/32/32 18/18/18 33/33/33 34/34/34 
f 34/35/34 35/36/35 36/37/36 32/38/32 
f 37/39/37 16/16/16 18/18/18 32/32/32 
f 29/29/29 6/6/6 5/5/5 23/23/23 
f 38/40/38 7/7/7 6/6/6 29/29/29 
f 39/41/39 40/42/40 38/40/38 29/29/29 
f 29/29/29 28/28/28 27/27/27 39/41/39 
f 41/43/41 17/17/17 16/16/16 37/39/37 
f 37/39/37 32/32/32 42/44/42 41/43/41 
f 43/45/43 44/46/44 45/47/45 46/48/46 
f 47/49/47 48/50/48 49/51/49 46/48/46 
f 45/47/45 50/52/50 47/49/47 46/48/46 
f 50/52/50 51/53/51 52/54/52 47/49/47 
f 50/52/50 45/47/45 53/55/53 51/53/51 
f 54/56/54 55/57/55 56/58/56 57/59/57 
f 58/60/58 59/61/59 60/62/60 57/59/57 
f 57/59/57 60/62/60 61/63/61 54/56/54 
f 62/64/62 63/65/63 54/56/54 61/63/61 
f 60/62/60 64/66/64 65/67/65 61/63/61 
f 61/63/61 65/67/65 66/68/66 62/64/62 
f 33/33/33 21/21/21 62/64/62 66/68/66 
f 65/67/65 48/69/48 67/70/67 66/68/66 
f 66/68/66 67/70/67 34/34/34 33/33/33 
f 48/50/48 47/49/47 52/54/52 67/71/67 
f 67/71/67 52/54/52 35/36/35 34/35/34 
f 64/66/64 49/72/49 48/69/48 65/67/65 
f 64/66/64 60/62/60 59/61/59 68/73/68 
f 49/72/49 64/66/64 68/73/68 
f 69/74/69 44/46/44 43/45/43 
f 70/75/70 71/76/71 72/77/72 69/74/69 
f 73/78/73 74/79/74 71/76/71 70/75/70 
f 74/79/74 75/80/75 76/81/76 71/76/71 
f 74/79/74 73/78/73 77/82/77 78/83/78 
f 78/83/78 79/84/79 75/80/75 74/79/74 
f 79/84/79 80/85/80 81/86/81 75/80/75 
f 79/84/79 78/83/78 82/87/82 83/88/83 
f 83/88/83 84/89/84 80/85/80 79/84/79 
f 85/90/85 86/91/86 80/85/80 84/89/84 
f 84/89/84 83/88/83 87/92/87 88/93/88 
f 84/89/84 88/93/88 89/94/89 85/90/85 
f 90/95/90 91/96/91 92/97/92 93/98/93 
f 89/94/89 94/99/94 95/100/95 93/98/93 
f 93/98/93 95/100/95 96/101/96 90/95/90 
f 97/102/97 98/103/98 90/95/90 96/101/96 
f 42/104/42 32/38/32 36/37/36 99/105/99 
f 96/101/96 100/106/100 101/107/101 97/102/97 
f 102/108/102 103/109/103 97/102/97 101/107/101 
f 100/106/100 104/110/104 105/111/105 101/107/101 
f 101/107/101 105/111/105 106/112/106 102/108/102 
f 107/113/107 108/114/108 102/108/102 106/112/106 
f 105/111/105 109/115/109 110/116/110 106/112/106 
f 106/112/106 110/116/110 111/117/111 107/113/107 
f 111/117/111 112/118/112 113/119/113 107/113/107 
f 110/116/110 114/120/114 115/121/115 111/117/111 
f 115/121/115 116/122/116 112/118/112 111/117/111 
f 116/122/116 117/123/117 118/124/118 112/118/112 
f 115/121/115 119/125/119 120/126/120 116/122/116 
f 120/126/120 121/127/121 117/123/117 116/122/116 
f 122/128/122 123/129/123 117/123/117 121/127/121 
f 121/127/121 120/126/120 124/130/124 125/131/125 
f 121/127/121 125/131/125 126/132/126 122/128/122 
f 125/131/125 127/133/127 128/134/128 126/132/126 
f 129/135/129 130/136/130 118/124/118 131/137/131 
f 131/137/131 118/124/118 117/123/117 123/129/123 
f 130/136/130 129/135/129 132/138/132 133/139/133 
f 133/139/133 134/140/134 113/119/113 130/136/130 
f 130/136/130 113/119/113 112/118/112 118/124/118 
f 134/140/134 133/139/133 135/141/135 136/142/136 
f 136/142/136 137/143/137 108/114/108 134/140/134 
f 108/114/108 107/113/107 113/119/113 134/140/134 
f 137/143/137 136/142/136 138/144/138 139/145/139 
f 137/143/137 139/145/139 140/146/140 103/109/103 
f 103/109/103 102/108/102 108/114/108 137/143/137 
f 139/145/139 141/147/141 142/148/142 140/146/140 
f 140/146/140 142/148/142 143/149/143 98/103/98 
f 98/103/98 97/102/97 103/109/103 140/146/140 
f 142/148/142 144/150/144 145/151/145 143/149/143 
f 143/149/143 145/151/145 146/152/146 91/96/91 
f 91/96/91 90/95/90 98/103/98 143/149/143 
f 145/151/145 147/153/147 148/154/148 146/152/146 
f 149/155/149 150/156/150 151/157/151 152/158/152 
f 153/159/153 154/160/154 155/161/155 156/162/156 
f 148/154/148 157/163/157 158/164/158 159/165/159 
f 159/165/159 158/164/158 160/166/160 161/167/161 
f 161/167/161 86/91/86 162/168/162 159/165/159 
f 160/166/160 151/157/151 150/156/150 163/169/163 
f 163/169/163 150/156/150 164/170/164 76/81/76 
f 76/81/76 75/80/75 81/86/81 163/169/163 
f 150/156/150 149/155/149 165/171/165 164/170/164 
f 164/170/164 165/171/165 166/172/166 72/77/72 
f 72/77/72 71/76/71 76/81/76 164/170/164 
f 165/171/165 167/173/167 53/55/53 166/172/166 
f 166/172/166 53/55/53 45/47/45 44/46/44 
f 44/46/44 69/74/69 72/77/72 166/172/166 
f 168/174/168 169/175/169 170/176/170 167/173/167 
f 167/173/167 170/176/170 51/53/51 53/55/53 
f 167/173/167 165/171/165 149/155/149 168/174/168 
f 169/175/169 36/37/36 35/36/35 170/176/170 
f 170/176/170 35/36/35 52/54/52 51/53/51 
f 171/177/171 99/105/99 36/37/36 169/175/169 
f 169/175/169 168/174/168 172/178/172 171/177/171 
f 173/179/173 174/180/174 175/181/175 176/182/176 
f 172/178/172 152/158/152 177/183/177 176/182/176 
f 176/182/176 177/183/177 178/184/178 173/179/173 
f 179/185/179 180/186/180 173/179/173 178/184/178 
f 156/162/156 155/161/155 95/100/95 94/99/94 
f 181/187/181 182/188/182 179/185/179 178/184/178 
f 182/188/182 183/189/183 184/190/184 179/185/179 
f 181/187/181 157/163/157 185/191/185 182/188/182 
f 182/188/182 185/191/185 186/192/186 183/189/183 
f 187/193/187 188/194/188 183/189/183 186/192/186 
f 185/191/185 147/153/147 189/195/189 186/192/186 
f 186/192/186 189/195/189 190/196/190 187/193/187 
f 191/197/191 192/198/192 187/193/187 190/196/190 
f 189/195/189 144/150/144 193/199/193 190/196/190 
f 190/196/190 193/199/193 194/200/194 191/197/191 
f 195/201/195 196/202/196 191/197/191 194/200/194 
f 193/199/193 141/147/141 197/203/197 194/200/194 
f 197/203/197 198/204/198 195/201/195 194/200/194 
f 198/204/198 199/205/199 200/206/200 195/201/195 
f 198/204/198 197/203/197 138/144/138 201/207/201 
f 201/207/201 202/208/202 199/205/199 198/204/198 
f 201/207/201 135/141/135 203/209/203 202/208/202 
f 204/210/204 205/211/205 206/212/206 196/202/196 
f 196/202/196 195/201/195 200/206/200 204/210/204 
f 205/211/205 207/213/207 208/214/208 206/212/206 
f 206/212/206 208/214/208 209/215/209 192/198/192 
f 192/198/192 191/197/191 196/202/196 206/212/206 
f 208/214/208 210/216/210 211/217/211 209/215/209 
f 211/217/211 212/218/212 188/194/188 209/215/209 
f 188/194/188 187/193/187 192/198/192 209/215/209 
f 212/218/212 211/217/211 213/219/213 214/220/214 
f 214/220/214 215/221/215 184/190/184 212/218/212 
f 212/218/212 184/190/184 183/189/183 188/194/188 
f 215/221/215 214/220/214 216/222/216 217/223/217 
f 217/223/217 218/224/218 180/186/180 215/221/215 
f 215/221/215 180/186/180 179/185/179 184/190/184 
f 218/224/218 217/223/217 219/225/219 220/226/220 
f 220/226/220 221/227/221 174/180/174 218/224/218 
f 218/224/218 174/180/174 173/179/173 180/186/180 
f 221/227/221 220/226/220 222/228/222 223/229/223 
f 224/230/224 225/231/225 154/160/154 153/159/153 
f 224/230/224 226/232/226 31/31/31 227/233/227 
f 223/234/223 222/235/222 228/236/228 229/237/229 
f 227/233/227 31/31/31 30/30/30 230/238/230 
f 228/236/228 231/239/231 232/240/232 229/237/229 
f 233/241/233 234/242/234 12/12/12 15/15/15 
f 231/239/231 235/243/235 236/244/236 232/240/232 
f 230/238/230 30/30/30 234/242/234 233/241/233 
f 235/243/235 237/245/237 238/246/238 236/244/236 
f 168/174/168 149/155/149 152/158/152 172/178/172 
f 237/245/237 239/247/239 240/248/240 238/246/238 
f 171/177/171 172/178/172 176/182/176 175/181/175 
f 241/249/241 240/248/240 242/250/242 243/251/243 
f 243/251/243 230/238/230 233/241/233 241/249/241 
f 241/249/241 233/241/233 15/15/15 244/252/244 
f 30/30/30 22/22/22 25/25/25 234/242/234 
f 234/242/234 25/25/25 13/13/13 12/12/12 
f 243/251/243 242/250/242 245/253/245 246/254/246 
f 246/254/246 227/233/227 230/238/230 243/251/243 
f 246/254/246 245/253/245 247/255/247 225/231/225 
f 225/231/225 224/230/224 227/233/227 246/254/246 
f 226/232/226 224/230/224 153/159/153 248/256/248 
f 248/256/248 249/257/249 250/258/250 226/232/226 
f 226/232/226 250/258/250 26/26/26 31/31/31 
f 249/257/249 251/259/251 252/260/252 250/258/250 
f 250/258/250 252/260/252 27/27/27 26/26/26 
f 251/259/251 253/261/253 254/262/254 252/260/252 
f 252/260/252 254/262/254 39/41/39 27/27/27 
f 253/261/253 255/263/255 256/264/256 254/262/254 
f 254/262/254 256/264/256 40/42/40 39/41/39 
f 257/265/257 258/266/258 4/4/4 3/3/3 
f 257/265/257 259/267/259 260/268/260 261/269/261 
f 257/265/257 261/269/261 262/270/262 258/266/258 
f 263/271/263 264/272/264 258/266/258 262/270/262 
f 262/270/262 261/269/261 56/58/56 55/57/55 
f 55/57/55 265/273/265 263/271/263 262/270/262 
f 19/19/19 266/274/266 263/271/263 265/273/265 
f 55/57/55 54/56/54 63/65/63 265/273/265 
f 265/273/265 63/65/63 20/20/20 19/19/19 
f 266/274/266 13/13/13 25/25/25 24/24/24 
f 266/274/266 24/24/24 264/272/264 263/271/263 
f 266/274/266 19/19/19 9/9/9 13/13/13 
f 264/272/264 24/24/24 23/23/23 5/5/5 
f 5/5/5 4/4/4 258/266/258 264/272/264 
f 267/275/267 268/276/268 269/277/269 270/278/270 
f 255/263/255 253/261/253 267/275/267 
f 253/261/253 251/259/251 268/276/268 267/275/267 
f 269/277/269 271/279/271 87/92/87 272/280/272 
f 272/280/272 273/281/273 270/278/270 269/277/269 
f 268/276/268 274/282/274 271/279/271 269/277/269 
f 274/282/274 275/283/275 276/284/276 271/279/271 
f 274/282/274 268/276/268 251/259/251 249/257/249 
f 249/257/249 248/256/248 275/283/275 274/282/274 
f 275/283/275 156/162/156 94/99/94 276/284/276 
f 248/256/248 153/159/153 156/162/156 275/283/275 
f 272/280/272 87/92/87 83/88/83 82/87/82 
f 82/87/82 277/285/277 273/281/273 272/280/272 
f 277/285/277 82/87/82 78/83/78 77/82/77 
f 271/279/271 276/284/276 88/93/88 87/92/87 
f 104/110/104 100/106/100 155/161/155 154/160/154 
f 225/231/225 247/255/247 104/110/104 154/160/154 
f 109/115/109 105/111/105 104/110/104 247/255/247 
f 247/255/247 245/253/245 278/286/278 109/115/109 
f 114/120/114 110/116/110 109/115/109 278/286/278 
f 245/253/245 242/250/242 279/287/279 278/286/278 
f 278/286/278 279/287/279 280/288/280 114/120/114 
f 119/125/119 115/121/115 114/120/114 280/288/280 
f 279/287/279 239/247/239 281/289/281 280/288/280 
f 280/288/280 281/289/281 282/290/282 119/125/119 
f 124/130/124 120/126/120 119/125/119 282/290/282 
f 281/289/281 283/291/283 284/292/284 282/290/282 
f 282/290/282 284/292/284 285/293/285 124/130/124 
f 285/293/285 127/133/127 125/131/125 124/130/124 
f 284/292/284 286/294/286 287/295/287 285/293/285 
f 287/295/287 288/296/288 127/133/127 285/293/285 
f 289/297/289 128/134/128 127/133/127 288/296/288 
f 287/295/287 290/298/290 291/299/291 288/296/288 
f 291/299/291 292/300/292 289/297/289 288/296/288 
f 291/299/291 293/301/293 294/302/294 292/300/292 
f 295/303/295 296/304/296 210/216/210 297/305/297 
f 210/216/210 208/214/208 207/213/207 297/305/297 
f 295/303/295 298/306/298 299/307/299 296/304/296 
f 296/304/296 299/307/299 300/308/300 213/219/213 
f 213/219/213 211/217/211 210/216/210 296/304/296 
f 299/307/299 301/309/301 302/310/302 300/308/300 
f 302/310/302 303/311/303 216/222/216 300/308/300 
f 300/308/300 216/222/216 214/220/214 213/219/213 
f 303/311/303 302/310/302 304/312/304 305/313/305 
f 305/313/305 306/314/306 219/225/219 303/311/303 
f 303/311/303 219/225/219 217/223/217 216/222/216 
f 306/315/306 305/316/305 307/317/307 308/318/308 
f 308/318/308 228/236/228 222/235/222 306/315/306 
f 306/314/306 222/228/222 220/226/220 219/225/219 
f 308/318/308 307/317/307 309/319/309 310/320/310 
f 310/320/310 231/239/231 228/236/228 308/318/308 
f 310/320/310 309/319/309 286/294/286 311/321/311 
f 311/321/311 235/243/235 231/239/231 310/320/310 
f 286/294/286 284/292/284 283/291/283 311/321/311 
f 283/291/283 237/245/237 235/243/235 311/321/311 
f 309/319/309 290/298/290 287/295/287 286/294/286 
f 307/317/307 312/322/312 290/298/290 309/319/309 
f 293/301/293 291/299/291 290/298/290 312/322/312 
f 312/322/312 307/317/307 305/316/305 304/323/304 
f 312/322/312 304/323/304 313/324/313 293/301/293 
f 314/325/314 294/302/294 293/301/293 313/324/313 
f 304/312/304 302/310/302 301/309/301 313/326/313 
f 313/326/313 301/309/301 315/327/315 314/328/314 
f 315/327/315 301/309/301 299/307/299 298/306/298 
f 283/291/283 281/289/281 239/247/239 237/245/237 
f 242/250/242 240/248/240 239/247/239 279/287/279 
f 135/141/135 133/139/133 132/138/132 203/209/203 
f 201/207/201 138/144/138 136/142/136 135/141/135 
f 197/203/197 141/147/141 139/145/139 138/144/138 
f 144/150/144 142/148/142 141/147/141 193/199/193 
f 147/153/147 145/151/145 144/150/144 189/195/189 
f 157/163/157 148/154/148 147/153/147 185/191/185 
f 175/181/175 316/329/316 99/105/99 171/177/171 
f 152/158/152 151/157/151 317/330/317 177/183/177 
f 316/329/316 318/331/318 42/104/42 99/105/99 
f 63/65/63 62/64/62 21/21/21 20/20/20 
f 18/18/18 11/11/11 21/21/21 33/33/33 
f 319/332/319 56/58/56 261/269/261 260/268/260 
f 319/332/319 58/60/58 57/59/57 56/58/56 
f 320/333/320 38/40/38 40/42/40 
f 321/334/321 7/7/7 38/40/38 320/333/320 
f 321/334/321 322/335/322 2/2/2 7/7/7 
f 323/336/323 3/3/3 2/2/2 322/335/322 
f 259/267/259 257/265/257 3/3/3 323/336/323 
f 158/164/158 317/330/317 151/157/151 160/166/160 
f 81/86/81 80/85/80 86/91/86 161/167/161 
f 95/100/95 155/161/155 100/106/100 96/101/96 
f 146/152/146 148/154/148 159/165/159 162/168/162 
f 162/168/162 92/97/92 91/96/91 146/152/146 
f 161/167/161 160/166/160 163/169/163 81/86/81 
f 89/94/89 88/93/88 276/284/276 94/99/94 
f 85/90/85 89/94/89 93/98/93 92/97/92 
f 177/183/177 317/330/317 181/187/181 178/184/178 
f 223/229/223 318/331/318 316/329/316 221/227/221 
f 316/329/316 175/181/175 174/180/174 221/227/221 
f 223/234/223 229/237/229 324/337/324 318/338/318 
f 229/237/229 232/240/232 325/339/325 324/337/324 
f 232/240/232 236/244/236 326/340/326 325/339/325 
f 238/246/238 244/252/244 326/340/326 236/244/236 
f 240/248/240 241/249/241 244/252/244 238/246/238 
f 92/97/92 162/168/162 86/91/86 85/90/85 
f 41/43/41 42/44/42 318/338/318 324/337/324 
f 324/337/324 325/339/325 17/17/17 41/43/41 
f 14/14/14 17/17/17 325/339/325 326/340/326 
f 326/340/326 244/252/244 15/15/15 14/14/14 
f 317/330/317 158/164/158 157/163/157 181/187/181 
f 327/341/327 328/342/328 329/343/329 330/344/330 
f 327/341/327 330/344/330 331/345/331 332/346/332 
f 327/341/327 332/346/332 333/347/333 328/342/328 
f 334/348/334 335/349/335 331/345/331 336/350/336 
f 334/348/334 336/350/336 337/351/337 338/352/338 
f 334/348/334 338/352/338 339/353/339 335/349/335 
f 340/354/340 341/355/341 342/356/342 343/357/343 
f 343/358/343 344/359/344 345/360/345 340/361/340 
f 346/362/346 347/363/347 344/359/344 343/358/343 
f 348/364/348 349/365/349 346/362/346 343/358/343 
f 343/357/343 342/356/342 350/366/350 348/367/348 
f 351/368/351 352/369/352 353/370/353 349/365/349 
f 349/365/349 353/370/353 354/371/354 346/362/346 
f 355/372/355 356/373/356 357/374/357 358/375/358 
f 359/376/359 360/377/360 356/373/356 355/372/355 
f 355/372/355 358/375/358 361/378/361 359/376/359 
f 362/379/362 363/380/363 364/381/364 365/382/365 
f 362/379/362 366/383/366 367/384/367 363/380/363 
f 362/379/362 365/382/365 368/385/368 366/383/366 
f 364/381/364 361/386/361 369/387/369 370/388/370 
f 370/388/370 369/387/369 371/389/371 372/390/372 
f 370/388/370 372/390/372 365/382/365 364/381/364 
f 373/391/373 374/392/374 375/393/375 376/394/376 
f 373/391/373 376/394/376 377/395/377 371/389/371 
f 373/391/373 371/389/371 369/387/369 374/392/374 
f 378/396/378 379/397/379 380/398/380 381/399/381 
f 381/399/381 380/398/380 382/400/382 383/401/383 
f 384/402/384 385/403/385 383/401/383 382/400/382 
f 380/398/380 386/404/386 387/405/387 382/400/382 
f 382/400/382 387/405/387 388/406/388 384/402/384 
f 337/351/337 389/407/389 384/402/384 388/406/388 
f 388/406/388 387/405/387 390/408/390 391/409/391 
f 391/409/391 338/352/338 337/351/337 388/406/388 
f 391/409/391 390/408/390 392/410/392 393/411/393 
f 393/411/393 339/353/339 338/352/338 391/409/391 
f 393/411/393 392/410/392 394/412/394 395/413/395 
f 395/413/395 396/414/396 339/353/339 393/411/393 
f 396/414/396 397/415/397 335/349/335 339/353/339 
f 396/414/396 395/413/395 398/416/398 399/417/399 
f 399/417/399 400/418/400 397/415/397 396/414/396 
f 400/418/400 333/347/333 332/346/332 397/415/397 
f 401/419/401 389/407/389 402/420/402 403/421/403 
f 403/421/403 402/420/402 330/344/330 329/343/329 
f 389/407/389 337/351/337 336/350/336 402/420/402 
f 336/350/336 331/345/331 330/344/330 402/420/402 
f 385/403/385 384/402/384 389/407/389 401/419/401 
f 404/422/404 405/423/405 406/424/406 407/425/407 
f 408/426/408 409/427/409 405/423/405 404/422/404 
f 409/427/409 410/428/410 411/429/411 405/423/405 
f 409/427/409 408/426/408 412/430/412 413/431/413 
f 413/431/413 352/369/352 410/428/410 409/427/409 
f 413/431/413 412/430/412 414/432/414 415/433/415 
f 415/433/415 353/370/353 352/369/352 413/431/413 
f 415/433/415 414/432/414 416/434/416 417/435/417 
f 417/435/417 354/371/354 353/370/353 415/433/415 
f 417/435/417 416/434/416 418/436/418 419/437/419 
f 419/437/419 420/438/420 354/371/354 417/435/417 
f 421/439/421 422/440/422 347/363/347 420/438/420 
f 420/438/420 347/363/347 346/362/346 354/371/354 
f 420/438/420 419/437/419 423/441/423 421/439/421 
f 424/442/424 425/443/425 421/439/421 423/441/423 
f 419/437/419 418/436/418 426/444/426 423/441/423 
f 423/441/423 426/444/426 427/445/427 424/442/424 
f 427/445/427 428/446/428 429/447/429 424/442/424 
f 430/448/430 398/416/398 395/413/395 394/412/394 
f 394/412/394 429/447/429 428/446/428 430/448/430 
f 429/447/429 394/412/394 392/410/392 431/449/431 
f 431/449/431 425/443/425 424/442/424 429/447/429 
f 431/449/431 392/410/392 390/408/390 432/450/432 
f 431/449/431 432/450/432 433/451/433 425/443/425 
f 432/450/432 386/404/386 434/452/434 433/451/433 
f 433/451/433 434/452/434 435/453/435 422/440/422 
f 422/440/422 421/439/421 425/443/425 433/451/433 
f 434/452/434 379/397/379 436/454/436 435/453/435 
f 436/454/436 345/360/345 344/359/344 435/453/435 
f 435/453/435 344/359/344 347/363/347 422/440/422 
f 379/397/379 378/396/378 437/455/437 436/454/436 
f 437/455/437 438/456/438 345/360/345 436/454/436 
f 438/456/438 439/457/439 340/361/340 345/360/345 
f 439/458/439 440/459/440 341/355/341 340/354/340 
f 440/459/440 441/460/441 442/461/442 341/355/341 
f 443/462/443 342/356/342 341/355/341 442/461/442 
f 441/460/441 444/463/444 445/464/445 442/461/442 
f 442/461/442 445/464/445 446/465/446 443/462/443 
f 447/466/447 448/467/448 443/462/443 446/465/446 
f 445/464/445 449/468/449 450/469/450 446/465/446 
f 446/465/446 450/469/450 451/470/451 447/466/447 
f 452/471/452 453/472/453 447/466/447 451/470/451 
f 451/470/451 450/469/450 454/473/454 455/474/455 
f 451/470/451 455/474/455 456/475/456 452/471/452 
f 377/395/377 376/394/376 452/471/452 456/475/456 
f 456/475/456 455/474/455 457/476/457 458/477/458 
f 458/477/458 459/478/459 377/395/377 456/475/456 
f 372/390/372 371/389/371 377/395/377 459/478/459 
f 458/477/458 460/479/460 368/385/368 459/478/459 
f 368/385/368 365/382/365 372/390/372 459/478/459 
f 458/477/458 457/476/457 461/480/461 460/479/460 
f 460/479/460 461/480/461 351/368/351 462/481/462 
f 462/481/462 366/383/366 368/385/368 460/479/460 
f 351/368/351 349/365/349 463/482/463 462/481/462 
f 463/482/463 367/384/367 366/383/366 462/481/462 
f 463/482/463 349/365/349 348/364/348 464/483/464 
f 464/483/464 360/484/360 367/384/367 463/482/463 
f 348/367/348 350/366/350 465/485/465 464/486/464 
f 465/485/465 356/373/356 360/377/360 464/486/464 
f 350/366/350 448/467/448 466/487/466 465/485/465 
f 466/487/466 357/374/357 356/373/356 465/485/465 
f 448/467/448 447/466/447 453/472/453 466/487/466 
f 466/487/466 453/472/453 375/393/375 357/374/357 
f 457/476/457 411/429/411 410/428/410 461/480/461 
f 461/480/461 410/428/410 352/369/352 351/368/351 
f 455/474/455 454/473/454 411/429/411 457/476/457 
f 450/469/450 449/468/449 406/424/406 454/473/454 
f 454/473/454 406/424/406 405/423/405 411/429/411 
f 453/472/453 452/471/452 376/394/376 375/393/375 
f 449/468/449 445/464/445 444/463/444 467/488/467 
f 449/468/449 467/488/467 407/425/407 406/424/406 
f 448/467/448 350/366/350 342/356/342 443/462/443 
f 386/404/386 380/398/380 379/397/379 434/452/434 
f 390/408/390 387/405/387 386/404/386 432/450/432 
f 397/415/397 332/346/332 331/345/331 335/349/335 
f 374/392/374 358/375/358 357/374/357 375/393/375 
f 374/392/374 369/387/369 361/378/361 358/375/358 
f 360/484/360 359/489/359 363/380/363 367/384/367 
f 363/380/363 359/489/359 361/386/361 364/381/364 
f 468/490/468 469/491/469 470/492/470 471/493/471 
f 468/490/468 471/493/471 472/494/472 473/495/473 
f 473/495/473 474/496/474 469/491/469 468/490/468 
f 475/497/475 476/498/476 477/499/477 478/500/478 
f 479/501/479 480/502/480 475/497/475 478/500/478 
f 481/503/481 482/504/482 479/501/479 478/500/478 
f 483/505/483 484/506/484 485/507/485 486/508/486 
f 486/508/486 487/509/487 488/510/488 483/505/483 
f 126/511/126 489/512/489 490/513/490 122/514/122 
f 128/515/128 491/516/491 489/512/489 126/511/126 
f 491/516/491 492/517/492 493/518/493 489/512/489 
f 491/516/491 128/515/128 289/519/289 494/520/494 
f 491/516/491 494/520/494 495/521/495 492/517/492 
f 496/522/496 497/523/497 492/517/492 495/521/495 
f 494/520/494 498/524/498 499/525/499 495/521/495 
f 495/521/495 499/525/499 500/526/500 496/522/496 
f 501/527/501 502/528/502 496/522/496 500/526/500 
f 499/525/499 503/529/503 504/530/504 500/526/500 
f 500/526/500 504/530/504 505/531/505 501/527/501 
f 506/532/506 507/533/507 501/527/501 505/531/505 
f 504/530/504 508/534/508 509/535/509 505/531/505 
f 505/531/505 509/535/509 510/536/510 506/532/506 
f 511/537/511 512/538/512 513/539/513 514/540/514 
f 510/536/510 515/541/515 516/542/516 514/540/514 
f 514/540/514 516/542/516 517/543/517 511/537/511 
f 470/492/470 518/544/518 511/537/511 517/543/517 
f 516/542/516 487/509/487 519/545/519 517/543/517 
f 517/543/517 519/545/519 471/493/471 470/492/470 
f 487/509/487 486/508/486 520/546/520 519/545/519 
f 519/545/519 520/546/520 472/494/472 471/493/471 
f 521/547/521 522/548/522 523/549/523 524/550/524 
f 524/550/524 525/551/525 526/552/526 521/547/521 
f 527/553/527 525/551/525 528/554/528 518/544/518 
f 518/544/518 470/492/470 469/491/469 527/553/527 
f 525/551/525 524/550/524 529/555/529 528/554/528 
f 528/554/528 529/555/529 530/556/530 512/538/512 
f 512/538/512 511/537/511 518/544/518 528/554/528 
f 529/555/529 531/557/531 532/558/532 530/556/530 
f 530/556/530 532/558/532 533/559/533 534/560/534 
f 534/560/534 513/539/513 512/538/512 530/556/530 
f 532/558/532 535/561/535 536/562/536 533/559/533 
f 533/559/533 536/562/536 537/563/537 538/564/538 
f 538/564/538 507/533/507 534/560/534 533/559/533 
f 537/563/537 539/565/539 540/566/540 541/567/541 
f 541/567/541 540/566/540 542/568/542 497/523/497 
f 497/523/497 496/522/496 502/528/502 541/567/541 
f 540/566/540 543/569/543 544/570/544 542/568/542 
f 544/570/544 545/571/545 493/518/493 542/568/542 
f 493/518/493 492/517/492 497/523/497 542/568/542 
f 545/571/545 544/570/544 546/572/546 547/573/547 
f 547/573/547 548/574/548 490/513/490 545/571/545 
f 545/571/545 490/513/490 489/512/489 493/518/493 
f 548/574/548 547/573/547 549/575/549 550/576/550 
f 550/576/550 131/577/131 123/578/123 548/574/548 
f 548/574/548 123/578/123 122/514/122 490/513/490 
f 131/577/131 550/576/550 551/579/551 129/580/129 
f 202/581/202 552/582/552 553/583/553 199/584/199 
f 203/585/203 554/586/554 552/582/552 202/581/202 
f 554/586/554 555/587/555 556/588/556 552/582/552 
f 554/586/554 203/585/203 132/589/132 557/590/557 
f 557/590/557 558/591/558 555/587/555 554/586/554 
f 558/591/558 559/592/559 560/593/560 555/587/555 
f 558/591/558 557/590/557 551/579/551 561/594/561 
f 561/594/561 562/595/562 559/592/559 558/591/558 
f 562/595/562 563/596/563 564/597/564 559/592/559 
f 562/595/562 561/594/561 549/575/549 565/598/565 
f 565/598/565 566/599/566 563/596/563 562/595/562 
f 565/598/565 549/575/549 547/573/547 546/572/546 
f 546/572/546 567/600/567 566/599/566 565/598/565 
f 564/597/564 568/601/568 569/602/569 570/603/570 
f 570/603/570 560/593/560 559/592/559 564/597/564 
f 563/596/563 482/504/482 568/601/568 564/597/564 
f 570/603/570 569/602/569 571/604/571 572/605/572 
f 572/605/572 573/606/573 560/593/560 570/603/570 
f 573/606/573 572/605/572 574/607/574 575/608/575 
f 575/608/575 576/609/576 556/588/556 573/606/573 
f 573/606/573 556/588/556 555/587/555 560/593/560 
f 576/609/576 575/608/575 577/610/577 578/611/578 
f 578/611/578 579/612/579 553/583/553 576/609/576 
f 576/609/576 553/583/553 552/582/552 556/588/556 
f 579/612/579 578/611/578 580/613/580 581/614/581 
f 581/614/581 204/615/204 200/616/200 579/612/579 
f 579/612/579 200/616/200 199/584/199 553/583/553 
f 204/617/204 581/618/581 582/619/582 205/620/205 
f 498/524/498 494/520/494 289/519/289 292/621/292 
f 292/621/292 294/622/294 583/623/583 498/524/498 
f 503/529/503 499/525/499 498/524/498 583/623/583 
f 294/622/294 314/624/314 584/625/584 583/623/583 
f 583/623/583 584/625/584 585/626/585 503/529/503 
f 508/534/508 504/530/504 503/529/503 585/626/585 
f 584/625/584 586/627/586 587/628/587 585/626/585 
f 585/626/585 587/628/587 588/629/588 508/534/508 
f 589/630/589 509/535/509 508/534/508 588/629/588 
f 587/628/587 590/631/590 591/632/591 588/629/588 
f 588/629/588 591/632/591 592/633/592 589/630/589 
f 590/631/590 593/634/593 594/635/594 591/632/591 
f 591/632/591 594/635/594 595/636/595 592/633/592 
f 593/634/593 596/637/596 597/638/597 594/635/594 
f 594/635/594 597/638/597 598/639/598 595/636/595 
f 596/637/596 599/640/599 600/641/600 597/638/597 
f 597/638/597 600/641/600 601/642/601 598/639/598 
f 602/643/602 484/506/484 598/639/598 601/642/601 
f 600/641/600 603/644/603 604/645/604 601/642/601 
f 601/642/601 604/645/604 605/646/605 602/643/602 
f 605/646/605 606/647/606 607/648/607 608/649/608 
f 609/650/609 610/651/610 611/652/611 612/653/612 
f 612/653/612 611/652/611 613/654/613 614/655/614 
f 611/652/611 615/656/615 616/657/616 613/654/613 
f 616/657/616 531/557/531 523/549/523 613/654/613 
f 523/549/523 522/548/522 614/655/614 613/654/613 
f 616/657/616 615/656/615 617/658/617 535/561/535 
f 535/561/535 532/558/532 531/557/531 616/657/616 
f 617/658/617 615/656/615 618/659/618 619/660/619 
f 617/658/617 619/660/619 620/661/620 621/662/621 
f 621/662/621 536/562/536 535/561/535 617/658/617 
f 619/660/619 476/498/476 475/497/475 620/661/620 
f 620/661/620 475/497/475 480/502/480 622/663/622 
f 622/663/622 539/565/539 621/662/621 620/661/620 
f 619/660/619 618/659/618 623/664/623 476/498/476 
f 615/656/615 611/652/611 610/651/610 618/659/618 
f 624/665/624 625/666/625 626/667/626 627/668/627 
f 627/668/627 626/667/626 571/604/571 628/669/628 
f 629/670/629 625/666/625 606/671/606 630/672/630 
f 630/672/630 631/673/631 577/610/577 629/670/629 
f 629/670/629 577/610/577 575/608/575 574/607/574 
f 630/674/630 604/645/604 603/644/603 631/675/631 
f 631/675/631 603/644/603 632/676/632 580/677/580 
f 631/673/631 580/613/580 578/611/578 577/610/577 
f 603/644/603 600/641/600 599/640/599 632/676/632 
f 632/676/632 599/640/599 633/678/633 582/619/582 
f 632/676/632 582/619/582 581/618/581 580/677/580 
f 599/640/599 596/637/596 634/679/634 633/678/633 
f 633/678/633 634/679/634 297/680/297 207/681/207 
f 633/678/633 207/681/207 205/620/205 582/619/582 
f 634/679/634 635/682/635 295/683/295 297/680/297 
f 586/627/586 584/625/584 314/624/314 315/684/315 
f 315/684/315 298/685/298 636/686/636 586/627/586 
f 590/631/590 587/628/587 586/627/586 636/686/636 
f 298/685/298 295/683/295 635/682/635 636/686/636 
f 636/686/636 635/682/635 593/634/593 590/631/590 
f 635/682/635 634/679/634 596/637/596 593/634/593 
f 561/594/561 551/579/551 550/576/550 549/575/549 
f 557/590/557 132/589/132 129/580/129 551/579/551 
f 546/572/546 544/570/544 543/569/543 567/600/567 
f 531/557/531 529/555/529 524/550/524 523/549/523 
f 515/541/515 488/510/488 487/509/487 516/542/516 
f 477/499/477 476/498/476 623/664/623 637/687/637 
f 637/687/637 623/664/623 638/688/638 639/689/639 
f 610/651/610 609/650/609 639/689/639 638/688/638 
f 638/688/638 623/664/623 618/659/618 610/651/610 
f 640/690/640 526/552/526 525/551/525 527/553/527 
f 474/496/474 640/690/640 527/553/527 469/491/469 
f 566/599/566 567/600/567 480/502/480 479/501/479 
f 482/504/482 563/596/563 566/599/566 479/501/479 
f 595/636/595 598/639/598 484/506/484 483/505/483 
f 483/505/483 488/510/488 592/633/592 595/636/595 
f 513/539/513 534/560/534 507/533/507 506/532/506 
f 506/532/506 510/536/510 514/540/514 513/539/513 
f 509/535/509 589/630/589 515/541/515 510/536/510 
f 538/564/538 537/563/537 541/567/541 502/528/502 
f 502/528/502 501/527/501 507/533/507 538/564/538 
f 536/562/536 621/662/621 539/565/539 537/563/537 
f 568/601/568 641/691/641 642/692/642 569/602/569 
f 482/504/482 481/503/481 641/691/641 568/601/568 
f 569/602/569 642/692/642 628/669/628 571/604/571 
f 643/693/643 485/507/485 484/506/484 602/643/602 
f 602/643/602 605/646/605 608/649/608 643/693/643 
f 604/645/604 630/674/630 606/647/606 605/646/605 
f 622/663/622 480/502/480 567/600/567 543/569/543 
f 543/569/543 540/566/540 539/565/539 622/663/622 
f 625/666/625 629/670/629 574/607/574 626/667/626 
f 626/667/626 574/607/574 572/605/572 571/604/571 
f 624/665/624 607/694/607 606/671/606 625/666/625 
f 589/630/589 592/633/592 488/510/488 515/541/515 
f 644/695/644 645/696/645 646/697/646 647/698/647 
f 648/699/648 649/700/649 650/701/650 651/702/651 
f 651/702/651 652/703/652 653/704/653 648/699/648 
f 651/702/651 650/701/650 654/705/654 652/703/652 
f 474/706/474 655/707/655 656/708/656 657/709/657 
f 657/709/657 656/708/656 658/710/658 653/704/653 
f 659/711/659 660/712/660 637/713/637 639/714/639 
f 609/715/609 661/716/661 662/717/662 639/718/639 
f 520/719/520 663/720/663 664/721/664 472/722/472 
f 665/723/665 473/724/473 472/722/472 664/721/664 
f 664/721/664 663/720/663 666/725/666 667/726/667 
f 664/721/664 667/726/667 668/727/668 665/723/665 
f 669/728/669 655/707/655 665/723/665 668/727/668 
f 667/726/667 437/729/437 378/730/378 668/727/668 
f 668/727/668 378/730/378 381/731/381 669/728/669 
f 383/732/383 670/733/670 669/728/669 381/731/381 
f 400/734/400 399/735/399 671/736/671 672/737/672 
f 672/737/672 673/738/673 333/739/333 400/734/400 
f 672/737/672 645/696/645 674/740/674 673/738/673 
f 673/738/673 674/740/674 675/741/675 676/742/676 
f 673/738/673 676/742/676 328/743/328 333/739/333 
f 675/741/675 677/744/677 678/745/678 676/742/676 
f 676/742/676 678/745/678 329/746/329 328/743/328 
f 677/744/677 679/747/679 680/748/680 678/745/678 
f 680/748/680 403/749/403 329/746/329 678/745/678 
f 680/748/680 681/750/681 401/751/401 403/749/403 
f 681/750/681 682/752/682 385/753/385 401/751/401 
f 682/752/682 681/750/681 683/754/683 658/710/658 
f 682/752/682 658/710/658 656/708/656 670/733/670 
f 670/733/670 383/732/383 385/753/385 682/752/682 
f 683/754/683 679/747/679 649/700/649 648/699/648 
f 648/699/648 653/704/653 658/710/658 683/754/683 
f 681/750/681 680/748/680 679/747/679 683/754/683 
f 679/747/679 677/744/677 684/755/684 649/700/649 
f 677/744/677 675/741/675 685/756/685 684/755/684 
f 685/756/685 686/757/686 687/758/687 684/755/684 
f 687/758/687 650/701/650 649/700/649 684/755/684 
f 686/757/686 688/759/688 689/760/689 687/758/687 
f 687/758/687 689/760/689 654/705/654 650/701/650 
f 688/759/688 614/761/614 522/762/522 689/760/689 
f 689/760/689 522/762/522 521/763/521 654/705/654 
f 521/763/521 526/764/526 652/703/652 654/705/654 
f 690/765/690 691/766/691 643/767/643 608/768/608 
f 608/768/608 607/769/607 692/770/692 690/765/690 
f 693/771/693 694/772/694 690/765/690 692/770/692 
f 607/769/607 624/773/624 695/774/695 692/770/692 
f 695/774/695 696/775/696 693/771/693 692/770/692 
f 696/775/696 407/776/407 467/777/467 693/771/693 
f 696/775/696 695/774/695 697/778/697 698/779/698 
f 698/779/698 404/780/404 407/776/407 696/775/696 
f 404/780/404 698/779/698 699/781/699 408/782/408 
f 426/783/426 700/784/700 701/785/701 427/786/427 
f 701/785/701 702/787/702 428/788/428 427/786/427 
f 702/789/702 703/790/703 430/791/430 428/792/428 
f 702/787/702 701/785/701 660/712/660 659/711/659 
f 659/793/659 704/794/704 703/790/703 702/789/702 
f 704/794/704 705/795/705 706/796/706 703/790/703 
f 704/794/704 659/793/659 639/718/639 662/717/662 
f 662/717/662 707/797/707 705/795/705 704/794/704 
f 647/698/647 646/697/646 705/795/705 707/797/707 
f 707/797/707 662/717/662 661/716/661 708/798/708 
f 708/798/708 644/695/644 647/698/647 707/797/707 
f 708/798/708 661/716/661 709/799/709 710/800/710 
f 710/800/710 711/801/711 644/695/644 708/798/708 
f 711/801/711 674/740/674 645/696/645 644/695/644 
f 711/801/711 710/800/710 686/757/686 685/756/685 
f 685/756/685 675/741/675 674/740/674 711/801/711 
f 710/800/710 709/799/709 688/759/688 686/757/686 
f 661/716/661 609/715/609 612/802/612 709/799/709 
f 709/799/709 612/802/612 614/761/614 688/759/688 
f 706/796/706 671/736/671 399/735/399 398/803/398 
f 398/803/398 430/791/430 703/790/703 706/796/706 
f 705/795/705 646/697/646 671/736/671 706/796/706 
f 700/784/700 712/804/712 660/712/660 701/785/701 
f 712/804/712 700/784/700 713/805/713 714/806/714 
f 712/804/712 477/807/477 637/713/637 660/712/660 
f 715/808/715 716/809/716 717/810/717 718/811/718 
f 718/811/718 641/812/641 481/813/481 715/808/715 
f 714/806/714 713/805/713 716/809/716 715/808/715 
f 718/811/718 717/810/717 719/814/719 720/815/720 
f 720/815/720 642/816/642 641/812/641 718/811/718 
f 720/815/720 719/814/719 699/781/699 721/817/721 
f 721/817/721 628/818/628 642/816/642 720/815/720 
f 721/817/721 699/781/699 698/779/698 697/778/697 
f 697/778/697 627/819/627 628/818/628 721/817/721 
f 697/778/697 695/774/695 624/773/624 627/819/627 
f 719/814/719 412/820/412 408/782/408 699/781/699 
f 717/810/717 414/821/414 412/820/412 719/814/719 
f 716/809/716 416/822/416 414/821/414 717/810/717 
f 713/805/713 418/823/418 416/822/416 716/809/716 
f 700/784/700 426/783/426 418/823/418 713/805/713 
f 438/824/438 437/729/437 667/726/667 666/725/666 
f 666/725/666 722/825/722 439/826/439 438/824/438 
f 722/825/722 723/827/723 440/828/440 439/826/439 
f 723/827/723 724/829/724 441/830/441 440/828/440 
f 444/831/444 441/830/441 724/829/724 694/772/694 
f 694/772/694 693/771/693 467/777/467 444/831/444 
f 724/829/724 723/827/723 725/832/725 691/766/691 
f 691/766/691 690/765/690 694/772/694 724/829/724 
f 723/827/723 722/825/722 726/833/726 725/832/725 
f 485/834/485 643/767/643 691/766/691 725/832/725 
f 722/825/722 666/725/666 663/720/663 726/833/726 
f 671/736/671 646/697/646 645/696/645 672/737/672 
f 670/733/670 656/708/656 655/707/655 669/728/669 
f 655/707/655 474/706/474 473/724/473 665/723/665 
f 657/709/657 653/704/653 652/703/652 474/706/474 
f 520/719/520 486/835/486 726/833/726 663/720/663 
f 714/806/714 478/836/478 477/807/477 712/804/712 
f 715/808/715 481/813/481 478/836/478 714/806/714 
f 725/832/725 726/833/726 486/835/486 485/834/485 
f 526/764/526 640/837/640 474/706/474 652/703/652 
# 711 polygons - 4 triangles

