# 3ds Max Wavefront OBJ Exporter v0.99 - (c)2007 guruware
# File Created: 14.05.2025 18:29:18

mtllib ProfesorLeftLeg2.mtl

#
# object ProfesorLeftLeg
#

v  -1.1948 -12.7447 6.7789
v  -1.1239 -13.7689 6.5919
v  -0.6174 -13.7583 6.8682
v  -0.6896 -12.7489 7.0042
v  -1.6279 -12.6857 6.3241
v  -1.5614 -13.6686 6.1539
v  -2.3300 -14.1444 4.9268
v  -2.5443 -14.0601 4.2413
v  -2.4165 -14.6710 4.2062
v  -2.7094 -12.4331 4.2643
v  -2.7353 -12.3385 3.5301
v  -2.6151 -13.2476 3.4783
v  -2.5908 -13.3123 4.2419
v  -2.5391 -12.2185 2.8251
v  -2.4568 -13.0785 2.7544
v  -2.0764 -12.1449 2.2499
v  -2.0475 -12.9135 2.2007
v  -2.2289 -14.3534 2.6411
v  -1.8322 -14.1430 2.1659
v  -1.7749 -14.6927 2.0251
v  -1.9479 -13.5669 2.1923
v  -1.3701 -13.3976 1.7707
v  -1.3180 -13.9815 1.7342
v  -1.2270 -14.5605 1.7290
v  -0.5734 -13.8538 1.5005
v  -0.5431 -14.4543 1.4107
v  2.3355 -14.0785 3.6178
v  2.2067 -13.4613 3.6667
v  2.1588 -13.6822 4.2234
v  2.2037 -14.3262 4.1444
v  2.2220 -13.9197 4.7741
v  2.3087 -14.6185 4.7189
v  1.9899 -12.4661 5.5543
v  2.0482 -13.3480 5.4222
v  2.0209 -13.1790 4.8339
v  1.9124 -12.3801 4.9799
v  1.6521 -12.5382 5.9773
v  1.5079 -13.3573 5.6665
v  1.0132 -12.5320 6.1273
v  0.9350 -13.3785 5.9211
v  0.4371 -12.6056 6.5254
v  0.4445 -13.4989 6.3672
v  -0.1155 -12.6895 6.8990
v  -0.0549 -13.6372 6.7321
v  2.1030 -12.1981 3.8133
v  2.1601 -12.8479 3.7155
v  1.9915 -12.7396 3.0265
v  1.9469 -12.1225 3.0977
v  1.6356 -12.6731 2.3879
v  1.7639 -12.0168 2.2774
v  1.7950 -13.8734 2.4476
v  1.8889 -14.4963 2.4857
v  1.4847 -14.4428 1.9541
v  1.4045 -13.8280 1.9048
v  1.3935 -13.2343 1.7923
v  1.7026 -13.2834 2.4150
v  2.0475 -13.9397 3.0602
v  2.1958 -14.5778 3.0343
v  0.2419 -14.4105 1.3399
v  0.1805 -13.7910 1.3919
v  0.8815 -13.7941 1.4692
v  0.9642 -14.4090 1.4861
v  0.1184 -13.1869 1.4256
v  0.7945 -13.1978 1.4538
v  -0.0579 -12.0453 1.5006
v  0.0413 -12.5956 1.5224
v  -0.6341 -12.6503 1.6034
v  -0.6819 -12.0476 1.6341
v  -1.4001 -12.7687 1.8007
v  -1.3985 -12.0894 1.8570
v  -1.9949 -13.5194 5.6139
v  -1.9893 -14.3347 5.5264
v  -1.4571 -14.5290 5.9433
v  -2.3411 -13.3853 4.9539
v  -2.5029 -13.9550 3.4643
v  -2.4168 -14.6643 3.3977
v  -2.3625 -13.7702 2.7027
v  2.1376 -13.0151 4.3146
v  1.8992 -14.1396 5.2336
v  -0.0273 -14.4744 6.4739
v  -0.5420 -14.6623 6.7063
v  2.0366 -13.3367 3.0298
v  1.3425 -12.6292 1.7202
v  0.6707 -12.6065 1.5210
v  -0.6088 -13.2557 1.5325
v  -1.0089 -14.6670 6.3556
v  1.3623 -14.1216 5.4331
v  0.8957 -14.1650 5.8010
v  0.4641 -14.3121 6.2159
v  -2.0425 -12.6001 5.7173
v  -2.4184 -12.5120 4.9906
v  2.1677 -12.2886 4.4519
v  1.2447 -12.0895 1.6924
v  0.5773 -12.0696 1.4717
v  -3.6799 -1.7779 3.0083
v  -3.8430 -1.4369 3.0561
v  -3.7928 -1.2627 2.3481
v  -3.3034 -1.6105 2.2117
v  -3.0738 -2.2612 2.3865
v  -3.5623 -2.2843 3.0231
v  -3.7020 -0.9889 1.5602
v  -3.1742 -1.3254 1.3334
v  -2.4122 -1.8506 1.6086
v  -2.3947 -2.3428 1.8678
v  -0.4705 -1.7558 0.7725
v  -0.3356 -2.2362 0.9935
v  -0.9887 -2.1971 0.8024
v  -0.9119 -1.9009 0.6665
v  -1.6639 -2.0619 0.7240
v  -1.3983 -1.6762 0.5295
v  -0.9213 -1.3473 0.3814
v  -1.2781 -2.6414 1.2189
v  -1.0614 -2.8947 1.2760
v  -1.6658 -2.8805 1.6044
v  -1.7224 -2.4875 1.4875
v  -1.6930 -2.2147 1.1775
v  -1.0967 -2.5232 0.9523
v  -0.4437 -2.7443 1.0925
v  0.3549 -2.1610 1.2805
v  0.3950 -2.7585 1.3327
v  0.4621 -3.1787 1.3787
v  -0.2412 -3.1923 1.2333
v  -0.9145 -3.2802 1.3484
v  -3.9684 -0.7278 5.8874
v  -3.8960 -1.0589 5.8099
v  -3.8315 -0.6205 6.5232
v  -3.8323 -1.5518 5.7283
v  -3.6505 -1.2123 6.4460
v  -3.9629 -1.0584 5.1873
v  -3.9385 -1.3344 5.1144
v  -3.9218 -1.7453 5.0470
v  -3.8646 -2.2809 4.9797
v  -3.7349 -2.1557 5.6517
v  -3.9533 -1.4730 4.4312
v  -3.9399 -1.8388 4.3807
v  -3.9092 -2.3253 4.3278
v  -3.8467 -2.9562 4.2588
v  -3.7921 -2.9273 4.8954
v  -3.9044 -1.8392 3.7121
v  -3.8639 -2.3191 3.6785
v  -3.7703 -2.9492 3.6286
v  -3.6880 -3.7399 3.5531
v  -3.7718 -3.7858 4.1851
v  -3.4553 -2.9193 3.0077
v  -3.3888 -3.6837 2.9374
v  -2.9630 -2.8911 2.4393
v  -2.8545 -3.5867 2.4109
v  -2.3521 -2.8682 1.9661
v  -2.2641 -3.4719 1.9719
v  -1.6176 -3.3626 1.6026
v  -3.5366 -3.7857 5.4290
v  -3.6225 -2.8716 5.5468
v  -3.7233 -3.7857 4.7955
v  -3.1629 -3.7555 6.1267
v  -3.2918 -2.7783 6.2559
v  -3.4586 -1.9495 6.3575
v  -2.8119 -2.6353 7.0100
v  -3.0217 -1.6522 7.0635
v  -3.3213 -0.7073 7.1551
v  -2.1383 -2.5074 7.6853
v  -2.4939 -1.3169 7.7310
v  -2.8888 -0.1194 7.8450
v  -1.3565 -2.3662 8.1781
v  -1.6815 -1.0325 8.1679
v  -2.0195 0.2442 8.1809
v  -0.7291 -0.8456 8.4013
v  -1.0109 0.4533 8.3855
v  -3.9483 -1.1314 4.5494
v  -3.9507 -1.2359 4.4861
v  -3.9947 -0.9344 5.2647
v  -4.0325 -0.5841 5.9795
v  -3.9411 -1.1940 3.8591
v  -3.9365 -1.2857 3.8021
v  -3.9280 -1.5017 3.7516
v  -3.9178 -1.2272 3.1100
v  -3.9624 -1.1486 3.1704
v  -4.0243 -0.9971 2.4624
v  -3.9221 -1.0558 2.3991
v  -3.9432 -0.7503 1.6598
v  -3.9244 -0.3176 0.8067
v  -3.5091 -0.5453 0.7181
v  -3.2055 0.0848 -0.0871
v  -2.4542 -0.3711 -0.0925
v  -2.8903 -0.9102 0.5899
v  -1.6595 -0.8737 0.0719
v  -2.1402 -1.3291 0.4707
v  -2.4404 -1.7185 0.9642
v  -1.7605 0.4287 -0.4884
v  -0.9247 -0.2226 -0.1660
v  -0.2466 -0.8893 0.3229
v  0.5248 -0.0906 0.4610
v  0.9676 -1.0315 1.0559
v  0.1961 -1.5236 0.8319
v  1.1436 -1.9713 1.5671
v  1.1572 -2.7039 1.7534
v  1.7267 -0.3005 1.5691
v  1.9422 -1.5475 2.0492
v  1.9393 -2.6212 2.3299
v  1.8788 -3.2882 2.3659
v  1.1630 -3.2141 1.7413
v  2.5878 -1.1312 2.8163
v  2.5920 -2.4272 3.0676
v  2.5181 -3.3470 3.1248
v  2.9958 -0.9243 3.8123
v  2.9847 -2.2882 3.9870
v  2.9447 -3.4432 4.0644
v  3.1448 -0.8873 4.9346
v  3.1308 -2.2403 5.0371
v  3.0897 -3.5257 5.1382
v  2.8547 -0.8720 6.0370
v  2.8370 -2.2264 6.1161
v  2.7987 -3.5923 6.1820
v  2.4251 -2.2214 7.0570
v  2.4299 -3.6557 7.0475
v  -2.5998 -3.7503 6.9205
v  -1.9266 -3.7711 7.6594
v  -1.1936 -3.7758 8.1977
v  -0.3863 -3.7735 8.4763
v  -0.5105 -2.2635 8.4624
v  0.4481 -3.7652 8.4617
v  0.3598 -2.2165 8.5169
v  0.2309 -0.7375 8.4678
v  1.1938 -2.2069 8.2833
v  1.1351 -0.6957 8.2582
v  0.0417 0.5952 8.4254
v  1.8888 -0.7372 7.7228
v  2.4259 -0.8175 7.0106
v  2.4774 0.4881 6.9797
v  2.9539 0.4270 6.0056
v  3.2125 0.4449 4.8808
v  2.8784 0.4223 3.6438
v  1.9161 -2.2097 7.7563
v  1.9448 -3.7059 7.7001
v  1.2442 -3.7458 8.2095
v  2.3573 0.2446 2.4738
v  2.9288 -4.6600 4.1047
v  2.9327 -4.8136 5.2715
v  2.7546 -5.1471 3.5429
v  2.3474 -4.6138 2.8260
v  2.4977 -4.0663 3.0182
v  2.5925 -6.1103 4.1180
v  2.3601 -6.0809 3.5495
v  2.5395 -5.3852 3.2575
v  2.0839 -5.0591 2.9043
v  2.1971 -6.4286 3.3241
v  2.4687 -7.3465 3.8630
v  2.2856 -7.2441 3.4011
v  1.9431 -7.0354 2.9631
v  2.0672 -6.1939 2.8527
v  -3.2160 -4.5970 2.8141
v  -2.7239 -4.3323 2.3217
v  -2.5061 -5.1017 2.1931
v  -2.9744 -5.8129 2.6858
v  -2.2182 -5.5823 1.9871
v  -2.2376 -6.3275 2.0915
v  -2.4285 -7.2519 2.3922
v  -2.8417 -7.2419 2.8252
v  1.8591 -3.7990 2.1939
v  1.4609 -4.3236 2.1461
v  1.4953 -4.8785 2.3655
v  0.8595 -3.9578 1.6154
v  1.1197 -3.6255 1.6865
v  0.5834 -4.5007 1.8575
v  0.3045 -4.1702 1.5369
v  0.8027 -4.8963 1.9680
v  -1.9789 -4.7603 1.8620
v  -1.8056 -5.3947 1.7658
v  -1.6856 -6.0267 1.7117
v  -2.4733 -9.6201 2.8370
v  -2.8389 -9.8549 3.2548
v  -2.9097 -8.5832 3.4267
v  -2.6549 -8.5009 2.8919
v  -2.4267 -8.4245 2.4751
v  -2.1658 -9.5059 2.4659
v  -2.0455 -10.4382 2.3052
v  -2.0471 -11.2495 2.2788
v  -2.5493 -11.0163 2.9298
v  -2.4245 -10.3808 2.6239
v  -2.0848 -6.8277 2.0764
v  -2.1167 -7.3655 2.1638
v  -1.9137 -6.9370 1.9917
v  -1.8486 -7.4003 1.9901
v  -1.7736 -6.7837 1.8942
v  2.2692 -10.2649 3.7515
v  2.1412 -10.3355 4.4409
v  2.0585 -11.4098 4.0742
v  1.9734 -11.4294 3.3804
v  1.9756 -11.4379 2.7059
v  2.0560 -10.6874 3.0929
v  1.9867 -9.6936 3.3744
v  2.1591 -9.6362 3.6838
v  -1.3788 -6.6364 1.6986
v  -1.5610 -7.3455 1.8268
v  -1.5139 -3.8892 1.6258
v  -0.7546 -3.6457 1.5012
v  -0.5725 -4.0857 1.5510
v  -1.2533 -4.5232 1.6431
v  -0.7339 -4.7185 1.5447
v  -0.6214 -5.2178 1.5920
v  -1.2294 -5.2513 1.6199
v  -0.2873 -4.4258 1.5196
v  1.0897 -9.9654 2.1254
v  1.3590 -10.3031 2.4029
v  0.9867 -10.7855 2.0569
v  0.6526 -10.1065 1.8521
v  1.0588 -9.2046 2.1133
v  1.5144 -9.3788 2.5236
v  0.4685 -5.3195 1.8625
v  0.2048 -5.0806 1.7944
v  0.9374 -5.3169 2.0299
v  0.3956 -5.7247 1.8255
v  -0.1093 -5.5393 1.7146
v  0.9423 -5.9051 2.0755
v  0.8075 -6.8097 1.9263
v  1.5927 -6.0198 2.3845
v  1.5331 -6.9002 2.4513
v  1.5737 -8.1401 2.4694
v  0.9943 -8.0593 2.0035
v  0.3187 -6.2285 1.8181
v  0.2381 -8.0674 1.7031
v  0.0335 -7.0588 1.6549
v  -0.2885 -6.2232 1.6879
v  -0.0716 -4.7742 1.6675
v  -0.6911 -5.8055 1.5865
v  -1.1473 -5.8772 1.5829
v  0.4674 -3.7676 1.4674
v  0.0205 -3.8316 1.4974
v  -0.1141 -3.5393 1.3396
v  0.4996 -3.5300 1.4066
v  -0.8716 -6.4857 1.6174
v  -0.6350 -7.1998 1.5566
v  -0.4635 -8.1021 1.5836
v  -1.8701 -9.4085 2.0961
v  -1.6157 -9.2795 1.8663
v  -1.4181 -9.9716 1.7939
v  -1.4851 -10.4675 1.9579
v  -1.4448 -11.3513 1.8446
v  -1.0857 -10.0756 1.6806
v  -0.9372 -10.8259 1.5771
v  -0.8016 -11.4663 1.5751
v  -1.3083 -9.2716 1.7498
v  1.4675 -11.6800 2.0389
v  1.0503 -11.7069 1.7971
v  0.9320 -11.4435 1.9824
v  1.3694 -11.3057 2.3441
v  0.3885 -11.0791 1.7478
v  -3.5583 -4.6886 3.4530
v  -2.1645 -4.1029 1.9298
v  -3.3585 -5.9649 3.4034
v  -3.4723 -6.1025 4.0545
v  -3.6311 -4.8479 4.0929
v  -3.4207 -6.1201 4.6390
v  -3.6163 -4.8632 4.6781
v  -3.4104 -4.9087 5.3145
v  2.6872 -4.9244 6.2132
v  2.3726 -5.0261 6.9594
v  2.2372 -6.4427 6.8379
v  2.6309 -6.3407 6.2582
v  1.9333 -5.1091 7.5509
v  1.8387 -6.5303 7.3580
v  1.6449 -7.9625 7.1252
v  2.0949 -7.9115 6.7365
v  1.2692 -5.1640 8.0510
v  1.2309 -6.5751 7.8190
v  1.1615 -8.0015 7.5814
v  1.1179 -9.3625 7.3083
v  1.4825 -9.3161 6.8283
v  0.5287 -6.5779 8.0997
v  0.5224 -7.9732 7.7917
v  0.5045 -9.2988 7.3964
v  0.4795 -10.5099 7.0081
v  1.0891 -10.5471 6.8997
v  -0.1828 -7.9041 7.8795
v  -0.1519 -9.2272 7.5675
v  -0.1493 -10.4629 7.2942
v  -0.1476 -11.6089 7.0863
v  0.4396 -11.5965 6.6997
v  -0.8539 -9.1439 7.6116
v  -0.8031 -10.4090 7.3965
v  -0.7532 -11.6075 7.1851
v  -1.3839 -10.3469 7.0959
v  -1.2933 -11.5796 6.9475
v  -1.7275 -11.5233 6.4353
v  -2.5376 -11.3794 5.0568
v  -2.8442 -11.3155 4.4033
v  -2.8301 -11.2108 3.7047
v  2.1967 -11.4735 4.7054
v  1.9657 -11.4661 5.3055
v  1.7702 -11.5132 5.7871
v  1.6689 -11.5971 6.2654
v  1.0765 -11.6108 6.4629
v  1.5793 -10.5467 6.5943
v  1.6981 -10.4969 6.1195
v  1.8411 -9.2971 6.4198
v  2.0307 -10.4419 5.6082
v  2.2007 -9.2439 6.0063
v  2.3096 -7.7799 6.1679
v  2.2667 -9.1337 5.4340
v  2.6729 -7.6747 5.5997
v  2.7679 -6.2124 5.4829
v  2.6791 -7.5434 4.9282
v  2.8049 -6.1021 4.7032
v  2.5137 -7.4417 4.3734
v  2.4961 -8.9169 4.2349
v  2.2339 -8.6844 3.8999
v  2.5919 -9.0338 4.8365
v  2.1587 -10.3807 5.0705
v  2.1153 -8.5094 3.4713
v  1.8099 -9.5931 2.9550
v  1.9101 -8.3096 2.9890
v  1.6534 -10.6104 2.7693
v  -0.1825 -11.5442 1.3922
v  0.4739 -11.6091 1.5151
v  -2.9041 -10.0613 4.5456
v  -2.9504 -10.0192 3.9118
v  -3.0553 -8.7708 4.6664
v  -3.1177 -8.7140 4.0291
v  -3.2192 -7.4203 4.6587
v  -3.2820 -7.3492 4.0627
v  -3.1279 -7.2771 3.4200
v  -2.8579 -8.8192 5.2500
v  -3.0711 -7.4709 5.2305
v  -3.3193 -6.1449 5.2149
v  -2.7382 -7.5226 5.8973
v  -2.9194 -6.1732 5.8880
v  -3.0131 -4.9404 6.0270
v  -2.3895 -6.2587 6.7753
v  -2.4920 -4.9733 6.8373
v  -1.8462 -5.0482 7.6088
v  -1.1147 -5.1059 8.1136
v  -0.3126 -5.1551 8.3556
v  0.5038 -5.1774 8.3211
v  -0.2454 -6.5316 8.1629
v  -1.0292 -6.4496 7.9876
v  -0.9249 -7.8087 7.7918
v  -1.7618 -6.3558 7.5375
v  -1.6427 -7.7087 7.4322
v  -1.4798 -9.0513 7.2439
v  -2.2643 -7.6042 6.7447
v  -2.1026 -8.9747 6.6875
v  -1.8790 -10.2819 6.5422
v  -2.5659 -8.8837 5.9217
v  -2.3766 -10.2136 5.8769
v  -2.1839 -11.4596 5.8032
v  -2.7041 -10.1334 5.1717
v  -0.3424 -10.9377 1.4634
v  -0.6346 -10.1749 1.6939
v  -0.0255 -10.1700 1.6794
v  -0.8957 -9.2151 1.6650
v  -0.3352 -9.1663 1.6216
v  0.4233 -9.1561 1.7250
v  -1.0081 -8.1579 1.6786
v  -1.4297 -8.2179 1.8526
v  -1.1447 -7.2811 1.6888
v  -1.7517 -8.2809 2.0004
v  -2.0834 -8.3731 2.2190
v  1.5306 -5.3982 2.4345
v  2.1389 -5.6189 2.8432
v  -3.9636 -1.3237 4.6834
v  -3.9433 -1.1690 4.6193
v  -4.0189 -0.9640 5.3453
v  -3.9919 -1.6679 4.0412
v  -3.9634 -1.4133 3.9867
v  -4.0165 -1.5820 4.7367
v  -4.0298 -1.4183 3.3099
v  -3.9883 -1.2259 3.2378
v  -3.9467 -1.2449 3.9226
# 467 vertices

vn -0.5953 -0.1640 0.7866
vn -0.6080 -0.2102 0.7656
vn -0.1021 -0.2006 0.9743
vn -0.1167 -0.1640 0.9795
vn -0.7772 -0.1427 0.6128
vn -0.7427 -0.1785 0.6454
vn -0.9183 -0.0992 0.3832
vn -0.9861 -0.1133 0.1216
vn -0.9828 -0.1606 0.0913
vn -0.9748 -0.1240 0.1852
vn -0.9855 -0.0778 -0.1505
vn -0.9856 -0.1186 -0.1202
vn -0.9806 -0.1053 0.1651
vn -0.8938 -0.0107 -0.4483
vn -0.9004 -0.0809 -0.4274
vn -0.6825 0.0259 -0.7304
vn -0.6732 -0.0145 -0.7393
vn -0.8891 -0.1133 -0.4435
vn -0.6914 -0.0523 -0.7206
vn -0.7128 -0.0015 -0.7014
vn -0.6764 -0.0668 -0.7335
vn -0.4375 0.0069 -0.8992
vn -0.4596 0.0134 -0.8880
vn -0.4724 0.0797 -0.8778
vn -0.2356 0.0549 -0.9703
vn -0.2425 0.1133 -0.9635
vn 0.9924 0.0904 -0.0836
vn 0.9923 0.0874 -0.0880
vn 0.9906 0.1072 0.0849
vn 0.9963 0.0786 0.0350
vn 0.9698 0.0126 0.2434
vn 0.8792 -0.0954 0.4669
vn 0.9452 -0.0210 0.3259
vn 0.8415 -0.1232 0.5260
vn 0.9876 0.0645 0.1428
vn 0.9799 -0.0137 0.1991
vn 0.5366 -0.2411 0.8086
vn 0.4401 -0.2811 0.8528
vn 0.4188 -0.2686 0.8675
vn 0.5431 -0.2243 0.8092
vn 0.5580 -0.1705 0.8121
vn 0.6207 -0.1522 0.7692
vn 0.3969 -0.1389 0.9073
vn 0.4378 -0.1587 0.8850
vn 0.9876 0.0664 -0.1423
vn 0.9917 0.0656 -0.1104
vn 0.9447 0.0439 -0.3251
vn 0.9768 -0.0111 -0.2140
vn 0.8972 -0.0122 -0.4415
vn 0.8807 0.0484 -0.4712
vn 0.8681 0.0763 -0.4904
vn 0.8446 0.1564 -0.5120
vn 0.7252 0.1053 -0.6804
vn 0.7357 0.0237 -0.6769
vn 0.7220 0.0195 -0.6916
vn 0.8852 0.0477 -0.4628
vn 0.9231 0.1076 -0.3693
vn 0.9416 0.1354 -0.3083
vn 0.0472 0.1007 -0.9938
vn -0.0150 0.0565 -0.9983
vn 0.3726 0.0191 -0.9278
vn 0.4413 0.0809 -0.8937
vn -0.0525 0.0843 -0.9951
vn 0.2706 0.0435 -0.9617
vn -0.0945 -0.0782 -0.9924
vn -0.0809 0.0484 -0.9955
vn -0.2230 0.0607 -0.9729
vn -0.2666 -0.0576 -0.9621
vn -0.4159 0.0385 -0.9086
vn -0.4348 0.0065 -0.9005
vn -0.8345 -0.1099 0.5400
vn -0.7876 -0.1678 0.5928
vn -0.6838 -0.2568 0.6830
vn -0.9156 -0.0790 0.3942
vn -0.9822 -0.1335 -0.1318
vn -0.9808 -0.1289 -0.1463
vn -0.8970 -0.1213 -0.4250
vn 0.9905 0.0450 0.1302
vn 0.6234 -0.2327 0.7465
vn 0.4827 -0.2121 0.8497
vn -0.0896 -0.2930 0.9519
vn 0.9273 0.0786 -0.3660
vn 0.6678 -0.0019 -0.7444
vn 0.1801 0.0359 -0.9830
vn -0.2235 0.0656 -0.9725
vn -0.6177 -0.2983 0.7277
vn 0.4789 -0.2777 0.8328
vn 0.6398 -0.1915 0.7443
vn 0.6203 -0.1854 0.7621
vn -0.8558 -0.1240 0.5023
vn -0.9081 -0.1225 0.4005
vn 0.9918 -0.0256 0.1256
vn 0.5798 0.0736 -0.8115
vn 0.1820 0.0393 -0.9825
vn -0.8460 -0.3479 -0.4040
vn -0.8774 -0.4135 -0.2434
vn -0.7215 -0.6263 -0.2952
vn -0.6531 -0.6080 -0.4515
vn -0.6915 -0.2808 -0.6656
vn -0.8434 -0.1930 -0.5015
vn -0.6172 -0.6781 -0.3991
vn -0.5426 -0.7248 -0.4245
vn -0.5510 -0.6980 -0.4573
vn -0.5746 -0.3364 -0.7461
vn 0.2683 -0.4555 -0.8489
vn 0.2900 -0.3121 -0.9047
vn 0.0463 -0.4761 -0.8782
vn 0.1701 -0.4310 -0.8862
vn -0.3454 -0.6676 -0.6595
vn -0.0890 -0.4936 -0.8651
vn 0.1386 -0.4670 -0.8733
vn -0.4455 -0.5532 -0.7039
vn -0.3025 -0.3685 -0.8790
vn -0.4688 -0.1946 -0.8616
vn -0.5341 -0.4188 -0.7344
vn -0.5115 -0.7156 -0.4757
vn -0.1622 -0.5799 -0.7984
vn 0.1293 -0.2647 -0.9556
vn 0.3997 -0.2914 -0.8691
vn 0.3739 -0.1122 -0.9207
vn 0.3498 -0.0565 -0.9351
vn 0.0460 -0.2434 -0.9688
vn -0.2196 -0.2716 -0.9370
vn -0.9149 -0.3349 0.2252
vn -0.9503 -0.2205 0.2197
vn -0.8140 -0.3304 0.4777
vn -0.9408 -0.1976 0.2754
vn -0.8279 -0.2800 0.4859
vn -0.9857 -0.1549 0.0670
vn -0.9928 -0.0900 0.0795
vn -0.9874 -0.1083 0.1152
vn -0.9791 -0.1343 0.1524
vn -0.9236 -0.1983 0.3280
vn -0.9993 -0.0374 -0.0036
vn -0.9977 -0.0671 -0.0007
vn -0.9951 -0.0992 -0.0016
vn -0.9949 -0.0999 -0.0138
vn -0.9767 -0.1205 0.1774
vn -0.9735 -0.1244 -0.1917
vn -0.9605 -0.1144 -0.2535
vn -0.9537 -0.0885 -0.2875
vn -0.9499 -0.0870 -0.3001
vn -0.9937 -0.1061 -0.0351
vn -0.8256 -0.0870 -0.5575
vn -0.8128 -0.0549 -0.5799
vn -0.6812 -0.1106 -0.7237
vn -0.6587 -0.0427 -0.7512
vn -0.5533 -0.1396 -0.8212
vn -0.5334 -0.0549 -0.8441
vn -0.3897 -0.1259 -0.9123
vn -0.9121 -0.1404 0.3853
vn -0.9172 -0.1640 0.3631
vn -0.9763 -0.1175 0.1820
vn -0.8417 -0.1556 0.5170
vn -0.8365 -0.1946 0.5123
vn -0.8314 -0.2373 0.5024
vn -0.7477 -0.1923 0.6356
vn -0.7284 -0.2472 0.6390
vn -0.7100 -0.2869 0.6431
vn -0.6046 -0.1450 0.7832
vn -0.5478 -0.1976 0.8130
vn -0.4946 -0.2029 0.8451
vn -0.4015 -0.0656 0.9135
vn -0.3251 -0.0916 0.9412
vn -0.2545 -0.1030 0.9616
vn -0.1493 -0.0084 0.9888
vn -0.1156 -0.0343 0.9927
vn -0.9769 -0.2136 0.0096
vn -0.9995 -0.0320 -0.0054
vn -0.5074 -0.7712 0.3844
vn 0.0500 -0.8071 0.5882
vn -0.8253 -0.5548 -0.1054
vn -0.9932 -0.1076 -0.0446
vn -0.9863 -0.1236 -0.1093
vn -0.9206 -0.3761 -0.1054
vn -0.1214 -0.9639 -0.2370
vn 0.1153 -0.9248 -0.3625
vn -0.7633 -0.6066 -0.2222
vn -0.6019 -0.7055 -0.3742
vn -0.4703 -0.6661 -0.5789
vn -0.5053 -0.6256 -0.5944
vn -0.3253 -0.4823 -0.8134
vn -0.2053 -0.4746 -0.8559
vn -0.4525 -0.5982 -0.6614
vn -0.0444 -0.4661 -0.8836
vn -0.3209 -0.5470 -0.7732
vn -0.4938 -0.7186 -0.4897
vn 0.0736 -0.2709 -0.9598
vn 0.2321 -0.3021 -0.9246
vn 0.3507 -0.3487 -0.8692
vn 0.5619 -0.1617 -0.8113
vn 0.5822 -0.2396 -0.7769
vn 0.4006 -0.3899 -0.8292
vn 0.5552 -0.2426 -0.7955
vn 0.5485 -0.1198 -0.8275
vn 0.7527 -0.0557 -0.6560
vn 0.7277 -0.1427 -0.6709
vn 0.7085 -0.1312 -0.6934
vn 0.7226 0.0130 -0.6911
vn 0.5662 0.0305 -0.8237
vn 0.8702 -0.0412 -0.4910
vn 0.8639 -0.0938 -0.4949
vn 0.8711 -0.0275 -0.4903
vn 0.9598 -0.0069 -0.2807
vn 0.9664 -0.0481 -0.2523
vn 0.9706 -0.0488 -0.2356
vn 0.9992 -0.0175 0.0365
vn 0.9973 -0.0175 0.0710
vn 0.9952 -0.0519 0.0824
vn 0.9441 -0.0191 0.3291
vn 0.9441 0.0008 0.3297
vn 0.9454 -0.0397 0.3236
vn 0.8691 0.0076 0.4946
vn 0.8709 -0.0336 0.4904
vn -0.7721 -0.1419 0.6194
vn -0.6527 -0.1007 0.7509
vn -0.4426 -0.0656 0.8943
vn -0.1559 -0.0526 0.9864
vn -0.1692 -0.0084 0.9855
vn 0.1545 -0.0549 0.9865
vn 0.1124 0.0069 0.9936
vn 0.0919 0.0397 0.9950
vn 0.4335 0.0069 0.9011
vn 0.4089 0.0549 0.9109
vn 0.1012 0.0267 0.9945
vn 0.6815 0.0343 0.7310
vn 0.8607 0.0000 0.5092
vn 0.8453 0.0107 0.5342
vn 0.9481 0.0015 0.3179
vn 0.9983 0.0458 -0.0350
vn 0.9354 0.0984 -0.3396
vn 0.6985 0.0084 0.7155
vn 0.7010 -0.0435 0.7118
vn 0.4542 -0.0542 0.8892
vn 0.8651 0.0748 -0.4960
vn 0.9803 -0.0809 -0.1800
vn 0.9918 -0.0809 0.0985
vn 0.9133 -0.1679 -0.3711
vn 0.7458 -0.1564 -0.6476
vn 0.8604 -0.0092 -0.5096
vn 0.9473 -0.1679 -0.2730
vn 0.9122 -0.1694 -0.3730
vn 0.7793 -0.2754 -0.5628
vn 0.6321 -0.1907 -0.7510
vn 0.8940 -0.0626 -0.4437
vn 0.9392 -0.0771 -0.3346
vn 0.8799 -0.0824 -0.4680
vn 0.8120 -0.0679 -0.5797
vn 0.7877 -0.1022 -0.6075
vn -0.7962 -0.0824 -0.5994
vn -0.6393 -0.0420 -0.7678
vn -0.6299 -0.0519 -0.7749
vn -0.7887 -0.1114 -0.6046
vn -0.5909 -0.0572 -0.8047
vn -0.6277 -0.1099 -0.7707
vn -0.6953 -0.1045 -0.7110
vn -0.8186 -0.1312 -0.5592
vn 0.6795 -0.0427 -0.7324
vn 0.5222 -0.2746 -0.8074
vn 0.5302 -0.1778 -0.8290
vn 0.3863 -0.3739 -0.8432
vn 0.5317 -0.0801 -0.8431
vn 0.3520 -0.3403 -0.8719
vn 0.2211 -0.3296 -0.9179
vn 0.4046 -0.1122 -0.9076
vn -0.4187 -0.0183 -0.9079
vn -0.3813 0.0107 -0.9244
vn -0.3644 -0.0748 -0.9282
vn -0.8071 -0.0286 -0.5897
vn -0.9215 -0.0561 -0.3844
vn -0.9199 -0.0992 -0.3795
vn -0.8373 -0.1099 -0.5356
vn -0.7390 -0.1053 -0.6655
vn -0.7154 -0.0626 -0.6959
vn -0.6594 -0.0023 -0.7518
vn -0.6745 0.0225 -0.7379
vn -0.8934 -0.0294 -0.4483
vn -0.7786 0.0065 -0.6275
vn -0.5537 -0.1175 -0.8244
vn -0.5731 -0.0771 -0.8158
vn -0.5035 -0.0923 -0.8590
vn -0.4996 -0.0740 -0.8631
vn -0.4394 -0.1213 -0.8901
vn 0.9842 -0.1167 -0.1334
vn 0.9853 -0.1698 0.0177
vn 0.9961 -0.0359 -0.0812
vn 0.9918 -0.0870 -0.0934
vn 0.9052 0.0748 -0.4183
vn 0.9066 0.0332 -0.4207
vn 0.8875 0.0423 -0.4589
vn 0.8699 0.0603 -0.4896
vn -0.2921 -0.0893 -0.9522
vn -0.3898 -0.0702 -0.9182
vn -0.2821 -0.1137 -0.9526
vn -0.1285 -0.2372 -0.9629
vn -0.0903 -0.0954 -0.9913
vn -0.2153 -0.0374 -0.9758
vn -0.0424 -0.0427 -0.9982
vn 0.0852 -0.0420 -0.9955
vn -0.1873 0.0221 -0.9821
vn 0.0807 -0.1320 -0.9880
vn 0.6114 -0.0008 -0.7913
vn 0.7251 0.0004 -0.6886
vn 0.5488 0.0259 -0.8355
vn 0.3892 -0.0088 -0.9211
vn 0.5679 -0.0183 -0.8229
vn 0.7479 -0.0412 -0.6625
vn 0.3088 -0.0061 -0.9511
vn 0.2764 -0.0557 -0.9594
vn 0.4605 -0.0061 -0.8876
vn 0.2992 0.0061 -0.9542
vn 0.2287 -0.0267 -0.9731
vn 0.4602 0.0099 -0.8877
vn 0.4513 0.0244 -0.8921
vn 0.5894 -0.0290 -0.8073
vn 0.6608 -0.0275 -0.7501
vn 0.7186 -0.0191 -0.6952
vn 0.5159 -0.0008 -0.8566
vn 0.2850 0.0580 -0.9568
vn 0.2868 -0.0008 -0.9580
vn 0.2407 0.0397 -0.9698
vn 0.1758 0.0389 -0.9837
vn 0.2601 -0.1923 -0.9462
vn 0.1081 -0.0214 -0.9939
vn -0.1095 -0.0252 -0.9937
vn 0.1718 -0.2396 -0.9556
vn -0.0046 -0.2060 -0.9785
vn -0.0040 -0.2899 -0.9570
vn 0.2923 -0.1228 -0.9484
vn -0.0281 -0.0046 -0.9996
vn -0.0010 0.0107 -0.9999
vn 0.0248 -0.0183 -0.9995
vn -0.6489 -0.0694 -0.7577
vn -0.5215 -0.0145 -0.8531
vn -0.5352 -0.0801 -0.8409
vn -0.5629 -0.0126 -0.8264
vn -0.4920 -0.0011 -0.8706
vn -0.2466 0.0191 -0.9689
vn -0.3225 0.0576 -0.9448
vn -0.3320 -0.0637 -0.9411
vn -0.2784 0.0183 -0.9603
vn 0.5777 0.4292 -0.6943
vn 0.4681 0.4188 -0.7781
vn 0.5108 0.3296 -0.7940
vn 0.6188 0.2552 -0.7430
vn 0.3648 0.1766 -0.9142
vn -0.9359 -0.1167 -0.3323
vn -0.4816 -0.0488 -0.8750
vn -0.9253 -0.1389 -0.3528
vn -0.9859 -0.1488 -0.0772
vn -0.9897 -0.1297 -0.0609
vn -0.9788 -0.1450 0.1447
vn -0.9785 -0.1297 0.1602
vn -0.9124 -0.1297 0.3883
vn 0.9450 -0.0702 0.3194
vn 0.8594 -0.0832 0.5045
vn 0.8351 -0.1343 0.5334
vn 0.9277 -0.1045 0.3584
vn 0.7035 -0.1083 0.7024
vn 0.6940 -0.1556 0.7029
vn 0.6986 -0.1968 0.6879
vn 0.8011 -0.1930 0.5665
vn 0.4749 -0.1183 0.8721
vn 0.4904 -0.1678 0.8552
vn 0.4922 -0.2060 0.8458
vn 0.4500 -0.2449 0.8588
vn 0.7386 -0.1930 0.6459
vn 0.2076 -0.1739 0.9626
vn 0.1998 -0.2220 0.9544
vn 0.2045 -0.2632 0.9428
vn 0.2911 -0.2747 0.9164
vn 0.3724 -0.2834 0.8837
vn -0.0019 -0.2060 0.9785
vn 0.1199 -0.2220 0.9676
vn 0.2513 -0.2087 0.9451
vn 0.3457 -0.1717 0.9225
vn 0.4340 -0.2285 0.8714
vn -0.2545 -0.1763 0.9509
vn -0.1880 -0.1751 0.9664
vn -0.1378 -0.1694 0.9759
vn -0.6166 -0.1549 0.7719
vn -0.6100 -0.1530 0.7775
vn -0.7832 -0.1423 0.6053
vn -0.9088 -0.1389 0.3934
vn -0.9748 -0.1110 0.1935
vn -0.9849 -0.0702 -0.1583
vn 0.9939 -0.0515 0.0976
vn 0.9479 -0.0862 0.3068
vn 0.9424 -0.0381 0.3323
vn 0.6806 -0.1926 0.7069
vn 0.3474 -0.2952 0.8900
vn 0.7441 -0.1747 0.6448
vn 0.8875 -0.1400 0.4390
vn 0.8079 -0.2121 0.5498
vn 0.9168 -0.1717 0.3607
vn 0.9000 -0.2060 0.3840
vn 0.9069 -0.1724 0.3845
vn 0.9530 -0.2014 0.2262
vn 0.9624 -0.1465 0.2286
vn 0.9872 -0.0854 0.1350
vn 0.9938 -0.0961 -0.0562
vn 0.9874 -0.1221 -0.1008
vn 0.9536 -0.0694 -0.2929
vn 0.9656 -0.0915 -0.2433
vn 0.9110 -0.0565 -0.4086
vn 0.9815 -0.1816 0.0601
vn 0.9775 -0.1472 0.1508
vn 0.9038 -0.0954 -0.4171
vn 0.8410 -0.0183 -0.5408
vn 0.8418 -0.0557 -0.5369
vn 0.7188 0.1221 -0.6844
vn 0.0026 0.0450 -0.9990
vn 0.3189 0.2586 -0.9118
vn -0.9747 -0.1163 0.1910
vn -0.9886 -0.0931 -0.1184
vn -0.9740 -0.1289 0.1863
vn -0.9889 -0.1114 -0.0984
vn -0.9769 -0.1411 0.1606
vn -0.9850 -0.1434 -0.0956
vn -0.9204 -0.1480 -0.3618
vn -0.9266 -0.1305 0.3527
vn -0.9241 -0.1373 0.3566
vn -0.9214 -0.1343 0.3647
vn -0.8761 -0.1160 0.4680
vn -0.8622 -0.1137 0.4936
vn -0.8493 -0.1243 0.5130
vn -0.8154 -0.0999 0.5702
vn -0.8002 -0.1045 0.5905
vn -0.6747 -0.0900 0.7325
vn -0.4328 -0.0992 0.8960
vn -0.1228 -0.1144 0.9858
vn 0.1902 -0.1213 0.9742
vn -0.0791 -0.1656 0.9830
vn -0.3837 -0.1358 0.9134
vn -0.3209 -0.1686 0.9320
vn -0.6617 -0.1053 0.7423
vn -0.6291 -0.1366 0.7652
vn -0.6115 -0.1572 0.7755
vn -0.8081 -0.1144 0.5778
vn -0.7838 -0.1480 0.6031
vn -0.7754 -0.1576 0.6115
vn -0.8763 -0.1335 0.4629
vn -0.8623 -0.1564 0.4817
vn -0.8571 -0.1457 0.4941
vn -0.9199 -0.1381 0.3671
vn 0.0710 0.1629 -0.9841
vn 0.0060 0.0767 -0.9970
vn 0.1848 0.0290 -0.9823
vn -0.1372 -0.0183 -0.9904
vn 0.0524 -0.0305 -0.9982
vn 0.3173 -0.0122 -0.9482
vn -0.2301 -0.0267 -0.9728
vn -0.3616 -0.0130 -0.9322
vn -0.2647 -0.0465 -0.9632
vn -0.5042 -0.0198 -0.8634
vn -0.6183 -0.0633 -0.7834
vn 0.5760 0.0244 -0.8171
vn 0.7305 -0.0687 -0.6794
vn 0.9812 -0.1541 0.1159
vn 0.9899 -0.1144 0.0836
vn 0.9361 -0.2708 0.2244
vn 0.9879 -0.1533 -0.0218
vn 0.9888 -0.1457 -0.0334
vn 0.9794 -0.1549 0.1295
vn 0.9655 -0.2068 -0.1581
vn 0.9394 -0.3067 -0.1530
vn 0.9894 -0.1404 -0.0376
# 467 vertex normals

vt 0.1920 0.0170 0.0000
vt 0.1889 0.0308 0.0000
vt 0.1823 0.0289 0.0000
vt 0.1853 0.0155 0.0000
vt 0.2001 0.0189 0.0000
vt 0.1973 0.0321 0.0000
vt 0.2144 0.0444 0.0000
vt 0.2240 0.0466 0.0000
vt 0.2210 0.0540 0.0000
vt 0.0043 0.0108 0.0000
vt 0.0142 0.0088 0.0000
vt 0.0156 0.0219 0.0000
vt 0.0048 0.0225 0.0000
vt 0.0239 0.0072 0.0000
vt 0.0260 0.0185 0.0000
vt 0.0340 0.0059 0.0000
vt 0.0348 0.0164 0.0000
vt 0.0286 0.0370 0.0000
vt 0.0369 0.0342 0.0000
vt 0.0382 0.0424 0.0000
vt 0.0358 0.0257 0.0000
vt 0.0459 0.0234 0.0000
vt 0.0465 0.0319 0.0000
vt 0.0470 0.0404 0.0000
vt 0.0581 0.0300 0.0000
vt 0.0583 0.0390 0.0000
vt 0.1169 0.0330 0.0000
vt 0.1172 0.0241 0.0000
vt 0.1253 0.0273 0.0000
vt 0.1246 0.0363 0.0000
vt 0.1326 0.0304 0.0000
vt 0.1317 0.0397 0.0000
vt 0.1434 0.0091 0.0000
vt 0.1416 0.0216 0.0000
vt 0.1338 0.0200 0.0000
vt 0.1353 0.0086 0.0000
vt 0.1498 0.0099 0.0000
vt 0.1483 0.0221 0.0000
vt 0.1588 0.0114 0.0000
vt 0.1575 0.0232 0.0000
vt 0.1687 0.0127 0.0000
vt 0.1668 0.0248 0.0000
vt 0.1778 0.0140 0.0000
vt 0.1753 0.0268 0.0000
vt 0.1178 0.0068 0.0000
vt 0.1174 0.0156 0.0000
vt 0.1068 0.0144 0.0000
vt 0.1066 0.0056 0.0000
vt 0.0957 0.0133 0.0000
vt 0.0950 0.0042 0.0000
vt 0.0982 0.0304 0.0000
vt 0.0995 0.0390 0.0000
vt 0.0897 0.0385 0.0000
vt 0.0884 0.0298 0.0000
vt 0.0872 0.0215 0.0000
vt 0.0968 0.0221 0.0000
vt 0.1081 0.0310 0.0000
vt 0.1088 0.0398 0.0000
vt 0.0697 0.0384 0.0000
vt 0.0692 0.0292 0.0000
vt 0.0789 0.0294 0.0000
vt 0.0799 0.0383 0.0000
vt 0.0686 0.0203 0.0000
vt 0.0777 0.0209 0.0000
vt 0.0658 0.0041 0.0000
vt 0.0674 0.0119 0.0000
vt 0.0577 0.0127 0.0000
vt 0.0570 0.0041 0.0000
vt 0.0457 0.0145 0.0000
vt 0.0458 0.0049 0.0000
vt 0.2071 0.0330 0.0000
vt 0.2047 0.0438 0.0000
vt 0.1948 0.0439 0.0000
vt 0.2176 0.0346 0.0000
vt 0.2278 0.0372 0.0000
vt 0.0165 0.0319 0.0000
vt 0.0170 0.0411 0.0000
vt 0.0057 0.0404 0.0000
vt 0.0055 0.0325 0.0000
vt 0.0274 0.0283 0.0000
vt 0.1261 0.0180 0.0000
vt 0.1406 0.0333 0.0000
vt 0.1731 0.0383 0.0000
vt 0.1796 0.0407 0.0000
vt 0.1073 0.0226 0.0000
vt 0.0860 0.0128 0.0000
vt 0.0762 0.0123 0.0000
vt 0.0580 0.0213 0.0000
vt 0.1861 0.0430 0.0000
vt 0.1478 0.0333 0.0000
vt 0.1566 0.0339 0.0000
vt 0.1652 0.0358 0.0000
vt 0.2098 0.0212 0.0000
vt 0.2214 0.0240 0.0000
vt 0.2325 0.0264 0.0000
vt 0.1271 0.0078 0.0000
vt 0.0848 0.0051 0.0000
vt 0.0745 0.0046 0.0000
vt 0.6521 0.0173 0.0000
vt 0.6557 0.0130 0.0000
vt 0.6627 0.0213 0.0000
vt 0.6584 0.0306 0.0000
vt 0.6507 0.0328 0.0000
vt 0.6472 0.0204 0.0000
vt 0.6719 0.0283 0.0000
vt 0.6693 0.0382 0.0000
vt 0.6597 0.0488 0.0000
vt 0.6529 0.0484 0.0000
vt 0.6704 0.0839 0.0000
vt 0.6631 0.0866 0.0000
vt 0.6635 0.0768 0.0000
vt 0.6682 0.0774 0.0000
vt 0.6655 0.0662 0.0000
vt 0.6715 0.0696 0.0000
vt 0.6770 0.0759 0.0000
vt 0.6547 0.0727 0.0000
vt 0.6514 0.0762 0.0000
vt 0.6485 0.0643 0.0000
vt 0.6539 0.0630 0.0000
vt 0.6593 0.0639 0.0000
vt 0.6584 0.0755 0.0000
vt 0.6555 0.0858 0.0000
vt 0.6648 0.0989 0.0000
vt 0.6564 0.0992 0.0000
vt 0.6507 0.1003 0.0000
vt 0.6498 0.0895 0.0000
vt 0.6466 0.0787 0.0000
vt 0.6988 0.3178 0.0000
vt 0.6934 0.3169 0.0000
vt 0.6988 0.3073 0.0000
vt 0.6870 0.3161 0.0000
vt 0.6917 0.3064 0.0000
vt 0.6938 0.3264 0.0000
vt 0.6891 0.3256 0.0000
vt 0.6839 0.3252 0.0000
vt 0.6777 0.3251 0.0000
vt 0.6791 0.3158 0.0000
vt 0.6867 0.3344 0.0000
vt 0.6820 0.3340 0.0000
vt 0.6767 0.3339 0.0000
vt 0.6684 0.3342 0.0000
vt 0.6686 0.3257 0.0000
vt 0.6808 0.3428 0.0000
vt 0.6761 0.3426 0.0000
vt 0.6693 0.3422 0.0000
vt 0.6579 0.3438 0.0000
vt 0.6572 0.3353 0.0000
vt 0.6379 0.0143 0.0000
vt 0.6435 0.0110 0.0000
vt 0.6414 0.0228 0.0000
vt 0.6299 0.0278 0.0000
vt 0.6275 0.0183 0.0000
vt 0.6432 0.0356 0.0000
vt 0.6337 0.0390 0.0000
vt 0.6460 0.0498 0.0000
vt 0.6377 0.0513 0.0000
vt 0.6421 0.0657 0.0000
vt 0.6569 0.3177 0.0000
vt 0.6696 0.3165 0.0000
vt 0.6569 0.3271 0.0000
vt 0.6563 0.3050 0.0000
vt 0.6709 0.3047 0.0000
vt 0.6820 0.3051 0.0000
vt 0.6716 0.2907 0.0000
vt 0.6858 0.2930 0.0000
vt 0.6992 0.2957 0.0000
vt 0.6726 0.2761 0.0000
vt 0.6898 0.2796 0.0000
vt 0.7079 0.2826 0.0000
vt 0.6739 0.2619 0.0000
vt 0.6932 0.2657 0.0000
vt 0.7114 0.2690 0.0000
vt 0.6947 0.2504 0.0000
vt 0.7132 0.2528 0.0000
vt 0.6946 0.3361 0.0000
vt 0.6909 0.3352 0.0000
vt 0.6974 0.3272 0.0000
vt 0.7030 0.3192 0.0000
vt 0.6913 0.3446 0.0000
vt 0.6882 0.3440 0.0000
vt 0.6846 0.3432 0.0000
vt 0.6503 0.0057 0.0000
vt 0.6529 0.0029 0.0000
vt 0.6589 0.0098 0.0000
vt 0.6472 0.0081 0.0000
vt 0.6611 0.0067 0.0000
vt 0.6681 0.0122 0.0000
vt 0.6656 0.0157 0.0000
vt 0.6549 0.0005 0.0000
vt 0.6740 0.0212 0.0000
vt 0.6860 0.0266 0.0000
vt 0.6833 0.0348 0.0000
vt 0.6966 0.0409 0.0000
vt 0.6909 0.0527 0.0000
vt 0.6797 0.0453 0.0000
vt 0.6839 0.0637 0.0000
vt 0.6757 0.0576 0.0000
vt 0.6675 0.0526 0.0000
vt 0.7039 0.0617 0.0000
vt 0.6941 0.0738 0.0000
vt 0.6837 0.0849 0.0000
vt 0.6968 0.0946 0.0000
vt 0.6827 0.1046 0.0000
vt 0.6750 0.0934 0.0000
vt 0.6680 0.1112 0.0000
vt 0.6576 0.1130 0.0000
vt 0.6954 0.1168 0.0000
vt 0.6766 0.1243 0.0000
vt 0.6599 0.1279 0.0000
vt 0.6517 0.1281 0.0000
vt 0.6513 0.1128 0.0000
vt 0.6842 0.1379 0.0000
vt 0.6643 0.1420 0.0000
vt 0.6521 0.1424 0.0000
vt 0.6880 0.1523 0.0000
vt 0.6676 0.1558 0.0000
vt 0.6521 0.1574 0.0000
vt 0.6888 0.1679 0.0000
vt 0.6696 0.1702 0.0000
vt 0.6519 0.1728 0.0000
vt 0.6899 0.1841 0.0000
vt 0.6711 0.1862 0.0000
vt 0.6516 0.1887 0.0000
vt 0.6719 0.2011 0.0000
vt 0.6513 0.2022 0.0000
vt 0.6551 0.2895 0.0000
vt 0.6542 0.2741 0.0000
vt 0.6531 0.2609 0.0000
vt 0.6521 0.2488 0.0000
vt 0.6746 0.2489 0.0000
vt 0.6515 0.2371 0.0000
vt 0.6743 0.2366 0.0000
vt 0.6953 0.2364 0.0000
vt 0.6735 0.2251 0.0000
vt 0.6951 0.2238 0.0000
vt 0.7143 0.2370 0.0000
vt 0.6938 0.2108 0.0000
vt 0.6918 0.1994 0.0000
vt 0.7107 0.1976 0.0000
vt 0.7087 0.1820 0.0000
vt 0.7081 0.1673 0.0000
vt 0.7067 0.1494 0.0000
vt 0.6727 0.2122 0.0000
vt 0.6512 0.2128 0.0000
vt 0.6512 0.2256 0.0000
vt 0.7035 0.1318 0.0000
vt 0.6132 0.3860 0.0000
vt 0.6143 0.3697 0.0000
vt 0.6294 0.3719 0.0000
vt 0.6292 0.3899 0.0000
vt 0.6051 0.3921 0.0000
vt 0.5945 0.3849 0.0000
vt 0.5982 0.3777 0.0000
vt 0.6000 0.3680 0.0000
vt 0.6107 0.4065 0.0000
vt 0.6019 0.4060 0.0000
vt 0.6001 0.3955 0.0000
vt 0.5924 0.3914 0.0000
vt 0.5978 0.4103 0.0000
vt 0.6063 0.4239 0.0000
vt 0.5991 0.4221 0.0000
vt 0.5912 0.4184 0.0000
vt 0.5911 0.4074 0.0000
vt 0.5046 0.3850 0.0000
vt 0.5140 0.3811 0.0000
vt 0.5192 0.3922 0.0000
vt 0.5115 0.4021 0.0000
vt 0.5244 0.3980 0.0000
vt 0.5242 0.4089 0.0000
vt 0.5193 0.4235 0.0000
vt 0.5105 0.4227 0.0000
vt 0.5843 0.3732 0.0000
vt 0.5793 0.3812 0.0000
vt 0.5811 0.3891 0.0000
vt 0.5690 0.3751 0.0000
vt 0.5721 0.3702 0.0000
vt 0.5664 0.3841 0.0000
vt 0.5613 0.3787 0.0000
vt 0.5695 0.3896 0.0000
vt 0.5280 0.3882 0.0000
vt 0.5309 0.3965 0.0000
vt 0.5334 0.4055 0.0000
vt 0.5148 0.4594 0.0000
vt 0.5075 0.4633 0.0000
vt 0.5041 0.4457 0.0000
vt 0.5118 0.4422 0.0000
vt 0.5188 0.4404 0.0000
vt 0.5217 0.4577 0.0000
vt 0.5255 0.4708 0.0000
vt 0.5257 0.4817 0.0000
vt 0.5138 0.4794 0.0000
vt 0.5181 0.4706 0.0000
vt 0.5259 0.4172 0.0000
vt 0.5247 0.4252 0.0000
vt 0.5288 0.4191 0.0000
vt 0.5294 0.4256 0.0000
vt 0.5311 0.4165 0.0000
vt 0.6041 0.4687 0.0000
vt 0.6139 0.4673 0.0000
vt 0.6098 0.4825 0.0000
vt 0.5998 0.4838 0.0000
vt 0.5902 0.4846 0.0000
vt 0.5953 0.4740 0.0000
vt 0.5970 0.4586 0.0000
vt 0.6022 0.4576 0.0000
vt 0.5374 0.4140 0.0000
vt 0.5341 0.4246 0.0000
vt 0.5358 0.3756 0.0000
vt 0.5465 0.3721 0.0000
vt 0.5491 0.3779 0.0000
vt 0.5394 0.3848 0.0000
vt 0.5466 0.3873 0.0000
vt 0.5484 0.3947 0.0000
vt 0.5390 0.3950 0.0000
vt 0.5526 0.3825 0.0000
vt 0.5757 0.4638 0.0000
vt 0.5813 0.4684 0.0000
vt 0.5738 0.4754 0.0000
vt 0.5677 0.4655 0.0000
vt 0.5745 0.4520 0.0000
vt 0.5835 0.4545 0.0000
vt 0.5639 0.3953 0.0000
vt 0.5601 0.3920 0.0000
vt 0.5715 0.3954 0.0000
vt 0.5632 0.4015 0.0000
vt 0.5558 0.3992 0.0000
vt 0.5718 0.4039 0.0000
vt 0.5699 0.4172 0.0000
vt 0.5821 0.4051 0.0000
vt 0.5822 0.4171 0.0000
vt 0.5827 0.4360 0.0000
vt 0.5723 0.4351 0.0000
vt 0.5623 0.4093 0.0000
vt 0.5603 0.4356 0.0000
vt 0.5566 0.4196 0.0000
vt 0.5531 0.4093 0.0000
vt 0.5560 0.3879 0.0000
vt 0.5474 0.4043 0.0000
vt 0.5407 0.4045 0.0000
vt 0.5632 0.3721 0.0000
vt 0.5573 0.3741 0.0000
vt 0.5554 0.3693 0.0000
vt 0.5632 0.3686 0.0000
vt 0.5444 0.4130 0.0000
vt 0.5478 0.4233 0.0000
vt 0.5501 0.4356 0.0000
vt 0.5282 0.4565 0.0000
vt 0.5338 0.4538 0.0000
vt 0.5373 0.4654 0.0000
vt 0.5348 0.4713 0.0000
vt 0.5364 0.4835 0.0000
vt 0.5422 0.4665 0.0000
vt 0.5445 0.4760 0.0000
vt 0.5465 0.4850 0.0000
vt 0.5373 0.4543 0.0000
vt 0.5799 0.4882 0.0000
vt 0.5733 0.4887 0.0000
vt 0.5731 0.4841 0.0000
vt 0.5813 0.4822 0.0000
vt 0.5752 0.4935 0.0000
vt 0.5849 0.4922 0.0000
vt 0.5639 0.4796 0.0000
vt 0.4991 0.3690 0.0000
vt 0.4948 0.3877 0.0000
vt 0.4903 0.3701 0.0000
vt 0.5095 0.3683 0.0000
vt 0.5207 0.3678 0.0000
vt 0.5232 0.3790 0.0000
vt 0.5336 0.3675 0.0000
vt 0.5448 0.3663 0.0000
vt 0.4988 0.4058 0.0000
vt 0.4892 0.4083 0.0000
vt 0.4862 0.3896 0.0000
vt 0.4826 0.3716 0.0000
vt 0.4819 0.4099 0.0000
vt 0.4793 0.3907 0.0000
vt 0.4754 0.3733 0.0000
vt 0.4709 0.3923 0.0000
vt 0.4669 0.3753 0.0000
vt 0.6452 0.3753 0.0000
vt 0.6429 0.3933 0.0000
vt 0.6582 0.3790 0.0000
vt 0.6535 0.3967 0.0000
vt 0.6495 0.4153 0.0000
vt 0.6405 0.4123 0.0000
vt 0.3670 0.4288 0.0000
vt 0.3584 0.4124 0.0000
vt 0.3680 0.4075 0.0000
vt 0.3758 0.4250 0.0000
vt 0.3842 0.4429 0.0000
vt 0.3762 0.4460 0.0000
vt 0.3937 0.4606 0.0000
vt 0.3866 0.4632 0.0000
vt 0.3871 0.4201 0.0000
vt 0.3946 0.4384 0.0000
vt 0.4026 0.4568 0.0000
vt 0.4092 0.4743 0.0000
vt 0.4014 0.4776 0.0000
vt 0.4041 0.4344 0.0000
vt 0.4108 0.4530 0.0000
vt 0.4167 0.4713 0.0000
vt 0.4211 0.4884 0.0000
vt 0.4131 0.4913 0.0000
vt 0.4197 0.4488 0.0000
vt 0.4252 0.4670 0.0000
vt 0.4303 0.4840 0.0000
vt 0.4348 0.4994 0.0000
vt 0.4249 0.5033 0.0000
vt 0.4342 0.4628 0.0000
vt 0.4389 0.4802 0.0000
vt 0.4428 0.4969 0.0000
vt 0.4461 0.5132 0.0000
vt 0.4380 0.5149 0.0000
vt 0.4474 0.4775 0.0000
vt 0.4506 0.4947 0.0000
vt 0.4533 0.5116 0.0000
vt 0.4597 0.4924 0.0000
vt 0.4620 0.5093 0.0000
vt 0.4958 0.5010 0.0000
vt 0.4844 0.5038 0.0000
vt 0.4830 0.4870 0.0000
vt 0.4925 0.4848 0.0000
vt 0.5019 0.4828 0.0000
vt 0.5059 0.4989 0.0000
vt 0.5157 0.4970 0.0000
vt 0.5256 0.4953 0.0000
vt 0.6259 0.4945 0.0000
vt 0.6174 0.4941 0.0000
vt 0.6189 0.4818 0.0000
vt 0.6273 0.4824 0.0000
vt 0.6355 0.4819 0.0000
vt 0.6344 0.4942 0.0000
vt 0.4010 0.5107 0.0000
vt 0.4074 0.5085 0.0000
vt 0.4087 0.5219 0.0000
vt 0.4022 0.5234 0.0000
vt 0.4157 0.5067 0.0000
vt 0.4181 0.5199 0.0000
vt 0.4284 0.5172 0.0000
vt 0.4057 0.4936 0.0000
vt 0.3990 0.4968 0.0000
vt 0.3947 0.4809 0.0000
vt 0.6396 0.4691 0.0000
vt 0.6309 0.4692 0.0000
vt 0.6362 0.4514 0.0000
vt 0.6433 0.4531 0.0000
vt 0.6387 0.4319 0.0000
vt 0.6471 0.4345 0.0000
vt 0.6284 0.4486 0.0000
vt 0.6299 0.4295 0.0000
vt 0.6299 0.4097 0.0000
vt 0.6209 0.4272 0.0000
vt 0.6193 0.4067 0.0000
vt 0.6133 0.4256 0.0000
vt 0.6102 0.4470 0.0000
vt 0.6052 0.4443 0.0000
vt 0.6190 0.4477 0.0000
vt 0.6229 0.4670 0.0000
vt 0.5988 0.4418 0.0000
vt 0.5909 0.4579 0.0000
vt 0.5914 0.4383 0.0000
vt 0.5881 0.4728 0.0000
vt 0.6078 0.4936 0.0000
vt 0.5965 0.4929 0.0000
vt 0.5570 0.4926 0.0000
vt 0.5551 0.4861 0.0000
vt 0.5642 0.4873 0.0000
vt 0.5654 0.4932 0.0000
vt 0.5483 0.4926 0.0000
vt 0.5372 0.4937 0.0000
vt 0.4890 0.4672 0.0000
vt 0.4978 0.4655 0.0000
vt 0.4857 0.4487 0.0000
vt 0.4946 0.4474 0.0000
vt 0.4834 0.4294 0.0000
vt 0.4925 0.4275 0.0000
vt 0.5004 0.4260 0.0000
vt 0.4775 0.4503 0.0000
vt 0.4759 0.4310 0.0000
vt 0.4742 0.4112 0.0000
vt 0.4659 0.4329 0.0000
vt 0.4639 0.4136 0.0000
vt 0.4601 0.3952 0.0000
vt 0.4485 0.4178 0.0000
vt 0.4446 0.3999 0.0000
vt 0.4410 0.3827 0.0000
vt 0.4554 0.3786 0.0000
vt 0.4308 0.4040 0.0000
vt 0.4265 0.3865 0.0000
vt 0.4189 0.4076 0.0000
vt 0.4138 0.3902 0.0000
vt 0.4080 0.4116 0.0000
vt 0.4020 0.3939 0.0000
vt 0.3798 0.4022 0.0000
vt 0.3908 0.3979 0.0000
vt 0.3974 0.4158 0.0000
vt 0.4140 0.4301 0.0000
vt 0.4242 0.4259 0.0000
vt 0.4293 0.4446 0.0000
vt 0.4351 0.4218 0.0000
vt 0.4394 0.4405 0.0000
vt 0.4435 0.4595 0.0000
vt 0.4521 0.4365 0.0000
vt 0.4548 0.4561 0.0000
vt 0.4575 0.4749 0.0000
vt 0.4679 0.4526 0.0000
vt 0.4693 0.4720 0.0000
vt 0.4706 0.4899 0.0000
vt 0.4723 0.5066 0.0000
vt 0.4803 0.4692 0.0000
vt 0.5731 0.3656 0.0000
vt 0.5625 0.3646 0.0000
vt 0.5867 0.3670 0.0000
vt 0.5528 0.4777 0.0000
vt 0.5486 0.4666 0.0000
vt 0.5573 0.4664 0.0000
vt 0.5436 0.4520 0.0000
vt 0.5511 0.4507 0.0000
vt 0.5634 0.4514 0.0000
vt 0.5425 0.4366 0.0000
vt 0.5356 0.4375 0.0000
vt 0.5405 0.4240 0.0000
vt 0.5306 0.4381 0.0000
vt 0.5250 0.4391 0.0000
vt 0.5537 0.3645 0.0000
vt 0.5819 0.3965 0.0000
vt 0.5921 0.3995 0.0000
vt 0.0128 0.7249 0.0000
vt 0.0103 0.7223 0.0000
vt 0.0184 0.7168 0.0000
vt 0.0078 0.7199 0.0000
vt 0.0158 0.7148 0.0000
vt 0.0230 0.7076 0.0000
vt 0.0069 0.7326 0.0000
vt 0.0048 0.7300 0.0000
vt 0.0150 0.7278 0.0000
vt 0.3234 0.6804 0.0000
vt 0.3239 0.6766 0.0000
vt 0.3324 0.6796 0.0000
vt 0.3319 0.6825 0.0000
vt 0.0027 0.7277 0.0000
vt 0.3251 0.6733 0.0000
vt 0.3332 0.6767 0.0000
vt 0.0005 0.7256 0.0000
# 544 texture coords

o ProfesorLeftLeg
g ProfesorLeftLeg
usemtl rp_carla_rigged_001_mat
s off
f 1/1/1 2/2/2 3/3/3 4/4/4 
f 1/1/1 5/5/5 6/6/6 2/2/2 
f 7/7/7 8/8/8 9/9/9 
f 10/10/10 11/11/11 12/12/12 13/13/13 
f 11/11/11 14/14/14 15/15/15 12/12/12 
f 14/14/14 16/16/16 17/17/17 15/15/15 
f 18/18/18 19/19/19 20/20/20 
f 21/21/21 22/22/22 23/23/23 19/19/19 
f 19/19/19 23/23/23 24/24/24 20/20/20 
f 23/23/23 25/25/25 26/26/26 24/24/24 
f 27/27/27 28/28/28 29/29/29 30/30/30 
f 30/30/30 29/29/29 31/31/31 32/32/32 
f 33/33/33 34/34/34 35/35/35 36/36/36 
f 33/33/33 37/37/37 38/38/38 34/34/34 
f 39/39/39 40/40/40 38/38/38 37/37/37 
f 41/41/41 42/42/42 40/40/40 39/39/39 
f 43/43/43 44/44/44 42/42/42 41/41/41 
f 45/45/45 46/46/46 47/47/47 48/48/48 
f 48/48/48 47/47/47 49/49/49 50/50/50 
f 51/51/51 52/52/52 53/53/53 54/54/54 
f 54/54/54 55/55/55 56/56/56 51/51/51 
f 57/57/57 58/58/58 52/52/52 51/51/51 
f 58/58/58 57/57/57 27/27/27 
f 59/59/59 60/60/60 61/61/61 62/62/62 
f 62/62/62 61/61/61 54/54/54 53/53/53 
f 60/60/60 63/63/63 64/64/64 61/61/61 
f 61/61/61 64/64/64 55/55/55 54/54/54 
f 65/65/65 66/66/66 67/67/67 68/68/68 
f 67/67/67 69/69/69 70/70/70 68/68/68 
f 60/60/60 59/59/59 26/26/26 25/25/25 
f 6/6/6 71/71/71 72/72/72 73/73/73 
f 7/7/7 72/72/72 71/71/71 74/74/74 
f 74/74/74 13/75/13 8/8/8 7/7/7 
f 75/76/75 76/77/76 9/78/9 8/79/8 
f 75/76/75 77/80/77 18/18/18 76/77/76 
f 77/80/77 21/21/21 19/19/19 18/18/18 
f 17/17/17 69/69/69 22/22/22 21/21/21 
f 28/28/28 46/46/46 78/81/78 29/29/29 
f 29/29/29 78/81/78 35/35/35 31/31/31 
f 32/32/32 31/31/31 79/82/79 
f 80/83/80 44/44/44 3/3/3 81/84/81 
f 28/28/28 27/27/27 57/57/57 82/85/82 
f 82/85/82 57/57/57 51/51/51 56/56/56 
f 55/55/55 83/86/83 49/49/49 56/56/56 
f 63/63/63 66/66/66 84/87/84 64/64/64 
f 64/64/64 84/87/84 83/86/83 55/55/55 
f 60/60/60 25/25/25 85/88/85 63/63/63 
f 25/25/25 23/23/23 22/22/22 85/88/85 
f 2/2/2 86/89/86 81/84/81 3/3/3 
f 2/2/2 6/6/6 73/73/73 86/89/86 
f 13/13/13 12/12/12 75/76/75 8/79/8 
f 12/12/12 15/15/15 77/80/77 75/76/75 
f 15/15/15 17/17/17 21/21/21 77/80/77 
f 34/34/34 79/82/79 31/31/31 35/35/35 
f 38/38/38 87/90/87 79/82/79 34/34/34 
f 40/40/40 88/91/88 87/90/87 38/38/38 
f 42/42/42 89/92/89 88/91/88 40/40/40 
f 44/44/44 80/83/80 89/92/89 42/42/42 
f 46/46/46 28/28/28 82/85/82 47/47/47 
f 47/47/47 82/85/82 56/56/56 49/49/49 
f 66/66/66 63/63/63 85/88/85 67/67/67 
f 85/88/85 22/22/22 69/69/69 67/67/67 
f 5/5/5 90/93/90 71/71/71 6/6/6 
f 74/74/74 71/71/71 90/93/90 91/94/91 
f 91/94/91 10/95/10 13/75/13 74/74/74 
f 16/16/16 70/70/70 69/69/69 17/17/17 
f 46/46/46 45/45/45 92/96/92 78/81/78 
f 78/81/78 92/96/92 36/36/36 35/35/35 
f 44/44/44 43/43/43 4/4/4 3/3/3 
f 83/86/83 93/97/93 50/50/50 49/49/49 
f 66/66/66 65/65/65 94/98/94 84/87/84 
f 84/87/84 94/98/94 93/97/93 83/86/83 
f 95/99/95 96/100/96 97/101/97 98/102/98 
f 99/103/99 100/104/100 95/99/95 98/102/98 
f 98/102/98 97/101/97 101/105/101 102/106/102 
f 103/107/103 104/108/104 99/103/99 98/102/98 
f 105/109/105 106/110/106 107/111/107 108/112/108 
f 107/111/107 109/113/109 110/114/110 108/112/108 
f 108/112/108 110/114/110 111/115/111 105/109/105 
f 112/116/112 113/117/113 114/118/114 115/119/115 
f 112/116/112 115/119/115 116/120/116 117/121/117 
f 117/121/117 118/122/118 113/117/113 112/116/112 
f 117/121/117 107/111/107 106/110/106 118/122/118 
f 106/110/106 119/123/119 120/124/120 118/122/118 
f 120/124/120 121/125/121 122/126/122 118/122/118 
f 118/122/118 122/126/122 123/127/123 113/117/113 
f 124/128/124 125/129/125 126/130/126 
f 125/129/125 127/131/127 128/132/128 126/130/126 
f 125/129/125 124/128/124 129/133/129 130/134/130 
f 130/134/130 131/135/131 127/131/127 125/129/125 
f 131/135/131 132/136/132 133/137/133 127/131/127 
f 131/135/131 130/134/130 134/138/134 135/139/135 
f 135/139/135 136/140/136 132/136/132 131/135/131 
f 136/140/136 137/141/137 138/142/138 132/136/132 
f 136/140/136 135/139/135 139/143/139 140/144/140 
f 140/144/140 141/145/141 137/141/137 136/140/136 
f 141/145/141 142/146/142 143/147/143 137/141/137 
f 141/148/141 140/149/140 100/104/100 144/150/144 
f 144/150/144 145/151/145 142/152/142 141/148/141 
f 145/151/145 144/150/144 146/153/146 147/154/147 
f 147/154/147 146/153/146 148/155/148 149/156/149 
f 149/156/149 148/155/148 114/118/114 150/157/150 
f 150/157/150 114/118/114 113/117/113 123/127/123 
f 146/153/146 99/103/99 104/108/104 148/155/148 
f 148/155/148 104/108/104 115/119/115 114/118/114 
f 144/150/144 100/104/100 99/103/99 146/153/146 
f 151/158/151 152/159/152 138/142/138 153/160/153 
f 153/160/153 138/142/138 137/141/137 143/147/143 
f 152/159/152 151/158/151 154/161/154 155/162/155 
f 155/162/155 156/163/156 133/137/133 152/159/152 
f 152/159/152 133/137/133 132/136/132 138/142/138 
f 156/163/156 155/162/155 157/164/157 158/165/158 
f 158/165/158 159/166/159 128/132/128 156/163/156 
f 156/163/156 128/132/128 127/131/127 133/137/133 
f 158/165/158 157/164/157 160/167/160 161/168/161 
f 161/168/161 162/169/162 159/166/159 158/165/158 
f 160/167/160 163/170/163 164/171/164 161/168/161 
f 164/171/164 165/172/165 162/169/162 161/168/161 
f 164/171/164 166/173/166 167/174/167 165/172/165 
f 168/175/168 169/176/169 129/133/129 170/177/170 
f 170/177/170 129/133/129 124/128/124 171/178/171 
f 169/176/169 134/138/134 130/134/130 129/133/129 
f 169/176/169 168/175/168 172/179/172 173/180/173 
f 173/180/173 174/181/174 134/138/134 169/176/169 
f 174/181/174 139/143/139 135/139/135 134/138/134 
f 174/182/174 173/183/173 175/184/175 96/100/96 
f 96/100/96 95/99/95 139/185/139 174/182/174 
f 175/184/175 176/186/176 177/187/177 178/188/178 
f 178/188/178 97/101/97 96/100/96 175/184/175 
f 173/183/173 172/189/172 176/186/176 175/184/175 
f 179/190/179 101/105/101 97/101/97 178/188/178 
f 180/191/180 181/192/181 101/105/101 179/190/179 
f 182/193/182 183/194/183 184/195/184 181/192/181 
f 181/192/181 184/195/184 102/106/102 101/105/101 
f 183/194/183 185/196/185 186/197/186 184/195/184 
f 184/195/184 186/197/186 187/198/187 102/106/102 
f 103/107/103 98/102/98 102/106/102 187/198/187 
f 186/197/186 110/114/110 109/113/109 187/198/187 
f 187/198/187 109/113/109 116/120/116 103/107/103 
f 185/196/185 111/115/111 110/114/110 186/197/186 
f 185/196/185 183/194/183 188/199/188 189/200/189 
f 189/200/189 190/201/190 111/115/111 185/196/185 
f 191/202/191 190/201/190 189/200/189 
f 190/201/190 191/202/191 192/203/192 193/204/193 
f 190/201/190 193/204/193 105/109/105 111/115/111 
f 193/204/193 119/123/119 106/110/106 105/109/105 
f 193/204/193 192/203/192 194/205/194 119/123/119 
f 195/206/195 120/124/120 119/123/119 194/205/194 
f 192/203/192 196/207/196 197/208/197 194/205/194 
f 194/205/194 197/208/197 198/209/198 195/206/195 
f 199/210/199 200/211/200 195/206/195 198/209/198 
f 197/208/197 201/212/201 202/213/202 198/209/198 
f 198/209/198 202/213/202 203/214/203 199/210/199 
f 201/212/201 204/215/204 205/216/205 202/213/202 
f 205/216/205 206/217/206 203/214/203 202/213/202 
f 205/216/205 204/215/204 207/218/207 208/219/208 
f 208/219/208 209/220/209 206/217/206 205/216/205 
f 208/219/208 207/218/207 210/221/210 211/222/211 
f 211/222/211 212/223/212 209/220/209 208/219/208 
f 212/223/212 211/222/211 213/224/213 214/225/214 
f 215/226/215 216/227/216 160/167/160 157/164/157 
f 215/226/215 157/164/157 155/162/155 154/161/154 
f 216/227/216 217/228/217 163/170/163 160/167/160 
f 217/228/217 218/229/218 219/230/219 163/170/163 
f 218/229/218 220/231/220 221/232/221 219/230/219 
f 219/230/219 221/232/221 222/233/222 166/173/166 
f 166/173/166 164/171/164 163/170/163 219/230/219 
f 221/232/221 223/234/223 224/235/224 222/233/222 
f 225/236/225 167/174/167 166/173/166 222/233/222 
f 226/237/226 227/238/227 228/239/228 
f 227/238/227 210/221/210 229/240/229 228/239/228 
f 230/241/230 207/218/207 204/215/204 231/242/231 
f 229/240/229 210/221/210 207/218/207 230/241/230 
f 227/238/227 213/224/213 211/222/211 210/221/210 
f 227/238/227 226/237/226 232/243/232 213/224/213 
f 233/244/233 214/225/214 213/224/213 232/243/232 
f 226/237/226 224/235/224 223/234/223 232/243/232 
f 232/243/232 223/234/223 234/245/234 233/244/233 
f 223/234/223 221/232/221 220/231/220 234/245/234 
f 201/212/201 235/246/235 231/242/231 204/215/204 
f 201/212/201 197/208/197 196/207/196 235/246/235 
f 121/125/121 120/124/120 195/206/195 200/211/200 
f 196/207/196 192/203/192 191/202/191 
f 140/149/140 139/185/139 95/99/95 100/104/100 
f 117/121/117 116/120/116 109/113/109 107/111/107 
f 115/119/115 104/108/104 103/107/103 116/120/116 
f 126/130/126 128/132/128 159/166/159 
f 236/247/236 206/248/206 209/249/209 237/250/237 
f 238/251/238 239/252/239 240/253/240 236/247/236 
f 240/253/240 203/254/203 206/248/206 236/247/236 
f 238/251/238 241/255/241 242/256/242 243/257/243 
f 243/257/243 244/258/244 239/252/239 238/251/238 
f 245/259/245 242/256/242 246/260/246 247/261/247 
f 245/259/245 247/261/247 248/262/248 249/263/249 
f 250/264/250 251/265/251 252/266/252 253/267/253 
f 253/267/253 252/266/252 254/268/254 255/269/255 
f 255/269/255 256/270/256 257/271/257 253/267/253 
f 258/272/258 240/253/240 239/252/239 259/273/259 
f 239/252/239 244/258/244 260/274/260 259/273/259 
f 259/273/259 261/275/261 262/276/262 258/272/258 
f 263/277/263 264/278/264 261/275/261 259/273/259 
f 259/273/259 260/274/260 265/279/265 263/277/263 
f 254/268/254 252/266/252 266/280/266 267/281/267 
f 254/268/254 267/281/267 268/282/268 255/269/255 
f 269/283/269 270/284/270 271/285/271 272/286/272 
f 272/286/272 273/287/273 274/288/274 269/283/269 
f 275/289/275 276/290/276 277/291/277 278/292/278 
f 278/292/278 277/291/277 270/284/270 269/283/269 
f 274/288/274 275/289/275 278/292/278 269/283/269 
f 279/293/279 280/294/280 256/270/256 255/269/255 
f 281/295/281 282/296/282 280/294/280 279/293/279 
f 279/293/279 255/269/255 283/297/283 281/295/281 
f 284/298/284 285/299/285 286/300/286 287/301/287 
f 287/301/287 288/302/288 289/303/289 284/298/284 
f 284/298/284 289/303/289 290/304/290 291/305/291 
f 268/282/268 292/306/292 283/297/283 255/269/255 
f 281/295/281 283/297/283 293/307/293 282/296/282 
f 294/308/294 295/309/295 296/310/296 297/311/297 
f 298/312/298 299/313/299 300/314/300 297/311/297 
f 296/310/296 301/315/301 298/312/298 297/311/297 
f 302/316/302 303/317/303 304/318/304 305/319/305 
f 302/316/302 306/320/306 307/321/307 303/317/303 
f 308/322/308 309/323/309 265/279/265 310/324/310 
f 308/322/308 311/325/311 312/326/312 309/323/309 
f 310/324/310 313/327/313 311/325/311 308/322/308 
f 314/328/314 313/327/313 315/329/315 316/330/316 
f 316/330/316 317/331/317 318/332/318 314/328/314 
f 319/333/319 311/325/311 313/327/313 314/328/314 
f 314/328/314 318/332/318 320/334/320 321/335/321 
f 321/335/321 322/336/322 319/333/319 314/328/314 
f 298/312/298 301/315/301 323/337/323 299/313/299 
f 324/338/324 325/339/325 300/314/300 299/313/299 
f 312/326/312 322/336/322 324/338/324 299/313/299 
f 323/337/323 309/323/309 312/326/312 299/313/299 
f 326/340/326 261/275/261 264/278/264 327/341/327 
f 327/341/327 328/342/328 329/343/329 326/340/326 
f 329/343/329 262/276/262 261/275/261 326/340/326 
f 330/344/330 325/339/325 324/338/324 322/336/322 
f 322/336/322 321/335/321 331/345/331 330/344/330 
f 321/335/321 320/334/320 332/346/332 331/345/331 
f 333/347/333 334/348/334 335/349/335 336/350/336 
f 336/350/336 337/351/337 276/290/276 275/289/275 
f 275/289/275 274/288/274 333/347/333 336/350/336 
f 336/350/336 335/349/335 338/352/338 339/353/339 
f 339/353/339 340/354/340 337/351/337 336/350/336 
f 335/349/335 334/348/334 341/355/341 338/352/338 
f 342/356/342 343/357/343 344/358/344 345/359/345 
f 93/360/93 343/357/343 342/356/342 50/361/50 
f 345/359/345 288/302/288 50/361/50 342/356/342 
f 344/358/344 346/362/346 304/318/304 345/359/345 
f 145/363/145 250/264/250 347/364/347 142/365/142 
f 145/363/145 147/366/147 251/265/251 250/264/250 
f 147/366/147 149/367/149 348/368/348 251/265/251 
f 266/280/266 252/266/252 251/265/251 348/368/348 
f 149/367/149 150/369/150 294/308/294 348/368/348 
f 294/308/294 297/311/297 266/280/266 348/368/348 
f 123/370/123 295/309/295 294/308/294 150/369/150 
f 349/371/349 350/372/350 351/373/351 347/364/347 
f 347/364/347 351/373/351 143/374/143 142/365/142 
f 347/364/347 250/264/250 253/267/253 349/371/349 
f 350/372/350 352/375/352 353/376/353 351/373/351 
f 353/376/353 153/377/153 143/374/143 351/373/351 
f 153/377/153 353/376/353 354/378/354 151/379/151 
f 212/380/212 355/381/355 237/250/237 209/249/209 
f 214/382/214 356/383/356 355/381/355 212/380/212 
f 356/383/356 357/384/357 358/385/358 355/381/355 
f 356/386/356 214/387/214 233/388/233 359/389/359 
f 359/389/359 360/390/360 357/391/357 356/386/356 
f 360/390/360 361/392/361 362/393/362 357/391/357 
f 360/390/360 359/389/359 363/394/363 364/395/364 
f 364/395/364 365/396/365 361/392/361 360/390/360 
f 366/397/366 367/398/367 361/392/361 365/396/365 
f 364/395/364 368/399/368 369/400/369 365/396/365 
f 365/396/365 369/400/369 370/401/370 366/397/366 
f 371/402/371 372/403/372 366/397/366 370/401/370 
f 369/400/369 373/404/373 374/405/374 370/401/370 
f 370/401/370 374/405/374 375/406/375 371/402/371 
f 376/407/376 377/408/377 371/402/371 375/406/375 
f 374/405/374 378/409/378 379/410/379 375/406/375 
f 375/406/375 379/410/379 380/411/380 376/407/376 
f 4/412/4 43/413/43 376/407/376 380/411/380 
f 379/410/379 381/414/381 382/415/382 380/411/380 
f 380/411/380 382/415/382 1/416/1 4/412/4 
f 382/415/382 383/417/383 5/418/5 1/416/1 
f 10/419/10 91/420/91 384/421/384 385/422/385 
f 385/422/385 386/423/386 11/424/11 10/419/10 
f 386/423/386 277/291/277 14/425/14 11/424/11 
f 14/425/14 277/291/277 276/290/276 16/426/16 
f 36/427/36 92/428/92 387/429/387 388/430/388 
f 388/430/388 389/431/389 33/432/33 36/427/36 
f 389/433/389 390/434/390 37/435/37 33/436/33 
f 390/434/390 391/437/391 39/438/39 37/435/37 
f 391/437/391 377/408/377 41/439/41 39/438/39 
f 377/408/377 376/407/376 43/413/43 41/439/41 
f 391/437/391 390/434/390 392/440/392 372/403/372 
f 372/403/372 371/402/371 377/408/377 391/437/391 
f 390/434/390 389/433/389 393/441/393 392/440/392 
f 392/440/392 393/441/393 394/442/394 367/398/367 
f 367/398/367 366/397/366 372/403/372 392/440/392 
f 393/443/393 395/444/395 396/445/396 394/446/394 
f 396/445/396 397/447/397 362/448/362 394/446/394 
f 394/442/394 362/393/362 361/392/361 367/398/367 
f 397/447/397 396/445/396 398/449/398 399/450/399 
f 399/450/399 400/451/400 358/385/358 397/447/397 
f 397/447/397 358/385/358 357/384/357 362/448/362 
f 400/451/400 399/450/399 401/452/401 402/453/402 
f 402/453/402 236/247/236 237/250/237 400/451/400 
f 400/451/400 237/250/237 355/381/355 358/385/358 
f 402/453/402 401/452/401 403/454/403 241/255/241 
f 241/255/241 238/251/238 236/247/236 402/453/402 
f 403/454/403 404/455/404 405/456/405 246/260/246 
f 246/260/246 242/256/242 241/255/241 403/454/403 
f 401/452/401 406/457/406 404/455/404 403/454/403 
f 285/299/285 284/298/284 404/455/404 406/457/406 
f 406/457/406 401/452/401 399/450/399 398/449/398 
f 406/457/406 398/449/398 407/458/407 285/299/285 
f 387/429/387 286/300/286 285/299/285 407/458/407 
f 398/449/398 396/445/396 395/444/395 407/458/407 
f 407/458/407 395/444/395 388/430/388 387/429/387 
f 291/305/291 290/304/290 408/459/408 405/456/405 
f 408/459/408 247/261/247 246/260/246 405/456/405 
f 404/455/404 284/298/284 291/305/291 405/456/405 
f 408/459/408 290/304/290 409/460/409 410/461/410 
f 410/461/410 248/262/248 247/261/247 408/459/408 
f 410/461/410 409/460/409 307/321/307 317/331/317 
f 317/331/317 316/330/316 248/262/248 410/461/410 
f 409/460/409 411/462/411 303/317/303 307/321/307 
f 409/460/409 290/304/290 289/303/289 411/462/411 
f 411/462/411 345/359/345 304/318/304 303/317/303 
f 411/462/411 289/303/289 288/302/288 345/359/345 
f 395/444/395 393/443/393 389/431/389 388/430/388 
f 92/428/92 45/463/45 286/300/286 387/429/387 
f 45/463/45 48/464/48 287/301/287 286/300/286 
f 48/464/48 50/361/50 288/302/288 287/301/287 
f 65/465/65 412/466/412 413/467/413 94/468/94 
f 94/468/94 413/467/413 343/357/343 93/360/93 
f 68/469/68 340/354/340 412/466/412 65/465/65 
f 70/470/70 337/351/337 340/354/340 68/469/68 
f 16/426/16 276/290/276 337/351/337 70/470/70 
f 385/422/385 414/471/414 415/472/415 386/423/386 
f 386/423/386 415/472/415 270/284/270 277/291/277 
f 414/471/414 416/473/416 417/474/417 415/472/415 
f 417/474/417 271/285/271 270/284/270 415/472/415 
f 417/474/417 416/473/416 418/475/418 419/476/419 
f 419/476/419 420/477/420 271/285/271 417/474/417 
f 420/477/420 419/476/419 350/372/350 349/371/349 
f 349/371/349 253/267/253 257/271/257 420/477/420 
f 420/477/420 257/271/257 272/286/272 271/285/271 
f 419/476/419 418/475/418 352/375/352 350/372/350 
f 416/473/416 421/478/421 422/479/422 418/475/418 
f 418/475/418 422/479/422 423/480/423 352/375/352 
f 422/479/422 424/481/424 425/482/425 423/480/423 
f 425/482/425 426/483/426 354/378/354 423/480/423 
f 354/378/354 353/376/353 352/375/352 423/480/423 
f 425/482/425 427/484/427 428/485/428 426/483/426 
f 426/483/426 428/485/428 215/486/215 154/487/154 
f 426/483/426 154/487/154 151/379/151 354/378/354 
f 428/485/428 429/488/429 216/489/216 215/486/215 
f 429/488/429 430/490/430 217/491/217 216/489/216 
f 430/490/430 431/492/431 218/493/218 217/491/217 
f 363/394/363 359/389/359 233/388/233 234/494/234 
f 234/494/234 220/495/220 432/496/432 363/394/363 
f 368/399/368 364/395/364 363/394/363 432/496/432 
f 220/495/220 218/493/218 431/492/431 432/496/432 
f 432/496/432 431/492/431 433/497/433 368/399/368 
f 373/404/373 369/400/369 368/399/368 433/497/433 
f 431/492/431 430/490/430 434/498/434 433/497/433 
f 433/497/433 434/498/434 435/499/435 373/404/373 
f 378/409/378 374/405/374 373/404/373 435/499/435 
f 434/498/434 436/500/436 437/501/437 435/499/435 
f 435/499/435 437/501/437 438/502/438 378/409/378 
f 381/414/381 379/410/379 378/409/378 438/502/438 
f 437/501/437 439/503/439 440/504/440 438/502/438 
f 438/502/438 440/504/440 441/505/441 381/414/381 
f 383/417/383 382/415/382 381/414/381 441/505/441 
f 440/504/440 442/506/442 443/507/443 441/505/441 
f 441/505/441 443/507/443 444/508/444 383/417/383 
f 90/509/90 5/418/5 383/417/383 444/508/444 
f 443/507/443 445/510/445 384/421/384 444/508/444 
f 444/508/444 384/421/384 91/420/91 90/509/90 
f 445/510/445 443/507/443 442/506/442 421/478/421 
f 421/478/421 416/473/416 414/471/414 445/510/445 
f 445/510/445 414/471/414 385/422/385 384/421/384 
f 442/506/442 440/504/440 439/503/439 424/481/424 
f 424/481/424 422/479/422 421/478/421 442/506/442 
f 439/503/439 437/501/437 436/500/436 427/484/427 
f 427/484/427 425/482/425 424/481/424 439/503/439 
f 436/500/436 434/498/434 430/490/430 429/488/429 
f 429/488/429 428/485/428 427/484/427 436/500/436 
f 200/511/200 262/276/262 329/343/329 121/512/121 
f 200/511/200 199/513/199 258/272/258 262/276/262 
f 199/513/199 203/254/203 240/253/240 258/272/258 
f 446/514/446 412/466/412 340/354/340 339/353/339 
f 339/353/339 338/352/338 447/515/447 446/514/446 
f 446/514/446 447/515/447 448/516/448 346/362/346 
f 447/515/447 449/517/449 450/518/450 448/516/448 
f 448/516/448 450/518/450 451/519/451 305/319/305 
f 305/319/305 304/318/304 346/362/346 448/516/448 
f 450/518/450 332/346/332 320/334/320 451/519/451 
f 451/519/451 320/334/320 318/332/318 306/320/306 
f 306/320/306 302/316/302 305/319/305 451/519/451 
f 449/517/449 452/520/452 332/346/332 450/518/450 
f 449/517/449 341/355/341 453/521/453 452/520/452 
f 453/521/453 293/307/293 454/522/454 452/520/452 
f 452/520/452 454/522/454 331/345/331 332/346/332 
f 293/307/293 283/297/283 292/306/292 454/522/454 
f 454/522/454 292/306/292 330/344/330 331/345/331 
f 453/521/453 341/355/341 334/348/334 455/523/455 
f 453/521/453 455/523/455 282/296/282 293/307/293 
f 334/348/334 333/347/333 456/524/456 455/523/455 
f 455/523/455 456/524/456 280/294/280 282/296/282 
f 456/524/456 333/347/333 274/288/274 273/287/273 
f 273/287/273 256/270/256 280/294/280 456/524/456 
f 449/517/449 447/515/447 338/352/338 341/355/341 
f 412/466/412 446/514/446 346/362/346 413/467/413 
f 413/467/413 346/362/346 344/358/344 343/357/343 
f 122/525/122 328/342/328 295/309/295 123/370/123 
f 121/512/121 329/343/329 328/342/328 122/525/122 
f 292/306/292 268/282/268 325/339/325 330/344/330 
f 328/342/328 327/341/327 296/310/296 295/309/295 
f 327/341/327 264/278/264 301/315/301 296/310/296 
f 325/339/325 268/282/268 267/281/267 300/314/300 
f 323/337/323 301/315/301 264/278/264 263/277/263 
f 263/277/263 265/279/265 309/323/309 323/337/323 
f 312/326/312 311/325/311 319/333/319 322/336/322 
f 317/331/317 307/321/307 306/320/306 318/332/318 
f 316/330/316 315/329/315 249/263/249 248/262/248 
f 313/327/313 310/324/310 457/526/457 315/329/315 
f 315/329/315 457/526/457 458/527/458 249/263/249 
f 310/324/310 265/279/265 260/274/260 457/526/457 
f 457/526/457 260/274/260 244/258/244 458/527/458 
f 300/314/300 267/281/267 266/280/266 297/311/297 
f 273/287/273 272/286/272 257/271/257 256/270/256 
f 458/527/458 244/258/244 243/257/243 242/256/242 
f 242/256/242 245/259/245 249/263/249 458/527/458 
f 459/528/459 460/529/460 461/530/461 
f 460/529/460 168/531/168 170/532/170 461/530/461 
f 461/530/461 170/532/170 171/533/171 
f 462/534/462 463/535/463 459/528/459 464/536/464 
f 465/537/465 466/538/466 467/539/467 463/540/463 
f 463/535/463 467/541/467 460/529/460 459/528/459 
f 466/538/466 176/542/176 172/543/172 467/539/467 
f 467/541/467 172/544/172 168/531/168 460/529/460 
# 432 polygons - 11 triangles

