# 3ds Max Wavefront OBJ Exporter v0.99 - (c)2007 guruware
# File Created: 16.04.2025 21:22:03

mtllib ProfesorRightLeg.mtl

#
# object ProfesorRightLeg
#

v  -3.4096 -29.6480 8.3672
v  -3.6630 -32.0200 8.2959
v  -3.7363 -31.6897 6.5447
v  -3.6315 -29.3500 6.7208
v  -3.6967 -29.9213 10.1146
v  -4.0141 -32.0695 10.0167
v  -4.6962 -30.2250 11.9747
v  -5.0810 -32.2899 11.6974
v  -6.0861 -30.5786 13.9324
v  -6.4606 -32.6468 13.3512
v  -7.7696 -30.7495 15.2376
v  -7.8493 -32.8186 14.8029
v  -9.2907 -30.8560 16.0576
v  -9.2690 -32.9725 15.7090
v  -10.6739 -30.8681 16.3151
v  -10.7272 -32.9260 15.8102
v  -11.9564 -30.7952 16.1146
v  -12.0341 -32.7760 15.5265
v  -13.0576 -30.6044 15.3096
v  -13.2533 -32.5017 14.9568
v  -13.6616 -30.3337 13.8853
v  -13.8130 -32.2015 13.6681
v  -14.8270 -30.1603 12.8321
v  -14.4944 -32.0454 12.2821
v  -16.0661 -30.0516 12.1231
v  -15.6971 -31.8742 11.5819
v  -15.2185 -33.5613 11.0636
v  -16.3341 -33.2827 10.1329
v  -16.0809 -34.9716 9.7782
v  -15.0080 -35.4013 10.6855
v  -16.3073 -34.5117 8.5358
v  -16.4438 -36.3310 8.2175
v  -7.9805 -36.0272 2.9503
v  -7.7433 -34.1785 2.9687
v  -6.2298 -34.8142 3.8624
v  -5.9974 -32.9012 3.8096
v  -4.7625 -33.4169 4.9425
v  -5.0731 -35.4467 4.8817
v  -3.9914 -33.8850 6.4784
v  -4.4953 -35.9956 6.4358
v  -5.8602 -28.8285 4.0261
v  -5.9039 -30.9227 3.8787
v  -7.6645 -30.5653 3.1545
v  -7.6684 -28.6398 3.3549
v  -9.5631 -30.3259 2.8018
v  -9.6247 -28.4398 2.8474
v  -9.6567 -33.6920 2.4432
v  -9.6878 -35.5529 2.2782
v  -11.6546 -35.3481 2.3796
v  -11.7218 -33.4838 2.5360
v  -11.7636 -31.8666 2.7927
v  -9.6136 -32.0054 2.5872
v  -13.3433 -35.3179 3.1837
v  -13.4475 -33.4743 3.3653
v  -13.3919 -31.9177 3.8385
v  -13.6776 -28.7354 4.2597
v  -13.3936 -30.3644 4.2341
v  -14.7797 -30.5028 5.2810
v  -14.6565 -28.8846 5.7443
v  -14.4777 -35.4114 4.4706
v  -15.3381 -35.6154 5.8156
v  -15.2361 -33.8036 6.0097
v  -14.5045 -33.5953 4.6541
v  -15.3441 -32.2434 6.2672
v  -14.7321 -32.0229 4.8721
v  -15.8491 -35.9538 7.0947
v  -15.6831 -34.1258 7.3581
v  -15.8275 -32.5296 7.5391
v  -15.7445 -30.9699 7.8086
v  -16.1266 -31.2700 9.0938
v  -15.9424 -29.5077 9.4497
v  -15.7657 -29.2503 8.1401
v  -16.3189 -31.5933 10.4225
v  -16.2554 -29.7681 10.7874
v  -3.8955 -34.2676 8.3096
v  -4.2832 -34.1239 10.0496
v  -5.4876 -34.2085 11.4239
v  -6.6308 -34.6485 12.8989
v  -7.8560 -34.7761 14.3935
v  -9.2460 -34.9331 15.2444
v  -10.7439 -34.8733 15.3475
v  -12.0930 -34.6326 14.9682
v  -13.3139 -34.2460 14.5335
v  -14.0919 -33.9298 13.5714
v  -14.3992 -33.8567 12.0945
v  -4.4736 -29.0696 5.2386
v  -4.5587 -31.3122 5.0341
v  -7.6962 -32.3898 3.0649
v  -11.8575 -30.2432 2.8833
v  -11.9163 -28.6225 3.3088
v  -15.3524 -30.7133 6.6288
v  -15.4066 -28.9974 6.9065
v  -16.1001 -32.8915 8.8184
v  -4.3118 -36.4356 8.2607
v  -4.5654 -36.1867 10.0852
v  -5.4561 -36.1917 11.3641
v  -13.3951 -36.0406 14.1235
v  -14.3258 -35.7456 13.4384
v  -14.7411 -35.8661 12.1570
v  -17.4933 -16.5157 11.1830
v  -17.1219 -19.2432 11.8406
v  -16.9255 -19.0479 13.3091
v  -17.4743 -16.0356 13.3815
v  -17.0268 -19.0317 10.0241
v  -16.8306 -19.7770 10.8555
v  -16.5503 -21.5327 10.5436
v  -16.8865 -21.7223 11.7405
v  -16.4471 -21.2055 9.3415
v  -14.8199 -16.1485 5.5670
v  -15.5192 -17.2420 6.4333
v  -16.2281 -14.7543 7.1301
v  -15.0607 -13.9829 5.5197
v  -13.1596 -13.5464 4.3057
v  -13.5911 -16.6102 4.5727
v  -14.3595 -19.3276 5.0657
v  -15.9732 -23.4877 8.4924
v  -15.7384 -22.6697 7.3546
v  -15.1436 -24.3463 6.3735
v  -15.5217 -26.0723 7.3058
v  -15.9889 -26.6005 8.8338
v  -16.3954 -24.0226 9.8142
v  -14.3612 -25.4093 5.3238
v  -14.5922 -26.7885 5.7191
v  -15.3897 -20.0218 6.4905
v  -16.4720 -18.2165 7.5192
v  -15.9773 -20.5309 7.3437
v  -16.5332 -19.1213 8.2253
v  -14.7652 -21.5638 5.7633
v  -15.5494 -22.0441 6.3128
v  -12.1100 -20.5961 3.6627
v  -13.3917 -22.0549 4.4420
v  -14.1495 -21.1136 5.0417
v  -14.2245 -22.7835 4.9953
v  -12.8710 -23.1858 4.1341
v  -13.5691 -23.7921 4.2685
v  -12.7840 -24.4624 3.7330
v  -11.6574 -23.7085 3.4528
v  -13.6201 -26.0867 4.4960
v  -14.1263 -24.5317 4.6104
v  -12.8738 -25.6529 3.7458
v  -13.5895 -27.2117 4.4450
v  -12.4391 -27.2558 3.3445
v  -9.3600 -20.4195 3.0819
v  -9.4264 -23.6116 2.9823
v  -11.1688 -25.9283 2.7556
v  -11.0000 -27.3404 2.8343
v  -9.3319 -26.2177 2.8797
v  -12.8612 -10.5795 3.7771
v  -14.9898 -11.0101 5.3172
v  -14.9129 -8.3588 4.9000
v  -12.5070 -8.3001 3.4425
v  -9.7116 -8.0698 3.1828
v  -10.2106 -10.2243 3.4859
v  -10.7695 -13.1472 3.5612
v  -7.2161 -8.2599 3.3328
v  -7.6260 -10.0950 3.1865
v  -8.2346 -12.8424 3.2664
v  -8.8976 -16.6428 3.0199
v  -11.4344 -16.7699 3.5390
v  -5.3550 -10.2652 4.0310
v  -5.8943 -13.0282 3.7256
v  -6.6866 -16.6871 3.6601
v  -7.1587 -20.3569 3.5314
v  -3.8591 -13.4982 4.7040
v  -4.6791 -16.9805 4.6689
v  -5.1675 -20.4548 4.3627
v  -5.5821 -23.4794 4.1953
v  -7.4047 -23.5472 3.3448
v  -3.3236 -17.2988 6.2857
v  -3.7554 -20.5445 6.1478
v  -4.3357 -23.5003 5.7890
v  -4.4445 -26.3482 5.4959
v  -5.8036 -26.2776 4.1137
v  -2.9443 -20.6323 7.9342
v  -3.3646 -23.6252 7.5334
v  -3.5559 -26.5237 7.1061
v  -2.9469 -23.8065 9.2794
v  -3.2391 -26.7766 8.7606
v  -3.4135 -27.0805 10.4632
v  -4.3471 -27.4105 12.2956
v  -5.5867 -27.8338 14.4134
v  -7.4211 -28.0115 15.7512
v  -9.0768 -28.1183 16.5376
v  -10.4990 -28.1969 16.9558
v  -11.8252 -28.1870 16.7781
v  -12.7938 -28.0657 15.6905
v  -13.8295 -27.8765 14.4486
v  -15.1782 -27.8403 13.7445
v  -16.1574 -27.6574 12.7806
v  -7.5700 -26.2681 3.2862
v  -16.0229 -27.0273 10.1163
v  -15.9203 -27.3985 11.4047
v  -15.8177 -24.6927 12.2440
v  -16.4909 -24.4309 11.0606
v  -16.4212 -21.8981 13.0024
v  -15.9511 -24.9769 13.5781
v  -15.7847 -22.0714 14.2703
v  -16.3698 -19.0773 14.8288
v  -15.5655 -22.3292 15.6655
v  -15.5607 -19.2042 16.2174
v  -15.8378 -16.0231 16.8507
v  -16.7688 -15.9342 15.1776
v  -16.0185 -12.7456 17.4135
v  -17.0966 -12.6307 15.5326
v  -17.8157 -12.5666 13.4563
v  -17.3056 -9.3213 15.8553
v  -18.1161 -9.1509 13.5367
v  -18.3096 -8.9756 11.1632
v  -18.0418 -12.4844 11.2492
v  -17.9453 -8.7798 8.8313
v  -17.6285 -12.1344 9.0848
v  -17.4107 -16.0401 8.8508
v  -16.9530 -8.6045 6.5861
v  -16.6574 -11.5718 7.0453
v  -16.1054 -9.4772 17.8627
v  -14.5831 -12.8424 18.8737
v  -14.5498 -9.5851 19.3443
v  -12.8489 -12.8799 19.8576
v  -12.7299 -9.6398 20.2770
v  -1.1359 -9.2590 8.2784
v  -1.4881 -11.6413 8.2172
v  -2.0923 -11.2551 6.5463
v  -1.7866 -8.9611 6.6734
v  -0.9763 -9.5165 9.9641
v  -1.2674 -11.8894 9.9243
v  -1.7134 -14.7084 9.8911
v  -1.8861 -14.4336 8.1478
v  -1.0134 -9.4841 11.6753
v  -1.3492 -11.9473 11.6107
v  -1.7521 -14.8081 11.5844
v  -2.3162 -17.9139 11.5031
v  -2.0933 -17.7648 9.9012
v  -1.7644 -11.8492 13.2538
v  -2.4144 -14.9062 13.2045
v  -3.1083 -18.0737 13.0883
v  -3.5928 -21.2120 12.8913
v  -2.7875 -21.0366 11.2574
v  -3.7938 -15.0990 15.2380
v  -4.2948 -18.2920 15.2023
v  -4.7065 -21.5188 15.0004
v  -5.2037 -24.7167 14.6997
v  -3.9811 -24.3363 12.6185
v  -5.8616 -18.6516 17.2480
v  -6.3904 -21.9009 16.8746
v  -6.9035 -25.0538 16.4148
v  -8.2713 -22.1319 17.8706
v  -8.7460 -25.1656 17.1205
v  -9.9838 -22.2706 18.2809
v  -10.2679 -25.3006 17.6420
v  -11.5861 -22.3894 18.1851
v  -11.6835 -25.3538 17.4271
v  -13.0166 -22.4120 17.3113
v  -12.7997 -25.3077 16.3490
v  -14.3579 -22.4053 16.4633
v  -14.0978 -25.2441 15.4013
v  -15.4104 -25.2322 14.7664
v  -13.0689 -19.3315 18.2891
v  -14.5733 -19.3405 17.4479
v  -12.9748 -16.1426 19.1737
v  -14.5793 -16.1171 18.1916
v  -11.3868 -19.2796 18.9433
v  -11.1343 -16.0747 19.6736
v  -10.9064 -12.8288 20.2443
v  -9.2162 -15.9203 19.6034
v  -8.8942 -12.6997 20.0028
v  -8.5874 -9.5823 20.2084
v  -10.7116 -9.6337 20.5748
v  -6.8593 -12.5184 19.0934
v  -6.4110 -9.5028 19.1901
v  -2.5822 -9.2902 15.3999
v  -3.0986 -12.0153 15.2717
v  -1.2542 -9.1636 13.4188
v  -4.3452 -9.3611 17.4667
v  -4.8766 -12.2915 17.4592
v  -5.4075 -15.4071 17.4018
v  -7.2863 -15.6983 18.8942
v  -7.7521 -18.9537 18.4880
v  -9.6012 -19.1397 18.9723
v  -3.0276 -24.0593 10.8901
v  -2.5358 -20.7975 9.7068
v  -2.5184 -17.5425 8.1656
v  -2.5953 -13.9943 6.3692
v  -3.3675 -10.7199 5.0951
v  -4.8968 -8.3626 4.1107
v  -2.9406 -8.5793 5.2252
v  -14.9630 -23.4072 5.4083
v  -16.2854 -20.7899 8.2674
v  -17.0077 -18.7617 9.0080
v  0.0118 -2.5633 5.7020
v  -0.2439 -2.4166 5.8602
v  -0.4452 -1.6773 4.0129
v  -0.0411 -1.7995 3.8537
v  -11.2073 -1.2886 0.4563
v  -9.8356 -2.3836 0.3520
v  -11.7798 -3.6114 1.6821
v  -12.8230 -1.2370 1.3774
v  -8.6056 -4.3295 1.8223
v  -9.1429 -5.6374 2.4989
v  -12.0160 -5.3677 2.7770
v  -7.5587 -3.3159 0.5988
v  -16.5903 0.4283 5.3740
v  -16.8270 -2.2205 5.6565
v  -18.1543 -1.6641 8.1610
v  -14.8482 -0.4665 3.0613
v  -14.7989 -2.9394 3.4586
v  -14.8659 -4.9888 3.9767
v  -16.8286 -4.5939 6.0359
v  -16.8547 -6.6353 6.3072
v  -18.1406 -6.5166 8.5557
v  -18.1946 -4.2539 8.3440
v  -14.7591 -6.6855 4.5729
v  -12.2291 -6.7215 3.2735
v  -9.4055 -6.7389 2.7235
v  -18.6660 -6.4840 11.0139
v  -18.3823 -6.4903 13.5676
v  -18.4213 -3.9976 13.4885
v  -18.7704 -4.0706 10.8700
v  -18.5171 -1.4638 13.5447
v  -18.9019 -1.4686 10.8161
v  -14.5193 -0.7981 19.6540
v  -14.5207 -3.6516 19.7142
v  -12.5497 -3.5678 20.5295
v  -12.4646 -0.7426 20.3897
v  -16.2630 -1.0563 18.2204
v  -16.1720 -3.8000 18.1987
v  -16.1531 -6.5877 18.1138
v  -14.5331 -6.5883 19.6165
v  -17.5415 -1.3563 16.0795
v  -17.4616 -3.9404 16.0374
v  -17.4347 -6.5421 16.0259
v  -12.6308 -6.5589 20.4787
v  -10.5217 -6.5188 20.6926
v  -10.3041 -3.5838 20.6311
v  -8.2661 -6.5557 20.2209
v  -7.8531 -3.8253 19.9994
v  -7.2368 -1.4753 19.8434
v  -10.0167 -0.9421 20.3714
v  -5.2888 -4.3457 18.9238
v  -4.6171 -2.3173 18.6599
v  -4.0471 -0.6559 18.5694
v  -2.7309 -3.2395 17.0676
v  -2.1399 -1.8633 17.0174
v  -1.0417 -2.7992 15.1797
v  -0.6737 -1.9606 15.0941
v  -1.6341 -0.7397 17.0126
v  -0.4182 -1.4570 14.9278
v  -10.4328 0.7016 -0.3653
v  -8.1364 -0.0895 -0.8745
v  -5.6949 -0.9522 -0.4804
v  -3.8200 -1.8307 1.0463
v  -5.1549 -3.5752 1.8141
v  -5.9365 -4.7412 2.5159
v  -2.3056 -2.5609 2.8607
v  -3.1100 -3.7217 3.3253
v  -3.7487 -4.8071 3.6985
v  -4.1438 -5.8363 3.9319
v  -6.4446 -5.7573 2.9790
v  -1.6405 -3.9025 4.9258
v  -1.9701 -4.8908 5.0968
v  -2.2391 -5.8973 5.1747
v  -2.5469 -7.0271 5.2457
v  -4.5135 -6.9278 4.1045
v  -0.9029 -4.9514 6.6499
v  -1.0945 -5.9259 6.7037
v  -1.3633 -7.0698 6.7070
v  -0.6507 -6.0683 8.3055
v  -0.8528 -7.4013 8.3144
v  -0.7004 -7.5909 9.9899
v  -5.9476 -6.7304 19.1001
v  -3.8918 -6.9395 17.2868
v  -3.3146 -4.7938 17.1950
v  -2.1742 -7.1009 15.4348
v  -1.8218 -5.2512 15.3510
v  -1.3987 -3.9175 15.2702
v  -0.8320 -5.6031 13.4999
v  -0.6687 -4.3959 13.4359
v  -0.5330 -3.4536 13.3436
v  -0.3884 -4.7765 11.6470
v  -0.2244 -3.8787 11.5459
v  -0.0921 -3.2329 11.4127
v  -0.3650 -2.7483 13.2285
v  -0.2304 -2.3338 13.0676
v  -0.2643 -1.3839 14.6530
v  -0.8526 -2.1519 4.2813
v  -1.4375 -1.2665 2.3581
v  -1.2244 -2.9750 4.6495
v  -0.4259 -2.7042 6.0696
v  -0.5937 -3.2982 6.3124
v  -0.7259 -4.0656 6.5217
v  -0.1538 -2.9884 7.7988
v  -0.2576 -3.4696 7.9791
v  -0.3523 -4.1489 8.1362
v  -0.4665 -4.9966 8.2458
v  -0.0916 -3.4570 9.6710
v  -0.1628 -4.0934 9.8073
v  -0.2949 -4.9605 9.9137
v  -0.4755 -6.1068 9.9752
v  -0.5436 -5.9544 11.7064
v  -0.7252 -7.4848 11.7169
v  -1.0041 -7.1609 13.5153
v  -0.0890 -2.7953 7.6302
v  -6.8571 -6.8767 3.2442
# 402 vertices

vn 0.9971 -0.0767 -0.0001
vn 0.9931 -0.1061 0.0500
vn 0.9557 -0.0649 -0.2872
vn 0.9479 -0.0092 -0.3184
vn 0.9408 -0.1408 0.3083
vn 0.9200 -0.1530 0.3608
vn 0.8477 -0.1976 0.4922
vn 0.8096 -0.2140 0.5465
vn 0.7319 -0.2346 0.6397
vn 0.7488 -0.2285 0.6221
vn 0.5598 -0.2159 0.8000
vn 0.6244 -0.1965 0.7560
vn 0.3470 -0.1991 0.9165
vn 0.3288 -0.1980 0.9234
vn 0.0151 -0.2262 0.9740
vn -0.0661 -0.2335 0.9701
vn -0.4097 -0.1869 0.8929
vn -0.3554 -0.2239 0.9075
vn -0.7708 -0.0824 0.6318
vn -0.7210 -0.0931 0.6866
vn -0.7934 -0.1408 0.5922
vn -0.8875 -0.0301 0.4599
vn -0.6170 -0.2789 0.7359
vn -0.7583 -0.1839 0.6254
vn -0.8516 -0.1919 0.4878
vn -0.7401 -0.2582 0.6210
vn -0.7653 -0.1877 0.6157
vn -0.9358 -0.1350 0.3258
vn -0.8831 -0.1320 0.4502
vn -0.8911 -0.0351 0.4525
vn -0.9915 0.0290 -0.1271
vn -0.9978 0.0488 0.0453
vn 0.4131 0.0816 -0.9070
vn 0.3724 0.0191 -0.9279
vn 0.5699 -0.0317 -0.8211
vn 0.5448 -0.0237 -0.8382
vn 0.7849 -0.0874 -0.6134
vn 0.8111 -0.1232 -0.5718
vn 0.9523 -0.1411 -0.2707
vn 0.9430 -0.1904 -0.2728
vn 0.5412 0.0355 -0.8401
vn 0.5312 0.0332 -0.8466
vn 0.3067 0.0637 -0.9497
vn 0.3094 0.0229 -0.9507
vn 0.0660 0.0927 -0.9935
vn 0.0755 0.0256 -0.9968
vn 0.1193 0.0740 -0.9901
vn 0.1454 0.1202 -0.9820
vn -0.2332 0.1213 -0.9648
vn -0.2478 0.1156 -0.9619
vn -0.2943 0.1308 -0.9467
vn 0.0895 0.0893 -0.9920
vn -0.5801 0.1156 -0.8063
vn -0.5941 0.1057 -0.7974
vn -0.5991 0.1507 -0.7864
vn -0.6841 0.0420 -0.7282
vn -0.6281 0.1015 -0.7715
vn -0.7987 0.1148 -0.5906
vn -0.8265 0.0637 -0.5593
vn -0.7908 0.1366 -0.5966
vn -0.8835 0.1786 -0.4330
vn -0.9123 0.0328 -0.4083
vn -0.8078 0.0523 -0.5871
vn -0.9267 0.0271 -0.3749
vn -0.7898 0.0973 -0.6055
vn -0.9187 0.1938 -0.3440
vn -0.9338 0.0748 -0.3499
vn -0.9520 0.0427 -0.3032
vn -0.9641 0.0652 -0.2573
vn -0.9804 0.0679 -0.1852
vn -0.9917 0.0462 -0.1196
vn -0.9761 0.0114 -0.2170
vn -0.9877 -0.0706 0.1398
vn -0.9997 0.0256 0.0029
vn 0.9871 -0.1522 0.0499
vn 0.9064 -0.1309 0.4017
vn 0.7885 -0.1305 0.6011
vn 0.7498 -0.1499 0.6445
vn 0.6222 -0.2235 0.7503
vn 0.3087 -0.3064 0.9005
vn -0.0513 -0.2907 0.9554
vn -0.3137 -0.2174 0.9243
vn -0.6140 -0.1121 0.7813
vn -0.8961 0.0366 0.4423
vn -0.9085 -0.0111 0.4177
vn 0.7861 0.0320 -0.6173
vn 0.7812 -0.0114 -0.6242
vn 0.3349 0.0366 -0.9415
vn -0.3261 0.1007 -0.9400
vn -0.3629 0.0111 -0.9318
vn -0.9278 0.0801 -0.3644
vn -0.9176 0.0355 -0.3958
vn -0.9823 0.0339 -0.1844
vn 0.9797 -0.1999 0.0173
vn 0.9235 -0.1446 0.3552
vn 0.7882 -0.0664 0.6119
vn -0.5414 -0.1339 0.8300
vn -0.8533 0.0156 0.5212
vn -0.9489 0.0725 0.3072
vn -0.9919 -0.1259 -0.0169
vn -0.9864 -0.1557 0.0535
vn -0.9504 -0.1725 0.2587
vn -0.9699 -0.1343 0.2032
vn -0.9787 -0.1869 -0.0849
vn -0.9778 -0.1617 -0.1331
vn -0.9781 -0.0893 -0.1882
vn -0.9828 -0.1564 0.0981
vn -0.9722 -0.1450 -0.1838
vn -0.6850 -0.0290 -0.7280
vn -0.7599 -0.0252 -0.6495
vn -0.8053 -0.0580 -0.5901
vn -0.6661 -0.0618 -0.7433
vn -0.4210 -0.0320 -0.9065
vn -0.5033 0.0130 -0.8640
vn -0.6084 -0.0031 -0.7936
vn -0.9556 -0.0595 -0.2885
vn -0.9477 -0.1106 -0.2994
vn -0.9094 -0.1072 -0.4018
vn -0.9223 -0.0206 -0.3859
vn -0.9768 -0.0462 -0.2091
vn -0.9761 -0.0668 -0.2067
vn -0.8245 -0.1152 -0.5540
vn -0.8330 0.0084 -0.5532
vn -0.7858 -0.0366 -0.6174
vn -0.8240 -0.0755 -0.5615
vn -0.8876 -0.0778 -0.4541
vn -0.8901 -0.1579 -0.4275
vn -0.7250 0.0694 -0.6853
vn -0.8700 -0.0114 -0.4929
vn -0.3363 0.0160 -0.9416
vn -0.5497 0.0175 -0.8352
vn -0.6514 -0.0114 -0.7586
vn -0.6121 0.1373 -0.7788
vn -0.4821 0.0732 -0.8731
vn -0.5232 0.1320 -0.8419
vn -0.4521 0.1308 -0.8823
vn -0.2522 0.0801 -0.9644
vn -0.7391 -0.0710 -0.6699
vn -0.7260 -0.0893 -0.6818
vn -0.5472 0.0256 -0.8366
vn -0.7277 0.0134 -0.6858
vn -0.4893 -0.0393 -0.8712
vn -0.0225 0.0130 -0.9997
vn 0.0061 0.0580 -0.9983
vn -0.1877 0.0904 -0.9781
vn -0.1702 -0.0694 -0.9830
vn 0.1134 0.0374 -0.9928
vn -0.3608 -0.0855 -0.9287
vn -0.6242 -0.0961 -0.7754
vn -0.5872 -0.0961 -0.8037
vn -0.3224 -0.1114 -0.9400
vn -0.0468 -0.1327 -0.9900
vn -0.1105 -0.0595 -0.9921
vn -0.2033 0.0076 -0.9791
vn 0.1837 -0.0908 -0.9788
vn 0.1083 -0.0183 -0.9939
vn 0.0511 0.0099 -0.9986
vn 0.0115 0.0145 -0.9998
vn -0.2972 0.0282 -0.9544
vn 0.3839 -0.0137 -0.9233
vn 0.3464 -0.0229 -0.9378
vn 0.3265 -0.0267 -0.9448
vn 0.3120 0.0023 -0.9501
vn 0.6010 -0.0763 -0.7956
vn 0.5979 -0.0786 -0.7977
vn 0.6055 -0.0336 -0.7951
vn 0.6020 -0.0183 -0.7983
vn 0.3028 0.0168 -0.9529
vn 0.8342 -0.1274 -0.5365
vn 0.8400 -0.0824 -0.5363
vn 0.8273 -0.0412 -0.5603
vn 0.8053 0.0217 -0.5924
vn 0.5760 0.0050 -0.8175
vn 0.9349 -0.1038 -0.3393
vn 0.9331 -0.0580 -0.3549
vn 0.9381 -0.0027 -0.3464
vn 0.9917 -0.0984 -0.0833
vn 0.9960 -0.0710 -0.0544
vn 0.9491 -0.1369 0.2838
vn 0.8687 -0.1656 0.4668
vn 0.7564 -0.2007 0.6226
vn 0.5387 -0.2251 0.8118
vn 0.3585 -0.2243 0.9062
vn 0.0800 -0.2270 0.9706
vn -0.4510 -0.1804 0.8741
vn -0.7355 -0.1461 0.6616
vn -0.6451 -0.2514 0.7215
vn -0.6120 -0.2919 0.7350
vn -0.9471 -0.0908 0.3077
vn 0.3147 -0.0031 -0.9492
vn -0.9978 -0.0668 0.0024
vn -0.9997 0.0126 0.0224
vn -0.9802 -0.1068 0.1668
vn -0.9815 -0.1594 0.1065
vn -0.9372 -0.1907 0.2919
vn -0.9707 -0.0771 0.2277
vn -0.9463 -0.1427 0.2901
vn -0.9054 -0.1747 0.3870
vn -0.7959 -0.1984 0.5721
vn -0.8157 -0.1740 0.5517
vn -0.8051 -0.1549 0.5726
vn -0.8987 -0.1427 0.4147
vn -0.7956 -0.1206 0.5937
vn -0.9050 -0.1083 0.4113
vn -0.9744 -0.1022 0.2001
vn -0.9036 -0.0847 0.4199
vn -0.9725 -0.0923 0.2137
vn -0.9936 -0.1038 -0.0435
vn -0.9947 -0.0961 -0.0374
vn -0.9441 -0.1129 -0.3098
vn -0.9458 -0.0946 -0.3107
vn -0.9429 -0.0847 -0.3221
vn -0.7891 -0.1167 -0.6031
vn -0.8070 -0.1060 -0.5810
vn -0.7848 -0.0854 0.6138
vn -0.6053 -0.1343 0.7846
vn -0.5810 -0.0877 0.8092
vn -0.3452 -0.1404 0.9280
vn -0.3026 -0.0832 0.9495
vn 0.9585 -0.1373 -0.2499
vn 0.9563 -0.1320 -0.2610
vn 0.8451 -0.1007 -0.5250
vn 0.8452 -0.1297 -0.5184
vn 0.9898 -0.1351 -0.0457
vn 0.9888 -0.1404 -0.0514
vn 0.9864 -0.1518 -0.0627
vn 0.9439 -0.1602 -0.2888
vn 0.9825 -0.1465 0.1146
vn 0.9761 -0.1556 0.1515
vn 0.9635 -0.1693 0.2075
vn 0.9484 -0.1701 0.2677
vn 0.9868 -0.1480 -0.0655
vn 0.8861 -0.1823 0.4262
vn 0.8713 -0.1823 0.4557
vn 0.8747 -0.1694 0.4541
vn 0.8802 -0.1541 0.4490
vn 0.9455 -0.1465 0.2908
vn 0.8144 -0.1648 0.5565
vn 0.8256 -0.1549 0.5426
vn 0.8180 -0.1701 0.5495
vn 0.7924 -0.1808 0.5826
vn 0.8759 -0.1553 0.4568
vn 0.6897 -0.1663 0.7047
vn 0.6366 -0.2045 0.7436
vn 0.5737 -0.2232 0.7881
vn 0.3805 -0.2334 0.8948
vn 0.3585 -0.2411 0.9019
vn 0.1207 -0.2350 0.9645
vn 0.1092 -0.2346 0.9659
vn -0.2887 -0.2365 0.9277
vn -0.4044 -0.2178 0.8883
vn -0.5122 -0.2693 0.8155
vn -0.6325 -0.2388 0.7369
vn -0.5507 -0.2800 0.7863
vn -0.5380 -0.3078 0.7847
vn -0.7070 -0.2510 0.6611
vn -0.4297 -0.2350 0.8719
vn -0.6080 -0.2182 0.7634
vn -0.3827 -0.1930 0.9035
vn -0.6212 -0.1747 0.7639
vn -0.1792 -0.2258 0.9575
vn -0.0995 -0.1907 0.9766
vn -0.0364 -0.1343 0.9903
vn 0.2124 -0.1717 0.9620
vn 0.2688 -0.1190 0.9558
vn 0.3025 -0.0679 0.9507
vn 0.0150 -0.0717 0.9973
vn 0.5314 -0.1190 0.8387
vn 0.5395 -0.0862 0.8375
vn 0.7895 -0.1533 0.5943
vn 0.7996 -0.1724 0.5752
vn 0.9031 -0.1633 0.3972
vn 0.7010 -0.1183 0.7033
vn 0.7140 -0.1434 0.6853
vn 0.7161 -0.1442 0.6829
vn 0.4983 -0.1488 0.8542
vn 0.4383 -0.1976 0.8769
vn 0.1526 -0.2159 0.9644
vn 0.9500 -0.1392 0.2796
vn 0.9893 -0.1266 -0.0729
vn 0.9372 -0.1419 -0.3187
vn 0.8348 -0.1419 -0.5320
vn 0.6161 -0.0435 -0.7865
vn 0.4072 -0.0763 -0.9102
vn 0.6231 -0.1068 -0.7748
vn -0.8268 -0.0504 -0.5602
vn -0.9515 -0.1595 -0.2631
vn -0.9636 -0.1800 -0.1978
vn -0.7633 -0.6066 -0.2222
vn 0.1153 -0.9248 -0.3625
vn 0.1461 -0.8646 -0.4808
vn -0.6019 -0.7055 -0.3742
vn -0.4119 -0.2510 -0.8760
vn -0.1945 -0.4578 -0.8675
vn -0.3730 -0.3997 -0.8373
vn -0.5833 -0.1846 -0.7910
vn -0.0204 -0.5996 -0.8000
vn -0.0077 -0.3967 -0.9179
vn -0.3171 -0.3441 -0.8838
vn 0.0669 -0.5828 -0.8099
vn -0.8453 0.0519 -0.5317
vn -0.8281 -0.0397 -0.5591
vn -0.9287 0.0191 -0.3703
vn -0.7279 -0.0649 -0.6826
vn -0.6558 -0.1869 -0.7314
vn -0.5965 -0.2266 -0.7700
vn -0.8028 -0.0999 -0.5879
vn -0.7830 -0.1007 -0.6138
vn -0.9381 -0.0794 -0.3371
vn -0.9310 -0.0458 -0.3622
vn -0.5682 -0.1579 -0.8076
vn -0.3159 -0.2090 -0.9255
vn -0.0140 -0.2327 -0.9725
vn -0.9960 -0.0794 -0.0402
vn -0.9704 -0.0572 0.2348
vn -0.9691 -0.0290 0.2448
vn -0.9980 -0.0366 -0.0514
vn -0.9727 -0.0450 0.2277
vn -0.9962 0.0053 -0.0868
vn -0.4942 0.0427 0.8683
vn -0.5306 -0.0023 0.8476
vn -0.2100 0.0259 0.9774
vn -0.1628 0.0824 0.9832
vn -0.7484 -0.0183 0.6630
vn -0.7715 -0.0206 0.6358
vn -0.7769 -0.0443 0.6280
vn -0.5557 -0.0427 0.8303
vn -0.8940 -0.0603 0.4441
vn -0.8992 -0.0244 0.4369
vn -0.8996 -0.0435 0.4345
vn -0.2569 -0.0298 0.9660
vn 0.0609 -0.0130 0.9981
vn 0.0955 0.0366 0.9948
vn 0.3165 -0.0175 0.9484
vn 0.3120 0.0069 0.9501
vn 0.2845 0.0008 0.9587
vn 0.1003 0.0702 0.9925
vn 0.5095 -0.0710 0.8575
vn 0.4829 -0.0984 0.8701
vn 0.4363 -0.1495 0.8873
vn 0.6619 -0.1869 0.7259
vn 0.6331 -0.2434 0.7348
vn 0.8226 -0.2594 0.5061
vn 0.8083 -0.3356 0.4838
vn 0.5725 -0.3182 0.7557
vn 0.7618 -0.4348 0.4801
vn -0.3879 -0.1434 -0.9105
vn -0.1059 -0.2937 -0.9500
vn 0.1668 -0.4417 -0.8815
vn 0.3813 -0.5696 -0.7281
vn 0.3342 -0.6240 -0.7064
vn 0.2561 -0.5943 -0.7624
vn 0.5293 -0.6019 -0.5979
vn 0.5035 -0.5683 -0.6508
vn 0.4742 -0.4701 -0.7444
vn 0.4383 -0.3289 -0.8365
vn 0.2443 -0.3883 -0.8885
vn 0.6900 -0.4464 -0.5698
vn 0.6757 -0.3341 -0.6571
vn 0.6498 -0.2517 -0.7172
vn 0.6349 -0.1869 -0.7496
vn 0.4148 -0.1915 -0.8895
vn 0.8782 -0.2304 -0.4191
vn 0.8705 -0.2045 -0.4477
vn 0.8542 -0.1831 -0.4866
vn 0.9665 -0.1701 -0.1924
vn 0.9610 -0.1595 -0.2260
vn 0.9891 -0.1427 -0.0373
vn 0.5301 -0.0626 0.8456
vn 0.6894 -0.1144 0.7153
vn 0.6783 -0.1480 0.7198
vn 0.7868 -0.1320 0.6029
vn 0.7950 -0.1602 0.5851
vn 0.8130 -0.2106 0.5428
vn 0.9248 -0.1320 0.3569
vn 0.9350 -0.1594 0.3167
vn 0.9401 -0.1938 0.2805
vn 0.9824 -0.1373 0.1270
vn 0.9794 -0.1549 0.1295
vn 0.9812 -0.1541 0.1159
vn 0.9389 -0.2381 0.2487
vn 0.9361 -0.2708 0.2244
vn 0.0500 -0.8071 0.5882
vn 0.6395 -0.6194 -0.4554
vn 0.4944 -0.6482 -0.5792
vn 0.7004 -0.5211 -0.4876
vn 0.8098 -0.4966 -0.3125
vn 0.8722 -0.3556 -0.3358
vn 0.8822 -0.2785 -0.3798
vn 0.9394 -0.3067 -0.1530
vn 0.9655 -0.2068 -0.1581
vn 0.9699 -0.1747 -0.1697
vn 0.9682 -0.1755 -0.1783
vn 0.9888 -0.1457 -0.0334
vn 0.9879 -0.1533 -0.0218
vn 0.9878 -0.1549 -0.0159
vn 0.9889 -0.1465 -0.0248
vn 0.9853 -0.1251 0.1162
vn 0.9857 -0.1327 0.1040
vn 0.9150 -0.1320 0.3812
vn -0.1214 -0.9639 -0.2370
vn 0.2367 -0.2174 -0.9469
# 402 vertex normals

vt 0.4181 0.1679 0.0000
vt 0.4056 0.1643 0.0000
vt 0.4105 0.1557 0.0000
vt 0.4221 0.1596 0.0000
vt 0.4136 0.1765 0.0000
vt 0.4026 0.1737 0.0000
vt 0.4077 0.1871 0.0000
vt 0.3979 0.1834 0.0000
vt 0.4009 0.1998 0.0000
vt 0.3908 0.1944 0.0000
vt 0.3956 0.2100 0.0000
vt 0.3863 0.2048 0.0000
vt 0.3915 0.2183 0.0000
vt 0.3821 0.2125 0.0000
vt 0.3882 0.2246 0.0000
vt 0.3787 0.2192 0.0000
vt 0.3849 0.2305 0.0000
vt 0.3753 0.2256 0.0000
vt 0.3812 0.2367 0.0000
vt 0.3724 0.2324 0.0000
vt 0.3768 0.2442 0.0000
vt 0.3688 0.2393 0.0000
vt 0.3718 0.2521 0.0000
vt 0.3634 0.2459 0.0000
vt 0.4509 0.0386 0.0000
vt 0.4504 0.0460 0.0000
vt 0.4405 0.0447 0.0000
vt 0.4408 0.0370 0.0000
vt 0.4305 0.0432 0.0000
vt 0.4301 0.0507 0.0000
vt 0.4207 0.0492 0.0000
vt 0.4208 0.0415 0.0000
vt 0.4207 0.0566 0.0000
vt 0.4097 0.0545 0.0000
vt 0.3924 0.1200 0.0000
vt 0.4033 0.1232 0.0000
vt 0.3971 0.1324 0.0000
vt 0.4079 0.1352 0.0000
vt 0.4031 0.1433 0.0000
vt 0.3918 0.1396 0.0000
vt 0.3986 0.1518 0.0000
vt 0.3869 0.1481 0.0000
vt 0.4297 0.1411 0.0000
vt 0.4189 0.1381 0.0000
vt 0.4234 0.1277 0.0000
vt 0.4335 0.1300 0.0000
vt 0.4273 0.1179 0.0000
vt 0.4363 0.1207 0.0000
vt 0.4091 0.1126 0.0000
vt 0.3978 0.1099 0.0000
vt 0.4018 0.0990 0.0000
vt 0.4131 0.1012 0.0000
vt 0.4219 0.1027 0.0000
vt 0.4181 0.1152 0.0000
vt 0.4049 0.0889 0.0000
vt 0.4161 0.0907 0.0000
vt 0.4249 0.0919 0.0000
vt 0.4428 0.0943 0.0000
vt 0.4339 0.0932 0.0000
vt 0.4360 0.0832 0.0000
vt 0.4448 0.0838 0.0000
vt 0.4075 0.0797 0.0000
vt 0.4095 0.0701 0.0000
vt 0.4200 0.0731 0.0000
vt 0.4184 0.0820 0.0000
vt 0.4287 0.0740 0.0000
vt 0.4270 0.0826 0.0000
vt 0.4100 0.0618 0.0000
vt 0.4209 0.0645 0.0000
vt 0.4295 0.0661 0.0000
vt 0.4383 0.0675 0.0000
vt 0.4390 0.0596 0.0000
vt 0.4481 0.0609 0.0000
vt 0.4470 0.0687 0.0000
vt 0.4397 0.0520 0.0000
vt 0.4493 0.0532 0.0000
vt 0.3930 0.1608 0.0000
vt 0.3915 0.1710 0.0000
vt 0.3878 0.1797 0.0000
vt 0.3804 0.1890 0.0000
vt 0.3768 0.1996 0.0000
vt 0.3725 0.2067 0.0000
vt 0.3691 0.2138 0.0000
vt 0.3656 0.2207 0.0000
vt 0.3636 0.2279 0.0000
vt 0.3608 0.2341 0.0000
vt 0.3550 0.2394 0.0000
vt 0.4307 0.0350 0.0000
vt 0.4259 0.1510 0.0000
vt 0.4146 0.1471 0.0000
vt 0.4133 0.1254 0.0000
vt 0.4309 0.1042 0.0000
vt 0.4399 0.1057 0.0000
vt 0.4375 0.0749 0.0000
vt 0.4463 0.0756 0.0000
vt 0.4297 0.0582 0.0000
vt 0.3805 0.1575 0.0000
vt 0.3806 0.1684 0.0000
vt 0.3780 0.1762 0.0000
vt 0.3550 0.2234 0.0000
vt 0.3530 0.2291 0.0000
vt 0.3468 0.2331 0.0000
vt 0.4209 0.0326 0.0000
vt 0.4778 0.7214 0.0000
vt 0.4627 0.7167 0.0000
vt 0.4639 0.7086 0.0000
vt 0.4810 0.7095 0.0000
vt 0.4636 0.7272 0.0000
vt 0.4591 0.7221 0.0000
vt 0.4489 0.7231 0.0000
vt 0.4487 0.7161 0.0000
vt 0.4502 0.7298 0.0000
vt 0.4757 0.7567 0.0000
vt 0.4704 0.7499 0.0000
vt 0.4853 0.7458 0.0000
vt 0.4887 0.7576 0.0000
vt 0.4897 0.7712 0.0000
vt 0.4722 0.7657 0.0000
vt 0.4577 0.7591 0.0000
vt 0.4361 0.7337 0.0000
vt 0.4399 0.7420 0.0000
vt 0.4316 0.7480 0.0000
vt 0.4211 0.7411 0.0000
vt 0.4181 0.7311 0.0000
vt 0.4340 0.7260 0.0000
vt 0.4254 0.7545 0.0000
vt 0.4170 0.7517 0.0000
vt 0.4041 0.7506 0.0000
vt 0.4033 0.7423 0.0000
vt 0.4552 0.7486 0.0000
vt 0.4663 0.7404 0.0000
vt 0.4527 0.7422 0.0000
vt 0.4622 0.7371 0.0000
vt 0.4463 0.7537 0.0000
vt 0.4443 0.7481 0.0000
vt 0.4494 0.7732 0.0000
vt 0.4425 0.7645 0.0000
vt 0.4480 0.7592 0.0000
vt 0.4391 0.7582 0.0000
vt 0.4356 0.7672 0.0000
vt 0.4329 0.7627 0.0000
vt 0.4289 0.7678 0.0000
vt 0.4326 0.7748 0.0000
vt 0.4214 0.7606 0.0000
vt 0.4290 0.7588 0.0000
vt 0.4220 0.7668 0.0000
vt 0.4148 0.7609 0.0000
vt 0.4131 0.7700 0.0000
vt 0.4490 0.7891 0.0000
vt 0.4322 0.7875 0.0000
vt 0.4196 0.7782 0.0000
vt 0.4120 0.7796 0.0000
vt 0.4185 0.7879 0.0000
vt 0.4061 0.7884 0.0000
vt 0.4051 0.7732 0.0000
vt 0.5067 0.7770 0.0000
vt 0.5057 0.7616 0.0000
vt 0.5215 0.7662 0.0000
vt 0.5202 0.7826 0.0000
vt 0.5172 0.7980 0.0000
vt 0.5057 0.7918 0.0000
vt 0.4904 0.7861 0.0000
vt 0.5135 0.8109 0.0000
vt 0.5044 0.8064 0.0000
vt 0.4906 0.8009 0.0000
vt 0.4690 0.7942 0.0000
vt 0.4700 0.7791 0.0000
vt 0.4555 0.5152 0.0000
vt 0.4640 0.5266 0.0000
vt 0.4478 0.5336 0.0000
vt 0.4423 0.5217 0.0000
vt 0.4288 0.5416 0.0000
vt 0.4223 0.5308 0.0000
vt 0.4099 0.5495 0.0000
vt 0.4039 0.5388 0.0000
vt 0.4522 0.5455 0.0000
vt 0.4331 0.5528 0.0000
vt 0.4149 0.5605 0.0000
vt 0.3990 0.5655 0.0000
vt 0.3937 0.5556 0.0000
vt 0.4374 0.5646 0.0000
vt 0.4200 0.5709 0.0000
vt 0.4038 0.5757 0.0000
vt 0.3885 0.5807 0.0000
vt 0.3842 0.5704 0.0000
vt 0.4247 0.5819 0.0000
vt 0.4081 0.5868 0.0000
vt 0.3920 0.5907 0.0000
vt 0.3754 0.5948 0.0000
vt 0.3730 0.5855 0.0000
vt 0.4114 0.5962 0.0000
vt 0.3945 0.5998 0.0000
vt 0.3777 0.6039 0.0000
vt 0.3967 0.6091 0.0000
vt 0.3802 0.6137 0.0000
vt 0.3992 0.6205 0.0000
vt 0.3830 0.6260 0.0000
vt 0.4019 0.6355 0.0000
vt 0.3864 0.6409 0.0000
vt 0.4051 0.6481 0.0000
vt 0.3890 0.6529 0.0000
vt 0.4071 0.6585 0.0000
vt 0.3911 0.6628 0.0000
vt 0.4085 0.6667 0.0000
vt 0.3926 0.6703 0.0000
vt 0.4097 0.6739 0.0000
vt 0.3940 0.6775 0.0000
vt 0.4103 0.6822 0.0000
vt 0.3952 0.6852 0.0000
vt 0.4116 0.6922 0.0000
vt 0.3967 0.6943 0.0000
vt 0.4128 0.7008 0.0000
vt 0.3984 0.7040 0.0000
vt 0.4140 0.7081 0.0000
vt 0.3998 0.7115 0.0000
vt 0.3671 0.5638 0.0000
vt 0.3799 0.5600 0.0000
vt 0.3702 0.5752 0.0000
vt 0.3649 0.5544 0.0000
vt 0.3765 0.5509 0.0000
vt 0.3888 0.5454 0.0000
vt 0.4050 0.7613 0.0000
vt 0.4018 0.7270 0.0000
vt 0.4163 0.7240 0.0000
vt 0.4026 0.7351 0.0000
vt 0.4007 0.7190 0.0000
vt 0.4146 0.7160 0.0000
vt 0.4303 0.7115 0.0000
vt 0.4319 0.7190 0.0000
vt 0.4471 0.7087 0.0000
vt 0.4293 0.7040 0.0000
vt 0.4460 0.7006 0.0000
vt 0.4638 0.6996 0.0000
vt 0.4451 0.6929 0.0000
vt 0.4629 0.6905 0.0000
vt 0.4813 0.6884 0.0000
vt 0.4820 0.6992 0.0000
vt 0.5000 0.6860 0.0000
vt 0.5007 0.6982 0.0000
vt 0.5009 0.7103 0.0000
vt 0.5203 0.6968 0.0000
vt 0.5214 0.7111 0.0000
vt 0.5221 0.7244 0.0000
vt 0.5009 0.7227 0.0000
vt 0.5226 0.7378 0.0000
vt 0.5020 0.7347 0.0000
vt 0.4801 0.7335 0.0000
vt 0.5225 0.7514 0.0000
vt 0.5042 0.7477 0.0000
vt 0.5191 0.6835 0.0000
vt 0.4990 0.6747 0.0000
vt 0.5176 0.6715 0.0000
vt 0.4978 0.6638 0.0000
vt 0.5160 0.6601 0.0000
vt 0.4901 0.5533 0.0000
vt 0.4750 0.5599 0.0000
vt 0.4723 0.5500 0.0000
vt 0.4857 0.5439 0.0000
vt 0.4932 0.5617 0.0000
vt 0.4776 0.5695 0.0000
vt 0.4614 0.5781 0.0000
vt 0.4582 0.5678 0.0000
vt 0.4960 0.5706 0.0000
vt 0.4803 0.5788 0.0000
vt 0.4641 0.5869 0.0000
vt 0.4473 0.5935 0.0000
vt 0.4446 0.5852 0.0000
vt 0.4830 0.5872 0.0000
vt 0.4667 0.5951 0.0000
vt 0.4500 0.6023 0.0000
vt 0.4329 0.6084 0.0000
vt 0.4302 0.5993 0.0000
vt 0.4705 0.6079 0.0000
vt 0.4537 0.6154 0.0000
vt 0.4363 0.6220 0.0000
vt 0.4190 0.6290 0.0000
vt 0.4159 0.6148 0.0000
vt 0.4565 0.6301 0.0000
vt 0.4388 0.6368 0.0000
vt 0.4215 0.6432 0.0000
vt 0.4406 0.6485 0.0000
vt 0.4236 0.6538 0.0000
vt 0.4421 0.6582 0.0000
vt 0.4250 0.6628 0.0000
vt 0.4428 0.6668 0.0000
vt 0.4258 0.6704 0.0000
vt 0.4433 0.6766 0.0000
vt 0.4259 0.6794 0.0000
vt 0.4439 0.6853 0.0000
vt 0.4270 0.6888 0.0000
vt 0.4282 0.6969 0.0000
vt 0.4614 0.6726 0.0000
vt 0.4621 0.6822 0.0000
vt 0.4795 0.6680 0.0000
vt 0.4805 0.6784 0.0000
vt 0.4604 0.6625 0.0000
vt 0.4784 0.6576 0.0000
vt 0.4966 0.6530 0.0000
vt 0.4774 0.6472 0.0000
vt 0.4951 0.6420 0.0000
vt 0.5118 0.6371 0.0000
vt 0.5140 0.6488 0.0000
vt 0.4931 0.6302 0.0000
vt 0.5090 0.6243 0.0000
vt 0.5020 0.5948 0.0000
vt 0.4866 0.6007 0.0000
vt 0.4987 0.5807 0.0000
vt 0.5057 0.6101 0.0000
vt 0.4901 0.6165 0.0000
vt 0.4738 0.6233 0.0000
vt 0.4760 0.6362 0.0000
vt 0.4582 0.6425 0.0000
vt 0.4595 0.6527 0.0000
vt 0.4136 0.6046 0.0000
vt 0.4280 0.5916 0.0000
vt 0.4413 0.5756 0.0000
vt 0.4551 0.5569 0.0000
vt 0.4688 0.5389 0.0000
vt 0.4729 0.5223 0.0000
vt 0.4796 0.5331 0.0000
vt 0.4648 0.5111 0.0000
vt 0.4359 0.7530 0.0000
vt 0.4510 0.7363 0.0000
vt 0.4646 0.7330 0.0000
vt 0.6656 0.0157 0.0000
vt 0.6681 0.0122 0.0000
vt 0.6762 0.0168 0.0000
vt 0.6740 0.0212 0.0000
vt 0.2414 0.6642 0.0000
vt 0.2501 0.6685 0.0000
vt 0.2402 0.6779 0.0000
vt 0.2320 0.6658 0.0000
vt 0.2586 0.6812 0.0000
vt 0.2564 0.6890 0.0000
vt 0.2392 0.6896 0.0000
vt 0.2623 0.6726 0.0000
vt 0.2008 0.6618 0.0000
vt 0.2023 0.6774 0.0000
vt 0.1863 0.6772 0.0000
vt 0.2171 0.6640 0.0000
vt 0.2199 0.6783 0.0000
vt 0.2202 0.6898 0.0000
vt 0.2036 0.6916 0.0000
vt 0.2049 0.7031 0.0000
vt 0.1900 0.7046 0.0000
vt 0.1885 0.6920 0.0000
vt 0.2202 0.7003 0.0000
vt 0.2204 0.7082 0.0000
vt 0.2049 0.7120 0.0000
vt 0.2384 0.6976 0.0000
vt 0.2378 0.7045 0.0000
vt 0.2554 0.6953 0.0000
vt 0.2547 0.7027 0.0000
vt 0.1911 0.7159 0.0000
vt 0.1777 0.7197 0.0000
vt 0.1763 0.7072 0.0000
vt 0.1647 0.7237 0.0000
vt 0.1620 0.7099 0.0000
vt 0.1600 0.6960 0.0000
vt 0.1743 0.6937 0.0000
vt 0.1567 0.6822 0.0000
vt 0.1716 0.6790 0.0000
vt 0.1155 0.6865 0.0000
vt 0.1186 0.7028 0.0000
vt 0.1072 0.7047 0.0000
vt 0.1041 0.6889 0.0000
vt 0.1277 0.6854 0.0000
vt 0.1307 0.7010 0.0000
vt 0.1341 0.7164 0.0000
vt 0.1221 0.7190 0.0000
vt 0.1416 0.6847 0.0000
vt 0.1446 0.6990 0.0000
vt 0.1474 0.7133 0.0000
vt 0.1508 0.7279 0.0000
vt 0.1379 0.7318 0.0000
vt 0.1261 0.7350 0.0000
vt 0.1148 0.7378 0.0000
vt 0.1109 0.7212 0.0000
vt 0.1036 0.7403 0.0000
vt 0.0996 0.7231 0.0000
vt 0.0956 0.7069 0.0000
vt 0.0875 0.7255 0.0000
vt 0.0827 0.7107 0.0000
vt 0.0769 0.6983 0.0000
vt 0.0915 0.6924 0.0000
vt 0.0683 0.7165 0.0000
vt 0.0620 0.7058 0.0000
vt 0.0568 0.6980 0.0000
vt 0.0485 0.7141 0.0000
vt 0.0441 0.7078 0.0000
vt 0.0333 0.7161 0.0000
vt 0.0301 0.7120 0.0000
vt 0.0401 0.7021 0.0000
vt 0.0267 0.7089 0.0000
vt 0.2445 0.6509 0.0000
vt 0.2576 0.6525 0.0000
vt 0.2712 0.6553 0.0000
vt 0.2822 0.6623 0.0000
vt 0.2758 0.6758 0.0000
vt 0.2734 0.6833 0.0000
vt 0.2920 0.6706 0.0000
vt 0.2898 0.6789 0.0000
vt 0.2886 0.6851 0.0000
vt 0.2867 0.6906 0.0000
vt 0.2719 0.6896 0.0000
vt 0.3042 0.6805 0.0000
vt 0.3036 0.6866 0.0000
vt 0.3017 0.6928 0.0000
vt 0.2993 0.6982 0.0000
vt 0.2849 0.6965 0.0000
vt 0.3143 0.6878 0.0000
vt 0.3135 0.6935 0.0000
vt 0.3125 0.7001 0.0000
vt 0.3113 0.7065 0.0000
vt 0.2977 0.7048 0.0000
vt 0.3227 0.6933 0.0000
vt 0.3227 0.6994 0.0000
vt 0.3228 0.7077 0.0000
vt 0.3319 0.6980 0.0000
vt 0.3323 0.7077 0.0000
vt 0.0789 0.7444 0.0000
vt 0.0743 0.7291 0.0000
vt 0.0919 0.7425 0.0000
vt 0.0644 0.7463 0.0000
vt 0.0593 0.7331 0.0000
vt 0.0535 0.7226 0.0000
vt 0.0449 0.7358 0.0000
vt 0.0403 0.7267 0.0000
vt 0.0366 0.7208 0.0000
vt 0.0286 0.7304 0.0000
vt 0.0262 0.7263 0.0000
vt 0.0238 0.7226 0.0000
vt 0.0171 0.7314 0.0000
vt 0.0150 0.7278 0.0000
vt 0.0128 0.7249 0.0000
vt 0.0212 0.7195 0.0000
vt 0.0184 0.7168 0.0000
vt 0.0230 0.7076 0.0000
vt 0.3124 0.6613 0.0000
vt 0.3078 0.6670 0.0000
vt 0.2994 0.6588 0.0000
vt 0.3046 0.6741 0.0000
vt 0.3180 0.6685 0.0000
vt 0.3159 0.6728 0.0000
vt 0.3149 0.6776 0.0000
vt 0.3147 0.6828 0.0000
vt 0.3239 0.6766 0.0000
vt 0.3234 0.6804 0.0000
vt 0.3229 0.6844 0.0000
vt 0.3228 0.6887 0.0000
vt 0.3319 0.6825 0.0000
vt 0.3317 0.6856 0.0000
vt 0.3313 0.6890 0.0000
vt 0.3315 0.6928 0.0000
vt 0.0088 0.7358 0.0000
vt 0.0069 0.7326 0.0000
vt 0.0192 0.7353 0.0000
vt 0.0104 0.7396 0.0000
vt 0.0212 0.7416 0.0000
vt 0.0122 0.7448 0.0000
vt 0.0315 0.7383 0.0000
vt 0.0342 0.7510 0.0000
vt 0.0238 0.7529 0.0000
vt 0.0487 0.7487 0.0000
vt 0.0145 0.7545 0.0000
vt 0.3251 0.6733 0.0000
vt 0.2841 0.7032 0.0000
vt 0.2694 0.7027 0.0000
vt 0.2705 0.6958 0.0000
# 469 texture coords

o ProfesorRightLeg
g ProfesorRightLeg
usemtl rp_carla_rigged_001_mat
s off
f 1/1/1 2/2/2 3/3/3 4/4/4 
f 5/5/5 6/6/6 2/2/2 1/1/1 
f 7/7/7 8/8/8 6/6/6 5/5/5 
f 9/9/9 10/10/10 8/8/8 7/7/7 
f 11/11/11 12/12/12 10/10/10 9/9/9 
f 11/11/11 13/13/13 14/14/14 12/12/12 
f 13/13/13 15/15/15 16/16/16 14/14/14 
f 17/17/17 18/18/18 16/16/16 15/15/15 
f 19/19/19 20/20/20 18/18/18 17/17/17 
f 19/19/19 21/21/21 22/22/22 20/20/20 
f 23/23/23 24/24/24 22/22/22 21/21/21 
f 23/25/23 25/26/25 26/27/26 24/28/24 
f 27/29/27 28/30/28 29/31/29 30/32/30 
f 29/31/29 31/33/31 32/34/32 
f 33/35/33 34/36/34 35/37/35 
f 35/37/35 36/38/36 37/39/37 38/40/38 
f 38/40/38 37/39/37 39/41/39 40/42/40 
f 41/43/41 42/44/42 43/45/43 44/46/44 
f 44/46/44 43/45/43 45/47/45 46/48/46 
f 47/49/47 48/50/48 49/51/49 50/52/50 
f 50/52/50 51/53/51 52/54/52 47/49/47 
f 34/36/34 33/35/33 48/50/48 47/49/47 
f 50/52/50 49/51/49 53/55/53 54/56/54 
f 54/56/54 55/57/55 51/53/51 50/52/50 
f 56/58/56 57/59/57 58/60/58 59/61/59 
f 60/62/60 61/63/61 62/64/62 63/65/63 
f 62/64/62 64/66/64 65/67/65 63/65/63 
f 54/56/54 53/55/53 60/62/60 63/65/63 
f 61/63/61 66/68/66 67/69/67 62/64/62 
f 62/64/62 67/69/67 68/70/68 64/66/64 
f 69/71/69 70/72/70 71/73/71 72/74/72 
f 70/72/70 73/75/73 74/76/74 71/73/71 
f 66/68/66 32/34/32 31/33/31 67/69/67 
f 2/2/2 75/77/75 39/41/39 3/3/3 
f 6/6/6 76/78/76 75/77/75 2/2/2 
f 8/8/8 77/79/77 76/78/76 6/6/6 
f 10/10/10 78/80/78 77/79/77 8/8/8 
f 10/10/10 12/12/12 79/81/79 78/80/78 
f 12/12/12 14/14/14 80/82/80 79/81/79 
f 14/14/14 16/16/16 81/83/81 80/82/80 
f 16/16/16 18/18/18 82/84/82 81/83/81 
f 18/18/18 20/20/20 83/85/83 82/84/82 
f 20/20/20 22/22/22 84/86/84 83/85/83 
f 24/24/24 85/87/85 84/86/84 22/22/22 
f 24/28/24 26/27/26 27/29/27 85/88/85 
f 25/26/25 74/76/74 73/75/73 26/27/26 
f 42/44/42 41/43/41 86/89/86 87/90/87 
f 87/90/87 86/89/86 4/4/4 3/3/3 
f 42/44/42 36/38/36 88/91/88 43/45/43 
f 43/45/43 88/91/88 52/54/52 45/47/45 
f 89/92/89 90/93/90 46/48/46 45/47/45 
f 57/59/57 56/58/56 90/93/90 89/92/89 
f 57/59/57 55/57/55 65/67/65 58/60/58 
f 91/94/91 92/95/92 59/61/59 58/60/58 
f 91/94/91 69/71/69 72/74/72 92/95/92 
f 68/70/68 93/96/93 70/72/70 69/71/69 
f 93/96/93 28/30/28 73/75/73 70/72/70 
f 26/27/26 73/75/73 28/30/28 27/29/27 
f 36/38/36 42/44/42 87/90/87 37/39/37 
f 37/39/37 87/90/87 3/3/3 39/41/39 
f 51/53/51 89/92/89 45/47/45 52/54/52 
f 55/57/55 57/59/57 89/92/89 51/53/51 
f 64/66/64 91/94/91 58/60/58 65/67/65 
f 64/66/64 68/70/68 69/71/69 91/94/91 
f 75/77/75 94/97/94 40/42/40 39/41/39 
f 75/77/75 76/78/76 95/98/95 94/97/94 
f 77/79/77 96/99/96 95/98/95 76/78/76 
f 96/99/96 77/79/77 78/80/78 
f 82/84/82 83/85/83 97/100/97 
f 83/85/83 84/86/84 98/101/98 97/100/97 
f 85/87/85 99/102/99 98/101/98 84/86/84 
f 85/88/85 27/29/27 30/32/30 99/103/99 
f 36/38/36 35/37/35 34/36/34 88/91/88 
f 88/91/88 34/36/34 47/49/47 52/54/52 
f 55/57/55 54/56/54 63/65/63 65/67/65 
f 67/69/67 31/33/31 93/96/93 68/70/68 
f 31/33/31 29/31/29 28/30/28 93/96/93 
f 100/104/100 101/105/101 102/106/102 103/107/103 
f 104/108/104 105/109/105 101/105/101 100/104/100 
f 105/109/105 106/110/106 107/111/107 101/105/101 
f 105/109/105 104/108/104 108/112/108 106/110/106 
f 109/113/109 110/114/110 111/115/111 112/116/112 
f 112/116/112 113/117/113 114/118/114 109/113/109 
f 114/118/114 115/119/115 110/114/110 109/113/109 
f 116/120/116 117/121/117 118/122/118 119/123/119 
f 120/124/120 121/125/121 116/120/116 119/123/119 
f 119/123/119 118/122/118 122/126/122 123/127/123 
f 123/127/123 59/128/59 92/129/92 119/123/119 
f 124/130/124 125/131/125 110/114/110 115/119/115 
f 124/130/124 126/132/126 127/133/127 125/131/125 
f 124/130/124 128/134/128 129/135/129 126/132/126 
f 130/136/130 131/137/131 132/138/132 115/119/115 
f 124/130/124 115/119/115 132/138/132 128/134/128 
f 132/138/132 131/137/131 133/139/133 128/134/128 
f 134/140/134 135/141/135 133/139/133 131/137/131 
f 136/142/136 135/141/135 134/140/134 137/143/137 
f 131/137/131 130/136/130 137/143/137 134/140/134 
f 138/144/138 122/126/122 139/145/139 140/146/140 
f 138/144/138 141/147/141 123/127/123 122/126/122 
f 140/146/140 142/148/142 141/147/141 138/144/138 
f 139/145/139 135/141/135 136/142/136 140/146/140 
f 143/149/143 144/150/144 137/143/137 130/136/130 
f 137/143/137 145/151/145 140/146/140 136/142/136 
f 142/148/142 140/146/140 145/151/145 146/152/146 
f 146/152/146 145/151/145 147/153/147 46/154/46 
f 146/152/146 46/154/46 90/155/90 142/148/142 
f 148/156/148 149/157/149 150/158/150 151/159/151 
f 151/159/151 152/160/152 153/161/153 148/156/148 
f 154/162/154 113/117/113 148/156/148 153/161/153 
f 152/160/152 155/163/155 156/164/156 153/161/153 
f 153/161/153 156/164/156 157/165/157 154/162/154 
f 158/166/158 159/167/159 154/162/154 157/165/157 
f 156/168/156 160/169/160 161/170/161 157/171/157 
f 157/171/157 161/170/161 162/172/162 158/173/158 
f 163/174/163 143/175/143 158/173/158 162/172/162 
f 161/170/161 164/176/164 165/177/165 162/172/162 
f 162/172/162 165/177/165 166/178/166 163/174/163 
f 167/179/167 168/180/168 163/174/163 166/178/166 
f 165/177/165 169/181/169 170/182/170 166/178/166 
f 166/178/166 170/182/170 171/183/171 167/179/167 
f 172/184/172 173/185/173 167/179/167 171/183/171 
f 170/182/170 174/186/174 175/187/175 171/183/171 
f 171/183/171 175/187/175 176/188/176 172/184/172 
f 176/188/176 4/189/4 86/190/86 172/184/172 
f 175/187/175 177/191/177 178/192/178 176/188/176 
f 178/192/178 1/193/1 4/189/4 176/188/176 
f 1/193/1 178/192/178 179/194/179 5/195/5 
f 5/195/5 179/194/179 180/196/180 7/197/7 
f 7/197/7 180/196/180 181/198/181 9/199/9 
f 9/199/9 181/198/181 182/200/182 11/201/11 
f 11/201/11 182/200/182 183/202/183 13/203/13 
f 13/203/13 183/202/183 184/204/184 15/205/15 
f 15/205/15 184/204/184 185/206/185 17/207/17 
f 17/207/17 185/206/185 186/208/186 19/209/19 
f 19/209/19 186/208/186 187/210/187 21/211/21 
f 21/211/21 187/210/187 188/212/188 23/213/23 
f 23/213/23 188/212/188 189/214/189 25/215/25 
f 44/216/44 190/217/190 173/185/173 41/218/41 
f 41/218/41 173/185/173 172/184/172 86/190/86 
f 44/216/44 46/219/46 147/220/147 190/217/190 
f 190/217/190 147/220/147 144/221/144 168/180/168 
f 168/180/168 167/179/167 173/185/173 190/217/190 
f 59/128/59 123/127/123 141/147/141 56/222/56 
f 56/222/56 141/147/141 142/148/142 90/155/90 
f 71/223/71 191/224/191 120/124/120 72/225/72 
f 120/124/120 119/123/119 92/129/92 72/225/72 
f 191/224/191 71/223/71 74/226/74 192/227/192 
f 192/227/192 193/228/193 194/229/194 191/224/191 
f 191/224/191 194/229/194 121/125/121 120/124/120 
f 193/228/193 195/230/195 107/111/107 194/229/194 
f 194/229/194 107/111/107 106/110/106 121/125/121 
f 195/230/195 193/228/193 196/231/196 197/232/197 
f 197/232/197 198/233/198 102/106/102 195/230/195 
f 195/230/195 102/106/102 101/105/101 107/111/107 
f 198/233/198 197/232/197 199/234/199 200/235/200 
f 200/235/200 201/236/201 202/237/202 198/233/198 
f 198/233/198 202/237/202 103/107/103 102/106/102 
f 201/236/201 203/238/203 204/239/204 202/237/202 
f 202/237/202 204/239/204 205/240/205 103/107/103 
f 205/240/205 204/239/204 206/241/206 207/242/207 
f 207/242/207 208/243/208 209/244/209 205/240/205 
f 209/244/209 100/104/100 103/107/103 205/240/205 
f 208/243/208 210/245/210 211/246/211 209/244/209 
f 209/244/209 211/246/211 212/247/212 100/104/100 
f 210/245/210 213/248/213 214/249/214 211/246/211 
f 211/246/211 214/249/214 111/115/111 212/247/212 
f 213/248/213 150/158/150 149/157/149 214/249/214 
f 214/249/214 149/157/149 112/116/112 111/115/111 
f 215/250/215 203/238/203 216/251/216 217/252/217 
f 206/241/206 204/239/204 203/238/203 215/250/215 
f 217/252/217 216/251/216 218/253/218 219/254/219 
f 220/255/220 221/256/221 222/257/222 223/258/223 
f 224/259/224 225/260/225 221/256/221 220/255/220 
f 225/260/225 226/261/226 227/262/227 221/256/221 
f 224/259/224 228/263/228 229/264/229 225/260/225 
f 229/264/229 230/265/230 226/261/226 225/260/225 
f 230/265/230 231/266/231 232/267/232 226/261/226 
f 230/265/230 229/264/229 233/268/233 234/269/234 
f 234/269/234 235/270/235 231/266/231 230/265/230 
f 235/270/235 236/271/236 237/272/237 231/266/231 
f 235/270/235 234/269/234 238/273/238 239/274/239 
f 239/274/239 240/275/240 236/271/236 235/270/235 
f 240/275/240 241/276/241 242/277/242 236/271/236 
f 240/275/240 239/274/239 243/278/243 244/279/244 
f 244/279/244 245/280/245 241/276/241 240/275/240 
f 245/280/245 182/200/182 181/198/181 241/276/241 
f 245/280/245 244/279/244 246/281/246 247/282/247 
f 247/282/247 183/202/183 182/200/182 245/280/245 
f 247/282/247 246/281/246 248/283/248 249/284/249 
f 249/284/249 184/204/184 183/202/183 247/282/247 
f 249/284/249 248/283/248 250/285/250 251/286/251 
f 251/286/251 185/206/185 184/204/184 249/284/249 
f 251/286/251 250/285/250 252/287/252 253/288/253 
f 253/288/253 186/208/186 185/206/185 251/286/251 
f 253/288/253 252/287/252 254/289/254 255/290/255 
f 255/290/255 187/210/187 186/208/186 253/288/253 
f 255/290/255 254/289/254 199/234/199 256/291/256 
f 256/291/256 188/212/188 187/210/187 255/290/255 
f 256/291/256 199/234/199 197/232/197 196/231/196 
f 196/231/196 189/214/189 188/212/188 256/291/256 
f 252/287/252 257/292/257 258/293/258 254/289/254 
f 254/289/254 258/293/258 200/235/200 199/234/199 
f 257/292/257 259/294/259 260/295/260 258/293/258 
f 258/293/258 260/295/260 201/236/201 200/235/200 
f 259/294/259 218/253/218 216/251/216 260/295/260 
f 260/295/260 216/251/216 203/238/203 201/236/201 
f 259/294/259 257/292/257 261/296/261 262/297/262 
f 262/297/262 263/298/263 218/253/218 259/294/259 
f 263/298/263 262/297/262 264/299/264 265/300/265 
f 265/300/265 266/301/266 267/302/267 263/298/263 
f 263/298/263 267/302/267 219/254/219 218/253/218 
f 266/301/266 265/300/265 268/303/268 269/304/269 
f 270/305/270 271/306/271 233/268/233 272/307/272 
f 273/308/273 274/309/274 271/306/271 270/305/270 
f 274/309/274 275/310/275 238/273/238 271/306/271 
f 274/309/274 273/308/273 269/304/269 268/303/268 
f 268/303/268 276/311/276 275/310/275 274/309/274 
f 276/311/276 277/312/277 243/278/243 275/310/275 
f 276/311/276 268/303/268 265/300/265 264/299/264 
f 264/299/264 278/313/278 277/312/277 276/311/276 
f 278/313/278 248/283/248 246/281/246 277/312/277 
f 278/313/278 264/299/264 262/297/262 261/296/261 
f 261/296/261 250/285/250 248/283/248 278/313/278 
f 277/312/277 246/281/246 244/279/244 243/278/243 
f 275/310/275 243/278/243 239/274/239 238/273/238 
f 271/306/271 238/273/238 234/269/234 233/268/233 
f 233/268/233 229/264/229 228/263/228 272/307/272 
f 257/292/257 252/287/252 250/285/250 261/296/261 
f 242/277/242 180/196/180 179/194/179 279/314/279 
f 279/314/279 237/272/237 236/271/236 242/277/242 
f 241/276/241 181/198/181 180/196/180 242/277/242 
f 279/314/279 179/194/179 178/192/178 177/191/177 
f 177/191/177 280/315/280 237/272/237 279/314/279 
f 177/191/177 175/187/175 174/186/174 280/315/280 
f 174/186/174 281/316/281 232/267/232 280/315/280 
f 280/315/280 232/267/232 231/266/231 237/272/237 
f 174/186/174 170/182/170 169/181/169 281/316/281 
f 169/181/169 282/317/282 227/262/227 281/316/281 
f 281/316/281 227/262/227 226/261/226 232/267/232 
f 282/317/282 169/181/169 165/177/165 164/176/164 
f 164/176/164 283/318/283 222/257/222 282/317/282 
f 282/317/282 222/257/222 221/256/221 227/262/227 
f 164/176/164 161/170/161 160/169/160 283/318/283 
f 283/318/283 160/169/160 284/319/284 285/320/285 
f 283/318/283 285/320/285 223/258/223 222/257/222 
f 160/169/160 156/168/156 155/321/155 284/319/284 
f 193/228/193 192/227/192 189/214/189 196/231/196 
f 192/227/192 74/226/74 25/215/25 189/214/189 
f 168/180/168 144/221/144 143/175/143 163/174/163 
f 159/167/159 130/136/130 115/119/115 114/118/114 
f 159/167/159 114/118/114 113/117/113 154/162/154 
f 159/167/159 158/166/158 143/149/143 130/136/130 
f 149/157/149 148/156/148 113/117/113 112/116/112 
f 145/151/145 137/143/137 144/150/144 147/153/147 
f 139/145/139 122/126/122 118/122/118 286/322/286 
f 139/145/139 286/322/286 133/139/133 135/141/135 
f 286/322/286 118/122/118 117/121/117 129/135/129 
f 286/322/286 129/135/129 128/134/128 133/139/133 
f 117/121/117 287/323/287 126/132/126 129/135/129 
f 117/121/117 116/120/116 108/112/108 287/323/287 
f 108/112/108 104/108/104 288/324/288 287/323/287 
f 287/323/287 288/324/288 127/133/127 126/132/126 
f 121/125/121 106/110/106 108/112/108 116/120/116 
f 110/114/110 125/131/125 212/247/212 111/115/111 
f 100/104/100 212/247/212 288/324/288 104/108/104 
f 288/324/288 212/247/212 125/131/125 127/133/127 
f 289/325/289 290/326/290 291/327/291 292/328/292 
f 293/329/293 294/330/294 295/331/295 296/332/296 
f 295/331/295 297/333/297 298/334/298 299/335/299 
f 294/330/294 300/336/300 297/333/297 295/331/295 
f 301/337/301 302/338/302 303/339/303 
f 304/340/304 305/341/305 302/338/302 301/337/301 
f 305/341/305 306/342/306 307/343/307 302/338/302 
f 305/341/305 304/340/304 296/332/296 295/331/295 
f 305/341/305 295/331/295 299/335/299 306/342/306 
f 308/344/308 309/345/309 310/346/310 307/343/307 
f 310/346/310 303/339/303 302/338/302 307/343/307 
f 307/343/307 306/342/306 311/347/311 308/344/308 
f 150/348/150 213/349/213 308/344/308 311/347/311 
f 306/342/306 299/335/299 312/350/312 311/347/311 
f 311/347/311 312/350/312 151/351/151 150/348/150 
f 312/350/312 313/352/313 152/353/152 151/351/151 
f 210/354/210 208/355/208 314/356/314 309/345/309 
f 309/345/309 308/344/308 213/349/213 210/354/210 
f 208/355/208 207/357/207 315/358/315 314/356/314 
f 314/356/314 315/358/315 316/359/316 317/360/317 
f 317/360/317 310/346/310 309/345/309 314/356/314 
f 316/359/316 318/361/318 319/362/319 317/360/317 
f 317/360/317 319/362/319 303/339/303 310/346/310 
f 320/363/320 321/364/321 322/365/322 323/366/323 
f 324/367/324 325/368/325 321/364/321 320/363/320 
f 325/368/325 326/369/326 327/370/327 321/364/321 
f 325/368/325 324/367/324 328/371/328 329/372/329 
f 329/372/329 330/373/330 326/369/326 325/368/325 
f 330/373/330 206/374/206 215/375/215 326/369/326 
f 329/372/329 316/359/316 315/358/315 330/373/330 
f 330/373/330 315/358/315 207/357/207 206/374/206 
f 217/376/217 327/370/327 326/369/326 215/375/215 
f 219/377/219 331/378/331 327/370/327 217/376/217 
f 331/378/331 219/377/219 267/379/267 332/380/332 
f 332/380/332 333/381/333 322/365/322 331/378/331 
f 331/378/331 322/365/322 321/364/321 327/370/327 
f 333/381/333 332/380/332 334/382/334 335/383/335 
f 335/383/335 336/384/336 337/385/337 333/381/333 
f 333/381/333 337/385/337 323/366/323 322/365/322 
f 336/384/336 335/383/335 338/386/338 339/387/339 
f 336/384/336 339/387/339 340/388/340 
f 339/387/339 341/389/341 342/390/342 340/388/340 
f 342/390/342 343/391/343 344/392/344 345/393/345 
f 345/393/345 344/392/344 346/394/346 
f 347/395/347 348/396/348 294/330/294 293/329/293 
f 348/396/348 349/397/349 300/336/300 294/330/294 
f 349/397/349 350/398/350 351/399/351 300/336/300 
f 352/400/352 297/333/297 300/336/300 351/399/351 
f 350/398/350 353/401/353 354/402/354 351/399/351 
f 351/399/351 354/402/354 355/403/355 352/400/352 
f 356/404/356 357/405/357 352/400/352 355/403/355 
f 354/402/354 358/406/358 359/407/359 355/403/355 
f 355/403/355 359/407/359 360/408/360 356/404/356 
f 361/409/361 362/410/362 356/404/356 360/408/360 
f 359/407/359 363/411/363 364/412/364 360/408/360 
f 360/408/360 364/412/364 365/413/365 361/409/361 
f 223/414/223 285/415/285 361/409/361 365/413/365 
f 365/413/365 364/412/364 366/416/366 367/417/367 
f 367/417/367 220/418/220 223/414/223 365/413/365 
f 220/418/220 367/417/367 368/419/368 224/420/224 
f 269/421/269 369/422/369 334/382/334 266/423/266 
f 266/423/266 334/382/334 332/380/332 267/379/267 
f 369/422/369 269/421/269 273/424/273 370/425/370 
f 370/425/370 371/426/371 338/386/338 369/422/369 
f 369/422/369 338/386/338 335/383/335 334/382/334 
f 371/426/371 370/425/370 372/427/372 373/428/373 
f 373/428/373 374/429/374 341/389/341 371/426/371 
f 371/426/371 341/389/341 339/387/339 338/386/338 
f 373/428/373 375/430/375 376/431/376 374/429/374 
f 374/429/374 376/431/376 377/432/377 343/391/343 
f 343/391/343 342/390/342 341/389/341 374/429/374 
f 376/431/376 378/433/378 379/434/379 377/432/377 
f 377/432/377 379/434/379 380/435/380 381/436/381 
f 381/436/381 344/392/344 343/391/343 377/432/377 
f 382/437/382 381/436/381 380/435/380 
f 382/437/382 346/394/346 344/392/344 381/436/381 
f 383/438/383 346/394/346 382/437/382 
f 291/439/291 384/440/384 385/441/385 
f 384/440/384 386/442/386 353/401/353 385/441/385 
f 384/440/384 291/439/291 290/443/290 387/444/387 
f 387/444/387 388/445/388 386/442/386 384/440/384 
f 388/445/388 389/446/389 358/406/358 386/442/386 
f 388/445/388 387/444/387 390/447/390 391/448/391 
f 391/448/391 392/449/392 389/446/389 388/445/388 
f 392/449/392 393/450/393 363/411/363 389/446/389 
f 392/449/392 391/448/391 394/451/394 395/452/395 
f 395/452/395 396/453/396 393/450/393 392/449/392 
f 396/453/396 397/454/397 366/416/366 393/450/393 
f 396/455/396 395/456/395 379/434/379 378/433/378 
f 396/455/396 378/433/378 398/457/398 397/458/397 
f 399/459/399 368/460/368 397/458/397 398/457/398 
f 378/433/378 376/431/376 375/430/375 398/457/398 
f 398/457/398 375/430/375 400/461/400 399/459/399 
f 272/462/272 228/463/228 399/459/399 400/461/400 
f 400/461/400 375/430/375 373/428/373 372/427/372 
f 372/427/372 270/464/270 272/462/272 400/461/400 
f 270/464/270 372/427/372 370/425/370 273/424/273 
f 228/463/228 224/465/224 368/460/368 399/459/399 
f 397/454/397 368/419/368 367/417/367 366/416/366 
f 393/450/393 366/416/366 364/412/364 363/411/363 
f 387/444/387 290/443/290 401/466/401 390/447/390 
f 389/446/389 363/411/363 359/407/359 358/406/358 
f 386/442/386 358/406/358 354/402/354 353/401/353 
f 385/441/385 353/401/353 350/398/350 
f 284/467/284 155/468/155 402/469/402 362/410/362 
f 362/410/362 361/409/361 285/415/285 284/467/284 
f 155/468/155 152/353/152 313/352/313 402/469/402 
f 402/469/402 313/352/313 298/334/298 357/405/357 
f 357/405/357 356/404/356 362/410/362 402/469/402 
f 357/405/357 298/334/298 297/333/297 352/400/352 
f 329/372/329 328/371/328 318/361/318 316/359/316 
f 313/352/313 312/350/312 299/335/299 298/334/298 
# 367 polygons - 11 triangles

