# 3ds Max Wavefront OBJ Exporter v0.99 - (c)2007 guruware
# File Created: 02.05.2025 10:32:43

mtllib ventanasOLD.mtl

#
# object Ventanas
#

v  -50.0051 12.9278 -49.1703
v  -50.0051 12.9278 -38.7502
v  -50.3177 12.9278 -38.7502
v  -50.3177 12.9278 -49.1703
v  -50.0051 33.2450 -49.1703
v  -50.3177 33.2450 -49.1703
v  -50.3177 33.2450 -38.7502
v  -50.0051 33.2450 -38.7502
v  52.1091 12.9278 -57.3270
v  52.1091 12.9278 -41.3858
v  51.7965 12.9278 -41.3858
v  51.7965 12.9278 -57.3270
v  52.1091 33.2450 -57.3270
v  51.7965 33.2450 -57.3270
v  51.7965 33.2450 -41.3858
v  52.1091 33.2450 -41.3858
v  -50.0051 12.9278 -37.3600
v  -50.0051 12.9278 -26.9400
v  -50.3177 12.9278 -26.9400
v  -50.3177 12.9278 -37.3600
v  -50.0051 33.2450 -37.3600
v  -50.3177 33.2450 -37.3600
v  -50.3177 33.2450 -26.9400
v  -50.0051 33.2450 -26.9400
v  -50.0051 1.5929 -37.3594
v  -50.0051 1.5929 -26.9394
v  -50.3177 1.5929 -26.9394
v  -50.3177 1.5929 -37.3594
v  -50.0051 11.7411 -37.3594
v  -50.3177 11.7411 -37.3594
v  -50.3177 11.7411 -26.9394
v  -50.0051 11.7411 -26.9394
v  -50.0051 1.5929 -49.1703
v  -50.0051 1.5929 -38.7502
v  -50.3177 1.5929 -38.7502
v  -50.3177 1.5929 -49.1703
v  -50.0051 11.7411 -49.1703
v  -50.3177 11.7411 -49.1703
v  -50.3177 11.7411 -38.7502
v  -50.0051 11.7411 -38.7502
v  -50.6097 12.9278 -21.0647
v  -50.6097 12.9278 -5.1235
v  -50.9222 12.9278 -5.1235
v  -50.9222 12.9278 -21.0647
v  -50.6097 33.2450 -21.0647
v  -50.9222 33.2450 -21.0647
v  -50.9222 33.2450 -5.1235
v  -50.6097 33.2450 -5.1235
v  -50.6097 12.9278 51.1460
v  -50.6097 12.9278 66.3432
v  -50.9222 12.9278 66.3432
v  -50.9222 12.9278 51.1460
v  -50.6097 33.2450 51.1460
v  -50.9222 33.2450 51.1460
v  -50.9222 33.2450 66.3432
v  -50.6097 33.2450 66.3432
v  -50.6097 12.9278 33.1294
v  -50.6097 12.9278 49.0707
v  -50.9222 12.9278 49.0707
v  -50.9222 12.9278 33.1294
v  -50.6097 33.2450 33.1294
v  -50.9222 33.2450 33.1294
v  -50.9222 33.2450 49.0707
v  -50.6097 33.2450 49.0707
v  -50.6097 12.9278 15.0603
v  -50.6097 12.9278 31.0015
v  -50.9222 12.9278 31.0015
v  -50.9222 12.9278 15.0603
v  -50.6097 33.2450 15.0603
v  -50.9222 33.2450 15.0603
v  -50.9222 33.2450 31.0015
v  -50.6097 33.2450 31.0015
v  -50.6097 12.9278 -3.0013
v  -50.6097 12.9278 12.9399
v  -50.9222 12.9278 12.9399
v  -50.9222 12.9278 -3.0013
v  -50.6097 33.2450 -3.0013
v  -50.9222 33.2450 -3.0013
v  -50.9222 33.2450 12.9399
v  -50.6097 33.2450 12.9399
v  52.1091 12.9278 -67.5050
v  52.1091 12.9278 -58.9488
v  51.7965 12.9278 -58.9488
v  51.7965 12.9278 -67.5050
v  52.1091 33.2450 -67.5050
v  51.7965 33.2450 -67.5050
v  51.7965 33.2450 -58.9488
v  52.1091 33.2450 -58.9488
v  52.1091 12.9278 -39.2612
v  52.1091 12.9278 -23.3200
v  51.7965 12.9278 -23.3200
v  51.7965 12.9278 -39.2612
v  52.1091 33.2450 -39.2612
v  51.7965 33.2450 -39.2612
v  51.7965 33.2450 -23.3200
v  52.1091 33.2450 -23.3200
v  52.1091 12.9278 -21.1984
v  52.1091 12.9278 -5.2571
v  51.7965 12.9278 -5.2571
v  51.7965 12.9278 -21.1984
v  52.1091 33.2450 -21.1984
v  51.7965 33.2450 -21.1984
v  51.7965 33.2450 -5.2571
v  52.1091 33.2450 -5.2571
v  52.1091 12.9278 -3.1367
v  52.1091 12.9278 12.8045
v  51.7965 12.9278 12.8045
v  51.7965 12.9278 -3.1367
v  52.1091 33.2450 -3.1367
v  51.7965 33.2450 -3.1367
v  51.7965 33.2450 12.8045
v  52.1091 33.2450 12.8045
v  52.1091 12.9278 14.9275
v  52.1091 12.9278 30.8687
v  51.7965 12.9278 30.8687
v  51.7965 12.9278 14.9275
v  52.1091 33.2450 14.9275
v  51.7965 33.2450 14.9275
v  51.7965 33.2450 30.8687
v  52.1091 33.2450 30.8687
v  52.1091 12.9285 51.0043
v  52.1091 12.9285 66.2014
v  51.7965 12.9285 66.2014
v  51.7965 12.9285 51.0043
v  52.1091 33.2457 51.0043
v  51.7965 33.2457 51.0043
v  51.7965 33.2457 66.2014
v  52.1091 33.2457 66.2014
v  52.1091 12.9278 32.9887
v  52.1091 12.9278 48.9300
v  51.7965 12.9278 48.9300
v  51.7965 12.9278 32.9887
v  52.1091 33.2450 32.9887
v  51.7965 33.2450 32.9887
v  51.7965 33.2450 48.9300
v  52.1091 33.2450 48.9300
# 136 vertices

vn 0.0000 -1.0000 -0.0000
vn 0.0000 1.0000 -0.0000
vn 0.0000 0.0000 1.0000
vn 1.0000 0.0000 -0.0000
vn 0.0000 0.0000 -1.0000
vn -1.0000 0.0000 -0.0000
# 6 vertex normals

vt 0.0000 1.0000 0.0000
vt 0.0000 0.0000 0.0000
vt 1.0000 0.0000 0.0000
vt 1.0000 1.0000 0.0000
# 4 texture coords

o Ventanas
g Ventanas
usemtl Material__766
s 2
f 1/1/1 2/2/1 3/3/1 
f 3/3/1 4/4/1 1/1/1 
s 4
f 5/4/2 6/1/2 7/2/2 
f 7/2/2 8/3/2 5/4/2 
s 8
f 8/4/3 7/1/3 3/2/3 
f 3/2/3 2/3/3 8/4/3 
s 16
f 5/4/4 8/1/4 2/2/4 
f 2/2/4 1/3/4 5/4/4 
s 32
f 6/4/5 5/1/5 1/2/5 
f 1/2/5 4/3/5 6/4/5 
s 64
f 7/4/6 6/1/6 4/2/6 
f 4/2/6 3/3/6 7/4/6 
s 2
f 9/1/1 10/2/1 11/3/1 
f 11/3/1 12/4/1 9/1/1 
s 4
f 13/4/2 14/1/2 15/2/2 
f 15/2/2 16/3/2 13/4/2 
s 8
f 16/4/3 15/1/3 11/2/3 
f 11/2/3 10/3/3 16/4/3 
s 16
f 13/4/4 16/1/4 10/2/4 
f 10/2/4 9/3/4 13/4/4 
s 32
f 14/4/5 13/1/5 9/2/5 
f 9/2/5 12/3/5 14/4/5 
s 64
f 15/4/6 14/1/6 12/2/6 
f 12/2/6 11/3/6 15/4/6 
s 2
f 17/1/1 18/2/1 19/3/1 
f 19/3/1 20/4/1 17/1/1 
s 4
f 21/4/2 22/1/2 23/2/2 
f 23/2/2 24/3/2 21/4/2 
s 8
f 24/4/3 23/1/3 19/2/3 
f 19/2/3 18/3/3 24/4/3 
s 16
f 21/4/4 24/1/4 18/2/4 
f 18/2/4 17/3/4 21/4/4 
s 32
f 22/4/5 21/1/5 17/2/5 
f 17/2/5 20/3/5 22/4/5 
s 64
f 23/4/6 22/1/6 20/2/6 
f 20/2/6 19/3/6 23/4/6 
s 2
f 25/1/1 26/2/1 27/3/1 
f 27/3/1 28/4/1 25/1/1 
s 4
f 29/4/2 30/1/2 31/2/2 
f 31/2/2 32/3/2 29/4/2 
s 8
f 32/4/3 31/1/3 27/2/3 
f 27/2/3 26/3/3 32/4/3 
s 16
f 29/4/4 32/1/4 26/2/4 
f 26/2/4 25/3/4 29/4/4 
s 32
f 30/4/5 29/1/5 25/2/5 
f 25/2/5 28/3/5 30/4/5 
s 64
f 31/4/6 30/1/6 28/2/6 
f 28/2/6 27/3/6 31/4/6 
s 2
f 33/1/1 34/2/1 35/3/1 
f 35/3/1 36/4/1 33/1/1 
s 4
f 37/4/2 38/1/2 39/2/2 
f 39/2/2 40/3/2 37/4/2 
s 8
f 40/4/3 39/1/3 35/2/3 
f 35/2/3 34/3/3 40/4/3 
s 16
f 37/4/4 40/1/4 34/2/4 
f 34/2/4 33/3/4 37/4/4 
s 32
f 38/4/5 37/1/5 33/2/5 
f 33/2/5 36/3/5 38/4/5 
s 64
f 39/4/6 38/1/6 36/2/6 
f 36/2/6 35/3/6 39/4/6 
s 2
f 41/1/1 42/2/1 43/3/1 
f 43/3/1 44/4/1 41/1/1 
s 4
f 45/4/2 46/1/2 47/2/2 
f 47/2/2 48/3/2 45/4/2 
s 8
f 48/4/3 47/1/3 43/2/3 
f 43/2/3 42/3/3 48/4/3 
s 16
f 45/4/4 48/1/4 42/2/4 
f 42/2/4 41/3/4 45/4/4 
s 32
f 46/4/5 45/1/5 41/2/5 
f 41/2/5 44/3/5 46/4/5 
s 64
f 47/4/6 46/1/6 44/2/6 
f 44/2/6 43/3/6 47/4/6 
s 2
f 49/1/1 50/2/1 51/3/1 
f 51/3/1 52/4/1 49/1/1 
s 4
f 53/4/2 54/1/2 55/2/2 
f 55/2/2 56/3/2 53/4/2 
s 8
f 56/4/3 55/1/3 51/2/3 
f 51/2/3 50/3/3 56/4/3 
s 16
f 53/4/4 56/1/4 50/2/4 
f 50/2/4 49/3/4 53/4/4 
s 32
f 54/4/5 53/1/5 49/2/5 
f 49/2/5 52/3/5 54/4/5 
s 64
f 55/4/6 54/1/6 52/2/6 
f 52/2/6 51/3/6 55/4/6 
s 2
f 57/1/1 58/2/1 59/3/1 
f 59/3/1 60/4/1 57/1/1 
s 4
f 61/4/2 62/1/2 63/2/2 
f 63/2/2 64/3/2 61/4/2 
s 8
f 64/4/3 63/1/3 59/2/3 
f 59/2/3 58/3/3 64/4/3 
s 16
f 61/4/4 64/1/4 58/2/4 
f 58/2/4 57/3/4 61/4/4 
s 32
f 62/4/5 61/1/5 57/2/5 
f 57/2/5 60/3/5 62/4/5 
s 64
f 63/4/6 62/1/6 60/2/6 
f 60/2/6 59/3/6 63/4/6 
s 2
f 65/1/1 66/2/1 67/3/1 
f 67/3/1 68/4/1 65/1/1 
s 4
f 69/4/2 70/1/2 71/2/2 
f 71/2/2 72/3/2 69/4/2 
s 8
f 72/4/3 71/1/3 67/2/3 
f 67/2/3 66/3/3 72/4/3 
s 16
f 69/4/4 72/1/4 66/2/4 
f 66/2/4 65/3/4 69/4/4 
s 32
f 70/4/5 69/1/5 65/2/5 
f 65/2/5 68/3/5 70/4/5 
s 64
f 71/4/6 70/1/6 68/2/6 
f 68/2/6 67/3/6 71/4/6 
s 2
f 73/1/1 74/2/1 75/3/1 
f 75/3/1 76/4/1 73/1/1 
s 4
f 77/4/2 78/1/2 79/2/2 
f 79/2/2 80/3/2 77/4/2 
s 8
f 80/4/3 79/1/3 75/2/3 
f 75/2/3 74/3/3 80/4/3 
s 16
f 77/4/4 80/1/4 74/2/4 
f 74/2/4 73/3/4 77/4/4 
s 32
f 78/4/5 77/1/5 73/2/5 
f 73/2/5 76/3/5 78/4/5 
s 64
f 79/4/6 78/1/6 76/2/6 
f 76/2/6 75/3/6 79/4/6 
s 2
f 81/1/1 82/2/1 83/3/1 
f 83/3/1 84/4/1 81/1/1 
s 4
f 85/4/2 86/1/2 87/2/2 
f 87/2/2 88/3/2 85/4/2 
s 8
f 88/4/3 87/1/3 83/2/3 
f 83/2/3 82/3/3 88/4/3 
s 16
f 85/4/4 88/1/4 82/2/4 
f 82/2/4 81/3/4 85/4/4 
s 32
f 86/4/5 85/1/5 81/2/5 
f 81/2/5 84/3/5 86/4/5 
s 64
f 87/4/6 86/1/6 84/2/6 
f 84/2/6 83/3/6 87/4/6 
s 2
f 89/1/1 90/2/1 91/3/1 
f 91/3/1 92/4/1 89/1/1 
s 4
f 93/4/2 94/1/2 95/2/2 
f 95/2/2 96/3/2 93/4/2 
s 8
f 96/4/3 95/1/3 91/2/3 
f 91/2/3 90/3/3 96/4/3 
s 16
f 93/4/4 96/1/4 90/2/4 
f 90/2/4 89/3/4 93/4/4 
s 32
f 94/4/5 93/1/5 89/2/5 
f 89/2/5 92/3/5 94/4/5 
s 64
f 95/4/6 94/1/6 92/2/6 
f 92/2/6 91/3/6 95/4/6 
s 2
f 97/1/1 98/2/1 99/3/1 
f 99/3/1 100/4/1 97/1/1 
s 4
f 101/4/2 102/1/2 103/2/2 
f 103/2/2 104/3/2 101/4/2 
s 8
f 104/4/3 103/1/3 99/2/3 
f 99/2/3 98/3/3 104/4/3 
s 16
f 101/4/4 104/1/4 98/2/4 
f 98/2/4 97/3/4 101/4/4 
s 32
f 102/4/5 101/1/5 97/2/5 
f 97/2/5 100/3/5 102/4/5 
s 64
f 103/4/6 102/1/6 100/2/6 
f 100/2/6 99/3/6 103/4/6 
s 2
f 105/1/1 106/2/1 107/3/1 
f 107/3/1 108/4/1 105/1/1 
s 4
f 109/4/2 110/1/2 111/2/2 
f 111/2/2 112/3/2 109/4/2 
s 8
f 112/4/3 111/1/3 107/2/3 
f 107/2/3 106/3/3 112/4/3 
s 16
f 109/4/4 112/1/4 106/2/4 
f 106/2/4 105/3/4 109/4/4 
s 32
f 110/4/5 109/1/5 105/2/5 
f 105/2/5 108/3/5 110/4/5 
s 64
f 111/4/6 110/1/6 108/2/6 
f 108/2/6 107/3/6 111/4/6 
s 2
f 113/1/1 114/2/1 115/3/1 
f 115/3/1 116/4/1 113/1/1 
s 4
f 117/4/2 118/1/2 119/2/2 
f 119/2/2 120/3/2 117/4/2 
s 8
f 120/4/3 119/1/3 115/2/3 
f 115/2/3 114/3/3 120/4/3 
s 16
f 117/4/4 120/1/4 114/2/4 
f 114/2/4 113/3/4 117/4/4 
s 32
f 118/4/5 117/1/5 113/2/5 
f 113/2/5 116/3/5 118/4/5 
s 64
f 119/4/6 118/1/6 116/2/6 
f 116/2/6 115/3/6 119/4/6 
s 2
f 121/1/1 122/2/1 123/3/1 
f 123/3/1 124/4/1 121/1/1 
s 4
f 125/4/2 126/1/2 127/2/2 
f 127/2/2 128/3/2 125/4/2 
s 8
f 128/4/3 127/1/3 123/2/3 
f 123/2/3 122/3/3 128/4/3 
s 16
f 125/4/4 128/1/4 122/2/4 
f 122/2/4 121/3/4 125/4/4 
s 32
f 126/4/5 125/1/5 121/2/5 
f 121/2/5 124/3/5 126/4/5 
s 64
f 127/4/6 126/1/6 124/2/6 
f 124/2/6 123/3/6 127/4/6 
s 2
f 129/1/1 130/2/1 131/3/1 
f 131/3/1 132/4/1 129/1/1 
s 4
f 133/4/2 134/1/2 135/2/2 
f 135/2/2 136/3/2 133/4/2 
s 8
f 136/4/3 135/1/3 131/2/3 
f 131/2/3 130/3/3 136/4/3 
s 16
f 133/4/4 136/1/4 130/2/4 
f 130/2/4 129/3/4 133/4/4 
s 32
f 134/4/5 133/1/5 129/2/5 
f 129/2/5 132/3/5 134/4/5 
s 64
f 135/4/6 134/1/6 132/2/6 
f 132/2/6 131/3/6 135/4/6 
# 204 faces

