# 3ds Max Wavefront OBJ Exporter v0.99 - (c)2007 guruware
# File Created: 28.04.2025 16:07:25

mtllib Mesa_Prof.mtl

#
# object Escritorio043
#

v  -4.4640 3.9951 3.7942
v  -2.7510 4.0013 3.8006
v  -5.2701 3.8435 3.7462
v  5.6830 4.1527 2.6756
v  -5.6853 4.1527 2.6756
v  -5.6853 4.1527 -4.3239
v  -5.6853 4.4139 2.6756
v  5.6830 4.4139 -4.3239
v  -5.7166 4.4075 -4.3710
v  5.6830 4.1527 -4.3239
v  5.6830 4.4139 2.6756
v  -5.1694 3.0888 3.3507
v  1.8813 3.0865 2.5570
v  3.5932 3.0865 2.5570
v  -0.4343 3.6717 2.5717
v  -2.7510 3.2131 2.5730
v  4.4038 3.3811 2.5566
v  -4.4640 3.0870 2.5573
v  -2.7510 3.0865 2.5570
v  -0.4343 3.1103 3.3410
v  1.8813 3.1092 3.3381
v  -5.2701 3.1026 3.2078
v  4.4028 3.1133 2.5743
v  4.4038 3.0860 3.3461
v  4.2998 3.1086 3.3196
v  4.4028 3.1102 2.7059
v  5.6830 4.4139 4.3239
v  5.6830 4.4076 2.7757
v  -5.7197 4.4076 3.5758
v  5.6830 4.1527 4.3239
v  5.6830 4.1527 2.8278
v  -3.7456 4.1590 2.7757
v  -0.0011 4.1590 2.7757
v  -5.6821 0.4225 -4.3428
v  -5.6720 -3.1916 -4.3443
v  -5.6821 4.1528 -4.3421
v  4.4038 3.2505 3.4419
v  -5.2701 3.2531 3.4399
v  4.4038 3.5558 3.5849
v  1.8813 3.1142 3.3463
v  1.8813 3.1138 2.5747
v  -0.4343 3.1138 2.5747
v  1.8813 3.1103 3.3410
v  5.4196 4.1730 -4.3393
v  5.7085 -3.1916 -4.3443
v  5.3691 -3.1981 -4.3196
v  5.3663 -3.1950 -4.0882
v  5.7079 -3.1967 -4.0887
v  5.4196 3.8122 -4.0704
v  3.7433 4.4076 2.7757
v  3.7433 4.1590 2.7757
v  -0.4343 3.6717 2.5566
v  4.4027 3.6700 2.5717
v  -2.7510 3.6717 2.5690
v  5.3691 -3.1981 4.1280
v  5.3559 3.7909 4.1042
v  5.6550 3.8056 4.0975
v  5.3547 3.8287 -1.9147
v  5.6550 4.1796 4.3425
v  5.3559 4.1780 -2.0301
v  5.3559 4.1771 4.3406
v  5.3559 0.4225 4.3580
v  -5.3326 -3.1981 4.1280
v  -5.6689 -3.1981 4.1280
v  -5.6185 3.8056 4.0975
v  -5.3194 4.1771 4.3406
v  -5.6815 -3.1967 4.3569
v  -5.3326 -3.1981 4.3348
v  -4.4640 3.6701 2.5592
v  -5.3831 3.8056 -4.0823
v  -5.3194 3.7909 4.1042
v  -5.6185 3.8056 -4.0823
v  -5.3194 4.1780 -2.0301
v  -5.6185 4.1730 -4.3393
v  -5.5008 4.1730 4.3545
v  -5.3200 -3.1967 -4.0908
v  -5.3295 3.7579 -4.0879
v  -5.3194 0.4225 -4.3428
v  -5.3194 -1.9819 -4.3428
v  -5.6821 0.4225 4.3580
v  -5.3182 4.1659 0.0076
v  -5.3194 0.2438 4.1048
v  5.6550 3.8056 -4.0823
v  5.7086 3.7579 -4.0879
v  5.6550 4.1730 -4.3393
v  -5.6853 4.1527 4.3239
v  -0.0011 4.4076 4.3759
v  3.7433 4.4076 4.3759
v  -5.3338 -4.4139 -4.1147
v  -5.6815 -3.1967 -4.0908
v  -5.3326 -3.1981 -4.3196
v  -5.6677 -4.4139 -4.3178
v  5.7042 -4.4139 -4.3178
v  5.7042 -4.4139 -4.1147
v  -4.4640 3.1133 2.5743
v  5.3703 -4.4139 4.1299
v  5.7180 -3.1967 4.1060
v  5.7054 -3.1981 4.3348
v  5.3691 -3.1981 4.3348
v  5.7042 -4.4139 4.3330
v  -5.2701 3.1076 2.5706
v  -5.2701 3.5728 2.5690
v  -5.6677 -4.4139 4.3330
v  -5.3338 -4.4139 4.1299
v  1.8813 3.6717 2.5566
v  3.5932 3.6702 2.5727
v  1.8813 3.6717 2.5717
v  -5.4129 4.1590 2.7757
v  -3.7456 4.4076 2.7757
v  -5.4129 4.4076 2.7757
v  3.5932 3.6717 2.5566
v  -5.6821 3.8160 1.9258
v  -5.6834 4.1110 4.2942
v  5.3559 0.2438 4.1048
v  5.3545 4.1110 4.2942
v  5.3547 3.8287 1.9299
v  5.3545 4.1110 -4.2789
v  5.3703 -4.4139 -4.3178
v  5.3703 -4.4139 -4.1147
v  -5.4129 4.4076 4.3759
v  -3.7456 4.4076 4.3759
v  -5.4129 4.1590 4.3759
v  5.7146 4.3458 4.3714
v  -5.6821 4.1528 4.3573
v  -5.6821 4.1780 2.0453
v  -5.3338 -4.4139 4.3330
v  -5.6677 -4.4139 4.1299
v  -5.3338 -4.4139 -4.3178
v  -5.6677 -4.4139 -4.1147
v  5.3703 -4.4139 4.3330
v  5.6956 -4.3854 4.1279
v  5.7196 -3.1967 -4.2167
v  5.7185 4.1528 -4.3421
v  5.7197 0.2499 -4.0985
v  5.7185 3.8160 -1.9106
v  5.7185 4.1528 4.3573
v  -5.3181 4.1110 4.2942
v  -5.3182 3.8287 -1.9147
v  -5.3181 4.1110 -4.2789
v  5.7185 3.8160 1.9258
v  5.7197 3.8287 0.0076
v  5.3559 3.7909 -4.0890
v  -5.6821 4.1780 0.0076
v  5.7175 4.4076 -3.0906
v  5.7175 4.4076 -0.8241
v  5.7143 4.1592 2.7228
v  -3.7456 4.1590 2.7277
v  -0.0011 4.1590 2.7277
v  5.4106 4.4076 2.7277
v  5.3547 4.1659 0.0076
v  5.3559 4.1780 2.0453
v  -5.6833 0.2499 -4.0985
v  -0.4343 3.0865 2.5570
v  -5.7166 4.1592 2.7807
v  5.7185 0.4225 -4.3428
v  -2.7510 3.1138 2.5746
v  5.4106 4.1590 2.7757
v  5.7175 4.1590 3.5758
v  5.7143 4.1592 2.7807
v  5.7175 4.4076 3.5758
v  5.7056 4.4076 4.3753
v  5.3559 0.2438 -4.0896
v  -2.7510 3.1141 3.3463
v  -5.3194 0.2438 -4.0896
v  -5.6821 3.8151 -4.0723
v  -5.6821 3.8160 -1.9106
v  -5.6833 3.8287 0.0076
v  -5.3194 4.1771 -4.3253
v  5.7197 0.2499 4.1138
v  3.7433 4.4076 2.7277
v  -0.0011 4.4076 2.7277
v  -5.4129 4.1590 2.7277
v  -5.7197 4.4076 -3.0906
v  -5.7168 4.2208 2.7232
v  -5.7197 4.4076 -0.8241
v  -5.7168 4.2208 -4.3714
v  5.7146 4.2833 -4.3714
v  -0.0011 4.1590 -4.3759
v  -3.7456 4.4076 -4.3759
v  3.5932 3.1169 3.3487
v  3.5932 4.0049 3.8110
v  1.8813 4.0276 3.7936
v  1.8813 4.0049 3.8110
v  -5.7166 4.4075 4.3710
v  -5.7166 4.1592 4.3710
v  -0.0011 4.4076 -4.3759
v  5.7175 4.1590 -0.8241
v  5.7175 4.1590 1.4424
v  -2.7510 3.1091 3.3381
v  -4.4640 3.1098 3.3411
v  -5.7166 4.4075 2.7807
v  3.5932 3.1138 2.5747
v  -5.3241 3.6631 -2.1787
v  -5.3241 4.0284 -2.5909
v  5.3606 4.0284 -2.1787
v  5.3606 4.0284 2.1939
v  -5.3241 4.0284 2.6061
v  -5.3241 3.6631 2.1939
v  5.7143 4.1592 4.3710
v  5.7185 3.8151 -4.0723
v  -5.2701 3.0971 3.3437
v  5.3559 3.8160 0.0076
v  -3.7456 4.1590 4.3759
v  -0.0011 4.1590 4.3759
v  -5.3182 2.8288 4.3495
v  -5.3194 0.4225 4.3580
v  -5.3194 4.1780 2.0453
v  -0.4343 3.9926 3.7975
v  4.4038 4.0061 3.8019
v  5.7185 4.1780 0.0076
v  -5.6821 3.8151 4.0875
v  -5.6833 0.2499 4.1137
v  -5.3194 3.7909 -4.0890
v  5.7185 3.8151 4.0875
v  -5.7166 4.4075 2.7227
v  -5.3182 3.8287 1.9299
v  -3.7456 4.4076 2.7277
v  5.3559 4.1771 -4.3253
v  5.3559 0.4225 -4.3428
v  5.7143 4.1592 -4.3710
v  3.7433 4.1590 -4.3759
v  3.7433 4.1590 2.7277
v  5.7175 4.4076 1.4424
v  5.7143 4.4075 2.7228
v  -5.6821 4.1780 -2.0301
v  5.7185 4.1780 -2.0301
v  -5.7197 4.1590 -3.0906
v  3.7433 4.1590 4.3759
v  5.7143 4.4075 2.7807
v  5.7143 4.4075 -4.3710
v  3.7433 4.4076 -4.3759
v  5.4106 4.4076 4.3759
v  -5.7197 4.4076 1.4424
v  5.7185 4.1780 2.0453
v  3.5932 3.1092 3.3381
v  -5.7197 4.1590 1.4424
v  -5.7197 4.1590 -0.8241
v  -5.2701 4.0117 3.8042
v  -3.7456 4.1590 -4.3759
v  -5.6821 -2.0418 4.1048
v  5.3559 -1.9819 -4.3428
v  -5.3194 3.8160 0.0076
v  -5.7166 4.1592 -4.3710
v  -5.7166 4.1592 2.7227
v  5.7185 0.4225 4.3580
# 245 vertices

vn -0.0004 0.5797 -0.8148
vn -0.0001 0.5824 -0.8129
vn -0.0087 0.6295 -0.7770
vn -0.0085 -0.6189 0.7854
vn -0.0001 -0.4858 0.8740
vn -0.0004 -0.4876 0.8731
vn 0.0023 -1.0000 0.0022
vn -0.0023 -1.0000 0.0022
vn -0.0023 -1.0000 -0.0022
vn -0.0023 1.0000 0.0022
vn 0.0023 1.0000 -0.0022
vn -0.0405 0.9984 -0.0384
vn 0.0023 -1.0000 -0.0022
vn 0.0023 1.0000 0.0022
vn -0.0095 -0.9901 0.1402
vn 0.0000 -0.9991 -0.0425
vn -0.0000 0.0165 0.9999
vn -0.0001 0.0019 1.0000
vn 0.0011 0.0019 1.0000
vn -0.0005 -0.9991 -0.0424
vn -0.0001 -0.9991 -0.0425
vn 0.0000 0.9914 -0.1305
vn -0.0097 1.0000 0.0016
vn 0.0010 -0.9991 -0.0425
vn 0.0010 -0.9900 0.1409
vn 0.0010 1.0000 -0.0092
vn 0.0011 1.0000 0.0035
vn 0.0022 0.9992 -0.0408
vn -0.0431 0.9991 -0.0000
vn -0.0432 -0.9991 0.0000
vn 0.0000 -0.9992 -0.0409
vn 0.0000 0.9992 -0.0409
vn -1.0000 -0.0000 -0.0065
vn -1.0000 -0.0002 -0.0035
vn -1.0000 0.0002 -0.0063
vn 0.0010 -0.7427 0.6697
vn 0.0010 -0.6383 0.7698
vn -0.0094 -0.6383 0.7697
vn -0.0095 0.6363 -0.7714
vn 0.0010 0.6365 -0.7713
vn 0.0000 0.7355 -0.6775
vn -0.0095 -1.0000 -0.0024
vn -0.0000 0.9991 0.0415
vn 0.0000 0.9534 -0.3017
vn 0.0011 0.9058 -0.4237
vn -0.0029 -0.0000 -1.0000
vn 0.0033 -0.0004 -1.0000
vn -0.0017 -0.0003 -1.0000
vn -0.0036 -0.0005 1.0000
vn 0.0036 -0.0004 1.0000
vn -0.0032 0.0000 1.0000
vn -0.0001 -0.0689 -0.9976
vn 0.0000 0.0143 -0.9999
vn 0.0008 0.0125 -0.9999
vn -0.0001 0.0122 -0.9999
vn -0.0036 -0.0004 -1.0000
vn -0.0032 -0.0000 -1.0000
vn 0.0032 -0.0000 -1.0000
vn -0.1202 -0.9927 0.0000
vn -0.1202 -0.9928 0.0000
vn -0.1074 0.9942 -0.0000
vn -0.1075 0.9942 -0.0000
vn -0.1075 0.0000 0.9942
vn 0.0036 -0.0004 -1.0000
vn 0.0029 0.0000 1.0000
vn -0.0033 -0.0004 1.0000
vn 0.0033 -0.0004 1.0000
vn -0.0007 0.0464 -0.9989
vn -0.0000 0.0705 0.9975
vn 0.0032 -1.0000 0.0000
vn -0.0032 -1.0000 0.0000
vn 0.1074 0.9942 -0.0000
vn 0.1075 0.9942 -0.0000
vn 0.0032 0.0000 1.0000
vn 0.1075 -0.0000 -0.9942
vn 0.1074 -0.0000 -0.9942
vn 0.1076 -0.0000 -0.9942
vn -0.1106 -0.0010 0.9939
vn -0.1082 0.0000 0.9941
vn 0.1202 -0.0000 -0.9928
vn 0.1226 -0.0011 -0.9925
vn 0.1202 -0.0000 -0.9927
vn 0.0029 1.0000 -0.0000
vn -0.0029 1.0000 -0.0000
vn 0.0029 -0.0000 -1.0000
vn -0.0000 0.9992 0.0409
vn -0.0003 -0.0290 0.9996
vn -0.0000 -0.0267 0.9996
vn -0.0036 -0.0004 1.0000
vn 0.0017 -0.0003 -1.0000
vn -0.0033 -0.0004 -1.0000
vn -0.0933 -0.0013 -0.9956
vn -0.0851 -0.0025 -0.9964
vn 0.0851 -0.0025 -0.9964
vn 0.0933 -0.0013 -0.9956
vn 0.1044 -0.0014 0.9945
vn 0.0966 -0.0025 0.9953
vn -0.0007 0.0520 0.9986
vn -0.0006 0.0705 0.9975
vn -0.0005 -0.0690 -0.9976
vn 0.0003 -0.0290 -0.9996
vn 0.0000 -0.0267 -0.9996
vn 0.0017 -0.0003 1.0000
vn 0.0001 -0.0289 0.9996
vn -0.0006 0.9991 0.0415
vn -0.0101 0.9991 0.0414
vn -0.0097 0.0000 1.0000
vn -0.0001 -0.0289 0.9996
vn -0.0003 -0.0290 -0.9996
vn 0.0000 0.9996 -0.0290
vn 0.0000 0.9996 -0.0289
vn 0.0001 0.9996 0.0266
vn -0.0000 0.0167 0.9999
vn -0.0098 -0.9990 -0.0426
vn -0.0129 0.0212 -0.9997
vn 0.0035 0.9997 0.0234
vn 0.0001 0.9996 -0.0288
vn 0.0000 0.0144 -0.9999
vn -1.0000 0.0000 0.0064
vn -1.0000 -0.0064 -0.0000
vn -1.0000 0.0003 0.0010
vn -1.0000 -0.0000 -0.0066
vn -1.0000 0.0003 0.0011
vn -1.0000 -0.0066 -0.0000
vn -1.0000 0.0003 -0.0011
vn 0.0011 -0.0013 -1.0000
vn 0.0025 -0.0014 -1.0000
vn -0.0025 -0.0014 -1.0000
vn -0.0024 -0.0674 0.9977
vn 0.0024 -0.0673 0.9977
vn -0.0000 -0.0568 0.9984
vn 0.1759 0.0000 0.9844
vn -0.0000 0.0567 0.9984
vn -1.0000 0.0002 0.0063
vn -1.0000 0.0065 -0.0000
vn 0.0846 -0.0025 0.9964
vn 0.0927 -0.0012 0.9957
vn -0.0966 -0.0025 -0.9953
vn -0.1043 -0.0014 -0.9945
vn -0.0022 -0.0601 -0.9982
vn 0.0022 -0.0601 -0.9982
vn -0.1044 -0.0014 0.9945
vn -0.0966 -0.0025 0.9953
vn -0.0846 -0.0025 0.9964
vn -0.0927 -0.0012 0.9957
vn 0.0966 -0.0025 -0.9953
vn 0.1043 -0.0014 -0.9945
vn 1.0000 -0.0002 -0.0035
vn 1.0000 0.0002 -0.0063
vn 1.0000 0.0000 0.0064
vn 1.0000 -0.0064 0.0000
vn 1.0000 0.0002 0.0063
vn 1.0000 -0.0000 -0.0066
vn 1.0000 0.0003 0.0010
vn 1.0000 -0.0003 -0.0071
vn 1.0000 -0.0066 0.0000
vn 1.0000 0.0003 -0.0010
vn 1.0000 -0.0000 -0.0064
vn 1.0000 -0.0003 0.0070
vn 1.0000 0.0067 0.0000
vn 1.0000 -0.0000 -0.0067
vn 0.0010 -0.0000 -1.0000
vn 0.0000 -0.0689 -0.9976
vn -1.0000 0.0000 0.0065
vn -1.0000 -0.0003 -0.0072
vn -0.1081 0.9941 -0.0000
vn 0.9986 0.0530 0.0000
vn 0.9864 -0.0508 0.1565
vn -0.0000 -0.0567 0.9984
vn -1.0000 0.0067 -0.0000
vn -1.0000 0.0000 0.0067
vn -1.0000 0.0065 0.0002
vn -1.0000 0.0066 -0.0000
vn -1.0000 -0.0010 0.0051
vn -1.0000 -0.0010 -0.0051
vn -1.0000 -0.0018 -0.0073
vn -1.0000 -0.0003 -0.0071
vn -1.0000 -0.0010 0.0053
vn -1.0000 -0.0010 -0.0053
vn -1.0000 -0.0018 -0.0074
vn 0.0000 0.0567 -0.9984
vn 0.0000 -0.0568 -0.9984
vn -1.0000 -0.0003 0.0071
vn -0.0405 -0.9984 -0.0384
vn -0.1748 -0.0541 -0.9831
vn 1.0000 -0.0018 -0.0073
vn 1.0000 -0.0010 -0.0051
vn 1.0000 -0.0010 0.0051
vn 1.0000 -0.0000 -0.0065
vn -0.0001 0.0705 0.9975
vn -0.0001 0.9991 0.0415
vn 0.0432 -0.9991 0.0000
vn 0.0097 0.0562 -0.9984
vn 0.1748 -0.0541 -0.9831
vn 0.9876 -0.0000 -0.1572
vn 0.9864 0.0508 0.1565
vn -1.0000 0.0000 0.0066
vn -1.0000 -0.0018 0.0074
vn -1.0000 -0.0002 0.0069
vn 0.0000 0.7355 -0.6776
vn -0.0001 0.7355 -0.6775
vn 1.0000 -0.0010 -0.0053
vn 1.0000 -0.0010 0.0053
vn 1.0000 -0.0018 0.0074
vn 1.0000 -0.0001 -0.0069
vn 1.0000 0.0000 0.0066
vn -1.0000 -0.0064 0.0001
vn -0.1210 -0.9927 0.0000
vn 1.0000 0.0065 -0.0001
vn 1.0000 -0.0010 0.0052
vn 1.0000 -0.0018 0.0073
vn -0.9986 0.0530 -0.0000
vn -0.9876 0.0000 0.1572
vn -0.9876 -0.0000 -0.1572
vn 0.1759 -0.0001 -0.9844
vn 0.0000 -0.0566 -0.9984
vn 0.0000 0.0566 -0.9984
vn 0.0011 0.7355 -0.6775
vn 0.0000 0.8427 -0.5383
vn 0.0009 -0.6179 0.7863
vn -0.0000 -0.4854 0.8743
vn 0.0000 0.5831 -0.8124
vn -0.0405 0.9984 0.0384
vn -0.1748 -0.0542 0.9831
vn -0.0001 0.9914 -0.1306
vn -0.0097 0.9912 -0.1318
vn -0.0005 0.9914 -0.1309
vn -0.0097 0.0562 -0.9984
vn 0.0011 0.0705 0.9975
vn -0.1099 -0.0010 0.9939
vn -1.0000 -0.0003 0.0072
vn -0.0000 -1.0000 0.0000
vn 0.0000 1.0000 -0.0000
vn -1.0000 -0.0018 0.0073
vn -1.0000 -0.0002 -0.0067
vn 0.9986 -0.0530 0.0000
vn -0.0000 0.0301 0.9995
vn -0.0030 0.0301 0.9995
vn 0.0015 0.0301 0.9995
vn 0.1210 -0.9927 0.0000
vn 0.1209 -0.9927 0.0000
vn 1.0000 -0.0064 0.0001
vn -0.0104 0.0700 0.9975
vn -0.0101 -0.0694 -0.9975
vn -0.0095 -0.7422 0.6702
vn -0.7103 -0.7038 0.0099
vn -0.7133 -0.7009 -0.0009
vn 1.0000 -0.0018 -0.0074
vn 1.0000 -0.0001 0.0070
vn 0.0432 0.9991 -0.0000
vn 0.0430 0.9991 -0.0022
vn 0.9876 0.0000 0.1573
vn 0.0009 0.0144 0.9999
vn 1.0000 0.0000 0.0067
vn 1.0000 0.0065 0.0002
vn 0.0008 0.5824 -0.8129
vn 0.0008 -0.4858 0.8741
vn 0.9991 -0.0418 0.0057
vn 0.9992 0.0250 -0.0303
vn 0.9992 -0.0253 0.0305
vn -0.0027 -1.0000 -0.0064
vn 0.0027 -1.0000 -0.0064
vn 0.0027 -1.0000 0.0064
vn 1.0000 -0.0018 0.0072
vn 0.1082 0.0000 0.9941
vn 0.1106 -0.0010 0.9939
vn 0.1081 0.9941 -0.0000
vn -1.0000 -0.0064 -0.0001
vn -1.0000 -0.0000 -0.0064
vn -0.9864 -0.0509 -0.1565
vn 1.0000 -0.0064 -0.0001
vn 0.1234 -0.0011 0.9924
vn 0.1209 0.0000 0.9927
vn 0.1210 0.0000 0.9927
vn -0.0432 0.9991 -0.0000
vn 0.1202 -0.9927 0.0000
vn -0.1759 -0.0000 -0.9844
vn 0.0011 0.9991 0.0415
vn 0.9999 0.0111 0.0107
vn 0.9993 0.0382 0.0002
vn -1.0000 0.0065 -0.0002
vn -1.0000 -0.0000 -0.0067
vn -0.0027 -1.0000 0.0064
vn 1.0000 -0.0018 -0.0072
vn -0.0405 -0.9984 0.0384
vn -0.0000 -0.9992 0.0409
vn -0.1748 0.0541 0.9831
vn -0.9864 0.0508 0.1565
vn -0.9864 -0.0509 0.1565
vn 0.0405 -0.9984 -0.0384
vn 0.0431 -0.9991 0.0000
vn 0.0405 -0.9984 0.0384
vn -1.0000 -0.0018 0.0072
vn -1.0000 -0.0018 -0.0072
vn 1.0000 -0.0018 0.0075
vn -1.0000 -0.0018 0.0075
vn 0.1749 -0.0541 0.9831
vn 0.1748 0.0541 0.9831
vn -0.1210 0.0000 0.9927
vn -0.1209 0.0000 0.9927
vn -0.1234 -0.0011 0.9924
vn -1.0000 -0.0003 0.0070
vn -0.1202 0.0000 0.9927
vn -0.1227 -0.0011 0.9924
vn -0.1202 0.0000 0.9928
vn 0.0000 0.8427 -0.5384
vn -0.0097 -0.0562 0.9984
vn 0.1210 -0.0000 -0.9927
vn 0.1234 -0.0011 -0.9924
vn 1.0000 -0.0003 -0.0070
vn 1.0000 -0.0003 0.0071
vn 0.1202 0.0000 0.9928
vn 0.1227 -0.0011 0.9924
vn 0.1202 0.0000 0.9927
vn 0.0405 0.9984 0.0384
vn 0.0178 -0.9998 0.0037
vn 0.0177 -0.9998 -0.0038
vn 0.0208 -0.9998 0.0000
vn 0.1106 -0.0010 -0.9939
vn 0.1082 -0.0000 -0.9941
vn 0.0010 -0.0690 -0.9976
vn 0.0000 -0.9029 -0.4299
vn 0.0001 -0.9372 -0.3488
vn 0.0000 -0.9372 -0.3488
vn 0.0000 -0.9379 -0.3470
vn -0.9986 -0.0530 -0.0000
vn -0.0431 -0.9991 0.0000
vn 0.9864 -0.0508 -0.1565
vn 0.9876 -0.0000 -0.1573
vn 0.9864 0.0508 -0.1565
vn 0.0405 0.9984 -0.0384
vn -0.9864 0.0509 0.1565
vn 1.0000 0.0065 0.0000
vn 0.2946 0.9556 -0.0088
vn 0.2956 0.9553 0.0023
vn -0.7161 0.6980 -0.0071
vn -0.7101 -0.4584 0.5344
vn -0.0005 0.7357 -0.6773
vn -0.0005 0.8429 -0.5381
vn -0.0001 0.8427 -0.5383
vn 0.1083 -0.0000 -0.9941
vn -0.0022 -0.9992 0.0408
vn -0.0000 0.9996 0.0270
vn -0.0075 0.5718 -0.8203
vn -0.0079 -0.4928 0.8701
vn -0.0430 -0.9991 -0.0022
vn -0.1234 -0.0011 -0.9924
vn -0.1210 -0.0000 -0.9927
vn -0.1075 -0.0000 -0.9942
vn -0.1099 -0.0010 -0.9939
vn -0.1074 -0.0000 -0.9942
vn 0.1099 -0.0010 -0.9939
vn -0.1082 -0.0000 -0.9941
vn -0.1106 -0.0010 -0.9939
vn -0.0005 0.9533 -0.3020
vn -0.0001 0.9534 -0.3017
vn 0.0033 -0.0309 0.9995
vn 0.0016 -0.0309 0.9995
vn -0.0000 -0.0309 0.9995
vn 0.1748 0.0540 -0.9831
vn 0.1075 0.0000 0.9942
vn 0.1099 -0.0010 0.9939
vn 0.0000 -0.0565 -0.9984
vn -0.9864 -0.0509 0.1566
vn 0.0022 0.9992 0.0408
vn 0.0011 0.9534 -0.3017
vn -0.1211 -0.0000 -0.9926
vn -0.1076 -0.0000 -0.9942
vn -0.1226 -0.0011 -0.9925
vn -0.1202 -0.0000 -0.9928
vn -0.1202 -0.0000 -0.9927
vn -0.0001 0.0141 0.9999
vn -0.0000 0.9996 0.0266
vn -0.0003 0.9997 0.0254
vn 1.0000 0.0000 0.0065
vn -0.0016 -0.0309 0.9995
# 376 vertex normals

vt 0.3808 0.9168 0.0000
vt 0.3848 0.7642 0.0000
vt 0.3887 0.9919 0.0000
vt 0.3632 0.9924 0.0000
vt 0.3729 0.7720 0.0000
vt 0.3741 0.9188 0.0000
vt 0.9345 0.0071 0.0000
vt 0.9345 0.4861 0.0000
vt 0.7305 0.4861 0.0000
vt 0.6462 0.0122 0.0000
vt 0.4427 0.4905 0.0000
vt 0.4415 0.0108 0.0000
vt 0.7305 0.0071 0.0000
vt 0.6460 0.4906 0.0000
vt 0.1781 0.5748 0.0000
vt 0.2256 0.7710 0.0000
vt 0.2270 0.9198 0.0000
vt 0.0132 0.5748 0.0000
vt 0.0302 0.5750 0.0000
vt 0.0139 0.9913 0.0000
vt 0.2756 0.9190 0.0000
vt 0.2766 0.7712 0.0000
vt 0.3231 0.9834 0.0000
vt 0.0774 0.5759 0.0000
vt 0.0763 0.7662 0.0000
vt 0.0762 0.5759 0.0000
vt 0.2266 0.9888 0.0000
vt 0.1792 0.9924 0.0000
vt 0.0743 0.9824 0.0000
vt 0.0348 0.9927 0.0000
vt 0.6691 0.0119 0.0000
vt 0.7141 0.0119 0.0000
vt 0.6908 0.4923 0.0000
vt 0.9913 0.0071 0.0000
vt 0.9695 0.4877 0.0000
vt 0.9477 0.0071 0.0000
vt 0.9462 0.4043 0.0000
vt 0.7188 0.2513 0.0000
vt 0.6734 0.6704 0.0000
vt 0.6719 0.5443 0.0000
vt 0.6654 0.7864 0.0000
vt 0.1703 0.9929 0.0000
vt 0.1763 0.5748 0.0000
vt 0.0790 0.5759 0.0000
vt 0.0991 0.9919 0.0000
vt 0.0769 0.7662 0.0000
vt 0.3140 0.9926 0.0000
vt 0.0314 0.7663 0.0000
vt 0.0339 0.5751 0.0000
vt 0.0765 0.7662 0.0000
vt 0.0743 0.9925 0.0000
vt 0.7290 0.7866 0.0000
vt 0.7132 0.5443 0.0000
vt 0.7377 0.5430 0.0000
vt 0.8397 0.5528 0.0000
vt 0.8635 0.5528 0.0000
vt 0.8433 0.7920 0.0000
vt 0.7142 0.0936 0.0000
vt 0.9462 0.2466 0.0000
vt 0.9462 0.0890 0.0000
vt 0.2285 0.5749 0.0000
vt 0.2467 0.5750 0.0000
vt 0.2480 0.9912 0.0000
vt 0.2541 0.7736 0.0000
vt 0.2546 0.5752 0.0000
vt 0.8259 0.5516 0.0000
vt 0.8270 0.7907 0.0000
vt 0.8058 0.7913 0.0000
vt 0.8388 0.8972 0.0000
vt 0.8395 0.9907 0.0000
vt 0.7381 0.9940 0.0000
vt 0.7390 0.8886 0.0000
vt 0.5506 0.7872 0.0000
vt 0.5412 0.7871 0.0000
vt 0.5332 0.6708 0.0000
vt 0.7649 0.5516 0.0000
vt 0.7884 0.5516 0.0000
vt 0.7850 0.7913 0.0000
vt 0.6092 0.7871 0.0000
vt 0.5912 0.5446 0.0000
vt 0.6162 0.5433 0.0000
vt 0.2527 0.9184 0.0000
vt 0.8974 0.7913 0.0000
vt 0.8974 0.8973 0.0000
vt 0.8807 0.7913 0.0000
vt 0.6461 0.8886 0.0000
vt 0.6637 0.7866 0.0000
vt 0.6470 0.9940 0.0000
vt 0.9017 0.5527 0.0000
vt 0.9013 0.7896 0.0000
vt 0.6464 0.6704 0.0000
vt 0.6464 0.5851 0.0000
vt 0.1411 0.5750 0.0000
vt 0.5901 0.6708 0.0000
vt 0.6458 0.9940 0.0000
vt 0.7637 0.7907 0.0000
vt 0.7887 0.9907 0.0000
vt 0.7638 0.6699 0.0000
vt 0.8600 0.7913 0.0000
vt 0.8638 0.7896 0.0000
vt 0.7162 0.8886 0.0000
vt 0.7214 0.7866 0.0000
vt 0.9913 0.4862 0.0000
vt 0.6675 0.2513 0.0000
vt 0.6675 0.0936 0.0000
vt 0.9006 0.5108 0.0000
vt 0.8765 0.5527 0.0000
vt 0.6474 0.5430 0.0000
vt 0.6710 0.5014 0.0000
vt 0.7141 0.5014 0.0000
vt 0.8631 0.5108 0.0000
vt 0.4980 0.9167 0.0000
vt 0.4756 0.9174 0.0000
vt 0.4788 0.7666 0.0000
vt 0.8256 0.5108 0.0000
vt 0.8015 0.5527 0.0000
vt 0.5593 0.5433 0.0000
vt 0.5343 0.5433 0.0000
vt 0.5578 0.5017 0.0000
vt 0.4779 0.9924 0.0000
vt 0.4365 0.9916 0.0000
vt 0.4954 0.9875 0.0000
vt 0.5926 0.5017 0.0000
vt 0.7651 0.5108 0.0000
vt 0.2480 0.7707 0.0000
vt 0.2504 0.9196 0.0000
vt 0.0101 0.7659 0.0000
vt 0.2738 0.9890 0.0000
vt 0.2558 0.9887 0.0000
vt 0.9461 0.4747 0.0000
vt 0.7142 0.4090 0.0000
vt 0.7142 0.4793 0.0000
vt 0.2500 0.9196 0.0000
vt 0.6851 0.7449 0.0000
vt 0.5768 0.8950 0.0000
vt 0.5969 0.7873 0.0000
vt 0.5793 0.9944 0.0000
vt 0.5294 0.7862 0.0000
vt 0.5203 0.6645 0.0000
vt 0.5399 0.7873 0.0000
vt 0.5203 0.8948 0.0000
vt 0.5266 0.9944 0.0000
vt 0.7363 0.5013 0.0000
vt 0.8401 0.5108 0.0000
vt 0.6675 0.4793 0.0000
vt 0.6675 0.4090 0.0000
vt 0.6628 0.4793 0.0000
vt 0.6665 0.0105 0.0000
vt 0.5982 0.7868 0.0000
vt 0.5899 0.8890 0.0000
vt 0.6147 0.5017 0.0000
vt 0.7881 0.5108 0.0000
vt 0.6489 0.5013 0.0000
vt 0.8776 0.5108 0.0000
vt 0.5357 0.5017 0.0000
vt 0.8032 0.5118 0.0000
vt 0.7071 0.5424 0.0000
vt 0.7197 0.7864 0.0000
vt 0.6993 0.6644 0.0000
vt 0.6984 0.8947 0.0000
vt 0.7009 0.9940 0.0000
vt 0.6301 0.6645 0.0000
vt 0.6105 0.7873 0.0000
vt 0.6267 0.5408 0.0000
vt 0.6335 0.8945 0.0000
vt 0.6531 0.7869 0.0000
vt 0.6439 0.9940 0.0000
vt 0.5736 0.8950 0.0000
vt 0.5731 0.9944 0.0000
vt 0.5523 0.7868 0.0000
vt 0.5720 0.7453 0.0000
vt 0.2370 0.9908 0.0000
vt 0.7425 0.7858 0.0000
vt 0.7516 0.8945 0.0000
vt 0.7320 0.7869 0.0000
vt 0.6759 0.9940 0.0000
vt 0.6735 0.9940 0.0000
vt 0.6728 0.9940 0.0000
vt 0.4784 0.4923 0.0000
vt 0.5443 0.4925 0.0000
vt 0.6475 0.4967 0.0000
vt 0.6527 0.0937 0.0000
vt 0.6527 0.2514 0.0000
vt 0.6476 0.4793 0.0000
vt 0.8269 0.8972 0.0000
vt 0.5326 0.9944 0.0000
vt 0.5330 0.8890 0.0000
vt 0.6859 0.6644 0.0000
vt 0.6842 0.5413 0.0000
vt 0.2246 0.5750 0.0000
vt 0.2768 0.5751 0.0000
vt 0.5237 0.5408 0.0000
vt 0.5263 0.5014 0.0000
vt 0.9463 0.4875 0.0000
vt 0.7188 0.4090 0.0000
vt 0.7188 0.4793 0.0000
vt 0.7187 0.4921 0.0000
vt 0.7009 0.5413 0.0000
vt 0.7117 0.6704 0.0000
vt 0.4751 0.7666 0.0000
vt 0.9461 0.0186 0.0000
vt 0.9695 0.0056 0.0000
vt 0.7187 0.0108 0.0000
vt 0.6908 0.0102 0.0000
vt 0.6676 0.0110 0.0000
vt 0.7516 0.6641 0.0000
vt 0.7457 0.5010 0.0000
vt 0.7505 0.5469 0.0000
vt 0.4193 0.9918 0.0000
vt 0.4314 0.5752 0.0000
vt 0.4294 0.7657 0.0000
vt 0.6356 0.5413 0.0000
vt 0.6395 0.5010 0.0000
vt 0.6335 0.6641 0.0000
vt 0.6772 0.7873 0.0000
vt 0.6868 0.8947 0.0000
vt 0.7894 0.9907 0.0000
vt 0.6544 0.7868 0.0000
vt 0.5711 0.5416 0.0000
vt 0.5727 0.6647 0.0000
vt 0.6479 0.4091 0.0000
vt 0.6481 0.2514 0.0000
vt 0.6525 0.0235 0.0000
vt 0.4787 0.0103 0.0000
vt 0.6478 0.0073 0.0000
vt 0.5446 0.0102 0.0000
vt 0.4413 0.0072 0.0000
vt 0.4389 0.4920 0.0000
vt 0.4361 0.2513 0.0000
vt 0.4409 0.0936 0.0000
vt 0.0764 0.9184 0.0000
vt 0.1394 0.9912 0.0000
vt 0.1221 0.9186 0.0000
vt 0.1302 0.7712 0.0000
vt 0.1207 0.7652 0.0000
vt 0.6677 0.4920 0.0000
vt 0.6629 0.4921 0.0000
vt 0.4408 0.2513 0.0000
vt 0.8325 0.0056 0.0000
vt 0.8985 0.0056 0.0000
vt 0.6210 0.7862 0.0000
vt 0.4300 0.7657 0.0000
vt 0.4284 0.9180 0.0000
vt 0.7140 0.4920 0.0000
vt 0.1125 0.5766 0.0000
vt 0.0285 0.9175 0.0000
vt 0.0257 0.9941 0.0000
vt 0.9080 0.5011 0.0000
vt 0.9285 0.5011 0.0000
vt 0.9416 0.9920 0.0000
vt 0.9490 0.5011 0.0000
vt 0.9530 0.5011 0.0000
vt 0.9735 0.9920 0.0000
vt 0.9530 0.9920 0.0000
vt 0.9866 0.5011 0.0000
vt 0.9941 0.9920 0.0000
vt 0.5806 0.5408 0.0000
vt 0.6675 0.0058 0.0000
vt 0.6908 0.0056 0.0000
vt 0.6037 0.7870 0.0000
vt 0.8020 0.9907 0.0000
vt 0.8013 0.9907 0.0000
vt 0.7079 0.7873 0.0000
vt 0.3228 0.9927 0.0000
vt 0.6241 0.5014 0.0000
vt 0.4411 0.4942 0.0000
vt 0.8269 0.9907 0.0000
vt 0.5200 0.9944 0.0000
vt 0.6676 0.0094 0.0000
vt 0.6628 0.4090 0.0000
vt 0.6629 0.2513 0.0000
vt 0.0034 0.9887 0.0000
vt 0.0063 0.9167 0.0000
vt 0.6164 0.7538 0.0000
vt 0.6172 0.6708 0.0000
vt 0.6174 0.8890 0.0000
vt 0.1210 0.5767 0.0000
vt 0.1282 0.9897 0.0000
vt 0.8400 0.5011 0.0000
vt 0.8632 0.5011 0.0000
vt 0.7047 0.5011 0.0000
vt 0.5604 0.9944 0.0000
vt 0.5596 0.9944 0.0000
vt 0.5863 0.7876 0.0000
vt 0.5784 0.7453 0.0000
vt 0.5777 0.6647 0.0000
vt 0.6426 0.7858 0.0000
vt 0.7142 0.4968 0.0000
vt 0.8013 0.8972 0.0000
vt 0.5641 0.7876 0.0000
vt 0.8644 0.6699 0.0000
vt 0.8645 0.7919 0.0000
vt 0.6476 0.0109 0.0000
vt 0.7638 0.8972 0.0000
vt 0.7646 0.9907 0.0000
vt 0.6301 0.8948 0.0000
vt 0.7291 0.2466 0.0000
vt 0.4379 0.0106 0.0000
vt 0.4752 0.5748 0.0000
vt 0.6481 0.0938 0.0000
vt 0.7307 0.7868 0.0000
vt 0.7387 0.6704 0.0000
vt 0.8025 0.5011 0.0000
vt 0.8257 0.5011 0.0000
vt 0.5672 0.5014 0.0000
vt 0.9927 0.4875 0.0000
vt 0.9928 0.2466 0.0000
vt 0.9928 0.4043 0.0000
vt 0.6675 0.4968 0.0000
vt 0.7292 0.0058 0.0000
vt 0.7664 0.0056 0.0000
vt 0.7290 0.0890 0.0000
vt 0.9358 0.0058 0.0000
vt 0.9360 0.0186 0.0000
vt 0.9360 0.0890 0.0000
vt 0.9359 0.2466 0.0000
vt 0.9360 0.4043 0.0000
vt 0.6804 0.5011 0.0000
vt 0.8775 0.5011 0.0000
vt 0.9007 0.5011 0.0000
vt 0.7650 0.5011 0.0000
vt 0.7882 0.5011 0.0000
vt 0.5832 0.5014 0.0000
vt 0.6102 0.4924 0.0000
vt 0.6521 0.4921 0.0000
vt 0.6474 0.4919 0.0000
vt 0.6737 0.8886 0.0000
vt 0.8763 0.6699 0.0000
vt 0.8388 0.6699 0.0000
vt 0.6512 0.0107 0.0000
vt 0.8013 0.6699 0.0000
vt 0.9019 0.6699 0.0000
vt 0.7188 0.0233 0.0000
vt 0.7188 0.0936 0.0000
vt 0.6102 0.4970 0.0000
vt 0.5443 0.4971 0.0000
vt 0.6862 0.9940 0.0000
vt 0.8763 0.9907 0.0000
vt 0.8763 0.8972 0.0000
vt 0.7116 0.9940 0.0000
vt 0.7115 0.8886 0.0000
vt 0.5900 0.9944 0.0000
vt 0.1289 0.5749 0.0000
vt 0.4786 0.0057 0.0000
vt 0.7664 0.4877 0.0000
vt 0.9928 0.0890 0.0000
vt 0.9929 0.0186 0.0000
vt 0.4361 0.4090 0.0000
vt 0.4411 0.4966 0.0000
vt 0.7139 0.0106 0.0000
vt 0.4413 0.4918 0.0000
vt 0.4408 0.4090 0.0000
vt 0.6675 0.0233 0.0000
vt 0.6105 0.0104 0.0000
vt 0.5605 0.8890 0.0000
vt 0.5628 0.9944 0.0000
vt 0.0757 0.9184 0.0000
vt 0.7520 0.9940 0.0000
vt 0.8388 0.9907 0.0000
vt 0.8387 0.7907 0.0000
vt 0.7393 0.9940 0.0000
vt 0.8644 0.8972 0.0000
vt 0.9463 0.0058 0.0000
vt 0.8012 0.7919 0.0000
vt 0.4280 0.9922 0.0000
vt 0.3317 0.9928 0.0000
vt 0.9020 0.7907 0.0000
vt 0.9019 0.8972 0.0000
vt 0.8762 0.7919 0.0000
vt 0.8985 0.4877 0.0000
vt 0.8325 0.4877 0.0000
vt 0.9360 0.4747 0.0000
vt 0.9360 0.4862 0.0000
vt 0.0097 0.7659 0.0000
vt 0.6178 0.9944 0.0000
vt 0.3729 0.9906 0.0000
vt 0.7305 0.4876 0.0000
vt 0.7290 0.4043 0.0000
vt 0.5773 0.5832 0.0000
vt 0.7894 0.6699 0.0000
vt 0.7387 0.5851 0.0000
vt 0.6526 0.4091 0.0000
vt 0.8644 0.9907 0.0000
vt 0.6989 0.9940 0.0000
vt 0.5774 0.9944 0.0000
vt 0.7894 0.8972 0.0000
vt 0.7896 0.7919 0.0000
vt 0.6331 0.9940 0.0000
vt 0.9019 0.9907 0.0000
vt 0.4365 0.4920 0.0000
vt 0.6628 0.0936 0.0000
vt 0.7291 0.4874 0.0000
vt 0.4363 0.0936 0.0000
vt 0.9358 0.4875 0.0000
vt 0.5446 0.0056 0.0000
vt 0.6105 0.0057 0.0000
vt 0.3877 0.5755 0.0000
vt 0.3729 0.5749 0.0000
vt 0.9927 0.0058 0.0000
vt 0.7140 0.0106 0.0000
vt 0.9929 0.4747 0.0000
vt 0.4368 0.0106 0.0000
vt 0.6478 0.0061 0.0000
vt 0.6305 0.9944 0.0000
vt 0.7638 0.9907 0.0000
vt 0.7894 0.5920 0.0000
vt 0.8269 0.6699 0.0000
vt 0.4965 0.7691 0.0000
vt 0.4958 0.5748 0.0000
vt 0.4963 0.5748 0.0000
vt 0.5603 0.6708 0.0000
# 411 texture coords

o Escritorio043
g Escritorio043
usemtl Material__32224
s 1
f 1/1/1 2/2/2 3/3/3 
usemtl Material__32223
f 3/4/4 2/5/5 1/6/6 
f 4/7/7 5/8/8 6/9/9 
f 7/10/10 8/11/11 9/12/12 
f 6/9/9 10/13/13 4/7/7 
f 8/11/11 7/10/10 11/14/14 
f 12/15/15 13/16/16 14/17/16 
f 15/18/17 16/19/18 17/20/19 
f 18/21/20 19/22/21 12/23/15 
f 20/24/22 21/25/22 22/26/23 
f 23/27/24 24/28/25 12/15/15 
f 22/26/23 25/29/26 26/30/27 
f 27/31/14 28/32/28 29/33/29 
f 30/34/7 29/35/30 31/36/13 
f 31/36/13 29/35/30 32/37/31 
f 33/38/32 29/33/29 28/32/28 
usemtl Material__32224
f 34/39/33 35/40/34 36/41/35 
usemtl Material__32223
f 24/28/36 37/42/37 38/43/38 
f 38/44/39 39/45/40 40/46/41 
f 22/47/42 18/21/20 12/23/15 
f 41/48/43 42/49/43 22/26/23 
f 43/50/44 20/24/44 24/51/45 
f 25/29/26 22/26/23 21/25/22 
usemtl Material__32224
f 44/52/46 45/53/47 46/54/48 
f 47/55/49 48/56/50 49/57/51 
usemtl Material__32223
f 28/32/28 50/58/32 33/38/32 
f 33/59/31 51/60/31 31/36/13 
f 19/61/52 52/62/53 53/63/54 
f 54/64/55 52/65/53 19/22/52 
usemtl Material__32224
f 55/66/56 56/67/57 57/68/58 
f 58/69/59 49/57/60 57/70/59 
f 59/71/61 44/52/62 60/72/61 
f 59/73/63 61/74/63 62/75/63 
f 63/76/64 64/77/56 65/78/57 
f 66/79/65 67/80/66 68/81/67 
usemtl Material__32223
f 69/82/68 54/64/55 19/22/52 
f 42/49/69 41/48/69 16/19/18 
usemtl Material__32224
f 70/83/70 71/84/70 72/85/71 
f 73/86/72 74/87/73 75/88/72 
f 76/89/50 77/90/74 72/85/51 
f 74/87/75 78/91/76 79/92/77 
usemtl Material__32223
f 3/93/4 38/43/38 37/42/37 
usemtl Material__32224
f 67/80/78 66/79/79 80/94/79 
f 75/88/72 81/95/72 73/86/72 
f 71/96/70 65/78/71 72/97/71 
f 82/98/80 63/76/81 65/78/82 
f 83/99/70 57/70/70 49/57/71 
f 84/100/74 49/57/51 48/56/50 
f 59/101/83 85/102/83 44/52/84 
f 45/53/47 44/52/46 85/102/85 
usemtl Material__32223
f 30/34/7 86/103/8 29/35/30 
f 29/33/29 87/104/86 88/105/86 
usemtl Material__32224
f 89/106/87 76/89/88 90/107/87 
f 72/85/51 90/107/89 76/89/50 
f 91/108/90 35/40/91 74/87/46 
f 92/109/92 35/40/93 91/108/93 
f 46/54/94 45/53/94 93/110/95 
f 47/55/96 94/111/96 48/56/97 
usemtl Material__32223
f 69/112/98 95/113/99 16/114/18 
f 19/22/52 18/21/100 69/82/68 
usemtl Material__32224
f 96/115/101 55/66/102 97/116/101 
f 57/68/58 97/116/64 55/66/56 
f 98/117/103 59/73/65 99/118/66 
f 100/119/104 98/117/88 99/118/104 
usemtl Material__32223
f 95/113/105 101/120/106 22/121/23 
f 102/122/107 95/113/99 69/112/98 
usemtl Material__32224
f 68/81/108 67/80/88 103/123/108 
f 64/77/109 63/76/102 104/124/109 
usemtl Material__32223
f 105/125/110 52/62/111 106/126/112 
f 15/18/17 17/20/19 107/127/113 
f 18/21/20 22/47/42 101/128/114 
f 102/129/115 69/82/68 18/21/100 
f 108/130/31 32/37/31 29/35/30 
f 29/33/29 109/131/32 110/132/32 
f 53/63/116 111/133/117 106/126/112 
f 105/125/118 53/63/54 52/62/53 
usemtl Material__32224
f 72/134/119 36/41/35 35/40/34 
f 112/135/120 113/136/121 36/137/35 
f 56/138/33 114/139/122 115/140/123 
f 116/141/124 115/140/123 117/142/125 
f 46/54/126 93/110/127 118/143/128 
f 119/144/129 94/111/130 47/55/130 
usemtl Material__32223
f 29/33/29 120/145/86 121/146/86 
f 122/147/131 123/148/132 121/146/133 
usemtl Material__32224
f 124/149/79 80/94/79 66/79/79 
f 113/136/121 124/149/134 125/150/135 
f 103/123/136 126/151/137 68/81/136 
f 64/77/138 104/124/138 127/152/139 
f 91/108/140 128/153/141 92/109/140 
f 129/154/142 89/106/143 90/107/143 
f 99/118/144 130/155/145 100/119/144 
f 97/116/146 131/156/147 96/115/146 
f 132/157/148 133/158/149 134/159/150 
f 135/160/151 133/158/149 136/161/152 
f 82/162/153 137/163/154 63/164/155 
f 138/165/156 139/166/157 137/167/154 
f 140/168/151 141/169/151 136/170/152 
f 57/171/158 136/170/152 98/117/159 
f 139/166/157 73/86/160 81/95/160 
f 79/92/161 78/91/161 139/166/157 
usemtl Material__32223
f 17/20/19 16/19/18 41/48/69 
f 17/172/162 14/17/163 13/16/163 
usemtl Material__32224
f 142/173/164 58/174/124 117/175/125 
f 142/173/164 117/175/125 46/54/165 
f 36/41/35 113/176/121 143/177/135 
f 143/177/166 75/178/166 74/87/166 
usemtl Material__32223
f 144/179/167 145/180/167 146/181/168 
f 147/182/169 148/183/169 149/184/133 
usemtl Material__32224
f 56/67/59 116/185/59 57/68/59 
f 115/140/123 116/141/124 56/138/33 
f 150/186/170 117/142/125 115/140/123 
f 62/75/171 61/74/172 115/140/123 
f 59/73/61 151/187/62 61/74/61 
f 115/140/123 61/74/172 151/187/173 
f 35/40/34 152/188/119 72/134/119 
f 90/189/174 35/40/175 92/109/176 
usemtl Material__32223
f 153/190/163 19/61/52 17/172/162 
f 19/22/21 153/191/16 12/23/15 
usemtl Material__32224
f 115/140/123 55/192/177 62/75/171 
f 99/118/178 55/192/179 96/193/180 
usemtl Material__32223
f 110/132/181 109/131/181 33/38/182 
f 29/33/29 33/38/32 109/131/32 
usemtl Material__32224
f 80/94/164 124/149/134 113/136/121 
f 67/80/183 80/94/164 113/136/121 
usemtl Material__32223
f 154/194/184 108/130/31 29/35/30 
f 32/195/182 108/196/182 154/197/185 
usemtl Material__32224
f 93/110/186 45/53/187 48/198/188 
f 133/158/149 132/157/148 155/199/189 
usemtl Material__32223
f 156/200/190 16/114/18 95/113/99 
f 22/121/23 156/200/191 95/113/105 
f 51/60/31 157/201/31 31/36/13 
f 158/202/192 30/34/7 31/36/13 
f 50/58/181 28/32/193 159/203/194 
f 159/203/195 160/204/167 161/205/196 
usemtl Material__32224
f 46/54/165 162/206/197 142/173/164 
f 119/207/198 47/208/199 46/54/179 
usemtl Material__32223
f 40/46/41 20/24/200 38/44/39 
f 38/209/39 20/210/200 163/211/201 
f 33/38/182 32/195/182 154/197/185 
f 32/37/31 33/59/31 31/36/13 
usemtl Material__32224
f 91/108/202 76/212/203 89/213/204 
f 91/108/205 139/166/157 164/214/206 
f 165/215/207 166/216/120 36/41/35 
f 167/217/208 72/97/208 65/78/208 
f 74/87/73 73/86/72 168/218/73 
f 139/166/157 168/218/209 73/86/160 
f 97/219/187 98/117/210 100/119/211 
f 98/117/159 169/220/158 57/171/158 
usemtl Material__32223
f 170/221/133 171/222/133 172/223/169 
f 173/224/212 174/225/213 175/226/212 
f 174/225/213 173/224/212 176/227/214 
f 177/228/215 178/229/216 179/230/217 
f 24/51/218 180/231/41 39/45/40 
f 180/231/219 24/51/45 20/24/44 
f 39/232/220 181/233/221 182/234/221 
f 183/235/222 181/233/222 39/45/40 
f 29/33/29 184/236/223 120/145/86 
f 121/146/133 120/145/133 185/237/224 
f 177/228/215 179/230/217 186/238/217 
f 10/13/13 187/239/192 188/240/192 
usemtl Material__32224
f 137/163/154 82/162/153 71/241/153 
f 65/78/82 71/96/82 82/98/80 
usemtl Material__32223
f 121/146/133 123/148/132 87/104/133 
f 29/33/29 121/146/86 87/104/86 
f 22/121/23 189/242/225 20/210/22 
f 38/209/226 190/243/227 22/121/23 
f 29/33/29 110/132/32 191/244/12 
f 33/38/182 191/244/228 110/132/181 
usemtl Material__32224
f 39/45/40 38/44/39 3/245/3 
usemtl Material__32223
f 192/246/69 23/247/229 17/20/19 
f 22/26/23 26/30/27 41/48/43 
usemtl Material__32224
f 62/75/63 99/118/230 59/73/63 
f 99/118/231 62/75/171 55/192/177 
usemtl Material__32223
f 193/248/232 194/249/232 195/250/232 
f 194/249/233 193/251/233 195/250/233 
f 196/252/232 197/253/232 198/254/232 
f 196/255/233 198/256/233 197/253/233 
usemtl Material__32224
f 103/123/234 67/80/174 64/257/175 
f 113/136/121 64/257/235 67/80/183 
usemtl Material__32223
f 88/105/133 87/104/133 123/148/132 
f 161/205/196 199/258/168 158/259/236 
usemtl Material__32224
f 125/150/166 124/149/166 75/260/166 
f 75/260/237 124/149/238 66/79/239 
f 57/68/240 83/261/241 141/262/240 
f 133/158/149 135/160/151 200/263/242 
f 74/87/75 168/218/75 78/91/76 
f 78/91/161 168/218/209 139/166/157 
usemtl Material__32223
f 95/113/99 102/122/107 101/120/243 
f 18/21/100 101/128/244 102/129/115 
f 12/15/245 24/28/36 38/43/38 
f 12/23/15 201/264/246 22/47/247 
usemtl Material__32224
f 104/265/248 63/164/202 68/81/203 
f 68/81/249 63/164/155 137/163/154 
usemtl Material__32223
f 145/180/250 144/179/250 8/11/11 
f 144/179/250 177/266/251 8/11/11 
usemtl Material__32224
f 116/185/59 202/267/59 57/68/59 
f 117/142/125 202/268/124 116/141/124 
usemtl Material__32223
f 161/205/196 123/269/252 199/258/168 
f 203/270/131 204/271/131 123/148/132 
usemtl Material__32224
f 59/73/61 150/186/61 151/187/62 
f 115/140/123 151/187/173 150/186/170 
usemtl Material__32223
f 53/272/253 106/273/17 17/20/19 
f 53/63/54 17/172/162 19/61/52 
usemtl Material__32224
f 137/163/154 205/274/254 206/275/254 
f 81/95/160 137/167/154 139/166/157 
f 207/276/160 66/79/255 137/163/154 
f 66/79/72 207/276/73 75/260/72 
usemtl Material__32223
f 39/45/40 3/245/3 208/277/222 
f 182/234/221 3/93/4 39/232/220 
usemtl Material__32224
f 181/233/222 209/278/256 39/45/40 
usemtl Material__32223
f 39/232/220 209/278/257 181/233/221 
f 24/28/258 39/232/259 37/42/260 
usemtl Material__32224
f 118/279/261 93/280/262 94/111/263 
f 93/110/186 48/198/188 94/281/264 
f 136/170/265 59/73/265 98/117/266 
f 210/282/267 85/283/267 59/73/267 
f 113/136/121 112/135/120 211/284/268 
f 65/285/269 212/286/269 113/136/121 
f 213/287/206 164/214/206 139/166/157 
f 139/166/157 138/165/156 213/287/206 
usemtl Material__32223
f 191/244/228 33/38/182 154/197/185 
f 191/244/214 154/288/270 29/33/212 
usemtl Material__32224
f 141/262/240 140/289/240 57/68/240 
f 214/290/271 140/168/151 136/170/152 
f 200/263/242 134/159/150 133/158/149 
f 48/56/272 134/291/273 200/292/274 
usemtl Material__32223
f 12/15/15 153/190/16 13/16/16 
f 17/172/162 13/16/163 153/190/163 
f 7/10/10 215/293/223 172/223/86 
f 173/224/275 175/226/275 7/10/10 
usemtl Material__32224
f 216/294/276 71/96/276 70/295/276 
f 71/241/153 216/296/156 137/163/154 
usemtl Material__32223
f 10/13/13 6/9/9 178/297/31 
f 176/298/277 179/230/217 178/229/216 
f 16/114/18 156/200/190 42/299/69 
f 22/121/23 42/299/43 156/200/191 
f 23/247/278 192/246/43 26/30/27 
f 24/51/258 23/247/279 26/30/280 
f 7/10/10 171/222/86 170/221/86 
f 7/10/10 172/223/86 217/300/86 
usemtl Material__32224
f 60/72/170 218/301/281 117/175/125 
f 117/175/125 44/52/122 219/302/282 
f 131/156/262 100/303/263 130/304/283 
f 131/305/284 97/219/187 100/119/211 
usemtl Material__32223
f 86/103/8 185/306/285 29/35/30 
f 204/307/286 203/308/286 86/103/8 
f 184/236/287 185/237/224 120/145/133 
f 184/236/288 29/33/212 185/309/289 
f 10/13/13 220/310/290 144/311/291 
f 178/297/31 221/312/31 10/13/13 
f 146/313/292 149/314/286 4/7/7 
f 188/240/192 4/7/7 10/13/13 
f 149/314/286 222/315/286 4/7/7 
f 148/316/286 147/317/286 4/7/7 
usemtl Material__32224
f 92/109/176 129/318/293 90/189/174 
f 129/154/283 92/319/261 128/320/262 
f 126/321/263 103/322/283 127/152/261 
f 64/257/175 127/323/294 103/123/234 
f 68/81/203 126/151/295 104/265/248 
f 127/152/261 104/124/262 126/321/263 
f 89/213/204 128/153/248 91/108/202 
f 128/320/262 89/106/263 129/154/283 
f 46/54/179 118/143/180 119/207/198 
f 94/111/263 119/144/283 118/279/261 
f 130/304/283 96/115/261 131/156/262 
f 96/193/180 130/155/296 99/118/178 
usemtl Material__32223
f 8/11/11 11/14/14 223/324/250 
f 146/325/297 224/326/298 149/184/133 
usemtl Material__32224
f 74/87/166 36/41/166 225/327/166 
f 72/85/299 152/328/300 90/107/301 
f 35/40/34 90/189/302 152/188/119 
f 46/54/165 47/208/199 162/206/197 
f 162/329/303 47/55/304 49/57/305 
usemtl Material__32223
f 20/24/44 40/46/306 180/231/219 
f 180/231/41 40/46/41 39/45/40 
f 37/42/37 39/232/220 3/93/4 
f 5/8/8 4/7/7 147/317/286 
f 172/223/169 215/293/287 174/330/307 
usemtl Material__32224
f 57/68/308 169/331/308 97/116/309 
f 98/117/159 97/219/310 169/220/158 
f 164/214/206 76/212/311 91/108/205 
f 77/90/312 76/89/313 164/332/314 
usemtl Material__32223
f 157/333/182 51/334/182 50/58/181 
f 33/38/182 50/58/181 51/334/182 
f 10/13/13 144/311/291 187/239/192 
f 188/335/236 187/336/236 144/179/167 
f 224/326/315 223/324/250 11/14/14 
f 223/324/167 224/326/252 146/181/168 
usemtl Material__32224
f 134/159/150 48/198/159 132/157/148 
f 48/198/316 45/53/317 132/157/318 
f 166/216/120 167/337/120 36/41/35 
f 167/338/208 166/339/208 72/85/208 
usemtl Material__32223
f 192/246/43 41/48/43 26/30/27 
f 41/48/69 192/246/69 17/20/19 
usemtl Material__32224
f 45/53/319 85/102/320 133/158/320 
f 210/340/267 226/341/267 85/102/267 
f 113/136/121 125/150/135 143/342/135 
f 143/342/166 125/150/166 75/260/166 
usemtl Material__32223
f 14/17/163 17/172/162 23/27/321 
f 14/17/16 23/27/24 12/15/15 
f 182/234/322 181/233/323 208/343/324 
f 3/93/4 182/234/221 208/343/221 
f 179/230/32 9/12/12 8/11/11 
f 179/230/217 176/298/277 9/12/217 
f 208/277/222 183/235/222 39/45/40 
f 181/233/323 183/235/325 208/277/324 
f 174/225/213 176/227/214 227/344/326 
f 227/345/327 6/9/9 5/8/8 
f 86/103/8 30/34/7 228/346/286 
f 123/347/286 228/346/286 30/34/7 
f 178/229/216 177/228/215 221/348/216 
f 144/179/167 220/349/328 177/266/329 
f 229/350/330 160/204/167 159/203/195 
f 28/32/28 27/31/14 160/204/250 
f 8/11/11 186/238/32 179/230/32 
f 8/11/11 230/351/331 231/352/32 
f 88/105/86 27/31/14 29/33/29 
f 232/353/133 88/105/133 123/148/132 
f 215/293/332 233/354/212 174/225/213 
f 233/354/275 215/293/223 7/10/10 
usemtl Material__32224
f 59/73/267 136/170/267 234/355/267 
f 136/170/152 133/356/149 210/282/333 
usemtl Material__32223
f 25/29/26 24/51/334 26/30/335 
f 21/25/22 235/357/22 25/29/26 
usemtl Material__32224
f 58/174/124 202/358/124 117/175/125 
f 57/70/59 202/359/59 58/69/59 
f 49/57/305 142/360/305 162/329/303 
f 49/57/60 58/69/59 142/360/60 
f 60/72/61 150/361/61 59/71/61 
f 150/361/170 60/72/170 117/175/125 
f 200/292/274 84/100/274 48/56/272 
f 83/99/241 200/292/241 135/362/240 
usemtl Material__32223
f 31/36/13 159/363/290 158/202/192 
f 158/259/236 159/203/195 161/205/196 
usemtl Material__32224
f 140/289/240 214/364/240 57/68/240 
f 136/170/152 57/171/158 214/290/271 
usemtl Material__32223
f 201/365/336 38/209/226 22/121/23 
f 201/264/337 12/23/245 38/366/38 
f 38/209/39 163/211/201 190/243/338 
f 190/243/339 163/211/340 20/210/44 
usemtl Material__32224
f 164/332/314 213/367/312 77/90/312 
f 213/367/276 138/368/276 70/83/276 
f 36/41/35 72/134/119 165/215/207 
f 166/339/208 165/369/208 72/85/208 
f 155/199/320 132/157/341 45/53/319 
f 133/158/320 155/199/320 45/53/319 
usemtl Material__32223
f 5/8/8 236/370/30 237/371/327 
f 172/372/286 174/373/342 5/8/8 
f 52/374/111 107/127/343 106/273/112 
f 106/273/17 107/127/113 17/20/19 
usemtl Material__32224
f 207/276/73 81/375/72 75/260/72 
f 81/375/160 207/276/160 137/163/154 
usemtl Material__32223
f 173/224/212 9/12/214 176/227/214 
f 7/10/10 9/12/12 173/224/275 
usemtl Material__32224
f 238/376/344 1/1/1 3/3/3 
usemtl Material__32223
f 1/6/6 238/376/345 3/4/4 
f 6/9/9 227/345/327 176/377/346 
f 239/378/31 178/297/31 6/9/9 
usemtl Material__32224
f 212/286/269 240/379/33 113/136/121 
f 64/77/347 212/380/348 65/78/348 
f 44/52/349 46/54/350 219/302/351 
f 117/175/125 219/302/282 241/381/282 
f 139/166/157 91/108/205 79/92/161 
f 79/92/77 91/108/352 74/87/75 
usemtl Material__32223
f 171/222/133 217/300/133 172/223/169 
f 7/10/10 217/300/86 171/222/86 
f 148/183/169 222/382/169 149/184/133 
f 222/315/286 148/316/286 4/7/7 
usemtl Material__32224
f 83/99/241 135/362/240 141/383/240 
f 136/161/152 141/384/151 135/160/151 
usemtl Material__32223
f 223/324/250 145/180/250 8/11/11 
f 146/181/168 145/180/167 223/324/167 
usemtl Material__32224
f 36/137/35 167/385/120 112/135/120 
f 65/78/208 112/386/208 167/217/208 
f 133/158/149 85/102/333 226/341/333 
f 133/158/149 226/341/333 210/340/333 
f 117/175/125 218/301/281 44/52/122 
f 218/301/62 60/72/61 44/52/62 
f 65/78/208 211/387/208 112/386/208 
f 211/284/268 65/285/269 113/136/121 
f 36/41/353 74/87/353 35/40/354 
usemtl Material__32223
f 22/121/23 190/243/227 189/242/225 
f 190/243/355 20/210/44 189/242/356 
usemtl Material__32224
f 137/167/154 242/388/156 138/165/156 
f 138/368/276 242/389/276 70/83/276 
f 143/177/135 225/327/135 36/41/35 
f 74/87/166 225/327/166 143/177/166 
usemtl Material__32223
f 220/390/216 221/348/216 177/228/215 
f 221/312/31 220/310/290 10/13/13 
f 8/11/11 177/266/251 230/351/331 
f 231/352/217 230/351/217 177/228/215 
f 228/346/286 204/307/286 86/103/8 
f 228/391/131 123/148/132 204/271/131 
f 233/354/212 175/226/212 174/225/213 
f 175/226/275 233/354/275 7/10/10 
f 243/392/184 239/378/31 6/9/9 
f 178/229/216 239/393/216 176/298/277 
f 5/8/8 244/394/285 236/370/30 
f 237/395/326 236/396/326 174/225/213 
usemtl Material__32224
f 59/73/267 234/355/267 210/282/267 
f 210/282/333 234/355/333 136/170/152 
usemtl Material__32223
f 170/221/86 11/14/14 7/10/10 
f 11/14/14 149/184/86 224/326/315 
usemtl Material__32224
f 200/292/357 83/99/358 84/100/357 
f 83/99/358 49/57/359 84/100/357 
usemtl Material__32223
f 2/2/2 208/397/222 3/3/3 
usemtl Material__32224
f 3/4/4 208/398/221 2/5/5 
usemtl Material__32223
f 186/238/217 231/352/217 177/228/215 
f 8/11/11 231/352/32 186/238/32 
f 199/399/292 123/347/286 30/34/7 
f 30/34/7 158/202/192 199/399/292 
f 229/400/360 159/203/194 28/32/193 
f 160/204/250 229/350/331 28/32/28 
f 144/179/167 146/181/168 188/335/236 
f 4/7/7 188/240/192 146/313/292 
usemtl Material__32224
f 137/163/154 206/275/254 68/81/249 
f 206/275/361 205/274/361 68/81/362 
usemtl Material__32223
f 122/401/286 185/306/285 86/103/8 
f 185/237/224 122/147/131 121/146/133 
f 243/392/184 6/9/9 176/377/346 
f 239/393/216 243/402/363 176/298/277 
f 5/8/8 174/373/342 244/394/285 
f 244/403/364 174/225/213 236/396/326 
f 27/31/14 88/105/86 232/353/86 
f 161/205/365 160/204/250 27/31/14 
f 123/148/132 161/205/298 232/353/133 
f 27/31/14 232/353/86 161/205/365 
f 24/51/45 235/357/44 43/50/44 
f 24/51/45 25/29/366 235/357/44 
usemtl Material__32224
f 216/296/156 242/404/156 137/163/154 
f 70/295/276 242/405/276 216/294/276 
f 64/257/235 113/136/121 240/379/33 
f 64/77/347 240/406/367 212/380/348 
f 241/381/368 219/302/351 46/54/350 
f 241/381/282 46/54/165 117/175/125 
usemtl Material__32223
f 157/201/31 159/363/290 31/36/13 
f 50/58/181 159/203/194 157/333/182 
usemtl Material__32224
f 55/192/177 115/140/123 114/139/122 
f 55/66/369 114/407/370 56/67/371 
usemtl Material__32223
f 11/14/14 170/221/86 149/184/86 
f 172/223/169 149/184/133 170/221/133 
f 149/184/133 172/223/169 147/182/169 
f 147/317/286 172/372/286 5/8/8 
f 54/408/372 16/114/18 15/409/17 
f 16/114/18 54/408/372 69/112/98 
f 15/409/373 52/410/111 54/408/374 
f 52/374/111 15/18/373 107/127/343 
f 5/8/8 237/371/327 227/345/327 
f 227/344/326 237/395/326 174/225/213 
f 123/148/132 122/147/131 203/270/131 
f 203/308/286 122/401/286 86/103/8 
f 53/63/54 105/125/118 111/133/53 
f 106/126/112 111/133/117 105/125/110 
usemtl Material__32224
f 98/117/266 245/411/265 136/170/265 
f 136/170/152 245/411/375 98/117/159 
f 66/79/361 68/81/362 205/274/361 
f 137/163/154 66/79/255 205/274/254 
f 35/40/354 34/39/353 36/41/353 
usemtl Material__32223
f 21/25/22 43/50/44 235/357/44 
f 20/24/44 43/50/44 21/25/22 
usemtl Material__32224
f 77/90/357 70/83/358 72/85/376 
f 77/90/357 213/367/357 70/83/358 
# 462 faces

