# 3ds Max Wavefront OBJ Exporter v0.99 - (c)2007 guruware
# File Created: 13.05.2025 18:17:53

mtllib LeftEgg.mtl

#
# object LeftEgg
#

v  7.7170 1.7590 -6.8990
v  7.6320 2.2590 -8.3680
v  9.0670 2.7260 -8.2500
v  9.1850 2.2470 -6.8140
v  9.2860 1.9120 -5.3320
v  7.7910 1.4110 -5.3870
v  6.2530 1.0640 -5.4360
v  6.2040 1.4210 -6.9730
v  6.1500 1.9340 -8.4690
v  4.6630 1.2250 -7.0260
v  4.6360 1.7450 -8.5390
v  4.6870 0.8640 -5.4710
v  7.8440 1.2080 -3.8450
v  9.3570 1.7160 -3.8180
v  9.3840 1.6520 -2.2890
v  7.8650 1.1420 -2.2890
v  6.3020 0.7900 -2.2890
v  6.2880 0.8570 -3.8700
v  4.7050 0.6530 -3.8870
v  4.7120 0.5860 -2.2890
v  3.1070 0.5210 -2.2890
v  3.1070 0.5890 -3.8940
v  8.9440 3.3540 -9.6220
v  7.5460 2.9170 -9.7780
v  6.0960 2.6110 -9.9070
v  6.0510 3.4600 -11.2750
v  7.4740 3.7440 -11.1160
v  8.8370 4.1440 -10.9200
v  7.4280 4.7470 -12.3700
v  8.7670 5.1040 -12.1300
v  6.0240 4.4900 -12.5590
v  6.0220 5.7080 -13.7440
v  7.4230 5.9350 -13.5250
v  8.7550 6.2460 -13.2400
v  4.6100 2.4310 -9.9960
v  4.5890 3.2920 -11.3820
v  4.5760 4.3350 -12.6830
v  4.5760 5.5690 -13.8850
v  10.2710 3.9270 -9.4540
v  10.4400 3.3420 -8.1260
v  10.1200 4.6620 -10.6990
v  11.3100 5.3100 -10.4920
v  11.5170 4.6500 -9.3030
v  11.7370 4.1190 -8.0190
v  12.9470 5.0690 -7.9490
v  12.6700 5.5380 -9.2010
v  12.3900 6.0980 -10.3360
v  13.3520 7.0560 -10.2880
v  13.7190 6.6050 -9.1780
v  14.0570 6.2030 -7.9370
v  10.0180 5.5610 -11.8520
v  9.9950 6.6360 -12.9010
v  11.1050 7.0750 -12.5350
v  11.1540 6.1080 -11.5730
v  12.1440 6.7390 -11.3270
v  12.0460 7.5330 -12.1660
v  12.6900 7.9110 -11.8730
v  12.9840 7.5250 -11.2280
v  10.5960 2.8930 -6.7290
v  11.9340 3.7070 -6.6560
v  12.0930 3.4140 -5.2340
v  10.7250 2.5770 -5.2780
v  10.8130 2.3900 -3.7920
v  12.1990 3.2390 -3.7710
v  12.2390 3.1810 -2.2890
v  10.8470 2.3290 -2.2890
v  13.1870 4.7000 -6.6100
v  14.3420 5.8820 -6.6050
v  14.5610 5.6460 -5.2050
v  13.3760 4.4340 -5.2060
v  13.5000 4.2730 -3.7590
v  14.7020 5.5000 -3.7580
v  14.7530 5.4500 -2.2890
v  13.5460 4.2190 -2.2890
v  7.7170 1.7590 2.3210
v  9.1850 2.2470 2.2360
v  9.0670 2.7260 3.6710
v  7.6320 2.2590 3.7890
v  6.1500 1.9340 3.8900
v  6.2040 1.4210 2.3950
v  6.2530 1.0640 0.8570
v  7.7910 1.4110 0.8080
v  9.2860 1.9120 0.7540
v  7.8440 1.2080 -0.7330
v  9.3570 1.7160 -0.7600
v  6.2880 0.8570 -0.7090
v  4.6630 1.2250 2.4480
v  4.6360 1.7450 3.9610
v  3.1070 1.6840 3.9890
v  3.1070 1.1620 2.4690
v  3.1070 0.8000 0.9060
v  4.6870 0.8640 0.8920
v  4.7050 0.6530 -0.6910
v  3.1070 0.5890 -0.6840
v  10.4400 3.3420 3.5480
v  10.5960 2.8930 2.1500
v  10.7250 2.5770 0.7000
v  12.0930 3.4140 0.6550
v  11.9340 3.7070 2.0780
v  11.7370 4.1190 3.4410
v  13.1870 4.7000 2.0320
v  12.9470 5.0690 3.3710
v  13.3760 4.4340 0.6280
v  14.5610 5.6460 0.6260
v  14.3420 5.8820 2.0270
v  14.0570 6.2030 3.3590
v  10.8130 2.3900 -0.7860
v  12.1990 3.2390 -0.8070
v  13.5000 4.2730 -0.8200
v  14.7020 5.5000 -0.8200
v  10.2710 3.9270 4.8750
v  8.9440 3.3540 5.0440
v  11.5170 4.6500 4.7250
v  11.3100 5.3100 5.9140
v  10.1200 4.6620 6.1210
v  8.8370 4.1440 6.3410
v  8.7670 5.1040 7.5520
v  10.0180 5.5610 7.2740
v  11.1540 6.1080 6.9940
v  11.1050 7.0750 7.9570
v  9.9950 6.6360 8.3230
v  8.7550 6.2460 8.6620
v  12.6700 5.5380 4.6220
v  13.7190 6.6050 4.5990
v  13.3520 7.0560 5.7090
v  12.3900 6.0980 5.7580
v  12.1440 6.7390 6.7480
v  12.9840 7.5250 6.6500
v  12.6900 7.9110 7.2940
v  12.0460 7.5330 7.5880
v  7.5460 2.9170 5.2000
v  7.4740 3.7440 6.5380
v  6.0510 3.4600 6.6970
v  6.0960 2.6110 5.3290
v  4.6100 2.4310 5.4170
v  4.5890 3.2920 6.8030
v  3.1070 3.2370 6.8430
v  3.1070 2.3730 5.4510
v  7.4280 4.7470 7.7910
v  7.4230 5.9350 8.9460
v  6.0220 5.7080 9.1650
v  6.0240 4.4900 7.9800
v  4.5760 4.3350 8.1040
v  4.5760 5.5690 9.3070
v  3.1070 5.5210 9.3580
v  3.1070 4.2830 8.1500
v  8.8430 39.3660 -6.5560
v  8.7360 38.8990 -7.9180
v  7.3730 39.4920 -8.0250
v  7.4490 39.9830 -6.6320
v  5.9720 39.9200 -8.1180
v  6.0210 40.4260 -6.7000
v  6.0660 40.7730 -5.2480
v  7.5170 40.3200 -5.2040
v  8.9350 39.6900 -5.1550
v  7.5660 40.5150 -3.7520
v  9.0010 39.8770 -3.7280
v  6.0980 40.9720 -3.7740
v  6.1120 41.0350 -2.2890
v  7.5860 40.5760 -2.2890
v  9.0270 39.9370 -2.2890
v  4.5460 40.1810 -8.1840
v  4.5700 40.6940 -6.7490
v  4.5920 41.0460 -5.2810
v  4.6080 41.2480 -3.7910
v  3.1070 41.4040 -2.2890
v  4.6150 41.3110 -2.2890
v  10.1890 38.5810 -6.4810
v  10.0470 38.1460 -7.8100
v  10.3090 38.8840 -5.1080
v  11.6260 37.9040 -5.0730
v  11.4780 37.6250 -6.4220
v  11.2980 37.2310 -7.7200
v  12.7000 36.5010 -6.3920
v  12.4780 36.1530 -7.6700
v  12.8770 36.7520 -5.0560
v  14.0500 35.4280 -5.0670
v  13.8440 35.2080 -6.4050
v  13.5770 34.9080 -7.6810
v  10.3910 39.0620 -3.7060
v  10.4240 39.1190 -2.2890
v  11.7640 38.1250 -2.2890
v  11.7260 38.0700 -3.6900
v  12.9940 36.9040 -3.6820
v  13.0380 36.9550 -2.2890
v  14.2330 35.6120 -2.2890
v  14.1840 35.5650 -3.6880
v  8.6270 38.2780 -9.2300
v  9.8970 37.5740 -9.0790
v  11.0980 36.7190 -8.9500
v  10.9160 36.0760 -10.0980
v  9.7670 36.8470 -10.2810
v  8.5380 37.4900 -10.4800
v  8.4880 36.5210 -11.6600
v  9.6890 35.9480 -11.4050
v  10.7870 35.2860 -11.1520
v  10.7660 34.3130 -12.1050
v  9.6930 34.8570 -12.4440
v  8.4980 35.3540 -12.7590
v  12.2230 35.7080 -8.8720
v  13.2620 34.5350 -8.8750
v  12.9220 34.1170 -9.9490
v  11.9700 35.1730 -9.9690
v  11.7520 34.5530 -10.9350
v  12.5830 33.6800 -10.8640
v  12.3130 33.3210 -11.4960
v  11.6820 33.7630 -11.7650
v  7.2990 38.8370 -9.3720
v  7.2400 38.0070 -10.6610
v  5.8900 38.3880 -10.8090
v  5.9260 39.2450 -9.4910
v  4.5240 39.4950 -9.5740
v  4.5070 38.6230 -10.9090
v  7.2100 36.9880 -11.8830
v  7.2220 35.7670 -13.0260
v  5.8850 36.0810 -13.2330
v  5.8740 37.3370 -12.0590
v  4.5000 37.5560 -12.1770
v  4.5060 36.2810 -13.3670
v  7.3730 39.4920 3.4470
v  8.7360 38.8990 3.3400
v  8.8430 39.3660 1.9770
v  7.4490 39.9830 2.0540
v  8.9350 39.6900 0.5760
v  7.5170 40.3200 0.6250
v  6.0660 40.7730 0.6700
v  6.0210 40.4260 2.1210
v  5.9720 39.9200 3.5390
v  4.5700 40.6940 2.1710
v  4.5460 40.1810 3.6050
v  4.5920 41.0460 0.7030
v  3.1070 41.1380 0.7160
v  3.1070 40.7850 2.1900
v  3.1070 40.2690 3.6310
v  7.5660 40.5150 -0.8260
v  9.0010 39.8770 -0.8500
v  6.0980 40.9720 -0.8040
v  4.6080 41.2480 -0.7880
v  3.1070 41.3410 -0.7810
v  7.2990 38.8370 4.7930
v  8.6270 38.2780 4.6510
v  5.9260 39.2450 4.9130
v  5.8900 38.3880 6.2300
v  7.2400 38.0070 6.0830
v  8.5380 37.4900 5.9020
v  7.2100 36.9880 7.3040
v  8.4880 36.5210 7.0820
v  5.8740 37.3370 7.4810
v  5.8850 36.0810 8.6540
v  7.2220 35.7670 8.4480
v  8.4980 35.3540 8.1810
v  4.5240 39.4950 4.9950
v  3.1070 39.5800 5.0280
v  3.1070 38.7050 6.3680
v  4.5070 38.6230 6.3300
v  4.5000 37.5560 7.5980
v  3.1070 37.6330 7.6420
v  3.1070 36.3530 8.8370
v  4.5060 36.2810 8.7880
v  10.0470 38.1460 3.2310
v  9.8970 37.5740 4.5010
v  9.7670 36.8470 5.7020
v  10.9160 36.0760 5.5200
v  11.0980 36.7190 4.3710
v  11.2980 37.2310 3.1420
v  12.4780 36.1530 3.0920
v  12.2230 35.7080 4.2930
v  11.9700 35.1730 5.3910
v  12.9220 34.1170 5.3710
v  13.2620 34.5350 4.2970
v  13.5770 34.9080 3.1030
v  9.6890 35.9480 6.8270
v  9.6930 34.8570 7.8660
v  10.7660 34.3130 7.5260
v  10.7870 35.2860 6.5740
v  11.7520 34.5530 6.3560
v  11.6820 33.7630 7.1870
v  12.3130 33.3210 6.9170
v  12.5830 33.6800 6.2860
v  10.1890 38.5810 1.9030
v  11.4780 37.6250 1.8440
v  11.6260 37.9040 0.4950
v  10.3090 38.8840 0.5300
v  10.3910 39.0620 -0.8720
v  11.7260 38.0700 -0.8890
v  12.7000 36.5010 1.8140
v  13.8440 35.2080 1.8260
v  14.0500 35.4280 0.4890
v  12.8770 36.7520 0.4780
v  12.9940 36.9040 -0.8960
v  14.1840 35.5650 -0.8900
v  18.2960 14.2940 -7.0850
v  17.7730 12.3580 -6.9740
v  17.3260 12.4890 -8.4500
v  17.8270 14.3880 -8.6020
v  18.1850 16.3680 -8.7250
v  18.6700 16.3060 -7.1770
v  19.0160 16.2540 -5.5760
v  18.6330 14.2160 -5.5160
v  18.0950 12.2510 -5.4420
v  18.8370 14.1610 -3.9110
v  18.2900 12.1790 -3.8750
v  19.2250 16.2180 -3.9410
v  19.2950 16.2030 -2.2890
v  18.9050 14.1400 -2.2890
v  18.3560 12.1510 -2.2890
v  18.8830 18.3690 -7.2360
v  18.3910 18.4010 -8.8040
v  18.4330 20.4600 -8.8220
v  18.9260 20.4540 -7.2500
v  19.2790 20.4500 -5.6250
v  19.2340 18.3410 -5.6160
v  19.4460 18.3220 -3.9610
v  19.4900 20.4480 -3.9660
v  19.5610 20.4470 -2.2890
v  19.5160 18.3140 -2.2890
v  16.6940 10.6990 -8.2840
v  17.1080 10.5250 -6.8540
v  17.4100 10.3870 -5.3650
v  16.5870 8.6470 -5.2940
v  16.3100 8.8180 -6.7430
v  15.9360 9.0400 -8.1280
v  15.0550 7.5340 -8.0050
v  15.3860 7.2630 -6.6550
v  15.6340 7.0590 -5.2370
v  17.5950 10.2950 -3.8370
v  17.6580 10.2610 -2.2890
v  16.8180 8.4970 -2.2890
v  16.7590 8.5370 -3.8020
v  15.7920 6.9300 -3.7740
v  15.8470 6.8850 -2.2890
v  16.1730 10.8990 -9.6360
v  16.7580 12.6330 -9.8540
v  15.4710 9.3040 -9.4280
v  14.9100 9.5650 -10.6250
v  15.5360 11.0890 -10.8940
v  16.0640 12.7670 -11.1690
v  14.7770 11.2340 -12.0440
v  15.2420 12.8690 -12.3790
v  14.2470 9.7800 -11.7010
v  13.4580 9.8780 -12.6400
v  13.8880 11.2990 -13.0710
v  14.2880 12.9160 -13.4700
v  14.6530 7.8670 -9.2650
v  14.1870 8.2170 -10.4040
v  13.6670 8.5410 -11.3910
v  13.0280 8.7000 -12.2110
v  17.2260 14.4870 -10.0490
v  16.4920 14.5790 -11.4100
v  16.8050 16.4910 -11.5980
v  17.5630 16.4320 -10.2050
v  17.7590 18.4360 -10.3030
v  16.9880 18.4690 -11.7150
v  17.0260 20.4810 -11.7420
v  17.7990 20.4690 -10.3250
v  15.6250 14.6490 -12.6670
v  14.6230 14.6830 -13.8050
v  14.8760 16.5630 -14.0580
v  15.9090 16.5370 -12.8880
v  16.0770 18.4980 -13.0240
v  15.0280 18.5190 -14.2110
v  15.0620 20.5150 -14.2440
v  16.1140 20.4960 -13.0540
v  18.0290 26.6030 -7.0000
v  17.5680 26.5260 -8.4900
v  16.9950 28.4320 -8.3040
v  17.4300 28.5450 -6.8620
v  17.7440 28.6400 -5.3670
v  18.3600 26.6710 -5.4580
v  18.8290 24.6360 -5.5370
v  18.4860 24.5930 -7.1190
v  18.0080 24.5460 -8.6490
v  18.7900 22.5360 -7.2070
v  18.3010 22.5160 -8.7650
v  19.1390 22.5550 -5.5960
v  18.5600 26.7200 -3.8820
v  17.9350 28.7060 -3.8370
v  17.9990 28.7320 -2.2890
v  18.6260 26.7400 -2.2890
v  19.1040 24.6810 -2.2890
v  19.0350 24.6680 -3.9220
v  19.3490 22.5700 -3.9510
v  19.4200 22.5770 -2.2890
v  16.4410 28.3140 -9.6770
v  16.9780 26.4490 -9.9130
v  17.3940 24.5020 -10.1120
v  16.6440 24.4710 -11.4890
v  16.2580 26.3880 -11.2500
v  15.7650 28.2140 -10.9630
v  14.9630 28.1560 -12.1470
v  15.4070 26.3580 -12.4860
v  15.7590 24.4600 -12.7640
v  14.7380 24.4780 -13.9210
v  14.4220 26.3740 -13.6050
v  14.0310 28.1650 -13.2140
v  17.6730 22.5000 -10.2560
v  16.9060 22.4910 -11.6600
v  16.0010 22.4940 -12.9600
v  14.9580 22.5130 -14.1410
v  15.7980 30.0700 -9.4230
v  16.3020 30.2410 -8.1070
v  15.1830 29.9170 -10.6480
v  14.5160 31.4790 -10.3450
v  15.0520 31.7010 -9.1830
v  15.4960 31.9350 -7.9220
v  14.2060 33.1950 -8.9900
v  14.5850 33.4970 -7.7730
v  13.7670 32.8820 -10.0930
v  14.4490 29.8200 -11.7690
v  13.5850 29.8160 -12.7680
v  13.1190 31.2760 -12.3010
v  13.8800 31.3140 -11.3900
v  13.2750 32.6010 -11.0520
v  12.6650 32.4970 -11.8470
v  16.7020 30.3950 -6.7180
v  15.8540 32.1350 -6.5830
v  16.1200 32.2920 -5.1850
v  16.9940 30.5200 -5.2720
v  17.1730 30.6040 -3.7900
v  16.2860 32.3940 -3.7470
v  16.3430 32.4310 -2.2890
v  17.2340 30.6360 -2.2890
v  14.8980 33.7460 -6.4740
v  15.1350 33.9350 -5.1130
v  15.2850 34.0540 -3.7110
v  15.3390 34.0970 -2.2890
v  18.0290 26.6030 2.4210
v  17.4300 28.5450 2.2830
v  16.9950 28.4320 3.7260
v  17.5680 26.5260 3.9120
v  18.0080 24.5460 4.0710
v  18.4860 24.5930 2.5410
v  18.8290 24.6360 0.9590
v  18.3600 26.6710 0.8800
v  17.7440 28.6400 0.7880
v  18.5600 26.7200 -0.6960
v  17.9350 28.7060 -0.7420
v  19.0350 24.6680 -0.6570
v  18.7900 22.5360 2.6280
v  18.3010 22.5160 4.1870
v  18.4330 20.4600 4.2440
v  18.9260 20.4540 2.6710
v  19.2790 20.4500 1.0470
v  19.1390 22.5550 1.0180
v  19.3490 22.5700 -0.6270
v  19.4900 20.4480 -0.6130
v  16.3020 30.2410 3.5290
v  16.7020 30.3950 2.1390
v  16.9940 30.5200 0.6940
v  16.1200 32.2920 0.6060
v  15.8540 32.1350 2.0050
v  15.4960 31.9350 3.3440
v  14.5850 33.4970 3.1940
v  14.8980 33.7460 1.8950
v  15.1350 33.9350 0.5350
v  17.1730 30.6040 -0.7880
v  16.2860 32.3940 -0.8320
v  15.2850 34.0540 -0.8670
v  15.7980 30.0700 4.8440
v  16.4410 28.3140 5.0980
v  15.0520 31.7010 4.6040
v  14.5160 31.4790 5.7670
v  15.1830 29.9170 6.0700
v  15.7650 28.2140 6.3850
v  14.4480 29.8200 7.1900
v  14.9630 28.1560 7.5690
v  13.8800 31.3140 6.8120
v  13.1190 31.2760 7.7230
v  13.5850 29.8160 8.1900
v  14.0310 28.1650 8.6350
v  14.2060 33.1950 4.4110
v  13.7670 32.8820 5.5150
v  13.2750 32.6010 6.4740
v  12.6650 32.4970 7.2690
v  16.9780 26.4490 5.3340
v  16.2580 26.3880 6.6720
v  16.6440 24.4710 6.9110
v  17.3940 24.5020 5.5330
v  17.6730 22.5000 5.6770
v  16.9060 22.4910 7.0810
v  17.0260 20.4810 7.1630
v  17.7990 20.4690 5.7470
v  15.4070 26.3580 7.9080
v  14.4220 26.3740 9.0260
v  14.7380 24.4780 9.3420
v  15.7590 24.4600 8.1860
v  16.0010 22.4940 8.3820
v  14.9580 22.5130 9.5620
v  15.0620 20.5150 9.6660
v  16.1140 20.4960 8.4750
v  18.2960 14.2940 2.5070
v  17.8270 14.3880 4.0240
v  17.3260 12.4890 3.8720
v  17.7730 12.3580 2.3950
v  18.0950 12.2510 0.8640
v  18.6330 14.2160 0.9370
v  19.0160 16.2540 0.9980
v  18.6700 16.3060 2.5980
v  18.1850 16.3680 4.1470
v  18.8830 18.3690 2.6570
v  18.3910 18.4010 4.2250
v  19.2340 18.3410 1.0370
v  18.8370 14.1610 -0.6670
v  18.2900 12.1790 -0.7040
v  19.2250 16.2180 -0.6370
v  19.4460 18.3220 -0.6170
v  16.7580 12.6330 5.2750
v  17.2260 14.4870 5.4710
v  17.5630 16.4320 5.6260
v  16.8050 16.4910 7.0200
v  16.4920 14.5790 6.8310
v  16.0640 12.7670 6.5900
v  15.2420 12.8690 7.8010
v  15.6250 14.6490 8.0890
v  15.9090 16.5370 8.3100
v  14.8760 16.5630 9.4800
v  14.6230 14.6830 9.2270
v  14.2880 12.9160 8.8920
v  17.7590 18.4360 5.7240
v  16.9880 18.4690 7.1360
v  16.0770 18.4980 8.4450
v  15.0280 18.5190 9.6320
v  16.1730 10.8990 5.0570
v  16.6940 10.6990 3.7060
v  15.5360 11.0890 6.3150
v  14.9100 9.5650 6.0470
v  15.4710 9.3040 4.8500
v  15.9360 9.0400 3.5500
v  14.6530 7.8670 4.6860
v  15.0550 7.5340 3.4260
v  14.1870 8.2170 5.8250
v  14.7770 11.2340 7.4650
v  13.8880 11.2990 8.4920
v  13.4580 9.8780 8.0620
v  14.2470 9.7800 7.1220
v  13.6670 8.5410 6.8120
v  13.0280 8.7000 7.6330
v  17.1080 10.5250 2.2760
v  16.3100 8.8180 2.1640
v  16.5870 8.6470 0.7150
v  17.4100 10.3870 0.7870
v  17.5950 10.2950 -0.7410
v  16.7590 8.5370 -0.7760
v  15.3860 7.2630 2.0760
v  15.6340 7.0590 0.6590
v  15.7920 6.9300 -0.8040
v  7.9030 14.3720 12.9000
v  7.7910 12.4230 12.3770
v  9.2680 12.5440 11.9300
v  9.4200 14.4530 12.4310
v  9.5430 16.4520 12.7890
v  7.9940 16.4060 13.2740
v  6.3940 16.3660 13.6200
v  6.3330 14.3030 13.2380
v  6.2600 12.3240 12.6990
v  4.7290 14.2550 13.4410
v  4.6920 12.2570 12.8940
v  4.7590 16.3380 13.8290
v  3.1070 16.3260 13.8990
v  3.1070 14.2360 13.5090
v  3.1070 12.2310 12.9600
v  8.0530 18.5030 13.4870
v  9.6210 18.5140 12.9950
v  9.6400 20.6140 13.0370
v  8.0670 20.6370 13.5300
v  6.4430 20.6550 13.8830
v  6.4330 18.4910 13.8390
v  4.7790 18.4830 14.0500
v  4.7830 20.6680 14.0940
v  3.1070 20.6720 14.1650
v  3.1070 18.4790 14.1200
v  9.1020 10.7480 11.2980
v  7.6720 10.5840 11.7120
v  6.1830 10.4530 12.0140
v  6.1110 8.7120 11.1910
v  7.5600 8.8750 10.9140
v  8.9460 9.0880 10.5400
v  8.8220 7.5800 9.6590
v  7.4720 7.3180 9.9900
v  6.0550 7.1230 10.2380
v  4.6550 10.3670 12.1990
v  3.1070 10.3350 12.2620
v  3.1070 8.5690 11.4220
v  4.6200 8.6070 11.3630
v  4.5920 7.0000 10.3960
v  3.1070 6.9570 10.4510
v  10.4530 10.9370 10.7770
v  10.6710 12.6750 11.3620
v  10.2460 9.3400 10.0750
v  11.4430 9.5900 9.5140
v  11.7110 11.1150 10.1400
v  11.9860 12.7960 10.6690
v  12.8610 11.2480 9.3810
v  13.1970 12.8840 9.8460
v  12.5180 9.7920 8.8510
v  10.0820 7.9010 9.2570
v  11.2210 8.2390 8.7910
v  12.2080 8.5520 8.2710
v  10.8670 14.5390 11.8300
v  12.2270 14.6140 11.0960
v  12.4160 16.5360 11.4090
v  11.0220 16.4980 12.1680
v  11.1200 18.5240 12.3630
v  12.5320 18.5300 11.5920
v  12.5590 20.5630 11.6300
v  11.1430 20.5890 12.4040
v  13.4850 14.6670 10.2290
v  13.7060 16.5600 10.5130
v  13.8410 18.5290 10.6820
v  13.8710 20.5380 10.7180
v  7.8170 27.0070 12.6330
v  9.3080 26.8660 12.1720
v  9.1220 28.8320 11.5990
v  7.6790 29.0220 12.0340
v  6.1840 29.1770 12.3480
v  6.2760 27.1260 12.9640
v  6.3550 25.0020 13.4330
v  7.9370 24.9190 13.0900
v  9.4670 24.8200 12.6120
v  8.0240 22.7860 13.3940
v  9.5830 22.7260 12.9050
v  6.4140 22.8350 13.7430
v  4.7000 27.2070 13.1640
v  4.6540 29.2830 12.5390
v  3.1070 29.3240 12.6030
v  3.1070 27.2380 13.2310
v  3.1070 25.0820 13.7080
v  4.7390 25.0590 13.6390
v  4.7690 22.8700 13.9540
v  3.1070 22.8830 14.0240
v  10.4940 28.6250 11.0450
v  10.7300 26.7140 11.5820
v  10.9290 24.7160 11.9980
v  12.3060 24.6170 11.2480
v  12.0680 26.5690 10.8620
v  11.7810 28.4270 10.3690
v  12.9650 28.2640 9.5670
v  13.3040 26.4500 10.0110
v  13.5820 24.5340 10.3630
v  11.0730 22.6640 12.2770
v  12.4770 22.6030 11.5100
v  13.7780 22.5510 10.6050
v  10.2400 30.4180 10.4020
v  8.9250 30.6900 10.9060
v  11.4660 30.1540 9.7870
v  11.1630 31.7270 9.1200
v  10.0000 32.0690 9.6560
v  8.7400 32.4140 10.1000
v  9.8070 33.5560 8.8100
v  8.5900 33.9770 9.1890
v  10.9110 33.1200 8.3710
v  12.5860 29.9410 9.0530
v  12.2080 31.4390 8.4840
v  11.8700 32.7190 7.8790
v  7.5350 30.9330 11.3060
v  7.4010 32.7120 10.4590
v  6.0020 32.9480 10.7240
v  6.0900 31.1280 11.5980
v  4.6080 31.2580 11.7770
v  4.5640 33.1020 10.8900
v  3.1070 33.1600 10.9470
v  3.1070 31.3070 11.8380
v  7.2910 34.3330 9.5030
v  5.9300 34.6080 9.7390
v  4.5290 34.7870 9.8890
v  3.1070 34.8510 9.9430
v  7.8170 27.0070 -17.2110
v  7.6790 29.0220 -16.6120
v  9.1220 28.8320 -16.1770
v  9.3080 26.8660 -16.7500
v  9.4670 24.8200 -17.1900
v  7.9370 24.9190 -17.6690
v  6.3550 25.0020 -18.0120
v  6.2760 27.1260 -17.5420
v  6.1840 29.1770 -16.9270
v  4.7000 27.2070 -17.7420
v  4.6540 29.2830 -17.1170
v  4.7390 25.0590 -18.2180
v  8.0240 22.7860 -17.9720
v  9.5830 22.7260 -17.4830
v  9.6400 20.6140 -17.6150
v  8.0670 20.6370 -18.1080
v  6.4430 20.6550 -18.4610
v  6.4140 22.8350 -18.3220
v  4.7690 22.8700 -18.5320
v  4.7830 20.6680 -18.6730
v  8.9250 30.6900 -15.4840
v  7.5350 30.9330 -15.8840
v  6.0900 31.1280 -16.1760
v  6.0020 32.9480 -15.3030
v  7.4010 32.7120 -15.0370
v  8.7400 32.4140 -14.6790
v  8.5900 33.9770 -13.7680
v  7.2910 34.3330 -14.0810
v  5.9310 34.6080 -14.3180
v  4.6080 31.2580 -16.3550
v  4.5640 33.1020 -15.4680
v  4.5290 34.7870 -14.4680
v  10.2400 30.4180 -14.9810
v  10.4940 28.6250 -15.6240
v  10.0000 32.0690 -14.2350
v  11.1630 31.7270 -13.6980
v  11.4660 30.1540 -14.3660
v  11.7810 28.4270 -14.9480
v  12.5860 29.9410 -13.6310
v  12.9650 28.2640 -14.1460
v  12.2080 31.4390 -13.0620
v  9.8070 33.5560 -13.3880
v  10.9110 33.1200 -12.9490
v  11.8700 32.7190 -12.4570
v  10.7300 26.7140 -16.1610
v  12.0680 26.5690 -15.4410
v  12.3060 24.6170 -15.8270
v  10.9290 24.7160 -16.5760
v  11.0730 22.6640 -16.8550
v  12.4770 22.6030 -16.0890
v  12.5590 20.5630 -16.2090
v  11.1430 20.5890 -16.9820
v  13.3040 26.4500 -14.5890
v  13.5820 24.5340 -14.9420
v  13.7780 22.5510 -15.1840
v  13.8710 20.5380 -15.2960
v  7.9030 14.3720 -17.4790
v  9.4200 14.4530 -17.0090
v  9.2680 12.5440 -16.5090
v  7.7910 12.4230 -16.9550
v  6.2600 12.3240 -17.2770
v  6.3330 14.3030 -17.8160
v  6.3940 16.3660 -18.1990
v  7.9940 16.4060 -17.8520
v  9.5430 16.4520 -17.3680
v  8.0530 18.5030 -18.0650
v  9.6210 18.5140 -17.5730
v  6.4330 18.4910 -18.4170
v  4.7290 14.2550 -18.0190
v  4.6920 12.2570 -17.4730
v  4.7590 16.3380 -18.4070
v  4.7790 18.4830 -18.6280
v  10.6710 12.6750 -15.9400
v  10.8670 14.5390 -16.4080
v  11.0220 16.4980 -16.7460
v  12.4160 16.5360 -15.9870
v  12.2270 14.6140 -15.6750
v  11.9860 12.7960 -15.2470
v  13.1970 12.8840 -14.4250
v  13.4850 14.6670 -14.8070
v  13.7060 16.5600 -15.0910
v  11.1200 18.5240 -16.9410
v  12.5320 18.5300 -16.1700
v  13.8410 18.5290 -15.2600
v  10.4530 10.9370 -15.3550
v  9.1020 10.7480 -15.8770
v  11.7110 11.1150 -14.7190
v  11.4430 9.5900 -14.0920
v  10.2460 9.3400 -14.6530
v  8.9460 9.0880 -15.1180
v  10.0820 7.9010 -13.8350
v  8.8220 7.5800 -14.2380
v  11.2210 8.2390 -13.3700
v  12.8610 11.2480 -13.9600
v  12.5180 9.7920 -13.4290
v  12.2080 8.5520 -12.8490
v  7.6720 10.5840 -16.2910
v  7.5600 8.8750 -15.4920
v  6.1110 8.7120 -15.7690
v  6.1830 10.4530 -16.5920
v  4.6550 10.3670 -16.7770
v  4.6200 8.6070 -15.9410
v  7.4720 7.3180 -14.5680
v  6.0550 7.1230 -14.8170
v  4.5920 7.0000 -14.9740
# 771 vertices

vn 0.2699 0.2763 -0.9224
vn 0.2685 0.3726 -0.8883
vn 0.3614 0.3682 -0.8566
vn 0.3659 0.2749 -0.8891
vn 0.3685 0.1824 -0.9116
vn 0.2702 0.1817 -0.9455
vn 0.1755 0.1807 -0.9678
vn 0.1766 0.2766 -0.9446
vn 0.1773 0.3752 -0.9098
vn 0.0866 0.2763 -0.9572
vn 0.0880 0.3761 -0.9224
vn 0.0854 0.1797 -0.9800
vn 0.2700 0.0896 -0.9587
vn 0.3696 0.0909 -0.9247
vn 0.3698 0.0000 -0.9291
vn 0.2697 0.0000 -0.9629
vn 0.1741 0.0000 -0.9847
vn 0.1745 0.0884 -0.9807
vn 0.0845 0.0875 -0.9926
vn 0.0841 0.0000 -0.9965
vn 0.0000 0.0000 -1.0000
vn 0.0000 0.0872 -0.9962
vn 0.3555 0.4613 -0.8129
vn 0.2662 0.4692 -0.8420
vn 0.1777 0.4744 -0.8622
vn 0.1775 0.5712 -0.8014
vn 0.2636 0.5630 -0.7833
vn 0.3493 0.5515 -0.7575
vn 0.2609 0.6518 -0.7121
vn 0.3437 0.6363 -0.6907
vn 0.1772 0.6627 -0.7276
vn 0.1767 0.7452 -0.6430
vn 0.2587 0.7312 -0.6312
vn 0.3395 0.7117 -0.6150
vn 0.0893 0.4770 -0.8744
vn 0.0905 0.5759 -0.8125
vn 0.0912 0.6694 -0.7373
vn 0.0912 0.7539 -0.6506
vn 0.4445 0.4511 -0.7739
vn 0.4548 0.3623 -0.8136
vn 0.4335 0.5368 -0.7239
vn 0.5139 0.5197 -0.6825
vn 0.5310 0.4398 -0.7243
vn 0.5459 0.3557 -0.7586
vn 0.6321 0.3494 -0.6916
vn 0.6121 0.4292 -0.6642
vn 0.5894 0.5029 -0.6322
vn 0.6557 0.4921 -0.5726
vn 0.6842 0.4212 -0.5954
vn 0.7090 0.3443 -0.6155
vn 0.4233 0.6168 -0.6636
vn 0.4161 0.6875 -0.5952
vn 0.4872 0.6595 -0.5725
vn 0.4973 0.5944 -0.6320
vn 0.5663 0.5713 -0.5940
vn 0.5531 0.6286 -0.5467
vn 0.5998 0.6040 -0.5248
vn 0.6245 0.5577 -0.5467
vn 0.4629 0.2724 -0.8435
vn 0.5579 0.2693 -0.7850
vn 0.5665 0.1820 -0.8037
vn 0.4683 0.1825 -0.8645
vn 0.4712 0.0921 -0.8772
vn 0.5715 0.0930 -0.8153
vn 0.5731 0.0000 -0.8195
vn 0.4721 0.0000 -0.8816
vn 0.6481 0.2660 -0.7135
vn 0.7291 0.2629 -0.6319
vn 0.7436 0.1800 -0.6439
vn 0.6596 0.1812 -0.7295
vn 0.6667 0.0934 -0.7394
vn 0.7528 0.0931 -0.6516
vn 0.7561 0.0000 -0.6545
vn 0.6694 0.0000 -0.7429
vn 0.2699 -0.2763 -0.9224
vn 0.3659 -0.2749 -0.8891
vn 0.3614 -0.3682 -0.8566
vn 0.2685 -0.3726 -0.8883
vn 0.1773 -0.3752 -0.9098
vn 0.1766 -0.2766 -0.9446
vn 0.1755 -0.1807 -0.9678
vn 0.2702 -0.1817 -0.9455
vn 0.3685 -0.1824 -0.9116
vn 0.2700 -0.0896 -0.9587
vn 0.3696 -0.0909 -0.9247
vn 0.1745 -0.0884 -0.9807
vn 0.0866 -0.2763 -0.9572
vn 0.0880 -0.3761 -0.9224
vn 0.0000 -0.3762 -0.9265
vn 0.0000 -0.2760 -0.9612
vn 0.0000 -0.1793 -0.9838
vn 0.0854 -0.1797 -0.9800
vn 0.0845 -0.0875 -0.9926
vn 0.0000 -0.0872 -0.9962
vn 0.4548 -0.3623 -0.8136
vn 0.4629 -0.2724 -0.8435
vn 0.4683 -0.1825 -0.8645
vn 0.5665 -0.1820 -0.8037
vn 0.5579 -0.2693 -0.7850
vn 0.5459 -0.3557 -0.7586
vn 0.6481 -0.2660 -0.7135
vn 0.6321 -0.3494 -0.6916
vn 0.6596 -0.1812 -0.7295
vn 0.7436 -0.1800 -0.6439
vn 0.7291 -0.2629 -0.6319
vn 0.7090 -0.3443 -0.6155
vn 0.4712 -0.0921 -0.8772
vn 0.5715 -0.0930 -0.8153
vn 0.6667 -0.0934 -0.7394
vn 0.7528 -0.0931 -0.6516
vn 0.4445 -0.4511 -0.7739
vn 0.3555 -0.4613 -0.8129
vn 0.5310 -0.4398 -0.7243
vn 0.5139 -0.5197 -0.6825
vn 0.4335 -0.5368 -0.7239
vn 0.3493 -0.5515 -0.7575
vn 0.3437 -0.6363 -0.6907
vn 0.4233 -0.6168 -0.6636
vn 0.4973 -0.5944 -0.6320
vn 0.4872 -0.6595 -0.5725
vn 0.4161 -0.6875 -0.5952
vn 0.3395 -0.7117 -0.6150
vn 0.6121 -0.4292 -0.6642
vn 0.6842 -0.4212 -0.5954
vn 0.6557 -0.4921 -0.5726
vn 0.5894 -0.5029 -0.6322
vn 0.5663 -0.5713 -0.5940
vn 0.6245 -0.5577 -0.5468
vn 0.5998 -0.6040 -0.5248
vn 0.5531 -0.6286 -0.5467
vn 0.2662 -0.4692 -0.8420
vn 0.2636 -0.5630 -0.7833
vn 0.1775 -0.5712 -0.8014
vn 0.1777 -0.4744 -0.8622
vn 0.0893 -0.4770 -0.8744
vn 0.0905 -0.5759 -0.8125
vn 0.0000 -0.5773 -0.8165
vn 0.0000 -0.4777 -0.8785
vn 0.2609 -0.6518 -0.7121
vn 0.2587 -0.7312 -0.6312
vn 0.1767 -0.7452 -0.6430
vn 0.1772 -0.6627 -0.7276
vn 0.0912 -0.6694 -0.7373
vn 0.0912 -0.7539 -0.6506
vn 0.0000 -0.7570 -0.6534
vn 0.0000 -0.6720 -0.7406
vn 0.4485 0.2751 0.8504
vn 0.4404 0.3681 0.8189
vn 0.3440 0.3775 0.8598
vn 0.3493 0.2796 0.8943
vn 0.2381 0.3846 0.8918
vn 0.2398 0.2829 0.9287
vn 0.2404 0.1837 0.9531
vn 0.3517 0.1832 0.9180
vn 0.4534 0.1824 0.8724
vn 0.3521 0.0901 0.9316
vn 0.4556 0.0911 0.8855
vn 0.2403 0.0893 0.9666
vn 0.2400 0.0000 0.9708
vn 0.3521 0.0000 0.9360
vn 0.4560 0.0000 0.8900
vn 0.1229 0.3888 0.9131
vn 0.1232 0.2848 0.9506
vn 0.1230 0.1839 0.9752
vn 0.1223 0.0887 0.9885
vn 0.0000 0.0000 1.0000
vn 0.1220 0.0000 0.9925
vn 0.5390 0.2699 0.7979
vn 0.5275 0.3575 0.7706
vn 0.5463 0.1810 0.8178
vn 0.6295 0.1798 0.7559
vn 0.6196 0.2646 0.7390
vn 0.6054 0.3475 0.7161
vn 0.6902 0.2601 0.6752
vn 0.6734 0.3394 0.6568
vn 0.7025 0.1784 0.6890
vn 0.7656 0.1769 0.6185
vn 0.7511 0.2568 0.6082
vn 0.7314 0.3339 0.5946
vn 0.5504 0.0915 0.8299
vn 0.5519 0.0000 0.8339
vn 0.6370 0.0000 0.7709
vn 0.6352 0.0918 0.7669
vn 0.7101 0.0922 0.6981
vn 0.7128 0.0000 0.7014
vn 0.7783 0.0000 0.6279
vn 0.7749 0.0920 0.6254
vn 0.4287 0.4596 0.7778
vn 0.5124 0.4435 0.7353
vn 0.5871 0.4279 0.6871
vn 0.5658 0.5042 0.6524
vn 0.4948 0.5262 0.6915
vn 0.4147 0.5478 0.7266
vn 0.3999 0.6295 0.6662
vn 0.4765 0.6033 0.6395
vn 0.5438 0.5759 0.6104
vn 0.5264 0.6391 0.5608
vn 0.4601 0.6717 0.5806
vn 0.3855 0.7020 0.5988
vn 0.6525 0.4147 0.6343
vn 0.7075 0.4063 0.5783
vn 0.6801 0.4734 0.5598
vn 0.6284 0.4847 0.6084
vn 0.6031 0.5502 0.5775
vn 0.6501 0.5358 0.5388
vn 0.6259 0.5806 0.5208
vn 0.5855 0.6057 0.5388
vn 0.3361 0.4741 0.8138
vn 0.3259 0.5669 0.7566
vn 0.2281 0.5822 0.7804
vn 0.2341 0.4855 0.8423
vn 0.1220 0.4928 0.8615
vn 0.1198 0.5924 0.7967
vn 0.3144 0.6527 0.6893
vn 0.3024 0.7285 0.6147
vn 0.2121 0.7494 0.6273
vn 0.2207 0.6712 0.7077
vn 0.1165 0.6837 0.7204
vn 0.1121 0.7636 0.6359
vn 0.3440 -0.3775 0.8598
vn 0.4404 -0.3681 0.8189
vn 0.4485 -0.2751 0.8504
vn 0.3493 -0.2796 0.8943
vn 0.4534 -0.1824 0.8724
vn 0.3517 -0.1832 0.9180
vn 0.2404 -0.1837 0.9531
vn 0.2398 -0.2829 0.9287
vn 0.2381 -0.3846 0.8918
vn 0.1233 -0.2848 0.9506
vn 0.1229 -0.3888 0.9131
vn 0.1230 -0.1839 0.9752
vn 0.0000 -0.1837 0.9830
vn 0.0000 -0.2857 0.9583
vn 0.0000 -0.3901 0.9208
vn 0.3521 -0.0901 0.9316
vn 0.4556 -0.0911 0.8855
vn 0.2403 -0.0893 0.9666
vn 0.1223 -0.0887 0.9885
vn 0.0000 -0.0885 0.9961
vn 0.3361 -0.4741 0.8138
vn 0.4287 -0.4596 0.7778
vn 0.2341 -0.4855 0.8423
vn 0.2281 -0.5822 0.7804
vn 0.3259 -0.5669 0.7566
vn 0.4147 -0.5478 0.7266
vn 0.3144 -0.6527 0.6893
vn 0.3999 -0.6295 0.6662
vn 0.2207 -0.6712 0.7077
vn 0.2121 -0.7494 0.6273
vn 0.3024 -0.7285 0.6147
vn 0.3855 -0.7020 0.5988
vn 0.1220 -0.4928 0.8615
vn 0.0000 -0.4954 0.8687
vn 0.0000 -0.5961 0.8029
vn 0.1198 -0.5924 0.7967
vn 0.1165 -0.6837 0.7204
vn 0.0000 -0.6884 0.7253
vn 0.0000 -0.7689 0.6393
vn 0.1121 -0.7636 0.6359
vn 0.5275 -0.3575 0.7706
vn 0.5124 -0.4435 0.7353
vn 0.4948 -0.5262 0.6916
vn 0.5658 -0.5042 0.6524
vn 0.5871 -0.4279 0.6871
vn 0.6054 -0.3475 0.7161
vn 0.6734 -0.3394 0.6568
vn 0.6525 -0.4147 0.6343
vn 0.6284 -0.4847 0.6084
vn 0.6801 -0.4734 0.5598
vn 0.7075 -0.4063 0.5783
vn 0.7314 -0.3339 0.5946
vn 0.4765 -0.6033 0.6395
vn 0.4601 -0.6717 0.5806
vn 0.5265 -0.6391 0.5607
vn 0.5438 -0.5759 0.6104
vn 0.6031 -0.5502 0.5775
vn 0.5855 -0.6057 0.5388
vn 0.6259 -0.5806 0.5208
vn 0.6501 -0.5358 0.5388
vn 0.5390 -0.2699 0.7979
vn 0.6196 -0.2646 0.7390
vn 0.6295 -0.1798 0.7559
vn 0.5463 -0.1810 0.8178
vn 0.5504 -0.0915 0.8299
vn 0.6352 -0.0918 0.7669
vn 0.6903 -0.2601 0.6752
vn 0.7511 -0.2568 0.6082
vn 0.7656 -0.1769 0.6185
vn 0.7025 -0.1784 0.6890
vn 0.7101 -0.0922 0.6981
vn 0.7749 -0.0920 0.6254
vn 0.9391 0.2581 -0.2267
vn 0.9166 0.2583 -0.3050
vn 0.8895 0.3422 -0.3028
vn 0.9113 0.3439 -0.2263
vn 0.9270 0.3448 -0.1476
vn 0.9550 0.2575 -0.1471
vn 0.9743 0.1714 -0.1463
vn 0.9585 0.1727 -0.2267
vn 0.9359 0.1740 -0.3063
vn 0.9701 0.0870 -0.2264
vn 0.9477 0.0884 -0.3068
vn 0.9856 0.0858 -0.1456
vn 0.9894 0.0000 -0.1454
vn 0.9741 0.0000 -0.2262
vn 0.9517 0.0000 -0.3069
vn 0.9643 0.2567 -0.0643
vn 0.9364 0.3448 -0.0650
vn 0.9386 0.3442 0.0237
vn 0.9664 0.2560 0.0234
vn 0.9852 0.1697 0.0231
vn 0.9833 0.1703 -0.0636
vn 0.9944 0.0849 -0.0631
vn 0.9962 0.0846 0.0228
vn 0.9997 0.0000 0.0227
vn 0.9980 0.0000 -0.0629
vn 0.8604 0.3403 -0.3793
vn 0.8866 0.2583 -0.3837
vn 0.9054 0.1753 -0.3867
vn 0.8652 0.1767 -0.4693
vn 0.8472 0.2589 -0.4640
vn 0.8222 0.3396 -0.4568
vn 0.7725 0.3409 -0.5357
vn 0.7958 0.2604 -0.5468
vn 0.8125 0.1783 -0.5550
vn 0.9171 0.0897 -0.3884
vn 0.9213 0.0000 -0.3889
vn 0.8807 0.0000 -0.4736
vn 0.8766 0.0911 -0.4725
vn 0.8232 0.0923 -0.5602
vn 0.8271 0.0000 -0.5620
vn 0.8260 0.4222 -0.3736
vn 0.8533 0.4267 -0.2998
vn 0.7902 0.4185 -0.4477
vn 0.7504 0.4956 -0.4374
vn 0.7817 0.5039 -0.3675
vn 0.8062 0.5117 -0.2968
vn 0.7259 0.5844 -0.3627
vn 0.7470 0.5960 -0.2946
vn 0.7001 0.5714 -0.4281
vn 0.6388 0.6418 -0.4242
vn 0.6583 0.6607 -0.3607
vn 0.6748 0.6770 -0.2937
vn 0.7436 0.4176 -0.5222
vn 0.7090 0.4902 -0.5070
vn 0.6672 0.5596 -0.4917
vn 0.6166 0.6202 -0.4849
vn 0.8739 0.4307 -0.2252
vn 0.8253 0.5184 -0.2240
vn 0.8392 0.5233 -0.1480
vn 0.8889 0.4335 -0.1479
vn 0.8982 0.4347 -0.0656
vn 0.8480 0.5258 -0.0661
vn 0.8504 0.5256 0.0243
vn 0.9005 0.4342 0.0241
vn 0.7638 0.6057 -0.2231
vn 0.6884 0.6903 -0.2225
vn 0.6986 0.7001 -0.1479
vn 0.7762 0.6129 -0.1480
vn 0.7841 0.6170 -0.0664
vn 0.7051 0.7060 -0.0665
vn 0.7071 0.7066 0.0246
vn 0.7864 0.6173 0.0245
vn 0.9297 0.2555 0.2651
vn 0.9024 0.3395 0.2652
vn 0.8802 0.3365 0.3346
vn 0.9066 0.2549 0.3363
vn 0.9256 0.1724 0.3371
vn 0.9490 0.1714 0.2646
vn 0.9671 0.1705 0.1889
vn 0.9479 0.2557 0.1902
vn 0.9201 0.3418 0.1914
vn 0.9604 0.2558 0.1101
vn 0.9326 0.3432 0.1114
vn 0.9795 0.1698 0.1088
vn 0.9607 0.0866 0.2639
vn 0.9373 0.0878 0.3372
vn 0.9415 0.0000 0.3371
vn 0.9646 0.0000 0.2636
vn 0.9823 0.0000 0.1874
vn 0.9785 0.0856 0.1879
vn 0.9905 0.0849 0.1079
vn 0.9942 0.0000 0.1076
vn 0.8455 0.4181 0.3321
vn 0.8661 0.4241 0.2646
vn 0.8826 0.4290 0.1922
vn 0.8340 0.5171 0.1927
vn 0.8191 0.5094 0.2637
vn 0.8010 0.5001 0.3292
vn 0.7451 0.5816 0.3265
vn 0.7600 0.5945 0.2626
vn 0.7725 0.6050 0.1929
vn 0.6971 0.6907 0.1924
vn 0.6881 0.6768 0.2616
vn 0.6772 0.6602 0.3247
vn 0.8946 0.4323 0.1128
vn 0.8450 0.5225 0.1139
vn 0.7818 0.6129 0.1146
vn 0.7039 0.7010 0.1145
vn 0.8206 0.4116 0.3964
vn 0.8531 0.3332 0.4015
vn 0.7794 0.4897 0.3908
vn 0.7536 0.4793 0.4499
vn 0.7903 0.4060 0.4590
vn 0.8200 0.3311 0.4668
vn 0.7528 0.4036 0.5200
vn 0.7798 0.3312 0.5312
vn 0.7209 0.4723 0.5072
vn 0.7278 0.5670 0.3858
vn 0.6649 0.6413 0.3830
vn 0.6515 0.6201 0.4370
vn 0.7077 0.5516 0.4414
vn 0.6827 0.5382 0.4942
vn 0.6367 0.5972 0.4878
vn 0.8782 0.2541 0.4052
vn 0.8437 0.2539 0.4729
vn 0.8612 0.1743 0.4774
vn 0.8966 0.1732 0.4076
vn 0.9083 0.0891 0.4088
vn 0.8726 0.0903 0.4801
vn 0.8767 0.0000 0.4810
vn 0.9124 0.0000 0.4092
vn 0.8019 0.2547 0.5405
vn 0.8182 0.1755 0.5474
vn 0.8289 0.0913 0.5520
vn 0.8328 0.0000 0.5536
vn 0.9297 -0.2555 0.2651
vn 0.9066 -0.2549 0.3363
vn 0.8803 -0.3364 0.3346
vn 0.9024 -0.3395 0.2652
vn 0.9201 -0.3418 0.1914
vn 0.9479 -0.2557 0.1902
vn 0.9671 -0.1705 0.1889
vn 0.9490 -0.1715 0.2646
vn 0.9256 -0.1724 0.3371
vn 0.9607 -0.0866 0.2639
vn 0.9373 -0.0878 0.3372
vn 0.9785 -0.0856 0.1879
vn 0.9604 -0.2558 0.1101
vn 0.9326 -0.3433 0.1114
vn 0.9386 -0.3442 0.0237
vn 0.9664 -0.2560 0.0234
vn 0.9852 -0.1697 0.0231
vn 0.9795 -0.1698 0.1088
vn 0.9905 -0.0849 0.1079
vn 0.9962 -0.0846 0.0228
vn 0.8531 -0.3332 0.4015
vn 0.8782 -0.2541 0.4052
vn 0.8966 -0.1732 0.4076
vn 0.8612 -0.1743 0.4774
vn 0.8437 -0.2539 0.4729
vn 0.8200 -0.3311 0.4668
vn 0.7798 -0.3312 0.5312
vn 0.8019 -0.2547 0.5405
vn 0.8182 -0.1755 0.5474
vn 0.9083 -0.0891 0.4088
vn 0.8726 -0.0903 0.4801
vn 0.8289 -0.0913 0.5520
vn 0.8206 -0.4116 0.3964
vn 0.8455 -0.4181 0.3321
vn 0.7903 -0.4060 0.4590
vn 0.7536 -0.4793 0.4499
vn 0.7794 -0.4897 0.3908
vn 0.8010 -0.5001 0.3292
vn 0.7278 -0.5670 0.3858
vn 0.7451 -0.5816 0.3265
vn 0.7077 -0.5516 0.4414
vn 0.6515 -0.6201 0.4370
vn 0.6649 -0.6413 0.3830
vn 0.6772 -0.6602 0.3247
vn 0.7529 -0.4035 0.5200
vn 0.7209 -0.4723 0.5072
vn 0.6827 -0.5382 0.4942
vn 0.6367 -0.5973 0.4878
vn 0.8661 -0.4242 0.2646
vn 0.8191 -0.5094 0.2637
vn 0.8340 -0.5171 0.1927
vn 0.8826 -0.4290 0.1922
vn 0.8946 -0.4323 0.1128
vn 0.8450 -0.5225 0.1139
vn 0.8504 -0.5256 0.0243
vn 0.9005 -0.4342 0.0241
vn 0.7600 -0.5945 0.2626
vn 0.6881 -0.6768 0.2616
vn 0.6971 -0.6906 0.1924
vn 0.7725 -0.6050 0.1929
vn 0.7818 -0.6129 0.1146
vn 0.7039 -0.7010 0.1145
vn 0.7071 -0.7067 0.0247
vn 0.7864 -0.6173 0.0245
vn 0.9391 -0.2581 -0.2267
vn 0.9113 -0.3439 -0.2263
vn 0.8895 -0.3422 -0.3028
vn 0.9166 -0.2583 -0.3050
vn 0.9359 -0.1740 -0.3063
vn 0.9585 -0.1727 -0.2267
vn 0.9743 -0.1714 -0.1463
vn 0.9550 -0.2575 -0.1471
vn 0.9270 -0.3448 -0.1476
vn 0.9643 -0.2567 -0.0643
vn 0.9364 -0.3448 -0.0650
vn 0.9833 -0.1703 -0.0636
vn 0.9701 -0.0870 -0.2264
vn 0.9477 -0.0884 -0.3068
vn 0.9856 -0.0858 -0.1456
vn 0.9944 -0.0849 -0.0631
vn 0.8533 -0.4267 -0.2998
vn 0.8739 -0.4307 -0.2252
vn 0.8889 -0.4335 -0.1479
vn 0.8392 -0.5233 -0.1480
vn 0.8253 -0.5184 -0.2240
vn 0.8063 -0.5117 -0.2968
vn 0.7470 -0.5960 -0.2946
vn 0.7638 -0.6057 -0.2230
vn 0.7762 -0.6129 -0.1480
vn 0.6986 -0.7001 -0.1479
vn 0.6884 -0.6903 -0.2225
vn 0.6748 -0.6770 -0.2937
vn 0.8982 -0.4347 -0.0656
vn 0.8480 -0.5258 -0.0661
vn 0.7841 -0.6170 -0.0664
vn 0.7051 -0.7060 -0.0665
vn 0.8260 -0.4222 -0.3736
vn 0.8604 -0.3403 -0.3793
vn 0.7817 -0.5039 -0.3675
vn 0.7504 -0.4956 -0.4374
vn 0.7902 -0.4185 -0.4477
vn 0.8222 -0.3396 -0.4568
vn 0.7436 -0.4176 -0.5222
vn 0.7725 -0.3409 -0.5357
vn 0.7090 -0.4902 -0.5070
vn 0.7259 -0.5844 -0.3627
vn 0.6582 -0.6608 -0.3607
vn 0.6388 -0.6418 -0.4242
vn 0.7001 -0.5714 -0.4281
vn 0.6672 -0.5596 -0.4917
vn 0.6166 -0.6202 -0.4849
vn 0.8866 -0.2583 -0.3837
vn 0.8472 -0.2589 -0.4640
vn 0.8652 -0.1767 -0.4693
vn 0.9054 -0.1753 -0.3867
vn 0.9171 -0.0897 -0.3884
vn 0.8766 -0.0911 -0.4725
vn 0.7958 -0.2604 -0.5468
vn 0.8125 -0.1783 -0.5550
vn 0.8232 -0.0923 -0.5602
vn 0.2567 -0.9400 -0.2249
vn 0.2565 -0.9176 -0.3037
vn 0.3401 -0.8907 -0.3017
vn 0.3421 -0.9124 -0.2247
vn 0.3434 -0.9278 -0.1460
vn 0.2564 -0.9556 -0.1452
vn 0.1706 -0.9747 -0.1443
vn 0.1717 -0.9592 -0.2247
vn 0.1727 -0.9366 -0.3049
vn 0.0864 -0.9707 -0.2243
vn 0.0876 -0.9482 -0.3053
vn 0.0854 -0.9860 -0.1435
vn 0.0000 -0.9897 -0.1432
vn 0.0000 -0.9746 -0.2241
vn 0.0000 -0.9522 -0.3054
vn 0.2561 -0.9646 -0.0632
vn 0.3439 -0.9368 -0.0641
vn 0.3446 -0.9385 0.0232
vn 0.2565 -0.9663 0.0227
vn 0.1699 -0.9852 0.0223
vn 0.1697 -0.9835 -0.0624
vn 0.0847 -0.9945 -0.0618
vn 0.0847 -0.9962 0.0220
vn 0.0000 -0.9998 0.0219
vn 0.0000 -0.9981 -0.0616
vn 0.3378 -0.8617 -0.3787
vn 0.2562 -0.8875 -0.3830
vn 0.1737 -0.9060 -0.3860
vn 0.1747 -0.8657 -0.4691
vn 0.2562 -0.8481 -0.4638
vn 0.3365 -0.8235 -0.4567
vn 0.3370 -0.7743 -0.5357
vn 0.2570 -0.7969 -0.5467
vn 0.1757 -0.8132 -0.5548
vn 0.0889 -0.9175 -0.3876
vn 0.0000 -0.9216 -0.3881
vn 0.0000 -0.8809 -0.4734
vn 0.0900 -0.8768 -0.4723
vn 0.0908 -0.8235 -0.5600
vn 0.0000 -0.8273 -0.5618
vn 0.4195 -0.8275 -0.3731
vn 0.4244 -0.8547 -0.2989
vn 0.4151 -0.7921 -0.4476
vn 0.4922 -0.7526 -0.4373
vn 0.5011 -0.7836 -0.3672
vn 0.5094 -0.8079 -0.2962
vn 0.5817 -0.7281 -0.3625
vn 0.5937 -0.7489 -0.2943
vn 0.5682 -0.7028 -0.4281
vn 0.4134 -0.7459 -0.5222
vn 0.4860 -0.7118 -0.5071
vn 0.5556 -0.6704 -0.4917
vn 0.4288 -0.8752 -0.2239
vn 0.5164 -0.8268 -0.2231
vn 0.5217 -0.8404 -0.1471
vn 0.4320 -0.8899 -0.1466
vn 0.4338 -0.8987 -0.0649
vn 0.5248 -0.8487 -0.0656
vn 0.5262 -0.8500 0.0242
vn 0.4348 -0.9002 0.0237
vn 0.6037 -0.7655 -0.2226
vn 0.6112 -0.7776 -0.1476
vn 0.6161 -0.7849 -0.0662
vn 0.6178 -0.7860 0.0245
vn 0.2648 -0.9296 0.2562
vn 0.3508 -0.9003 0.2576
vn 0.3538 -0.8767 0.3259
vn 0.2694 -0.9061 0.3261
vn 0.1830 -0.9276 0.3257
vn 0.1782 -0.9505 0.2547
vn 0.1743 -0.9678 0.1817
vn 0.2610 -0.9477 0.1837
vn 0.3482 -0.9188 0.1858
vn 0.2581 -0.9602 0.1065
vn 0.3461 -0.9319 0.1084
vn 0.1715 -0.9796 0.1049
vn 0.0903 -0.9631 0.2534
vn 0.0936 -0.9410 0.3251
vn 0.0000 -0.9458 0.3248
vn 0.0000 -0.9675 0.2528
vn 0.0000 -0.9837 0.1796
vn 0.0876 -0.9797 0.1802
vn 0.0857 -0.9909 0.1037
vn 0.0000 -0.9946 0.1033
vn 0.4373 -0.8385 0.3251
vn 0.4367 -0.8616 0.2586
vn 0.4362 -0.8800 0.1878
vn 0.5246 -0.8299 0.1897
vn 0.5225 -0.8122 0.2595
vn 0.5200 -0.7902 0.3243
vn 0.6007 -0.7308 0.3242
vn 0.6070 -0.7508 0.2605
vn 0.6123 -0.7672 0.1913
vn 0.4355 -0.8934 0.1104
vn 0.5260 -0.8431 0.1122
vn 0.6161 -0.7794 0.1137
vn 0.4384 -0.8099 0.3897
vn 0.3577 -0.8470 0.3931
vn 0.5174 -0.7638 0.3859
vn 0.5155 -0.7316 0.4460
vn 0.4414 -0.7740 0.4539
vn 0.3639 -0.8095 0.4607
vn 0.4482 -0.7286 0.5180
vn 0.3732 -0.7620 0.5293
vn 0.5172 -0.6906 0.5055
vn 0.5940 -0.7073 0.3832
vn 0.5869 -0.6802 0.4392
vn 0.5816 -0.6472 0.4929
vn 0.2749 -0.8764 0.3955
vn 0.2820 -0.8386 0.4660
vn 0.1954 -0.8609 0.4698
vn 0.1886 -0.8983 0.3969
vn 0.0976 -0.9124 0.3974
vn 0.1021 -0.8756 0.4722
vn 0.0000 -0.8810 0.4731
vn 0.0000 -0.9176 0.3976
vn 0.2913 -0.7905 0.5388
vn 0.2034 -0.8126 0.5462
vn 0.1071 -0.8275 0.5512
vn 0.0000 -0.8331 0.5532
vn 0.2648 0.9296 0.2562
vn 0.2694 0.9061 0.3261
vn 0.3538 0.8767 0.3259
vn 0.3508 0.9003 0.2576
vn 0.3482 0.9188 0.1858
vn 0.2610 0.9477 0.1837
vn 0.1743 0.9678 0.1817
vn 0.1782 0.9505 0.2547
vn 0.1830 0.9276 0.3257
vn 0.0903 0.9631 0.2534
vn 0.0936 0.9410 0.3251
vn 0.0876 0.9797 0.1802
vn 0.2581 0.9602 0.1065
vn 0.3461 0.9319 0.1084
vn 0.3446 0.9385 0.0232
vn 0.2565 0.9663 0.0227
vn 0.1699 0.9852 0.0223
vn 0.1715 0.9796 0.1049
vn 0.0857 0.9909 0.1037
vn 0.0847 0.9962 0.0220
vn 0.3577 0.8470 0.3931
vn 0.2749 0.8764 0.3955
vn 0.1886 0.8983 0.3969
vn 0.1954 0.8609 0.4698
vn 0.2820 0.8386 0.4660
vn 0.3639 0.8095 0.4607
vn 0.3732 0.7620 0.5293
vn 0.2913 0.7905 0.5388
vn 0.2034 0.8126 0.5462
vn 0.0976 0.9124 0.3974
vn 0.1021 0.8756 0.4722
vn 0.1071 0.8275 0.5512
vn 0.4384 0.8099 0.3897
vn 0.4373 0.8385 0.3251
vn 0.4414 0.7741 0.4539
vn 0.5155 0.7316 0.4460
vn 0.5175 0.7637 0.3859
vn 0.5200 0.7902 0.3243
vn 0.5940 0.7073 0.3832
vn 0.6007 0.7308 0.3242
vn 0.5869 0.6802 0.4392
vn 0.4482 0.7286 0.5180
vn 0.5172 0.6906 0.5055
vn 0.5816 0.6472 0.4929
vn 0.4367 0.8616 0.2586
vn 0.5225 0.8122 0.2595
vn 0.5246 0.8299 0.1897
vn 0.4362 0.8800 0.1878
vn 0.4355 0.8934 0.1104
vn 0.5260 0.8431 0.1122
vn 0.5262 0.8500 0.0242
vn 0.4348 0.9002 0.0237
vn 0.6070 0.7508 0.2605
vn 0.6123 0.7672 0.1913
vn 0.6161 0.7794 0.1137
vn 0.6178 0.7860 0.0245
vn 0.2567 0.9400 -0.2249
vn 0.3421 0.9124 -0.2247
vn 0.3401 0.8907 -0.3017
vn 0.2566 0.9176 -0.3037
vn 0.1727 0.9366 -0.3049
vn 0.1717 0.9592 -0.2247
vn 0.1706 0.9747 -0.1443
vn 0.2564 0.9556 -0.1452
vn 0.3434 0.9278 -0.1460
vn 0.2561 0.9646 -0.0632
vn 0.3439 0.9368 -0.0641
vn 0.1697 0.9835 -0.0624
vn 0.0864 0.9707 -0.2243
vn 0.0876 0.9482 -0.3053
vn 0.0854 0.9860 -0.1435
vn 0.0847 0.9945 -0.0618
vn 0.4244 0.8547 -0.2989
vn 0.4288 0.8752 -0.2239
vn 0.4320 0.8899 -0.1466
vn 0.5217 0.8404 -0.1471
vn 0.5164 0.8268 -0.2231
vn 0.5094 0.8079 -0.2962
vn 0.5937 0.7489 -0.2943
vn 0.6037 0.7655 -0.2226
vn 0.6112 0.7776 -0.1476
vn 0.4338 0.8987 -0.0649
vn 0.5248 0.8487 -0.0656
vn 0.6161 0.7849 -0.0662
vn 0.4195 0.8275 -0.3731
vn 0.3378 0.8617 -0.3787
vn 0.5011 0.7836 -0.3672
vn 0.4922 0.7526 -0.4373
vn 0.4151 0.7921 -0.4476
vn 0.3365 0.8235 -0.4567
vn 0.4134 0.7459 -0.5222
vn 0.3370 0.7743 -0.5357
vn 0.4860 0.7118 -0.5071
vn 0.5817 0.7281 -0.3625
vn 0.5682 0.7028 -0.4281
vn 0.5556 0.6704 -0.4917
vn 0.2562 0.8875 -0.3830
vn 0.2562 0.8481 -0.4638
vn 0.1747 0.8657 -0.4691
vn 0.1737 0.9060 -0.3860
vn 0.0889 0.9175 -0.3876
vn 0.0900 0.8768 -0.4723
vn 0.2570 0.7969 -0.5467
vn 0.1757 0.8132 -0.5548
vn 0.0908 0.8235 -0.5600
# 771 vertex normals

vt 0.1116 0.8005 0.0000
vt 0.1018 0.7823 0.0000
vt 0.1195 0.7740 0.0000
vt 0.1290 0.7904 0.0000
vt 0.1398 0.8060 0.0000
vt 0.1231 0.8177 0.0000
vt 0.1049 0.8301 0.0000
vt 0.0928 0.8109 0.0000
vt 0.0825 0.7907 0.0000
vt 0.0720 0.8218 0.0000
vt 0.0614 0.7993 0.0000
vt 0.0849 0.8433 0.0000
vt 0.1361 0.8339 0.0000
vt 0.1519 0.8206 0.0000
vt 0.1650 0.8344 0.0000
vt 0.1503 0.8491 0.0000
vt 0.1344 0.8650 0.0000
vt 0.1189 0.8481 0.0000
vt 0.0999 0.8636 0.0000
vt 0.1169 0.8825 0.0000
vt 0.0986 0.9007 0.0000
vt 0.0801 0.8797 0.0000
vt 0.1116 0.7567 0.0000
vt 0.0938 0.7631 0.0000
vt 0.0742 0.7695 0.0000
vt 0.0682 0.7474 0.0000
vt 0.0878 0.7430 0.0000
vt 0.1057 0.7385 0.0000
vt 0.0840 0.7218 0.0000
vt 0.1021 0.7193 0.0000
vt 0.0643 0.7243 0.0000
vt 0.0631 0.7001 0.0000
vt 0.0830 0.6997 0.0000
vt 0.1013 0.6991 0.0000
vt 0.0529 0.7760 0.0000
vt 0.0468 0.7517 0.0000
vt 0.0430 0.7266 0.0000
vt 0.0417 0.7003 0.0000
vt 0.1281 0.7501 0.0000
vt 0.1359 0.7657 0.0000
vt 0.1223 0.7338 0.0000
vt 0.1374 0.7285 0.0000
vt 0.1434 0.7430 0.0000
vt 0.1511 0.7570 0.0000
vt 0.1653 0.7477 0.0000
vt 0.1575 0.7350 0.0000
vt 0.1512 0.7222 0.0000
vt 0.1638 0.7144 0.0000
vt 0.1707 0.7258 0.0000
vt 0.1787 0.7375 0.0000
vt 0.1187 0.7165 0.0000
vt 0.1180 0.6984 0.0000
vt 0.1327 0.6976 0.0000
vt 0.1336 0.7133 0.0000
vt 0.1467 0.7095 0.0000
vt 0.1454 0.6967 0.0000
vt 0.1542 0.6959 0.0000
vt 0.1581 0.7038 0.0000
vt 0.1450 0.7805 0.0000
vt 0.1599 0.7705 0.0000
vt 0.1698 0.7834 0.0000
vt 0.1553 0.7946 0.0000
vt 0.1666 0.8080 0.0000
vt 0.1805 0.7957 0.0000
vt 0.1919 0.8075 0.0000
vt 0.1787 0.8207 0.0000
vt 0.1740 0.7601 0.0000
vt 0.1874 0.7491 0.0000
vt 0.1968 0.7605 0.0000
vt 0.1835 0.7721 0.0000
vt 0.1938 0.7837 0.0000
vt 0.2067 0.7715 0.0000
vt 0.2172 0.7822 0.0000
vt 0.2046 0.7948 0.0000
vt 0.1989 0.8878 0.0000
vt 0.2089 0.8704 0.0000
vt 0.2253 0.8799 0.0000
vt 0.2171 0.8976 0.0000
vt 0.2087 0.9169 0.0000
vt 0.1885 0.9066 0.0000
vt 0.1693 0.8945 0.0000
vt 0.1817 0.8763 0.0000
vt 0.1934 0.8596 0.0000
vt 0.1655 0.8633 0.0000
vt 0.1788 0.8475 0.0000
vt 0.1512 0.8805 0.0000
vt 0.1775 0.9274 0.0000
vt 0.2000 0.9380 0.0000
vt 0.1911 0.9601 0.0000
vt 0.1663 0.9490 0.0000
vt 0.1424 0.9354 0.0000
vt 0.1561 0.9145 0.0000
vt 0.1357 0.8995 0.0000
vt 0.1196 0.9193 0.0000
vt 0.2337 0.8635 0.0000
vt 0.2189 0.8544 0.0000
vt 0.2048 0.8441 0.0000
vt 0.2160 0.8296 0.0000
vt 0.2289 0.8395 0.0000
vt 0.2424 0.8484 0.0000
vt 0.2393 0.8254 0.0000
vt 0.2517 0.8342 0.0000
vt 0.2273 0.8159 0.0000
vt 0.2389 0.8027 0.0000
vt 0.2503 0.8121 0.0000
vt 0.2619 0.8208 0.0000
vt 0.1914 0.8328 0.0000
vt 0.2037 0.8189 0.0000
vt 0.2157 0.8056 0.0000
vt 0.2279 0.7927 0.0000
vt 0.2492 0.8713 0.0000
vt 0.2426 0.8878 0.0000
vt 0.2563 0.8560 0.0000
vt 0.2709 0.8620 0.0000
vt 0.2656 0.8772 0.0000
vt 0.2608 0.8937 0.0000
vt 0.2801 0.8973 0.0000
vt 0.2828 0.8807 0.0000
vt 0.2860 0.8658 0.0000
vt 0.3018 0.8667 0.0000
vt 0.3010 0.8815 0.0000
vt 0.3002 0.8982 0.0000
vt 0.2644 0.8419 0.0000
vt 0.2736 0.8287 0.0000
vt 0.2850 0.8357 0.0000
vt 0.2772 0.8482 0.0000
vt 0.2898 0.8528 0.0000
vt 0.2956 0.8414 0.0000
vt 0.3034 0.8453 0.0000
vt 0.3027 0.8541 0.0000
vt 0.2362 0.9057 0.0000
vt 0.2563 0.9117 0.0000
vt 0.2519 0.9313 0.0000
vt 0.2298 0.9252 0.0000
vt 0.2233 0.9465 0.0000
vt 0.2476 0.9526 0.0000
vt 0.2432 0.9749 0.0000
vt 0.2168 0.9687 0.0000
vt 0.2775 0.9154 0.0000
vt 0.2997 0.9164 0.0000
vt 0.2993 0.9363 0.0000
vt 0.2751 0.9351 0.0000
vt 0.2727 0.9565 0.0000
vt 0.2990 0.9578 0.0000
vt 0.2988 0.9800 0.0000
vt 0.2705 0.9787 0.0000
vt 0.4360 0.5110 0.0000
vt 0.4260 0.5026 0.0000
vt 0.4348 0.4922 0.0000
vt 0.4450 0.5010 0.0000
vt 0.4437 0.4820 0.0000
vt 0.4540 0.4912 0.0000
vt 0.4635 0.5002 0.0000
vt 0.4545 0.5098 0.0000
vt 0.4453 0.5196 0.0000
vt 0.4635 0.5186 0.0000
vt 0.4542 0.5282 0.0000
vt 0.4726 0.5092 0.0000
vt 0.4815 0.5182 0.0000
vt 0.4723 0.5274 0.0000
vt 0.4628 0.5368 0.0000
vt 0.4528 0.4720 0.0000
vt 0.4630 0.4816 0.0000
vt 0.4724 0.4909 0.0000
vt 0.4816 0.5000 0.0000
vt 0.4997 0.5000 0.0000
vt 0.4906 0.5090 0.0000
vt 0.4267 0.5212 0.0000
vt 0.4171 0.5131 0.0000
vt 0.4359 0.5295 0.0000
vt 0.4260 0.5397 0.0000
vt 0.4171 0.5315 0.0000
vt 0.4078 0.5236 0.0000
vt 0.4070 0.5420 0.0000
vt 0.3980 0.5341 0.0000
vt 0.4158 0.5501 0.0000
vt 0.4049 0.5608 0.0000
vt 0.3962 0.5526 0.0000
vt 0.3874 0.5445 0.0000
vt 0.4446 0.5380 0.0000
vt 0.4531 0.5465 0.0000
vt 0.4431 0.5565 0.0000
vt 0.4347 0.5480 0.0000
vt 0.4243 0.5584 0.0000
vt 0.4328 0.5668 0.0000
vt 0.4220 0.5776 0.0000
vt 0.4135 0.5692 0.0000
vt 0.4151 0.4943 0.0000
vt 0.4066 0.5053 0.0000
vt 0.3980 0.5161 0.0000
vt 0.3873 0.5093 0.0000
vt 0.3950 0.4982 0.0000
vt 0.4027 0.4866 0.0000
vt 0.3884 0.4796 0.0000
vt 0.3817 0.4922 0.0000
vt 0.3754 0.5038 0.0000
vt 0.3620 0.5005 0.0000
vt 0.3665 0.4881 0.0000
vt 0.3717 0.4744 0.0000
vt 0.3887 0.5266 0.0000
vt 0.3786 0.5368 0.0000
vt 0.3699 0.5297 0.0000
vt 0.3791 0.5199 0.0000
vt 0.3692 0.5143 0.0000
vt 0.3618 0.5234 0.0000
vt 0.3556 0.5190 0.0000
vt 0.3582 0.5113 0.0000
vt 0.4236 0.4833 0.0000
vt 0.4107 0.4747 0.0000
vt 0.4194 0.4627 0.0000
vt 0.4324 0.4724 0.0000
vt 0.4417 0.4618 0.0000
vt 0.4291 0.4510 0.0000
vt 0.3956 0.4664 0.0000
vt 0.3777 0.4596 0.0000
vt 0.3854 0.4443 0.0000
vt 0.4042 0.4530 0.0000
vt 0.4148 0.4397 0.0000
vt 0.3958 0.4290 0.0000
vt 0.5074 0.5649 0.0000
vt 0.4970 0.5737 0.0000
vt 0.4886 0.5637 0.0000
vt 0.4986 0.5547 0.0000
vt 0.4800 0.5544 0.0000
vt 0.4898 0.5452 0.0000
vt 0.4994 0.5362 0.0000
vt 0.5084 0.5457 0.0000
vt 0.5176 0.5560 0.0000
vt 0.5180 0.5367 0.0000
vt 0.5276 0.5469 0.0000
vt 0.5088 0.5273 0.0000
vt 0.5180 0.5182 0.0000
vt 0.5274 0.5276 0.0000
vt 0.5373 0.5376 0.0000
vt 0.4810 0.5362 0.0000
vt 0.4714 0.5455 0.0000
vt 0.4904 0.5271 0.0000
vt 0.4997 0.5181 0.0000
vt 0.5088 0.5091 0.0000
vt 0.5163 0.5761 0.0000
vt 0.5053 0.5846 0.0000
vt 0.5272 0.5673 0.0000
vt 0.5368 0.5803 0.0000
vt 0.5249 0.5890 0.0000
vt 0.5130 0.5970 0.0000
vt 0.5331 0.6041 0.0000
vt 0.5199 0.6113 0.0000
vt 0.5466 0.5956 0.0000
vt 0.5552 0.6144 0.0000
vt 0.5399 0.6220 0.0000
vt 0.5251 0.6280 0.0000
vt 0.5378 0.5581 0.0000
vt 0.5481 0.5484 0.0000
vt 0.5598 0.5601 0.0000
vt 0.5486 0.5706 0.0000
vt 0.5598 0.5849 0.0000
vt 0.5725 0.5729 0.0000
vt 0.5982 0.5986 0.0000
vt 0.5706 0.6040 0.0000
vt 0.4865 0.5826 0.0000
vt 0.4943 0.5930 0.0000
vt 0.5014 0.6047 0.0000
vt 0.4902 0.6124 0.0000
vt 0.4835 0.6017 0.0000
vt 0.4760 0.5918 0.0000
vt 0.4655 0.6016 0.0000
vt 0.4730 0.6109 0.0000
vt 0.4797 0.6205 0.0000
vt 0.4698 0.6297 0.0000
vt 0.4627 0.6211 0.0000
vt 0.4550 0.6122 0.0000
vt 0.5073 0.6180 0.0000
vt 0.5114 0.6332 0.0000
vt 0.4990 0.6377 0.0000
vt 0.4957 0.6243 0.0000
vt 0.4852 0.6304 0.0000
vt 0.4882 0.6414 0.0000
vt 0.4805 0.6440 0.0000
vt 0.4761 0.6379 0.0000
vt 0.4784 0.5729 0.0000
vt 0.4681 0.5825 0.0000
vt 0.4599 0.5736 0.0000
vt 0.4701 0.5638 0.0000
vt 0.4616 0.5550 0.0000
vt 0.4516 0.5649 0.0000
vt 0.4576 0.5926 0.0000
vt 0.4470 0.6034 0.0000
vt 0.4388 0.5947 0.0000
vt 0.4495 0.5839 0.0000
vt 0.4412 0.5753 0.0000
vt 0.4304 0.5861 0.0000
vt 0.2518 0.6853 0.0000
vt 0.2388 0.6987 0.0000
vt 0.2290 0.6879 0.0000
vt 0.2417 0.6745 0.0000
vt 0.2547 0.6610 0.0000
vt 0.2649 0.6718 0.0000
vt 0.2751 0.6826 0.0000
vt 0.2619 0.6960 0.0000
vt 0.2488 0.7094 0.0000
vt 0.2720 0.7066 0.0000
vt 0.2588 0.7200 0.0000
vt 0.2853 0.6933 0.0000
vt 0.2957 0.7038 0.0000
vt 0.2823 0.7171 0.0000
vt 0.2690 0.7304 0.0000
vt 0.2781 0.6585 0.0000
vt 0.2679 0.6477 0.0000
vt 0.2813 0.6347 0.0000
vt 0.2914 0.6455 0.0000
vt 0.3016 0.6562 0.0000
vt 0.2883 0.6693 0.0000
vt 0.2986 0.6799 0.0000
vt 0.3119 0.6667 0.0000
vt 0.3223 0.6772 0.0000
vt 0.3090 0.6905 0.0000
vt 0.2165 0.7012 0.0000
vt 0.2260 0.7119 0.0000
vt 0.2358 0.7226 0.0000
vt 0.2228 0.7356 0.0000
vt 0.2132 0.7248 0.0000
vt 0.2040 0.7140 0.0000
vt 0.1915 0.7262 0.0000
vt 0.2004 0.7373 0.0000
vt 0.2098 0.7483 0.0000
vt 0.2457 0.7332 0.0000
vt 0.2558 0.7436 0.0000
vt 0.2427 0.7567 0.0000
vt 0.2326 0.7463 0.0000
vt 0.2197 0.7591 0.0000
vt 0.2299 0.7696 0.0000
vt 0.2070 0.6905 0.0000
vt 0.2191 0.6773 0.0000
vt 0.1951 0.7032 0.0000
vt 0.1862 0.6929 0.0000
vt 0.1974 0.6802 0.0000
vt 0.2089 0.6668 0.0000
vt 0.1872 0.6704 0.0000
vt 0.1983 0.6567 0.0000
vt 0.1771 0.6833 0.0000
vt 0.1669 0.6751 0.0000
vt 0.1761 0.6615 0.0000
vt 0.1868 0.6470 0.0000
vt 0.1832 0.7151 0.0000
vt 0.1753 0.7044 0.0000
vt 0.1678 0.6947 0.0000
vt 0.1593 0.6872 0.0000
vt 0.2315 0.6638 0.0000
vt 0.2211 0.6531 0.0000
vt 0.2340 0.6393 0.0000
vt 0.2444 0.6502 0.0000
vt 0.2576 0.6368 0.0000
vt 0.2473 0.6258 0.0000
vt 0.2611 0.6126 0.0000
vt 0.2712 0.6238 0.0000
vt 0.2103 0.6426 0.0000
vt 0.1988 0.6322 0.0000
vt 0.2118 0.6175 0.0000
vt 0.2232 0.6285 0.0000
vt 0.2368 0.6146 0.0000
vt 0.2258 0.6031 0.0000
vt 0.2406 0.5893 0.0000
vt 0.2509 0.6012 0.0000
vt 0.3324 0.6084 0.0000
vt 0.3229 0.5983 0.0000
vt 0.3368 0.5869 0.0000
vt 0.3460 0.5967 0.0000
vt 0.3553 0.6063 0.0000
vt 0.3420 0.6184 0.0000
vt 0.3286 0.6308 0.0000
vt 0.3187 0.6205 0.0000
vt 0.3089 0.6100 0.0000
vt 0.3050 0.6328 0.0000
vt 0.2950 0.6221 0.0000
vt 0.3151 0.6433 0.0000
vt 0.3517 0.6282 0.0000
vt 0.3648 0.6158 0.0000
vt 0.3743 0.6253 0.0000
vt 0.3615 0.6380 0.0000
vt 0.3486 0.6509 0.0000
vt 0.3386 0.6409 0.0000
vt 0.3253 0.6537 0.0000
vt 0.3355 0.6640 0.0000
vt 0.3278 0.5769 0.0000
vt 0.3136 0.5878 0.0000
vt 0.2993 0.5992 0.0000
vt 0.2899 0.5881 0.0000
vt 0.3046 0.5768 0.0000
vt 0.3192 0.5664 0.0000
vt 0.3112 0.5552 0.0000
vt 0.2961 0.5653 0.0000
vt 0.2808 0.5764 0.0000
vt 0.2719 0.5641 0.0000
vt 0.2880 0.5530 0.0000
vt 0.3041 0.5432 0.0000
vt 0.2852 0.6112 0.0000
vt 0.2754 0.6000 0.0000
vt 0.2657 0.5884 0.0000
vt 0.2560 0.5762 0.0000
vt 0.3416 0.5665 0.0000
vt 0.3503 0.5760 0.0000
vt 0.3334 0.5567 0.0000
vt 0.3467 0.5476 0.0000
vt 0.3548 0.5565 0.0000
vt 0.3634 0.5653 0.0000
vt 0.3672 0.5467 0.0000
vt 0.3758 0.5549 0.0000
vt 0.3590 0.5387 0.0000
vt 0.3259 0.5462 0.0000
vt 0.3196 0.5348 0.0000
vt 0.3341 0.5278 0.0000
vt 0.3396 0.5381 0.0000
vt 0.3517 0.5310 0.0000
vt 0.3467 0.5224 0.0000
vt 0.3593 0.5853 0.0000
vt 0.3722 0.5742 0.0000
vt 0.3811 0.5830 0.0000
vt 0.3684 0.5945 0.0000
vt 0.3776 0.6037 0.0000
vt 0.3900 0.5918 0.0000
vt 0.3989 0.6007 0.0000
vt 0.3867 0.6128 0.0000
vt 0.3845 0.5633 0.0000
vt 0.3933 0.5718 0.0000
vt 0.4020 0.5803 0.0000
vt 0.4107 0.5889 0.0000
vt 0.3911 0.6672 0.0000
vt 0.4028 0.6536 0.0000
vt 0.4126 0.6628 0.0000
vt 0.4012 0.6766 0.0000
vt 0.3895 0.6906 0.0000
vt 0.3790 0.6808 0.0000
vt 0.3687 0.6710 0.0000
vt 0.3811 0.6575 0.0000
vt 0.3932 0.6442 0.0000
vt 0.3713 0.6478 0.0000
vt 0.3837 0.6348 0.0000
vt 0.3586 0.6610 0.0000
vt 0.3667 0.6945 0.0000
vt 0.3773 0.7045 0.0000
vt 0.3647 0.7182 0.0000
vt 0.3540 0.7081 0.0000
vt 0.3433 0.6979 0.0000
vt 0.3562 0.6844 0.0000
vt 0.3458 0.6743 0.0000
vt 0.3328 0.6876 0.0000
vt 0.4235 0.6493 0.0000
vt 0.4142 0.6403 0.0000
vt 0.4050 0.6312 0.0000
vt 0.4166 0.6185 0.0000
vt 0.4254 0.6274 0.0000
vt 0.4342 0.6362 0.0000
vt 0.4446 0.6238 0.0000
vt 0.4363 0.6151 0.0000
vt 0.4278 0.6063 0.0000
vt 0.3959 0.6220 0.0000
vt 0.4077 0.6096 0.0000
vt 0.4193 0.5976 0.0000
vt 0.4330 0.6580 0.0000
vt 0.4226 0.6718 0.0000
vt 0.4430 0.6448 0.0000
vt 0.4520 0.6529 0.0000
vt 0.4428 0.6662 0.0000
vt 0.4331 0.6804 0.0000
vt 0.4533 0.6737 0.0000
vt 0.4442 0.6884 0.0000
vt 0.4614 0.6600 0.0000
vt 0.4717 0.6656 0.0000
vt 0.4647 0.6800 0.0000
vt 0.4563 0.6955 0.0000
vt 0.4528 0.6324 0.0000
vt 0.4608 0.6406 0.0000
vt 0.4685 0.6479 0.0000
vt 0.4771 0.6529 0.0000
vt 0.4117 0.6859 0.0000
vt 0.4226 0.6949 0.0000
vt 0.4114 0.7096 0.0000
vt 0.4002 0.7002 0.0000
vt 0.3882 0.7144 0.0000
vt 0.3994 0.7242 0.0000
vt 0.3868 0.7384 0.0000
vt 0.3757 0.7283 0.0000
vt 0.4341 0.7035 0.0000
vt 0.4465 0.7116 0.0000
vt 0.4354 0.7277 0.0000
vt 0.4230 0.7188 0.0000
vt 0.4110 0.7339 0.0000
vt 0.4232 0.7436 0.0000
vt 0.4101 0.7590 0.0000
vt 0.3982 0.7486 0.0000
vt 0.3142 0.7477 0.0000
vt 0.3249 0.7578 0.0000
vt 0.3115 0.7705 0.0000
vt 0.3008 0.7606 0.0000
vt 0.2901 0.7507 0.0000
vt 0.3035 0.7376 0.0000
vt 0.3169 0.7244 0.0000
vt 0.3276 0.7346 0.0000
vt 0.3384 0.7448 0.0000
vt 0.3409 0.7214 0.0000
vt 0.3517 0.7317 0.0000
vt 0.3302 0.7112 0.0000
vt 0.2928 0.7274 0.0000
vt 0.2795 0.7407 0.0000
vt 0.3062 0.7142 0.0000
vt 0.3195 0.7009 0.0000
vt 0.3221 0.7804 0.0000
vt 0.3357 0.7680 0.0000
vt 0.3492 0.7551 0.0000
vt 0.3601 0.7656 0.0000
vt 0.3463 0.7784 0.0000
vt 0.3326 0.7906 0.0000
vt 0.3427 0.8012 0.0000
vt 0.3568 0.7892 0.0000
vt 0.3709 0.7763 0.0000
vt 0.3819 0.7877 0.0000
vt 0.3672 0.8007 0.0000
vt 0.3524 0.8127 0.0000
vt 0.3626 0.7419 0.0000
vt 0.3736 0.7522 0.0000
vt 0.3848 0.7628 0.0000
vt 0.3963 0.7737 0.0000
vt 0.3089 0.7925 0.0000
vt 0.2982 0.7830 0.0000
vt 0.3192 0.8021 0.0000
vt 0.3065 0.8132 0.0000
vt 0.2962 0.8043 0.0000
vt 0.2854 0.7954 0.0000
vt 0.2843 0.8163 0.0000
vt 0.2732 0.8079 0.0000
vt 0.2949 0.8242 0.0000
vt 0.3290 0.8123 0.0000
vt 0.3379 0.8234 0.0000
vt 0.3243 0.8326 0.0000
vt 0.3161 0.8224 0.0000
vt 0.3046 0.8317 0.0000
vt 0.3121 0.8402 0.0000
vt 0.2875 0.7734 0.0000
vt 0.2746 0.7862 0.0000
vt 0.2638 0.7767 0.0000
vt 0.2768 0.7637 0.0000
vt 0.2662 0.7538 0.0000
vt 0.2532 0.7668 0.0000
vt 0.2621 0.7990 0.0000
vt 0.2511 0.7896 0.0000
vt 0.2404 0.7798 0.0000
vt 0.4187 0.8764 0.0000
vt 0.3950 0.8902 0.0000
vt 0.3864 0.8717 0.0000
vt 0.4078 0.8584 0.0000
vt 0.4283 0.8429 0.0000
vt 0.4414 0.8599 0.0000
vt 0.4554 0.8785 0.0000
vt 0.4302 0.8960 0.0000
vt 0.4040 0.9104 0.0000
vt 0.4425 0.9176 0.0000
vt 0.4135 0.9325 0.0000
vt 0.4705 0.8990 0.0000
vt 0.4862 0.9205 0.0000
vt 0.4552 0.9401 0.0000
vt 0.4232 0.9555 0.0000
vt 0.4628 0.8408 0.0000
vt 0.4477 0.8252 0.0000
vt 0.4656 0.8056 0.0000
vt 0.4825 0.8195 0.0000
vt 0.5009 0.8347 0.0000
vt 0.4792 0.8580 0.0000
vt 0.4971 0.8769 0.0000
vt 0.5212 0.8514 0.0000
vt 0.5425 0.8689 0.0000
vt 0.5158 0.8968 0.0000
vt 0.3647 0.8825 0.0000
vt 0.3709 0.9012 0.0000
vt 0.3774 0.9216 0.0000
vt 0.3507 0.9296 0.0000
vt 0.3467 0.9093 0.0000
vt 0.3429 0.8906 0.0000
vt 0.3213 0.8959 0.0000
vt 0.3229 0.9144 0.0000
vt 0.3246 0.9345 0.0000
vt 0.3842 0.9438 0.0000
vt 0.3911 0.9670 0.0000
vt 0.3593 0.9747 0.0000
vt 0.3550 0.9517 0.0000
vt 0.3265 0.9563 0.0000
vt 0.3285 0.9788 0.0000
vt 0.3586 0.8654 0.0000
vt 0.3781 0.8548 0.0000
vt 0.3391 0.8735 0.0000
vt 0.3351 0.8582 0.0000
vt 0.3524 0.8499 0.0000
vt 0.3698 0.8394 0.0000
vt 0.3456 0.8359 0.0000
vt 0.3613 0.8254 0.0000
vt 0.3304 0.8445 0.0000
vt 0.3198 0.8790 0.0000
vt 0.3182 0.8640 0.0000
vt 0.3162 0.8510 0.0000
vt 0.3974 0.8421 0.0000
vt 0.3873 0.8271 0.0000
vt 0.4043 0.8131 0.0000
vt 0.4160 0.8273 0.0000
vt 0.4337 0.8108 0.0000
vt 0.4205 0.7976 0.0000
vt 0.4359 0.7809 0.0000
vt 0.4502 0.7928 0.0000
vt 0.3772 0.8133 0.0000
vt 0.3930 0.7999 0.0000
vt 0.4081 0.7853 0.0000
vt 0.4226 0.7697 0.0000
vt 0.5279 0.7455 0.0000
vt 0.5085 0.7390 0.0000
vt 0.5178 0.7153 0.0000
vt 0.5371 0.7190 0.0000
vt 0.5582 0.7227 0.0000
vt 0.5491 0.7523 0.0000
vt 0.5364 0.7812 0.0000
vt 0.5155 0.7715 0.0000
vt 0.4965 0.7623 0.0000
vt 0.5002 0.7963 0.0000
vt 0.4821 0.7846 0.0000
vt 0.5201 0.8089 0.0000
vt 0.5725 0.7594 0.0000
vt 0.5814 0.7265 0.0000
vt 0.6056 0.7303 0.0000
vt 0.5969 0.7667 0.0000
vt 0.5833 0.8026 0.0000
vt 0.5593 0.7917 0.0000
vt 0.5421 0.8227 0.0000
vt 0.5651 0.8371 0.0000
vt 0.5003 0.7113 0.0000
vt 0.4908 0.7325 0.0000
vt 0.4792 0.7535 0.0000
vt 0.4633 0.7449 0.0000
vt 0.4747 0.7259 0.0000
vt 0.4842 0.7068 0.0000
vt 0.4696 0.7016 0.0000
vt 0.4599 0.7190 0.0000
vt 0.4488 0.7364 0.0000
vt 0.4655 0.7737 0.0000
vt 0.4503 0.7633 0.0000
vt 0.4362 0.7533 0.0000
vt 0.5072 0.6902 0.0000
vt 0.5242 0.6916 0.0000
vt 0.4916 0.6879 0.0000
vt 0.4967 0.6699 0.0000
vt 0.5114 0.6698 0.0000
vt 0.5276 0.6688 0.0000
vt 0.5128 0.6506 0.0000
vt 0.5278 0.6473 0.0000
vt 0.4993 0.6530 0.0000
vt 0.4775 0.6846 0.0000
vt 0.4835 0.6686 0.0000
vt 0.4874 0.6542 0.0000
vt 0.5429 0.6926 0.0000
vt 0.5452 0.6671 0.0000
vt 0.5645 0.6648 0.0000
vt 0.5634 0.6933 0.0000
vt 0.5860 0.6938 0.0000
vt 0.5856 0.6617 0.0000
vt 0.6075 0.6582 0.0000
vt 0.6095 0.6942 0.0000
vt 0.5441 0.6433 0.0000
vt 0.5615 0.6380 0.0000
vt 0.5798 0.6306 0.0000
vt 0.5985 0.6223 0.0000
vt 0.2541 0.4715 0.0000
vt 0.2807 0.4623 0.0000
vt 0.2844 0.4816 0.0000
vt 0.2606 0.4909 0.0000
vt 0.2373 0.5029 0.0000
vt 0.2281 0.4839 0.0000
vt 0.2184 0.4630 0.0000
vt 0.2474 0.4502 0.0000
vt 0.2770 0.4412 0.0000
vt 0.2403 0.4269 0.0000
vt 0.2733 0.4180 0.0000
vt 0.2080 0.4400 0.0000
vt 0.2033 0.4992 0.0000
vt 0.2150 0.5173 0.0000
vt 0.1940 0.5337 0.0000
vt 0.1801 0.5169 0.0000
vt 0.1649 0.4984 0.0000
vt 0.1907 0.4792 0.0000
vt 0.1769 0.4572 0.0000
vt 0.1482 0.4781 0.0000
vt 0.3081 0.4752 0.0000
vt 0.3071 0.4565 0.0000
vt 0.3065 0.4360 0.0000
vt 0.3350 0.4349 0.0000
vt 0.3326 0.4542 0.0000
vt 0.3309 0.4719 0.0000
vt 0.3524 0.4717 0.0000
vt 0.3564 0.4554 0.0000
vt 0.3618 0.4380 0.0000
vt 0.3060 0.4135 0.0000
vt 0.3381 0.4139 0.0000
vt 0.3691 0.4197 0.0000
vt 0.3095 0.4923 0.0000
vt 0.2884 0.4992 0.0000
vt 0.3299 0.4881 0.0000
vt 0.3298 0.5027 0.0000
vt 0.3117 0.5078 0.0000
vt 0.2929 0.5152 0.0000
vt 0.3150 0.5220 0.0000
vt 0.2980 0.5299 0.0000
vt 0.3310 0.5160 0.0000
vt 0.3491 0.4867 0.0000
vt 0.3467 0.5002 0.0000
vt 0.3455 0.5121 0.0000
vt 0.2671 0.5086 0.0000
vt 0.2737 0.5247 0.0000
vt 0.2547 0.5361 0.0000
vt 0.2461 0.5202 0.0000
vt 0.2259 0.5339 0.0000
vt 0.2363 0.5491 0.0000
vt 0.2187 0.5635 0.0000
vt 0.2068 0.5492 0.0000
vt 0.2806 0.5395 0.0000
vt 0.2632 0.5507 0.0000
vt 0.2463 0.5632 0.0000
vt 0.2299 0.5768 0.0000
vt 0.1232 0.5806 0.0000
vt 0.1411 0.5916 0.0000
vt 0.1278 0.6129 0.0000
vt 0.1093 0.6043 0.0000
vt 0.0891 0.5953 0.0000
vt 0.1035 0.5691 0.0000
vt 0.1210 0.5439 0.0000
vt 0.1397 0.5579 0.0000
vt 0.1567 0.5710 0.0000
vt 0.1588 0.5366 0.0000
vt 0.1744 0.5517 0.0000
vt 0.1416 0.5202 0.0000
vt 0.0820 0.5568 0.0000
vt 0.0670 0.5858 0.0000
vt 0.1005 0.5287 0.0000
vt 0.1227 0.5022 0.0000
vt 0.1447 0.6212 0.0000
vt 0.1575 0.6020 0.0000
vt 0.1722 0.5833 0.0000
vt 0.1865 0.5951 0.0000
vt 0.1724 0.6121 0.0000
vt 0.1601 0.6295 0.0000
vt 0.1741 0.6380 0.0000
vt 0.1862 0.6221 0.0000
vt 0.1996 0.6064 0.0000
vt 0.1888 0.5657 0.0000
vt 0.2020 0.5788 0.0000
vt 0.2143 0.5913 0.0000
vt 0.1341 0.6407 0.0000
vt 0.1170 0.6346 0.0000
vt 0.1496 0.6470 0.0000
vt 0.1413 0.6643 0.0000
vt 0.1259 0.6602 0.0000
vt 0.1089 0.6565 0.0000
vt 0.1205 0.6795 0.0000
vt 0.1036 0.6781 0.0000
vt 0.1355 0.6812 0.0000
vt 0.1636 0.6538 0.0000
vt 0.1550 0.6690 0.0000
vt 0.1485 0.6832 0.0000
vt 0.0983 0.6284 0.0000
vt 0.0902 0.6526 0.0000
vt 0.0699 0.6486 0.0000
vt 0.0779 0.6219 0.0000
vt 0.0557 0.6151 0.0000
vt 0.0478 0.6443 0.0000
vt 0.0851 0.6765 0.0000
vt 0.0650 0.6747 0.0000
vt 0.0432 0.6728 0.0000
# 771 texture coords

o LeftEgg
g LeftEgg
usemtl _10858_egg_v2_L3_eggegg_egg_jpg
s 1
f 1/1/1 2/2/2 3/3/3 4/4/4 
f 4/4/4 5/5/5 6/6/6 1/1/1 
f 1/1/1 6/6/6 7/7/7 8/8/8 
f 8/8/8 9/9/9 2/2/2 1/1/1 
f 10/10/10 11/11/11 9/9/9 8/8/8 
f 8/8/8 7/7/7 12/12/12 10/10/10 
f 13/13/13 6/6/6 5/5/5 14/14/14 
f 14/14/14 15/15/15 16/16/16 13/13/13 
f 13/13/13 16/16/16 17/17/17 18/18/18 
f 18/18/18 7/7/7 6/6/6 13/13/13 
f 19/19/19 12/12/12 7/7/7 18/18/18 
f 18/18/18 17/17/17 20/20/20 19/19/19 
f 21/21/21 22/22/22 19/19/19 20/20/20 
f 12/12/12 19/19/19 22/22/22 
f 23/23/23 3/3/3 2/2/2 24/24/24 
f 24/24/24 2/2/2 9/9/9 25/25/25 
f 25/25/25 26/26/26 27/27/27 24/24/24 
f 24/24/24 27/27/27 28/28/28 23/23/23 
f 29/29/29 30/30/30 28/28/28 27/27/27 
f 26/26/26 31/31/31 29/29/29 27/27/27 
f 29/29/29 31/31/31 32/32/32 33/33/33 
f 33/33/33 34/34/34 30/30/30 29/29/29 
f 25/25/25 9/9/9 11/11/11 35/35/35 
f 35/35/35 36/36/36 26/26/26 25/25/25 
f 26/26/26 36/36/36 37/37/37 31/31/31 
f 38/38/38 32/32/32 31/31/31 37/37/37 
f 39/39/39 40/40/40 3/3/3 23/23/23 
f 28/28/28 41/41/41 39/39/39 23/23/23 
f 41/41/41 42/42/42 43/43/43 39/39/39 
f 44/44/44 40/40/40 39/39/39 43/43/43 
f 45/45/45 44/44/44 43/43/43 46/46/46 
f 46/46/46 43/43/43 42/42/42 47/47/47 
f 47/47/47 48/48/48 49/49/49 46/46/46 
f 46/46/46 49/49/49 50/50/50 45/45/45 
f 41/41/41 28/28/28 30/30/30 51/51/51 
f 51/51/51 30/30/30 34/34/34 52/52/52 
f 52/52/52 53/53/53 54/54/54 51/51/51 
f 51/51/51 54/54/54 42/42/42 41/41/41 
f 47/47/47 42/42/42 54/54/54 55/55/55 
f 55/55/55 54/54/54 53/53/53 56/56/56 
f 56/56/56 57/57/57 58/58/58 55/55/55 
f 55/55/55 58/58/58 48/48/48 47/47/47 
f 4/4/4 3/3/3 40/40/40 59/59/59 
f 59/59/59 40/40/40 44/44/44 60/60/60 
f 60/60/60 61/61/61 62/62/62 59/59/59 
f 59/59/59 62/62/62 5/5/5 4/4/4 
f 14/14/14 5/5/5 62/62/62 63/63/63 
f 63/63/63 62/62/62 61/61/61 64/64/64 
f 64/64/64 65/65/65 66/66/66 63/63/63 
f 63/63/63 66/66/66 15/15/15 14/14/14 
f 67/67/67 60/60/60 44/44/44 45/45/45 
f 45/45/45 50/50/50 68/68/68 67/67/67 
f 67/67/67 68/68/68 69/69/69 70/70/70 
f 61/61/61 60/60/60 67/67/67 70/70/70 
f 61/61/61 70/70/70 71/71/71 64/64/64 
f 70/70/70 69/69/69 72/72/72 71/71/71 
f 73/73/73 74/74/74 71/71/71 72/72/72 
f 65/65/65 64/64/64 71/71/71 74/74/74 
f 75/75/75 76/76/76 77/77/77 78/78/78 
f 78/78/78 79/79/79 80/80/80 75/75/75 
f 75/75/75 80/80/80 81/81/81 82/82/82 
f 82/82/82 83/83/83 76/76/76 75/75/75 
f 84/84/84 85/85/85 83/83/83 82/82/82 
f 82/82/82 81/81/81 86/86/86 84/84/84 
f 84/84/84 86/86/86 17/17/17 16/16/16 
f 16/16/16 15/15/15 85/85/85 84/84/84 
f 87/87/87 80/80/80 79/79/79 88/88/88 
f 88/88/88 89/89/89 90/90/90 87/87/87 
f 87/87/87 90/90/90 91/91/91 92/92/92 
f 92/92/92 81/81/81 80/80/80 87/87/87 
f 93/93/93 86/86/86 81/81/81 92/92/92 
f 92/92/92 91/91/91 94/94/94 93/93/93 
f 21/21/21 20/20/20 93/93/93 94/94/94 
f 20/20/20 17/17/17 86/86/86 93/93/93 
f 95/95/95 77/77/77 76/76/76 96/96/96 
f 96/96/96 76/76/76 83/83/83 97/97/97 
f 97/97/97 98/98/98 99/99/99 96/96/96 
f 96/96/96 99/99/99 100/100/100 95/95/95 
f 101/101/101 102/102/102 100/100/100 99/99/99 
f 98/98/98 103/103/103 101/101/101 99/99/99 
f 101/101/101 103/103/103 104/104/104 105/105/105 
f 105/105/105 106/106/106 102/102/102 101/101/101 
f 97/97/97 83/83/83 85/85/85 107/107/107 
f 107/107/107 85/85/85 15/15/15 66/66/66 
f 66/66/66 65/65/65 108/108/108 107/107/107 
f 107/107/107 108/108/108 98/98/98 97/97/97 
f 98/98/98 108/108/108 109/109/109 103/103/103 
f 65/65/65 74/74/74 109/109/109 108/108/108 
f 73/73/73 110/110/110 109/109/109 74/74/74 
f 110/110/110 104/104/104 103/103/103 109/109/109 
f 111/111/111 112/112/112 77/77/77 95/95/95 
f 100/100/100 113/113/113 111/111/111 95/95/95 
f 113/113/113 114/114/114 115/115/115 111/111/111 
f 116/116/116 112/112/112 111/111/111 115/115/115 
f 117/117/117 116/116/116 115/115/115 118/118/118 
f 118/118/118 115/115/115 114/114/114 119/119/119 
f 119/119/119 120/120/120 121/121/121 118/118/118 
f 118/118/118 121/121/121 122/122/122 117/117/117 
f 113/113/113 100/100/100 102/102/102 123/123/123 
f 123/123/123 102/102/102 106/106/106 124/124/124 
f 124/124/124 125/125/125 126/126/126 123/123/123 
f 123/123/123 126/126/126 114/114/114 113/113/113 
f 119/119/119 114/114/114 126/126/126 127/127/127 
f 127/127/127 126/126/126 125/125/125 128/128/128 
f 128/128/128 129/129/129 130/130/130 127/127/127 
f 127/127/127 130/130/130 120/120/120 119/119/119 
f 78/78/78 77/77/77 112/112/112 131/131/131 
f 131/131/131 112/112/112 116/116/116 132/132/132 
f 132/132/132 133/133/133 134/134/134 131/131/131 
f 131/131/131 134/134/134 79/79/79 78/78/78 
f 88/88/88 79/79/79 134/134/134 135/135/135 
f 135/135/135 134/134/134 133/133/133 136/136/136 
f 136/136/136 137/137/137 138/138/138 135/135/135 
f 135/135/135 138/138/138 89/89/89 88/88/88 
f 139/139/139 132/132/132 116/116/116 117/117/117 
f 117/117/117 122/122/122 140/140/140 139/139/139 
f 139/139/139 140/140/140 141/141/141 142/142/142 
f 133/133/133 132/132/132 139/139/139 142/142/142 
f 133/133/133 142/142/142 143/143/143 136/136/136 
f 142/142/142 141/141/141 144/144/144 143/143/143 
f 145/145/145 146/146/146 143/143/143 144/144/144 
f 137/137/137 136/136/136 143/143/143 146/146/146 
f 147/147/147 148/148/148 149/149/149 150/150/150 
f 150/150/150 149/149/149 151/151/151 152/152/152 
f 153/153/153 154/154/154 150/150/150 152/152/152 
f 155/155/155 147/147/147 150/150/150 154/154/154 
f 156/156/156 157/157/157 155/155/155 154/154/154 
f 154/154/154 153/153/153 158/158/158 156/156/156 
f 156/156/156 158/158/158 159/159/159 160/160/160 
f 160/160/160 161/161/161 157/157/157 156/156/156 
f 151/151/151 162/162/162 163/163/163 152/152/152 
f 164/164/164 153/153/153 152/152/152 163/163/163 
f 165/165/165 158/158/158 153/153/153 164/164/164 
f 166/166/166 167/167/167 165/165/165 
f 159/159/159 158/158/158 165/165/165 167/167/167 
f 168/168/168 169/169/169 148/148/148 147/147/147 
f 147/147/147 155/155/155 170/170/170 168/168/168 
f 168/168/168 170/170/170 171/171/171 172/172/172 
f 172/172/172 173/173/173 169/169/169 168/168/168 
f 174/174/174 175/175/175 173/173/173 172/172/172 
f 172/172/172 171/171/171 176/176/176 174/174/174 
f 174/174/174 176/176/176 177/177/177 178/178/178 
f 178/178/178 179/179/179 175/175/175 174/174/174 
f 155/155/155 157/157/157 180/180/180 170/170/170 
f 161/161/161 181/181/181 180/180/180 157/157/157 
f 182/182/182 183/183/183 180/180/180 181/181/181 
f 183/183/183 171/171/171 170/170/170 180/180/180 
f 184/184/184 176/176/176 171/171/171 183/183/183 
f 182/182/182 185/185/185 184/184/184 183/183/183 
f 184/184/184 185/185/185 186/186/186 187/187/187 
f 187/187/187 177/177/177 176/176/176 184/184/184 
f 188/188/188 148/148/148 169/169/169 189/189/189 
f 189/189/189 169/169/169 173/173/173 190/190/190 
f 190/190/190 191/191/191 192/192/192 189/189/189 
f 189/189/189 192/192/192 193/193/193 188/188/188 
f 194/194/194 193/193/193 192/192/192 195/195/195 
f 195/195/195 192/192/192 191/191/191 196/196/196 
f 196/196/196 197/197/197 198/198/198 195/195/195 
f 195/195/195 198/198/198 199/199/199 194/194/194 
f 190/190/190 173/173/173 175/175/175 200/200/200 
f 200/200/200 175/175/175 179/179/179 201/201/201 
f 201/201/201 202/202/202 203/203/203 200/200/200 
f 200/200/200 203/203/203 191/191/191 190/190/190 
f 196/196/196 191/191/191 203/203/203 204/204/204 
f 204/204/204 203/203/203 202/202/202 205/205/205 
f 205/205/205 206/206/206 207/207/207 204/204/204 
f 204/204/204 207/207/207 197/197/197 196/196/196 
f 208/208/208 149/149/149 148/148/148 188/188/188 
f 188/188/188 193/193/193 209/209/209 208/208/208 
f 208/208/208 209/209/209 210/210/210 211/211/211 
f 211/211/211 151/151/151 149/149/149 208/208/208 
f 212/212/212 162/162/162 151/151/151 211/211/211 
f 211/211/211 210/210/210 213/213/213 212/212/212 
f 214/214/214 209/209/209 193/193/193 194/194/194 
f 194/194/194 199/199/199 215/215/215 214/214/214 
f 214/214/214 215/215/215 216/216/216 217/217/217 
f 217/217/217 210/210/210 209/209/209 214/214/214 
f 218/218/218 213/213/213 210/210/210 217/217/217 
f 217/217/217 216/216/216 219/219/219 218/218/218 
f 220/220/220 221/221/221 222/222/222 223/223/223 
f 224/224/224 225/225/225 223/223/223 222/222/222 
f 226/226/226 227/227/227 223/223/223 225/225/225 
f 223/223/223 227/227/227 228/228/228 220/220/220 
f 228/228/228 227/227/227 229/229/229 230/230/230 
f 227/227/227 226/226/226 231/231/231 229/229/229 
f 232/232/232 233/233/233 229/229/229 231/231/231 
f 234/234/234 230/230/230 229/229/229 233/233/233 
f 235/235/235 225/225/225 224/224/224 236/236/236 
f 236/236/236 161/161/161 160/160/160 235/235/235 
f 235/235/235 160/160/160 159/159/159 237/237/237 
f 237/237/237 226/226/226 225/225/225 235/235/235 
f 238/238/238 231/231/231 226/226/226 237/237/237 
f 159/159/159 167/167/167 238/238/238 237/237/237 
f 166/166/166 239/239/239 238/238/238 167/167/167 
f 232/232/232 231/231/231 238/238/238 239/239/239 
f 240/240/240 241/241/241 221/221/221 220/220/220 
f 220/220/220 228/228/228 242/242/242 240/240/240 
f 240/240/240 242/242/242 243/243/243 244/244/244 
f 244/244/244 245/245/245 241/241/241 240/240/240 
f 246/246/246 247/247/247 245/245/245 244/244/244 
f 244/244/244 243/243/243 248/248/248 246/246/246 
f 246/246/246 248/248/248 249/249/249 250/250/250 
f 250/250/250 251/251/251 247/247/247 246/246/246 
f 252/252/252 242/242/242 228/228/228 230/230/230 
f 234/234/234 253/253/253 252/252/252 230/230/230 
f 252/252/252 253/253/253 254/254/254 255/255/255 
f 255/255/255 243/243/243 242/242/242 252/252/252 
f 256/256/256 248/248/248 243/243/243 255/255/255 
f 255/255/255 254/254/254 257/257/257 256/256/256 
f 256/256/256 257/257/257 258/258/258 259/259/259 
f 259/259/259 249/249/249 248/248/248 256/256/256 
f 260/260/260 221/221/221 241/241/241 261/261/261 
f 261/261/261 241/241/241 245/245/245 262/262/262 
f 262/262/262 263/263/263 264/264/264 261/261/261 
f 261/261/261 264/264/264 265/265/265 260/260/260 
f 266/266/266 265/265/265 264/264/264 267/267/267 
f 267/267/267 264/264/264 263/263/263 268/268/268 
f 268/268/268 269/269/269 270/270/270 267/267/267 
f 267/267/267 270/270/270 271/271/271 266/266/266 
f 262/262/262 245/245/245 247/247/247 272/272/272 
f 272/272/272 247/247/247 251/251/251 273/273/273 
f 273/273/273 274/274/274 275/275/275 272/272/272 
f 272/272/272 275/275/275 263/263/263 262/262/262 
f 268/268/268 263/263/263 275/275/275 276/276/276 
f 276/276/276 275/275/275 274/274/274 277/277/277 
f 277/277/277 278/278/278 279/279/279 276/276/276 
f 276/276/276 279/279/279 269/269/269 268/268/268 
f 280/280/280 222/222/222 221/221/221 260/260/260 
f 260/260/260 265/265/265 281/281/281 280/280/280 
f 280/280/280 281/281/281 282/282/282 283/283/283 
f 283/283/283 224/224/224 222/222/222 280/280/280 
f 224/224/224 283/283/283 284/284/284 236/236/236 
f 283/283/283 282/282/282 285/285/285 284/284/284 
f 182/182/182 181/181/181 284/284/284 285/285/285 
f 161/161/161 236/236/236 284/284/284 181/181/181 
f 286/286/286 281/281/281 265/265/265 266/266/266 
f 266/266/266 271/271/271 287/287/287 286/286/286 
f 286/286/286 287/287/287 288/288/288 289/289/289 
f 289/289/289 282/282/282 281/281/281 286/286/286 
f 290/290/290 285/285/285 282/282/282 289/289/289 
f 289/289/289 288/288/288 291/291/291 290/290/290 
f 290/290/290 291/291/291 186/186/186 185/185/185 
f 182/182/182 285/285/285 290/290/290 185/185/185 
f 292/292/292 293/293/293 294/294/294 295/295/295 
f 295/295/295 296/296/296 297/297/297 292/292/292 
f 292/292/292 297/297/297 298/298/298 299/299/299 
f 299/299/299 300/300/300 293/293/293 292/292/292 
f 301/301/301 302/302/302 300/300/300 299/299/299 
f 299/299/299 298/298/298 303/303/303 301/301/301 
f 301/301/301 303/303/303 304/304/304 305/305/305 
f 305/305/305 306/306/306 302/302/302 301/301/301 
f 307/307/307 297/297/297 296/296/296 308/308/308 
f 308/308/308 309/309/309 310/310/310 307/307/307 
f 307/307/307 310/310/310 311/311/311 312/312/312 
f 312/312/312 298/298/298 297/297/297 307/307/307 
f 313/313/313 303/303/303 298/298/298 312/312/312 
f 312/312/312 311/311/311 314/314/314 313/313/313 
f 315/315/315 316/316/316 313/313/313 314/314/314 
f 316/316/316 304/304/304 303/303/303 313/313/313 
f 317/317/317 294/294/294 293/293/293 318/318/318 
f 318/318/318 293/293/293 300/300/300 319/319/319 
f 319/319/319 320/320/320 321/321/321 318/318/318 
f 318/318/318 321/321/321 322/322/322 317/317/317 
f 323/323/323 322/322/322 321/321/321 324/324/324 
f 324/324/324 321/321/321 320/320/320 325/325/325 
f 325/325/325 69/69/69 68/68/68 324/324/324 
f 324/324/324 68/68/68 50/50/50 323/323/323 
f 319/319/319 300/300/300 302/302/302 326/326/326 
f 326/326/326 302/302/302 306/306/306 327/327/327 
f 327/327/327 328/328/328 329/329/329 326/326/326 
f 326/326/326 329/329/329 320/320/320 319/319/319 
f 325/325/325 320/320/320 329/329/329 330/330/330 
f 330/330/330 329/329/329 328/328/328 331/331/331 
f 331/331/331 73/73/73 72/72/72 330/330/330 
f 330/330/330 72/72/72 69/69/69 325/325/325 
f 332/332/332 333/333/333 294/294/294 317/317/317 
f 317/317/317 322/322/322 334/334/334 332/332/332 
f 332/332/332 334/334/334 335/335/335 336/336/336 
f 336/336/336 337/337/337 333/333/333 332/332/332 
f 338/338/338 339/339/339 337/337/337 336/336/336 
f 336/336/336 335/335/335 340/340/340 338/338/338 
f 338/338/338 340/340/340 341/341/341 342/342/342 
f 342/342/342 343/343/343 339/339/339 338/338/338 
f 344/344/344 334/334/334 322/322/322 323/323/323 
f 323/323/323 50/50/50 49/49/49 344/344/344 
f 344/344/344 49/49/49 48/48/48 345/345/345 
f 345/345/345 335/335/335 334/334/334 344/344/344 
f 346/346/346 340/340/340 335/335/335 345/345/345 
f 345/345/345 48/48/48 58/58/58 346/346/346 
f 346/346/346 58/58/58 57/57/57 347/347/347 
f 347/347/347 341/341/341 340/340/340 346/346/346 
f 295/295/295 294/294/294 333/333/333 348/348/348 
f 348/348/348 333/333/333 337/337/337 349/349/349 
f 349/349/349 350/350/350 351/351/351 348/348/348 
f 348/348/348 351/351/351 296/296/296 295/295/295 
f 308/308/308 296/296/296 351/351/351 352/352/352 
f 352/352/352 351/351/351 350/350/350 353/353/353 
f 353/353/353 354/354/354 355/355/355 352/352/352 
f 352/352/352 355/355/355 309/309/309 308/308/308 
f 349/349/349 337/337/337 339/339/339 356/356/356 
f 356/356/356 339/339/339 343/343/343 357/357/357 
f 357/357/357 358/358/358 359/359/359 356/356/356 
f 356/356/356 359/359/359 350/350/350 349/349/349 
f 353/353/353 350/350/350 359/359/359 360/360/360 
f 360/360/360 359/359/359 358/358/358 361/361/361 
f 361/361/361 362/362/362 363/363/363 360/360/360 
f 360/360/360 363/363/363 354/354/354 353/353/353 
f 364/364/364 365/365/365 366/366/366 367/367/367 
f 367/367/367 368/368/368 369/369/369 364/364/364 
f 364/364/364 369/369/369 370/370/370 371/371/371 
f 371/371/371 372/372/372 365/365/365 364/364/364 
f 373/373/373 374/374/374 372/372/372 371/371/371 
f 371/371/371 370/370/370 375/375/375 373/373/373 
f 373/373/373 375/375/375 311/311/311 310/310/310 
f 310/310/310 309/309/309 374/374/374 373/373/373 
f 376/376/376 369/369/369 368/368/368 377/377/377 
f 377/377/377 378/378/378 379/379/379 376/376/376 
f 376/376/376 379/379/379 380/380/380 381/381/381 
f 381/381/381 370/370/370 369/369/369 376/376/376 
f 382/382/382 375/375/375 370/370/370 381/381/381 
f 381/381/381 380/380/380 383/383/383 382/382/382 
f 315/315/315 314/314/314 382/382/382 383/383/383 
f 314/314/314 311/311/311 375/375/375 382/382/382 
f 384/384/384 366/366/366 365/365/365 385/385/385 
f 385/385/385 365/365/365 372/372/372 386/386/386 
f 386/386/386 387/387/387 388/388/388 385/385/385 
f 385/385/385 388/388/388 389/389/389 384/384/384 
f 390/390/390 389/389/389 388/388/388 391/391/391 
f 391/391/391 388/388/388 387/387/387 392/392/392 
f 391/391/391 392/392/392 393/393/393 394/394/394 
f 394/394/394 395/395/395 390/390/390 391/391/391 
f 386/386/386 372/372/372 374/374/374 396/396/396 
f 396/396/396 374/374/374 309/309/309 355/355/355 
f 354/354/354 397/397/397 396/396/396 355/355/355 
f 396/396/396 397/397/397 387/387/387 386/386/386 
f 392/392/392 387/387/387 397/397/397 398/398/398 
f 354/354/354 363/363/363 398/398/398 397/397/397 
f 398/398/398 363/363/363 362/362/362 399/399/399 
f 399/399/399 393/393/393 392/392/392 398/398/398 
f 400/400/400 401/401/401 366/366/366 384/384/384 
f 384/384/384 389/389/389 402/402/402 400/400/400 
f 400/400/400 402/402/402 403/403/403 404/404/404 
f 404/404/404 405/405/405 401/401/401 400/400/400 
f 406/406/406 407/407/407 405/405/405 404/404/404 
f 404/404/404 403/403/403 408/408/408 406/406/406 
f 406/406/406 408/408/408 202/202/202 201/201/201 
f 201/201/201 179/179/179 407/407/407 406/406/406 
f 409/409/409 402/402/402 389/389/389 390/390/390 
f 395/395/395 410/410/410 409/409/409 390/390/390 
f 409/409/409 410/410/410 411/411/411 412/412/412 
f 412/412/412 403/403/403 402/402/402 409/409/409 
f 413/413/413 408/408/408 403/403/403 412/412/412 
f 412/412/412 411/411/411 414/414/414 413/413/413 
f 413/413/413 414/414/414 206/206/206 205/205/205 
f 205/205/205 202/202/202 408/408/408 413/413/413 
f 367/367/367 366/366/366 401/401/401 415/415/415 
f 415/415/415 401/401/401 405/405/405 416/416/416 
f 416/416/416 417/417/417 418/418/418 415/415/415 
f 415/415/415 418/418/418 368/368/368 367/367/367 
f 377/377/377 368/368/368 418/418/418 419/419/419 
f 419/419/419 418/418/418 417/417/417 420/420/420 
f 420/420/420 421/421/421 422/422/422 419/419/419 
f 419/419/419 422/422/422 378/378/378 377/377/377 
f 416/416/416 405/405/405 407/407/407 423/423/423 
f 423/423/423 407/407/407 179/179/179 178/178/178 
f 178/178/178 177/177/177 424/424/424 423/423/423 
f 423/423/423 424/424/424 417/417/417 416/416/416 
f 420/420/420 417/417/417 424/424/424 425/425/425 
f 425/425/425 424/424/424 177/177/177 187/187/187 
f 187/187/187 186/186/186 426/426/426 425/425/425 
f 425/425/425 426/426/426 421/421/421 420/420/420 
f 427/427/427 428/428/428 429/429/429 430/430/430 
f 430/430/430 431/431/431 432/432/432 427/427/427 
f 427/427/427 432/432/432 433/433/433 434/434/434 
f 434/434/434 435/435/435 428/428/428 427/427/427 
f 436/436/436 437/437/437 435/435/435 434/434/434 
f 434/434/434 433/433/433 438/438/438 436/436/436 
f 436/436/436 438/438/438 380/380/380 379/379/379 
f 379/379/379 378/378/378 437/437/437 436/436/436 
f 439/439/439 432/432/432 431/431/431 440/440/440 
f 440/440/440 441/441/441 442/442/442 439/439/439 
f 439/439/439 442/442/442 443/443/443 444/444/444 
f 444/444/444 433/433/433 432/432/432 439/439/439 
f 445/445/445 438/438/438 433/433/433 444/444/444 
f 444/444/444 443/443/443 446/446/446 445/445/445 
f 315/315/315 383/383/383 445/445/445 446/446/446 
f 383/383/383 380/380/380 438/438/438 445/445/445 
f 447/447/447 429/429/429 428/428/428 448/448/448 
f 448/448/448 428/428/428 435/435/435 449/449/449 
f 449/449/449 450/450/450 451/451/451 448/448/448 
f 448/448/448 451/451/451 452/452/452 447/447/447 
f 453/453/453 452/452/452 451/451/451 454/454/454 
f 454/454/454 451/451/451 450/450/450 455/455/455 
f 455/455/455 288/288/288 287/287/287 454/454/454 
f 454/454/454 287/287/287 271/271/271 453/453/453 
f 449/449/449 435/435/435 437/437/437 456/456/456 
f 456/456/456 437/437/437 378/378/378 422/422/422 
f 422/422/422 421/421/421 457/457/457 456/456/456 
f 456/456/456 457/457/457 450/450/450 449/449/449 
f 455/455/455 450/450/450 457/457/457 458/458/458 
f 458/458/458 457/457/457 421/421/421 426/426/426 
f 426/426/426 186/186/186 291/291/291 458/458/458 
f 458/458/458 291/291/291 288/288/288 455/455/455 
f 459/459/459 460/460/460 429/429/429 447/447/447 
f 447/447/447 452/452/452 461/461/461 459/459/459 
f 459/459/459 461/461/461 462/462/462 463/463/463 
f 463/463/463 464/464/464 460/460/460 459/459/459 
f 465/465/465 466/466/466 464/464/464 463/463/463 
f 463/463/463 462/462/462 467/467/467 465/465/465 
f 465/465/465 467/467/467 468/468/468 469/469/469 
f 470/470/470 466/466/466 465/465/465 469/469/469 
f 471/471/471 461/461/461 452/452/452 453/453/453 
f 453/453/453 271/271/271 270/270/270 471/471/471 
f 471/471/471 270/270/270 269/269/269 472/472/472 
f 472/472/472 462/462/462 461/461/461 471/471/471 
f 473/473/473 467/467/467 462/462/462 472/472/472 
f 472/472/472 269/269/269 279/279/279 473/473/473 
f 473/473/473 279/279/279 278/278/278 474/474/474 
f 474/474/474 468/468/468 467/467/467 473/473/473 
f 430/430/430 429/429/429 460/460/460 475/475/475 
f 475/475/475 460/460/460 464/464/464 476/476/476 
f 476/476/476 477/477/477 478/478/478 475/475/475 
f 475/475/475 478/478/478 431/431/431 430/430/430 
f 440/440/440 431/431/431 478/478/478 479/479/479 
f 479/479/479 478/478/478 477/477/477 480/480/480 
f 481/481/481 482/482/482 479/479/479 480/480/480 
f 479/479/479 482/482/482 441/441/441 440/440/440 
f 476/476/476 464/464/464 466/466/466 483/483/483 
f 466/466/466 470/470/470 484/484/484 483/483/483 
f 483/483/483 484/484/484 485/485/485 486/486/486 
f 483/483/483 486/486/486 477/477/477 476/476/476 
f 480/480/480 477/477/477 486/486/486 487/487/487 
f 486/486/486 485/485/485 488/488/488 487/487/487 
f 487/487/487 488/488/488 489/489/489 490/490/490 
f 481/481/481 480/480/480 487/487/487 490/490/490 
f 491/491/491 492/492/492 493/493/493 494/494/494 
f 494/494/494 495/495/495 496/496/496 491/491/491 
f 491/491/491 496/496/496 497/497/497 498/498/498 
f 498/498/498 499/499/499 492/492/492 491/491/491 
f 500/500/500 501/501/501 499/499/499 498/498/498 
f 498/498/498 497/497/497 502/502/502 500/500/500 
f 500/500/500 502/502/502 443/443/443 442/442/442 
f 442/442/442 441/441/441 501/501/501 500/500/500 
f 503/503/503 496/496/496 495/495/495 504/504/504 
f 504/504/504 306/306/306 305/305/305 503/503/503 
f 503/503/503 305/305/305 304/304/304 505/505/505 
f 505/505/505 497/497/497 496/496/496 503/503/503 
f 506/506/506 502/502/502 497/497/497 505/505/505 
f 505/505/505 304/304/304 316/316/316 506/506/506 
f 315/315/315 446/446/446 506/506/506 316/316/316 
f 446/446/446 443/443/443 502/502/502 506/506/506 
f 507/507/507 493/493/493 492/492/492 508/508/508 
f 508/508/508 492/492/492 499/499/499 509/509/509 
f 509/509/509 510/510/510 511/511/511 508/508/508 
f 508/508/508 511/511/511 512/512/512 507/507/507 
f 513/513/513 512/512/512 511/511/511 514/514/514 
f 514/514/514 511/511/511 510/510/510 515/515/515 
f 515/515/515 516/516/516 517/517/517 514/514/514 
f 514/514/514 517/517/517 518/518/518 513/513/513 
f 509/509/509 499/499/499 501/501/501 519/519/519 
f 519/519/519 501/501/501 441/441/441 482/482/482 
f 482/482/482 481/481/481 520/520/520 519/519/519 
f 519/519/519 520/520/520 510/510/510 509/509/509 
f 515/515/515 510/510/510 520/520/520 521/521/521 
f 521/521/521 520/520/520 481/481/481 490/490/490 
f 490/490/490 489/489/489 522/522/522 521/521/521 
f 521/521/521 522/522/522 516/516/516 515/515/515 
f 523/523/523 524/524/524 493/493/493 507/507/507 
f 507/507/507 512/512/512 525/525/525 523/523/523 
f 523/523/523 525/525/525 526/526/526 527/527/527 
f 527/527/527 528/528/528 524/524/524 523/523/523 
f 529/529/529 530/530/530 528/528/528 527/527/527 
f 527/527/527 526/526/526 531/531/531 529/529/529 
f 529/529/529 531/531/531 125/125/125 124/124/124 
f 124/124/124 106/106/106 530/530/530 529/529/529 
f 532/532/532 525/525/525 512/512/512 513/513/513 
f 513/513/513 518/518/518 533/533/533 532/532/532 
f 532/532/532 533/533/533 534/534/534 535/535/535 
f 535/535/535 526/526/526 525/525/525 532/532/532 
f 536/536/536 531/531/531 526/526/526 535/535/535 
f 535/535/535 534/534/534 537/537/537 536/536/536 
f 536/536/536 537/537/537 129/129/129 128/128/128 
f 128/128/128 125/125/125 531/531/531 536/536/536 
f 494/494/494 493/493/493 524/524/524 538/538/538 
f 538/538/538 524/524/524 528/528/528 539/539/539 
f 539/539/539 540/540/540 541/541/541 538/538/538 
f 538/538/538 541/541/541 495/495/495 494/494/494 
f 504/504/504 495/495/495 541/541/541 542/542/542 
f 542/542/542 541/541/541 540/540/540 543/543/543 
f 543/543/543 328/328/328 327/327/327 542/542/542 
f 542/542/542 327/327/327 306/306/306 504/504/504 
f 539/539/539 528/528/528 530/530/530 544/544/544 
f 544/544/544 530/530/530 106/106/106 105/105/105 
f 105/105/105 104/104/104 545/545/545 544/544/544 
f 544/544/544 545/545/545 540/540/540 539/539/539 
f 543/543/543 540/540/540 545/545/545 546/546/546 
f 546/546/546 545/545/545 104/104/104 110/110/110 
f 110/110/110 73/73/73 331/331/331 546/546/546 
f 546/546/546 331/331/331 328/328/328 543/543/543 
f 547/547/547 548/548/548 549/549/549 550/550/550 
f 550/550/550 551/551/551 552/552/552 547/547/547 
f 547/547/547 552/552/552 553/553/553 554/554/554 
f 554/554/554 555/555/555 548/548/548 547/547/547 
f 556/556/556 557/557/557 555/555/555 554/554/554 
f 554/554/554 553/553/553 558/558/558 556/556/556 
f 556/556/556 558/558/558 559/559/559 560/560/560 
f 560/560/560 561/561/561 557/557/557 556/556/556 
f 562/562/562 552/552/552 551/551/551 563/563/563 
f 564/564/564 565/565/565 562/562/562 563/563/563 
f 566/566/566 567/567/567 562/562/562 565/565/565 
f 567/567/567 553/553/553 552/552/552 562/562/562 
f 568/568/568 558/558/558 553/553/553 567/567/567 
f 566/566/566 569/569/569 568/568/568 567/567/567 
f 570/570/570 571/571/571 568/568/568 569/569/569 
f 559/559/559 558/558/558 568/568/568 571/571/571 
f 572/572/572 549/549/549 548/548/548 573/573/573 
f 573/573/573 548/548/548 555/555/555 574/574/574 
f 574/574/574 575/575/575 576/576/576 573/573/573 
f 573/573/573 576/576/576 577/577/577 572/572/572 
f 578/578/578 577/577/577 576/576/576 579/579/579 
f 579/579/579 576/576/576 575/575/575 580/580/580 
f 580/580/580 141/141/141 140/140/140 579/579/579 
f 579/579/579 140/140/140 122/122/122 578/578/578 
f 574/574/574 555/555/555 557/557/557 581/581/581 
f 581/581/581 557/557/557 561/561/561 582/582/582 
f 582/582/582 583/583/583 584/584/584 581/581/581 
f 581/581/581 584/584/584 575/575/575 574/574/574 
f 580/580/580 575/575/575 584/584/584 585/585/585 
f 585/585/585 584/584/584 583/583/583 586/586/586 
f 586/586/586 145/145/145 144/144/144 585/585/585 
f 585/585/585 144/144/144 141/141/141 580/580/580 
f 587/587/587 588/588/588 549/549/549 572/572/572 
f 572/572/572 577/577/577 589/589/589 587/587/587 
f 587/587/587 589/589/589 590/590/590 591/591/591 
f 591/591/591 592/592/592 588/588/588 587/587/587 
f 593/593/593 594/594/594 592/592/592 591/591/591 
f 591/591/591 590/590/590 595/595/595 593/593/593 
f 593/593/593 595/595/595 534/534/534 533/533/533 
f 533/533/533 518/518/518 594/594/594 593/593/593 
f 596/596/596 589/589/589 577/577/577 578/578/578 
f 578/578/578 122/122/122 121/121/121 596/596/596 
f 596/596/596 121/121/121 120/120/120 597/597/597 
f 597/597/597 590/590/590 589/589/589 596/596/596 
f 598/598/598 595/595/595 590/590/590 597/597/597 
f 597/597/597 120/120/120 130/130/130 598/598/598 
f 598/598/598 130/130/130 129/129/129 537/537/537 
f 537/537/537 534/534/534 595/595/595 598/598/598 
f 550/550/550 549/549/549 588/588/588 599/599/599 
f 599/599/599 588/588/588 592/592/592 600/600/600 
f 600/600/600 601/601/601 602/602/602 599/599/599 
f 599/599/599 602/602/602 551/551/551 550/550/550 
f 563/563/563 551/551/551 602/602/602 603/603/603 
f 603/603/603 602/602/602 601/601/601 604/604/604 
f 605/605/605 606/606/606 603/603/603 604/604/604 
f 564/564/564 563/563/563 603/603/603 606/606/606 
f 600/600/600 592/592/592 594/594/594 607/607/607 
f 607/607/607 594/594/594 518/518/518 517/517/517 
f 517/517/517 516/516/516 608/608/608 607/607/607 
f 607/607/607 608/608/608 601/601/601 600/600/600 
f 604/604/604 601/601/601 608/608/608 609/609/609 
f 516/516/516 522/522/522 609/609/609 608/608/608 
f 609/609/609 522/522/522 489/489/489 610/610/610 
f 610/610/610 605/605/605 604/604/604 609/609/609 
f 611/611/611 612/612/612 613/613/613 614/614/614 
f 614/614/614 615/615/615 616/616/616 611/611/611 
f 611/611/611 616/616/616 617/617/617 618/618/618 
f 618/618/618 619/619/619 612/612/612 611/611/611 
f 620/620/620 621/621/621 619/619/619 618/618/618 
f 618/618/618 617/617/617 622/622/622 620/620/620 
f 620/620/620 622/622/622 566/566/566 565/565/565 
f 565/565/565 564/564/564 621/621/621 620/620/620 
f 623/623/623 616/616/616 615/615/615 624/624/624 
f 624/624/624 625/625/625 626/626/626 623/623/623 
f 623/623/623 626/626/626 627/627/627 628/628/628 
f 628/628/628 617/617/617 616/616/616 623/623/623 
f 629/629/629 622/622/622 617/617/617 628/628/628 
f 628/628/628 627/627/627 630/630/630 629/629/629 
f 629/629/629 630/630/630 570/570/570 569/569/569 
f 569/569/569 566/566/566 622/622/622 629/629/629 
f 631/631/631 613/613/613 612/612/612 632/632/632 
f 632/632/632 612/612/612 619/619/619 633/633/633 
f 633/633/633 634/634/634 635/635/635 632/632/632 
f 632/632/632 635/635/635 636/636/636 631/631/631 
f 637/637/637 636/636/636 635/635/635 638/638/638 
f 638/638/638 635/635/635 634/634/634 639/639/639 
f 639/639/639 485/485/485 484/484/484 638/638/638 
f 638/638/638 484/484/484 470/470/470 637/637/637 
f 633/633/633 619/619/619 621/621/621 640/640/640 
f 640/640/640 621/621/621 564/564/564 606/606/606 
f 606/606/606 605/605/605 641/641/641 640/640/640 
f 640/640/640 641/641/641 634/634/634 633/633/633 
f 639/639/639 634/634/634 641/641/641 642/642/642 
f 642/642/642 641/641/641 605/605/605 610/610/610 
f 610/610/610 489/489/489 488/488/488 642/642/642 
f 642/642/642 488/488/488 485/485/485 639/639/639 
f 643/643/643 644/644/644 613/613/613 631/631/631 
f 631/631/631 636/636/636 645/645/645 643/643/643 
f 643/643/643 645/645/645 646/646/646 647/647/647 
f 647/647/647 648/648/648 644/644/644 643/643/643 
f 649/649/649 650/650/650 648/648/648 647/647/647 
f 647/647/647 646/646/646 651/651/651 649/649/649 
f 649/649/649 651/651/651 274/274/274 273/273/273 
f 273/273/273 251/251/251 650/650/650 649/649/649 
f 652/652/652 645/645/645 636/636/636 637/637/637 
f 637/637/637 470/470/470 469/469/469 652/652/652 
f 652/652/652 469/469/469 468/468/468 653/653/653 
f 653/653/653 646/646/646 645/645/645 652/652/652 
f 654/654/654 651/651/651 646/646/646 653/653/653 
f 653/653/653 468/468/468 474/474/474 654/654/654 
f 654/654/654 474/474/474 278/278/278 277/277/277 
f 277/277/277 274/274/274 651/651/651 654/654/654 
f 614/614/614 613/613/613 644/644/644 655/655/655 
f 655/655/655 644/644/644 648/648/648 656/656/656 
f 656/656/656 657/657/657 658/658/658 655/655/655 
f 655/655/655 658/658/658 615/615/615 614/614/614 
f 624/624/624 615/615/615 658/658/658 659/659/659 
f 659/659/659 658/658/658 657/657/657 660/660/660 
f 660/660/660 661/661/661 662/662/662 659/659/659 
f 659/659/659 662/662/662 625/625/625 624/624/624 
f 656/656/656 648/648/648 650/650/650 663/663/663 
f 663/663/663 650/650/650 251/251/251 250/250/250 
f 250/250/250 249/249/249 664/664/664 663/663/663 
f 663/663/663 664/664/664 657/657/657 656/656/656 
f 660/660/660 657/657/657 664/664/664 665/665/665 
f 665/665/665 664/664/664 249/249/249 259/259/259 
f 259/259/259 258/258/258 666/666/666 665/665/665 
f 665/665/665 666/666/666 661/661/661 660/660/660 
f 667/667/667 668/668/668 669/669/669 670/670/670 
f 670/670/670 671/671/671 672/672/672 667/667/667 
f 667/667/667 672/672/672 673/673/673 674/674/674 
f 674/674/674 675/675/675 668/668/668 667/667/667 
f 676/676/676 677/677/677 675/675/675 674/674/674 
f 674/674/674 673/673/673 678/678/678 676/676/676 
f 679/679/679 672/672/672 671/671/671 680/680/680 
f 680/680/680 681/681/681 682/682/682 679/679/679 
f 679/679/679 682/682/682 683/683/683 684/684/684 
f 684/684/684 673/673/673 672/672/672 679/679/679 
f 685/685/685 678/678/678 673/673/673 684/684/684 
f 684/684/684 683/683/683 686/686/686 685/685/685 
f 687/687/687 669/669/669 668/668/668 688/688/688 
f 688/688/688 668/668/668 675/675/675 689/689/689 
f 689/689/689 690/690/690 691/691/691 688/688/688 
f 688/688/688 691/691/691 692/692/692 687/687/687 
f 693/693/693 692/692/692 691/691/691 694/694/694 
f 694/694/694 691/691/691 690/690/690 695/695/695 
f 695/695/695 216/216/216 215/215/215 694/694/694 
f 694/694/694 215/215/215 199/199/199 693/693/693 
f 689/689/689 675/675/675 677/677/677 696/696/696 
f 696/696/696 697/697/697 690/690/690 689/689/689 
f 695/695/695 690/690/690 697/697/697 698/698/698 
f 698/698/698 219/219/219 216/216/216 695/695/695 
f 699/699/699 700/700/700 669/669/669 687/687/687 
f 687/687/687 692/692/692 701/701/701 699/699/699 
f 699/699/699 701/701/701 702/702/702 703/703/703 
f 703/703/703 704/704/704 700/700/700 699/699/699 
f 705/705/705 706/706/706 704/704/704 703/703/703 
f 703/703/703 702/702/702 707/707/707 705/705/705 
f 705/705/705 707/707/707 411/411/411 410/410/410 
f 410/410/410 395/395/395 706/706/706 705/705/705 
f 708/708/708 701/701/701 692/692/692 693/693/693 
f 693/693/693 199/199/199 198/198/198 708/708/708 
f 708/708/708 198/198/198 197/197/197 709/709/709 
f 709/709/709 702/702/702 701/701/701 708/708/708 
f 710/710/710 707/707/707 702/702/702 709/709/709 
f 709/709/709 197/197/197 207/207/207 710/710/710 
f 710/710/710 207/207/207 206/206/206 414/414/414 
f 414/414/414 411/411/411 707/707/707 710/710/710 
f 670/670/670 669/669/669 700/700/700 711/711/711 
f 711/711/711 700/700/700 704/704/704 712/712/712 
f 712/712/712 713/713/713 714/714/714 711/711/711 
f 711/711/711 714/714/714 671/671/671 670/670/670 
f 680/680/680 671/671/671 714/714/714 715/715/715 
f 715/715/715 714/714/714 713/713/713 716/716/716 
f 716/716/716 717/717/717 718/718/718 715/715/715 
f 715/715/715 718/718/718 681/681/681 680/680/680 
f 712/712/712 704/704/704 706/706/706 719/719/719 
f 719/719/719 706/706/706 395/395/395 394/394/394 
f 394/394/394 393/393/393 720/720/720 719/719/719 
f 719/719/719 720/720/720 713/713/713 712/712/712 
f 716/716/716 713/713/713 720/720/720 721/721/721 
f 721/721/721 720/720/720 393/393/393 399/399/399 
f 399/399/399 362/362/362 722/722/722 721/721/721 
f 721/721/721 722/722/722 717/717/717 716/716/716 
f 723/723/723 724/724/724 725/725/725 726/726/726 
f 726/726/726 727/727/727 728/728/728 723/723/723 
f 723/723/723 728/728/728 729/729/729 730/730/730 
f 730/730/730 731/731/731 724/724/724 723/723/723 
f 732/732/732 733/733/733 731/731/731 730/730/730 
f 730/730/730 729/729/729 734/734/734 732/732/732 
f 683/683/683 682/682/682 732/732/732 734/734/734 
f 681/681/681 733/733/733 732/732/732 682/682/682 
f 735/735/735 728/728/728 727/727/727 736/736/736 
f 737/737/737 729/729/729 728/728/728 735/735/735 
f 738/738/738 734/734/734 729/729/729 737/737/737 
f 683/683/683 734/734/734 738/738/738 686/686/686 
f 739/739/739 725/725/725 724/724/724 740/740/740 
f 740/740/740 724/724/724 731/731/731 741/741/741 
f 741/741/741 742/742/742 743/743/743 740/740/740 
f 740/740/740 743/743/743 744/744/744 739/739/739 
f 745/745/745 744/744/744 743/743/743 746/746/746 
f 746/746/746 743/743/743 742/742/742 747/747/747 
f 747/747/747 358/358/358 357/357/357 746/746/746 
f 746/746/746 357/357/357 343/343/343 745/745/745 
f 741/741/741 731/731/731 733/733/733 748/748/748 
f 681/681/681 718/718/718 748/748/748 733/733/733 
f 717/717/717 749/749/749 748/748/748 718/718/718 
f 748/748/748 749/749/749 742/742/742 741/741/741 
f 747/747/747 742/742/742 749/749/749 750/750/750 
f 749/749/749 717/717/717 722/722/722 750/750/750 
f 750/750/750 722/722/722 362/362/362 361/361/361 
f 358/358/358 747/747/747 750/750/750 361/361/361 
f 751/751/751 752/752/752 725/725/725 739/739/739 
f 739/739/739 744/744/744 753/753/753 751/751/751 
f 751/751/751 753/753/753 754/754/754 755/755/755 
f 755/755/755 756/756/756 752/752/752 751/751/751 
f 757/757/757 758/758/758 756/756/756 755/755/755 
f 755/755/755 754/754/754 759/759/759 757/757/757 
f 757/757/757 759/759/759 53/53/53 52/52/52 
f 52/52/52 34/34/34 758/758/758 757/757/757 
f 760/760/760 753/753/753 744/744/744 745/745/745 
f 745/745/745 343/343/343 342/342/342 760/760/760 
f 760/760/760 342/342/342 341/341/341 761/761/761 
f 761/761/761 754/754/754 753/753/753 760/760/760 
f 762/762/762 759/759/759 754/754/754 761/761/761 
f 761/761/761 341/341/341 347/347/347 762/762/762 
f 762/762/762 347/347/347 57/57/57 56/56/56 
f 56/56/56 53/53/53 759/759/759 762/762/762 
f 726/726/726 725/725/725 752/752/752 763/763/763 
f 763/763/763 752/752/752 756/756/756 764/764/764 
f 764/764/764 765/765/765 766/766/766 763/763/763 
f 763/763/763 766/766/766 727/727/727 726/726/726 
f 736/736/736 727/727/727 766/766/766 767/767/767 
f 767/767/767 766/766/766 765/765/765 768/768/768 
f 764/764/764 756/756/756 758/758/758 769/769/769 
f 769/769/769 758/758/758 34/34/34 33/33/33 
f 33/33/33 32/32/32 770/770/770 769/769/769 
f 769/769/769 770/770/770 765/765/765 764/764/764 
f 768/768/768 765/765/765 770/770/770 771/771/771 
f 771/771/771 770/770/770 32/32/32 38/38/38 
# 737 polygons - 2 triangles

