# 3ds Max Wavefront OBJ Exporter v0.99 - (c)2007 guruware
# File Created: 20.04.2025 14:10:41

mtllib piso.mtl

#
# object Superficie
#

v  224.1542 0.0000 260.2436
v  190.9463 0.0000 260.2436
v  190.9463 0.0000 216.4245
v  224.1542 0.0000 216.4245
v  190.9463 0.0000 172.6055
v  224.1542 0.0000 172.6055
v  190.9463 0.0000 128.7864
v  224.1542 0.0000 128.7864
v  190.9463 0.0000 84.9673
v  224.1542 0.0000 84.9673
v  190.9463 0.0000 41.1483
v  224.1542 0.0000 41.1483
v  190.9463 0.0000 -2.6708
v  224.1542 0.0000 -2.6708
v  190.9463 0.0000 -46.4898
v  224.1542 0.0000 -46.4898
v  190.9463 0.0000 -90.3089
v  224.1542 0.0000 -90.3089
v  190.9463 0.0000 -134.1279
v  224.1542 0.0000 -134.1279
v  190.9463 0.0000 -177.9470
v  224.1542 0.0000 -177.9470
v  157.7384 0.0000 260.2436
v  157.7384 0.0000 216.4245
v  157.7384 0.0000 172.6055
v  157.7384 0.0000 128.7864
v  157.7384 0.0000 84.9673
v  157.7384 0.0000 41.1483
v  157.7384 0.0000 -2.6708
v  157.7384 0.0000 -46.4898
v  157.7384 0.0000 -90.3089
v  157.7384 0.0000 -134.1279
v  157.7384 0.0000 -177.9470
v  124.5305 0.0000 260.2436
v  124.5305 0.0000 216.4245
v  124.5305 0.0000 172.6055
v  124.5305 0.0000 128.7864
v  124.5305 0.0000 84.9673
v  124.5305 0.0000 41.1483
v  124.5305 0.0000 -2.6708
v  124.5305 0.0000 -46.4898
v  124.5305 0.0000 -90.3089
v  124.5305 0.0000 -134.1279
v  124.5305 0.0000 -177.9470
v  91.3227 0.0000 260.2436
v  91.3227 0.0000 216.4245
v  91.3227 0.0000 172.6055
v  91.3227 0.0000 128.7864
v  91.3227 0.0000 84.9674
v  91.3227 0.0000 41.1483
v  91.3227 0.0000 -2.6708
v  91.3227 0.0000 -46.4898
v  91.3227 0.0000 -90.3089
v  91.3227 0.0000 -134.1279
v  91.3227 0.0000 -177.9470
v  58.1148 0.0000 260.2436
v  58.1148 0.0000 216.4245
v  58.1148 0.0000 172.6055
v  58.1148 0.0000 128.7864
v  58.1148 0.0000 84.9674
v  58.1148 0.0000 41.1483
v  58.1148 0.0000 -2.6708
v  58.1148 0.0000 -46.4898
v  58.1148 0.0000 -90.3089
v  58.1148 0.0000 -134.1279
v  58.1148 0.0000 -177.9470
v  24.9069 0.0000 260.2436
v  24.9069 0.0000 216.4245
v  24.9069 0.0000 172.6055
v  24.9069 0.0000 128.7864
v  24.9069 0.0000 84.9674
v  24.9069 0.0000 41.1483
v  24.9069 0.0000 -2.6708
v  24.9069 0.0000 -46.4898
v  24.9069 0.0000 -90.3089
v  24.9069 0.0000 -134.1279
v  24.9069 0.0000 -177.9470
v  -8.3009 0.0000 260.2436
v  -8.3009 0.0000 216.4245
v  -8.3009 0.0000 172.6055
v  -8.3009 0.0000 128.7864
v  -8.3009 0.0000 84.9674
v  -8.3009 0.0000 41.1483
v  -8.3009 0.0000 -2.6707
v  -8.3010 0.0000 -46.4898
v  -8.3010 0.0000 -90.3089
v  -8.3010 0.0000 -134.1279
v  -8.3010 0.0000 -177.9470
v  -41.5088 0.0000 260.2436
v  -41.5088 0.0000 216.4245
v  -41.5088 0.0000 172.6055
v  -41.5088 0.0000 128.7864
v  -41.5088 0.0000 84.9674
v  -41.5088 0.0000 41.1483
v  -41.5088 0.0000 -2.6707
v  -41.5088 0.0000 -46.4898
v  -41.5088 0.0000 -90.3089
v  -41.5088 0.0000 -134.1279
v  -41.5088 0.0000 -177.9470
v  -74.7167 0.0000 260.2436
v  -74.7167 0.0000 216.4245
v  -74.7167 0.0000 172.6055
v  -74.7167 0.0000 128.7864
v  -74.7167 0.0000 84.9674
v  -74.7167 0.0000 41.1483
v  -74.7167 0.0000 -2.6707
v  -74.7167 0.0000 -46.4898
v  -74.7167 0.0000 -90.3089
v  -74.7167 0.0000 -134.1279
v  -74.7167 0.0000 -177.9470
v  -107.9245 0.0000 260.2436
v  -107.9245 0.0000 216.4245
v  -107.9246 0.0000 172.6055
v  -107.9246 0.0000 128.7864
v  -107.9246 0.0000 84.9674
v  -107.9246 0.0000 41.1483
v  -107.9246 0.0000 -2.6707
v  -107.9246 0.0000 -46.4898
v  -107.9246 0.0000 -90.3089
v  -107.9246 0.0000 -134.1279
v  -107.9246 0.0000 -177.9470
v  224.1542 2.0000 260.2436
v  224.1542 2.0000 216.4245
v  190.9463 2.0000 216.4245
v  190.9463 2.0000 260.2436
v  224.1542 2.0000 172.6055
v  190.9463 2.0000 172.6055
v  224.1542 2.0000 128.7864
v  190.9463 2.0000 128.7864
v  224.1542 2.0000 84.9673
v  190.9463 2.0000 84.9673
v  224.1542 2.0000 41.1483
v  190.9463 2.0000 41.1483
v  224.1542 2.0000 -2.6708
v  190.9463 2.0000 -2.6708
v  224.1542 2.0000 -46.4898
v  190.9463 2.0000 -46.4898
v  224.1542 2.0000 -90.3089
v  190.9463 2.0000 -90.3089
v  224.1542 2.0000 -134.1279
v  190.9463 2.0000 -134.1279
v  224.1542 2.0000 -177.9470
v  190.9463 2.0000 -177.9470
v  157.7384 2.0000 216.4245
v  157.7384 2.0000 260.2436
v  157.7384 2.0000 172.6055
v  157.7384 2.0000 128.7864
v  157.7384 2.0000 84.9673
v  157.7384 2.0000 41.1483
v  157.7384 2.0000 -2.6708
v  157.7384 2.0000 -46.4898
v  157.7384 2.0000 -90.3089
v  157.7384 2.0000 -134.1279
v  157.7384 2.0000 -177.9470
v  124.5305 2.0000 216.4245
v  124.5305 2.0000 260.2436
v  124.5305 2.0000 172.6055
v  124.5305 2.0000 128.7864
v  124.5305 2.0000 84.9673
v  124.5305 2.0000 41.1483
v  124.5305 2.0000 -2.6708
v  124.5305 2.0000 -46.4898
v  124.5305 2.0000 -90.3089
v  124.5305 2.0000 -134.1279
v  124.5305 2.0000 -177.9470
v  91.3227 2.0000 216.4245
v  91.3227 2.0000 260.2436
v  91.3227 2.0000 172.6055
v  91.3227 2.0000 128.7864
v  91.3227 2.0000 84.9674
v  91.3227 2.0000 41.1483
v  91.3227 2.0000 -2.6708
v  91.3227 2.0000 -46.4898
v  91.3227 2.0000 -90.3089
v  91.3227 2.0000 -134.1279
v  91.3227 2.0000 -177.9470
v  58.1148 2.0000 216.4245
v  58.1148 2.0000 260.2436
v  58.1148 2.0000 172.6055
v  58.1148 2.0000 128.7864
v  58.1148 2.0000 84.9674
v  58.1148 2.0000 41.1483
v  58.1148 2.0000 -2.6708
v  58.1148 2.0000 -46.4898
v  58.1148 2.0000 -90.3089
v  58.1148 2.0000 -134.1279
v  58.1148 2.0000 -177.9470
v  24.9069 2.0000 216.4245
v  24.9069 2.0000 260.2436
v  24.9069 2.0000 172.6055
v  24.9069 2.0000 128.7864
v  24.9069 2.0000 84.9674
v  24.9069 2.0000 41.1483
v  24.9069 2.0000 -2.6708
v  24.9069 2.0000 -46.4898
v  24.9069 2.0000 -90.3089
v  24.9069 2.0000 -134.1279
v  24.9069 2.0000 -177.9470
v  -8.3009 2.0000 216.4245
v  -8.3009 2.0000 260.2436
v  -8.3009 2.0000 172.6055
v  -8.3009 2.0000 128.7864
v  -8.3009 2.0000 84.9674
v  -8.3009 2.0000 41.1483
v  -8.3009 2.0000 -2.6707
v  -8.3010 2.0000 -46.4898
v  -8.3010 2.0000 -90.3089
v  -8.3010 2.0000 -134.1279
v  -8.3010 2.0000 -177.9470
v  -41.5088 2.0000 216.4245
v  -41.5088 2.0000 260.2436
v  -41.5088 2.0000 172.6055
v  -41.5088 2.0000 128.7864
v  -41.5088 2.0000 84.9674
v  -41.5088 2.0000 41.1483
v  -41.5088 2.0000 -2.6707
v  -41.5088 2.0000 -46.4898
v  -41.5088 2.0000 -90.3089
v  -41.5088 2.0000 -134.1279
v  -41.5088 2.0000 -177.9470
v  -74.7167 2.0000 216.4245
v  -74.7167 2.0000 260.2436
v  -74.7167 2.0000 172.6055
v  -74.7167 2.0000 128.7864
v  -74.7167 2.0000 84.9674
v  -74.7167 2.0000 41.1483
v  -74.7167 2.0000 -2.6707
v  -74.7167 2.0000 -46.4898
v  -74.7167 2.0000 -90.3089
v  -74.7167 2.0000 -134.1279
v  -74.7167 2.0000 -177.9470
v  -107.9245 2.0000 216.4245
v  -107.9245 2.0000 260.2436
v  -107.9246 2.0000 172.6055
v  -107.9246 2.0000 128.7864
v  -107.9246 2.0000 84.9674
v  -107.9246 2.0000 41.1483
v  -107.9246 2.0000 -2.6707
v  -107.9246 2.0000 -46.4898
v  -107.9246 2.0000 -90.3089
v  -107.9246 2.0000 -134.1279
v  -107.9246 2.0000 -177.9470
v  224.1542 0.2000 216.4245
v  224.1542 0.2000 260.2436
v  224.1542 0.2000 172.6055
v  224.1542 0.2000 128.7864
v  224.1542 0.2000 84.9673
v  224.1542 0.2000 41.1483
v  224.1542 0.2000 -2.6708
v  224.1542 0.2000 -46.4898
v  224.1542 0.2000 -90.3089
v  224.1542 0.2000 -134.1279
v  224.1542 0.2000 -177.9470
v  224.1542 0.4000 216.4245
v  224.1542 0.4000 260.2436
v  224.1542 0.4000 172.6055
v  224.1542 0.4000 128.7864
v  224.1542 0.4000 84.9673
v  224.1542 0.4000 41.1483
v  224.1542 0.4000 -2.6708
v  224.1542 0.4000 -46.4898
v  224.1542 0.4000 -90.3089
v  224.1542 0.4000 -134.1279
v  224.1542 0.4000 -177.9470
v  224.1542 0.6000 216.4245
v  224.1542 0.6000 260.2436
v  224.1542 0.6000 172.6055
v  224.1542 0.6000 128.7864
v  224.1542 0.6000 84.9673
v  224.1542 0.6000 41.1483
v  224.1542 0.6000 -2.6708
v  224.1542 0.6000 -46.4898
v  224.1542 0.6000 -90.3089
v  224.1542 0.6000 -134.1279
v  224.1542 0.6000 -177.9470
v  224.1542 0.8000 216.4245
v  224.1542 0.8000 260.2436
v  224.1542 0.8000 172.6055
v  224.1542 0.8000 128.7864
v  224.1542 0.8000 84.9673
v  224.1542 0.8000 41.1483
v  224.1542 0.8000 -2.6708
v  224.1542 0.8000 -46.4898
v  224.1542 0.8000 -90.3089
v  224.1542 0.8000 -134.1279
v  224.1542 0.8000 -177.9470
v  224.1542 1.0000 216.4245
v  224.1542 1.0000 260.2436
v  224.1542 1.0000 172.6055
v  224.1542 1.0000 128.7864
v  224.1542 1.0000 84.9673
v  224.1542 1.0000 41.1483
v  224.1542 1.0000 -2.6708
v  224.1542 1.0000 -46.4898
v  224.1542 1.0000 -90.3089
v  224.1542 1.0000 -134.1279
v  224.1542 1.0000 -177.9470
v  224.1542 1.2000 216.4245
v  224.1542 1.2000 260.2436
v  224.1542 1.2000 172.6055
v  224.1542 1.2000 128.7864
v  224.1542 1.2000 84.9673
v  224.1542 1.2000 41.1483
v  224.1542 1.2000 -2.6708
v  224.1542 1.2000 -46.4898
v  224.1542 1.2000 -90.3089
v  224.1542 1.2000 -134.1279
v  224.1542 1.2000 -177.9470
v  224.1542 1.4000 216.4245
v  224.1542 1.4000 260.2436
v  224.1542 1.4000 172.6055
v  224.1542 1.4000 128.7864
v  224.1542 1.4000 84.9673
v  224.1542 1.4000 41.1483
v  224.1542 1.4000 -2.6708
v  224.1542 1.4000 -46.4898
v  224.1542 1.4000 -90.3089
v  224.1542 1.4000 -134.1279
v  224.1542 1.4000 -177.9470
v  224.1542 1.6000 216.4245
v  224.1542 1.6000 260.2436
v  224.1542 1.6000 172.6055
v  224.1542 1.6000 128.7864
v  224.1542 1.6000 84.9673
v  224.1542 1.6000 41.1483
v  224.1542 1.6000 -2.6708
v  224.1542 1.6000 -46.4898
v  224.1542 1.6000 -90.3089
v  224.1542 1.6000 -134.1279
v  224.1542 1.6000 -177.9470
v  224.1542 1.8000 216.4245
v  224.1542 1.8000 260.2436
v  224.1542 1.8000 172.6055
v  224.1542 1.8000 128.7864
v  224.1542 1.8000 84.9673
v  224.1542 1.8000 41.1483
v  224.1542 1.8000 -2.6708
v  224.1542 1.8000 -46.4898
v  224.1542 1.8000 -90.3089
v  224.1542 1.8000 -134.1279
v  224.1542 1.8000 -177.9470
v  190.9463 0.2000 -177.9470
v  157.7384 0.2000 -177.9470
v  124.5305 0.2000 -177.9470
v  91.3227 0.2000 -177.9470
v  58.1148 0.2000 -177.9470
v  24.9069 0.2000 -177.9470
v  -8.3010 0.2000 -177.9470
v  -41.5088 0.2000 -177.9470
v  -74.7167 0.2000 -177.9470
v  -107.9246 0.2000 -177.9470
v  190.9463 0.4000 -177.9470
v  157.7384 0.4000 -177.9470
v  124.5305 0.4000 -177.9470
v  91.3227 0.4000 -177.9470
v  58.1148 0.4000 -177.9470
v  24.9069 0.4000 -177.9470
v  -8.3010 0.4000 -177.9470
v  -41.5088 0.4000 -177.9470
v  -74.7167 0.4000 -177.9470
v  -107.9246 0.4000 -177.9470
v  190.9463 0.6000 -177.9470
v  157.7384 0.6000 -177.9470
v  124.5305 0.6000 -177.9470
v  91.3227 0.6000 -177.9470
v  58.1148 0.6000 -177.9470
v  24.9069 0.6000 -177.9470
v  -8.3010 0.6000 -177.9470
v  -41.5088 0.6000 -177.9470
v  -74.7167 0.6000 -177.9470
v  -107.9246 0.6000 -177.9470
v  190.9463 0.8000 -177.9470
v  157.7384 0.8000 -177.9470
v  124.5305 0.8000 -177.9470
v  91.3227 0.8000 -177.9470
v  58.1148 0.8000 -177.9470
v  24.9069 0.8000 -177.9470
v  -8.3010 0.8000 -177.9470
v  -41.5088 0.8000 -177.9470
v  -74.7167 0.8000 -177.9470
v  -107.9246 0.8000 -177.9470
v  190.9463 1.0000 -177.9470
v  157.7384 1.0000 -177.9470
v  124.5305 1.0000 -177.9470
v  91.3227 1.0000 -177.9470
v  58.1148 1.0000 -177.9470
v  24.9069 1.0000 -177.9470
v  -8.3010 1.0000 -177.9470
v  -41.5088 1.0000 -177.9470
v  -74.7167 1.0000 -177.9470
v  -107.9246 1.0000 -177.9470
v  190.9463 1.2000 -177.9470
v  157.7384 1.2000 -177.9470
v  124.5305 1.2000 -177.9470
v  91.3227 1.2000 -177.9470
v  58.1148 1.2000 -177.9470
v  24.9069 1.2000 -177.9470
v  -8.3010 1.2000 -177.9470
v  -41.5088 1.2000 -177.9470
v  -74.7167 1.2000 -177.9470
v  -107.9246 1.2000 -177.9470
v  190.9463 1.4000 -177.9470
v  157.7384 1.4000 -177.9470
v  124.5305 1.4000 -177.9470
v  91.3227 1.4000 -177.9470
v  58.1148 1.4000 -177.9470
v  24.9069 1.4000 -177.9470
v  -8.3010 1.4000 -177.9470
v  -41.5088 1.4000 -177.9470
v  -74.7167 1.4000 -177.9470
v  -107.9246 1.4000 -177.9470
v  190.9463 1.6000 -177.9470
v  157.7384 1.6000 -177.9470
v  124.5305 1.6000 -177.9470
v  91.3227 1.6000 -177.9470
v  58.1148 1.6000 -177.9470
v  24.9069 1.6000 -177.9470
v  -8.3010 1.6000 -177.9470
v  -41.5088 1.6000 -177.9470
v  -74.7167 1.6000 -177.9470
v  -107.9246 1.6000 -177.9470
v  190.9463 1.8000 -177.9470
v  157.7384 1.8000 -177.9470
v  124.5305 1.8000 -177.9470
v  91.3227 1.8000 -177.9470
v  58.1148 1.8000 -177.9470
v  24.9069 1.8000 -177.9470
v  -8.3010 1.8000 -177.9470
v  -41.5088 1.8000 -177.9470
v  -74.7167 1.8000 -177.9470
v  -107.9246 1.8000 -177.9470
v  -107.9246 0.2000 -134.1279
v  -107.9246 0.2000 -90.3089
v  -107.9246 0.2000 -46.4898
v  -107.9246 0.2000 -2.6707
v  -107.9246 0.2000 41.1483
v  -107.9246 0.2000 84.9674
v  -107.9246 0.2000 128.7864
v  -107.9246 0.2000 172.6055
v  -107.9245 0.2000 216.4245
v  -107.9245 0.2000 260.2436
v  -107.9246 0.4000 -134.1279
v  -107.9246 0.4000 -90.3089
v  -107.9246 0.4000 -46.4898
v  -107.9246 0.4000 -2.6707
v  -107.9246 0.4000 41.1483
v  -107.9246 0.4000 84.9674
v  -107.9246 0.4000 128.7864
v  -107.9246 0.4000 172.6055
v  -107.9245 0.4000 216.4245
v  -107.9245 0.4000 260.2436
v  -107.9246 0.6000 -134.1279
v  -107.9246 0.6000 -90.3089
v  -107.9246 0.6000 -46.4898
v  -107.9246 0.6000 -2.6707
v  -107.9246 0.6000 41.1483
v  -107.9246 0.6000 84.9674
v  -107.9246 0.6000 128.7864
v  -107.9246 0.6000 172.6055
v  -107.9245 0.6000 216.4245
v  -107.9245 0.6000 260.2436
v  -107.9246 0.8000 -134.1279
v  -107.9246 0.8000 -90.3089
v  -107.9246 0.8000 -46.4898
v  -107.9246 0.8000 -2.6707
v  -107.9246 0.8000 41.1483
v  -107.9246 0.8000 84.9674
v  -107.9246 0.8000 128.7864
v  -107.9246 0.8000 172.6055
v  -107.9245 0.8000 216.4245
v  -107.9245 0.8000 260.2436
v  -107.9246 1.0000 -134.1279
v  -107.9246 1.0000 -90.3089
v  -107.9246 1.0000 -46.4898
v  -107.9246 1.0000 -2.6707
v  -107.9246 1.0000 41.1483
v  -107.9246 1.0000 84.9674
v  -107.9246 1.0000 128.7864
v  -107.9246 1.0000 172.6055
v  -107.9245 1.0000 216.4245
v  -107.9245 1.0000 260.2436
v  -107.9246 1.2000 -134.1279
v  -107.9246 1.2000 -90.3089
v  -107.9246 1.2000 -46.4898
v  -107.9246 1.2000 -2.6707
v  -107.9246 1.2000 41.1483
v  -107.9246 1.2000 84.9674
v  -107.9246 1.2000 128.7864
v  -107.9246 1.2000 172.6055
v  -107.9245 1.2000 216.4245
v  -107.9245 1.2000 260.2436
v  -107.9246 1.4000 -134.1279
v  -107.9246 1.4000 -90.3089
v  -107.9246 1.4000 -46.4898
v  -107.9246 1.4000 -2.6707
v  -107.9246 1.4000 41.1483
v  -107.9246 1.4000 84.9674
v  -107.9246 1.4000 128.7864
v  -107.9246 1.4000 172.6055
v  -107.9245 1.4000 216.4245
v  -107.9245 1.4000 260.2436
v  -107.9246 1.6000 -134.1279
v  -107.9246 1.6000 -90.3089
v  -107.9246 1.6000 -46.4898
v  -107.9246 1.6000 -2.6707
v  -107.9246 1.6000 41.1483
v  -107.9246 1.6000 84.9674
v  -107.9246 1.6000 128.7864
v  -107.9246 1.6000 172.6055
v  -107.9245 1.6000 216.4245
v  -107.9245 1.6000 260.2436
v  -107.9246 1.8000 -134.1279
v  -107.9246 1.8000 -90.3089
v  -107.9246 1.8000 -46.4898
v  -107.9246 1.8000 -2.6707
v  -107.9246 1.8000 41.1483
v  -107.9246 1.8000 84.9674
v  -107.9246 1.8000 128.7864
v  -107.9246 1.8000 172.6055
v  -107.9245 1.8000 216.4245
v  -107.9245 1.8000 260.2436
v  -74.7167 0.2000 260.2436
v  -41.5088 0.2000 260.2436
v  -8.3009 0.2000 260.2436
v  24.9069 0.2000 260.2436
v  58.1148 0.2000 260.2436
v  91.3227 0.2000 260.2436
v  124.5306 0.2000 260.2436
v  157.7384 0.2000 260.2436
v  190.9463 0.2000 260.2436
v  -74.7167 0.4000 260.2436
v  -41.5088 0.4000 260.2436
v  -8.3009 0.4000 260.2436
v  24.9069 0.4000 260.2436
v  58.1148 0.4000 260.2436
v  91.3227 0.4000 260.2436
v  124.5306 0.4000 260.2436
v  157.7384 0.4000 260.2436
v  190.9463 0.4000 260.2436
v  -74.7167 0.6000 260.2436
v  -41.5088 0.6000 260.2436
v  -8.3009 0.6000 260.2436
v  24.9069 0.6000 260.2436
v  58.1148 0.6000 260.2436
v  91.3227 0.6000 260.2436
v  124.5306 0.6000 260.2436
v  157.7384 0.6000 260.2436
v  190.9463 0.6000 260.2436
v  -74.7167 0.8000 260.2436
v  -41.5088 0.8000 260.2436
v  -8.3009 0.8000 260.2436
v  24.9069 0.8000 260.2436
v  58.1148 0.8000 260.2436
v  91.3227 0.8000 260.2436
v  124.5306 0.8000 260.2436
v  157.7384 0.8000 260.2436
v  190.9463 0.8000 260.2436
v  -74.7167 1.0000 260.2436
v  -41.5088 1.0000 260.2436
v  -8.3009 1.0000 260.2436
v  24.9069 1.0000 260.2436
v  58.1148 1.0000 260.2436
v  91.3227 1.0000 260.2436
v  124.5306 1.0000 260.2436
v  157.7384 1.0000 260.2436
v  190.9463 1.0000 260.2436
v  -74.7167 1.2000 260.2436
v  -41.5088 1.2000 260.2436
v  -8.3009 1.2000 260.2436
v  24.9069 1.2000 260.2436
v  58.1148 1.2000 260.2436
v  91.3227 1.2000 260.2436
v  124.5306 1.2000 260.2436
v  157.7384 1.2000 260.2436
v  190.9463 1.2000 260.2436
v  -74.7167 1.4000 260.2436
v  -41.5088 1.4000 260.2436
v  -8.3009 1.4000 260.2436
v  24.9069 1.4000 260.2436
v  58.1148 1.4000 260.2436
v  91.3227 1.4000 260.2436
v  124.5306 1.4000 260.2436
v  157.7384 1.4000 260.2436
v  190.9463 1.4000 260.2436
v  -74.7167 1.6000 260.2436
v  -41.5088 1.6000 260.2436
v  -8.3009 1.6000 260.2436
v  24.9069 1.6000 260.2436
v  58.1148 1.6000 260.2436
v  91.3227 1.6000 260.2436
v  124.5306 1.6000 260.2436
v  157.7384 1.6000 260.2436
v  190.9463 1.6000 260.2436
v  -74.7167 1.8000 260.2436
v  -41.5088 1.8000 260.2436
v  -8.3009 1.8000 260.2436
v  24.9069 1.8000 260.2436
v  58.1148 1.8000 260.2436
v  91.3227 1.8000 260.2436
v  124.5306 1.8000 260.2436
v  157.7384 1.8000 260.2436
v  190.9463 1.8000 260.2436
# 602 vertices

vn 0.0000 -1.0000 -0.0000
vn 0.0000 1.0000 -0.0000
vn 1.0000 0.0000 -0.0000
vn -0.0000 0.0000 -1.0000
vn -1.0000 0.0000 0.0000
vn 0.0000 0.0000 1.0000
# 6 vertex normals

vt -0.0000 0.0000 0.0000
vt 0.0000 0.2000 0.0000
vt 0.4000 0.2000 0.0000
vt 0.4000 0.0000 0.0000
vt 0.8000 0.2000 0.0000
vt 0.8000 0.0000 0.0000
vt 1.2000 0.2000 0.0000
vt 1.2000 0.0000 0.0000
vt 1.6000 0.2000 0.0000
vt 1.6000 0.0000 0.0000
vt 2.0000 0.2000 0.0000
vt 2.0000 0.0000 0.0000
vt 2.4000 0.2000 0.0000
vt 2.4000 0.0000 0.0000
vt 2.8000 0.2000 0.0000
vt 2.8000 0.0000 0.0000
vt 3.2000 0.2000 0.0000
vt 3.2000 0.0000 0.0000
vt 3.6000 0.2000 0.0000
vt 3.6000 0.0000 0.0000
vt 4.0000 0.2000 0.0000
vt 4.0000 0.0000 0.0000
vt 0.0000 0.4000 0.0000
vt 0.4000 0.4000 0.0000
vt 0.8000 0.4000 0.0000
vt 1.2000 0.4000 0.0000
vt 1.6000 0.4000 0.0000
vt 2.0000 0.4000 0.0000
vt 2.4000 0.4000 0.0000
vt 2.8000 0.4000 0.0000
vt 3.2000 0.4000 0.0000
vt 3.6000 0.4000 0.0000
vt 4.0000 0.4000 0.0000
vt 0.0000 0.6000 0.0000
vt 0.4000 0.6000 0.0000
vt 0.8000 0.6000 0.0000
vt 1.2000 0.6000 0.0000
vt 1.6000 0.6000 0.0000
vt 2.0000 0.6000 0.0000
vt 2.4000 0.6000 0.0000
vt 2.8000 0.6000 0.0000
vt 3.2000 0.6000 0.0000
vt 3.6000 0.6000 0.0000
vt 4.0000 0.6000 0.0000
vt 0.0000 0.8000 0.0000
vt 0.4000 0.8000 0.0000
vt 0.8000 0.8000 0.0000
vt 1.2000 0.8000 0.0000
vt 1.6000 0.8000 0.0000
vt 2.0000 0.8000 0.0000
vt 2.4000 0.8000 0.0000
vt 2.8000 0.8000 0.0000
vt 3.2000 0.8000 0.0000
vt 3.6000 0.8000 0.0000
vt 4.0000 0.8000 0.0000
vt 0.0000 1.0000 0.0000
vt 0.4000 1.0000 0.0000
vt 0.8000 1.0000 0.0000
vt 1.2000 1.0000 0.0000
vt 1.6000 1.0000 0.0000
vt 2.0000 1.0000 0.0000
vt 2.4000 1.0000 0.0000
vt 2.8000 1.0000 0.0000
vt 3.2000 1.0000 0.0000
vt 3.6000 1.0000 0.0000
vt 4.0000 1.0000 0.0000
vt 0.0000 1.2000 0.0000
vt 0.4000 1.2000 0.0000
vt 0.8000 1.2000 0.0000
vt 1.2000 1.2000 0.0000
vt 1.6000 1.2000 0.0000
vt 2.0000 1.2000 0.0000
vt 2.4000 1.2000 0.0000
vt 2.8000 1.2000 0.0000
vt 3.2000 1.2000 0.0000
vt 3.6000 1.2000 0.0000
vt 4.0000 1.2000 0.0000
vt 0.0000 1.4000 0.0000
vt 0.4000 1.4000 0.0000
vt 0.8000 1.4000 0.0000
vt 1.2000 1.4000 0.0000
vt 1.6000 1.4000 0.0000
vt 2.0000 1.4000 0.0000
vt 2.4000 1.4000 0.0000
vt 2.8000 1.4000 0.0000
vt 3.2000 1.4000 0.0000
vt 3.6000 1.4000 0.0000
vt 4.0000 1.4000 0.0000
vt 0.0000 1.6000 0.0000
vt 0.4000 1.6000 0.0000
vt 0.8000 1.6000 0.0000
vt 1.2000 1.6000 0.0000
vt 1.6000 1.6000 0.0000
vt 2.0000 1.6000 0.0000
vt 2.4000 1.6000 0.0000
vt 2.8000 1.6000 0.0000
vt 3.2000 1.6000 0.0000
vt 3.6000 1.6000 0.0000
vt 4.0000 1.6000 0.0000
vt 0.0000 1.8000 0.0000
vt 0.4000 1.8000 0.0000
vt 0.8000 1.8000 0.0000
vt 1.2000 1.8000 0.0000
vt 1.6000 1.8000 0.0000
vt 2.0000 1.8000 0.0000
vt 2.4000 1.8000 0.0000
vt 2.8000 1.8000 0.0000
vt 3.2000 1.8000 0.0000
vt 3.6000 1.8000 0.0000
vt 4.0000 1.8000 0.0000
vt 0.0000 2.0000 0.0000
vt 0.4000 2.0000 0.0000
vt 0.8000 2.0000 0.0000
vt 1.2000 2.0000 0.0000
vt 1.6000 2.0000 0.0000
vt 2.0000 2.0000 0.0000
vt 2.4000 2.0000 0.0000
vt 2.8000 2.0000 0.0000
vt 3.2000 2.0000 0.0000
vt 3.6000 2.0000 0.0000
vt 4.0000 2.0000 0.0000
vt -0.0000 0.0000 1.0000
vt 0.4000 0.0000 1.0000
vt 0.4000 0.2000 1.0000
vt 0.0000 0.2000 1.0000
vt 0.8000 0.0000 1.0000
vt 0.8000 0.2000 1.0000
vt 1.2000 0.0000 1.0000
vt 1.2000 0.2000 1.0000
vt 1.6000 0.0000 1.0000
vt 1.6000 0.2000 1.0000
vt 2.0000 0.0000 1.0000
vt 2.0000 0.2000 1.0000
vt 2.4000 0.0000 1.0000
vt 2.4000 0.2000 1.0000
vt 2.8000 0.0000 1.0000
vt 2.8000 0.2000 1.0000
vt 3.2000 0.0000 1.0000
vt 3.2000 0.2000 1.0000
vt 3.6000 0.0000 1.0000
vt 3.6000 0.2000 1.0000
vt 4.0000 0.0000 1.0000
vt 4.0000 0.2000 1.0000
vt 0.4000 0.4000 1.0000
vt 0.0000 0.4000 1.0000
vt 0.8000 0.4000 1.0000
vt 1.2000 0.4000 1.0000
vt 1.6000 0.4000 1.0000
vt 2.0000 0.4000 1.0000
vt 2.4000 0.4000 1.0000
vt 2.8000 0.4000 1.0000
vt 3.2000 0.4000 1.0000
vt 3.6000 0.4000 1.0000
vt 4.0000 0.4000 1.0000
vt 0.4000 0.6000 1.0000
vt 0.0000 0.6000 1.0000
vt 0.8000 0.6000 1.0000
vt 1.2000 0.6000 1.0000
vt 1.6000 0.6000 1.0000
vt 2.0000 0.6000 1.0000
vt 2.4000 0.6000 1.0000
vt 2.8000 0.6000 1.0000
vt 3.2000 0.6000 1.0000
vt 3.6000 0.6000 1.0000
vt 4.0000 0.6000 1.0000
vt 0.4000 0.8000 1.0000
vt 0.0000 0.8000 1.0000
vt 0.8000 0.8000 1.0000
vt 1.2000 0.8000 1.0000
vt 1.6000 0.8000 1.0000
vt 2.0000 0.8000 1.0000
vt 2.4000 0.8000 1.0000
vt 2.8000 0.8000 1.0000
vt 3.2000 0.8000 1.0000
vt 3.6000 0.8000 1.0000
vt 4.0000 0.8000 1.0000
vt 0.4000 1.0000 1.0000
vt 0.0000 1.0000 1.0000
vt 0.8000 1.0000 1.0000
vt 1.2000 1.0000 1.0000
vt 1.6000 1.0000 1.0000
vt 2.0000 1.0000 1.0000
vt 2.4000 1.0000 1.0000
vt 2.8000 1.0000 1.0000
vt 3.2000 1.0000 1.0000
vt 3.6000 1.0000 1.0000
vt 4.0000 1.0000 1.0000
vt 0.4000 1.2000 1.0000
vt 0.0000 1.2000 1.0000
vt 0.8000 1.2000 1.0000
vt 1.2000 1.2000 1.0000
vt 1.6000 1.2000 1.0000
vt 2.0000 1.2000 1.0000
vt 2.4000 1.2000 1.0000
vt 2.8000 1.2000 1.0000
vt 3.2000 1.2000 1.0000
vt 3.6000 1.2000 1.0000
vt 4.0000 1.2000 1.0000
vt 0.4000 1.4000 1.0000
vt 0.0000 1.4000 1.0000
vt 0.8000 1.4000 1.0000
vt 1.2000 1.4000 1.0000
vt 1.6000 1.4000 1.0000
vt 2.0000 1.4000 1.0000
vt 2.4000 1.4000 1.0000
vt 2.8000 1.4000 1.0000
vt 3.2000 1.4000 1.0000
vt 3.6000 1.4000 1.0000
vt 4.0000 1.4000 1.0000
vt 0.4000 1.6000 1.0000
vt 0.0000 1.6000 1.0000
vt 0.8000 1.6000 1.0000
vt 1.2000 1.6000 1.0000
vt 1.6000 1.6000 1.0000
vt 2.0000 1.6000 1.0000
vt 2.4000 1.6000 1.0000
vt 2.8000 1.6000 1.0000
vt 3.2000 1.6000 1.0000
vt 3.6000 1.6000 1.0000
vt 4.0000 1.6000 1.0000
vt 0.4000 1.8000 1.0000
vt 0.0000 1.8000 1.0000
vt 0.8000 1.8000 1.0000
vt 1.2000 1.8000 1.0000
vt 1.6000 1.8000 1.0000
vt 2.0000 1.8000 1.0000
vt 2.4000 1.8000 1.0000
vt 2.8000 1.8000 1.0000
vt 3.2000 1.8000 1.0000
vt 3.6000 1.8000 1.0000
vt 4.0000 1.8000 1.0000
vt 0.4000 2.0000 1.0000
vt 0.0000 2.0000 1.0000
vt 0.8000 2.0000 1.0000
vt 1.2000 2.0000 1.0000
vt 1.6000 2.0000 1.0000
vt 2.0000 2.0000 1.0000
vt 2.4000 2.0000 1.0000
vt 2.8000 2.0000 1.0000
vt 3.2000 2.0000 1.0000
vt 3.6000 2.0000 1.0000
vt 4.0000 2.0000 1.0000
vt 0.4000 0.0000 0.1000
vt -0.0000 0.0000 0.1000
vt 0.8000 0.0000 0.1000
vt 1.2000 0.0000 0.1000
vt 1.6000 0.0000 0.1000
vt 2.0000 0.0000 0.1000
vt 2.4000 0.0000 0.1000
vt 2.8000 0.0000 0.1000
vt 3.2000 0.0000 0.1000
vt 3.6000 0.0000 0.1000
vt 4.0000 0.0000 0.1000
vt 0.4000 0.0000 0.2000
vt -0.0000 0.0000 0.2000
vt 0.8000 0.0000 0.2000
vt 1.2000 0.0000 0.2000
vt 1.6000 0.0000 0.2000
vt 2.0000 0.0000 0.2000
vt 2.4000 0.0000 0.2000
vt 2.8000 0.0000 0.2000
vt 3.2000 0.0000 0.2000
vt 3.6000 0.0000 0.2000
vt 4.0000 0.0000 0.2000
vt 0.4000 0.0000 0.3000
vt -0.0000 0.0000 0.3000
vt 0.8000 0.0000 0.3000
vt 1.2000 0.0000 0.3000
vt 1.6000 0.0000 0.3000
vt 2.0000 0.0000 0.3000
vt 2.4000 0.0000 0.3000
vt 2.8000 0.0000 0.3000
vt 3.2000 0.0000 0.3000
vt 3.6000 0.0000 0.3000
vt 4.0000 0.0000 0.3000
vt 0.4000 0.0000 0.4000
vt -0.0000 0.0000 0.4000
vt 0.8000 0.0000 0.4000
vt 1.2000 0.0000 0.4000
vt 1.6000 0.0000 0.4000
vt 2.0000 0.0000 0.4000
vt 2.4000 0.0000 0.4000
vt 2.8000 0.0000 0.4000
vt 3.2000 0.0000 0.4000
vt 3.6000 0.0000 0.4000
vt 4.0000 0.0000 0.4000
vt 0.4000 0.0000 0.5000
vt -0.0000 0.0000 0.5000
vt 0.8000 0.0000 0.5000
vt 1.2000 0.0000 0.5000
vt 1.6000 0.0000 0.5000
vt 2.0000 0.0000 0.5000
vt 2.4000 0.0000 0.5000
vt 2.8000 0.0000 0.5000
vt 3.2000 0.0000 0.5000
vt 3.6000 0.0000 0.5000
vt 4.0000 0.0000 0.5000
vt 0.4000 0.0000 0.6000
vt -0.0000 0.0000 0.6000
vt 0.8000 0.0000 0.6000
vt 1.2000 0.0000 0.6000
vt 1.6000 0.0000 0.6000
vt 2.0000 0.0000 0.6000
vt 2.4000 0.0000 0.6000
vt 2.8000 0.0000 0.6000
vt 3.2000 0.0000 0.6000
vt 3.6000 0.0000 0.6000
vt 4.0000 0.0000 0.6000
vt 0.4000 0.0000 0.7000
vt -0.0000 0.0000 0.7000
vt 0.8000 0.0000 0.7000
vt 1.2000 0.0000 0.7000
vt 1.6000 0.0000 0.7000
vt 2.0000 0.0000 0.7000
vt 2.4000 0.0000 0.7000
vt 2.8000 0.0000 0.7000
vt 3.2000 0.0000 0.7000
vt 3.6000 0.0000 0.7000
vt 4.0000 0.0000 0.7000
vt 0.4000 0.0000 0.8000
vt -0.0000 0.0000 0.8000
vt 0.8000 0.0000 0.8000
vt 1.2000 0.0000 0.8000
vt 1.6000 0.0000 0.8000
vt 2.0000 0.0000 0.8000
vt 2.4000 0.0000 0.8000
vt 2.8000 0.0000 0.8000
vt 3.2000 0.0000 0.8000
vt 3.6000 0.0000 0.8000
vt 4.0000 0.0000 0.8000
vt 0.4000 0.0000 0.9000
vt -0.0000 0.0000 0.9000
vt 0.8000 0.0000 0.9000
vt 1.2000 0.0000 0.9000
vt 1.6000 0.0000 0.9000
vt 2.0000 0.0000 0.9000
vt 2.4000 0.0000 0.9000
vt 2.8000 0.0000 0.9000
vt 3.2000 0.0000 0.9000
vt 3.6000 0.0000 0.9000
vt 4.0000 0.0000 0.9000
vt 4.0000 0.2000 0.1000
vt 4.0000 0.4000 0.1000
vt 4.0000 0.6000 0.1000
vt 4.0000 0.8000 0.1000
vt 4.0000 1.0000 0.1000
vt 4.0000 1.2000 0.1000
vt 4.0000 1.4000 0.1000
vt 4.0000 1.6000 0.1000
vt 4.0000 1.8000 0.1000
vt 4.0000 2.0000 0.1000
vt 4.0000 0.2000 0.2000
vt 4.0000 0.4000 0.2000
vt 4.0000 0.6000 0.2000
vt 4.0000 0.8000 0.2000
vt 4.0000 1.0000 0.2000
vt 4.0000 1.2000 0.2000
vt 4.0000 1.4000 0.2000
vt 4.0000 1.6000 0.2000
vt 4.0000 1.8000 0.2000
vt 4.0000 2.0000 0.2000
vt 4.0000 0.2000 0.3000
vt 4.0000 0.4000 0.3000
vt 4.0000 0.6000 0.3000
vt 4.0000 0.8000 0.3000
vt 4.0000 1.0000 0.3000
vt 4.0000 1.2000 0.3000
vt 4.0000 1.4000 0.3000
vt 4.0000 1.6000 0.3000
vt 4.0000 1.8000 0.3000
vt 4.0000 2.0000 0.3000
vt 4.0000 0.2000 0.4000
vt 4.0000 0.4000 0.4000
vt 4.0000 0.6000 0.4000
vt 4.0000 0.8000 0.4000
vt 4.0000 1.0000 0.4000
vt 4.0000 1.2000 0.4000
vt 4.0000 1.4000 0.4000
vt 4.0000 1.6000 0.4000
vt 4.0000 1.8000 0.4000
vt 4.0000 2.0000 0.4000
vt 4.0000 0.2000 0.5000
vt 4.0000 0.4000 0.5000
vt 4.0000 0.6000 0.5000
vt 4.0000 0.8000 0.5000
vt 4.0000 1.0000 0.5000
vt 4.0000 1.2000 0.5000
vt 4.0000 1.4000 0.5000
vt 4.0000 1.6000 0.5000
vt 4.0000 1.8000 0.5000
vt 4.0000 2.0000 0.5000
vt 4.0000 0.2000 0.6000
vt 4.0000 0.4000 0.6000
vt 4.0000 0.6000 0.6000
vt 4.0000 0.8000 0.6000
vt 4.0000 1.0000 0.6000
vt 4.0000 1.2000 0.6000
vt 4.0000 1.4000 0.6000
vt 4.0000 1.6000 0.6000
vt 4.0000 1.8000 0.6000
vt 4.0000 2.0000 0.6000
vt 4.0000 0.2000 0.7000
vt 4.0000 0.4000 0.7000
vt 4.0000 0.6000 0.7000
vt 4.0000 0.8000 0.7000
vt 4.0000 1.0000 0.7000
vt 4.0000 1.2000 0.7000
vt 4.0000 1.4000 0.7000
vt 4.0000 1.6000 0.7000
vt 4.0000 1.8000 0.7000
vt 4.0000 2.0000 0.7000
vt 4.0000 0.2000 0.8000
vt 4.0000 0.4000 0.8000
vt 4.0000 0.6000 0.8000
vt 4.0000 0.8000 0.8000
vt 4.0000 1.0000 0.8000
vt 4.0000 1.2000 0.8000
vt 4.0000 1.4000 0.8000
vt 4.0000 1.6000 0.8000
vt 4.0000 1.8000 0.8000
vt 4.0000 2.0000 0.8000
vt 4.0000 0.2000 0.9000
vt 4.0000 0.4000 0.9000
vt 4.0000 0.6000 0.9000
vt 4.0000 0.8000 0.9000
vt 4.0000 1.0000 0.9000
vt 4.0000 1.2000 0.9000
vt 4.0000 1.4000 0.9000
vt 4.0000 1.6000 0.9000
vt 4.0000 1.8000 0.9000
vt 4.0000 2.0000 0.9000
vt 3.6000 2.0000 0.1000
vt 3.2000 2.0000 0.1000
vt 2.8000 2.0000 0.1000
vt 2.4000 2.0000 0.1000
vt 2.0000 2.0000 0.1000
vt 1.6000 2.0000 0.1000
vt 1.2000 2.0000 0.1000
vt 0.8000 2.0000 0.1000
vt 0.4000 2.0000 0.1000
vt 0.0000 2.0000 0.1000
vt 3.6000 2.0000 0.2000
vt 3.2000 2.0000 0.2000
vt 2.8000 2.0000 0.2000
vt 2.4000 2.0000 0.2000
vt 2.0000 2.0000 0.2000
vt 1.6000 2.0000 0.2000
vt 1.2000 2.0000 0.2000
vt 0.8000 2.0000 0.2000
vt 0.4000 2.0000 0.2000
vt 0.0000 2.0000 0.2000
vt 3.6000 2.0000 0.3000
vt 3.2000 2.0000 0.3000
vt 2.8000 2.0000 0.3000
vt 2.4000 2.0000 0.3000
vt 2.0000 2.0000 0.3000
vt 1.6000 2.0000 0.3000
vt 1.2000 2.0000 0.3000
vt 0.8000 2.0000 0.3000
vt 0.4000 2.0000 0.3000
vt 0.0000 2.0000 0.3000
vt 3.6000 2.0000 0.4000
vt 3.2000 2.0000 0.4000
vt 2.8000 2.0000 0.4000
vt 2.4000 2.0000 0.4000
vt 2.0000 2.0000 0.4000
vt 1.6000 2.0000 0.4000
vt 1.2000 2.0000 0.4000
vt 0.8000 2.0000 0.4000
vt 0.4000 2.0000 0.4000
vt 0.0000 2.0000 0.4000
vt 3.6000 2.0000 0.5000
vt 3.2000 2.0000 0.5000
vt 2.8000 2.0000 0.5000
vt 2.4000 2.0000 0.5000
vt 2.0000 2.0000 0.5000
vt 1.6000 2.0000 0.5000
vt 1.2000 2.0000 0.5000
vt 0.8000 2.0000 0.5000
vt 0.4000 2.0000 0.5000
vt 0.0000 2.0000 0.5000
vt 3.6000 2.0000 0.6000
vt 3.2000 2.0000 0.6000
vt 2.8000 2.0000 0.6000
vt 2.4000 2.0000 0.6000
vt 2.0000 2.0000 0.6000
vt 1.6000 2.0000 0.6000
vt 1.2000 2.0000 0.6000
vt 0.8000 2.0000 0.6000
vt 0.4000 2.0000 0.6000
vt 0.0000 2.0000 0.6000
vt 3.6000 2.0000 0.7000
vt 3.2000 2.0000 0.7000
vt 2.8000 2.0000 0.7000
vt 2.4000 2.0000 0.7000
vt 2.0000 2.0000 0.7000
vt 1.6000 2.0000 0.7000
vt 1.2000 2.0000 0.7000
vt 0.8000 2.0000 0.7000
vt 0.4000 2.0000 0.7000
vt 0.0000 2.0000 0.7000
vt 3.6000 2.0000 0.8000
vt 3.2000 2.0000 0.8000
vt 2.8000 2.0000 0.8000
vt 2.4000 2.0000 0.8000
vt 2.0000 2.0000 0.8000
vt 1.6000 2.0000 0.8000
vt 1.2000 2.0000 0.8000
vt 0.8000 2.0000 0.8000
vt 0.4000 2.0000 0.8000
vt 0.0000 2.0000 0.8000
vt 3.6000 2.0000 0.9000
vt 3.2000 2.0000 0.9000
vt 2.8000 2.0000 0.9000
vt 2.4000 2.0000 0.9000
vt 2.0000 2.0000 0.9000
vt 1.6000 2.0000 0.9000
vt 1.2000 2.0000 0.9000
vt 0.8000 2.0000 0.9000
vt 0.4000 2.0000 0.9000
vt 0.0000 2.0000 0.9000
vt 0.0000 1.8000 0.1000
vt 0.0000 1.6000 0.1000
vt 0.0000 1.4000 0.1000
vt 0.0000 1.2000 0.1000
vt 0.0000 1.0000 0.1000
vt 0.0000 0.8000 0.1000
vt 0.0000 0.6000 0.1000
vt 0.0000 0.4000 0.1000
vt 0.0000 0.2000 0.1000
vt 0.0000 1.8000 0.2000
vt 0.0000 1.6000 0.2000
vt 0.0000 1.4000 0.2000
vt 0.0000 1.2000 0.2000
vt 0.0000 1.0000 0.2000
vt 0.0000 0.8000 0.2000
vt 0.0000 0.6000 0.2000
vt 0.0000 0.4000 0.2000
vt 0.0000 0.2000 0.2000
vt 0.0000 1.8000 0.3000
vt 0.0000 1.6000 0.3000
vt 0.0000 1.4000 0.3000
vt 0.0000 1.2000 0.3000
vt 0.0000 1.0000 0.3000
vt 0.0000 0.8000 0.3000
vt 0.0000 0.6000 0.3000
vt 0.0000 0.4000 0.3000
vt 0.0000 0.2000 0.3000
vt 0.0000 1.8000 0.4000
vt 0.0000 1.6000 0.4000
vt 0.0000 1.4000 0.4000
vt 0.0000 1.2000 0.4000
vt 0.0000 1.0000 0.4000
vt 0.0000 0.8000 0.4000
vt 0.0000 0.6000 0.4000
vt 0.0000 0.4000 0.4000
vt 0.0000 0.2000 0.4000
vt 0.0000 1.8000 0.5000
vt 0.0000 1.6000 0.5000
vt 0.0000 1.4000 0.5000
vt 0.0000 1.2000 0.5000
vt 0.0000 1.0000 0.5000
vt 0.0000 0.8000 0.5000
vt 0.0000 0.6000 0.5000
vt 0.0000 0.4000 0.5000
vt 0.0000 0.2000 0.5000
vt 0.0000 1.8000 0.6000
vt 0.0000 1.6000 0.6000
vt 0.0000 1.4000 0.6000
vt 0.0000 1.2000 0.6000
vt 0.0000 1.0000 0.6000
vt 0.0000 0.8000 0.6000
vt 0.0000 0.6000 0.6000
vt 0.0000 0.4000 0.6000
vt 0.0000 0.2000 0.6000
vt 0.0000 1.8000 0.7000
vt 0.0000 1.6000 0.7000
vt 0.0000 1.4000 0.7000
vt 0.0000 1.2000 0.7000
vt 0.0000 1.0000 0.7000
vt 0.0000 0.8000 0.7000
vt 0.0000 0.6000 0.7000
vt 0.0000 0.4000 0.7000
vt 0.0000 0.2000 0.7000
vt 0.0000 1.8000 0.8000
vt 0.0000 1.6000 0.8000
vt 0.0000 1.4000 0.8000
vt 0.0000 1.2000 0.8000
vt 0.0000 1.0000 0.8000
vt 0.0000 0.8000 0.8000
vt 0.0000 0.6000 0.8000
vt 0.0000 0.4000 0.8000
vt 0.0000 0.2000 0.8000
vt 0.0000 1.8000 0.9000
vt 0.0000 1.6000 0.9000
vt 0.0000 1.4000 0.9000
vt 0.0000 1.2000 0.9000
vt 0.0000 1.0000 0.9000
vt 0.0000 0.8000 0.9000
vt 0.0000 0.6000 0.9000
vt 0.0000 0.4000 0.9000
vt 0.0000 0.2000 0.9000
# 602 texture coords

o Superficie
g Superficie
usemtl Material__7592
s 2
f 1/1/1 2/2/1 3/3/1 
f 3/3/1 4/4/1 1/1/1 
f 4/4/1 3/3/1 5/5/1 
f 5/5/1 6/6/1 4/4/1 
f 6/6/1 5/5/1 7/7/1 
f 7/7/1 8/8/1 6/6/1 
f 8/8/1 7/7/1 9/9/1 
f 9/9/1 10/10/1 8/8/1 
f 10/10/1 9/9/1 11/11/1 
f 11/11/1 12/12/1 10/10/1 
f 12/12/1 11/11/1 13/13/1 
f 13/13/1 14/14/1 12/12/1 
f 14/14/1 13/13/1 15/15/1 
f 15/15/1 16/16/1 14/14/1 
f 16/16/1 15/15/1 17/17/1 
f 17/17/1 18/18/1 16/16/1 
f 18/18/1 17/17/1 19/19/1 
f 19/19/1 20/20/1 18/18/1 
f 20/20/1 19/19/1 21/21/1 
f 21/21/1 22/22/1 20/20/1 
f 2/2/1 23/23/1 24/24/1 
f 24/24/1 3/3/1 2/2/1 
f 3/3/1 24/24/1 25/25/1 
f 25/25/1 5/5/1 3/3/1 
f 5/5/1 25/25/1 26/26/1 
f 26/26/1 7/7/1 5/5/1 
f 7/7/1 26/26/1 27/27/1 
f 27/27/1 9/9/1 7/7/1 
f 9/9/1 27/27/1 28/28/1 
f 28/28/1 11/11/1 9/9/1 
f 11/11/1 28/28/1 29/29/1 
f 29/29/1 13/13/1 11/11/1 
f 13/13/1 29/29/1 30/30/1 
f 30/30/1 15/15/1 13/13/1 
f 15/15/1 30/30/1 31/31/1 
f 31/31/1 17/17/1 15/15/1 
f 17/17/1 31/31/1 32/32/1 
f 32/32/1 19/19/1 17/17/1 
f 19/19/1 32/32/1 33/33/1 
f 33/33/1 21/21/1 19/19/1 
f 23/23/1 34/34/1 35/35/1 
f 35/35/1 24/24/1 23/23/1 
f 24/24/1 35/35/1 36/36/1 
f 36/36/1 25/25/1 24/24/1 
f 25/25/1 36/36/1 37/37/1 
f 37/37/1 26/26/1 25/25/1 
f 26/26/1 37/37/1 38/38/1 
f 38/38/1 27/27/1 26/26/1 
f 27/27/1 38/38/1 39/39/1 
f 39/39/1 28/28/1 27/27/1 
f 28/28/1 39/39/1 40/40/1 
f 40/40/1 29/29/1 28/28/1 
f 29/29/1 40/40/1 41/41/1 
f 41/41/1 30/30/1 29/29/1 
f 30/30/1 41/41/1 42/42/1 
f 42/42/1 31/31/1 30/30/1 
f 31/31/1 42/42/1 43/43/1 
f 43/43/1 32/32/1 31/31/1 
f 32/32/1 43/43/1 44/44/1 
f 44/44/1 33/33/1 32/32/1 
f 34/34/1 45/45/1 46/46/1 
f 46/46/1 35/35/1 34/34/1 
f 35/35/1 46/46/1 47/47/1 
f 47/47/1 36/36/1 35/35/1 
f 36/36/1 47/47/1 48/48/1 
f 48/48/1 37/37/1 36/36/1 
f 37/37/1 48/48/1 49/49/1 
f 49/49/1 38/38/1 37/37/1 
f 38/38/1 49/49/1 50/50/1 
f 50/50/1 39/39/1 38/38/1 
f 39/39/1 50/50/1 51/51/1 
f 51/51/1 40/40/1 39/39/1 
f 40/40/1 51/51/1 52/52/1 
f 52/52/1 41/41/1 40/40/1 
f 41/41/1 52/52/1 53/53/1 
f 53/53/1 42/42/1 41/41/1 
f 42/42/1 53/53/1 54/54/1 
f 54/54/1 43/43/1 42/42/1 
f 43/43/1 54/54/1 55/55/1 
f 55/55/1 44/44/1 43/43/1 
f 45/45/1 56/56/1 57/57/1 
f 57/57/1 46/46/1 45/45/1 
f 46/46/1 57/57/1 58/58/1 
f 58/58/1 47/47/1 46/46/1 
f 47/47/1 58/58/1 59/59/1 
f 59/59/1 48/48/1 47/47/1 
f 48/48/1 59/59/1 60/60/1 
f 60/60/1 49/49/1 48/48/1 
f 49/49/1 60/60/1 61/61/1 
f 61/61/1 50/50/1 49/49/1 
f 50/50/1 61/61/1 62/62/1 
f 62/62/1 51/51/1 50/50/1 
f 51/51/1 62/62/1 63/63/1 
f 63/63/1 52/52/1 51/51/1 
f 52/52/1 63/63/1 64/64/1 
f 64/64/1 53/53/1 52/52/1 
f 53/53/1 64/64/1 65/65/1 
f 65/65/1 54/54/1 53/53/1 
f 54/54/1 65/65/1 66/66/1 
f 66/66/1 55/55/1 54/54/1 
f 56/56/1 67/67/1 68/68/1 
f 68/68/1 57/57/1 56/56/1 
f 57/57/1 68/68/1 69/69/1 
f 69/69/1 58/58/1 57/57/1 
f 58/58/1 69/69/1 70/70/1 
f 70/70/1 59/59/1 58/58/1 
f 59/59/1 70/70/1 71/71/1 
f 71/71/1 60/60/1 59/59/1 
f 60/60/1 71/71/1 72/72/1 
f 72/72/1 61/61/1 60/60/1 
f 61/61/1 72/72/1 73/73/1 
f 73/73/1 62/62/1 61/61/1 
f 62/62/1 73/73/1 74/74/1 
f 74/74/1 63/63/1 62/62/1 
f 63/63/1 74/74/1 75/75/1 
f 75/75/1 64/64/1 63/63/1 
f 64/64/1 75/75/1 76/76/1 
f 76/76/1 65/65/1 64/64/1 
f 65/65/1 76/76/1 77/77/1 
f 77/77/1 66/66/1 65/65/1 
f 67/67/1 78/78/1 79/79/1 
f 79/79/1 68/68/1 67/67/1 
f 68/68/1 79/79/1 80/80/1 
f 80/80/1 69/69/1 68/68/1 
f 69/69/1 80/80/1 81/81/1 
f 81/81/1 70/70/1 69/69/1 
f 70/70/1 81/81/1 82/82/1 
f 82/82/1 71/71/1 70/70/1 
f 71/71/1 82/82/1 83/83/1 
f 83/83/1 72/72/1 71/71/1 
f 72/72/1 83/83/1 84/84/1 
f 84/84/1 73/73/1 72/72/1 
f 73/73/1 84/84/1 85/85/1 
f 85/85/1 74/74/1 73/73/1 
f 74/74/1 85/85/1 86/86/1 
f 86/86/1 75/75/1 74/74/1 
f 75/75/1 86/86/1 87/87/1 
f 87/87/1 76/76/1 75/75/1 
f 76/76/1 87/87/1 88/88/1 
f 88/88/1 77/77/1 76/76/1 
f 78/78/1 89/89/1 90/90/1 
f 90/90/1 79/79/1 78/78/1 
f 79/79/1 90/90/1 91/91/1 
f 91/91/1 80/80/1 79/79/1 
f 80/80/1 91/91/1 92/92/1 
f 92/92/1 81/81/1 80/80/1 
f 81/81/1 92/92/1 93/93/1 
f 93/93/1 82/82/1 81/81/1 
f 82/82/1 93/93/1 94/94/1 
f 94/94/1 83/83/1 82/82/1 
f 83/83/1 94/94/1 95/95/1 
f 95/95/1 84/84/1 83/83/1 
f 84/84/1 95/95/1 96/96/1 
f 96/96/1 85/85/1 84/84/1 
f 85/85/1 96/96/1 97/97/1 
f 97/97/1 86/86/1 85/85/1 
f 86/86/1 97/97/1 98/98/1 
f 98/98/1 87/87/1 86/86/1 
f 87/87/1 98/98/1 99/99/1 
f 99/99/1 88/88/1 87/87/1 
f 89/89/1 100/100/1 101/101/1 
f 101/101/1 90/90/1 89/89/1 
f 90/90/1 101/101/1 102/102/1 
f 102/102/1 91/91/1 90/90/1 
f 91/91/1 102/102/1 103/103/1 
f 103/103/1 92/92/1 91/91/1 
f 92/92/1 103/103/1 104/104/1 
f 104/104/1 93/93/1 92/92/1 
f 93/93/1 104/104/1 105/105/1 
f 105/105/1 94/94/1 93/93/1 
f 94/94/1 105/105/1 106/106/1 
f 106/106/1 95/95/1 94/94/1 
f 95/95/1 106/106/1 107/107/1 
f 107/107/1 96/96/1 95/95/1 
f 96/96/1 107/107/1 108/108/1 
f 108/108/1 97/97/1 96/96/1 
f 97/97/1 108/108/1 109/109/1 
f 109/109/1 98/98/1 97/97/1 
f 98/98/1 109/109/1 110/110/1 
f 110/110/1 99/99/1 98/98/1 
f 100/100/1 111/111/1 112/112/1 
f 112/112/1 101/101/1 100/100/1 
f 101/101/1 112/112/1 113/113/1 
f 113/113/1 102/102/1 101/101/1 
f 102/102/1 113/113/1 114/114/1 
f 114/114/1 103/103/1 102/102/1 
f 103/103/1 114/114/1 115/115/1 
f 115/115/1 104/104/1 103/103/1 
f 104/104/1 115/115/1 116/116/1 
f 116/116/1 105/105/1 104/104/1 
f 105/105/1 116/116/1 117/117/1 
f 117/117/1 106/106/1 105/105/1 
f 106/106/1 117/117/1 118/118/1 
f 118/118/1 107/107/1 106/106/1 
f 107/107/1 118/118/1 119/119/1 
f 119/119/1 108/108/1 107/107/1 
f 108/108/1 119/119/1 120/120/1 
f 120/120/1 109/109/1 108/108/1 
f 109/109/1 120/120/1 121/121/1 
f 121/121/1 110/110/1 109/109/1 
s 4
f 122/122/2 123/123/2 124/124/2 
f 124/124/2 125/125/2 122/122/2 
f 123/123/2 126/126/2 127/127/2 
f 127/127/2 124/124/2 123/123/2 
f 126/126/2 128/128/2 129/129/2 
f 129/129/2 127/127/2 126/126/2 
f 128/128/2 130/130/2 131/131/2 
f 131/131/2 129/129/2 128/128/2 
f 130/130/2 132/132/2 133/133/2 
f 133/133/2 131/131/2 130/130/2 
f 132/132/2 134/134/2 135/135/2 
f 135/135/2 133/133/2 132/132/2 
f 134/134/2 136/136/2 137/137/2 
f 137/137/2 135/135/2 134/134/2 
f 136/136/2 138/138/2 139/139/2 
f 139/139/2 137/137/2 136/136/2 
f 138/138/2 140/140/2 141/141/2 
f 141/141/2 139/139/2 138/138/2 
f 140/140/2 142/142/2 143/143/2 
f 143/143/2 141/141/2 140/140/2 
f 125/125/2 124/124/2 144/144/2 
f 144/144/2 145/145/2 125/125/2 
f 124/124/2 127/127/2 146/146/2 
f 146/146/2 144/144/2 124/124/2 
f 127/127/2 129/129/2 147/147/2 
f 147/147/2 146/146/2 127/127/2 
f 129/129/2 131/131/2 148/148/2 
f 148/148/2 147/147/2 129/129/2 
f 131/131/2 133/133/2 149/149/2 
f 149/149/2 148/148/2 131/131/2 
f 133/133/2 135/135/2 150/150/2 
f 150/150/2 149/149/2 133/133/2 
f 135/135/2 137/137/2 151/151/2 
f 151/151/2 150/150/2 135/135/2 
f 137/137/2 139/139/2 152/152/2 
f 152/152/2 151/151/2 137/137/2 
f 139/139/2 141/141/2 153/153/2 
f 153/153/2 152/152/2 139/139/2 
f 141/141/2 143/143/2 154/154/2 
f 154/154/2 153/153/2 141/141/2 
f 145/145/2 144/144/2 155/155/2 
f 155/155/2 156/156/2 145/145/2 
f 144/144/2 146/146/2 157/157/2 
f 157/157/2 155/155/2 144/144/2 
f 146/146/2 147/147/2 158/158/2 
f 158/158/2 157/157/2 146/146/2 
f 147/147/2 148/148/2 159/159/2 
f 159/159/2 158/158/2 147/147/2 
f 148/148/2 149/149/2 160/160/2 
f 160/160/2 159/159/2 148/148/2 
f 149/149/2 150/150/2 161/161/2 
f 161/161/2 160/160/2 149/149/2 
f 150/150/2 151/151/2 162/162/2 
f 162/162/2 161/161/2 150/150/2 
f 151/151/2 152/152/2 163/163/2 
f 163/163/2 162/162/2 151/151/2 
f 152/152/2 153/153/2 164/164/2 
f 164/164/2 163/163/2 152/152/2 
f 153/153/2 154/154/2 165/165/2 
f 165/165/2 164/164/2 153/153/2 
f 156/156/2 155/155/2 166/166/2 
f 166/166/2 167/167/2 156/156/2 
f 155/155/2 157/157/2 168/168/2 
f 168/168/2 166/166/2 155/155/2 
f 157/157/2 158/158/2 169/169/2 
f 169/169/2 168/168/2 157/157/2 
f 158/158/2 159/159/2 170/170/2 
f 170/170/2 169/169/2 158/158/2 
f 159/159/2 160/160/2 171/171/2 
f 171/171/2 170/170/2 159/159/2 
f 160/160/2 161/161/2 172/172/2 
f 172/172/2 171/171/2 160/160/2 
f 161/161/2 162/162/2 173/173/2 
f 173/173/2 172/172/2 161/161/2 
f 162/162/2 163/163/2 174/174/2 
f 174/174/2 173/173/2 162/162/2 
f 163/163/2 164/164/2 175/175/2 
f 175/175/2 174/174/2 163/163/2 
f 164/164/2 165/165/2 176/176/2 
f 176/176/2 175/175/2 164/164/2 
f 167/167/2 166/166/2 177/177/2 
f 177/177/2 178/178/2 167/167/2 
f 166/166/2 168/168/2 179/179/2 
f 179/179/2 177/177/2 166/166/2 
f 168/168/2 169/169/2 180/180/2 
f 180/180/2 179/179/2 168/168/2 
f 169/169/2 170/170/2 181/181/2 
f 181/181/2 180/180/2 169/169/2 
f 170/170/2 171/171/2 182/182/2 
f 182/182/2 181/181/2 170/170/2 
f 171/171/2 172/172/2 183/183/2 
f 183/183/2 182/182/2 171/171/2 
f 172/172/2 173/173/2 184/184/2 
f 184/184/2 183/183/2 172/172/2 
f 173/173/2 174/174/2 185/185/2 
f 185/185/2 184/184/2 173/173/2 
f 174/174/2 175/175/2 186/186/2 
f 186/186/2 185/185/2 174/174/2 
f 175/175/2 176/176/2 187/187/2 
f 187/187/2 186/186/2 175/175/2 
f 178/178/2 177/177/2 188/188/2 
f 188/188/2 189/189/2 178/178/2 
f 177/177/2 179/179/2 190/190/2 
f 190/190/2 188/188/2 177/177/2 
f 179/179/2 180/180/2 191/191/2 
f 191/191/2 190/190/2 179/179/2 
f 180/180/2 181/181/2 192/192/2 
f 192/192/2 191/191/2 180/180/2 
f 181/181/2 182/182/2 193/193/2 
f 193/193/2 192/192/2 181/181/2 
f 182/182/2 183/183/2 194/194/2 
f 194/194/2 193/193/2 182/182/2 
f 183/183/2 184/184/2 195/195/2 
f 195/195/2 194/194/2 183/183/2 
f 184/184/2 185/185/2 196/196/2 
f 196/196/2 195/195/2 184/184/2 
f 185/185/2 186/186/2 197/197/2 
f 197/197/2 196/196/2 185/185/2 
f 186/186/2 187/187/2 198/198/2 
f 198/198/2 197/197/2 186/186/2 
f 189/189/2 188/188/2 199/199/2 
f 199/199/2 200/200/2 189/189/2 
f 188/188/2 190/190/2 201/201/2 
f 201/201/2 199/199/2 188/188/2 
f 190/190/2 191/191/2 202/202/2 
f 202/202/2 201/201/2 190/190/2 
f 191/191/2 192/192/2 203/203/2 
f 203/203/2 202/202/2 191/191/2 
f 192/192/2 193/193/2 204/204/2 
f 204/204/2 203/203/2 192/192/2 
f 193/193/2 194/194/2 205/205/2 
f 205/205/2 204/204/2 193/193/2 
f 194/194/2 195/195/2 206/206/2 
f 206/206/2 205/205/2 194/194/2 
f 195/195/2 196/196/2 207/207/2 
f 207/207/2 206/206/2 195/195/2 
f 196/196/2 197/197/2 208/208/2 
f 208/208/2 207/207/2 196/196/2 
f 197/197/2 198/198/2 209/209/2 
f 209/209/2 208/208/2 197/197/2 
f 200/200/2 199/199/2 210/210/2 
f 210/210/2 211/211/2 200/200/2 
f 199/199/2 201/201/2 212/212/2 
f 212/212/2 210/210/2 199/199/2 
f 201/201/2 202/202/2 213/213/2 
f 213/213/2 212/212/2 201/201/2 
f 202/202/2 203/203/2 214/214/2 
f 214/214/2 213/213/2 202/202/2 
f 203/203/2 204/204/2 215/215/2 
f 215/215/2 214/214/2 203/203/2 
f 204/204/2 205/205/2 216/216/2 
f 216/216/2 215/215/2 204/204/2 
f 205/205/2 206/206/2 217/217/2 
f 217/217/2 216/216/2 205/205/2 
f 206/206/2 207/207/2 218/218/2 
f 218/218/2 217/217/2 206/206/2 
f 207/207/2 208/208/2 219/219/2 
f 219/219/2 218/218/2 207/207/2 
f 208/208/2 209/209/2 220/220/2 
f 220/220/2 219/219/2 208/208/2 
f 211/211/2 210/210/2 221/221/2 
f 221/221/2 222/222/2 211/211/2 
f 210/210/2 212/212/2 223/223/2 
f 223/223/2 221/221/2 210/210/2 
f 212/212/2 213/213/2 224/224/2 
f 224/224/2 223/223/2 212/212/2 
f 213/213/2 214/214/2 225/225/2 
f 225/225/2 224/224/2 213/213/2 
f 214/214/2 215/215/2 226/226/2 
f 226/226/2 225/225/2 214/214/2 
f 215/215/2 216/216/2 227/227/2 
f 227/227/2 226/226/2 215/215/2 
f 216/216/2 217/217/2 228/228/2 
f 228/228/2 227/227/2 216/216/2 
f 217/217/2 218/218/2 229/229/2 
f 229/229/2 228/228/2 217/217/2 
f 218/218/2 219/219/2 230/230/2 
f 230/230/2 229/229/2 218/218/2 
f 219/219/2 220/220/2 231/231/2 
f 231/231/2 230/230/2 219/219/2 
f 222/222/2 221/221/2 232/232/2 
f 232/232/2 233/233/2 222/222/2 
f 221/221/2 223/223/2 234/234/2 
f 234/234/2 232/232/2 221/221/2 
f 223/223/2 224/224/2 235/235/2 
f 235/235/2 234/234/2 223/223/2 
f 224/224/2 225/225/2 236/236/2 
f 236/236/2 235/235/2 224/224/2 
f 225/225/2 226/226/2 237/237/2 
f 237/237/2 236/236/2 225/225/2 
f 226/226/2 227/227/2 238/238/2 
f 238/238/2 237/237/2 226/226/2 
f 227/227/2 228/228/2 239/239/2 
f 239/239/2 238/238/2 227/227/2 
f 228/228/2 229/229/2 240/240/2 
f 240/240/2 239/239/2 228/228/2 
f 229/229/2 230/230/2 241/241/2 
f 241/241/2 240/240/2 229/229/2 
f 230/230/2 231/231/2 242/242/2 
f 242/242/2 241/241/2 230/230/2 
s 8
f 1/1/3 4/4/3 243/243/3 
f 243/243/3 244/244/3 1/1/3 
f 4/4/3 6/6/3 245/245/3 
f 245/245/3 243/243/3 4/4/3 
f 6/6/3 8/8/3 246/246/3 
f 246/246/3 245/245/3 6/6/3 
f 8/8/3 10/10/3 247/247/3 
f 247/247/3 246/246/3 8/8/3 
f 10/10/3 12/12/3 248/248/3 
f 248/248/3 247/247/3 10/10/3 
f 12/12/3 14/14/3 249/249/3 
f 249/249/3 248/248/3 12/12/3 
f 14/14/3 16/16/3 250/250/3 
f 250/250/3 249/249/3 14/14/3 
f 16/16/3 18/18/3 251/251/3 
f 251/251/3 250/250/3 16/16/3 
f 18/18/3 20/20/3 252/252/3 
f 252/252/3 251/251/3 18/18/3 
f 20/20/3 22/22/3 253/253/3 
f 253/253/3 252/252/3 20/20/3 
f 244/244/3 243/243/3 254/254/3 
f 254/254/3 255/255/3 244/244/3 
f 243/243/3 245/245/3 256/256/3 
f 256/256/3 254/254/3 243/243/3 
f 245/245/3 246/246/3 257/257/3 
f 257/257/3 256/256/3 245/245/3 
f 246/246/3 247/247/3 258/258/3 
f 258/258/3 257/257/3 246/246/3 
f 247/247/3 248/248/3 259/259/3 
f 259/259/3 258/258/3 247/247/3 
f 248/248/3 249/249/3 260/260/3 
f 260/260/3 259/259/3 248/248/3 
f 249/249/3 250/250/3 261/261/3 
f 261/261/3 260/260/3 249/249/3 
f 250/250/3 251/251/3 262/262/3 
f 262/262/3 261/261/3 250/250/3 
f 251/251/3 252/252/3 263/263/3 
f 263/263/3 262/262/3 251/251/3 
f 252/252/3 253/253/3 264/264/3 
f 264/264/3 263/263/3 252/252/3 
f 255/255/3 254/254/3 265/265/3 
f 265/265/3 266/266/3 255/255/3 
f 254/254/3 256/256/3 267/267/3 
f 267/267/3 265/265/3 254/254/3 
f 256/256/3 257/257/3 268/268/3 
f 268/268/3 267/267/3 256/256/3 
f 257/257/3 258/258/3 269/269/3 
f 269/269/3 268/268/3 257/257/3 
f 258/258/3 259/259/3 270/270/3 
f 270/270/3 269/269/3 258/258/3 
f 259/259/3 260/260/3 271/271/3 
f 271/271/3 270/270/3 259/259/3 
f 260/260/3 261/261/3 272/272/3 
f 272/272/3 271/271/3 260/260/3 
f 261/261/3 262/262/3 273/273/3 
f 273/273/3 272/272/3 261/261/3 
f 262/262/3 263/263/3 274/274/3 
f 274/274/3 273/273/3 262/262/3 
f 263/263/3 264/264/3 275/275/3 
f 275/275/3 274/274/3 263/263/3 
f 266/266/3 265/265/3 276/276/3 
f 276/276/3 277/277/3 266/266/3 
f 265/265/3 267/267/3 278/278/3 
f 278/278/3 276/276/3 265/265/3 
f 267/267/3 268/268/3 279/279/3 
f 279/279/3 278/278/3 267/267/3 
f 268/268/3 269/269/3 280/280/3 
f 280/280/3 279/279/3 268/268/3 
f 269/269/3 270/270/3 281/281/3 
f 281/281/3 280/280/3 269/269/3 
f 270/270/3 271/271/3 282/282/3 
f 282/282/3 281/281/3 270/270/3 
f 271/271/3 272/272/3 283/283/3 
f 283/283/3 282/282/3 271/271/3 
f 272/272/3 273/273/3 284/284/3 
f 284/284/3 283/283/3 272/272/3 
f 273/273/3 274/274/3 285/285/3 
f 285/285/3 284/284/3 273/273/3 
f 274/274/3 275/275/3 286/286/3 
f 286/286/3 285/285/3 274/274/3 
f 277/277/3 276/276/3 287/287/3 
f 287/287/3 288/288/3 277/277/3 
f 276/276/3 278/278/3 289/289/3 
f 289/289/3 287/287/3 276/276/3 
f 278/278/3 279/279/3 290/290/3 
f 290/290/3 289/289/3 278/278/3 
f 279/279/3 280/280/3 291/291/3 
f 291/291/3 290/290/3 279/279/3 
f 280/280/3 281/281/3 292/292/3 
f 292/292/3 291/291/3 280/280/3 
f 281/281/3 282/282/3 293/293/3 
f 293/293/3 292/292/3 281/281/3 
f 282/282/3 283/283/3 294/294/3 
f 294/294/3 293/293/3 282/282/3 
f 283/283/3 284/284/3 295/295/3 
f 295/295/3 294/294/3 283/283/3 
f 284/284/3 285/285/3 296/296/3 
f 296/296/3 295/295/3 284/284/3 
f 285/285/3 286/286/3 297/297/3 
f 297/297/3 296/296/3 285/285/3 
f 288/288/3 287/287/3 298/298/3 
f 298/298/3 299/299/3 288/288/3 
f 287/287/3 289/289/3 300/300/3 
f 300/300/3 298/298/3 287/287/3 
f 289/289/3 290/290/3 301/301/3 
f 301/301/3 300/300/3 289/289/3 
f 290/290/3 291/291/3 302/302/3 
f 302/302/3 301/301/3 290/290/3 
f 291/291/3 292/292/3 303/303/3 
f 303/303/3 302/302/3 291/291/3 
f 292/292/3 293/293/3 304/304/3 
f 304/304/3 303/303/3 292/292/3 
f 293/293/3 294/294/3 305/305/3 
f 305/305/3 304/304/3 293/293/3 
f 294/294/3 295/295/3 306/306/3 
f 306/306/3 305/305/3 294/294/3 
f 295/295/3 296/296/3 307/307/3 
f 307/307/3 306/306/3 295/295/3 
f 296/296/3 297/297/3 308/308/3 
f 308/308/3 307/307/3 296/296/3 
f 299/299/3 298/298/3 309/309/3 
f 309/309/3 310/310/3 299/299/3 
f 298/298/3 300/300/3 311/311/3 
f 311/311/3 309/309/3 298/298/3 
f 300/300/3 301/301/3 312/312/3 
f 312/312/3 311/311/3 300/300/3 
f 301/301/3 302/302/3 313/313/3 
f 313/313/3 312/312/3 301/301/3 
f 302/302/3 303/303/3 314/314/3 
f 314/314/3 313/313/3 302/302/3 
f 303/303/3 304/304/3 315/315/3 
f 315/315/3 314/314/3 303/303/3 
f 304/304/3 305/305/3 316/316/3 
f 316/316/3 315/315/3 304/304/3 
f 305/305/3 306/306/3 317/317/3 
f 317/317/3 316/316/3 305/305/3 
f 306/306/3 307/307/3 318/318/3 
f 318/318/3 317/317/3 306/306/3 
f 307/307/3 308/308/3 319/319/3 
f 319/319/3 318/318/3 307/307/3 
f 310/310/3 309/309/3 320/320/3 
f 320/320/3 321/321/3 310/310/3 
f 309/309/3 311/311/3 322/322/3 
f 322/322/3 320/320/3 309/309/3 
f 311/311/3 312/312/3 323/323/3 
f 323/323/3 322/322/3 311/311/3 
f 312/312/3 313/313/3 324/324/3 
f 324/324/3 323/323/3 312/312/3 
f 313/313/3 314/314/3 325/325/3 
f 325/325/3 324/324/3 313/313/3 
f 314/314/3 315/315/3 326/326/3 
f 326/326/3 325/325/3 314/314/3 
f 315/315/3 316/316/3 327/327/3 
f 327/327/3 326/326/3 315/315/3 
f 316/316/3 317/317/3 328/328/3 
f 328/328/3 327/327/3 316/316/3 
f 317/317/3 318/318/3 329/329/3 
f 329/329/3 328/328/3 317/317/3 
f 318/318/3 319/319/3 330/330/3 
f 330/330/3 329/329/3 318/318/3 
f 321/321/3 320/320/3 331/331/3 
f 331/331/3 332/332/3 321/321/3 
f 320/320/3 322/322/3 333/333/3 
f 333/333/3 331/331/3 320/320/3 
f 322/322/3 323/323/3 334/334/3 
f 334/334/3 333/333/3 322/322/3 
f 323/323/3 324/324/3 335/335/3 
f 335/335/3 334/334/3 323/323/3 
f 324/324/3 325/325/3 336/336/3 
f 336/336/3 335/335/3 324/324/3 
f 325/325/3 326/326/3 337/337/3 
f 337/337/3 336/336/3 325/325/3 
f 326/326/3 327/327/3 338/338/3 
f 338/338/3 337/337/3 326/326/3 
f 327/327/3 328/328/3 339/339/3 
f 339/339/3 338/338/3 327/327/3 
f 328/328/3 329/329/3 340/340/3 
f 340/340/3 339/339/3 328/328/3 
f 329/329/3 330/330/3 341/341/3 
f 341/341/3 340/340/3 329/329/3 
f 332/332/3 331/331/3 123/123/3 
f 123/123/3 122/122/3 332/332/3 
f 331/331/3 333/333/3 126/126/3 
f 126/126/3 123/123/3 331/331/3 
f 333/333/3 334/334/3 128/128/3 
f 128/128/3 126/126/3 333/333/3 
f 334/334/3 335/335/3 130/130/3 
f 130/130/3 128/128/3 334/334/3 
f 335/335/3 336/336/3 132/132/3 
f 132/132/3 130/130/3 335/335/3 
f 336/336/3 337/337/3 134/134/3 
f 134/134/3 132/132/3 336/336/3 
f 337/337/3 338/338/3 136/136/3 
f 136/136/3 134/134/3 337/337/3 
f 338/338/3 339/339/3 138/138/3 
f 138/138/3 136/136/3 338/338/3 
f 339/339/3 340/340/3 140/140/3 
f 140/140/3 138/138/3 339/339/3 
f 340/340/3 341/341/3 142/142/3 
f 142/142/3 140/140/3 340/340/3 
s 16
f 22/22/4 21/21/4 342/342/4 
f 342/342/4 253/253/4 22/22/4 
f 21/21/4 33/33/4 343/343/4 
f 343/343/4 342/342/4 21/21/4 
f 33/33/4 44/44/4 344/344/4 
f 344/344/4 343/343/4 33/33/4 
f 44/44/4 55/55/4 345/345/4 
f 345/345/4 344/344/4 44/44/4 
f 55/55/4 66/66/4 346/346/4 
f 346/346/4 345/345/4 55/55/4 
f 66/66/4 77/77/4 347/347/4 
f 347/347/4 346/346/4 66/66/4 
f 77/77/4 88/88/4 348/348/4 
f 348/348/4 347/347/4 77/77/4 
f 88/88/4 99/99/4 349/349/4 
f 349/349/4 348/348/4 88/88/4 
f 99/99/4 110/110/4 350/350/4 
f 350/350/4 349/349/4 99/99/4 
f 110/110/4 121/121/4 351/351/4 
f 351/351/4 350/350/4 110/110/4 
f 253/253/4 342/342/4 352/352/4 
f 352/352/4 264/264/4 253/253/4 
f 342/342/4 343/343/4 353/353/4 
f 353/353/4 352/352/4 342/342/4 
f 343/343/4 344/344/4 354/354/4 
f 354/354/4 353/353/4 343/343/4 
f 344/344/4 345/345/4 355/355/4 
f 355/355/4 354/354/4 344/344/4 
f 345/345/4 346/346/4 356/356/4 
f 356/356/4 355/355/4 345/345/4 
f 346/346/4 347/347/4 357/357/4 
f 357/357/4 356/356/4 346/346/4 
f 347/347/4 348/348/4 358/358/4 
f 358/358/4 357/357/4 347/347/4 
f 348/348/4 349/349/4 359/359/4 
f 359/359/4 358/358/4 348/348/4 
f 349/349/4 350/350/4 360/360/4 
f 360/360/4 359/359/4 349/349/4 
f 350/350/4 351/351/4 361/361/4 
f 361/361/4 360/360/4 350/350/4 
f 264/264/4 352/352/4 362/362/4 
f 362/362/4 275/275/4 264/264/4 
f 352/352/4 353/353/4 363/363/4 
f 363/363/4 362/362/4 352/352/4 
f 353/353/4 354/354/4 364/364/4 
f 364/364/4 363/363/4 353/353/4 
f 354/354/4 355/355/4 365/365/4 
f 365/365/4 364/364/4 354/354/4 
f 355/355/4 356/356/4 366/366/4 
f 366/366/4 365/365/4 355/355/4 
f 356/356/4 357/357/4 367/367/4 
f 367/367/4 366/366/4 356/356/4 
f 357/357/4 358/358/4 368/368/4 
f 368/368/4 367/367/4 357/357/4 
f 358/358/4 359/359/4 369/369/4 
f 369/369/4 368/368/4 358/358/4 
f 359/359/4 360/360/4 370/370/4 
f 370/370/4 369/369/4 359/359/4 
f 360/360/4 361/361/4 371/371/4 
f 371/371/4 370/370/4 360/360/4 
f 275/275/4 362/362/4 372/372/4 
f 372/372/4 286/286/4 275/275/4 
f 362/362/4 363/363/4 373/373/4 
f 373/373/4 372/372/4 362/362/4 
f 363/363/4 364/364/4 374/374/4 
f 374/374/4 373/373/4 363/363/4 
f 364/364/4 365/365/4 375/375/4 
f 375/375/4 374/374/4 364/364/4 
f 365/365/4 366/366/4 376/376/4 
f 376/376/4 375/375/4 365/365/4 
f 366/366/4 367/367/4 377/377/4 
f 377/377/4 376/376/4 366/366/4 
f 367/367/4 368/368/4 378/378/4 
f 378/378/4 377/377/4 367/367/4 
f 368/368/4 369/369/4 379/379/4 
f 379/379/4 378/378/4 368/368/4 
f 369/369/4 370/370/4 380/380/4 
f 380/380/4 379/379/4 369/369/4 
f 370/370/4 371/371/4 381/381/4 
f 381/381/4 380/380/4 370/370/4 
f 286/286/4 372/372/4 382/382/4 
f 382/382/4 297/297/4 286/286/4 
f 372/372/4 373/373/4 383/383/4 
f 383/383/4 382/382/4 372/372/4 
f 373/373/4 374/374/4 384/384/4 
f 384/384/4 383/383/4 373/373/4 
f 374/374/4 375/375/4 385/385/4 
f 385/385/4 384/384/4 374/374/4 
f 375/375/4 376/376/4 386/386/4 
f 386/386/4 385/385/4 375/375/4 
f 376/376/4 377/377/4 387/387/4 
f 387/387/4 386/386/4 376/376/4 
f 377/377/4 378/378/4 388/388/4 
f 388/388/4 387/387/4 377/377/4 
f 378/378/4 379/379/4 389/389/4 
f 389/389/4 388/388/4 378/378/4 
f 379/379/4 380/380/4 390/390/4 
f 390/390/4 389/389/4 379/379/4 
f 380/380/4 381/381/4 391/391/4 
f 391/391/4 390/390/4 380/380/4 
f 297/297/4 382/382/4 392/392/4 
f 392/392/4 308/308/4 297/297/4 
f 382/382/4 383/383/4 393/393/4 
f 393/393/4 392/392/4 382/382/4 
f 383/383/4 384/384/4 394/394/4 
f 394/394/4 393/393/4 383/383/4 
f 384/384/4 385/385/4 395/395/4 
f 395/395/4 394/394/4 384/384/4 
f 385/385/4 386/386/4 396/396/4 
f 396/396/4 395/395/4 385/385/4 
f 386/386/4 387/387/4 397/397/4 
f 397/397/4 396/396/4 386/386/4 
f 387/387/4 388/388/4 398/398/4 
f 398/398/4 397/397/4 387/387/4 
f 388/388/4 389/389/4 399/399/4 
f 399/399/4 398/398/4 388/388/4 
f 389/389/4 390/390/4 400/400/4 
f 400/400/4 399/399/4 389/389/4 
f 390/390/4 391/391/4 401/401/4 
f 401/401/4 400/400/4 390/390/4 
f 308/308/4 392/392/4 402/402/4 
f 402/402/4 319/319/4 308/308/4 
f 392/392/4 393/393/4 403/403/4 
f 403/403/4 402/402/4 392/392/4 
f 393/393/4 394/394/4 404/404/4 
f 404/404/4 403/403/4 393/393/4 
f 394/394/4 395/395/4 405/405/4 
f 405/405/4 404/404/4 394/394/4 
f 395/395/4 396/396/4 406/406/4 
f 406/406/4 405/405/4 395/395/4 
f 396/396/4 397/397/4 407/407/4 
f 407/407/4 406/406/4 396/396/4 
f 397/397/4 398/398/4 408/408/4 
f 408/408/4 407/407/4 397/397/4 
f 398/398/4 399/399/4 409/409/4 
f 409/409/4 408/408/4 398/398/4 
f 399/399/4 400/400/4 410/410/4 
f 410/410/4 409/409/4 399/399/4 
f 400/400/4 401/401/4 411/411/4 
f 411/411/4 410/410/4 400/400/4 
f 319/319/4 402/402/4 412/412/4 
f 412/412/4 330/330/4 319/319/4 
f 402/402/4 403/403/4 413/413/4 
f 413/413/4 412/412/4 402/402/4 
f 403/403/4 404/404/4 414/414/4 
f 414/414/4 413/413/4 403/403/4 
f 404/404/4 405/405/4 415/415/4 
f 415/415/4 414/414/4 404/404/4 
f 405/405/4 406/406/4 416/416/4 
f 416/416/4 415/415/4 405/405/4 
f 406/406/4 407/407/4 417/417/4 
f 417/417/4 416/416/4 406/406/4 
f 407/407/4 408/408/4 418/418/4 
f 418/418/4 417/417/4 407/407/4 
f 408/408/4 409/409/4 419/419/4 
f 419/419/4 418/418/4 408/408/4 
f 409/409/4 410/410/4 420/420/4 
f 420/420/4 419/419/4 409/409/4 
f 410/410/4 411/411/4 421/421/4 
f 421/421/4 420/420/4 410/410/4 
f 330/330/4 412/412/4 422/422/4 
f 422/422/4 341/341/4 330/330/4 
f 412/412/4 413/413/4 423/423/4 
f 423/423/4 422/422/4 412/412/4 
f 413/413/4 414/414/4 424/424/4 
f 424/424/4 423/423/4 413/413/4 
f 414/414/4 415/415/4 425/425/4 
f 425/425/4 424/424/4 414/414/4 
f 415/415/4 416/416/4 426/426/4 
f 426/426/4 425/425/4 415/415/4 
f 416/416/4 417/417/4 427/427/4 
f 427/427/4 426/426/4 416/416/4 
f 417/417/4 418/418/4 428/428/4 
f 428/428/4 427/427/4 417/417/4 
f 418/418/4 419/419/4 429/429/4 
f 429/429/4 428/428/4 418/418/4 
f 419/419/4 420/420/4 430/430/4 
f 430/430/4 429/429/4 419/419/4 
f 420/420/4 421/421/4 431/431/4 
f 431/431/4 430/430/4 420/420/4 
f 341/341/4 422/422/4 143/143/4 
f 143/143/4 142/142/4 341/341/4 
f 422/422/4 423/423/4 154/154/4 
f 154/154/4 143/143/4 422/422/4 
f 423/423/4 424/424/4 165/165/4 
f 165/165/4 154/154/4 423/423/4 
f 424/424/4 425/425/4 176/176/4 
f 176/176/4 165/165/4 424/424/4 
f 425/425/4 426/426/4 187/187/4 
f 187/187/4 176/176/4 425/425/4 
f 426/426/4 427/427/4 198/198/4 
f 198/198/4 187/187/4 426/426/4 
f 427/427/4 428/428/4 209/209/4 
f 209/209/4 198/198/4 427/427/4 
f 428/428/4 429/429/4 220/220/4 
f 220/220/4 209/209/4 428/428/4 
f 429/429/4 430/430/4 231/231/4 
f 231/231/4 220/220/4 429/429/4 
f 430/430/4 431/431/4 242/242/4 
f 242/242/4 231/231/4 430/430/4 
s 32
f 121/121/5 120/120/5 432/432/5 
f 432/432/5 351/351/5 121/121/5 
f 120/120/5 119/119/5 433/433/5 
f 433/433/5 432/432/5 120/120/5 
f 119/119/5 118/118/5 434/434/5 
f 434/434/5 433/433/5 119/119/5 
f 118/118/5 117/117/5 435/435/5 
f 435/435/5 434/434/5 118/118/5 
f 117/117/5 116/116/5 436/436/5 
f 436/436/5 435/435/5 117/117/5 
f 116/116/5 115/115/5 437/437/5 
f 437/437/5 436/436/5 116/116/5 
f 115/115/5 114/114/5 438/438/5 
f 438/438/5 437/437/5 115/115/5 
f 114/114/5 113/113/5 439/439/5 
f 439/439/5 438/438/5 114/114/5 
f 113/113/5 112/112/5 440/440/5 
f 440/440/5 439/439/5 113/113/5 
f 112/112/5 111/111/5 441/441/5 
f 441/441/5 440/440/5 112/112/5 
f 351/351/5 432/432/5 442/442/5 
f 442/442/5 361/361/5 351/351/5 
f 432/432/5 433/433/5 443/443/5 
f 443/443/5 442/442/5 432/432/5 
f 433/433/5 434/434/5 444/444/5 
f 444/444/5 443/443/5 433/433/5 
f 434/434/5 435/435/5 445/445/5 
f 445/445/5 444/444/5 434/434/5 
f 435/435/5 436/436/5 446/446/5 
f 446/446/5 445/445/5 435/435/5 
f 436/436/5 437/437/5 447/447/5 
f 447/447/5 446/446/5 436/436/5 
f 437/437/5 438/438/5 448/448/5 
f 448/448/5 447/447/5 437/437/5 
f 438/438/5 439/439/5 449/449/5 
f 449/449/5 448/448/5 438/438/5 
f 439/439/5 440/440/5 450/450/5 
f 450/450/5 449/449/5 439/439/5 
f 440/440/5 441/441/5 451/451/5 
f 451/451/5 450/450/5 440/440/5 
f 361/361/5 442/442/5 452/452/5 
f 452/452/5 371/371/5 361/361/5 
f 442/442/5 443/443/5 453/453/5 
f 453/453/5 452/452/5 442/442/5 
f 443/443/5 444/444/5 454/454/5 
f 454/454/5 453/453/5 443/443/5 
f 444/444/5 445/445/5 455/455/5 
f 455/455/5 454/454/5 444/444/5 
f 445/445/5 446/446/5 456/456/5 
f 456/456/5 455/455/5 445/445/5 
f 446/446/5 447/447/5 457/457/5 
f 457/457/5 456/456/5 446/446/5 
f 447/447/5 448/448/5 458/458/5 
f 458/458/5 457/457/5 447/447/5 
f 448/448/5 449/449/5 459/459/5 
f 459/459/5 458/458/5 448/448/5 
f 449/449/5 450/450/5 460/460/5 
f 460/460/5 459/459/5 449/449/5 
f 450/450/5 451/451/5 461/461/5 
f 461/461/5 460/460/5 450/450/5 
f 371/371/5 452/452/5 462/462/5 
f 462/462/5 381/381/5 371/371/5 
f 452/452/5 453/453/5 463/463/5 
f 463/463/5 462/462/5 452/452/5 
f 453/453/5 454/454/5 464/464/5 
f 464/464/5 463/463/5 453/453/5 
f 454/454/5 455/455/5 465/465/5 
f 465/465/5 464/464/5 454/454/5 
f 455/455/5 456/456/5 466/466/5 
f 466/466/5 465/465/5 455/455/5 
f 456/456/5 457/457/5 467/467/5 
f 467/467/5 466/466/5 456/456/5 
f 457/457/5 458/458/5 468/468/5 
f 468/468/5 467/467/5 457/457/5 
f 458/458/5 459/459/5 469/469/5 
f 469/469/5 468/468/5 458/458/5 
f 459/459/5 460/460/5 470/470/5 
f 470/470/5 469/469/5 459/459/5 
f 460/460/5 461/461/5 471/471/5 
f 471/471/5 470/470/5 460/460/5 
f 381/381/5 462/462/5 472/472/5 
f 472/472/5 391/391/5 381/381/5 
f 462/462/5 463/463/5 473/473/5 
f 473/473/5 472/472/5 462/462/5 
f 463/463/5 464/464/5 474/474/5 
f 474/474/5 473/473/5 463/463/5 
f 464/464/5 465/465/5 475/475/5 
f 475/475/5 474/474/5 464/464/5 
f 465/465/5 466/466/5 476/476/5 
f 476/476/5 475/475/5 465/465/5 
f 466/466/5 467/467/5 477/477/5 
f 477/477/5 476/476/5 466/466/5 
f 467/467/5 468/468/5 478/478/5 
f 478/478/5 477/477/5 467/467/5 
f 468/468/5 469/469/5 479/479/5 
f 479/479/5 478/478/5 468/468/5 
f 469/469/5 470/470/5 480/480/5 
f 480/480/5 479/479/5 469/469/5 
f 470/470/5 471/471/5 481/481/5 
f 481/481/5 480/480/5 470/470/5 
f 391/391/5 472/472/5 482/482/5 
f 482/482/5 401/401/5 391/391/5 
f 472/472/5 473/473/5 483/483/5 
f 483/483/5 482/482/5 472/472/5 
f 473/473/5 474/474/5 484/484/5 
f 484/484/5 483/483/5 473/473/5 
f 474/474/5 475/475/5 485/485/5 
f 485/485/5 484/484/5 474/474/5 
f 475/475/5 476/476/5 486/486/5 
f 486/486/5 485/485/5 475/475/5 
f 476/476/5 477/477/5 487/487/5 
f 487/487/5 486/486/5 476/476/5 
f 477/477/5 478/478/5 488/488/5 
f 488/488/5 487/487/5 477/477/5 
f 478/478/5 479/479/5 489/489/5 
f 489/489/5 488/488/5 478/478/5 
f 479/479/5 480/480/5 490/490/5 
f 490/490/5 489/489/5 479/479/5 
f 480/480/5 481/481/5 491/491/5 
f 491/491/5 490/490/5 480/480/5 
f 401/401/5 482/482/5 492/492/5 
f 492/492/5 411/411/5 401/401/5 
f 482/482/5 483/483/5 493/493/5 
f 493/493/5 492/492/5 482/482/5 
f 483/483/5 484/484/5 494/494/5 
f 494/494/5 493/493/5 483/483/5 
f 484/484/5 485/485/5 495/495/5 
f 495/495/5 494/494/5 484/484/5 
f 485/485/5 486/486/5 496/496/5 
f 496/496/5 495/495/5 485/485/5 
f 486/486/5 487/487/5 497/497/5 
f 497/497/5 496/496/5 486/486/5 
f 487/487/5 488/488/5 498/498/5 
f 498/498/5 497/497/5 487/487/5 
f 488/488/5 489/489/5 499/499/5 
f 499/499/5 498/498/5 488/488/5 
f 489/489/5 490/490/5 500/500/5 
f 500/500/5 499/499/5 489/489/5 
f 490/490/5 491/491/5 501/501/5 
f 501/501/5 500/500/5 490/490/5 
f 411/411/5 492/492/5 502/502/5 
f 502/502/5 421/421/5 411/411/5 
f 492/492/5 493/493/5 503/503/5 
f 503/503/5 502/502/5 492/492/5 
f 493/493/5 494/494/5 504/504/5 
f 504/504/5 503/503/5 493/493/5 
f 494/494/5 495/495/5 505/505/5 
f 505/505/5 504/504/5 494/494/5 
f 495/495/5 496/496/5 506/506/5 
f 506/506/5 505/505/5 495/495/5 
f 496/496/5 497/497/5 507/507/5 
f 507/507/5 506/506/5 496/496/5 
f 497/497/5 498/498/5 508/508/5 
f 508/508/5 507/507/5 497/497/5 
f 498/498/5 499/499/5 509/509/5 
f 509/509/5 508/508/5 498/498/5 
f 499/499/5 500/500/5 510/510/5 
f 510/510/5 509/509/5 499/499/5 
f 500/500/5 501/501/5 511/511/5 
f 511/511/5 510/510/5 500/500/5 
f 421/421/5 502/502/5 512/512/5 
f 512/512/5 431/431/5 421/421/5 
f 502/502/5 503/503/5 513/513/5 
f 513/513/5 512/512/5 502/502/5 
f 503/503/5 504/504/5 514/514/5 
f 514/514/5 513/513/5 503/503/5 
f 504/504/5 505/505/5 515/515/5 
f 515/515/5 514/514/5 504/504/5 
f 505/505/5 506/506/5 516/516/5 
f 516/516/5 515/515/5 505/505/5 
f 506/506/5 507/507/5 517/517/5 
f 517/517/5 516/516/5 506/506/5 
f 507/507/5 508/508/5 518/518/5 
f 518/518/5 517/517/5 507/507/5 
f 508/508/5 509/509/5 519/519/5 
f 519/519/5 518/518/5 508/508/5 
f 509/509/5 510/510/5 520/520/5 
f 520/520/5 519/519/5 509/509/5 
f 510/510/5 511/511/5 521/521/5 
f 521/521/5 520/520/5 510/510/5 
f 431/431/5 512/512/5 241/241/5 
f 241/241/5 242/242/5 431/431/5 
f 512/512/5 513/513/5 240/240/5 
f 240/240/5 241/241/5 512/512/5 
f 513/513/5 514/514/5 239/239/5 
f 239/239/5 240/240/5 513/513/5 
f 514/514/5 515/515/5 238/238/5 
f 238/238/5 239/239/5 514/514/5 
f 515/515/5 516/516/5 237/237/5 
f 237/237/5 238/238/5 515/515/5 
f 516/516/5 517/517/5 236/236/5 
f 236/236/5 237/237/5 516/516/5 
f 517/517/5 518/518/5 235/235/5 
f 235/235/5 236/236/5 517/517/5 
f 518/518/5 519/519/5 234/234/5 
f 234/234/5 235/235/5 518/518/5 
f 519/519/5 520/520/5 232/232/5 
f 232/232/5 234/234/5 519/519/5 
f 520/520/5 521/521/5 233/233/5 
f 233/233/5 232/232/5 520/520/5 
s 64
f 111/111/6 100/100/6 522/522/6 
f 522/522/6 441/441/6 111/111/6 
f 100/100/6 89/89/6 523/523/6 
f 523/523/6 522/522/6 100/100/6 
f 89/89/6 78/78/6 524/524/6 
f 524/524/6 523/523/6 89/89/6 
f 78/78/6 67/67/6 525/525/6 
f 525/525/6 524/524/6 78/78/6 
f 67/67/6 56/56/6 526/526/6 
f 526/526/6 525/525/6 67/67/6 
f 56/56/6 45/45/6 527/527/6 
f 527/527/6 526/526/6 56/56/6 
f 45/45/6 34/34/6 528/528/6 
f 528/528/6 527/527/6 45/45/6 
f 34/34/6 23/23/6 529/529/6 
f 529/529/6 528/528/6 34/34/6 
f 23/23/6 2/2/6 530/530/6 
f 530/530/6 529/529/6 23/23/6 
f 2/2/6 1/1/6 244/244/6 
f 244/244/6 530/530/6 2/2/6 
f 441/441/6 522/522/6 531/531/6 
f 531/531/6 451/451/6 441/441/6 
f 522/522/6 523/523/6 532/532/6 
f 532/532/6 531/531/6 522/522/6 
f 523/523/6 524/524/6 533/533/6 
f 533/533/6 532/532/6 523/523/6 
f 524/524/6 525/525/6 534/534/6 
f 534/534/6 533/533/6 524/524/6 
f 525/525/6 526/526/6 535/535/6 
f 535/535/6 534/534/6 525/525/6 
f 526/526/6 527/527/6 536/536/6 
f 536/536/6 535/535/6 526/526/6 
f 527/527/6 528/528/6 537/537/6 
f 537/537/6 536/536/6 527/527/6 
f 528/528/6 529/529/6 538/538/6 
f 538/538/6 537/537/6 528/528/6 
f 529/529/6 530/530/6 539/539/6 
f 539/539/6 538/538/6 529/529/6 
f 530/530/6 244/244/6 255/255/6 
f 255/255/6 539/539/6 530/530/6 
f 451/451/6 531/531/6 540/540/6 
f 540/540/6 461/461/6 451/451/6 
f 531/531/6 532/532/6 541/541/6 
f 541/541/6 540/540/6 531/531/6 
f 532/532/6 533/533/6 542/542/6 
f 542/542/6 541/541/6 532/532/6 
f 533/533/6 534/534/6 543/543/6 
f 543/543/6 542/542/6 533/533/6 
f 534/534/6 535/535/6 544/544/6 
f 544/544/6 543/543/6 534/534/6 
f 535/535/6 536/536/6 545/545/6 
f 545/545/6 544/544/6 535/535/6 
f 536/536/6 537/537/6 546/546/6 
f 546/546/6 545/545/6 536/536/6 
f 537/537/6 538/538/6 547/547/6 
f 547/547/6 546/546/6 537/537/6 
f 538/538/6 539/539/6 548/548/6 
f 548/548/6 547/547/6 538/538/6 
f 539/539/6 255/255/6 266/266/6 
f 266/266/6 548/548/6 539/539/6 
f 461/461/6 540/540/6 549/549/6 
f 549/549/6 471/471/6 461/461/6 
f 540/540/6 541/541/6 550/550/6 
f 550/550/6 549/549/6 540/540/6 
f 541/541/6 542/542/6 551/551/6 
f 551/551/6 550/550/6 541/541/6 
f 542/542/6 543/543/6 552/552/6 
f 552/552/6 551/551/6 542/542/6 
f 543/543/6 544/544/6 553/553/6 
f 553/553/6 552/552/6 543/543/6 
f 544/544/6 545/545/6 554/554/6 
f 554/554/6 553/553/6 544/544/6 
f 545/545/6 546/546/6 555/555/6 
f 555/555/6 554/554/6 545/545/6 
f 546/546/6 547/547/6 556/556/6 
f 556/556/6 555/555/6 546/546/6 
f 547/547/6 548/548/6 557/557/6 
f 557/557/6 556/556/6 547/547/6 
f 548/548/6 266/266/6 277/277/6 
f 277/277/6 557/557/6 548/548/6 
f 471/471/6 549/549/6 558/558/6 
f 558/558/6 481/481/6 471/471/6 
f 549/549/6 550/550/6 559/559/6 
f 559/559/6 558/558/6 549/549/6 
f 550/550/6 551/551/6 560/560/6 
f 560/560/6 559/559/6 550/550/6 
f 551/551/6 552/552/6 561/561/6 
f 561/561/6 560/560/6 551/551/6 
f 552/552/6 553/553/6 562/562/6 
f 562/562/6 561/561/6 552/552/6 
f 553/553/6 554/554/6 563/563/6 
f 563/563/6 562/562/6 553/553/6 
f 554/554/6 555/555/6 564/564/6 
f 564/564/6 563/563/6 554/554/6 
f 555/555/6 556/556/6 565/565/6 
f 565/565/6 564/564/6 555/555/6 
f 556/556/6 557/557/6 566/566/6 
f 566/566/6 565/565/6 556/556/6 
f 557/557/6 277/277/6 288/288/6 
f 288/288/6 566/566/6 557/557/6 
f 481/481/6 558/558/6 567/567/6 
f 567/567/6 491/491/6 481/481/6 
f 558/558/6 559/559/6 568/568/6 
f 568/568/6 567/567/6 558/558/6 
f 559/559/6 560/560/6 569/569/6 
f 569/569/6 568/568/6 559/559/6 
f 560/560/6 561/561/6 570/570/6 
f 570/570/6 569/569/6 560/560/6 
f 561/561/6 562/562/6 571/571/6 
f 571/571/6 570/570/6 561/561/6 
f 562/562/6 563/563/6 572/572/6 
f 572/572/6 571/571/6 562/562/6 
f 563/563/6 564/564/6 573/573/6 
f 573/573/6 572/572/6 563/563/6 
f 564/564/6 565/565/6 574/574/6 
f 574/574/6 573/573/6 564/564/6 
f 565/565/6 566/566/6 575/575/6 
f 575/575/6 574/574/6 565/565/6 
f 566/566/6 288/288/6 299/299/6 
f 299/299/6 575/575/6 566/566/6 
f 491/491/6 567/567/6 576/576/6 
f 576/576/6 501/501/6 491/491/6 
f 567/567/6 568/568/6 577/577/6 
f 577/577/6 576/576/6 567/567/6 
f 568/568/6 569/569/6 578/578/6 
f 578/578/6 577/577/6 568/568/6 
f 569/569/6 570/570/6 579/579/6 
f 579/579/6 578/578/6 569/569/6 
f 570/570/6 571/571/6 580/580/6 
f 580/580/6 579/579/6 570/570/6 
f 571/571/6 572/572/6 581/581/6 
f 581/581/6 580/580/6 571/571/6 
f 572/572/6 573/573/6 582/582/6 
f 582/582/6 581/581/6 572/572/6 
f 573/573/6 574/574/6 583/583/6 
f 583/583/6 582/582/6 573/573/6 
f 574/574/6 575/575/6 584/584/6 
f 584/584/6 583/583/6 574/574/6 
f 575/575/6 299/299/6 310/310/6 
f 310/310/6 584/584/6 575/575/6 
f 501/501/6 576/576/6 585/585/6 
f 585/585/6 511/511/6 501/501/6 
f 576/576/6 577/577/6 586/586/6 
f 586/586/6 585/585/6 576/576/6 
f 577/577/6 578/578/6 587/587/6 
f 587/587/6 586/586/6 577/577/6 
f 578/578/6 579/579/6 588/588/6 
f 588/588/6 587/587/6 578/578/6 
f 579/579/6 580/580/6 589/589/6 
f 589/589/6 588/588/6 579/579/6 
f 580/580/6 581/581/6 590/590/6 
f 590/590/6 589/589/6 580/580/6 
f 581/581/6 582/582/6 591/591/6 
f 591/591/6 590/590/6 581/581/6 
f 582/582/6 583/583/6 592/592/6 
f 592/592/6 591/591/6 582/582/6 
f 583/583/6 584/584/6 593/593/6 
f 593/593/6 592/592/6 583/583/6 
f 584/584/6 310/310/6 321/321/6 
f 321/321/6 593/593/6 584/584/6 
f 511/511/6 585/585/6 594/594/6 
f 594/594/6 521/521/6 511/511/6 
f 585/585/6 586/586/6 595/595/6 
f 595/595/6 594/594/6 585/585/6 
f 586/586/6 587/587/6 596/596/6 
f 596/596/6 595/595/6 586/586/6 
f 587/587/6 588/588/6 597/597/6 
f 597/597/6 596/596/6 587/587/6 
f 588/588/6 589/589/6 598/598/6 
f 598/598/6 597/597/6 588/588/6 
f 589/589/6 590/590/6 599/599/6 
f 599/599/6 598/598/6 589/589/6 
f 590/590/6 591/591/6 600/600/6 
f 600/600/6 599/599/6 590/590/6 
f 591/591/6 592/592/6 601/601/6 
f 601/601/6 600/600/6 591/591/6 
f 592/592/6 593/593/6 602/602/6 
f 602/602/6 601/601/6 592/592/6 
f 593/593/6 321/321/6 332/332/6 
f 332/332/6 602/602/6 593/593/6 
f 521/521/6 594/594/6 222/222/6 
f 222/222/6 233/233/6 521/521/6 
f 594/594/6 595/595/6 211/211/6 
f 211/211/6 222/222/6 594/594/6 
f 595/595/6 596/596/6 200/200/6 
f 200/200/6 211/211/6 595/595/6 
f 596/596/6 597/597/6 189/189/6 
f 189/189/6 200/200/6 596/596/6 
f 597/597/6 598/598/6 178/178/6 
f 178/178/6 189/189/6 597/597/6 
f 598/598/6 599/599/6 167/167/6 
f 167/167/6 178/178/6 598/598/6 
f 599/599/6 600/600/6 156/156/6 
f 156/156/6 167/167/6 599/599/6 
f 600/600/6 601/601/6 145/145/6 
f 145/145/6 156/156/6 600/600/6 
f 601/601/6 602/602/6 125/125/6 
f 125/125/6 145/145/6 601/601/6 
f 602/602/6 332/332/6 122/122/6 
f 122/122/6 125/125/6 602/602/6 
# 0 polygons - 1200 triangles

