# 3ds Max Wavefront OBJ Exporter v0.99 - (c)2007 guruware
# File Created: 10.05.2025 14:21:50

mtllib Alumno2SubRightLeg.mtl

#
# object Alumno2SubRightLeg
#

v  0.2459 -0.0235 0.0293
v  0.2433 -0.0377 -0.0081
v  0.2453 0.0038 -0.0112
v  0.0387 -0.0207 -0.0575
v  0.0903 -0.0087 -0.0847
v  0.0902 -0.0517 -0.0938
v  0.0407 -0.0594 -0.0675
v  0.0825 -0.1058 -0.0962
v  0.0386 -0.0998 -0.0563
v  0.0718 -0.1782 -0.0826
v  0.0434 -0.1706 -0.0466
v  0.0606 -0.2475 -0.0723
v  0.0417 -0.2471 -0.0429
v  0.0421 -0.3384 -0.0727
v  0.0310 -0.3398 -0.0410
v  0.2274 -0.0189 -0.0301
v  0.2605 -0.0517 -0.0104
v  0.2360 -0.0312 -0.0480
v  0.2530 -0.0444 0.0338
v  0.2354 -0.0165 0.0667
v  0.2120 -0.0422 0.0829
v  0.2239 -0.0683 0.0680
v  0.1951 -0.0085 0.1077
v  0.2134 -0.0031 -0.0723
v  0.2182 0.0066 -0.0440
v  0.1940 0.0304 -0.0795
v  0.1562 -0.0358 -0.0948
v  0.1473 0.0043 -0.0873
v  0.2339 -0.0673 -0.0574
v  0.2018 -0.0596 -0.0794
v  0.1473 -0.1175 -0.1098
v  0.1264 -0.1946 -0.1109
v  0.0896 -0.2842 -0.1028
v  0.1858 -0.1249 -0.0988
v  0.1727 -0.1983 -0.1081
v  0.1617 -0.2847 -0.1121
v  0.2725 -0.0782 -0.0111
v  0.2334 -0.1260 -0.0684
v  0.2283 -0.1986 -0.0798
v  0.2234 -0.2875 -0.0864
v  0.0163 -0.4315 -0.0826
v  0.0077 -0.4124 -0.0682
v  0.0466 -0.3757 -0.0954
v  0.0427 -0.4627 -0.0989
v  0.0165 -0.4636 -0.0750
v  0.0409 -0.4364 -0.0958
v  0.1579 -0.5434 -0.1365
v  0.1962 -0.5476 -0.0905
v  0.1914 -0.5932 -0.1026
v  0.1586 -0.5892 -0.1357
v  0.2091 -0.5717 -0.0718
v  0.2126 -0.5929 -0.0778
v  0.1864 -0.6283 -0.1143
v  0.1562 -0.6202 -0.1334
v  0.2123 -0.6344 -0.0888
v  0.1731 -0.6713 -0.1255
v  0.1367 -0.6501 -0.1425
v  0.2079 -0.6870 -0.0979
v  0.0351 -0.4739 -0.1087
v  0.0156 -0.4873 -0.0824
v  0.0364 -0.4847 -0.1074
v  0.0233 -0.5004 -0.0822
v  0.2207 -0.3793 -0.0857
v  0.1543 -0.3826 -0.1171
v  0.0838 -0.4390 -0.1202
v  0.0818 -0.4709 -0.1341
v  0.1123 -0.4383 -0.1324
v  0.1074 -0.4758 -0.1434
v  0.0679 -0.5014 -0.1386
v  0.0873 -0.3791 -0.1050
v  0.1442 -0.4804 -0.1396
v  0.1426 -0.4421 -0.1320
v  0.0679 -0.5123 -0.1333
v  0.0948 -0.5218 -0.1502
v  0.0938 -0.5333 -0.1436
v  0.2208 -0.5801 -0.0012
v  0.2266 -0.5872 -0.0234
v  0.2276 -0.5622 -0.0156
v  0.2270 -0.5622 0.0101
v  0.2394 -0.5372 -0.0440
v  0.2277 -0.5647 -0.0472
v  0.2335 -0.5898 -0.0507
v  0.2472 -0.5317 -0.0215
v  0.2292 -0.5545 -0.0327
v  0.2369 -0.5405 -0.0012
v  0.0055 -0.5943 -0.1003
v  0.0153 -0.5698 -0.0956
v  0.0300 -0.5708 -0.1191
v  0.0185 -0.5998 -0.1233
v  0.0629 -0.5782 -0.1351
v  0.0454 -0.6067 -0.1394
v  0.0975 -0.6321 -0.1518
v  0.1079 -0.5992 -0.1535
v  0.0705 -0.6157 -0.1480
v  0.0930 -0.5937 -0.1445
v  0.1236 -0.5775 -0.1535
v  0.1255 -0.5420 -0.1568
v  0.1048 -0.5728 -0.1398
v  0.1084 -0.5477 -0.1469
v  0.0895 -0.5576 -0.1252
v  0.0952 -0.5393 -0.1328
v  0.0706 -0.5432 -0.1094
v  0.0823 -0.5256 -0.1158
v  0.0505 -0.5095 -0.0919
v  0.0389 -0.5150 -0.0799
v  0.0412 -0.5304 -0.0852
v  0.2784 -0.2972 -0.0259
v  0.2706 -0.3856 -0.0201
v  0.2461 -0.3008 0.0155
v  0.2292 -0.3884 0.0132
v  0.2786 -0.1972 -0.0217
v  0.2586 -0.2019 0.0148
v  0.2745 -0.1261 -0.0144
v  0.2541 -0.1271 0.0270
v  0.2578 -0.0796 0.0295
v  0.2090 -0.2996 0.0446
v  0.1934 -0.3856 0.0336
v  0.2201 -0.2067 0.0587
v  0.2220 -0.1056 0.0652
v  0.2244 -0.1394 0.0606
v  0.0185 -0.0596 0.0005
v  0.0011 -0.0296 -0.0010
v  0.0662 -0.0356 0.1154
v  0.0567 -0.0611 0.0942
v  0.1055 -0.0627 0.1164
v  0.1020 -0.0262 0.1248
v  0.1624 -0.0593 0.1141
v  0.1792 -0.0895 0.0995
v  0.1403 -0.0242 0.1246
v  -0.0095 0.0055 0.0029
v  0.0096 -0.0270 0.0387
v  0.0022 -0.0025 0.0450
v  0.0291 -0.0324 0.0815
v  0.0307 -0.0091 0.0955
v  0.0848 0.0042 0.1346
v  0.1840 -0.1169 0.0912
v  0.1094 -0.0890 0.1109
v  0.0606 -0.0800 0.0748
v  0.0247 -0.1142 0.0014
v  0.0449 -0.0617 0.0576
v  0.0333 -0.0579 0.0256
v  0.0504 -0.1070 0.0326
v  0.0303 -0.1762 0.0008
v  0.0762 -0.1150 0.0688
v  0.1127 -0.1247 0.0987
v  0.1927 -0.1545 0.0846
v  0.1820 -0.2070 0.0823
v  0.1375 -0.1601 0.0897
v  0.0916 -0.1679 0.0702
v  0.0594 -0.1684 0.0280
v  0.0260 -0.2393 -0.0072
v  0.1725 -0.2924 0.0645
v  0.1333 -0.2107 0.0842
v  0.0905 -0.2101 0.0643
v  0.0546 -0.2177 0.0249
v  -0.0046 -0.4726 -0.0564
v  0.0654 -0.3080 0.0167
v  0.0924 -0.3062 0.0498
v  0.1301 -0.2988 0.0714
v  0.1561 -0.3825 0.0515
v  0.0875 -0.3641 0.0313
v  0.1277 -0.3685 0.0567
v  0.1445 -0.4615 0.0387
v  0.1832 -0.4764 0.0204
v  0.2249 -0.4577 0.0029
v  0.2073 -0.4586 -0.0841
v  0.2672 -0.4489 -0.0219
v  0.1953 -0.5078 -0.0947
v  0.2586 -0.5156 -0.0378
v  0.2335 -0.4897 -0.0070
v  0.2649 -0.4811 -0.0309
v  0.2478 -0.5193 -0.0184
v  0.2233 -0.5312 0.0027
v  0.1903 -0.5061 0.0155
v  0.2288 -0.6428 -0.0589
v  0.2346 -0.6958 -0.0664
v  0.1675 -0.6859 0.0007
v  0.1689 -0.6425 0.0041
v  0.1134 -0.5985 0.0251
v  0.1165 -0.6593 0.0082
v  0.2066 -0.5611 0.0164
v  0.1417 -0.4985 0.0386
v  0.0908 -0.4455 0.0431
v  0.0971 -0.4889 0.0488
v  0.1095 -0.5401 0.0428
v  0.1646 -0.5505 0.0248
v  0.0459 -0.3717 -0.0157
v  0.0472 -0.4453 0.0017
v  0.0668 -0.5366 0.0329
v  0.0769 -0.5864 0.0143
v  0.0687 -0.6332 -0.0081
v  0.0226 -0.4408 -0.0485
v  0.0096 -0.4711 -0.0437
v  0.0246 -0.4775 -0.0355
v  0.0516 -0.4943 -0.0019
v  0.0001 -0.4879 -0.0354
v  0.0217 -0.4877 -0.0265
v  0.0604 -0.4923 0.0324
v  0.0177 -0.5063 -0.0032
v  0.0355 -0.5022 -0.0046
v  0.0074 -0.4955 -0.0209
v  -0.0080 -0.5023 -0.0516
v  0.0026 -0.5139 -0.0530
v  0.0002 -0.5075 -0.0209
v  0.0055 -0.5196 -0.0152
v  -0.0045 -0.5049 -0.0360
v  0.0005 -0.5145 -0.0369
v  0.0061 -0.5180 -0.0292
v  0.0155 -0.5209 -0.0569
v  0.0141 -0.5263 -0.0475
v  0.0106 -0.5302 -0.0371
v  0.0052 -0.5354 -0.0271
v  0.0057 -0.5372 -0.0581
v  0.0065 -0.5399 -0.0481
v  0.0411 -0.5361 -0.0013
v  0.0445 -0.5106 0.0040
v  0.0519 -0.5838 -0.0180
v  0.0177 -0.5452 -0.0220
v  0.0134 -0.5237 -0.0078
v  0.0410 -0.6160 -0.0341
v  0.0165 -0.5654 -0.0397
v  -0.0052 -0.5606 -0.0632
v  0.0012 -0.5922 -0.0715
v  0.0034 -0.5579 -0.0481
v  0.0093 -0.5978 -0.0560
v  0.1676 -0.5958 0.0121
v  0.2070 -0.6484 -0.0207
v  0.2009 -0.6964 -0.0140
v  0.2048 -0.5863 0.0026
v  0.2193 -0.6003 -0.0289
v  0.1968 -0.6121 -0.0145
v  0.0925 -0.5884 -0.0786
v  0.1701 -0.4879 -0.0843
v  0.1709 -0.5375 -0.0905
v  0.1439 -0.5436 -0.1018
v  0.1481 -0.4886 -0.0924
v  0.1029 -0.5428 -0.1053
v  0.1113 -0.4884 -0.0940
v  0.1769 -0.5912 -0.0980
v  0.1420 -0.5883 -0.1139
v  0.0960 -0.5922 -0.1215
v  0.0512 -0.6068 -0.1259
v  0.0651 -0.6302 -0.1374
v  0.0283 -0.6386 -0.1510
v  0.0137 -0.6129 -0.1231
v  0.0827 -0.6628 -0.1463
v  0.0407 -0.6662 -0.1630
v  -0.0154 -0.6467 -0.1590
v  -0.0279 -0.6305 -0.1268
v  0.0087 -0.6710 -0.1760
v  0.0847 -0.6815 -0.1441
v  0.0446 -0.6881 -0.1631
v  0.0104 -0.6935 -0.1759
v  -0.0538 -0.6962 -0.1813
v  -0.0564 -0.6720 -0.1788
v  -0.0202 -0.6747 -0.1813
v  -0.0207 -0.6947 -0.1833
v  -0.0937 -0.6593 -0.1650
v  -0.1060 -0.6492 -0.1465
v  -0.1033 -0.6967 -0.1730
v  -0.1074 -0.6769 -0.1738
v  0.0460 -0.6890 -0.1667
v  0.0867 -0.6813 -0.1488
v  0.0481 -0.6973 -0.1669
v  0.0891 -0.6898 -0.1487
v  0.0115 -0.6936 -0.1806
v  0.0114 -0.7024 -0.1815
v  -0.0203 -0.6954 -0.1867
v  -0.0200 -0.7043 -0.1877
v  -0.0559 -0.6962 -0.1864
v  -0.0557 -0.7054 -0.1868
v  -0.1057 -0.6964 -0.1787
v  -0.1046 -0.7057 -0.1800
v  -0.1354 -0.6780 -0.1621
v  -0.1318 -0.6971 -0.1614
v  -0.1534 -0.6779 -0.1453
v  -0.1505 -0.6964 -0.1451
v  -0.1389 -0.6969 -0.1654
v  -0.1573 -0.6969 -0.1483
v  -0.1381 -0.7054 -0.1668
v  -0.1574 -0.7050 -0.1492
v  -0.1613 -0.6813 -0.1268
v  -0.1550 -0.6984 -0.1254
v  -0.1601 -0.6817 -0.1038
v  -0.1543 -0.6994 -0.1079
v  -0.1666 -0.6981 -0.1281
v  -0.1657 -0.6993 -0.1045
v  -0.1671 -0.7062 -0.1285
v  -0.1662 -0.7080 -0.1033
v  -0.1311 -0.6648 -0.1576
v  -0.1442 -0.6647 -0.1463
v  -0.1514 -0.6631 -0.1273
v  -0.1497 -0.6644 -0.1042
v  -0.1132 -0.6462 -0.1289
v  0.1112 -0.6769 -0.1362
v  0.1135 -0.6855 -0.1365
v  0.1300 -0.6839 -0.1286
v  0.1302 -0.6753 -0.1277
v  0.1093 -0.6775 -0.1314
v  0.1278 -0.6748 -0.1223
v  0.1072 -0.6602 -0.1361
v  0.1277 -0.6601 -0.1253
v  0.0980 -0.6271 -0.1277
v  0.1303 -0.6276 -0.1212
v  0.1654 -0.6212 -0.1116
v  0.1600 -0.6577 -0.1142
v  0.1600 -0.6741 -0.1096
v  0.1618 -0.6743 -0.1132
v  0.1646 -0.7056 -0.1147
v  0.1866 -0.6210 -0.1021
v  0.1889 -0.6551 -0.1005
v  0.1881 -0.6747 -0.0960
v  0.1925 -0.7061 -0.0997
v  0.2021 -0.6743 -0.0811
v  0.2042 -0.6557 -0.0859
v  0.2121 -0.6754 -0.0615
v  0.2153 -0.6538 -0.0616
v  0.2019 -0.6185 -0.0856
v  0.2110 -0.6150 -0.0600
v  0.1931 -0.5952 -0.0833
v  0.1992 -0.5907 -0.0619
v  0.1884 -0.5478 -0.0752
v  0.1934 -0.5483 -0.0623
v  0.1900 -0.4900 -0.0675
v  0.1963 -0.4918 -0.0514
v  0.2095 -0.7061 -0.0816
v  0.2153 -0.7069 -0.0610
v  0.1929 -0.4919 -0.0300
v  0.1901 -0.5512 -0.0356
v  0.1939 -0.5901 -0.0391
v  0.2027 -0.6143 -0.0309
v  0.2084 -0.6504 -0.0305
v  0.2079 -0.6777 -0.0333
v  0.2092 -0.7085 -0.0350
v  -0.0356 -0.6273 -0.1030
v  -0.0059 -0.6066 -0.1025
v  0.0226 -0.5934 -0.0958
v  0.0717 -0.5669 -0.1039
v  0.0513 -0.5604 -0.0826
v  0.0848 -0.5329 -0.0938
v  0.0913 -0.4902 -0.0834
v  0.0683 -0.5310 -0.0733
v  0.0784 -0.4918 -0.0666
v  -0.1490 -0.6817 -0.0840
v  -0.1401 -0.7012 -0.0829
v  -0.1424 -0.6675 -0.0879
v  -0.1145 -0.6830 -0.0615
v  -0.1113 -0.7031 -0.0631
v  -0.0842 -0.6834 -0.0500
v  -0.0818 -0.7041 -0.0528
v  -0.0371 -0.6787 -0.0355
v  -0.0310 -0.7017 -0.0413
v  -0.1109 -0.6471 -0.0990
v  -0.1019 -0.6611 -0.0664
v  -0.0373 -0.6275 -0.0790
v  -0.0331 -0.6404 -0.0539
v  0.0059 -0.6977 -0.0427
v  -0.0026 -0.6750 -0.0298
v  0.0041 -0.6256 -0.0541
v  -0.0048 -0.6100 -0.0806
v  0.0146 -0.6476 -0.0325
v  -0.0115 -0.6532 -0.0331
v  0.0244 -0.6679 -0.0270
v  0.0335 -0.6925 -0.0440
v  0.0693 -0.6855 -0.0377
v  0.0534 -0.6627 -0.0256
v  0.0441 -0.6379 -0.0321
v  0.0327 -0.6156 -0.0458
v  0.0172 -0.5966 -0.0767
v  0.0590 -0.5905 -0.0341
v  0.0492 -0.5655 -0.0634
v  0.0755 -0.6249 -0.0256
v  0.0775 -0.6621 -0.0175
v  0.0901 -0.6830 -0.0275
v  0.0756 -0.4917 -0.0511
v  0.0630 -0.5339 -0.0584
v  0.0778 -0.5501 -0.0302
v  0.0879 -0.4951 -0.0267
v  0.1109 -0.5596 -0.0149
v  0.1155 -0.4930 -0.0133
v  0.1049 -0.5908 -0.0141
v  0.1110 -0.6103 -0.0124
v  0.1120 -0.6573 -0.0115
v  0.1108 -0.6806 -0.0225
v  -0.1468 -0.7020 -0.0755
v  -0.1168 -0.7039 -0.0572
v  -0.0845 -0.7055 -0.0451
v  -0.0296 -0.7033 -0.0356
v  0.0083 -0.6977 -0.0355
v  0.0349 -0.6922 -0.0360
v  0.0689 -0.6864 -0.0310
v  -0.1493 -0.7101 -0.0772
v  -0.1208 -0.7126 -0.0594
v  -0.0845 -0.7139 -0.0456
v  -0.0301 -0.7121 -0.0361
v  0.0081 -0.7066 -0.0359
v  0.0357 -0.7009 -0.0357
v  0.0689 -0.6955 -0.0322
v  0.0892 -0.6925 -0.0281
v  0.1065 -0.6909 -0.0229
v  0.1370 -0.6800 -0.0177
v  0.1328 -0.7116 -0.0183
v  0.1654 -0.6793 -0.0158
v  0.1612 -0.7111 -0.0144
v  0.1932 -0.6779 -0.0224
v  0.1903 -0.7101 -0.0184
v  0.1360 -0.6584 -0.0078
v  0.1632 -0.6539 -0.0066
v  0.1905 -0.6532 -0.0155
v  0.1354 -0.6194 -0.0096
v  0.1670 -0.6202 -0.0117
v  0.1862 -0.6204 -0.0178
v  0.1351 -0.5872 -0.0089
v  0.1635 -0.5944 -0.0154
v  0.1809 -0.5937 -0.0264
v  0.1352 -0.5563 -0.0120
v  0.1681 -0.5573 -0.0202
v  0.1724 -0.4943 -0.0146
v  0.1468 -0.4948 -0.0109
v  0.1318 -0.7051 -0.1274
v  0.1086 -0.7120 -0.0253
# 421 vertices

vn 0.9864 0.1529 0.0604
vn 0.8628 0.5015 -0.0636
vn 0.9112 -0.0859 -0.4029
vn -0.6674 0.0185 -0.7445
vn -0.2643 0.1258 -0.9562
vn -0.2880 0.1582 -0.9445
vn -0.7432 0.0055 -0.6691
vn -0.4352 -0.0431 -0.8993
vn -0.8654 -0.0997 -0.4910
vn -0.6198 -0.0110 -0.7847
vn -0.8787 -0.0354 -0.4761
vn -0.7251 0.1092 -0.6799
vn -0.8773 0.0744 -0.4741
vn -0.8189 0.2531 -0.5151
vn -0.9852 0.1011 0.1384
vn 0.9085 0.3012 -0.2897
vn 0.8538 0.5187 -0.0436
vn 0.8572 0.3477 -0.3798
vn 0.9356 0.1759 0.3061
vn 0.8447 -0.0700 0.5307
vn 0.6539 -0.1922 0.7317
vn 0.7069 -0.0843 0.7023
vn 0.5227 -0.1431 0.8404
vn 0.6958 0.2145 -0.6855
vn 0.8519 0.2426 -0.4642
vn 0.5980 0.2140 -0.7724
vn 0.1419 0.1391 -0.9801
vn -0.0075 0.1284 -0.9917
vn 0.7006 0.1027 -0.7062
vn 0.4639 0.0849 -0.8818
vn 0.0528 0.0574 -0.9970
vn -0.1924 0.0213 -0.9811
vn -0.3925 0.0989 -0.9144
vn 0.3975 0.0819 -0.9139
vn 0.2489 0.0322 -0.9680
vn 0.1320 0.0375 -0.9905
vn 0.9779 0.1839 -0.0998
vn 0.6709 0.0796 -0.7372
vn 0.6120 0.0511 -0.7892
vn 0.5786 0.0114 -0.8155
vn -0.7304 0.0049 -0.6830
vn -0.9771 0.1840 -0.1070
vn -0.5459 0.1943 -0.8150
vn -0.5550 0.3427 -0.7580
vn -0.7282 0.0908 -0.6793
vn -0.5009 0.0851 -0.8613
vn 0.6583 0.0649 -0.7499
vn 0.7609 0.0030 -0.6489
vn 0.7557 0.1077 -0.6460
vn 0.5661 -0.0372 -0.8235
vn 0.7788 0.0938 -0.6202
vn 0.7645 0.1904 -0.6159
vn 0.6522 0.0673 -0.7551
vn 0.4346 -0.0506 -0.8992
vn 0.8040 0.0926 -0.5873
vn 0.5572 0.0164 -0.8302
vn 0.3438 0.0597 -0.9372
vn 0.7507 0.0755 -0.6563
vn -0.5755 0.3694 -0.7296
vn -0.7422 -0.1204 -0.6593
vn -0.7444 -0.3500 -0.5686
vn -0.5559 -0.5113 -0.6554
vn 0.6131 -0.0680 -0.7871
vn 0.1954 0.0954 -0.9761
vn -0.3997 0.2941 -0.8682
vn -0.4094 0.3084 -0.8586
vn -0.1469 0.2919 -0.9451
vn -0.0719 0.2257 -0.9715
vn -0.5543 0.0126 -0.8322
vn -0.2030 0.1676 -0.9647
vn 0.4334 0.1701 -0.8850
vn 0.3326 0.1679 -0.9280
vn -0.7091 -0.5770 -0.4054
vn -0.3429 -0.0724 -0.9366
vn -0.6764 -0.5340 -0.5072
vn 0.6568 -0.5749 0.4881
vn 0.8777 -0.3563 0.3203
vn 0.9499 -0.3056 0.0662
vn 0.6746 -0.2576 0.6918
vn 0.8269 -0.3404 -0.4476
vn 0.9525 -0.1079 -0.2849
vn 0.9886 0.0397 -0.1455
vn 0.9726 -0.2001 0.1183
vn 0.8655 -0.4837 0.1304
vn 0.8144 0.0814 0.5745
vn -0.8422 0.3984 -0.3634
vn -0.7295 0.4655 -0.5012
vn -0.5135 0.5632 -0.6474
vn -0.5887 0.3612 -0.7231
vn -0.2327 0.4301 -0.8723
vn -0.3061 0.3386 -0.8897
vn 0.1133 -0.0356 -0.9929
vn -0.0458 0.0703 -0.9965
vn -0.1992 0.2660 -0.9432
vn -0.2811 0.3648 -0.8877
vn 0.0031 -0.0367 -0.9993
vn 0.0776 0.0008 -0.9970
vn -0.4884 0.2176 -0.8450
vn -0.5952 -0.2239 -0.7718
vn -0.4991 0.3124 -0.8083
vn -0.8237 -0.3189 -0.4689
vn -0.4844 0.3494 -0.8021
vn -0.7665 -0.3859 -0.5134
vn -0.6335 -0.3826 -0.6725
vn -0.6457 -0.2354 -0.7264
vn -0.6188 0.2890 -0.7304
vn 0.9969 -0.0488 -0.0616
vn 0.9881 -0.1018 0.1155
vn 0.7026 -0.1140 0.7024
vn 0.5495 -0.1453 0.8228
vn 0.9921 0.0289 -0.1223
vn 0.8183 -0.0536 0.5723
vn 0.9940 0.0480 -0.0979
vn 0.8370 -0.0541 0.5445
vn 0.8708 0.0272 0.4908
vn 0.5216 -0.1884 0.8321
vn 0.4435 -0.1843 0.8771
vn 0.6425 -0.1218 0.7565
vn 0.6606 -0.0563 0.7486
vn 0.6930 -0.0645 0.7181
vn -0.9272 -0.3673 0.0730
vn -0.9263 -0.3433 -0.1552
vn -0.4224 -0.1442 0.8949
vn -0.6316 -0.5145 0.5799
vn -0.1333 -0.2753 0.9521
vn -0.1205 -0.2671 0.9561
vn 0.4910 -0.1393 0.8600
vn 0.6028 -0.0908 0.7927
vn 0.3200 -0.1032 0.9418
vn 0.0531 -0.3508 0.9349
vn 0.0305 -0.2636 0.9641
vn -0.9787 -0.1320 -0.1573
vn -0.8324 -0.4666 0.2990
vn -0.9126 -0.1563 0.3779
vn -0.7985 -0.4057 0.4447
vn -0.7529 -0.1253 0.6460
vn -0.2770 -0.2750 0.9207
vn 0.5865 -0.0662 0.8073
vn -0.1948 -0.3108 0.9303
vn 0.1200 -0.2993 0.9466
vn -0.7560 -0.4868 0.4376
vn -0.9677 -0.1226 0.2201
vn -0.8265 -0.4824 0.2901
vn -0.8027 -0.4362 0.4066
vn -0.7939 -0.2282 0.5636
vn -0.9560 -0.0159 0.2929
vn -0.7179 -0.3324 0.6117
vn -0.3267 -0.4144 0.8494
vn 0.1239 -0.2023 0.9715
vn 0.5881 -0.0669 0.8060
vn 0.5083 -0.1729 0.8436
vn -0.1221 -0.1753 0.9769
vn 0.0958 -0.1222 0.9879
vn -0.5758 -0.1063 0.8107
vn -0.7488 -0.0536 0.6606
vn -0.9770 -0.0517 0.2067
vn 0.4317 -0.2140 0.8763
vn -0.1892 -0.1060 0.9762
vn 0.0626 -0.1018 0.9928
vn -0.5863 -0.1070 0.8030
vn -0.7241 -0.0732 0.6858
vn -0.9568 0.2865 -0.0492
vn -0.7635 -0.1417 0.6301
vn -0.6149 -0.1651 0.7711
vn -0.1600 -0.1926 0.9681
vn 0.1773 -0.2100 0.9615
vn 0.4055 -0.1926 0.8936
vn -0.6576 -0.0430 0.7522
vn -0.1925 -0.1253 0.9733
vn 0.0948 -0.1673 0.9813
vn 0.3831 -0.1347 0.9138
vn 0.4239 -0.1120 0.8988
vn 0.4963 -0.1619 0.8529
vn 0.6372 -0.0192 -0.7704
vn 0.9768 -0.1359 0.1658
vn 0.6625 -0.0335 -0.7483
vn 0.9111 -0.3530 -0.2127
vn 0.5561 -0.0333 0.8304
vn 0.9985 -0.0544 0.0027
vn 0.8062 -0.2066 0.5543
vn 0.4656 0.1796 0.8666
vn 0.4188 -0.0139 0.9080
vn 0.9995 0.0093 -0.0287
vn 0.9935 0.1014 -0.0525
vn 0.1585 -0.1733 0.9720
vn 0.2784 -0.1046 0.9548
vn -0.0663 -0.2733 0.9596
vn -0.1479 -0.2839 0.9474
vn 0.2292 -0.1483 0.9620
vn 0.4244 -0.0425 0.9045
vn -0.3988 0.0095 0.9170
vn -0.1389 0.0365 0.9896
vn 0.2115 -0.0335 0.9768
vn 0.0612 -0.0860 0.9944
vn 0.0051 -0.1922 0.9813
vn 0.2688 -0.2060 0.9409
vn 0.3137 -0.0943 0.9448
vn -0.8080 0.0298 0.5884
vn -0.8005 0.0798 0.5940
vn -0.5424 -0.1977 0.8166
vn -0.5773 -0.3236 0.7497
vn -0.6101 -0.2311 0.7578
vn -0.7425 0.1667 0.6488
vn -0.4755 0.4723 0.7422
vn -0.5234 0.4117 0.7460
vn -0.8147 0.2637 0.5164
vn -0.7070 0.4406 0.5531
vn -0.2773 0.7057 0.6520
vn -0.6708 0.1138 0.7328
vn -0.4036 0.3422 0.8486
vn -0.2525 0.6466 0.7198
vn -0.5186 0.6232 0.5854
vn -0.9459 -0.2603 -0.1939
vn -0.6756 -0.6258 -0.3898
vn -0.9074 0.0196 0.4199
vn -0.8660 -0.2133 0.4522
vn -0.9642 -0.1279 0.2321
vn -0.8352 -0.5491 0.0315
vn -0.9235 -0.3757 0.0774
vn -0.7571 -0.1906 -0.6249
vn -0.9804 -0.0631 -0.1867
vn -0.9626 0.0249 -0.2696
vn -0.9554 -0.2047 0.2127
vn -0.8611 0.4516 -0.2335
vn -0.9486 0.2831 0.1416
vn -0.5686 -0.2692 0.7773
vn -0.6466 0.1802 0.7412
vn -0.6373 -0.2761 0.7195
vn -0.6497 -0.4682 0.5989
vn -0.5793 -0.2833 0.7643
vn -0.6560 -0.1965 0.7287
vn -0.7114 -0.3461 0.6116
vn -0.9897 0.1359 -0.0445
vn -0.9993 -0.0365 -0.0120
vn -0.8605 -0.1118 0.4971
vn -0.7575 -0.2279 0.6118
vn 0.2435 -0.2051 0.9480
vn 0.7176 -0.0157 0.6963
vn 0.6720 -0.0246 0.7401
vn 0.3856 -0.5449 0.7446
vn 0.4273 -0.2929 0.8554
vn 0.5465 -0.0339 0.8368
vn 0.3795 -0.0846 0.9213
vn 0.7677 -0.3550 0.5335
vn 0.5696 -0.2432 0.7851
vn -0.5434 -0.7595 0.3577
vn -0.5850 -0.7469 0.3161
vn -0.3098 -0.9482 -0.0706
vn -0.5905 -0.7497 0.2989
vn 0.0292 -0.9876 0.1541
vn -0.0169 -0.9618 0.2732
vn -0.1094 -0.9250 0.3639
vn -0.4421 -0.7831 0.4374
vn -0.3086 -0.8475 0.4319
vn -0.5945 -0.7981 -0.0982
vn -0.4534 -0.7458 -0.4881
vn -0.3945 -0.7622 -0.5133
vn -0.1554 -0.8089 -0.5670
vn -0.0414 -0.8275 -0.5599
vn 0.0322 -0.9921 -0.1216
vn -0.0160 -0.9009 -0.4337
vn -0.5105 -0.7566 -0.4085
vn 0.5133 0.1103 -0.8511
vn 0.5369 0.1470 -0.8307
vn 0.2209 0.2057 -0.9534
vn 0.2130 0.1572 -0.9643
vn -0.1472 0.2943 -0.9443
vn -0.1995 0.2282 -0.9530
vn 0.5366 0.2169 -0.8155
vn 0.2868 0.1573 -0.9450
vn 0.0379 0.3100 -0.9500
vn -0.1365 0.6006 -0.7878
vn 0.1873 0.4122 -0.8916
vn 0.0892 0.5963 -0.7978
vn -0.1843 0.8088 -0.5585
vn 0.3487 0.1507 -0.9250
vn 0.3264 0.2623 -0.9081
vn -0.0568 0.7299 -0.6812
vn -0.2671 0.8764 -0.4008
vn 0.2143 0.3121 -0.9256
vn 0.4053 -0.0681 -0.9116
vn 0.3798 0.0694 -0.9225
vn 0.2964 0.0263 -0.9547
vn -0.1116 0.0912 -0.9896
vn -0.0833 0.3831 -0.9199
vn 0.0442 0.3505 -0.9355
vn 0.0603 0.0810 -0.9949
vn -0.1429 0.7062 -0.6935
vn -0.2160 0.8869 -0.4084
vn -0.2324 -0.0606 -0.9707
vn -0.2516 0.2243 -0.9415
vn 0.2049 0.6616 -0.7214
vn -0.0453 0.9720 -0.2307
vn -0.1567 0.9871 -0.0330
vn 0.1729 0.7467 -0.6422
vn 0.3712 0.1077 -0.9223
vn 0.4124 0.1122 -0.9041
vn 0.1378 0.7039 -0.6968
vn -0.0922 0.9943 -0.0537
vn 0.2636 0.1045 -0.9590
vn 0.0457 0.6536 -0.7555
vn -0.0086 0.9806 -0.1960
vn 0.0766 0.1147 -0.9904
vn -0.0684 0.7049 -0.7060
vn -0.0296 0.9996 0.0027
vn -0.0753 0.0504 -0.9959
vn -0.1895 0.7354 -0.6506
vn 0.0024 0.9991 0.0433
vn -0.2486 0.1030 -0.9631
vn -0.5436 0.1365 -0.8281
vn -0.5152 -0.1227 -0.8483
vn -0.8213 0.1779 -0.5421
vn -0.8056 -0.1813 -0.5640
vn -0.3907 0.7092 -0.5869
vn 0.0067 0.9995 0.0315
vn -0.6033 0.6785 -0.4191
vn -0.0530 0.9982 -0.0297
vn -0.5147 0.0924 -0.8524
vn -0.7996 0.0798 -0.5952
vn -0.9886 0.0759 -0.1300
vn -0.9345 -0.3431 -0.0949
vn -0.9579 0.0752 0.2770
vn -0.9106 -0.3422 0.2318
vn -0.7233 0.6833 -0.1002
vn 0.0072 0.9972 0.0747
vn -0.6810 0.6914 0.2412
vn 0.0280 0.9974 0.0661
vn -0.9799 0.0668 -0.1881
vn -0.9368 0.0996 0.3355
vn -0.4021 0.6383 -0.6565
vn -0.5809 0.6714 -0.4602
vn -0.6842 0.7232 -0.0942
vn -0.6616 0.7124 0.2339
vn -0.3128 0.9423 -0.1191
vn 0.1660 0.7888 -0.5918
vn 0.4187 0.1433 -0.8967
vn 0.4048 0.1022 -0.9087
vn 0.2199 0.7395 -0.6363
vn -0.1745 0.9839 0.0374
vn -0.0632 0.9952 -0.0752
vn 0.3998 0.0536 -0.9150
vn 0.4633 -0.1750 -0.8688
vn 0.4074 -0.0565 -0.9115
vn 0.4103 -0.1798 -0.8941
vn 0.2345 0.2514 -0.9391
vn 0.2631 0.1460 -0.9537
vn 0.3050 0.1725 -0.9366
vn 0.3660 -0.1070 -0.9245
vn 0.3843 -0.2383 -0.8919
vn 0.3213 0.7142 -0.6219
vn 0.2832 0.6951 -0.6608
vn 0.0048 0.9973 -0.0736
vn 0.0197 0.9986 -0.0492
vn 0.3981 0.0519 -0.9159
vn 0.4373 0.0672 -0.8968
vn 0.5764 0.1419 -0.8048
vn 0.5760 -0.0998 -0.8113
vn 0.5906 -0.2061 -0.7802
vn 0.6252 0.2157 -0.7500
vn 0.6212 0.1586 -0.7675
vn 0.7952 -0.2167 -0.5663
vn 0.8079 -0.0776 -0.5842
vn 0.9767 -0.1602 -0.1425
vn 0.9928 -0.0039 -0.1201
vn 0.8267 0.1933 -0.5283
vn 0.9616 0.2698 -0.0512
vn 0.8023 0.2752 -0.5296
vn 0.9583 0.2806 -0.0536
vn 0.8282 0.1215 -0.5471
vn 0.9909 0.0544 -0.1229
vn 0.8167 0.0547 -0.5744
vn 0.9956 -0.0341 -0.0877
vn 0.7961 0.1941 -0.5732
vn 0.8503 0.1612 -0.5010
vn 0.9854 0.1255 -0.1153
vn 0.9949 0.1010 -0.0063
vn 0.8574 -0.0998 0.5049
vn 0.8558 -0.0286 0.5166
vn 0.8370 0.2679 0.4771
vn 0.7783 0.2885 0.5577
vn 0.8486 0.0364 0.5278
vn 0.8545 -0.1078 0.5082
vn 0.8631 0.0300 0.5042
vn 0.8671 0.0303 0.4972
vn -0.3684 0.9237 -0.1048
vn -0.4427 0.8743 -0.1988
vn -0.4725 0.8084 -0.3511
vn -0.3787 0.4827 -0.7897
vn -0.7329 0.5920 -0.3353
vn -0.5332 0.3639 -0.7638
vn -0.6285 0.2620 -0.7324
vn -0.8016 0.4296 -0.4158
vn -0.8789 0.2791 -0.3867
vn -0.7490 0.0875 0.6568
vn -0.6736 -0.2570 0.6930
vn -0.5565 0.6298 0.5419
vn -0.4636 0.1364 0.8755
vn -0.4493 -0.1477 0.8811
vn -0.3170 0.1219 0.9406
vn -0.2899 -0.1848 0.9390
vn -0.2668 0.0478 0.9626
vn -0.1125 -0.3293 0.9375
vn -0.3538 0.9035 0.2418
vn -0.3681 0.6251 0.6883
vn -0.3660 0.8884 0.2771
vn -0.3399 0.6729 0.6570
vn 0.1088 -0.4604 0.8810
vn -0.0387 -0.1853 0.9819
vn -0.3666 0.6602 0.6555
vn -0.5022 0.7949 0.3406
vn -0.1802 0.3894 0.9033
vn -0.2298 0.4324 0.8719
vn -0.0473 -0.1696 0.9844
vn 0.0260 -0.5446 0.8383
vn -0.1748 -0.5735 0.8003
vn -0.1592 -0.1532 0.9753
vn -0.2155 0.3004 0.9292
vn -0.4580 0.4431 0.7707
vn -0.5996 0.7360 0.3143
vn -0.5687 0.2036 0.7970
vn -0.8216 0.4610 0.3354
vn -0.3728 0.1295 0.9188
vn -0.2633 -0.2039 0.9429
vn -0.2035 -0.5304 0.8230
vn -0.9571 0.2206 0.1878
vn -0.9222 0.3349 0.1932
vn -0.6247 0.1453 0.7672
vn -0.6706 0.0707 0.7384
vn -0.4074 0.0610 0.9112
vn -0.4370 0.0089 0.8994
vn -0.3803 0.0479 0.9236
vn -0.3208 0.0285 0.9467
vn -0.1433 -0.1818 0.9728
vn -0.1171 -0.4504 0.8851
vn -0.4815 0.6490 0.5890
vn -0.0168 0.9952 0.0962
vn -0.3001 0.6279 0.7181
vn -0.0141 0.9917 0.1277
vn -0.2088 0.5917 0.7787
vn -0.0427 0.9853 0.1654
vn -0.1256 0.5357 0.8350
vn -0.1215 0.9513 0.2833
vn -0.1095 0.6447 0.7566
vn -0.1443 0.9882 0.0507
vn -0.1637 0.7172 0.6773
vn -0.1817 0.9833 0.0102
vn -0.2364 0.6084 0.7576
vn -0.1924 0.9754 0.1079
vn -0.7225 0.0698 0.6878
vn -0.4623 -0.0155 0.8866
vn -0.2634 -0.0605 0.9628
vn -0.0914 -0.0572 0.9942
vn 0.0043 -0.0531 0.9986
vn -0.0454 0.0217 0.9987
vn -0.1457 -0.1153 0.9826
vn -0.2142 -0.0602 0.9749
vn -0.2349 0.0613 0.9701
vn -0.2258 -0.0020 0.9742
vn -0.2009 0.0443 0.9786
vn -0.1158 0.0003 0.9933
vn -0.1640 -0.0152 0.9863
vn 0.0840 0.0163 0.9963
vn 0.0048 0.0625 0.9980
vn 0.4201 0.0532 0.9059
vn 0.3699 0.0676 0.9266
vn -0.1572 -0.4166 0.8954
vn -0.1045 -0.4197 0.9016
vn -0.0817 -0.1862 0.9791
vn -0.1609 -0.2046 0.9655
vn 0.1365 -0.3247 0.9359
vn 0.1279 -0.0813 0.9884
vn 0.4623 -0.0439 0.8856
vn 0.4405 -0.1946 0.8764
vn -0.0199 0.0165 0.9997
vn -0.1382 0.0154 0.9903
vn 0.2020 0.1130 0.9728
vn 0.4546 0.1957 0.8689
vn 0.0205 0.0676 0.9975
vn -0.1654 0.0534 0.9848
vn 0.3581 0.1557 0.9206
vn 0.5720 0.2475 0.7820
vn 0.0482 0.0227 0.9986
vn -0.1231 0.0219 0.9922
vn 0.4279 -0.0106 0.9038
vn 0.3993 -0.1089 0.9103
vn 0.0607 -0.0499 0.9969
vn -0.0874 -0.0057 0.9962
vn -0.6994 -0.6856 -0.2019
vn -0.6510 -0.7343 -0.1925
vn -0.6197 -0.7612 -0.1912
vn -0.5302 -0.8304 -0.1714
vn 0.0143 -0.9982 -0.0590
vn 0.0288 -0.9982 -0.0523
vn 0.1301 -0.9910 -0.0326
vn 0.1534 -0.9877 -0.0294
vn 0.3610 -0.0213 -0.9323
vn -0.2738 -0.1348 0.9523
vn 0.1836 -0.9828 -0.0187
vn 0.1590 -0.9871 -0.0176
vn 0.1582 -0.9873 -0.0144
vn 0.1772 -0.9840 -0.0173
vn 0.1014 -0.9946 -0.0226
vn 0.1674 -0.9854 -0.0321
vn 0.0552 -0.9977 -0.0401
vn 0.0927 -0.9946 -0.0466
vn 0.0187 -0.9983 -0.0545
vn 0.0159 -0.9983 -0.0553
vn -0.0154 -0.9980 -0.0607
vn -0.0273 -0.9979 -0.0590
vn -0.0468 -0.9970 -0.0612
vn -0.0464 -0.9971 -0.0608
vn -0.0661 -0.9958 -0.0636
vn -0.0169 -0.9975 -0.0693
vn -0.0178 -0.9974 -0.0694
vn 0.0241 -0.9984 -0.0520
vn 0.0253 -0.9983 -0.0519
vn 0.0340 -0.9982 -0.0489
vn 0.0506 -0.9975 -0.0484
vn 0.0388 -0.9979 -0.0520
vn 0.0452 -0.9976 -0.0519
# 520 vertex normals

vt 0.0644 0.5837 0.0000
vt 0.0737 0.5761 0.0000
vt 0.0755 0.5950 0.0000
vt 0.1382 0.5770 0.0000
vt 0.1234 0.5835 0.0000
vt 0.1233 0.5611 0.0000
vt 0.1370 0.5586 0.0000
vt 0.1255 0.5326 0.0000
vt 0.1399 0.5371 0.0000
vt 0.1297 0.4946 0.0000
vt 0.1415 0.4992 0.0000
vt 0.1327 0.4568 0.0000
vt 0.1417 0.4582 0.0000
vt 0.1350 0.4085 0.0000
vt 0.1445 0.4088 0.0000
vt 0.0812 0.5831 0.0000
vt 0.0726 0.5654 0.0000
vt 0.0842 0.5732 0.0000
vt 0.0621 0.5732 0.0000
vt 0.0549 0.5900 0.0000
vt 0.0465 0.5813 0.0000
vt 0.0497 0.5670 0.0000
vt 0.0415 0.5993 0.0000
vt 0.0925 0.5857 0.0000
vt 0.0862 0.5939 0.0000
vt 0.0976 0.6015 0.0000
vt 0.1073 0.5686 0.0000
vt 0.1092 0.5889 0.0000
vt 0.0856 0.5553 0.0000
vt 0.0952 0.5577 0.0000
vt 0.1096 0.5265 0.0000
vt 0.1140 0.4864 0.0000
vt 0.1213 0.4374 0.0000
vt 0.1000 0.5240 0.0000
vt 0.1025 0.4859 0.0000
vt 0.1027 0.4408 0.0000
vt 0.0710 0.5519 0.0000
vt 0.0863 0.5255 0.0000
vt 0.0872 0.4886 0.0000
vt 0.0860 0.4438 0.0000
vt 0.1347 0.3609 0.0000
vt 0.1390 0.3689 0.0000
vt 0.1287 0.3885 0.0000
vt 0.1276 0.3501 0.0000
vt 0.1357 0.3465 0.0000
vt 0.1279 0.3615 0.0000
vt 0.0913 0.3108 0.0000
vt 0.0772 0.3201 0.0000
vt 0.0780 0.2980 0.0000
vt 0.0895 0.2929 0.0000
vt 0.0693 0.3112 0.0000
vt 0.0689 0.3003 0.0000
vt 0.0794 0.2770 0.0000
vt 0.0891 0.2757 0.0000
vt 0.0688 0.2756 0.0000
vt 0.0815 0.2505 0.0000
vt 0.0927 0.2579 0.0000
vt 0.0692 0.2466 0.0000
vt 0.1268 0.3407 0.0000
vt 0.1343 0.3339 0.0000
vt 0.1268 0.3349 0.0000
vt 0.1336 0.3283 0.0000
vt 0.0821 0.3979 0.0000
vt 0.1004 0.3900 0.0000
vt 0.1155 0.3621 0.0000
vt 0.1144 0.3436 0.0000
vt 0.1078 0.3606 0.0000
vt 0.1073 0.3403 0.0000
vt 0.1155 0.3270 0.0000
vt 0.1179 0.3890 0.0000
vt 0.0985 0.3392 0.0000
vt 0.1001 0.3603 0.0000
vt 0.1160 0.3230 0.0000
vt 0.1080 0.3173 0.0000
vt 0.1092 0.3122 0.0000
vt 0.0482 0.3133 0.0000
vt 0.0533 0.3078 0.0000
vt 0.0530 0.3184 0.0000
vt 0.0470 0.3199 0.0000
vt 0.0609 0.3266 0.0000
vt 0.0608 0.3142 0.0000
vt 0.0599 0.3031 0.0000
vt 0.0561 0.3312 0.0000
vt 0.0576 0.3195 0.0000
vt 0.0508 0.3279 0.0000
vt 0.1354 0.2726 0.0000
vt 0.1338 0.2880 0.0000
vt 0.1263 0.2850 0.0000
vt 0.1290 0.2679 0.0000
vt 0.1169 0.2842 0.0000
vt 0.1207 0.2666 0.0000
vt 0.1042 0.2621 0.0000
vt 0.1021 0.2796 0.0000
vt 0.1126 0.2659 0.0000
vt 0.1083 0.2808 0.0000
vt 0.0999 0.2926 0.0000
vt 0.1002 0.3065 0.0000
vt 0.1060 0.2938 0.0000
vt 0.1049 0.3032 0.0000
vt 0.1133 0.2994 0.0000
vt 0.1113 0.3092 0.0000
vt 0.1209 0.3071 0.0000
vt 0.1176 0.3143 0.0000
vt 0.1281 0.3232 0.0000
vt 0.1327 0.3212 0.0000
vt 0.1317 0.3131 0.0000
vt 0.0654 0.4453 0.0000
vt 0.0613 0.4020 0.0000
vt 0.0524 0.4468 0.0000
vt 0.0479 0.4027 0.0000
vt 0.0683 0.4942 0.0000
vt 0.0581 0.4952 0.0000
vt 0.0697 0.5290 0.0000
vt 0.0584 0.5330 0.0000
vt 0.0611 0.5558 0.0000
vt 0.0409 0.4499 0.0000
vt 0.0376 0.4053 0.0000
vt 0.0435 0.4977 0.0000
vt 0.0476 0.5486 0.0000
vt 0.0469 0.5312 0.0000
vt 0.1549 0.5591 0.0000
vt 0.1548 0.5768 0.0000
vt 0.1872 0.5698 0.0000
vt 0.1807 0.5582 0.0000
vt 0.1933 0.5508 0.0000
vt 0.1962 0.5681 0.0000
vt 0.0314 0.5788 0.0000
vt 0.0352 0.5625 0.0000
vt 0.0268 0.5963 0.0000
vt 0.2070 0.5428 0.0000
vt 0.2055 0.5633 0.0000
vt 0.1558 0.5943 0.0000
vt 0.1641 0.5776 0.0000
vt 0.1656 0.5901 0.0000
vt 0.1752 0.5739 0.0000
vt 0.1788 0.5843 0.0000
vt 0.1951 0.5856 0.0000
vt 0.0357 0.5481 0.0000
vt 0.1917 0.5390 0.0000
vt 0.2079 0.5249 0.0000
vt 0.1768 0.5468 0.0000
vt 0.1550 0.5305 0.0000
vt 0.1710 0.5557 0.0000
vt 0.1623 0.5575 0.0000
vt 0.1656 0.5327 0.0000
vt 0.1542 0.4969 0.0000
vt 0.1771 0.5276 0.0000
vt 0.1886 0.5205 0.0000
vt 0.2063 0.5119 0.0000
vt 0.0364 0.5276 0.0000
vt 0.0325 0.5005 0.0000
vt 0.1915 0.4994 0.0000
vt 0.2054 0.4941 0.0000
vt 0.1784 0.4991 0.0000
vt 0.1647 0.5001 0.0000
vt 0.1516 0.4632 0.0000
vt 0.0306 0.4550 0.0000
vt 0.1878 0.4747 0.0000
vt 0.1999 0.4718 0.0000
vt 0.1760 0.4772 0.0000
vt 0.1625 0.4737 0.0000
vt 0.1414 0.3392 0.0000
vt 0.1619 0.4259 0.0000
vt 0.1728 0.4276 0.0000
vt 0.1837 0.4308 0.0000
vt 0.1946 0.4309 0.0000
vt 0.0272 0.4076 0.0000
vt 0.1692 0.3974 0.0000
vt 0.1815 0.3958 0.0000
vt 0.1886 0.3879 0.0000
vt 0.0256 0.3706 0.0000
vt 0.0366 0.3652 0.0000
vt 0.0481 0.3700 0.0000
vt 0.0790 0.3637 0.0000
vt 0.0593 0.3708 0.0000
vt 0.0805 0.3337 0.0000
vt 0.0597 0.3381 0.0000
vt 0.0507 0.3525 0.0000
vt 0.0596 0.3548 0.0000
vt 0.0550 0.3369 0.0000
vt 0.0477 0.3328 0.0000
vt 0.0380 0.3470 0.0000
vt 0.0588 0.2746 0.0000
vt 0.0583 0.2451 0.0000
vt 0.1994 0.2426 0.0000
vt 0.1988 0.2677 0.0000
vt 0.1831 0.2888 0.0000
vt 0.1846 0.2556 0.0000
vt 0.0423 0.3199 0.0000
vt 0.0242 0.3507 0.0000
vt 0.1740 0.3589 0.0000
vt 0.1774 0.3385 0.0000
vt 0.1887 0.3365 0.0000
vt 0.1885 0.3540 0.0000
vt 0.1823 0.3151 0.0000
vt 0.1971 0.3125 0.0000
vt 0.0314 0.3248 0.0000
vt 0.1533 0.3918 0.0000
vt 0.1594 0.3591 0.0000
vt 0.1712 0.3144 0.0000
vt 0.1723 0.2922 0.0000
vt 0.1692 0.2658 0.0000
vt 0.1454 0.3599 0.0000
vt 0.1451 0.3420 0.0000
vt 0.1485 0.3421 0.0000
vt 0.1593 0.3352 0.0000
vt 0.1460 0.3312 0.0000
vt 0.1503 0.3348 0.0000
vt 0.1678 0.3346 0.0000
vt 0.1546 0.3225 0.0000
vt 0.1568 0.3271 0.0000
vt 0.1497 0.3273 0.0000
vt 0.1424 0.3250 0.0000
vt 0.1420 0.3195 0.0000
vt 0.1492 0.3209 0.0000
vt 0.1511 0.3156 0.0000
vt 0.1457 0.3230 0.0000
vt 0.1457 0.3184 0.0000
vt 0.1477 0.3163 0.0000
vt 0.1407 0.3156 0.0000
vt 0.1436 0.3131 0.0000
vt 0.1465 0.3110 0.0000
vt 0.1493 0.3083 0.0000
vt 0.1416 0.3061 0.0000
vt 0.1443 0.3061 0.0000
vt 0.1599 0.3133 0.0000
vt 0.1603 0.3245 0.0000
vt 0.1607 0.2909 0.0000
vt 0.1527 0.3048 0.0000
vt 0.1539 0.3150 0.0000
vt 0.1578 0.2712 0.0000
vt 0.1496 0.2946 0.0000
vt 0.1423 0.2927 0.0000
vt 0.1423 0.2768 0.0000
vt 0.1457 0.2967 0.0000
vt 0.1471 0.2762 0.0000
vt 0.1981 0.2928 0.0000
vt 0.0455 0.2752 0.0000
vt 0.0415 0.2495 0.0000
vt 0.0442 0.3102 0.0000
vt 0.0331 0.3053 0.0000
vt 0.0330 0.2815 0.0000
vt 0.0318 0.2572 0.0000
vt 0.0520 0.3007 0.0000
vt 0.0432 0.2960 0.0000
vt 0.1375 0.2233 0.0000
vt 0.1324 0.2227 0.0000
vt 0.1416 0.2042 0.0000
vt 0.1273 0.2187 0.0000
vt 0.1523 0.2020 0.0000
vt 0.1516 0.2086 0.0000
vt 0.1491 0.2145 0.0000
vt 0.1426 0.2221 0.0000
vt 0.1461 0.2186 0.0000
vt 0.1232 0.2126 0.0000
vt 0.1275 0.1907 0.0000
vt 0.1336 0.1853 0.0000
vt 0.1403 0.1851 0.0000
vt 0.1450 0.1884 0.0000
vt 0.1516 0.1949 0.0000
vt 0.1495 0.1918 0.0000
vt 0.1243 0.1976 0.0000
vt 0.1173 0.0593 0.0000
vt 0.1159 0.0887 0.0000
vt 0.1081 0.0866 0.0000
vt 0.1120 0.0588 0.0000
vt 0.0967 0.0840 0.0000
vt 0.1027 0.0572 0.0000
vt 0.1156 0.1138 0.0000
vt 0.1056 0.1099 0.0000
vt 0.0928 0.1093 0.0000
vt 0.0803 0.1171 0.0000
vt 0.0839 0.1338 0.0000
vt 0.0748 0.1444 0.0000
vt 0.0700 0.1210 0.0000
vt 0.0900 0.1541 0.0000
vt 0.0795 0.1627 0.0000
vt 0.0642 0.1550 0.0000
vt 0.0587 0.1342 0.0000
vt 0.0722 0.1716 0.0000
vt 0.0922 0.1649 0.0000
vt 0.0826 0.1752 0.0000
vt 0.0748 0.1846 0.0000
vt 0.0582 0.1951 0.0000
vt 0.0564 0.1807 0.0000
vt 0.0657 0.1776 0.0000
vt 0.0671 0.1900 0.0000
vt 0.0456 0.1746 0.0000
vt 0.0419 0.1652 0.0000
vt 0.0431 0.1984 0.0000
vt 0.0424 0.1863 0.0000
vt 0.7018 0.4843 0.0000
vt 0.7009 0.4849 0.0000
vt 0.6968 0.4658 0.0000
vt 0.6979 0.4649 0.0000
vt 0.7036 0.4826 0.0000
vt 0.6997 0.4630 0.0000
vt 0.7047 0.5002 0.0000
vt 0.7036 0.5007 0.0000
vt 0.7067 0.4995 0.0000
vt 0.7063 0.5141 0.0000
vt 0.7055 0.5145 0.0000
vt 0.7083 0.5133 0.0000
vt 0.7075 0.5295 0.0000
vt 0.7063 0.5292 0.0000
vt 0.7097 0.5287 0.0000
vt 0.7091 0.5512 0.0000
vt 0.7076 0.5512 0.0000
vt 0.7112 0.5501 0.0000
vt 0.0341 0.1833 0.0000
vt 0.0329 0.1948 0.0000
vt 0.0278 0.1769 0.0000
vt 0.0248 0.1859 0.0000
vt 0.7096 0.5668 0.0000
vt 0.7080 0.5652 0.0000
vt 0.7093 0.5780 0.0000
vt 0.7076 0.5770 0.0000
vt 0.7116 0.5662 0.0000
vt 0.7112 0.5783 0.0000
vt 0.0234 0.1698 0.0000
vt 0.0188 0.1748 0.0000
vt 0.0212 0.1578 0.0000
vt 0.0160 0.1611 0.0000
vt 0.7085 0.5878 0.0000
vt 0.7059 0.5863 0.0000
vt 0.7063 0.5972 0.0000
vt 0.7040 0.5942 0.0000
vt 0.7102 0.5890 0.0000
vt 0.7077 0.6001 0.0000
vt 0.0355 0.1757 0.0000
vt 0.0314 0.1723 0.0000
vt 0.0285 0.1649 0.0000
vt 0.0266 0.1547 0.0000
vt 0.0394 0.1577 0.0000
vt 0.6954 0.4530 0.0000
vt 0.6973 0.4511 0.0000
vt 0.6959 0.4430 0.0000
vt 0.6939 0.4437 0.0000
vt 0.6943 0.4536 0.0000
vt 0.6926 0.4446 0.0000
vt 0.0950 0.1506 0.0000
vt 0.0971 0.1606 0.0000
vt 0.0994 0.1506 0.0000
vt 0.0998 0.1592 0.0000
vt 0.0924 0.1301 0.0000
vt 0.1006 0.1315 0.0000
vt 0.1101 0.1312 0.0000
vt 0.1075 0.1527 0.0000
vt 0.1075 0.1631 0.0000
vt 0.5957 0.6521 0.0000
vt 0.5879 0.6560 0.0000
vt 0.5876 0.6533 0.0000
vt 0.5955 0.6503 0.0000
vt 0.5881 0.6600 0.0000
vt 0.5976 0.6665 0.0000
vt 0.1154 0.1319 0.0000
vt 0.1153 0.1534 0.0000
vt 0.1153 0.1662 0.0000
vt 0.6029 0.6491 0.0000
vt 0.6049 0.6636 0.0000
vt 0.1203 0.1672 0.0000
vt 0.1198 0.1550 0.0000
vt 0.1261 0.1684 0.0000
vt 0.1262 0.1552 0.0000
vt 0.1204 0.1328 0.0000
vt 0.1268 0.1326 0.0000
vt 0.1205 0.1171 0.0000
vt 0.1261 0.1161 0.0000
vt 0.1218 0.0934 0.0000
vt 0.1251 0.0939 0.0000
vt 0.1235 0.0605 0.0000
vt 0.1270 0.0609 0.0000
vt 0.6075 0.6464 0.0000
vt 0.6104 0.6607 0.0000
vt 0.6126 0.6438 0.0000
vt 0.6151 0.6579 0.0000
vt 0.1320 0.0598 0.0000
vt 0.1327 0.0950 0.0000
vt 0.1324 0.1151 0.0000
vt 0.1342 0.1311 0.0000
vt 0.1343 0.1531 0.0000
vt 0.1342 0.1694 0.0000
vt 0.6192 0.6405 0.0000
vt 0.6210 0.6545 0.0000
vt 0.0548 0.1216 0.0000
vt 0.0637 0.1102 0.0000
vt 0.0712 0.0985 0.0000
vt 0.0869 0.0918 0.0000
vt 0.0805 0.0796 0.0000
vt 0.0924 0.0766 0.0000
vt 0.0983 0.0557 0.0000
vt 0.0871 0.0671 0.0000
vt 0.0951 0.0518 0.0000
vt 0.0212 0.1457 0.0000
vt 0.0156 0.1403 0.0000
vt 0.0258 0.1460 0.0000
vt 0.0240 0.1237 0.0000
vt 0.0184 0.1183 0.0000
vt 0.0274 0.1071 0.0000
vt 0.0217 0.1011 0.0000
vt 0.0346 0.0843 0.0000
vt 0.0286 0.0750 0.0000
vt 0.0363 0.1427 0.0000
vt 0.0317 0.1241 0.0000
vt 0.0513 0.1096 0.0000
vt 0.0464 0.0967 0.0000
vt 0.0333 0.0575 0.0000
vt 0.0397 0.0680 0.0000
vt 0.0557 0.0821 0.0000
vt 0.0610 0.0987 0.0000
vt 0.0493 0.0666 0.0000
vt 0.0446 0.0785 0.0000
vt 0.0445 0.0560 0.0000
vt 0.0367 0.0444 0.0000
vt 0.0420 0.0272 0.0000
vt 0.0485 0.0413 0.0000
vt 0.0552 0.0531 0.0000
vt 0.0613 0.0668 0.0000
vt 0.0672 0.0890 0.0000
vt 0.0697 0.0521 0.0000
vt 0.0772 0.0699 0.0000
vt 0.0612 0.0365 0.0000
vt 0.0508 0.0273 0.0000
vt 0.0449 0.0164 0.0000
vt 0.0946 0.0473 0.0000
vt 0.0846 0.0603 0.0000
vt 0.0802 0.0419 0.0000
vt 0.0937 0.0334 0.0000
vt 0.0782 0.0193 0.0000
vt 0.0948 0.0151 0.0000
vt 0.0714 0.0212 0.0000
vt 0.0675 0.0157 0.0000
vt 0.0549 0.0076 0.0000
vt 0.0473 0.0047 0.0000
vt 0.7011 0.6084 0.0000
vt 0.6997 0.6047 0.0000
vt 0.6946 0.6164 0.0000
vt 0.6933 0.6136 0.0000
vt 0.6877 0.6226 0.0000
vt 0.6870 0.6190 0.0000
vt 0.6758 0.6281 0.0000
vt 0.6761 0.6253 0.0000
vt 0.6673 0.6281 0.0000
vt 0.6678 0.6248 0.0000
vt 0.6610 0.6270 0.0000
vt 0.6616 0.6233 0.0000
vt 0.6529 0.6265 0.0000
vt 0.6530 0.6234 0.0000
vt 0.7027 0.6108 0.0000
vt 0.6963 0.6193 0.0000
vt 0.6883 0.6264 0.0000
vt 0.6763 0.6321 0.0000
vt 0.6676 0.6322 0.0000
vt 0.6611 0.6310 0.0000
vt 0.6532 0.6308 0.0000
vt 0.6484 0.6308 0.0000
vt 0.6478 0.6265 0.0000
vt 0.6442 0.6316 0.0000
vt 0.6427 0.6274 0.0000
vt 0.6365 0.6305 0.0000
vt 0.6395 0.6442 0.0000
vt 0.6300 0.6342 0.0000
vt 0.6332 0.6479 0.0000
vt 0.6234 0.6377 0.0000
vt 0.6267 0.6517 0.0000
vt 0.1646 0.1629 0.0000
vt 0.1564 0.1646 0.0000
vt 0.1554 0.1499 0.0000
vt 0.1625 0.1470 0.0000
vt 0.1479 0.1667 0.0000
vt 0.1477 0.1498 0.0000
vt 0.1401 0.1530 0.0000
vt 0.1393 0.1683 0.0000
vt 0.1533 0.1258 0.0000
vt 0.1602 0.1188 0.0000
vt 0.1444 0.1296 0.0000
vt 0.1394 0.1323 0.0000
vt 0.1519 0.1093 0.0000
vt 0.1612 0.1064 0.0000
vt 0.1436 0.1147 0.0000
vt 0.1376 0.1154 0.0000
vt 0.1507 0.0933 0.0000
vt 0.1581 0.0908 0.0000
vt 0.1406 0.0967 0.0000
vt 0.1386 0.0588 0.0000
vt 0.1457 0.0572 0.0000
vt 0.1551 0.0566 0.0000
vt 0.1341 0.0202 0.0000
vt 0.1346 0.0429 0.0000
vt 0.1323 0.0434 0.0000
vt 0.1318 0.0199 0.0000
vt 0.1379 0.0210 0.0000
vt 0.1373 0.0430 0.0000
vt 0.1304 0.0432 0.0000
vt 0.1300 0.0192 0.0000
vt 0.5896 0.6695 0.0000
vt 0.6452 0.6413 0.0000
vt 0.1272 0.0179 0.0000
vt 0.1284 0.0434 0.0000
vt 0.1229 0.0162 0.0000
vt 0.1250 0.0445 0.0000
vt 0.1195 0.0147 0.0000
vt 0.1222 0.0458 0.0000
vt 0.1172 0.0143 0.0000
vt 0.1183 0.0471 0.0000
vt 0.1148 0.0152 0.0000
vt 0.1126 0.0460 0.0000
vt 0.1109 0.0170 0.0000
vt 0.1089 0.0429 0.0000
vt 0.1082 0.0195 0.0000
vt 0.1061 0.0385 0.0000
vt 0.1065 0.0229 0.0000
vt 0.1049 0.0324 0.0000
vt 0.1052 0.0270 0.0000
vt 0.1404 0.0422 0.0000
vt 0.1412 0.0226 0.0000
vt 0.1433 0.0398 0.0000
vt 0.1435 0.0254 0.0000
vt 0.1448 0.0352 0.0000
vt 0.1447 0.0294 0.0000
# 520 texture coords

o Alumno2SubRightLeg
g Alumno2SubRightLeg
usemtl mat_1_Doctor_body_d_jpg
s 1
f 1/1/1 2/2/2 3/3/3 
f 4/4/4 5/5/5 6/6/6 
f 6/6/6 7/7/7 4/4/4 
f 7/7/7 6/6/6 8/8/8 
f 8/8/8 9/9/9 7/7/7 
f 8/8/8 10/10/10 11/11/11 
f 11/11/11 9/9/9 8/8/8 
f 10/10/10 12/12/12 13/13/13 
f 13/13/13 11/11/11 10/10/10 
f 14/14/14 15/15/15 13/13/13 
f 13/13/13 12/12/12 14/14/14 
f 16/16/16 2/2/2 17/17/17 
f 17/17/17 18/18/18 16/16/16 
f 2/2/2 1/1/1 19/19/19 
f 19/19/19 17/17/17 2/2/2 
f 20/20/20 19/19/19 1/1/1 
f 19/19/19 20/20/20 21/21/21 
f 21/21/21 22/22/22 19/19/19 
f 23/23/23 21/21/21 20/20/20 
f 18/18/18 24/24/24 25/25/25 
f 25/25/25 16/16/16 18/18/18 
f 26/26/26 24/24/24 27/27/27 
f 27/27/27 28/28/28 26/26/26 
f 28/28/28 27/27/27 6/6/6 
f 6/6/6 5/5/5 28/28/28 
f 29/29/29 30/30/30 24/24/24 
f 24/24/24 18/18/18 29/29/29 
f 6/6/6 27/27/27 31/31/31 
f 31/31/31 8/8/8 6/6/6 
f 12/12/12 10/10/10 32/32/32 
f 32/32/32 33/33/33 12/12/12 
f 31/31/31 32/32/32 10/10/10 
f 10/10/10 8/8/8 31/31/31 
f 30/30/30 34/34/34 31/31/31 
f 31/31/31 27/27/27 30/30/30 
f 34/34/34 35/35/35 32/32/32 
f 32/32/32 31/31/31 34/34/34 
f 35/35/35 36/36/36 33/33/33 
f 33/33/33 32/32/32 35/35/35 
f 18/18/18 17/17/17 37/37/37 
f 37/37/37 29/29/29 18/18/18 
f 30/30/30 29/29/29 38/38/38 
f 38/38/38 34/34/34 30/30/30 
f 38/38/38 39/39/39 35/35/35 
f 35/35/35 34/34/34 38/38/38 
f 39/39/39 40/40/40 36/36/36 
f 36/36/36 35/35/35 39/39/39 
f 41/41/41 42/42/42 14/14/14 
f 14/14/14 43/43/43 41/41/41 
f 44/44/44 45/45/45 41/41/41 
f 41/41/41 46/46/46 44/44/44 
f 47/47/47 48/48/48 49/49/49 
f 49/49/49 50/50/50 47/47/47 
f 51/51/51 52/52/52 49/49/49 
f 49/49/49 48/48/48 51/51/51 
f 50/50/50 49/49/49 53/53/53 
f 53/53/53 54/54/54 50/50/50 
f 52/52/52 55/55/55 53/53/53 
f 53/53/53 49/49/49 52/52/52 
f 54/54/54 53/53/53 56/56/56 
f 56/56/56 57/57/57 54/54/54 
f 58/58/58 56/56/56 53/53/53 
f 53/53/53 55/55/55 58/58/58 
f 59/59/59 60/60/60 45/45/45 
f 45/45/45 44/44/44 59/59/59 
f 59/59/59 61/61/61 62/62/62 
f 62/62/62 60/60/60 59/59/59 
f 40/40/40 63/63/63 64/64/64 
f 64/64/64 36/36/36 40/40/40 
f 46/46/46 65/65/65 66/66/66 
f 66/66/66 44/44/44 46/46/46 
f 67/67/67 68/68/68 66/66/66 
f 66/66/66 65/65/65 67/67/67 
f 44/44/44 66/66/66 69/69/69 
f 69/69/69 59/59/59 44/44/44 
f 36/36/36 64/64/64 70/70/70 
f 70/70/70 33/33/33 36/36/36 
f 43/43/43 70/70/70 65/65/65 
f 65/65/65 46/46/46 43/43/43 
f 71/71/71 68/68/68 67/67/67 
f 67/67/67 72/72/72 71/71/71 
f 69/69/69 73/73/73 61/61/61 
f 61/61/61 59/59/59 69/69/69 
f 66/66/66 68/68/68 74/74/74 
f 74/74/74 69/69/69 66/66/66 
f 69/69/69 74/74/74 75/75/75 
f 75/75/75 73/73/73 69/69/69 
f 76/76/76 77/77/77 78/78/78 
f 78/78/78 79/79/79 76/76/76 
f 80/80/80 81/81/81 51/51/51 
f 51/51/51 48/48/48 80/80/80 
f 52/52/52 51/51/51 81/81/81 
f 81/81/81 82/82/82 52/52/52 
f 83/83/83 84/84/84 81/81/81 
f 81/81/81 80/80/80 83/83/83 
f 77/77/77 81/81/81 84/84/84 
f 84/84/84 78/78/78 77/77/77 
f 78/78/78 84/84/84 83/83/83 
f 83/83/83 85/85/85 78/78/78 
f 86/86/86 87/87/87 88/88/88 
f 88/88/88 89/89/89 86/86/86 
f 89/89/89 88/88/88 90/90/90 
f 90/90/90 91/91/91 89/89/89 
f 54/54/54 57/57/57 92/92/92 
f 92/92/92 93/93/93 54/54/54 
f 93/93/93 92/92/92 94/94/94 
f 94/94/94 95/95/95 93/93/93 
f 95/95/95 94/94/94 91/91/91 
f 91/91/91 90/90/90 95/95/95 
f 54/54/54 93/93/93 96/96/96 
f 96/96/96 50/50/50 54/54/54 
f 71/71/71 97/97/97 74/74/74 
f 74/74/74 68/68/68 71/71/71 
f 50/50/50 96/96/96 97/97/97 
f 97/97/97 47/47/47 50/50/50 
f 95/95/95 98/98/98 96/96/96 
f 96/96/96 93/93/93 95/95/95 
f 74/74/74 97/97/97 99/99/99 
f 99/99/99 75/75/75 74/74/74 
f 96/96/96 98/98/98 99/99/99 
f 99/99/99 97/97/97 96/96/96 
f 90/90/90 100/100/100 98/98/98 
f 98/98/98 95/95/95 90/90/90 
f 98/98/98 100/100/100 101/101/101 
f 101/101/101 99/99/99 98/98/98 
f 90/90/90 88/88/88 102/102/102 
f 102/102/102 100/100/100 90/90/90 
f 61/61/61 73/73/73 103/103/103 
f 103/103/103 104/104/104 61/61/61 
f 75/75/75 101/101/101 103/103/103 
f 103/103/103 73/73/73 75/75/75 
f 100/100/100 102/102/102 103/103/103 
f 103/103/103 101/101/101 100/100/100 
f 104/104/104 105/105/105 62/62/62 
f 62/62/62 61/61/61 104/104/104 
f 87/87/87 106/106/106 102/102/102 
f 102/102/102 88/88/88 87/87/87 
f 102/102/102 106/106/106 104/104/104 
f 104/104/104 103/103/103 102/102/102 
f 63/63/63 40/40/40 107/107/107 
f 107/107/107 108/108/108 63/63/63 
f 108/108/108 107/107/107 109/109/109 
f 109/109/109 110/110/110 108/108/108 
f 107/107/107 111/111/111 112/112/112 
f 112/112/112 109/109/109 107/107/107 
f 39/39/39 38/38/38 113/113/113 
f 113/113/113 111/111/111 39/39/39 
f 37/37/37 113/113/113 38/38/38 
f 38/38/38 29/29/29 37/37/37 
f 40/40/40 39/39/39 111/111/111 
f 111/111/111 107/107/107 40/40/40 
f 111/111/111 113/113/113 114/114/114 
f 114/114/114 112/112/112 111/111/111 
f 17/17/17 19/19/19 115/115/115 
f 115/115/115 37/37/37 17/17/17 
f 37/37/37 115/115/115 114/114/114 
f 114/114/114 113/113/113 37/37/37 
f 110/110/110 109/109/109 116/116/116 
f 116/116/116 117/117/117 110/110/110 
f 109/109/109 112/112/112 118/118/118 
f 118/118/118 116/116/116 109/109/109 
f 19/19/19 22/22/22 119/119/119 
f 119/119/119 115/115/115 19/19/19 
f 114/114/114 120/120/120 118/118/118 
f 118/118/118 112/112/112 114/114/114 
f 115/115/115 119/119/119 120/120/120 
f 120/120/120 114/114/114 115/115/115 
f 7/7/7 121/121/121 122/122/122 
f 122/122/122 4/4/4 7/7/7 
f 123/123/123 124/124/124 125/125/125 
f 125/125/125 126/126/126 123/123/123 
f 22/22/22 21/21/21 127/127/127 
f 127/127/127 128/128/128 22/22/22 
f 23/23/23 129/129/129 127/127/127 
f 127/127/127 21/21/21 23/23/23 
f 126/126/126 125/125/125 127/130/130 
f 127/130/130 129/131/131 126/126/126 
f 4/4/4 122/122/122 130/132/132 
f 122/122/122 131/133/133 132/134/134 
f 132/134/134 130/132/132 122/122/122 
f 131/133/133 133/135/135 134/136/136 
f 134/136/136 132/134/134 131/133/133 
f 123/123/123 134/136/136 133/135/135 
f 133/135/135 124/124/124 123/123/123 
f 126/126/126 135/137/137 134/136/136 
f 134/136/136 123/123/123 126/126/126 
f 135/137/137 126/126/126 129/131/131 
f 22/22/22 128/128/128 136/138/138 
f 136/138/138 119/119/119 22/22/22 
f 125/125/125 137/139/139 128/140/140 
f 128/140/140 127/130/130 125/125/125 
f 124/124/124 138/141/141 137/139/139 
f 137/139/139 125/125/125 124/124/124 
f 7/7/7 9/9/9 139/142/142 
f 139/142/142 121/121/121 7/7/7 
f 124/124/124 133/135/135 140/143/143 
f 140/143/143 138/141/141 124/124/124 
f 133/135/135 131/133/133 141/144/144 
f 141/144/144 140/143/143 133/135/135 
f 121/121/121 141/144/144 131/133/133 
f 131/133/133 122/122/122 121/121/121 
f 139/142/142 142/145/145 141/144/144 
f 141/144/144 121/121/121 139/142/142 
f 9/9/9 11/11/11 143/146/146 
f 143/146/146 139/142/142 9/9/9 
f 140/143/143 142/145/145 144/147/147 
f 144/147/147 138/141/141 140/143/143 
f 138/141/141 144/147/147 145/148/148 
f 145/148/148 137/139/139 138/141/141 
f 128/140/140 137/139/139 145/148/148 
f 145/148/148 136/149/149 128/140/140 
f 118/118/118 120/120/120 146/150/150 
f 146/150/150 147/151/151 118/118/118 
f 119/119/119 136/138/138 146/150/150 
f 146/150/150 120/120/120 119/119/119 
f 145/148/148 148/152/152 146/153/153 
f 146/153/153 136/149/149 145/148/148 
f 144/147/147 149/154/154 148/152/152 
f 148/152/152 145/148/148 144/147/147 
f 139/142/142 143/146/146 150/155/155 
f 150/155/155 142/145/145 139/142/142 
f 142/145/145 150/155/155 149/154/154 
f 149/154/154 144/147/147 142/145/145 
f 11/11/11 13/13/13 151/156/156 
f 151/156/156 143/146/146 11/11/11 
f 147/151/151 152/157/157 116/116/116 
f 116/116/116 118/118/118 147/151/151 
f 146/153/153 148/152/152 153/158/158 
f 153/158/158 147/159/159 146/153/153 
f 148/152/152 149/154/154 154/160/160 
f 154/160/160 153/158/158 148/152/152 
f 149/154/154 150/155/155 155/161/161 
f 155/161/161 154/160/160 149/154/154 
f 143/146/146 151/156/156 155/161/161 
f 155/161/161 150/155/155 143/146/146 
f 45/45/45 156/162/162 42/42/42 
f 42/42/42 41/41/41 45/45/45 
f 151/156/156 15/15/15 157/163/163 
f 157/163/163 155/161/161 151/156/156 
f 157/163/163 158/164/164 154/160/160 
f 154/160/160 155/161/161 157/163/163 
f 147/159/159 153/158/158 159/165/165 
f 159/165/165 152/166/166 147/159/159 
f 152/157/157 160/167/167 117/117/117 
f 117/117/117 116/116/116 152/157/157 
f 161/168/168 162/169/169 159/165/165 
f 159/165/165 158/164/164 161/168/168 
f 152/166/166 159/165/165 162/169/169 
f 162/169/169 160/170/170 152/166/166 
f 160/167/167 163/171/171 164/172/172 
f 164/172/172 117/117/117 160/167/167 
f 117/117/117 164/172/172 165/173/173 
f 165/173/173 110/110/110 117/117/117 
f 64/64/64 63/63/63 166/174/174 
f 166/174/174 72/72/72 64/64/64 
f 110/110/110 165/173/173 167/175/175 
f 167/175/175 108/108/108 110/110/110 
f 63/63/63 108/108/108 167/175/175 
f 167/175/175 166/174/174 63/63/63 
f 80/80/80 48/48/48 168/176/176 
f 168/176/176 169/177/177 80/80/80 
f 72/72/72 166/174/174 168/176/176 
f 168/176/176 71/71/71 72/72/72 
f 71/71/71 168/176/176 48/48/48 
f 48/48/48 47/47/47 71/71/71 
f 165/173/173 170/178/178 171/179/179 
f 171/179/179 167/175/175 165/173/173 
f 80/80/80 169/177/177 172/180/180 
f 172/180/180 83/83/83 80/80/80 
f 171/179/179 170/178/178 172/180/180 
f 172/180/180 169/177/177 171/179/179 
f 83/83/83 172/180/180 173/181/181 
f 173/181/181 85/85/85 83/83/83 
f 170/178/178 174/182/182 173/181/181 
f 173/181/181 172/180/180 170/178/178 
f 52/52/52 82/82/82 175/183/183 
f 175/183/183 55/55/55 52/52/52 
f 175/183/183 176/184/184 58/58/58 
f 58/58/58 55/55/55 175/183/183 
f 177/185/185 178/186/186 179/187/187 
f 179/187/187 180/188/188 177/185/185 
f 173/181/181 181/189/189 79/79/79 
f 79/79/79 85/85/85 173/181/181 
f 164/172/172 174/182/182 170/178/178 
f 170/178/178 165/173/173 164/172/172 
f 163/171/171 182/190/190 174/182/182 
f 174/182/182 164/172/172 163/171/171 
f 183/191/191 184/192/192 182/193/193 
f 182/193/193 163/194/194 183/191/191 
f 185/195/195 186/196/196 182/193/193 
f 182/193/193 184/192/192 185/195/195 
f 173/181/181 174/182/182 186/197/197 
f 186/197/197 181/189/189 173/181/181 
f 187/198/198 188/199/199 183/191/191 
f 183/191/191 161/168/168 187/198/198 
f 189/200/200 190/201/201 179/187/187 
f 179/187/187 185/195/195 189/200/200 
f 190/201/201 191/202/202 180/188/188 
f 180/188/188 179/187/187 190/201/201 
f 42/42/42 192/203/203 187/198/198 
f 187/198/198 15/15/15 42/42/42 
f 156/162/162 193/204/204 192/203/203 
f 192/203/203 42/42/42 156/162/162 
f 194/205/205 195/206/206 188/199/199 
f 188/199/199 192/203/203 194/205/205 
f 193/204/204 196/207/207 197/208/208 
f 197/208/208 194/205/205 193/204/204 
f 188/199/199 198/209/209 184/192/192 
f 184/192/192 183/191/191 188/199/199 
f 198/209/209 189/200/200 185/195/195 
f 185/195/195 184/192/192 198/209/209 
f 199/210/210 200/211/211 197/208/208 
f 197/208/208 201/212/212 199/210/210 
f 197/208/208 200/211/211 195/206/206 
f 195/206/206 194/205/205 197/208/208 
f 60/60/60 202/213/213 156/162/162 
f 156/162/162 45/45/45 60/60/60 
f 156/162/162 202/213/213 196/207/207 
f 196/207/207 193/204/204 156/162/162 
f 62/62/62 203/214/214 202/213/213 
f 202/213/213 60/60/60 62/62/62 
f 199/210/210 201/212/212 204/215/215 
f 204/215/215 205/216/216 199/210/210 
f 201/212/212 196/207/207 206/217/217 
f 206/217/217 204/215/215 201/212/212 
f 203/214/214 207/218/218 206/217/217 
f 206/217/217 202/213/213 203/214/214 
f 204/215/215 206/217/217 207/218/218 
f 207/218/218 208/219/219 204/215/215 
f 105/105/105 209/220/220 203/214/214 
f 203/214/214 62/62/62 105/105/105 
f 207/218/218 210/221/221 211/222/222 
f 211/222/222 208/219/219 207/218/218 
f 208/219/219 211/222/222 212/223/223 
f 212/223/223 205/216/216 208/219/219 
f 203/214/214 209/220/220 210/221/221 
f 210/221/221 207/218/218 203/214/214 
f 209/220/220 213/224/224 214/225/225 
f 214/225/225 210/221/221 209/220/220 
f 106/106/106 213/224/224 209/220/220 
f 209/220/220 105/105/105 106/106/106 
f 199/210/210 215/226/226 216/227/227 
f 216/227/227 200/211/211 199/210/210 
f 215/226/226 217/228/228 190/201/201 
f 190/201/201 189/200/200 215/226/226 
f 205/216/216 212/223/223 218/229/229 
f 218/229/229 219/230/230 205/216/216 
f 219/230/230 218/229/229 217/228/228 
f 217/228/228 215/226/226 219/230/230 
f 217/228/228 220/231/231 191/202/202 
f 191/202/202 190/201/201 217/228/228 
f 218/229/229 221/232/232 220/231/231 
f 220/231/231 217/228/228 218/229/229 
f 106/106/106 87/87/87 222/233/233 
f 222/233/233 213/224/224 106/106/106 
f 223/234/234 222/233/233 87/87/87 
f 87/87/87 86/86/86 223/234/234 
f 211/222/222 214/225/225 224/235/235 
f 224/235/235 212/223/223 211/222/222 
f 212/223/223 224/235/235 221/232/232 
f 221/232/232 218/229/229 212/223/223 
f 221/232/232 224/235/235 225/236/236 
f 225/236/236 220/231/231 221/232/232 
f 213/224/224 222/233/233 224/235/235 
f 224/235/235 214/225/225 213/224/224 
f 223/234/234 225/236/236 224/235/235 
f 224/235/235 222/233/233 223/234/234 
f 185/195/195 179/187/187 226/237/237 
f 226/237/237 186/196/196 185/195/195 
f 176/184/184 175/183/183 227/238/238 
f 227/238/238 228/239/239 176/184/184 
f 181/189/189 229/240/240 76/76/76 
f 76/76/76 79/79/79 181/189/189 
f 186/197/197 226/241/241 229/240/240 
f 229/240/240 181/189/189 186/197/197 
f 228/239/239 227/238/238 178/242/242 
f 178/242/242 177/243/243 228/239/239 
f 229/240/240 230/244/244 77/77/77 
f 77/77/77 76/76/76 229/240/240 
f 77/77/77 230/244/244 82/82/82 
f 82/82/82 81/81/81 77/77/77 
f 82/82/82 230/244/244 227/238/238 
f 227/238/238 175/183/183 82/82/82 
f 178/242/242 227/238/238 231/245/245 
f 231/245/245 226/241/241 178/242/242 
f 2/2/2 16/16/16 3/3/3 
f 27/27/27 24/24/24 30/30/30 
f 14/14/14 12/12/12 33/33/33 
f 14/14/14 33/33/33 43/43/43 
f 46/46/46 41/41/41 43/43/43 
f 43/43/43 33/33/33 70/70/70 
f 70/70/70 64/64/64 67/67/67 
f 67/67/67 65/65/65 70/70/70 
f 64/64/64 72/72/72 67/67/67 
f 85/85/85 79/79/79 78/78/78 
f 97/97/97 71/71/71 47/47/47 
f 75/75/75 99/99/99 101/101/101 
f 105/105/105 104/104/104 106/106/106 
f 142/145/145 140/143/143 141/144/144 
f 15/15/15 14/14/14 42/42/42 
f 15/15/15 151/156/156 13/13/13 
f 154/160/160 158/164/164 159/165/165 
f 159/165/165 153/158/158 154/160/160 
f 158/164/164 157/163/163 161/168/168 
f 157/163/163 15/15/15 187/198/198 
f 161/168/168 157/163/163 187/198/198 
f 163/194/194 160/170/170 162/169/169 
f 171/179/179 169/177/177 168/176/176 
f 171/179/179 166/174/174 167/175/175 
f 168/176/176 166/174/174 171/179/179 
f 162/169/169 161/168/168 183/191/191 
f 183/191/191 163/194/194 162/169/169 
f 186/197/197 174/182/182 182/190/190 
f 188/199/199 187/198/198 192/203/203 
f 192/203/203 193/204/204 194/205/205 
f 196/207/207 201/212/212 197/208/208 
f 198/209/209 188/199/199 195/206/206 
f 198/209/209 195/206/206 216/227/227 
f 216/227/227 195/206/206 200/211/211 
f 189/200/200 198/209/209 216/227/227 
f 205/216/216 219/230/230 199/210/210 
f 208/219/219 205/216/216 204/215/215 
f 206/217/217 196/207/207 202/213/213 
f 214/225/225 211/222/222 210/221/221 
f 215/226/226 189/200/200 216/227/227 
f 215/226/226 199/210/210 219/230/230 
f 179/187/187 178/186/186 226/237/237 
f 229/240/240 226/241/241 231/245/245 
f 230/244/244 229/240/240 231/245/245 
f 231/245/245 227/238/238 230/244/244 
f 57/246/246 56/247/247 232/248/248 
f 56/247/247 58/249/249 232/248/248 
f 86/250/250 89/251/251 232/248/248 
f 89/251/251 91/252/252 232/248/248 
f 92/253/253 57/246/246 232/248/248 
f 94/254/254 92/253/253 232/248/248 
f 91/252/252 94/254/254 232/248/248 
f 58/249/249 176/255/255 232/248/248 
f 177/256/256 180/257/257 232/248/248 
f 180/257/257 191/258/258 232/248/248 
f 191/258/258 220/259/259 232/248/248 
f 223/260/260 86/250/250 232/248/248 
f 220/259/259 225/261/261 232/248/248 
f 225/261/261 223/260/260 232/248/248 
f 176/255/255 228/262/262 232/248/248 
f 228/262/262 177/256/256 232/248/248 
f 233/263/263 234/264/264 235/265/265 
f 235/265/265 236/266/266 233/263/263 
f 236/266/266 235/265/265 237/267/267 
f 237/267/267 238/268/268 236/266/266 
f 234/264/264 239/269/269 240/270/270 
f 240/270/270 235/265/265 234/264/264 
f 235/265/265 240/270/270 241/271/271 
f 241/271/271 237/267/267 235/265/265 
f 242/272/272 243/273/273 244/274/274 
f 244/274/274 245/275/275 242/272/272 
f 243/273/273 246/276/276 247/277/277 
f 247/277/277 244/274/274 243/273/273 
f 245/275/275 244/274/274 248/278/278 
f 248/278/278 249/279/279 245/275/275 
f 244/274/274 247/277/277 250/280/280 
f 250/280/280 248/278/278 244/274/274 
f 251/281/281 252/282/282 247/277/277 
f 247/277/277 246/276/276 251/281/281 
f 247/277/277 252/282/282 253/283/283 
f 253/283/283 250/280/280 247/277/277 
f 254/284/284 255/285/285 256/286/286 
f 256/286/286 257/287/287 254/284/284 
f 258/288/288 259/289/289 249/279/279 
f 249/279/279 248/278/278 258/288/288 
f 255/285/285 258/288/288 248/278/278 
f 248/278/278 256/286/286 255/285/285 
f 250/280/280 253/283/283 257/287/287 
f 257/287/287 256/286/286 250/280/280 
f 255/285/285 254/284/284 260/290/290 
f 260/290/290 261/291/291 255/285/285 
f 262/292/292 252/293/293 251/294/294 
f 251/294/294 263/295/295 262/292/292 
f 264/296/296 262/292/292 263/295/295 
f 263/295/295 265/297/297 264/296/296 
f 266/298/298 253/299/299 252/293/293 
f 252/293/293 262/292/292 266/298/298 
f 267/300/300 266/298/298 262/292/292 
f 262/292/292 264/296/296 267/300/300 
f 253/299/299 266/298/298 268/301/301 
f 268/301/301 257/302/302 253/299/299 
f 267/300/300 269/303/303 268/301/301 
f 268/301/301 266/298/298 267/300/300 
f 257/302/302 268/301/301 270/304/304 
f 270/304/304 254/305/305 257/302/302 
f 268/301/301 269/303/303 271/306/306 
f 271/306/306 270/304/304 268/301/301 
f 270/304/304 272/307/307 260/308/308 
f 260/308/308 254/305/305 270/304/304 
f 273/309/309 272/307/307 270/304/304 
f 270/304/304 271/306/306 273/309/309 
f 274/310/310 261/291/291 260/290/290 
f 260/290/290 275/311/311 274/310/310 
f 276/312/312 274/310/310 275/311/311 
f 275/311/311 277/313/313 276/312/312 
f 272/307/307 278/314/314 275/315/315 
f 275/315/315 260/308/308 272/307/307 
f 279/316/316 277/317/317 275/315/315 
f 275/315/315 278/314/314 279/316/316 
f 280/318/318 278/314/314 272/307/307 
f 272/307/307 273/309/309 280/318/318 
f 280/318/318 281/319/319 279/316/316 
f 279/316/316 278/314/314 280/318/318 
f 282/320/320 276/312/312 277/313/313 
f 277/313/313 283/321/321 282/320/320 
f 284/322/322 282/320/320 283/321/321 
f 283/321/321 285/323/323 284/322/322 
f 286/324/324 283/325/325 277/317/317 
f 277/317/317 279/316/316 286/324/324 
f 287/326/326 285/327/327 283/325/325 
f 283/325/325 286/324/324 287/326/326 
f 288/328/328 286/324/324 279/316/316 
f 279/316/316 281/319/319 288/328/328 
f 286/324/324 288/328/328 289/329/329 
f 289/329/329 287/326/326 286/324/324 
f 261/291/291 274/310/310 290/330/330 
f 290/330/330 258/288/288 261/291/291 
f 291/331/331 290/330/330 274/310/310 
f 274/310/310 276/312/312 291/331/331 
f 259/289/289 258/288/288 290/330/330 
f 290/330/330 291/331/331 259/289/289 
f 292/332/332 291/331/331 276/312/312 
f 276/312/312 282/320/320 292/332/332 
f 293/333/333 292/332/332 282/320/320 
f 282/320/320 284/322/322 293/333/333 
f 291/331/331 292/332/332 294/334/334 
f 294/334/334 259/289/289 291/331/331 
f 265/297/297 263/295/295 295/335/335 
f 295/335/335 296/336/336 265/297/297 
f 297/337/337 296/336/336 295/335/335 
f 295/335/335 298/338/338 297/337/337 
f 299/339/339 295/335/335 263/295/295 
f 263/295/295 251/294/294 299/339/339 
f 295/335/335 299/339/339 300/340/340 
f 300/340/340 298/338/338 295/335/335 
f 301/341/341 299/342/342 251/281/281 
f 251/281/281 246/276/276 301/341/341 
f 299/342/342 301/341/341 302/343/343 
f 302/343/343 300/344/344 299/342/342 
f 303/345/345 301/341/341 246/276/276 
f 246/276/276 243/273/273 303/345/345 
f 301/341/341 303/345/345 304/346/346 
f 304/346/346 302/343/343 301/341/341 
f 241/271/271 303/345/345 243/273/273 
f 243/273/273 242/272/272 241/271/271 
f 304/346/346 303/345/345 241/271/271 
f 241/271/271 240/270/270 304/346/346 
f 239/269/269 305/347/347 304/346/346 
f 304/346/346 240/270/270 239/269/269 
f 304/346/346 305/347/347 306/348/348 
f 306/348/348 302/343/343 304/346/346 
f 302/343/343 306/348/348 307/349/349 
f 307/349/349 300/344/344 302/343/343 
f 308/350/350 298/351/351 300/352/352 
f 300/352/352 307/353/353 308/350/350 
f 297/354/354 298/351/351 308/350/350 
f 308/350/350 309/355/355 297/354/354 
f 310/356/356 311/357/357 306/348/348 
f 306/348/348 305/347/347 310/356/356 
f 306/348/348 311/357/357 312/358/358 
f 312/358/358 307/349/349 306/348/348 
f 308/350/350 312/359/359 313/360/360 
f 313/360/360 309/355/355 308/350/350 
f 314/361/361 312/358/358 311/357/357 
f 311/357/357 315/362/362 314/361/361 
f 316/363/363 314/361/361 315/362/362 
f 315/362/362 317/364/364 316/363/363 
f 318/365/365 315/362/362 311/357/357 
f 311/357/357 310/356/356 318/365/365 
f 315/362/362 318/365/365 319/366/366 
f 319/366/366 317/364/364 315/362/362 
f 320/367/367 318/365/365 310/356/356 
f 310/356/356 239/269/269 320/367/367 
f 320/367/367 321/368/368 319/366/366 
f 319/366/366 318/365/365 320/367/367 
f 322/369/369 320/367/367 239/269/269 
f 239/269/269 234/264/264 322/369/369 
f 320/367/367 322/369/369 323/370/370 
f 323/370/370 321/368/368 320/367/367 
f 322/369/369 234/264/264 233/263/263 
f 233/263/263 324/371/371 322/369/369 
f 322/369/369 324/371/371 325/372/372 
f 325/372/372 323/370/370 322/369/369 
f 312/359/359 314/373/373 326/374/374 
f 326/374/374 313/360/360 312/359/359 
f 316/375/375 327/376/376 326/374/374 
f 326/374/374 314/373/373 316/375/375 
f 328/377/377 329/378/378 323/370/370 
f 323/370/370 325/372/372 328/377/377 
f 323/370/370 329/378/378 330/379/379 
f 330/379/379 321/368/368 323/370/370 
f 321/368/368 330/379/379 331/380/380 
f 331/380/380 319/366/366 321/368/368 
f 332/381/381 317/364/364 319/366/366 
f 319/366/366 331/380/380 332/381/381 
f 317/364/364 332/381/381 333/382/382 
f 333/382/382 316/363/363 317/364/364 
f 316/375/375 333/383/383 334/384/384 
f 334/384/384 327/376/376 316/375/375 
f 259/289/289 294/334/334 335/385/385 
f 335/385/385 249/279/279 259/289/289 
f 336/386/386 337/387/387 242/272/272 
f 242/272/272 245/275/275 336/386/386 
f 338/388/388 242/272/272 337/387/387 
f 337/387/387 339/389/389 338/388/388 
f 338/388/388 340/390/390 237/267/267 
f 237/267/267 241/271/271 338/388/388 
f 237/267/267 340/390/390 341/391/391 
f 341/391/391 238/268/268 237/267/267 
f 340/390/390 342/392/392 343/393/393 
f 343/393/393 341/391/391 340/390/390 
f 344/394/394 284/322/322 285/323/323 
f 285/323/323 345/395/395 344/394/394 
f 284/322/322 344/394/394 346/396/396 
f 346/396/396 293/333/333 284/322/322 
f 347/397/397 344/394/394 345/395/395 
f 345/395/395 348/398/398 347/397/397 
f 349/399/399 347/397/397 348/398/398 
f 348/398/398 350/400/400 349/399/399 
f 351/401/401 349/399/399 350/400/400 
f 350/400/400 352/402/402 351/401/401 
f 293/333/333 353/403/403 294/334/334 
f 294/334/334 292/332/332 293/333/333 
f 346/396/396 354/404/404 353/403/403 
f 353/403/403 293/333/333 346/396/396 
f 347/397/397 354/404/404 346/396/396 
f 346/396/396 344/394/394 347/397/397 
f 294/334/334 353/403/403 355/405/405 
f 355/405/405 335/385/385 294/334/334 
f 353/403/403 354/404/404 356/406/406 
f 356/406/406 355/405/405 353/403/403 
f 349/399/399 351/401/401 356/406/406 
f 356/406/406 354/404/404 349/399/399 
f 352/402/402 357/407/407 358/408/408 
f 358/408/408 351/401/401 352/402/402 
f 355/405/405 356/406/406 359/409/409 
f 359/409/409 360/410/410 355/405/405 
f 361/411/411 359/409/409 356/406/406 
f 356/406/406 362/412/412 361/411/411 
f 358/408/408 363/413/413 361/411/411 
f 361/411/411 362/412/412 358/408/408 
f 364/414/414 363/413/413 358/408/408 
f 358/408/408 357/407/407 364/414/414 
f 365/415/415 366/416/416 363/413/413 
f 363/413/413 364/414/414 365/415/415 
f 363/413/413 366/416/416 367/417/417 
f 367/417/417 361/411/411 363/413/413 
f 361/411/411 367/417/417 368/418/418 
f 368/418/418 359/409/409 361/411/411 
f 359/409/409 368/418/418 369/419/419 
f 369/419/419 360/410/410 359/409/409 
f 370/420/420 371/421/421 369/419/419 
f 369/419/419 368/418/418 370/420/420 
f 372/422/422 370/420/420 368/418/418 
f 368/418/418 367/417/417 372/422/422 
f 372/422/422 367/417/417 366/416/416 
f 366/416/416 373/423/423 372/422/422 
f 374/424/424 373/423/423 366/416/416 
f 366/416/416 365/415/415 374/424/424 
f 375/425/425 376/426/426 377/427/427 
f 377/427/427 378/428/428 375/425/425 
f 340/390/390 338/388/388 339/389/389 
f 339/389/389 342/392/392 340/390/390 
f 371/421/421 370/420/420 377/427/427 
f 377/427/427 376/426/426 371/421/421 
f 379/429/429 380/430/430 378/428/428 
f 378/428/428 377/427/427 379/429/429 
f 381/431/431 379/429/429 377/427/427 
f 377/427/427 370/420/420 381/431/431 
f 372/422/422 382/432/432 381/431/431 
f 381/431/431 370/420/420 372/422/422 
f 382/432/432 372/422/422 373/423/423 
f 373/423/423 383/433/433 382/432/432 
f 384/434/434 383/433/433 373/423/423 
f 373/423/423 374/424/424 384/434/434 
f 385/435/435 345/436/436 285/327/327 
f 285/327/327 287/326/326 385/435/435 
f 345/436/436 385/435/435 386/437/437 
f 386/437/437 348/438/438 345/436/436 
f 386/437/437 387/439/439 350/440/440 
f 350/440/440 348/438/438 386/437/437 
f 350/440/440 387/439/439 388/441/441 
f 388/441/441 352/442/442 350/440/440 
f 389/443/443 357/444/444 352/442/442 
f 352/442/442 388/441/441 389/443/443 
f 357/444/444 389/443/443 390/445/445 
f 390/445/445 364/446/446 357/444/444 
f 364/446/446 390/445/445 391/447/447 
f 391/447/447 365/448/448 364/446/446 
f 392/449/449 385/435/435 287/326/326 
f 287/326/326 289/329/329 392/449/449 
f 385/435/435 392/449/449 393/450/450 
f 393/450/450 386/437/437 385/435/435 
f 386/437/437 393/450/450 394/451/451 
f 394/451/451 387/439/439 386/437/437 
f 387/439/439 394/451/451 395/452/452 
f 395/452/452 388/441/441 387/439/439 
f 388/441/441 395/452/452 396/453/453 
f 396/453/453 389/443/443 388/441/441 
f 389/443/443 396/453/453 397/454/454 
f 397/454/454 390/445/445 389/443/443 
f 390/445/445 397/454/454 398/455/455 
f 398/455/455 391/447/447 390/445/445 
f 391/447/447 398/455/455 399/456/456 
f 399/456/456 374/457/457 391/447/447 
f 374/457/457 399/456/456 400/458/458 
f 400/458/458 384/459/459 374/457/457 
f 401/460/460 384/459/459 400/458/458 
f 400/458/458 402/461/461 401/460/460 
f 403/462/462 401/460/460 402/461/461 
f 402/461/461 404/463/463 403/462/462 
f 405/464/464 403/462/462 404/463/463 
f 404/463/463 406/465/465 405/464/464 
f 406/465/465 334/384/384 333/383/383 
f 333/383/383 405/464/464 406/465/465 
f 384/466/466 401/467/467 407/468/468 
f 407/468/468 383/469/469 384/466/466 
f 407/468/468 401/467/467 403/470/470 
f 403/470/470 408/471/471 407/468/468 
f 409/472/472 408/471/471 403/470/470 
f 403/470/470 405/473/473 409/472/472 
f 409/472/472 405/473/473 333/382/382 
f 333/382/382 332/381/381 409/472/472 
f 407/468/468 410/474/474 382/475/475 
f 382/475/475 383/469/469 407/468/468 
f 411/476/476 410/474/474 407/468/468 
f 407/468/468 408/471/471 411/476/476 
f 409/472/472 412/477/477 411/476/476 
f 411/476/476 408/471/471 409/472/472 
f 412/477/477 409/472/472 332/381/381 
f 332/381/381 331/380/380 412/477/477 
f 382/475/475 410/474/474 413/478/478 
f 413/478/478 381/479/479 382/475/475 
f 413/478/478 410/474/474 411/476/476 
f 411/476/476 414/480/480 413/478/478 
f 414/480/480 411/476/476 412/477/477 
f 412/477/477 415/481/481 414/480/480 
f 415/481/481 412/477/477 331/380/380 
f 331/380/380 330/379/379 415/481/481 
f 381/479/479 413/478/478 416/482/482 
f 416/482/482 379/483/483 381/479/479 
f 417/484/484 416/482/482 413/478/478 
f 413/478/478 414/480/480 417/484/484 
f 417/484/484 415/481/481 330/379/379 
f 330/379/379 329/378/378 417/484/484 
f 417/484/484 329/378/378 328/377/377 
f 328/377/377 418/485/485 417/484/484 
f 419/486/486 416/482/482 417/484/484 
f 417/484/484 418/485/485 419/486/486 
f 416/482/482 419/486/486 380/487/487 
f 380/487/487 379/483/483 416/482/482 
f 342/392/392 376/426/426 375/425/425 
f 375/425/425 343/393/393 342/392/392 
f 339/389/389 371/421/421 376/426/426 
f 376/426/426 342/392/392 339/389/389 
f 371/421/421 339/389/389 337/387/387 
f 337/387/387 369/419/419 371/421/421 
f 369/419/419 337/387/387 336/386/386 
f 336/386/386 360/410/410 369/419/419 
f 420/488/488 421/489/489 400/490/490 
f 400/490/490 297/491/491 420/488/488 
f 309/492/492 402/493/493 421/489/489 
f 421/489/489 420/488/488 309/492/492 
f 297/491/491 400/490/490 399/494/494 
f 399/494/494 296/495/495 297/491/491 
f 248/278/278 250/280/280 256/286/286 
f 258/288/288 255/285/285 261/291/291 
f 310/356/356 305/347/347 239/269/269 
f 308/350/350 307/353/353 312/359/359 
f 336/386/386 245/275/275 249/279/279 
f 249/279/279 335/385/385 336/386/386 
f 297/354/354 309/355/355 420/496/496 
f 347/397/397 349/399/399 354/404/404 
f 360/410/410 335/385/385 355/405/405 
f 356/406/406 351/401/401 362/412/412 
f 362/412/412 351/401/401 358/408/408 
f 391/447/447 374/457/457 365/448/448 
f 402/461/461 400/458/458 421/497/497 
f 414/480/480 415/481/481 417/484/484 
f 360/410/410 336/386/386 335/385/385 
f 241/271/271 242/272/272 338/388/388 
f 265/498/498 398/499/499 264/500/500 
f 265/498/498 296/495/495 399/494/494 
f 265/498/498 399/494/494 398/499/499 
f 398/499/499 397/501/501 264/500/500 
f 397/501/501 267/502/502 264/500/500 
f 397/501/501 396/503/503 267/502/502 
f 396/503/503 269/504/504 267/502/502 
f 396/503/503 395/505/505 269/504/504 
f 395/505/505 271/506/506 269/504/504 
f 395/505/505 394/507/507 271/506/506 
f 394/507/507 273/508/508 271/506/506 
f 394/507/507 393/509/509 273/508/508 
f 393/509/509 280/510/510 273/508/508 
f 393/509/509 392/511/511 280/510/510 
f 392/511/511 281/512/512 280/510/510 
f 392/511/511 289/513/513 281/512/512 
f 289/513/513 288/514/514 281/512/512 
f 309/492/492 404/515/515 402/493/493 
f 313/516/516 406/517/517 404/515/515 
f 309/492/492 313/516/516 404/515/515 
f 313/516/516 326/518/518 406/517/517 
f 326/518/518 334/519/519 406/517/517 
f 326/518/518 327/520/520 334/519/519 
# 0 polygons - 809 triangles

