# 3ds Max Wavefront OBJ Exporter v0.99 - (c)2007 guruware
# File Created: 10.05.2025 21:43:32

mtllib Alumno2RightArm.mtl

#
# object Alumno2RightArm
#

v  0.0281 0.0605 -0.0504
v  0.0360 0.0266 -0.0725
v  -0.0091 0.0257 -0.0534
v  -0.0049 0.0631 -0.0386
v  0.0743 0.0591 -0.0531
v  0.0819 0.0212 -0.0768
v  0.0683 0.0919 -0.0351
v  0.0291 0.0899 -0.0361
v  -0.0085 0.0952 -0.0233
v  0.0043 0.0873 -0.0316
v  -0.0306 0.0723 -0.0222
v  0.0750 0.1384 0.0352
v  0.0718 0.1285 0.0009
v  0.0304 0.1305 0.0005
v  0.0328 0.1131 -0.0233
v  0.0689 0.1118 -0.0206
v  -0.0408 0.0778 -0.0124
v  -0.0139 0.1022 -0.0150
v  0.0330 0.1213 -0.0146
v  0.0703 0.1204 -0.0112
v  0.1110 0.1028 -0.0013
v  0.1070 0.0960 -0.0137
v  -0.0564 0.1008 0.0413
v  -0.0483 0.0849 0.0035
v  -0.0683 0.0465 0.0084
v  -0.0844 0.0639 0.0504
v  0.1153 0.1207 0.0464
v  0.1120 0.1082 0.0094
v  -0.0166 0.1283 0.0350
v  -0.0183 0.1096 -0.0028
v  -0.0140 0.1038 -0.0089
v  -0.0432 0.0796 -0.0052
v  0.0288 0.1417 0.0352
v  0.0324 0.1240 -0.0072
v  -0.0611 0.0409 0.0006
v  0.0707 0.1224 -0.0035
v  0.1086 0.1025 0.0046
v  -0.0808 0.0060 0.0159
v  -0.0998 0.0314 0.0591
v  -0.1035 -0.0234 0.0477
v  0.1301 -0.0613 -0.1144
v  0.1407 -0.0969 -0.1397
v  0.0933 -0.0830 -0.1641
v  0.0924 -0.0520 -0.1348
v  0.0166 -0.0592 -0.1116
v  0.0472 -0.0548 -0.1283
v  0.0487 -0.0893 -0.1574
v  0.0126 -0.1029 -0.1440
v  0.0362 -0.0130 -0.0967
v  -0.0146 -0.0134 -0.0652
v  0.0199 -0.0332 -0.0999
v  -0.0267 -0.0326 -0.0615
v  0.0468 -0.0319 -0.1127
v  0.0964 -0.0137 -0.0999
v  0.0915 -0.0294 -0.1153
v  0.1175 -0.0352 -0.1044
v  0.1495 -0.0787 -0.0903
v  0.1574 -0.1220 -0.1091
v  0.1463 -0.0436 -0.0704
v  0.1226 0.0201 -0.0533
v  0.1371 -0.0190 -0.0642
v  0.1016 0.0876 -0.0252
v  0.1713 -0.0519 -0.0428
v  0.1698 -0.0959 -0.0643
v  0.1663 -0.1437 -0.0928
v  0.1622 -0.1071 -0.0453
v  0.1504 -0.1635 -0.0640
v  0.1306 -0.1433 -0.0149
v  0.1240 -0.1914 -0.0436
v  0.0387 -0.1564 -0.0199
v  0.0229 -0.1587 -0.0427
v  0.0657 -0.1998 -0.0640
v  0.0639 -0.1745 -0.0299
v  -0.0076 -0.1484 0.0401
v  -0.0065 -0.1217 0.0284
v  0.0489 -0.1327 0.0328
v  0.0484 -0.1613 0.0410
v  -0.0615 -0.1144 0.0415
v  -0.0473 -0.0895 0.0248
v  -0.0964 -0.0720 0.0441
v  -0.0771 -0.0517 0.0235
v  0.0790 -0.1300 0.0374
v  0.0787 -0.1266 0.0348
v  0.0474 -0.1289 0.0313
v  -0.0072 -0.1105 0.0260
v  -0.0446 -0.0799 0.0230
v  0.0447 -0.1388 0.0269
v  0.0764 -0.1393 0.0297
v  0.1358 -0.1012 0.0384
v  0.1112 -0.1175 0.0367
v  0.1085 -0.1306 0.0294
v  0.1396 -0.1087 0.0275
v  0.1595 -0.0752 0.0314
v  -0.0149 -0.1195 0.0166
v  0.0444 -0.1436 0.0107
v  -0.0161 -0.1214 -0.0010
v  0.0419 -0.1478 -0.0052
v  0.0729 -0.1599 -0.0080
v  0.0821 -0.1435 0.0205
v  0.0476 -0.1451 0.0195
v  0.0791 -0.1494 -0.0008
v  0.1094 -0.1350 0.0196
v  0.1358 -0.1133 0.0159
v  0.1029 -0.1611 -0.0086
v  0.0932 -0.1918 -0.0389
v  0.0978 -0.1485 -0.0005
v  0.1587 -0.0181 -0.0433
v  0.1464 0.0950 0.0540
v  0.1447 0.0781 0.0175
v  0.1582 0.0766 0.0531
v  0.1611 0.0628 0.0211
v  0.1376 0.0747 0.0115
v  0.1569 0.0591 0.0134
v  0.1692 0.0383 0.0122
v  0.1674 0.0373 0.0193
v  0.1626 -0.0090 0.0320
v  0.1664 -0.0088 0.0256
v  0.1395 0.0736 0.0050
v  0.1583 0.0589 0.0064
v  0.1351 0.0689 -0.0068
v  0.1498 0.0508 -0.0149
v  0.1619 0.0324 -0.0193
v  0.1432 0.0273 -0.0335
v  0.1238 0.0634 -0.0229
v  0.1320 0.0478 -0.0274
v  0.1090 0.0579 -0.0391
v  0.1612 0.0495 0.0601
v  0.1685 0.0396 0.0262
v  -0.0596 0.0391 -0.0072
v  -0.0705 -0.0021 0.0063
v  -0.0485 -0.0057 -0.0294
v  -0.0424 0.0336 -0.0261
v  -0.0183 -0.0795 -0.0900
v  -0.0156 -0.1186 -0.1260
v  -0.0332 -0.1030 -0.0760
v  -0.0262 -0.1388 -0.1126
v  -0.0214 -0.1187 -0.0210
v  -0.0250 -0.1097 -0.0472
v  -0.0444 -0.0782 -0.0162
v  -0.0391 -0.0711 -0.0536
v  -0.0239 -0.1497 -0.1001
v  -0.0284 -0.1094 -0.0610
v  -0.0019 -0.1685 -0.0906
v  0.0166 -0.1648 -0.0729
v  -0.0490 -0.0362 -0.0268
v  -0.0666 -0.0470 0.0146
v  -0.0651 -0.0027 -0.0042
v  -0.0656 -0.0445 0.0047
v  -0.0467 -0.0835 0.0189
v  0.1676 -0.0469 0.0285
v  0.1658 -0.0476 0.0358
v  0.1568 -0.0722 0.0385
v  0.1696 -0.0613 -0.0254
v  0.1737 -0.0058 -0.0101
v  0.1671 -0.0508 0.0074
v  0.1629 -0.0090 0.0384
v  0.0072 -0.1370 -0.1838
v  0.0462 -0.1213 -0.1958
v  -0.0171 -0.1554 -0.1660
v  0.0363 -0.1425 -0.2123
v  0.0048 -0.1552 -0.1999
v  0.0332 -0.1685 -0.2287
v  0.0047 -0.1808 -0.2091
v  0.0310 -0.1817 -0.2560
v  0.0019 -0.1902 -0.2300
v  -0.0199 -0.1844 -0.1874
v  -0.0196 -0.1794 -0.1411
v  -0.0164 -0.2027 -0.2026
v  0.0020 -0.2015 -0.1238
v  -0.0203 -0.1996 -0.1662
v  -0.0168 -0.2190 -0.1825
v  -0.0087 -0.2327 -0.1882
v  -0.0070 -0.2211 -0.2082
v  0.0093 -0.2528 -0.1678
v  -0.0084 -0.2463 -0.1932
v  0.0060 -0.2746 -0.1823
v  0.0075 -0.2352 -0.1547
v  0.0065 -0.2189 -0.1412
v  0.1400 -0.1246 -0.1737
v  0.1574 -0.1519 -0.1422
v  0.1614 -0.1787 -0.1204
v  0.1574 -0.2232 -0.1589
v  0.1557 -0.2451 -0.1853
v  0.1550 -0.2098 -0.2237
v  0.1559 -0.1894 -0.1922
v  0.1502 -0.2065 -0.0995
v  0.1424 -0.2454 -0.1337
v  0.1366 -0.2684 -0.1581
v  0.1151 -0.2353 -0.0869
v  0.0359 -0.2929 -0.1686
v  0.0357 -0.2614 -0.1513
v  0.0369 -0.2439 -0.1364
v  0.1048 -0.2958 -0.1646
v  0.1109 -0.2758 -0.1405
v  0.0758 -0.2772 -0.1419
v  0.1139 -0.2560 -0.1128
v  0.0797 -0.2536 -0.1172
v  0.0865 -0.2199 -0.0732
v  0.0501 -0.2064 -0.0890
v  0.0283 -0.2101 -0.1090
v  0.0338 -0.2260 -0.1210
v  0.0782 -0.2372 -0.0997
v  0.0265 -0.2006 -0.2602
v  0.0087 -0.2131 -0.2394
v  0.0038 -0.2214 -0.2488
v  0.0237 -0.2066 -0.2642
v  -0.0026 -0.2443 -0.2171
v  0.0885 -0.1122 -0.1934
v  0.0738 -0.1384 -0.2229
v  0.1254 -0.1509 -0.2184
v  0.0921 -0.1387 -0.2230
v  0.0667 -0.1633 -0.2481
v  0.1220 -0.1809 -0.2560
v  0.0893 -0.1632 -0.2543
v  0.0585 -0.1809 -0.2792
v  0.0783 -0.1870 -0.2884
v  0.1593 -0.0752 0.0116
v  0.1457 -0.1087 -0.0037
v  0.1597 0.0144 0.0529
# 219 vertices

vn -0.1766 0.4615 -0.8694
vn -0.2057 0.4890 -0.8477
vn -0.4703 0.3224 -0.8215
vn -0.3348 0.3790 -0.8627
vn 0.1546 0.5252 -0.8368
vn 0.1828 0.5586 -0.8090
vn 0.1509 0.5375 -0.8296
vn -0.1065 0.4656 -0.8786
vn -0.3547 0.5045 -0.7872
vn -0.2462 0.4192 -0.8739
vn -0.5234 0.3336 -0.7841
vn 0.2691 0.9220 -0.2785
vn 0.2526 0.7772 -0.5763
vn 0.0726 0.8796 -0.4701
vn -0.0877 0.6236 -0.7768
vn 0.2216 0.6391 -0.7366
vn -0.6867 0.4412 -0.5778
vn -0.4778 0.7227 -0.4993
vn -0.1219 0.8464 -0.5184
vn 0.2685 0.8442 -0.4639
vn 0.5796 0.8018 -0.1457
vn 0.5136 0.6149 -0.5984
vn -0.7016 0.6279 -0.3369
vn -0.7100 0.4973 -0.4986
vn -0.7821 0.2360 -0.5768
vn -0.8453 0.4116 -0.3406
vn 0.5638 0.7844 -0.2584
vn 0.5445 0.6115 -0.5741
vn -0.4282 0.8371 -0.3406
vn -0.4491 0.6889 -0.5690
vn -0.3459 0.5541 -0.7572
vn -0.6402 0.4001 -0.6558
vn -0.2923 0.9028 -0.3155
vn -0.3254 0.8119 -0.4847
vn -0.2771 0.6947 -0.6638
vn -0.6740 0.1282 -0.7276
vn 0.2339 0.5583 -0.7960
vn 0.0923 0.7707 -0.6304
vn -0.1378 0.9295 -0.3422
vn -0.5093 0.8294 -0.2296
vn 0.2947 0.9198 -0.2592
vn 0.4555 0.3970 -0.7968
vn 0.4947 0.8407 0.2201
vn -0.7723 0.5185 -0.3671
vn -0.7833 0.0498 -0.6196
vn -0.9014 0.2675 -0.3405
vn -0.8380 0.0374 -0.5444
vn 0.6749 0.5132 -0.5302
vn 0.7482 0.4852 -0.4525
vn 0.1835 0.6843 -0.7058
vn 0.1678 0.6513 -0.7401
vn -0.5451 0.4616 -0.6998
vn -0.3030 0.5800 -0.7562
vn -0.3280 0.6774 -0.6584
vn -0.5718 0.5881 -0.5720
vn -0.2713 0.5261 -0.8060
vn -0.5794 0.3193 -0.7499
vn -0.4845 0.4258 -0.7642
vn -0.7338 0.2178 -0.6435
vn -0.2260 0.5550 -0.8005
vn 0.2841 0.6199 -0.7314
vn 0.1448 0.6519 -0.7444
vn 0.5702 0.5623 -0.5989
vn 0.8499 0.3468 -0.3967
vn 0.9251 0.2475 -0.2879
vn 0.7553 0.3607 -0.5472
vn 0.5241 0.4612 -0.7160
vn 0.6428 0.4275 -0.6357
vn 0.4217 0.5587 -0.7142
vn 0.9515 0.0915 -0.2937
vn 0.9942 0.0451 -0.0977
vn 0.9949 -0.0983 0.0239
vn 0.9089 -0.2790 0.3100
vn 0.8559 -0.3383 0.3911
vn 0.6618 -0.5205 0.5394
vn 0.4644 -0.5723 0.6759
vn -0.3868 -0.7837 0.4860
vn -0.5386 -0.7664 0.3501
vn -0.5252 -0.7144 0.4623
vn -0.3178 -0.7554 0.5730
vn -0.1166 -0.3639 -0.9241
vn -0.0983 -0.3231 -0.9412
vn 0.0732 -0.3207 -0.9443
vn 0.0453 -0.3091 -0.9500
vn -0.3146 -0.2753 -0.9084
vn -0.2443 -0.2843 -0.9271
vn -0.6386 -0.1579 -0.7532
vn -0.5809 -0.2587 -0.7718
vn 0.1826 -0.4284 -0.8850
vn 0.1901 -0.5816 -0.7909
vn 0.0483 -0.3428 -0.9382
vn -0.0468 -0.2104 -0.9765
vn -0.1492 -0.1923 -0.9699
vn -0.1681 -0.3747 0.9118
vn -0.2035 -0.6137 0.7629
vn -0.0695 -0.7176 0.6930
vn -0.0773 -0.3543 0.9319
vn 0.5876 -0.5421 0.6007
vn 0.2261 -0.4951 0.8389
vn 0.3576 -0.6993 0.6190
vn 0.7127 -0.6375 0.2926
vn 0.0512 -0.3748 0.9257
vn 0.1617 -0.6506 0.7420
vn 0.8805 -0.4025 0.2504
vn -0.5135 -0.7252 0.4586
vn -0.3477 -0.5188 0.7810
vn -0.2746 -0.9569 0.0944
vn -0.5906 -0.7978 0.1213
vn -0.2654 -0.8540 0.4475
vn -0.2041 -0.6446 0.7368
vn 0.0057 -0.9372 0.3488
vn -0.1826 -0.9317 0.3141
vn -0.0660 -0.8688 0.4908
vn 0.4433 -0.7987 0.4070
vn 0.7086 -0.6911 0.1424
vn 0.2685 -0.8897 0.3691
vn 0.2762 -0.6259 0.7294
vn -0.0288 -0.6991 0.7144
vn -0.0154 -0.7398 0.6726
vn -0.1883 -0.7359 0.6504
vn 0.1677 -0.7100 0.6839
vn 0.0773 -0.7354 0.6732
vn 0.7386 0.3118 -0.5977
vn 0.7470 0.6335 -0.2016
vn 0.6379 0.5221 -0.5661
vn 0.9266 0.3658 -0.0872
vn 0.8347 0.4460 -0.3231
vn 0.5125 0.3728 -0.7735
vn 0.6814 0.4402 -0.5847
vn 0.9501 0.3098 0.0368
vn 0.9484 0.1858 0.2571
vn 0.8689 0.0764 0.4890
vn 0.9248 0.0577 0.3760
vn 0.6625 0.7438 0.0884
vn 0.6618 0.7189 -0.2124
vn 0.7810 0.5942 -0.1922
vn 0.7646 0.6326 0.1235
vn 0.5870 0.6093 -0.5331
vn 0.5993 0.5521 -0.5797
vn 0.7440 0.4008 -0.5347
vn 0.5130 0.4258 -0.7453
vn 0.5569 0.5142 -0.6523
vn 0.5006 0.4732 -0.7249
vn 0.4613 0.4842 -0.7434
vn 0.9876 0.1310 -0.0866
vn 0.9954 0.0952 0.0074
vn 0.9771 0.0571 -0.2051
vn -0.8491 0.2371 -0.4721
vn -0.9288 0.2788 -0.2441
vn -0.6931 -0.0712 -0.7173
vn -0.7768 0.0855 -0.6240
vn -0.6427 0.2132 -0.7359
vn -0.7562 0.3264 -0.5671
vn -0.8060 0.3756 -0.4575
vn -0.9897 -0.0314 -0.1394
vn -0.9750 0.0119 -0.2220
vn -0.7504 -0.6603 0.0283
vn -0.8774 -0.4765 0.0566
vn -0.9082 -0.3720 -0.1918
vn -0.9437 -0.0502 -0.3270
vn -0.8701 -0.4186 0.2601
vn -0.9030 -0.3704 0.2175
vn -0.6005 -0.6048 0.5230
vn -0.5505 -0.6948 0.4628
vn -0.8844 -0.0518 -0.4639
vn -0.5206 -0.3280 -0.7883
vn -0.8699 -0.0208 -0.4928
vn -0.9365 -0.2244 -0.2694
vn -0.8955 -0.3921 -0.2107
vn -0.8978 -0.0402 -0.4386
vn -0.7984 -0.4860 0.3554
vn -0.6948 -0.3831 0.6087
vn 0.9787 -0.1242 0.1633
vn 0.9625 -0.1384 0.2335
vn 0.8194 -0.3652 0.4418
vn 0.9742 -0.1994 0.1054
vn 0.9881 0.0844 -0.1286
vn 0.9762 -0.2046 0.0715
vn 0.9964 0.0090 -0.0848
vn 0.9858 0.1411 -0.0907
vn -0.6001 0.6134 -0.5134
vn -0.3078 0.7167 -0.6257
vn -0.9043 0.3326 -0.2677
vn -0.4100 0.6174 -0.6714
vn -0.6299 0.4524 -0.6314
vn -0.5150 0.6485 -0.5606
vn -0.5807 0.6076 -0.5419
vn -0.5588 0.6174 -0.5536
vn -0.7538 0.4163 -0.5085
vn -0.9319 0.2015 -0.3016
vn -0.9534 -0.2483 0.1713
vn -0.9154 -0.0848 -0.3936
vn -0.6710 -0.5868 0.4532
vn -0.9483 -0.2555 0.1881
vn -0.9245 -0.3793 0.0377
vn -0.9409 -0.3372 0.0324
vn -0.9092 -0.1768 -0.3770
vn -0.7043 -0.4024 0.5848
vn -0.9675 -0.2447 0.0636
vn -0.7879 -0.4922 0.3700
vn -0.6779 -0.4908 0.5473
vn -0.6657 -0.5479 0.5065
vn 0.7331 0.4776 -0.4841
vn 0.9568 0.1859 -0.2234
vn 0.9898 -0.1328 0.0525
vn 0.9763 -0.1878 0.1071
vn 0.9691 -0.2287 0.0925
vn 0.9398 0.2334 -0.2496
vn 0.9498 0.2312 -0.2110
vn 0.8463 -0.4141 0.3352
vn 0.7745 -0.5087 0.3760
vn 0.7166 -0.5921 0.3687
vn 0.2796 -0.7532 0.5954
vn -0.4222 -0.4913 0.7618
vn -0.4708 -0.5117 0.7187
vn -0.4901 -0.5830 0.6480
vn 0.2888 -0.7636 0.5775
vn 0.2628 -0.7747 0.5751
vn 0.0215 -0.7384 0.6741
vn 0.2502 -0.7638 0.5950
vn -0.4083 -0.5852 0.7005
vn -0.4415 -0.6407 0.6281
vn -0.2562 -0.7520 0.6074
vn -0.4800 -0.7051 0.5219
vn -0.1001 -0.7476 0.6565
vn -0.4951 -0.6370 0.5908
vn -0.4986 -0.6318 0.5935
vn -0.5083 -0.6217 0.5959
vn -0.4551 -0.6572 0.6008
vn -0.2546 -0.7532 0.6066
vn -0.5384 -0.6694 0.5119
vn -0.6986 0.4509 -0.5556
vn -0.8985 0.2600 -0.3536
vn -0.7338 0.6589 0.1657
vn -0.6035 0.7781 -0.1743
vn -0.9997 -0.0156 -0.0168
vn 0.1501 0.7340 -0.6624
vn -0.1294 0.7475 -0.6516
vn 0.6179 0.5953 -0.5136
vn 0.1985 0.7578 -0.6216
vn -0.2652 0.7905 -0.5521
vn 0.6160 0.5534 -0.5607
vn 0.1407 0.7812 -0.6082
vn -0.3194 0.7391 -0.5931
vn 0.1119 0.6298 -0.7686
vn 0.9183 -0.3890 0.0734
vn 0.8255 -0.4709 0.3112
vn 0.9994 0.0241 0.0245
# 248 vertex normals

vt 0.7246 0.7972 0.0000
vt 0.7135 0.8002 0.0000
vt 0.7162 0.7737 0.0000
vt 0.7269 0.7795 0.0000
vt 0.7246 0.8215 0.0000
vt 0.7123 0.8263 0.0000
vt 0.7343 0.8184 0.0000
vt 0.7333 0.7990 0.0000
vt 0.7361 0.7805 0.0000
vt 0.7333 0.7864 0.0000
vt 0.7315 0.7666 0.0000
vt 0.8717 0.5952 0.0000
vt 0.8812 0.5907 0.0000
vt 0.8859 0.6100 0.0000
vt 0.7400 0.8016 0.0000
vt 0.7406 0.8188 0.0000
vt 0.7342 0.7616 0.0000
vt 0.7387 0.7781 0.0000
vt 0.7430 0.8020 0.0000
vt 0.7437 0.8199 0.0000
vt 0.7425 0.8422 0.0000
vt 0.7391 0.8391 0.0000
vt 0.9389 0.5426 0.0000
vt 0.9289 0.5331 0.0000
vt 0.9316 0.5097 0.0000
vt 0.9432 0.5184 0.0000
vt 0.8655 0.5741 0.0000
vt 0.8758 0.5691 0.0000
vt 0.9339 0.5678 0.0000
vt 0.9248 0.5534 0.0000
vt 0.9225 0.5519 0.0000
vt 0.9262 0.5313 0.0000
vt 0.9295 0.5917 0.0000
vt 0.9210 0.5817 0.0000
vt 0.9186 0.5791 0.0000
vt 0.9287 0.5077 0.0000
vt 0.8831 0.5892 0.0000
vt 0.8882 0.6070 0.0000
vt 0.7449 0.8018 0.0000
vt 0.7402 0.7775 0.0000
vt 0.7456 0.8209 0.0000
vt 0.8780 0.5679 0.0000
vt 0.7439 0.8428 0.0000
vt 0.7357 0.7593 0.0000
vt 0.9339 0.4869 0.0000
vt 0.9463 0.4994 0.0000
vt 0.9428 0.4694 0.0000
vt 0.6879 0.8624 0.0000
vt 0.6753 0.8713 0.0000
vt 0.6720 0.8388 0.0000
vt 0.6848 0.8363 0.0000
vt 0.6856 0.7858 0.0000
vt 0.6843 0.8077 0.0000
vt 0.6705 0.8109 0.0000
vt 0.6687 0.7855 0.0000
vt 0.7001 0.7999 0.0000
vt 0.7049 0.7660 0.0000
vt 0.6944 0.7889 0.0000
vt 0.7008 0.7549 0.0000
vt 0.6928 0.8069 0.0000
vt 0.7005 0.8364 0.0000
vt 0.6937 0.8343 0.0000
vt 0.6953 0.8515 0.0000
vt 0.6898 0.8838 0.0000
vt 0.6772 0.8963 0.0000
vt 0.7011 0.8762 0.0000
vt 0.7172 0.8516 0.0000
vt 0.7073 0.8660 0.0000
vt 0.7355 0.8358 0.0000
vt 0.7058 0.8971 0.0000
vt 0.6921 0.9057 0.0000
vt 0.6763 0.9126 0.0000
vt 0.6933 0.9190 0.0000
vt 0.6775 0.9339 0.0000
vt 0.6908 0.9515 0.0000
vt 0.6751 0.9570 0.0000
vt 0.6687 0.6772 0.0000
vt 0.6666 0.6928 0.0000
vt 0.6499 0.6796 0.0000
vt 0.6603 0.6696 0.0000
vt 0.9127 0.4044 0.0000
vt 0.9129 0.4190 0.0000
vt 0.8973 0.4148 0.0000
vt 0.8966 0.4005 0.0000
vt 0.9286 0.4212 0.0000
vt 0.9245 0.4363 0.0000
vt 0.9392 0.4437 0.0000
vt 0.9327 0.4566 0.0000
vt 0.8888 0.4181 0.0000
vt 0.8892 0.4203 0.0000
vt 0.8979 0.4169 0.0000
vt 0.9133 0.4252 0.0000
vt 0.9238 0.4414 0.0000
vt 0.6816 0.6537 0.0000
vt 0.6792 0.6579 0.0000
vt 0.6750 0.6421 0.0000
vt 0.6781 0.6369 0.0000
vt 0.7109 0.9525 0.0000
vt 0.7061 0.9681 0.0000
vt 0.7017 0.9696 0.0000
vt 0.7073 0.9504 0.0000
vt 0.7029 0.9870 0.0000
vt 0.6989 0.9880 0.0000
vt 0.7155 0.9332 0.0000
vt 0.6891 0.6869 0.0000
vt 0.6917 0.6802 0.0000
vt 0.6754 0.6638 0.0000
vt 0.6861 0.6938 0.0000
vt 0.6722 0.6703 0.0000
vt 0.6651 0.6579 0.0000
vt 0.6717 0.6426 0.0000
vt 0.6766 0.6594 0.0000
vt 0.6673 0.6512 0.0000
vt 0.6988 0.9678 0.0000
vt 0.7036 0.9499 0.0000
vt 0.6964 0.9838 0.0000
vt 0.6872 0.9698 0.0000
vt 0.6752 0.9738 0.0000
vt 0.6870 0.9869 0.0000
vt 0.6796 0.9911 0.0000
vt 0.6914 0.9730 0.0000
vt 0.6906 0.9838 0.0000
vt 0.7123 0.8807 0.0000
vt 0.8618 0.5539 0.0000
vt 0.8720 0.5468 0.0000
vt 0.8618 0.5427 0.0000
vt 0.8703 0.5359 0.0000
vt 0.8748 0.5475 0.0000
vt 0.8729 0.5353 0.0000
vt 0.7339 0.8832 0.0000
vt 0.7350 0.8854 0.0000
vt 0.7290 0.9075 0.0000
vt 0.7277 0.9052 0.0000
vt 0.7405 0.8624 0.0000
vt 0.7389 0.8615 0.0000
vt 0.7364 0.8725 0.0000
vt 0.7379 0.8741 0.0000
vt 0.7357 0.8577 0.0000
vt 0.7310 0.8658 0.0000
vt 0.7271 0.8738 0.0000
vt 0.7230 0.8638 0.0000
vt 0.7315 0.8502 0.0000
vt 0.7278 0.8558 0.0000
vt 0.7274 0.8411 0.0000
vt 0.8605 0.5286 0.0000
vt 0.8696 0.5237 0.0000
vt 0.8715 0.5225 0.0000
vt 0.7265 0.7443 0.0000
vt 0.7281 0.7415 0.0000
vt 0.9302 0.4833 0.0000
vt 0.7127 0.7432 0.0000
vt 0.7223 0.7543 0.0000
vt 0.6837 0.7569 0.0000
vt 0.6673 0.7625 0.0000
vt 0.6799 0.7386 0.0000
vt 0.6644 0.7471 0.0000
vt 0.6842 0.7047 0.0000
vt 0.6821 0.7205 0.0000
vt 0.6964 0.7164 0.0000
vt 0.6922 0.7368 0.0000
vt 0.6635 0.7370 0.0000
vt 0.6802 0.7280 0.0000
vt 0.6587 0.7215 0.0000
vt 0.6608 0.7068 0.0000
vt 0.7055 0.7335 0.0000
vt 0.9297 0.4588 0.0000
vt 0.7174 0.7303 0.0000
vt 0.7089 0.7153 0.0000
vt 0.7096 0.7105 0.0000
vt 0.7191 0.7253 0.0000
vt 0.7002 0.6999 0.0000
vt 0.7014 0.6978 0.0000
vt 0.7208 0.9212 0.0000
vt 0.7221 0.9236 0.0000
vt 0.7175 0.9354 0.0000
vt 0.7071 0.9080 0.0000
vt 0.7216 0.8925 0.0000
vt 0.7159 0.9165 0.0000
vt 0.8687 0.4973 0.0000
vt 0.8672 0.4976 0.0000
vt 0.6529 0.7893 0.0000
vt 0.6555 0.8144 0.0000
vt 0.6511 0.7685 0.0000
vt 0.6474 0.8106 0.0000
vt 0.6459 0.7899 0.0000
vt 0.6385 0.8096 0.0000
vt 0.6381 0.7878 0.0000
vt 0.6303 0.8141 0.0000
vt 0.6318 0.7915 0.0000
vt 0.6407 0.7695 0.0000
vt 0.6492 0.7480 0.0000
vt 0.6339 0.7716 0.0000
vt 0.6453 0.7283 0.0000
vt 0.6402 0.7545 0.0000
vt 0.6328 0.7567 0.0000
vt 0.6279 0.7546 0.0000
vt 0.6275 0.7695 0.0000
vt 0.6254 0.7340 0.0000
vt 0.6236 0.7529 0.0000
vt 0.6180 0.7369 0.0000
vt 0.6317 0.7326 0.0000
vt 0.6379 0.7304 0.0000
vt 0.6628 0.8710 0.0000
vt 0.6646 0.8963 0.0000
vt 0.6640 0.9156 0.0000
vt 0.6483 0.9188 0.0000
vt 0.6398 0.9180 0.0000
vt 0.6385 0.8917 0.0000
vt 0.6479 0.8937 0.0000
vt 0.6624 0.9351 0.0000
vt 0.6487 0.9382 0.0000
vt 0.6401 0.9390 0.0000
vt 0.6586 0.9591 0.0000
vt 0.6151 0.7162 0.0000
vt 0.6248 0.7148 0.0000
vt 0.6310 0.7116 0.0000
vt 0.6327 0.9560 0.0000
vt 0.6409 0.9559 0.0000
vt 0.6387 0.9745 0.0000
vt 0.6498 0.9574 0.0000
vt 0.6207 0.6910 0.0000
vt 0.6293 0.6846 0.0000
vt 0.6632 0.9755 0.0000
vt 0.6680 0.9889 0.0000
vt 0.6479 0.9756 0.0000
vt 0.6461 0.6943 0.0000
vt 0.6437 0.7103 0.0000
vt 0.6377 0.7101 0.0000
vt 0.6359 0.6817 0.0000
vt 0.6543 0.9785 0.0000
vt 0.6612 0.9981 0.0000
vt 0.6249 0.8101 0.0000
vt 0.6245 0.7912 0.0000
vt 0.6205 0.7921 0.0000
vt 0.6228 0.8087 0.0000
vt 0.6197 0.7664 0.0000
vt 0.6596 0.8387 0.0000
vt 0.6478 0.8332 0.0000
vt 0.6485 0.8637 0.0000
vt 0.6485 0.8436 0.0000
vt 0.6378 0.8321 0.0000
vt 0.6361 0.8646 0.0000
vt 0.6378 0.8452 0.0000
vt 0.6283 0.8330 0.0000
vt 0.6270 0.8442 0.0000
vt 0.7115 0.9286 0.0000
vt 0.7008 0.9391 0.0000
vt 0.8632 0.5107 0.0000
# 248 texture coords

o Alumno2RightArm
g Alumno2RightArm
usemtl mat_1_Doctor_body_d_jpg
s 1
f 1/1/1 2/2/2 3/3/3 
f 3/3/3 4/4/4 1/1/1 
f 5/5/5 6/6/6 2/2/2 
f 2/2/2 1/1/1 5/5/5 
f 7/7/7 5/5/5 1/1/1 
f 1/1/1 8/8/8 7/7/7 
f 9/9/9 10/10/10 4/4/4 
f 4/4/4 11/11/11 9/9/9 
f 4/4/4 10/10/10 8/8/8 
f 8/8/8 1/1/1 4/4/4 
f 12/12/12 13/13/13 14/14/14 
f 15/15/15 8/8/8 10/10/10 
f 10/10/10 9/9/9 15/15/15 
f 16/16/16 7/7/7 8/8/8 
f 8/8/8 15/15/15 16/16/16 
f 17/17/17 18/18/18 9/9/9 
f 9/9/9 11/11/11 17/17/17 
f 19/19/19 15/15/15 9/9/9 
f 9/9/9 18/18/18 19/19/19 
f 20/20/20 16/16/16 15/15/15 
f 15/15/15 19/19/19 20/20/20 
f 16/16/16 20/20/20 21/21/21 
f 21/21/21 22/22/22 16/16/16 
f 23/23/23 24/24/24 25/25/25 
f 25/25/25 26/26/26 23/23/23 
f 27/27/27 28/28/28 13/13/13 
f 13/13/13 12/12/12 27/27/27 
f 29/29/29 30/30/30 24/24/24 
f 24/24/24 23/23/23 29/29/29 
f 30/30/30 31/31/31 32/32/32 
f 32/32/32 24/24/24 30/30/30 
f 30/30/30 29/29/29 33/33/33 
f 33/33/33 14/34/34 30/30/30 
f 31/31/31 30/30/30 14/34/34 
f 14/34/34 34/35/35 31/31/31 
f 32/32/32 35/36/36 25/25/25 
f 25/25/25 24/24/24 32/32/32 
f 36/37/37 34/38/38 14/14/14 
f 14/14/14 13/13/13 36/37/37 
f 34/39/39 19/19/19 18/18/18 
f 18/18/18 31/40/40 34/39/39 
f 19/19/19 34/39/39 36/41/41 
f 36/41/41 20/20/20 19/19/19 
f 37/42/42 36/37/37 13/13/13 
f 13/13/13 28/28/28 37/42/42 
f 20/20/20 36/41/41 37/43/43 
f 37/43/43 21/21/21 20/20/20 
f 32/44/44 31/40/40 18/18/18 
f 18/18/18 17/17/17 32/44/44 
f 38/45/45 39/46/46 26/26/26 
f 26/26/26 25/25/25 38/45/45 
f 39/46/46 38/45/45 40/47/47 
f 41/48/48 42/49/49 43/50/50 
f 43/50/50 44/51/51 41/48/48 
f 45/52/52 46/53/53 47/54/54 
f 47/54/54 48/55/55 45/52/52 
f 44/51/51 43/50/50 47/54/54 
f 47/54/54 46/53/53 44/51/51 
f 2/2/2 49/56/56 50/57/57 
f 50/57/57 3/3/3 2/2/2 
f 50/57/57 49/56/56 51/58/58 
f 51/58/58 52/59/59 50/57/57 
f 53/60/60 46/53/53 45/52/52 
f 45/52/52 51/58/58 53/60/60 
f 6/6/6 54/61/61 49/56/56 
f 49/56/56 2/2/2 6/6/6 
f 54/61/61 55/62/62 53/60/60 
f 53/60/60 49/56/56 54/61/61 
f 55/62/62 44/51/51 46/53/53 
f 46/53/53 53/60/60 55/62/62 
f 44/51/51 55/62/62 56/63/63 
f 56/63/63 41/48/48 44/51/51 
f 57/64/64 58/65/65 42/49/49 
f 42/49/49 41/48/48 57/64/64 
f 59/66/66 57/64/64 41/48/48 
f 41/48/48 56/63/63 59/66/66 
f 60/67/67 61/68/68 54/61/61 
f 54/61/61 6/6/6 60/67/67 
f 22/22/22 62/69/69 7/7/7 
f 7/7/7 16/16/16 22/22/22 
f 61/68/68 59/66/66 56/63/63 
f 56/63/63 54/61/61 61/68/68 
f 59/66/66 63/70/70 64/71/71 
f 64/71/71 57/64/64 59/66/66 
f 64/71/71 65/72/72 58/65/65 
f 58/65/65 57/64/64 64/71/71 
f 65/72/72 64/71/71 66/73/73 
f 66/73/73 67/74/74 65/72/72 
f 68/75/75 69/76/76 67/74/74 
f 67/74/74 66/73/73 68/75/75 
f 70/77/77 71/78/78 72/79/79 
f 72/79/79 73/80/80 70/77/77 
f 74/81/81 75/82/82 76/83/83 
f 76/83/83 77/84/84 74/81/81 
f 78/85/85 79/86/86 75/82/82 
f 75/82/82 74/81/81 78/85/85 
f 80/87/87 81/88/88 79/86/86 
f 79/86/86 78/85/85 80/87/87 
f 77/84/84 76/83/83 82/89/89 
f 83/90/90 82/89/89 76/83/83 
f 76/83/83 84/91/91 83/90/90 
f 85/92/92 75/82/82 79/86/86 
f 79/86/86 86/93/93 85/92/92 
f 75/82/82 85/92/92 84/91/91 
f 84/91/91 76/83/83 75/82/82 
f 84/94/94 87/95/95 88/96/96 
f 88/96/96 83/97/97 84/94/94 
f 89/98/98 90/99/99 91/100/100 
f 91/100/100 92/101/101 89/98/98 
f 90/99/99 83/102/102 88/103/103 
f 88/103/103 91/100/100 90/99/99 
f 89/98/98 92/101/101 93/104/104 
f 94/105/105 87/95/95 84/94/94 
f 84/94/94 85/106/106 94/105/105 
f 95/107/107 94/105/105 96/108/108 
f 96/108/108 97/109/109 95/107/107 
f 98/110/110 97/109/109 70/77/77 
f 70/77/77 73/80/80 98/110/110 
f 99/111/111 88/96/96 87/95/95 
f 87/95/95 100/112/112 99/111/111 
f 101/113/113 95/107/107 97/109/109 
f 97/109/109 98/110/110 101/113/113 
f 101/113/113 99/111/111 100/112/112 
f 100/112/112 95/107/107 101/113/113 
f 91/100/100 102/114/114 103/115/115 
f 103/115/115 92/101/101 91/100/100 
f 99/116/116 102/114/114 91/100/100 
f 91/100/100 88/103/103 99/116/116 
f 68/75/75 104/117/117 105/118/118 
f 105/118/118 69/76/76 68/75/75 
f 104/117/117 98/119/119 73/120/120 
f 73/120/120 105/118/118 104/117/117 
f 106/121/121 104/117/117 68/75/75 
f 68/75/75 102/114/114 106/121/121 
f 104/117/117 106/121/121 101/122/122 
f 101/122/122 98/119/119 104/117/117 
f 101/122/122 106/121/121 102/114/114 
f 102/114/114 99/116/116 101/122/122 
f 59/66/66 61/68/68 107/123/123 
f 107/123/123 63/70/70 59/66/66 
f 28/28/28 27/27/27 108/124/124 
f 108/124/124 109/125/125 28/28/28 
f 109/125/125 108/124/124 110/126/126 
f 110/126/126 111/127/127 109/125/125 
f 112/128/128 37/42/42 28/28/28 
f 28/28/28 109/125/125 112/128/128 
f 112/128/128 109/125/125 111/127/127 
f 111/127/127 113/129/129 112/128/128 
f 114/130/130 115/131/131 116/132/132 
f 116/132/132 117/133/133 114/130/130 
f 21/21/21 37/43/43 112/134/134 
f 112/134/134 118/135/135 21/21/21 
f 119/136/136 113/137/137 115/131/131 
f 115/131/131 114/130/130 119/136/136 
f 119/136/136 118/135/135 112/134/134 
f 112/134/134 113/137/137 119/136/136 
f 22/22/22 21/21/21 118/135/135 
f 118/135/135 120/138/138 22/22/22 
f 121/139/139 120/138/138 118/135/135 
f 118/135/135 119/136/136 121/139/139 
f 121/139/139 119/136/136 114/130/130 
f 114/130/130 122/140/140 121/139/139 
f 123/141/141 107/123/123 61/68/68 
f 61/68/68 60/67/67 123/141/141 
f 62/69/69 22/22/22 120/138/138 
f 120/138/138 124/142/142 62/69/69 
f 121/139/139 122/140/140 123/141/141 
f 123/141/141 125/143/143 121/139/139 
f 126/144/144 60/67/67 6/6/6 
f 6/6/6 5/5/5 126/144/144 
f 125/143/143 123/141/141 60/67/67 
f 60/67/67 126/144/144 125/143/143 
f 126/144/144 5/5/5 7/7/7 
f 7/7/7 62/69/69 126/144/144 
f 124/142/142 120/138/138 121/139/139 
f 121/139/139 125/143/143 124/142/142 
f 111/127/127 110/126/126 127/145/145 
f 127/145/145 128/146/146 111/127/127 
f 115/147/147 113/129/129 111/127/127 
f 111/127/127 128/146/146 115/147/147 
f 129/148/148 35/149/149 32/44/44 
f 32/44/44 17/17/17 129/148/148 
f 38/45/45 25/25/25 35/36/36 
f 35/36/36 130/150/150 38/45/45 
f 3/3/3 50/57/57 131/151/151 
f 131/151/151 132/152/152 3/3/3 
f 11/11/11 4/4/4 3/3/3 
f 3/3/3 132/152/152 11/11/11 
f 129/148/148 17/17/17 11/11/11 
f 11/11/11 132/152/152 129/148/148 
f 52/59/59 51/58/58 45/52/52 
f 45/52/52 133/153/153 52/59/59 
f 134/154/154 133/153/153 45/52/52 
f 45/52/52 48/55/55 134/154/154 
f 135/155/155 133/153/153 134/154/154 
f 134/154/154 136/156/156 135/155/155 
f 137/157/157 71/78/78 70/77/77 
f 70/77/77 96/108/108 137/157/157 
f 138/158/158 137/157/157 139/159/159 
f 139/159/159 140/160/160 138/158/158 
f 135/155/155 136/156/156 141/161/161 
f 141/161/161 142/162/162 135/155/155 
f 143/163/163 144/164/164 138/158/158 
f 138/158/158 142/162/162 143/163/163 
f 144/164/164 71/78/78 137/157/157 
f 137/157/157 138/158/158 144/164/164 
f 131/151/151 50/57/57 52/59/59 
f 52/59/59 145/165/165 131/151/151 
f 86/93/93 79/86/86 81/88/88 
f 81/88/88 146/166/166 86/93/93 
f 81/88/88 38/45/45 130/150/150 
f 130/150/150 146/166/166 81/88/88 
f 147/167/167 148/168/168 146/169/169 
f 146/169/169 130/170/170 147/167/167 
f 148/168/168 145/165/165 139/159/159 
f 139/159/159 149/171/171 148/168/168 
f 149/171/171 139/159/159 137/157/157 
f 137/157/157 96/108/108 149/171/171 
f 86/172/172 146/169/169 148/168/168 
f 148/168/168 149/171/171 86/172/172 
f 149/171/171 94/105/105 85/106/106 
f 85/106/106 86/172/172 149/171/171 
f 131/151/151 145/165/165 148/168/168 
f 148/168/168 147/167/167 131/151/151 
f 129/148/148 132/152/152 131/151/151 
f 131/151/151 147/167/167 129/148/148 
f 130/170/170 35/149/149 129/148/148 
f 129/148/148 147/167/167 130/170/170 
f 150/173/173 151/174/174 152/175/175 
f 152/175/175 93/104/104 150/173/173 
f 66/73/73 64/71/71 63/70/70 
f 63/70/70 153/176/176 66/73/73 
f 150/173/173 117/133/133 116/132/132 
f 116/132/132 151/174/174 150/173/173 
f 154/177/177 117/133/133 150/173/173 
f 150/173/173 155/178/178 154/177/177 
f 116/179/179 115/147/147 128/146/146 
f 128/146/146 156/180/180 116/179/179 
f 157/181/181 48/55/55 47/54/54 
f 47/54/54 158/182/182 157/181/181 
f 159/183/183 134/154/154 48/55/55 
f 48/55/55 157/181/181 159/183/183 
f 160/184/184 161/185/185 157/181/181 
f 157/181/181 158/182/182 160/184/184 
f 162/186/186 163/187/187 161/185/185 
f 161/185/185 160/184/184 162/186/186 
f 164/188/188 165/189/189 163/187/187 
f 163/187/187 162/186/186 164/188/188 
f 159/183/183 157/181/181 161/185/185 
f 161/185/185 166/190/190 159/183/183 
f 167/191/191 136/156/156 134/154/154 
f 134/154/154 159/183/183 167/191/191 
f 166/190/190 163/187/187 165/189/189 
f 165/189/189 168/192/192 166/190/190 
f 143/163/163 141/161/161 167/191/191 
f 167/191/191 169/193/193 143/163/163 
f 167/191/191 159/183/183 166/190/190 
f 166/190/190 170/194/194 167/191/191 
f 171/195/195 170/194/194 166/190/190 
f 166/190/190 168/192/192 171/195/195 
f 172/196/196 171/195/195 168/192/192 
f 168/192/192 173/197/197 172/196/196 
f 174/198/198 172/196/196 175/199/199 
f 175/199/199 176/200/200 174/198/198 
f 171/195/195 172/196/196 174/198/198 
f 174/198/198 177/201/201 171/195/195 
f 170/194/194 171/195/195 177/201/201 
f 177/201/201 178/202/202 170/194/194 
f 178/202/202 169/193/193 167/191/191 
f 167/191/191 170/194/194 178/202/202 
f 179/203/203 42/49/49 58/65/65 
f 58/65/65 180/204/204 179/203/203 
f 180/204/204 58/65/65 65/72/72 
f 65/72/72 181/205/205 180/204/204 
f 182/206/206 183/207/207 184/208/208 
f 184/208/208 185/209/209 182/206/206 
f 185/209/209 180/204/204 181/205/205 
f 181/205/205 182/206/206 185/209/209 
f 181/205/205 65/72/72 67/74/74 
f 67/74/74 186/210/210 181/205/205 
f 187/211/211 188/212/212 183/207/207 
f 183/207/207 182/206/206 187/211/211 
f 187/211/211 182/206/206 181/205/205 
f 181/205/205 186/210/210 187/211/211 
f 186/210/210 67/74/74 69/76/76 
f 69/76/76 189/213/213 186/210/210 
f 174/198/198 176/200/200 190/214/214 
f 190/214/214 191/215/215 174/198/198 
f 177/201/201 174/198/198 191/215/215 
f 191/215/215 192/216/216 177/201/201 
f 193/217/217 194/218/218 195/219/219 
f 196/220/220 187/211/211 186/210/210 
f 186/210/210 189/213/213 196/220/220 
f 196/220/220 194/218/218 188/212/212 
f 188/212/212 187/211/211 196/220/220 
f 192/216/216 191/215/215 195/221/221 
f 195/221/221 197/222/222 192/216/216 
f 189/213/213 69/76/76 105/118/118 
f 105/118/118 198/223/223 189/213/213 
f 198/223/223 105/118/118 73/120/120 
f 73/120/120 72/224/224 198/223/223 
f 197/225/225 195/219/219 194/218/218 
f 194/218/218 196/220/220 197/225/225 
f 72/79/79 71/78/78 144/164/164 
f 144/164/164 199/226/226 72/79/79 
f 144/164/164 143/163/163 200/227/227 
f 200/227/227 199/226/226 144/164/164 
f 178/202/202 177/201/201 192/216/216 
f 192/216/216 201/228/228 178/202/202 
f 201/228/228 192/216/216 197/222/222 
f 197/222/222 202/229/229 201/228/228 
f 200/227/227 169/193/193 178/202/202 
f 178/202/202 201/228/228 200/227/227 
f 202/229/229 199/226/226 200/227/227 
f 200/227/227 201/228/228 202/229/229 
f 202/230/230 196/220/220 189/213/213 
f 189/213/213 198/223/223 202/230/230 
f 202/230/230 198/223/223 72/224/224 
f 72/224/224 199/231/231 202/230/230 
f 165/189/189 164/188/188 203/232/232 
f 203/232/232 204/233/233 165/189/189 
f 173/197/197 168/192/192 165/189/189 
f 165/189/189 204/233/233 173/197/197 
f 205/234/234 204/233/233 203/232/232 
f 203/232/232 206/235/235 205/234/234 
f 207/236/236 175/199/199 172/196/196 
f 172/196/196 173/197/197 207/236/236 
f 176/200/200 175/199/199 207/236/236 
f 208/237/237 43/50/50 42/49/49 
f 42/49/49 179/203/203 208/237/237 
f 158/182/182 47/54/54 43/50/50 
f 43/50/50 208/237/237 158/182/182 
f 209/238/238 160/184/184 158/182/182 
f 158/182/182 208/237/237 209/238/238 
f 210/239/239 179/203/203 180/204/204 
f 180/204/204 185/209/209 210/239/239 
f 211/240/240 208/237/237 179/203/203 
f 179/203/203 210/239/239 211/240/240 
f 212/241/241 162/186/186 160/184/184 
f 160/184/184 209/238/238 212/241/241 
f 213/242/242 210/239/239 185/209/209 
f 185/209/209 184/208/208 213/242/242 
f 214/243/243 212/241/241 209/238/238 
f 209/238/238 211/240/240 214/243/243 
f 214/243/243 211/240/240 210/239/239 
f 210/239/239 213/242/242 214/243/243 
f 215/244/244 164/188/188 162/186/186 
f 162/186/186 212/241/241 215/244/244 
f 203/232/232 164/188/188 215/244/244 
f 216/245/245 214/243/243 213/242/242 
f 215/244/244 212/241/241 214/243/243 
f 214/243/243 216/245/245 215/244/244 
f 49/56/56 53/60/60 51/58/58 
f 55/62/62 54/61/61 56/63/63 
f 217/246/246 103/115/115 218/247/247 
f 218/247/247 68/75/75 66/73/73 
f 38/45/45 81/88/88 40/47/47 
f 40/47/47 81/88/88 80/87/87 
f 97/109/109 96/108/108 70/77/77 
f 94/105/105 100/112/112 87/95/95 
f 95/107/107 100/112/112 94/105/105 
f 102/114/114 218/247/247 103/115/115 
f 218/247/247 102/114/114 68/75/75 
f 122/140/140 114/130/130 154/177/177 
f 122/140/140 107/123/123 123/141/141 
f 126/144/144 62/69/69 124/142/142 
f 126/144/144 124/142/142 125/143/143 
f 128/146/146 127/145/145 219/248/248 
f 219/248/248 156/180/180 128/146/146 
f 142/162/162 141/161/161 143/163/163 
f 135/155/155 142/162/162 140/160/160 
f 140/160/160 139/159/159 145/165/165 
f 145/165/165 52/59/59 140/160/160 
f 140/160/160 52/59/59 133/153/153 
f 140/160/160 142/162/162 138/158/158 
f 140/160/160 133/153/153 135/155/155 
f 149/171/171 96/108/108 94/105/105 
f 92/101/101 103/115/115 217/246/246 
f 93/104/104 92/101/101 217/246/246 
f 218/247/247 66/73/73 153/176/176 
f 153/176/176 217/246/246 218/247/247 
f 150/173/173 93/104/104 217/246/246 
f 63/70/70 107/123/123 154/177/177 
f 154/177/177 107/123/123 122/140/140 
f 154/177/177 153/176/176 63/70/70 
f 155/178/178 153/176/176 154/177/177 
f 114/130/130 117/133/133 154/177/177 
f 155/178/178 150/173/173 217/246/246 
f 155/178/178 217/246/246 153/176/176 
f 166/190/190 161/185/185 163/187/187 
f 167/191/191 141/161/161 136/156/156 
f 200/227/227 143/163/163 169/193/193 
f 202/230/230 197/225/225 196/220/220 
f 173/197/197 204/233/233 207/236/236 
f 211/240/240 209/238/238 208/237/237 
# 0 polygons - 395 triangles

