# 3ds Max Wavefront OBJ Exporter v0.99 - (c)2007 guruware
# File Created: 10.05.2025 21:36:07

mtllib Alumno2LeftArm.mtl

#
# object Alumno2LeftArm
#

v  -0.0078 0.0173 0.0531
v  0.0358 0.0184 0.0733
v  0.0276 0.0522 0.0503
v  -0.0044 0.0546 0.0378
v  0.0805 0.0127 0.0773
v  0.0724 0.0501 0.0521
v  0.0660 0.0829 0.0333
v  0.0281 0.0812 0.0348
v  0.0040 0.0788 0.0303
v  -0.0155 0.0876 0.0179
v  -0.0291 0.0640 0.0206
v  0.0287 0.1245 -0.0007
v  0.0736 0.1271 -0.0008
v  0.0752 0.1370 -0.0304
v  0.0281 0.1366 -0.0312
v  0.0301 0.1101 0.0194
v  0.0678 0.1084 0.0209
v  -0.0180 0.0990 0.0070
v  -0.0455 0.0735 0.0027
v  0.0284 0.1182 0.0096
v  0.0709 0.1191 0.0112
v  0.1152 0.1021 0.0001
v  0.1097 0.0938 0.0132
v  0.1470 0.0765 -0.0194
v  0.1704 0.0339 -0.0270
v  0.1709 0.0426 -0.0556
v  0.1494 0.0898 -0.0497
v  -0.0684 0.0430 -0.0142
v  -0.0493 0.0784 -0.0071
v  -0.0560 0.0929 -0.0383
v  -0.0816 0.0563 -0.0474
v  0.1180 0.1074 -0.0100
v  0.1188 0.1185 -0.0409
v  -0.0162 0.1087 -0.0054
v  -0.0170 0.1211 -0.0316
v  -0.0474 0.0762 -0.0031
v  -0.0178 0.1035 0.0010
v  0.0295 0.1206 0.0043
v  -0.0656 0.0391 -0.0079
v  -0.0636 0.0362 -0.0037
v  0.1171 0.1023 -0.0070
v  0.1432 0.0733 -0.0118
v  0.1679 0.0315 -0.0189
v  0.1430 0.0731 -0.0080
v  0.1680 0.0311 -0.0144
v  0.0725 0.1225 0.0025
v  -0.0964 0.0241 -0.0559
v  -0.0807 -0.0023 -0.0212
v  -0.1006 -0.0300 -0.0449
v  -0.0458 0.0270 0.0173
v  -0.0508 -0.0118 0.0203
v  -0.0133 -0.0207 0.0668
v  -0.0610 -0.0477 0.0086
v  -0.0238 -0.0402 0.0621
v  -0.0224 -0.1540 0.1060
v  -0.0128 -0.1261 0.1285
v  -0.0175 -0.0863 0.0928
v  -0.0254 -0.1236 0.0610
v  0.0100 -0.1058 0.1508
v  0.0136 -0.0637 0.1187
v  0.0927 -0.0924 0.1644
v  0.1382 -0.1049 0.1418
v  0.1296 -0.0684 0.1169
v  0.0915 -0.0623 0.1338
v  0.1787 -0.0127 -0.0196
v  0.1779 -0.0139 -0.0245
v  0.1798 -0.0133 -0.0316
v  0.0189 -0.0389 0.1047
v  0.0469 -0.0921 0.1645
v  0.0464 -0.0605 0.1330
v  0.0364 -0.0197 0.0995
v  0.0469 -0.0385 0.1156
v  0.0953 -0.0221 0.1009
v  0.0905 -0.0390 0.1149
v  0.1166 -0.0424 0.1066
v  -0.0062 -0.2341 0.2223
v  -0.0013 -0.1975 0.2141
v  -0.0048 -0.2143 0.1912
v  -0.0103 -0.2365 0.1986
v  -0.0149 -0.1894 0.1413
v  -0.0074 -0.1647 0.1662
v  -0.0090 -0.1955 0.1796
v  -0.0087 -0.2163 0.1528
v  0.0046 -0.2323 0.1610
v  -0.0080 -0.1818 0.0870
v  0.0034 -0.2255 0.1155
v  0.0122 -0.2451 0.1270
v  0.0225 -0.2535 0.1431
v  0.0204 -0.2275 0.1009
v  0.0399 -0.2544 0.1132
v  0.0036 -0.1753 0.0729
v  0.0478 -0.2148 0.0901
v  0.0742 -0.2364 0.0993
v  0.0018 -0.1794 0.2027
v  0.0096 -0.1833 0.2303
v  0.0164 -0.1670 0.2191
v  0.0111 -0.1474 0.1841
v  0.0069 -0.1640 0.1945
v  0.0464 -0.1276 0.1989
v  0.0245 -0.1516 0.2068
v  0.1588 -0.1279 0.1132
v  0.1520 -0.0840 0.0953
v  0.1226 -0.1956 0.0494
v  0.1567 -0.1712 0.0680
v  0.1547 -0.2022 0.0921
v  0.1150 -0.2426 0.0898
v  0.1590 -0.1584 0.0860
v  0.1588 -0.1844 0.1143
v  0.1374 -0.1325 0.1758
v  0.1601 -0.1579 0.1437
v  0.0881 -0.1195 0.1960
v  0.0844 -0.1393 0.2159
v  0.1343 -0.1511 0.1979
v  0.0227 -0.1739 0.2425
v  0.0277 -0.1619 0.2295
v  0.0458 -0.1438 0.2161
v  0.1576 -0.1754 0.1732
v  0.1595 -0.2068 0.1410
v  0.1506 -0.2268 0.1151
v  0.1474 -0.0492 0.0752
v  0.1724 -0.0198 0.0171
v  0.1544 -0.0269 0.0409
v  0.1615 -0.0586 0.0471
v  0.1732 -0.0685 0.0280
v  0.1562 0.0231 0.0160
v  0.1385 -0.0245 0.0689
v  0.1223 0.0134 0.0563
v  0.1401 0.0192 0.0324
v  0.1347 0.0632 0.0112
v  0.1113 0.0511 0.0380
v  0.1224 0.0566 0.0263
v  0.0990 0.0800 0.0264
v  0.1614 -0.1012 0.0650
v  0.1666 -0.1151 0.0467
v  0.1251 -0.1767 0.2249
v  0.1568 -0.2037 0.2019
v  0.1261 -0.2003 0.2532
v  0.1530 -0.2246 0.2340
v  0.1614 -0.2274 0.1742
v  0.1394 -0.2590 0.1374
v  0.1576 -0.2580 0.2028
v  0.0289 -0.2714 0.1495
v  0.0022 -0.2472 0.1729
v  0.0051 -0.2668 0.2144
v  -0.0013 -0.2632 0.1952
v  -0.0117 -0.2421 0.2402
v  -0.0073 -0.2159 0.2457
v  0.0029 -0.1944 0.2492
v  0.0037 -0.2220 0.2662
v  0.0273 -0.2052 0.2803
v  0.0491 -0.1527 0.2317
v  0.0796 -0.1642 0.2430
v  0.1247 -0.2194 0.2734
v  0.1499 -0.2470 0.2559
v  0.0253 -0.1764 0.2553
v  0.0523 -0.1593 0.2479
v  0.0810 -0.1818 0.2624
v  0.0785 -0.2003 0.2861
v  0.0542 -0.1789 0.2631
v  0.1314 -0.2815 0.1636
v  0.0986 -0.2553 0.1133
v  0.0665 -0.2781 0.1277
v  0.0497 -0.2797 0.1318
v  0.0316 -0.2789 0.1701
v  0.0046 -0.2556 0.1820
v  0.0221 -0.2968 0.1824
v  0.0679 -0.2938 0.1573
v  0.0975 -0.2896 0.1457
v  0.1201 -0.3058 0.1877
v  0.0934 -0.3097 0.1767
v  0.0613 -0.3066 0.1740
v  -0.0476 -0.0880 0.0160
v  -0.0315 -0.0764 0.0578
v  -0.0251 -0.1287 0.0243
v  0.0173 -0.1736 0.0438
v  0.0591 -0.2140 0.0608
v  0.0836 -0.2315 0.0722
v  -0.0738 -0.0063 -0.0091
v  -0.0603 -0.0514 -0.0147
v  -0.0598 -0.0493 -0.0046
v  -0.0682 -0.0081 0.0023
v  0.1774 -0.0545 -0.0231
v  0.1287 -0.1479 0.0211
v  0.0933 -0.1979 0.0424
v  0.0626 -0.1829 0.0326
v  0.0376 -0.1642 0.0239
v  -0.0149 -0.1259 0.0059
v  0.0473 -0.1427 -0.0340
v  -0.0073 -0.1356 -0.0280
v  -0.0062 -0.1530 -0.0400
v  -0.0474 -0.0974 -0.0207
v  -0.0639 -0.1237 -0.0365
v  -0.0744 -0.0568 -0.0224
v  -0.0961 -0.0782 -0.0402
v  -0.0120 -0.1237 -0.0236
v  -0.0447 -0.0864 -0.0181
v  0.0434 -0.1384 -0.0325
v  0.0796 -0.1348 -0.0264
v  0.0470 -0.1401 -0.0250
v  -0.0404 -0.0864 -0.0080
v  -0.0115 -0.1218 -0.0116
v  0.0445 -0.1551 -0.0046
v  0.0417 -0.1560 0.0054
v  0.0729 -0.1656 0.0118
v  0.0826 -0.1514 -0.0154
v  0.0479 -0.1515 -0.0150
v  0.0785 -0.1585 -0.0033
v  0.1366 -0.1193 -0.0111
v  0.1105 -0.1424 -0.0144
v  0.1107 -0.1240 -0.0276
v  0.1356 -0.1051 -0.0270
v  0.1022 -0.1652 0.0157
v  0.0985 -0.1555 0.0006
v  -0.0764 -0.0059 -0.0156
v  -0.0669 -0.0530 -0.0173
v  0.1646 -0.0826 -0.0076
v  0.1435 -0.1129 0.0082
v  0.1607 -0.0785 -0.0252
# 218 vertices

vn -0.5185 0.3509 0.7798
vn -0.2087 0.5212 0.8275
vn -0.1797 0.4814 0.8579
vn -0.4053 0.3554 0.8423
vn 0.1617 0.5793 0.7989
vn 0.1274 0.5393 0.8324
vn 0.1205 0.4746 0.8719
vn -0.1144 0.4576 0.8818
vn -0.2706 0.4263 0.8631
vn -0.4278 0.4950 0.7563
vn -0.5506 0.2850 0.7846
vn -0.0200 0.8678 0.4965
vn 0.1989 0.7798 0.5936
vn 0.2211 0.9419 0.2529
vn -0.0121 0.9527 0.3037
vn -0.1591 0.6275 0.7622
vn 0.1667 0.5469 0.8204
vn -0.4746 0.6470 0.5968
vn -0.6981 0.4045 0.5907
vn -0.2183 0.8340 0.5067
vn 0.2057 0.7916 0.5754
vn 0.5562 0.7354 0.3871
vn 0.4643 0.5567 0.6888
vn 0.7912 0.4651 0.3972
vn 0.9132 0.3172 0.2558
vn 0.9111 0.3663 0.1889
vn 0.8145 0.5471 0.1929
vn -0.8398 0.2635 0.4746
vn -0.7212 0.5028 0.4764
vn -0.7134 0.5970 0.3670
vn -0.8341 0.3674 0.4115
vn 0.5474 0.6232 0.5586
vn 0.5604 0.8055 0.1926
vn -0.4781 0.7627 0.4355
vn -0.4478 0.8255 0.3436
vn -0.6960 0.4637 0.5482
vn -0.5405 0.7079 0.4546
vn -0.3236 0.8990 0.2950
vn -0.3292 0.8098 0.4856
vn -0.3059 0.7253 0.6168
vn -0.8391 0.2095 0.5020
vn -0.7384 0.4772 0.4764
vn -0.8106 0.2287 0.5392
vn -0.7837 0.1987 0.5885
vn 0.4713 0.3947 0.7887
vn 0.7190 0.4191 0.5545
vn 0.8908 0.2725 0.3637
vn 0.9276 0.3735 0.0049
vn 0.8081 0.5821 0.0896
vn 0.7831 0.5382 0.3116
vn 0.9090 0.3537 0.2204
vn 0.6235 0.7550 0.2031
vn -0.0085 0.7851 0.6193
vn 0.1671 0.5529 0.8163
vn -0.1736 0.9069 0.3838
vn -0.4557 0.7209 0.5221
vn 0.2456 0.8870 0.3910
vn -0.8613 0.2435 0.4459
vn -0.8044 0.0629 0.5907
vn -0.8233 0.0317 0.5667
vn -0.6606 0.1962 0.7247
vn -0.7249 0.0938 0.6825
vn -0.6476 0.3194 0.6918
vn -0.9521 -0.1465 0.2684
vn -0.7854 0.2402 0.5705
vn -0.9913 -0.1215 0.0513
vn -0.8911 0.2468 0.3809
vn -0.8693 0.2192 0.4431
vn -0.9613 -0.2553 0.1040
vn -0.6614 0.4842 0.5728
vn -0.5899 0.5127 0.6238
vn 0.2399 0.6920 0.6809
vn 0.7039 0.5010 0.5034
vn 0.6076 0.5276 0.5937
vn 0.2007 0.6562 0.7274
vn 0.9891 0.1467 0.0099
vn 0.9785 0.0831 -0.1887
vn 0.9611 0.0633 0.2690
vn 0.9558 0.0687 0.2860
vn -0.4944 0.4917 0.7168
vn -0.2224 0.6753 0.7032
vn -0.1793 0.6568 0.7324
vn -0.2409 0.5745 0.7822
vn -0.1403 0.6032 0.7851
vn 0.2543 0.6068 0.7531
vn 0.1561 0.6155 0.7726
vn 0.4913 0.5679 0.6604
vn -0.9897 -0.0068 -0.1427
vn -0.9490 0.3016 0.0915
vn -0.9993 0.0136 -0.0353
vn -0.9940 -0.0643 -0.0883
vn -0.9820 -0.1675 0.0868
vn -0.9022 0.2008 0.3816
vn -0.9828 0.0095 0.1846
vn -0.9209 -0.3878 0.0385
vn -0.8935 -0.4252 -0.1441
vn -0.7634 -0.4611 -0.4524
vn -0.7820 -0.5172 -0.3477
vn -0.7177 -0.6436 -0.2660
vn -0.7848 -0.6002 -0.1543
vn -0.3665 -0.5701 -0.7353
vn -0.3540 -0.5954 -0.7213
vn -0.5846 -0.6286 -0.5129
vn -0.2908 -0.6272 -0.7225
vn -0.1066 -0.4866 -0.8671
vn -0.8831 0.3712 0.2871
vn -0.8080 0.5588 0.1866
vn -0.7245 0.6093 0.3223
vn -0.6977 0.4498 0.5575
vn -0.8058 0.4685 0.3622
vn -0.3126 0.6829 0.6603
vn -0.6196 0.6714 0.4066
vn 0.9676 0.1750 0.1821
vn 0.8896 0.3190 0.3270
vn 0.4407 -0.5646 -0.6979
vn 0.8748 -0.3223 -0.3618
vn 0.8602 -0.3742 -0.3465
vn 0.2952 -0.8271 -0.4783
vn 0.9973 -0.0733 -0.0034
vn 0.9967 -0.0618 -0.0523
vn 0.6813 0.5304 0.5045
vn 0.9736 0.1554 0.1675
vn 0.1805 0.7123 0.6783
vn 0.1643 0.7040 0.6909
vn 0.6517 0.4963 0.5736
vn -0.7069 0.6475 0.2847
vn -0.5403 0.7581 0.3653
vn -0.2807 0.7549 0.5927
vn 0.9396 0.2340 0.2497
vn 0.9949 -0.0747 -0.0683
vn 0.7951 -0.5019 -0.3405
vn 0.8292 0.3617 0.4261
vn 0.8916 0.2223 0.3944
vn 0.7627 0.3224 0.5607
vn 0.8693 0.2087 0.4480
vn 0.9798 -0.1129 0.1650
vn 0.7620 0.3619 0.5370
vn 0.7190 0.4502 0.5295
vn 0.5656 0.4814 0.6696
vn 0.6462 0.3825 0.6604
vn 0.6718 0.4414 0.5948
vn 0.4465 0.4814 0.7542
vn 0.5614 0.4304 0.7068
vn 0.3114 0.5086 0.8027
vn 0.9652 0.0996 0.2419
vn 0.9643 -0.2097 -0.1616
vn 0.6041 0.5586 0.5684
vn 0.9233 0.2692 0.2739
vn 0.6009 0.5941 0.5348
vn 0.9125 0.2505 0.3234
vn 0.9897 -0.1317 -0.0565
vn 0.6336 -0.6342 -0.4430
vn 0.9622 -0.2626 -0.0720
vn -0.6883 -0.6265 -0.3657
vn -0.8600 -0.3479 -0.3733
vn -0.9209 -0.2379 -0.3089
vn -0.9166 -0.3632 -0.1669
vn -0.9997 0.0251 0.0022
vn -0.9349 0.2732 0.2264
vn -0.7972 0.5097 0.3236
vn -0.7534 0.3265 0.5708
vn -0.4125 0.5558 0.7218
vn -0.1126 0.8779 0.4654
vn 0.2747 0.7375 0.6170
vn 0.6168 0.4856 0.6195
vn 0.9176 0.1193 0.3791
vn -0.4543 0.6852 0.5693
vn -0.0515 0.8210 0.5687
vn 0.2809 0.7196 0.6351
vn 0.1664 0.6527 0.7392
vn -0.0542 0.6503 0.7577
vn 0.6541 -0.6443 -0.3964
vn 0.1594 -0.7389 -0.6546
vn -0.2445 -0.8002 -0.5477
vn 0.0177 -0.7530 -0.6578
vn -0.0460 -0.5575 -0.8289
vn -0.4244 -0.7499 -0.5074
vn -0.1318 -0.6198 -0.7736
vn -0.5684 -0.6037 -0.5590
vn -0.7844 -0.4305 -0.4465
vn -0.6237 -0.4073 -0.6672
vn -0.4686 -0.7645 -0.4427
vn 0.2387 -0.7734 -0.5873
vn -0.0570 -0.8440 -0.5334
vn -0.0328 -0.8838 -0.4667
vn 0.5930 -0.6557 -0.4673
vn 0.2076 -0.7310 -0.6501
vn -0.0025 -0.6747 -0.7381
vn -0.9276 -0.3719 0.0358
vn -0.9056 -0.0051 0.4240
vn -0.7670 -0.6031 -0.2189
vn -0.4873 -0.7284 -0.4816
vn -0.5182 -0.7375 -0.4331
vn -0.2859 -0.7574 -0.5870
vn -0.1431 -0.8291 -0.5404
vn -0.5645 -0.7899 -0.2396
vn -0.9127 -0.0282 0.4077
vn -0.6939 -0.3522 0.6281
vn -0.9431 -0.3312 0.0286
vn -0.8380 -0.0035 0.5457
vn 0.9691 -0.2367 -0.0694
vn 0.6387 -0.5314 -0.5565
vn 0.0979 -0.6450 -0.7579
vn -0.0353 -0.6811 -0.7313
vn -0.3069 -0.7435 -0.5941
vn -0.2375 -0.6543 -0.7180
vn -0.5894 -0.7052 -0.3942
vn 0.1023 -0.3696 0.9236
vn -0.0795 -0.4633 0.8826
vn -0.0423 -0.4261 0.9037
vn -0.2549 -0.2612 0.9310
vn -0.3066 -0.2513 0.9181
vn -0.5366 -0.1514 0.8302
vn -0.6419 -0.0905 0.7615
vn -0.1530 -0.3848 0.9102
vn -0.2328 -0.1772 0.9562
vn 0.0912 -0.2611 0.9610
vn 0.0850 -0.8387 -0.5380
vn -0.1195 -0.8510 -0.5114
vn -0.1318 -0.9838 -0.1217
vn -0.8361 -0.5486 -0.0069
vn -0.5996 -0.7925 -0.1118
vn -0.4838 -0.8593 0.1661
vn -0.7701 -0.5219 0.3668
vn -0.2698 -0.9220 -0.2777
vn -0.3106 -0.8915 -0.3298
vn -0.2024 -0.8182 -0.5382
vn 0.0164 -0.7284 -0.6849
vn -0.1953 -0.7960 -0.5730
vn -0.0776 -0.8903 -0.4486
vn 0.6815 -0.6636 -0.3084
vn 0.4476 -0.6785 -0.5825
vn 0.4656 -0.7888 -0.4014
vn 0.6893 -0.7058 -0.1635
vn 0.2520 -0.7531 -0.6078
vn 0.2598 -0.8330 -0.4884
vn 0.3478 -0.7151 -0.6064
vn 0.0810 -0.8466 -0.5261
vn 0.3315 -0.7918 -0.5130
vn 0.1858 -0.8662 -0.4639
vn -0.9282 -0.0204 0.3716
vn -0.3567 -0.2234 0.9071
vn -0.8190 -0.0708 0.5694
vn -0.4948 -0.1921 0.8475
vn -0.3673 -0.5036 -0.7820
vn 0.8235 -0.5464 -0.1528
vn 0.7936 -0.5410 -0.2784
vn 0.7790 -0.6018 -0.1759
# 248 vertex normals

vt 0.7827 0.7831 0.0000
vt 0.7872 0.8089 0.0000
vt 0.7755 0.8086 0.0000
vt 0.7720 0.7916 0.0000
vt 0.7899 0.8344 0.0000
vt 0.7771 0.8329 0.0000
vt 0.7669 0.8322 0.0000
vt 0.7667 0.8126 0.0000
vt 0.7659 0.8000 0.0000
vt 0.7616 0.7915 0.0000
vt 0.7664 0.7802 0.0000
vt 0.7146 0.6093 0.0000
vt 0.7202 0.5886 0.0000
vt 0.7283 0.5936 0.0000
vt 0.7229 0.6161 0.0000
vt 0.7584 0.8167 0.0000
vt 0.7595 0.8345 0.0000
vt 0.7576 0.7917 0.0000
vt 0.7612 0.7730 0.0000
vt 0.7552 0.8168 0.0000
vt 0.7559 0.8373 0.0000
vt 0.7582 0.8610 0.0000
vt 0.7619 0.8564 0.0000
vt 0.7307 0.5455 0.0000
vt 0.7334 0.5208 0.0000
vt 0.7409 0.5253 0.0000
vt 0.7390 0.5519 0.0000
vt 0.6697 0.5066 0.0000
vt 0.6730 0.5283 0.0000
vt 0.6648 0.5368 0.0000
vt 0.6604 0.5130 0.0000
vt 0.7265 0.5660 0.0000
vt 0.7348 0.5721 0.0000
vt 0.6764 0.5526 0.0000
vt 0.6700 0.5615 0.0000
vt 0.6742 0.5274 0.0000
vt 0.6778 0.5489 0.0000
vt 0.6744 0.5853 0.0000
vt 0.6819 0.5758 0.0000
vt 0.6833 0.5740 0.0000
vt 0.6715 0.5048 0.0000
vt 0.7596 0.7718 0.0000
vt 0.7657 0.7525 0.0000
vt 0.7671 0.7533 0.0000
vt 0.7253 0.5640 0.0000
vt 0.7283 0.5446 0.0000
vt 0.7311 0.5199 0.0000
vt 0.7700 0.9005 0.0000
vt 0.7623 0.8806 0.0000
vt 0.7630 0.8792 0.0000
vt 0.7708 0.8988 0.0000
vt 0.7569 0.8637 0.0000
vt 0.7131 0.6076 0.0000
vt 0.7188 0.5876 0.0000
vt 0.7537 0.8176 0.0000
vt 0.7556 0.7922 0.0000
vt 0.7537 0.8393 0.0000
vt 0.6573 0.4944 0.0000
vt 0.6676 0.4813 0.0000
vt 0.6606 0.4650 0.0000
vt 0.7732 0.7620 0.0000
vt 0.7819 0.7478 0.0000
vt 0.7937 0.7726 0.0000
vt 0.7875 0.7282 0.0000
vt 0.7971 0.7604 0.0000
vt 0.8337 0.7363 0.0000
vt 0.8315 0.7589 0.0000
vt 0.8145 0.7571 0.0000
vt 0.8173 0.7250 0.0000
vt 0.8314 0.7827 0.0000
vt 0.8148 0.7871 0.0000
vt 0.8316 0.8374 0.0000
vt 0.8303 0.8691 0.0000
vt 0.8170 0.8640 0.0000
vt 0.8185 0.8379 0.0000
vt 0.7795 0.9153 0.0000
vt 0.7789 0.9177 0.0000
vt 0.7321 0.4947 0.0000
vt 0.7341 0.4948 0.0000
vt 0.8061 0.7926 0.0000
vt 0.8314 0.8090 0.0000
vt 0.8174 0.8094 0.0000
vt 0.8009 0.8054 0.0000
vt 0.8087 0.8108 0.0000
vt 0.8026 0.8416 0.0000
vt 0.8093 0.8380 0.0000
vt 0.8088 0.8551 0.0000
vt 0.8761 0.7591 0.0000
vt 0.8660 0.7706 0.0000
vt 0.8652 0.7527 0.0000
vt 0.8719 0.7475 0.0000
vt 0.8491 0.7400 0.0000
vt 0.8484 0.7620 0.0000
vt 0.8583 0.7552 0.0000
vt 0.8576 0.7347 0.0000
vt 0.8639 0.7299 0.0000
vt 0.8376 0.7152 0.0000
vt 0.8532 0.7132 0.0000
vt 0.8598 0.7100 0.0000
vt 0.8657 0.7102 0.0000
vt 0.8520 0.7007 0.0000
vt 0.8607 0.6920 0.0000
vt 0.8341 0.7058 0.0000
vt 0.8486 0.6844 0.0000
vt 0.8560 0.6716 0.0000
vt 0.8595 0.7738 0.0000
vt 0.8660 0.7856 0.0000
vt 0.8600 0.7893 0.0000
vt 0.8482 0.7816 0.0000
vt 0.8542 0.7779 0.0000
vt 0.8467 0.8086 0.0000
vt 0.8539 0.7936 0.0000
vt 0.8302 0.8939 0.0000
vt 0.8167 0.8852 0.0000
vt 0.8361 0.9533 0.0000
vt 0.8325 0.9294 0.0000
vt 0.8431 0.9286 0.0000
vt 0.8525 0.9516 0.0000
vt 0.8324 0.9169 0.0000
vt 0.8429 0.9133 0.0000
vt 0.8427 0.8655 0.0000
vt 0.8423 0.8916 0.0000
vt 0.8440 0.8339 0.0000
vt 0.8523 0.8322 0.0000
vt 0.8506 0.8629 0.0000
vt 0.8661 0.7975 0.0000
vt 0.8608 0.7989 0.0000
vt 0.8539 0.8090 0.0000
vt 0.8511 0.8857 0.0000
vt 0.8521 0.9098 0.0000
vt 0.8520 0.9276 0.0000
vt 0.8048 0.8810 0.0000
vt 0.7872 0.9023 0.0000
vt 0.7934 0.8896 0.0000
vt 0.8018 0.8999 0.0000
vt 0.8006 0.9145 0.0000
vt 0.7776 0.8866 0.0000
vt 0.7978 0.8728 0.0000
vt 0.7866 0.8612 0.0000
vt 0.7813 0.8756 0.0000
vt 0.7681 0.8720 0.0000
vt 0.7749 0.8558 0.0000
vt 0.7719 0.8634 0.0000
vt 0.7668 0.8497 0.0000
vt 0.8153 0.9070 0.0000
vt 0.8154 0.9211 0.0000
vt 0.8607 0.8587 0.0000
vt 0.8618 0.8843 0.0000
vt 0.8705 0.8589 0.0000
vt 0.8711 0.8797 0.0000
vt 0.8617 0.9034 0.0000
vt 0.8625 0.9309 0.0000
vt 0.8721 0.9025 0.0000
vt 0.8708 0.7053 0.0000
vt 0.8695 0.7304 0.0000
vt 0.8819 0.7415 0.0000
vt 0.8771 0.7352 0.0000
vt 0.8812 0.7648 0.0000
vt 0.8764 0.7766 0.0000
vt 0.8724 0.7869 0.0000
vt 0.8810 0.7864 0.0000
vt 0.8793 0.8045 0.0000
vt 0.8590 0.8124 0.0000
vt 0.8627 0.8308 0.0000
vt 0.8774 0.8591 0.0000
vt 0.8785 0.8792 0.0000
vt 0.8692 0.8017 0.0000
vt 0.8637 0.8154 0.0000
vt 0.8697 0.8326 0.0000
vt 0.8775 0.8326 0.0000
vt 0.8701 0.8180 0.0000
vt 0.8714 0.9294 0.0000
vt 0.8604 0.9561 0.0000
vt 0.8563 0.9725 0.0000
vt 0.8696 0.9689 0.0000
vt 0.8645 0.9868 0.0000
vt 0.8696 0.6895 0.0000
vt 0.8694 0.6798 0.0000
vt 0.8768 0.7087 0.0000
vt 0.8731 0.7303 0.0000
vt 0.8831 0.7134 0.0000
vt 0.8785 0.6854 0.0000
vt 0.8723 0.9497 0.0000
vt 0.8778 0.9626 0.0000
vt 0.8721 0.9768 0.0000
vt 0.8807 0.9295 0.0000
vt 0.8817 0.9450 0.0000
vt 0.8835 0.9623 0.0000
vt 0.7988 0.7182 0.0000
vt 0.8046 0.7428 0.0000
vt 0.8114 0.7057 0.0000
vt 0.8291 0.6893 0.0000
vt 0.8437 0.6706 0.0000
vt 0.8452 0.9846 0.0000
vt 0.8489 0.9695 0.0000
vt 0.8530 0.9906 0.0000
vt 0.7746 0.7339 0.0000
vt 0.7846 0.7171 0.0000
vt 0.7858 0.7219 0.0000
vt 0.7772 0.7381 0.0000
vt 0.7881 0.9308 0.0000
vt 0.8204 0.9522 0.0000
vt 0.8369 0.9692 0.0000
vt 0.8341 0.9874 0.0000
vt 0.8254 0.6732 0.0000
vt 0.8330 0.6630 0.0000
vt 0.8085 0.6945 0.0000
vt 0.7050 0.4092 0.0000
vt 0.6898 0.4126 0.0000
vt 0.6904 0.4014 0.0000
vt 0.6784 0.4318 0.0000
vt 0.6739 0.4164 0.0000
vt 0.6705 0.4528 0.0000
vt 0.6641 0.4399 0.0000
vt 0.6882 0.4180 0.0000
vt 0.6790 0.4377 0.0000
vt 0.7038 0.4114 0.0000
vt 0.8158 0.6355 0.0000
vt 0.8129 0.6543 0.0000
vt 0.8106 0.6542 0.0000
vt 0.7950 0.7069 0.0000
vt 0.8049 0.6876 0.0000
vt 0.8028 0.6836 0.0000
vt 0.7927 0.7039 0.0000
vt 0.8190 0.6617 0.0000
vt 0.8208 0.6659 0.0000
vt 0.8272 0.6523 0.0000
vt 0.8211 0.6394 0.0000
vt 0.8169 0.6571 0.0000
vt 0.8240 0.6452 0.0000
vt 0.8074 0.9547 0.0000
vt 0.8139 0.9701 0.0000
vt 0.8076 0.9725 0.0000
vt 0.8015 0.9577 0.0000
vt 0.8177 0.9849 0.0000
vt 0.8126 0.9890 0.0000
vt 0.8249 0.9687 0.0000
vt 0.8264 0.9852 0.0000
vt 0.8203 0.9735 0.0000
vt 0.8216 0.9849 0.0000
vt 0.7733 0.7317 0.0000
vt 0.7832 0.7144 0.0000
vt 0.6694 0.4796 0.0000
vt 0.6725 0.4547 0.0000
vt 0.8837 0.6903 0.0000
vt 0.7978 0.9358 0.0000
vt 0.8092 0.9435 0.0000
vt 0.7941 0.9421 0.0000
# 248 texture coords

o Alumno2LeftArm
g Alumno2LeftArm
usemtl mat_1_Doctor_body_d_jpg
s 1
f 1/1/1 2/2/2 3/3/3 
f 3/3/3 4/4/4 1/1/1 
f 2/2/2 5/5/5 6/6/6 
f 6/6/6 3/3/3 2/2/2 
f 3/3/3 6/6/6 7/7/7 
f 7/7/7 8/8/8 3/3/3 
f 4/4/4 9/9/9 10/10/10 
f 10/10/10 11/11/11 4/4/4 
f 8/8/8 9/9/9 4/4/4 
f 4/4/4 3/3/3 8/8/8 
f 12/12/12 13/13/13 14/14/14 
f 14/14/14 15/15/15 12/12/12 
f 9/9/9 8/8/8 16/16/16 
f 16/16/16 10/10/10 9/9/9 
f 8/8/8 7/7/7 17/17/17 
f 17/17/17 16/16/16 8/8/8 
f 10/10/10 18/18/18 19/19/19 
f 19/19/19 11/11/11 10/10/10 
f 10/10/10 16/16/16 20/20/20 
f 20/20/20 18/18/18 10/10/10 
f 16/16/16 17/17/17 21/21/21 
f 21/21/21 20/20/20 16/16/16 
f 22/22/22 21/21/21 17/17/17 
f 17/17/17 23/23/23 22/22/22 
f 24/24/24 25/25/25 26/26/26 
f 26/26/26 27/27/27 24/24/24 
f 28/28/28 29/29/29 30/30/30 
f 30/30/30 31/31/31 28/28/28 
f 13/13/13 32/32/32 33/33/33 
f 33/33/33 14/14/14 13/13/13 
f 27/27/27 33/33/33 32/32/32 
f 32/32/32 24/24/24 27/27/27 
f 29/29/29 34/34/34 35/35/35 
f 35/35/35 30/30/30 29/29/29 
f 36/36/36 37/37/37 34/34/34 
f 34/34/34 29/29/29 36/36/36 
f 15/38/38 35/35/35 34/34/34 
f 34/34/34 12/39/39 15/38/38 
f 12/39/39 34/34/34 37/37/37 
f 37/37/37 38/40/40 12/39/39 
f 28/28/28 39/41/41 36/36/36 
f 36/36/36 29/29/29 28/28/28 
f 36/42/42 39/43/43 40/44/44 
f 40/44/44 19/19/19 36/42/42 
f 32/32/32 41/45/45 42/46/46 
f 42/46/46 24/24/24 32/32/32 
f 24/24/24 42/46/46 43/47/47 
f 43/47/47 25/25/25 24/24/24 
f 43/48/48 42/49/49 44/50/50 
f 44/50/50 45/51/51 43/48/48 
f 22/22/22 44/50/50 42/49/49 
f 42/49/49 41/52/52 22/22/22 
f 12/12/12 38/53/53 46/54/54 
f 46/54/54 13/13/13 12/12/12 
f 18/18/18 20/20/20 38/55/55 
f 38/55/55 37/56/56 18/18/18 
f 46/57/57 38/55/55 20/20/20 
f 20/20/20 21/21/21 46/57/57 
f 13/13/13 46/54/54 41/45/45 
f 41/45/45 32/32/32 13/13/13 
f 41/52/52 46/57/57 21/21/21 
f 21/21/21 22/22/22 41/52/52 
f 18/18/18 37/56/56 36/42/42 
f 36/42/42 19/19/19 18/18/18 
f 31/31/31 47/58/58 48/59/59 
f 48/59/59 28/28/28 31/31/31 
f 49/60/60 48/59/59 47/58/58 
f 1/1/1 50/61/61 51/62/62 
f 51/62/62 52/63/63 1/1/1 
f 53/64/64 54/65/65 52/63/63 
f 52/63/63 51/62/62 53/64/64 
f 55/66/66 56/67/67 57/68/68 
f 57/68/68 58/69/69 55/66/66 
f 56/67/67 59/70/70 60/71/71 
f 60/71/71 57/68/68 56/67/67 
f 61/72/72 62/73/73 63/74/74 
f 63/74/74 64/75/75 61/72/72 
f 65/76/76 66/77/77 43/48/48 
f 43/48/48 45/51/51 65/76/76 
f 43/47/47 66/78/78 67/79/79 
f 67/79/79 25/25/25 43/47/47 
f 57/68/68 60/71/71 68/80/80 
f 68/80/80 54/65/65 57/68/68 
f 69/81/81 70/82/82 60/71/71 
f 60/71/71 59/70/70 69/81/81 
f 69/81/81 61/72/72 64/75/75 
f 64/75/75 70/82/82 69/81/81 
f 52/63/63 71/83/83 2/2/2 
f 2/2/2 1/1/1 52/63/63 
f 52/63/63 54/65/65 68/80/80 
f 68/80/80 71/83/83 52/63/63 
f 60/71/71 70/82/82 72/84/84 
f 72/84/84 68/80/80 60/71/71 
f 71/83/83 73/85/85 5/5/5 
f 5/5/5 2/2/2 71/83/83 
f 72/84/84 74/86/86 73/85/85 
f 73/85/85 71/83/83 72/84/84 
f 70/82/82 64/75/75 74/86/86 
f 74/86/86 72/84/84 70/82/82 
f 75/87/87 74/86/86 64/75/75 
f 64/75/75 63/74/74 75/87/87 
f 76/88/88 77/89/89 78/90/90 
f 78/90/90 79/91/91 76/88/88 
f 56/67/67 55/66/66 80/92/92 
f 80/92/92 81/93/93 56/67/67 
f 82/94/94 83/95/95 84/96/96 
f 84/96/96 78/90/90 82/94/94 
f 85/97/97 86/98/98 80/92/92 
f 80/92/92 55/66/66 85/97/97 
f 83/95/95 87/99/99 88/100/100 
f 88/100/100 84/96/96 83/95/95 
f 80/92/92 86/98/98 87/99/99 
f 87/99/99 83/95/95 80/92/92 
f 86/98/98 89/101/101 90/102/102 
f 90/102/102 87/99/99 86/98/98 
f 91/103/103 92/104/104 89/101/101 
f 89/101/101 85/97/97 91/103/103 
f 89/101/101 92/104/104 93/105/105 
f 93/105/105 90/102/102 89/101/101 
f 83/95/95 82/94/94 81/93/93 
f 81/93/93 80/92/92 83/95/95 
f 78/90/90 77/89/89 94/106/106 
f 94/106/106 82/94/94 78/90/90 
f 77/89/89 95/107/107 96/108/108 
f 96/108/108 94/106/106 77/89/89 
f 81/93/93 97/109/109 59/70/70 
f 59/70/70 56/67/67 81/93/93 
f 82/94/94 98/110/110 97/109/109 
f 97/109/109 81/93/93 82/94/94 
f 59/70/70 97/109/109 99/111/111 
f 99/111/111 69/81/81 59/70/70 
f 99/111/111 97/109/109 98/110/110 
f 98/110/110 100/112/112 99/111/111 
f 94/106/106 96/108/108 100/112/112 
f 100/112/112 98/110/110 94/106/106 
f 62/73/73 101/113/113 102/114/114 
f 102/114/114 63/74/74 62/73/73 
f 103/115/115 104/116/116 105/117/117 
f 105/117/117 106/118/118 103/115/115 
f 107/119/119 108/120/120 105/117/117 
f 105/117/117 104/116/116 107/119/119 
f 101/113/113 62/73/73 109/121/121 
f 109/121/121 110/122/122 101/113/113 
f 99/111/111 111/123/123 61/72/72 
f 61/72/72 69/81/81 99/111/111 
f 62/73/73 61/72/72 111/123/123 
f 111/123/123 109/121/121 62/73/73 
f 109/121/121 111/123/123 112/124/124 
f 112/124/124 113/125/125 109/121/121 
f 114/126/126 115/127/127 96/108/108 
f 96/108/108 95/107/107 114/126/126 
f 99/111/111 116/128/128 112/124/124 
f 112/124/124 111/123/123 99/111/111 
f 96/108/108 115/127/127 116/128/128 
f 116/128/128 100/112/112 96/108/108 
f 113/125/125 117/129/129 110/122/122 
f 110/122/122 109/121/121 113/125/125 
f 107/119/119 101/113/113 110/122/122 
f 110/122/122 108/120/120 107/119/119 
f 108/120/120 110/122/122 117/129/129 
f 117/129/129 118/130/130 108/120/120 
f 105/117/117 108/120/120 118/130/130 
f 118/130/130 119/131/131 105/117/117 
f 63/74/74 102/114/114 120/132/132 
f 120/132/132 75/87/87 63/74/74 
f 121/133/133 122/134/134 123/135/135 
f 123/135/135 124/136/136 121/133/133 
f 65/76/76 45/51/51 125/137/137 
f 125/137/137 121/133/133 65/76/76 
f 73/85/85 126/138/138 127/139/139 
f 127/139/139 5/5/5 73/85/85 
f 125/137/137 128/140/140 122/134/134 
f 122/134/134 121/133/133 125/137/137 
f 122/134/134 128/140/140 127/139/139 
f 127/139/139 126/138/138 122/134/134 
f 45/51/51 44/50/50 129/141/141 
f 129/141/141 125/137/137 45/51/51 
f 23/23/23 129/141/141 44/50/50 
f 44/50/50 22/22/22 23/23/23 
f 5/5/5 127/139/139 130/142/142 
f 130/142/142 6/6/6 5/5/5 
f 129/141/141 131/143/143 128/140/140 
f 128/140/140 125/137/137 129/141/141 
f 6/6/6 130/142/142 132/144/144 
f 132/144/144 7/7/7 6/6/6 
f 7/7/7 132/144/144 23/23/23 
f 23/23/23 17/17/17 7/7/7 
f 23/23/23 132/144/144 131/143/143 
f 131/143/143 129/141/141 23/23/23 
f 128/140/140 131/143/143 130/142/142 
f 130/142/142 127/139/139 128/140/140 
f 75/87/87 120/132/132 126/138/138 
f 126/138/138 73/85/85 75/87/87 
f 126/138/138 120/132/132 123/135/135 
f 123/135/135 122/134/134 126/138/138 
f 133/145/145 123/135/135 120/132/132 
f 120/132/132 102/114/114 133/145/145 
f 101/113/113 107/119/119 133/145/145 
f 133/145/145 102/114/114 101/113/113 
f 134/146/146 133/145/145 107/119/119 
f 107/119/119 104/116/116 134/146/146 
f 124/136/136 123/135/135 133/145/145 
f 133/145/145 134/146/146 124/136/136 
f 117/129/129 113/125/125 135/147/147 
f 135/147/147 136/148/148 117/129/129 
f 137/149/149 138/150/150 136/148/148 
f 136/148/148 135/147/147 137/149/149 
f 136/148/148 139/151/151 118/130/130 
f 118/130/130 117/129/129 136/148/148 
f 139/151/151 140/152/152 119/131/131 
f 119/131/131 118/130/130 139/151/151 
f 138/150/150 141/153/153 139/151/151 
f 139/151/151 136/148/148 138/150/150 
f 142/154/154 143/155/155 84/96/96 
f 84/96/96 88/100/100 142/154/154 
f 143/155/155 79/91/91 78/90/90 
f 78/90/90 84/96/96 143/155/155 
f 144/156/156 76/88/88 79/91/91 
f 79/91/91 145/157/157 144/156/156 
f 146/158/158 147/159/159 77/89/89 
f 77/89/89 76/88/88 146/158/158 
f 147/159/159 148/160/160 95/107/107 
f 95/107/107 77/89/89 147/159/159 
f 149/161/161 150/162/162 148/160/160 
f 148/160/160 147/159/159 149/161/161 
f 116/128/128 151/163/163 152/164/164 
f 152/164/164 112/124/124 116/128/128 
f 138/150/150 137/149/149 153/165/165 
f 153/165/165 154/166/166 138/150/150 
f 113/125/125 112/124/124 152/164/164 
f 152/164/164 135/147/147 113/125/125 
f 115/127/127 114/126/126 155/167/167 
f 155/167/167 156/168/168 115/127/127 
f 148/160/160 155/167/167 114/126/126 
f 114/126/126 95/107/107 148/160/160 
f 152/164/164 157/169/169 137/149/149 
f 137/149/149 135/147/147 152/164/164 
f 137/149/149 157/169/169 158/170/170 
f 158/170/170 153/165/165 137/149/149 
f 158/170/170 159/171/171 155/167/167 
f 155/167/167 150/162/162 158/170/170 
f 139/151/151 141/153/153 160/172/172 
f 160/172/172 140/152/152 139/151/151 
f 119/131/131 140/152/152 161/173/173 
f 161/173/173 106/118/118 119/131/131 
f 93/174/174 161/173/173 162/175/175 
f 162/175/175 90/176/176 93/174/174 
f 88/100/100 87/99/99 163/177/177 
f 163/177/177 142/154/154 88/100/100 
f 90/102/102 162/178/178 163/177/177 
f 163/177/177 87/99/99 90/102/102 
f 143/155/155 142/154/154 164/179/179 
f 164/179/179 165/180/180 143/155/155 
f 165/180/180 164/179/179 166/181/181 
f 166/181/181 145/157/157 165/180/180 
f 163/177/177 167/182/182 164/179/179 
f 164/179/179 142/154/154 163/177/177 
f 160/172/172 168/183/183 161/173/173 
f 161/173/173 140/152/152 160/172/172 
f 162/175/175 168/183/183 167/184/184 
f 167/184/184 163/185/185 162/175/175 
f 169/186/186 160/172/172 141/153/153 
f 167/184/184 168/183/183 170/187/187 
f 170/187/187 171/188/188 167/184/184 
f 160/172/172 169/186/186 170/187/187 
f 170/187/187 168/183/183 160/172/172 
f 53/64/64 172/189/189 173/190/190 
f 173/190/190 54/65/65 53/64/64 
f 172/189/189 174/191/191 58/69/69 
f 58/69/69 173/190/190 172/189/189 
f 174/191/191 175/192/192 91/103/103 
f 91/103/103 58/69/69 174/191/191 
f 175/192/192 176/193/193 92/104/104 
f 92/104/104 91/103/103 175/192/192 
f 176/194/194 177/195/195 93/174/174 
f 93/174/174 92/196/196 176/194/194 
f 93/174/174 177/195/195 106/118/118 
f 106/118/118 161/173/173 93/174/174 
f 178/197/197 179/198/198 180/199/199 
f 180/199/199 181/200/200 178/197/197 
f 124/136/136 182/201/201 65/76/76 
f 65/76/76 121/133/133 124/136/136 
f 104/116/116 103/115/115 183/202/202 
f 183/202/202 134/146/146 104/116/116 
f 177/195/195 184/203/203 103/115/115 
f 103/115/115 106/118/118 177/195/195 
f 176/194/194 185/204/204 184/203/203 
f 184/203/203 177/195/195 176/194/194 
f 176/193/193 175/192/192 186/205/205 
f 186/205/205 185/206/206 176/193/193 
f 175/192/192 174/191/191 187/207/207 
f 187/207/207 186/205/205 175/192/192 
f 188/208/208 189/209/209 190/210/210 
f 189/209/209 191/211/211 192/212/212 
f 192/212/212 190/210/210 189/209/209 
f 191/211/211 193/213/213 194/214/214 
f 194/214/214 192/212/212 191/211/211 
f 191/211/211 189/209/209 195/215/215 
f 195/215/215 196/216/216 191/211/211 
f 197/217/217 195/215/215 189/209/209 
f 189/209/209 188/208/208 197/217/217 
f 198/218/218 199/219/219 197/220/220 
f 66/77/77 65/76/76 182/201/201 
f 174/191/191 172/189/189 200/221/221 
f 200/221/221 187/207/207 174/191/191 
f 180/199/199 200/221/221 172/189/189 
f 172/189/189 53/64/64 180/199/199 
f 197/220/220 199/219/219 201/222/222 
f 201/222/222 195/223/223 197/220/220 
f 195/223/223 201/222/222 200/221/221 
f 200/221/221 196/224/224 195/223/223 
f 187/207/207 201/222/222 202/225/225 
f 202/225/225 203/226/226 187/207/207 
f 186/205/205 203/226/226 204/227/227 
f 204/227/227 185/206/206 186/205/205 
f 199/219/219 198/218/218 205/228/228 
f 205/228/228 206/229/229 199/219/219 
f 203/226/226 202/225/225 207/230/230 
f 207/230/230 204/227/227 203/226/226 
f 206/229/229 205/228/228 207/230/230 
f 207/230/230 202/225/225 206/229/229 
f 208/231/231 209/232/232 210/233/233 
f 210/233/233 211/234/234 208/231/231 
f 210/233/233 209/232/232 205/235/235 
f 205/235/235 198/236/236 210/233/233 
f 184/203/203 212/237/237 183/202/202 
f 183/202/202 103/115/115 184/203/203 
f 185/204/204 204/238/238 212/237/237 
f 212/237/237 184/203/203 185/204/204 
f 183/202/202 212/237/237 213/239/239 
f 213/239/239 209/232/232 183/202/202 
f 207/240/240 213/239/239 212/237/237 
f 212/237/237 204/238/238 207/240/240 
f 209/232/232 213/239/239 207/240/240 
f 207/240/240 205/235/235 209/232/232 
f 40/44/44 39/43/43 214/241/241 
f 214/241/241 178/197/197 40/44/44 
f 178/197/197 214/241/241 215/242/242 
f 215/242/242 179/198/198 178/197/197 
f 28/28/28 48/59/59 214/243/243 
f 214/243/243 39/41/41 28/28/28 
f 215/244/244 214/243/243 48/59/59 
f 48/59/59 193/213/213 215/244/244 
f 179/198/198 215/242/242 196/224/224 
f 196/224/224 200/221/221 179/198/198 
f 196/216/216 215/244/244 193/213/213 
f 193/213/213 191/211/211 196/216/216 
f 4/4/4 11/11/11 50/61/61 
f 50/61/61 1/1/1 4/4/4 
f 19/19/19 40/44/44 50/61/61 
f 50/61/61 11/11/11 19/19/19 
f 58/69/69 91/103/103 85/97/97 
f 54/65/65 173/190/190 57/68/68 
f 173/190/190 58/69/69 57/68/68 
f 58/69/69 85/97/97 55/66/66 
f 71/83/83 68/80/80 72/84/84 
f 74/86/86 75/87/87 73/85/85 
f 86/98/98 85/97/97 89/101/101 
f 98/110/110 82/94/94 94/106/106 
f 119/131/131 106/118/118 105/117/117 
f 116/128/128 99/111/111 100/112/112 
f 151/163/163 116/128/128 115/127/127 
f 132/144/144 130/142/142 131/143/143 
f 79/91/91 143/155/155 165/180/180 
f 165/180/180 145/157/157 79/91/91 
f 151/163/163 115/127/127 156/168/168 
f 156/168/168 152/164/164 151/163/163 
f 155/167/167 148/160/160 150/162/162 
f 157/169/169 152/164/164 156/168/168 
f 159/171/171 158/170/170 157/169/169 
f 157/169/169 156/168/168 159/171/171 
f 159/171/171 156/168/168 155/167/167 
f 171/245/245 164/179/179 167/182/182 
f 162/175/175 161/173/173 168/183/183 
f 216/246/246 182/201/201 124/136/136 
f 216/246/246 217/247/247 208/231/231 
f 208/231/231 211/234/234 216/246/246 
f 217/247/247 134/146/146 183/202/202 
f 124/136/136 134/146/146 217/247/247 
f 216/246/246 124/136/136 217/247/247 
f 48/59/59 49/60/60 193/213/213 
f 49/60/60 194/214/214 193/213/213 
f 216/246/246 211/234/234 218/248/248 
f 182/201/201 216/246/246 218/248/248 
f 201/222/222 187/207/207 200/221/221 
f 200/221/221 180/199/199 179/198/198 
f 203/226/226 186/205/205 187/207/207 
f 201/222/222 199/219/219 206/229/229 
f 202/225/225 201/222/222 206/229/229 
f 209/232/232 208/231/231 217/247/247 
f 217/247/247 183/202/202 209/232/232 
f 181/200/200 51/62/62 50/61/61 
f 50/61/61 40/44/44 181/200/200 
f 53/64/64 51/62/62 181/200/200 
f 181/200/200 40/44/44 178/197/197 
f 180/199/199 53/64/64 181/200/200 
# 0 polygons - 396 triangles

