# 3ds Max Wavefront OBJ Exporter v0.99 - (c)2007 guruware
# File Created: 10.05.2025 14:15:49

mtllib Alumno2SubLeftLeg.mtl

#
# object Alumno2SubLeftLeg
#

v  0.0742 -0.1199 0.0901
v  0.0694 -0.2192 0.0786
v  0.0969 -0.2174 0.1096
v  0.1145 -0.1147 0.1135
v  0.0757 -0.3174 0.0866
v  0.1248 -0.3159 0.1231
v  0.1556 -0.2322 0.1321
v  0.1929 -0.3574 0.1487
v  0.2030 -0.2355 0.1340
v  0.1586 -0.3489 0.1540
v  0.2166 -0.1347 0.1160
v  0.2620 -0.2386 0.1002
v  0.2682 -0.1355 0.0868
v  0.2434 -0.3581 0.0968
v  0.2908 -0.3659 0.0484
v  0.2995 -0.2396 0.0500
v  0.2994 -0.1342 0.0350
v  0.0502 -0.1243 0.0442
v  0.0548 -0.2149 0.0472
v  0.2068 -0.2429 -0.0505
v  0.1611 -0.2555 -0.0635
v  0.1683 -0.1724 -0.0825
v  0.2150 -0.1662 -0.0691
v  0.1909 -0.3618 -0.0363
v  0.1601 -0.3587 -0.0434
v  0.1182 -0.3549 -0.0272
v  0.1215 -0.2975 -0.0326
v  0.0423 -0.3186 0.0599
v  0.0677 -0.1182 -0.0198
v  0.0735 -0.1703 -0.0194
v  0.1732 -0.1254 0.1180
v  0.0963 -0.1263 -0.0606
v  0.1093 -0.1744 -0.0567
v  0.1423 -0.1354 -0.0870
v  0.1230 -0.2183 -0.0452
v  0.0783 -0.2278 -0.0114
v  0.0415 0.0085 -0.0432
v  0.0705 0.0095 -0.0841
v  0.0740 -0.0338 -0.0849
v  0.0545 -0.0381 -0.0505
v  0.0668 -0.0719 -0.0273
v  0.0910 -0.0909 -0.0586
v  0.0654 -0.0557 -0.0362
v  0.0928 -0.0492 -0.0710
v  0.0946 -0.0123 -0.1091
v  0.1201 -0.0238 -0.1065
v  0.1407 -0.0998 -0.0934
v  0.1329 -0.0599 -0.0964
v  0.0310 -0.0388 0.0208
v  0.0203 0.0129 0.0103
v  0.1202 -0.0612 0.1101
v  0.0669 -0.0685 0.0866
v  0.0419 -0.0541 0.0249
v  0.0450 0.0198 0.0512
v  0.0483 -0.0289 0.0595
v  0.1090 -0.0115 0.0888
v  0.0481 -0.0693 0.0353
v  0.1851 -0.0614 0.1127
v  0.1736 -0.0110 0.0994
v  0.2370 -0.0666 0.1040
v  0.2171 -0.0039 0.0995
v  0.2681 -0.0748 0.0798
v  0.2749 -0.0190 0.0651
v  0.2491 -0.0103 0.0873
v  0.2145 -0.1186 -0.0843
v  0.2997 -0.0861 0.0291
v  0.2989 -0.0291 0.0185
v  0.2065 -0.0780 -0.0956
v  0.1882 -0.0429 -0.0976
v  0.1838 -0.0072 -0.0937
v  0.2392 0.0114 -0.0767
v  0.2464 -0.0217 -0.0713
v  0.2570 -0.2444 -0.0096
v  0.2381 -0.3687 -0.0050
v  0.2615 -0.1479 -0.0219
v  0.2639 -0.1006 -0.0279
v  0.2617 -0.0505 -0.0412
v  0.2666 0.0040 -0.0293
v  0.0675 -0.3798 0.0883
v  0.0858 -0.3902 0.0978
v  0.0717 -0.4308 0.0972
v  0.0924 -0.4174 0.1033
v  0.1197 -0.4043 0.1332
v  0.1307 -0.3736 0.1344
v  0.2017 -0.4617 0.1455
v  0.2321 -0.4733 0.1098
v  0.0850 -0.3847 0.0131
v  0.0737 -0.3548 0.0243
v  0.0926 -0.2957 0.0057
v  0.2901 -0.4706 0.0565
v  0.0984 -0.4790 -0.0027
v  0.0857 -0.4303 0.0087
v  0.1003 -0.4222 0.0027
v  0.1232 -0.4778 0.0029
v  0.0669 -0.3879 0.0296
v  0.0456 -0.3806 0.0737
v  0.0468 -0.4287 0.0841
v  0.0658 -0.4511 0.0246
v  0.0582 -0.4182 0.0443
v  0.1263 -0.4116 -0.0251
v  0.1399 -0.4512 -0.0201
v  0.2400 -0.5400 0.1174
v  0.2810 -0.5378 0.0640
v  0.1976 -0.5201 0.1421
v  0.2536 -0.5853 0.1119
v  0.2629 -0.5724 0.0714
v  0.2493 -0.5944 0.0999
v  0.2534 -0.5880 0.0737
v  0.2239 -0.5636 0.0057
v  0.2297 -0.5324 0.0028
v  0.1791 -0.5350 -0.0209
v  0.1903 -0.5096 -0.0160
v  0.2240 -0.4798 0.0044
v  0.1695 -0.4754 -0.0121
v  0.1601 -0.5045 -0.0092
v  0.1966 -0.4783 -0.0070
v  0.2254 -0.5835 0.0100
v  0.1279 -0.5345 -0.0217
v  0.1644 -0.5673 -0.0215
v  0.2566 -0.6176 0.0978
v  0.2670 -0.6235 0.0794
v  0.2379 -0.6163 0.0234
v  0.2692 -0.6666 0.0811
v  0.2329 -0.6583 0.0263
v  0.1842 -0.6434 0.0025
v  0.1913 -0.6036 -0.0071
v  0.1250 -0.6167 -0.0130
v  0.1329 -0.5842 -0.0257
v  0.1060 -0.5428 -0.0224
v  0.0931 -0.5602 0.0008
v  0.0816 -0.4860 0.0010
v  0.0731 -0.5002 0.0126
v  0.0592 -0.4800 0.0490
v  0.0538 -0.4602 0.0853
v  0.0549 -0.4483 0.0529
v  0.0631 -0.4797 0.0630
v  0.2298 -0.7052 0.0302
v  0.2681 -0.7087 0.0734
v  0.1667 -0.6810 0.0080
v  0.1151 -0.6555 0.0010
v  0.0875 -0.4823 0.0809
v  0.0703 -0.4733 0.0857
v  0.0745 -0.4884 0.0647
v  0.0802 -0.4518 0.0969
v  0.0956 -0.4477 0.1024
v  0.0579 -0.4922 0.0579
v  0.0783 -0.4941 0.0677
v  0.0644 -0.4881 0.0508
v  0.0918 -0.4909 0.0779
v  0.0784 -0.4719 0.1121
v  0.0389 -0.4835 0.0850
v  0.0536 -0.4818 0.1038
v  0.0569 -0.4981 0.0240
v  0.0495 -0.5099 0.0519
v  0.0267 -0.5042 0.0868
v  0.0474 -0.4941 0.1150
v  0.0824 -0.4813 0.1342
v  0.1471 -0.4395 0.1577
v  0.1438 -0.4947 0.1500
v  0.1087 -0.4387 0.1349
v  0.0275 -0.5318 0.0874
v  0.0465 -0.5213 0.1204
v  0.0627 -0.5339 0.0541
v  0.0745 -0.5352 0.0291
v  0.0872 -0.5656 0.0296
v  0.0670 -0.5635 0.0537
v  0.0358 -0.5634 0.0860
v  0.0583 -0.5626 0.1199
v  0.0733 -0.5193 0.1393
v  0.0810 -0.5601 0.1470
v  0.1389 -0.5370 0.1477
v  0.1381 -0.5821 0.1594
v  0.1968 -0.5497 0.1422
v  0.1834 -0.5997 0.1486
v  0.2260 -0.5682 0.1323
v  0.2478 -0.6033 0.1159
v  0.2213 -0.6079 0.1315
v  0.2532 -0.6551 0.0934
v  0.2333 -0.6380 0.1145
v  0.2532 -0.7014 0.0996
v  0.2262 -0.6910 0.1250
v  0.1988 -0.6785 0.1433
v  0.0835 -0.6128 0.1552
v  0.1385 -0.6388 0.1695
v  0.0572 -0.6016 0.1250
v  0.0449 -0.6026 0.0848
v  0.0548 -0.6117 0.0613
v  0.0642 -0.6254 0.0356
v  0.0866 -0.6400 0.0158
v  0.0573 -0.4572 0.0915
v  0.0966 -0.4455 0.1208
v  0.1622 -0.6555 0.1601
v  0.1388 -0.6022 0.0844
v  0.2007 -0.5002 0.1008
v  0.1785 -0.4977 0.1085
v  0.1741 -0.5494 0.1175
v  0.2016 -0.5505 0.1071
v  0.1418 -0.4983 0.1102
v  0.1333 -0.5524 0.1215
v  0.1725 -0.5972 0.1299
v  0.2071 -0.5959 0.1135
v  0.1264 -0.6017 0.1377
v  0.0817 -0.6167 0.1421
v  0.0442 -0.6228 0.1393
v  0.0588 -0.6485 0.1672
v  0.0956 -0.6401 0.1536
v  0.0712 -0.6761 0.1792
v  0.1132 -0.6727 0.1625
v  0.0026 -0.6404 0.1430
v  0.0151 -0.6565 0.1752
v  0.0392 -0.6809 0.1922
v  0.1152 -0.6914 0.1603
v  0.0751 -0.6980 0.1793
v  0.0409 -0.7033 0.1921
v  -0.0233 -0.7061 0.1975
v  0.0098 -0.7046 0.1995
v  0.0103 -0.6846 0.1975
v  -0.0259 -0.6819 0.1950
v  -0.0632 -0.6692 0.1812
v  -0.0755 -0.6591 0.1627
v  -0.0769 -0.6868 0.1900
v  -0.0728 -0.7066 0.1892
v  0.0765 -0.6989 0.1829
v  0.1172 -0.6912 0.1650
v  0.0786 -0.7072 0.1831
v  0.1196 -0.6997 0.1649
v  0.0420 -0.7035 0.1968
v  0.0419 -0.7122 0.1977
v  0.0102 -0.7053 0.2029
v  0.0105 -0.7142 0.2039
v  -0.0254 -0.7061 0.2026
v  -0.0252 -0.7153 0.2030
v  -0.0752 -0.7063 0.1949
v  -0.0741 -0.7156 0.1962
v  -0.1049 -0.6879 0.1783
v  -0.1013 -0.7070 0.1776
v  -0.1229 -0.6878 0.1615
v  -0.1200 -0.7062 0.1613
v  -0.1084 -0.7068 0.1816
v  -0.1268 -0.7068 0.1645
v  -0.1076 -0.7153 0.1830
v  -0.1269 -0.7148 0.1654
v  -0.1308 -0.6911 0.1430
v  -0.1245 -0.7083 0.1416
v  -0.1296 -0.6916 0.1200
v  -0.1238 -0.7093 0.1241
v  -0.1361 -0.7080 0.1443
v  -0.1352 -0.7092 0.1207
v  -0.1366 -0.7161 0.1447
v  -0.1357 -0.7179 0.1195
v  -0.1006 -0.6747 0.1738
v  -0.1137 -0.6746 0.1625
v  -0.1209 -0.6730 0.1435
v  -0.1192 -0.6743 0.1204
v  -0.0827 -0.6561 0.1451
v  0.1440 -0.6954 0.1527
v  0.1417 -0.6868 0.1524
v  0.1605 -0.6938 0.1448
v  0.1607 -0.6851 0.1439
v  0.1398 -0.6874 0.1476
v  0.1583 -0.6847 0.1385
v  0.1377 -0.6701 0.1523
v  0.1582 -0.6700 0.1415
v  0.1285 -0.6370 0.1439
v  0.1607 -0.6374 0.1374
v  0.1959 -0.6311 0.1278
v  0.1905 -0.6678 0.1304
v  0.1905 -0.6840 0.1258
v  0.1923 -0.6842 0.1294
v  0.1951 -0.7155 0.1309
v  0.2169 -0.6282 0.1180
v  0.2194 -0.6650 0.1167
v  0.2186 -0.6846 0.1122
v  0.2230 -0.7160 0.1159
v  0.2326 -0.6842 0.0973
v  0.2347 -0.6654 0.1021
v  0.2426 -0.6853 0.0777
v  0.2458 -0.6642 0.0779
v  0.2323 -0.6270 0.1017
v  0.2415 -0.6242 0.0761
v  0.2232 -0.6000 0.0989
v  0.2295 -0.5980 0.0777
v  0.2189 -0.5575 0.0914
v  0.2239 -0.5584 0.0785
v  0.2206 -0.5019 0.0839
v  0.2269 -0.5034 0.0678
v  0.2400 -0.7159 0.0978
v  0.2458 -0.7168 0.0772
v  0.2236 -0.5039 0.0464
v  0.2207 -0.5634 0.0521
v  0.2243 -0.5988 0.0552
v  0.2332 -0.6244 0.0471
v  0.2390 -0.6616 0.0469
v  0.2384 -0.6876 0.0495
v  0.2397 -0.7184 0.0512
v  -0.0051 -0.6372 0.1192
v  0.0246 -0.6164 0.1187
v  0.0531 -0.6033 0.1120
v  0.1022 -0.5768 0.1201
v  0.0818 -0.5703 0.0988
v  0.1153 -0.5427 0.1100
v  0.1218 -0.5001 0.0996
v  0.1089 -0.5017 0.0828
v  0.0988 -0.5409 0.0895
v  -0.1185 -0.6916 0.1002
v  -0.1096 -0.7110 0.0991
v  -0.1119 -0.6774 0.1041
v  -0.0840 -0.6929 0.0777
v  -0.0808 -0.7129 0.0793
v  -0.0537 -0.6933 0.0662
v  -0.0513 -0.7140 0.0690
v  -0.0066 -0.6886 0.0517
v  -0.0005 -0.7116 0.0575
v  -0.0804 -0.6570 0.1152
v  -0.0714 -0.6710 0.0826
v  -0.0068 -0.6374 0.0952
v  -0.0026 -0.6502 0.0701
v  0.0279 -0.6849 0.0460
v  0.0364 -0.7076 0.0589
v  0.0257 -0.6199 0.0967
v  0.0346 -0.6354 0.0702
v  0.0451 -0.6574 0.0487
v  0.0190 -0.6630 0.0493
v  0.0549 -0.6778 0.0432
v  0.0640 -0.7024 0.0602
v  0.0998 -0.6954 0.0539
v  0.0839 -0.6726 0.0418
v  0.0746 -0.6478 0.0483
v  0.0632 -0.6254 0.0620
v  0.0477 -0.6064 0.0929
v  0.0895 -0.6003 0.0503
v  0.0797 -0.5754 0.0796
v  0.1060 -0.6348 0.0418
v  0.1080 -0.6720 0.0337
v  0.1206 -0.6929 0.0437
v  0.1061 -0.5016 0.0673
v  0.1184 -0.5050 0.0429
v  0.1083 -0.5600 0.0464
v  0.0935 -0.5438 0.0746
v  0.1414 -0.5695 0.0311
v  0.1460 -0.5029 0.0295
v  0.1354 -0.6007 0.0303
v  0.1415 -0.6202 0.0286
v  0.1425 -0.6672 0.0277
v  0.1413 -0.6905 0.0387
v  -0.1163 -0.7119 0.0916
v  -0.0863 -0.7138 0.0734
v  -0.0540 -0.7154 0.0613
v  0.0009 -0.7132 0.0518
v  0.0388 -0.7076 0.0517
v  0.0654 -0.7021 0.0522
v  0.0994 -0.6962 0.0472
v  -0.1188 -0.7200 0.0934
v  -0.0903 -0.7224 0.0756
v  -0.0540 -0.7238 0.0618
v  0.0004 -0.7220 0.0523
v  0.0386 -0.7165 0.0521
v  0.0662 -0.7108 0.0519
v  0.0994 -0.7054 0.0484
v  0.1197 -0.7024 0.0443
v  0.1370 -0.7008 0.0391
v  0.1675 -0.6899 0.0339
v  0.1633 -0.7215 0.0345
v  0.1959 -0.6892 0.0320
v  0.1917 -0.7210 0.0306
v  0.2237 -0.6878 0.0386
v  0.2208 -0.7200 0.0346
v  0.1665 -0.6685 0.0240
v  0.1937 -0.6639 0.0228
v  0.2211 -0.6643 0.0319
v  0.1659 -0.6284 0.0257
v  0.1974 -0.6295 0.0279
v  0.2167 -0.6301 0.0340
v  0.1657 -0.5986 0.0253
v  0.1938 -0.6014 0.0313
v  0.2114 -0.6028 0.0425
v  0.1659 -0.5697 0.0286
v  0.1989 -0.5711 0.0369
v  0.2029 -0.5043 0.0308
v  0.1771 -0.5016 0.0267
v  0.1623 -0.7150 0.1436
v  0.1391 -0.7219 0.0415
# 382 vertices

vn -0.7108 -0.0022 0.7034
vn -0.8202 0.0241 0.5716
vn -0.5363 0.0262 0.8436
vn -0.2926 0.0556 0.9546
vn -0.6126 0.0313 0.7898
vn -0.5829 0.0574 0.8105
vn -0.2059 0.1226 0.9709
vn 0.4417 0.0604 0.8951
vn 0.2685 0.0752 0.9603
vn -0.2199 0.1210 0.9680
vn 0.3020 0.1021 0.9478
vn 0.6518 -0.0169 0.7582
vn 0.6913 0.0783 0.7183
vn 0.6996 -0.0281 0.7140
vn 0.9964 -0.0847 -0.0082
vn 0.9981 -0.0479 0.0386
vn 0.9999 -0.0095 -0.0127
vn -0.9943 -0.0543 0.0920
vn -0.9994 0.0187 0.0300
vn 0.3084 -0.2167 -0.9262
vn -0.1106 -0.2011 -0.9733
vn 0.0244 -0.1572 -0.9873
vn 0.2253 -0.2196 -0.9492
vn 0.1900 -0.2052 -0.9601
vn -0.0532 -0.1908 -0.9802
vn -0.6021 -0.0763 -0.7948
vn -0.6946 -0.0550 -0.7173
vn -0.9967 -0.0128 0.0807
vn -0.9062 -0.0925 -0.4126
vn -0.8612 -0.1324 -0.4907
vn -0.0260 0.0883 0.9958
vn -0.6656 -0.1211 -0.7365
vn -0.5680 -0.2573 -0.7818
vn -0.2482 -0.2159 -0.9443
vn -0.6088 -0.3070 -0.7316
vn -0.7547 -0.2012 -0.6245
vn -0.8757 -0.1528 -0.4580
vn -0.7721 -0.0636 -0.6323
vn -0.5772 -0.5181 -0.6312
vn -0.7661 -0.4805 -0.4269
vn -0.8909 -0.2185 -0.3982
vn -0.7118 -0.1473 -0.6867
vn -0.7666 -0.4788 -0.4278
vn -0.5263 -0.5149 -0.6767
vn -0.3857 -0.2906 -0.8757
vn -0.0332 -0.3619 -0.9316
vn -0.2832 -0.1619 -0.9453
vn -0.2545 -0.1819 -0.9498
vn -0.9201 -0.3833 0.0803
vn -0.9865 -0.1378 0.0886
vn -0.2233 0.2125 0.9513
vn -0.6903 0.0683 0.7203
vn -0.8915 -0.4522 0.0288
vn -0.6987 0.0291 0.7148
vn -0.7687 0.0013 0.6397
vn -0.3119 0.1871 0.9315
vn -0.9808 -0.1804 0.0741
vn 0.0324 0.1629 0.9861
vn -0.1025 0.1312 0.9860
vn 0.4330 0.0822 0.8976
vn 0.1949 0.1182 0.9737
vn 0.7363 0.0685 0.6732
vn 0.7938 0.1332 0.5934
vn 0.5712 0.1132 0.8130
vn 0.0997 -0.2741 -0.9565
vn 0.9999 0.0042 0.0109
vn 0.9952 0.0850 -0.0494
vn 0.0351 -0.1489 -0.9882
vn -0.0288 0.0221 -0.9993
vn 0.1671 -0.1177 -0.9789
vn 0.3407 0.1063 -0.9341
vn 0.3027 0.0124 -0.9530
vn 0.6801 -0.0041 -0.7331
vn 0.7230 -0.0257 -0.6903
vn 0.7146 -0.1176 -0.6895
vn 0.6078 -0.1299 -0.7834
vn 0.5196 -0.1606 -0.8392
vn 0.6456 -0.1715 -0.7442
vn 0.7458 -0.2012 -0.6350
vn 0.7772 -0.1261 -0.6165
vn 0.8019 -0.1121 -0.5869
vn 0.7640 -0.1079 -0.6361
vn 0.8206 -0.0921 -0.5640
vn 0.6363 -0.0335 -0.7707
vn 0.8343 0.1612 -0.5272
vn -0.4892 0.1206 0.8638
vn -0.5121 0.0726 0.8559
vn -0.3553 0.0200 0.9345
vn -0.5325 0.0121 0.8463
vn -0.6748 0.2053 0.7089
vn -0.6408 0.1107 0.7597
vn 0.4940 -0.0532 0.8678
vn 0.6966 0.0540 0.7154
vn -0.7085 -0.0545 -0.7036
vn -0.7799 -0.0055 -0.6259
vn -0.7174 -0.1320 -0.6840
vn 0.9973 -0.0618 -0.0385
vn -0.0784 0.2185 -0.9727
vn -0.5424 0.1330 -0.8295
vn -0.5662 -0.0427 -0.8231
vn -0.1673 0.0408 -0.9851
vn -0.8006 0.0557 -0.5966
vn -0.9641 0.0736 0.2551
vn -0.9135 -0.0087 0.4068
vn -0.8489 0.0105 -0.5285
vn -0.9276 0.0147 -0.3734
vn -0.4830 -0.1881 -0.8552
vn -0.2696 -0.2775 -0.9221
vn 0.6606 0.1303 0.7394
vn 0.9770 -0.1985 -0.0783
vn 0.3589 0.0220 0.9331
vn 0.8648 -0.1544 0.4777
vn 0.8347 -0.5025 -0.2254
vn 0.9875 -0.1142 0.1088
vn 0.9684 -0.1462 -0.2020
vn 0.6244 -0.1932 -0.7569
vn 0.6206 -0.0427 -0.7829
vn 0.2248 0.0014 -0.9744
vn 0.2054 0.1939 -0.9593
vn 0.5315 -0.0509 -0.8455
vn 0.1241 -0.1713 -0.9774
vn -0.1138 0.0867 -0.9897
vn 0.2801 -0.0411 -0.9591
vn -0.0779 0.3400 -0.9372
vn 0.1596 -0.1886 -0.9690
vn 0.7139 -0.0476 -0.6987
vn -0.0193 0.1863 -0.9823
vn -0.0010 0.2048 -0.9788
vn 0.2649 -0.1183 -0.9570
vn 0.8669 0.0306 0.4976
vn 0.9893 0.1350 0.0561
vn 0.7643 0.0017 -0.6449
vn 0.9900 0.0207 0.1394
vn 0.6203 -0.1529 -0.7693
vn 0.2414 -0.2800 -0.9291
vn 0.3704 -0.1650 -0.9141
vn 0.0753 -0.3701 -0.9259
vn 0.1653 -0.2893 -0.9429
vn 0.0556 0.0960 -0.9938
vn -0.2470 -0.0822 -0.9655
vn -0.4532 -0.0056 -0.8914
vn -0.5592 -0.1656 -0.8123
vn -0.8469 -0.1810 -0.5000
vn -0.6397 0.0913 -0.7631
vn -0.7755 -0.0093 -0.6312
vn -0.9700 -0.2371 0.0530
vn -0.8462 -0.4383 0.3031
vn -0.9679 -0.0992 -0.2308
vn -0.7560 -0.6004 0.2607
vn 0.6117 -0.0616 -0.7887
vn 0.9781 0.0113 -0.2077
vn 0.1913 -0.1894 -0.9631
vn 0.0717 -0.2911 -0.9540
vn -0.7647 -0.5316 0.3643
vn -0.2977 -0.6783 0.6718
vn -0.6041 -0.1762 0.7772
vn -0.1944 -0.3014 0.9335
vn -0.8130 0.1902 0.5503
vn -0.4901 0.8223 -0.2891
vn -0.3716 0.8300 0.4159
vn -0.9257 0.1737 0.3361
vn -0.8712 0.4676 0.1495
vn -0.6986 0.7155 -0.0044
vn -0.5442 0.8278 -0.1367
vn -0.3677 0.9189 0.1431
vn -0.7870 0.2425 -0.5673
vn -0.8924 -0.0546 -0.4480
vn -0.9834 0.1765 -0.0412
vn -0.6891 0.4031 0.6022
vn -0.4734 0.3516 0.8076
vn -0.1917 -0.0088 0.9814
vn -0.0914 -0.0446 0.9948
vn -0.6181 0.2181 0.7553
vn -0.9879 -0.1257 -0.0913
vn -0.7554 0.0059 0.6553
vn -0.7843 -0.2767 -0.5553
vn -0.8502 -0.3448 -0.3979
vn -0.8938 -0.0712 -0.4427
vn -0.7709 -0.0025 -0.6370
vn -0.9729 -0.1927 -0.1277
vn -0.7969 -0.0622 0.6009
vn -0.3725 0.1515 0.9156
vn -0.4531 0.0816 0.8877
vn -0.0069 0.1219 0.9925
vn 0.0544 0.1657 0.9847
vn 0.2558 0.0235 0.9664
vn 0.3427 0.0445 0.9384
vn 0.4739 0.0233 0.8803
vn 0.7772 -0.1228 0.6172
vn 0.4944 -0.0651 0.8668
vn 0.6971 0.0150 0.7168
vn 0.7348 -0.0904 0.6722
vn 0.7613 0.0139 0.6483
vn 0.6716 0.0262 0.7404
vn 0.4888 -0.0074 0.8724
vn -0.3884 0.1325 0.9119
vn 0.2521 0.1711 0.9524
vn -0.8252 0.0186 0.5645
vn -0.9729 -0.0952 -0.2106
vn -0.8920 0.1591 -0.4232
vn -0.7208 0.1691 -0.6722
vn -0.6327 -0.0287 -0.7738
vn -0.5243 -0.1672 -0.8350
vn -0.5063 -0.2996 0.8087
vn -0.8446 0.4881 0.2200
vn 0.4016 0.0712 0.9130
vn -0.5234 -0.7101 0.4710
vn -0.6192 -0.7684 0.1615
vn -0.3673 -0.9228 0.1164
vn -0.4473 -0.6993 0.5576
vn -0.3073 -0.7597 0.5731
vn -0.6254 -0.7530 -0.2044
vn -0.5875 -0.7343 -0.3401
vn -0.5859 -0.7309 -0.3500
vn -0.4961 -0.7970 -0.3444
vn -0.2202 -0.9249 -0.3100
vn -0.0609 -0.9924 -0.1069
vn 0.0055 -0.9816 0.1907
vn -0.0094 -0.9118 0.4105
vn -0.0572 -0.8653 0.4980
vn -0.1208 -0.8278 0.5479
vn -0.6148 -0.7220 -0.3174
vn 0.5072 0.1103 0.8547
vn 0.2077 0.1583 0.9653
vn 0.2234 0.1978 0.9544
vn 0.5388 0.1535 0.8283
vn -0.1984 0.2288 0.9530
vn -0.1542 0.2973 0.9422
vn 0.2904 0.1533 0.9446
vn 0.5374 0.2135 0.8159
vn 0.0347 0.3092 0.9504
vn -0.1376 0.6004 0.7878
vn -0.1843 0.8087 0.5586
vn 0.0892 0.5963 0.7978
vn 0.1872 0.4118 0.8919
vn 0.3264 0.2623 0.9081
vn 0.3487 0.1507 0.9250
vn -0.2671 0.8764 0.4008
vn -0.0568 0.7299 0.6812
vn 0.2143 0.3121 0.9256
vn 0.4053 -0.0681 0.9116
vn 0.3798 0.0694 0.9225
vn 0.2964 0.0262 0.9547
vn -0.1116 0.0913 0.9895
vn 0.0603 0.0809 0.9949
vn 0.0442 0.3505 0.9355
vn -0.0834 0.3831 0.9199
vn -0.1429 0.7061 0.6935
vn -0.2160 0.8869 0.4084
vn -0.2516 0.2243 0.9415
vn -0.2325 -0.0606 0.9707
vn 0.2049 0.6615 0.7214
vn 0.1729 0.7468 0.6422
vn -0.1568 0.9871 0.0328
vn -0.0454 0.9720 0.2307
vn 0.3712 0.1076 0.9223
vn 0.4125 0.1121 0.9040
vn 0.1378 0.7039 0.6968
vn -0.0922 0.9943 0.0537
vn 0.2636 0.1044 0.9590
vn -0.0086 0.9806 0.1959
vn 0.0458 0.6535 0.7556
vn 0.0767 0.1145 0.9905
vn -0.0296 0.9996 -0.0029
vn -0.0684 0.7049 0.7060
vn -0.0753 0.0503 0.9959
vn 0.0024 0.9991 -0.0433
vn -0.1895 0.7354 0.6506
vn -0.2486 0.1030 0.9631
vn -0.5436 0.1365 0.8281
vn -0.5152 -0.1227 0.8483
vn -0.8213 0.1779 0.5421
vn -0.8056 -0.1813 0.5640
vn 0.0067 0.9995 -0.0315
vn -0.3908 0.7091 0.5869
vn -0.6032 0.6786 0.4191
vn -0.0530 0.9982 0.0297
vn -0.5147 0.0923 0.8524
vn -0.7996 0.0800 0.5952
vn -0.9886 0.0759 0.1300
vn -0.9345 -0.3431 0.0949
vn -0.9579 0.0752 -0.2770
vn -0.9106 -0.3422 -0.2318
vn -0.7233 0.6833 0.1002
vn 0.0072 0.9972 -0.0747
vn -0.6810 0.6914 -0.2412
vn 0.0280 0.9974 -0.0661
vn -0.9799 0.0669 0.1881
vn -0.9368 0.0996 -0.3355
vn -0.4021 0.6382 0.6565
vn -0.5809 0.6714 0.4602
vn -0.6842 0.7232 0.0942
vn -0.6616 0.7124 -0.2339
vn -0.3128 0.9423 0.1191
vn 0.4187 0.1434 0.8967
vn 0.1660 0.7889 0.5917
vn 0.4048 0.1023 0.9087
vn 0.2198 0.7395 0.6362
vn -0.1744 0.9840 -0.0373
vn -0.0632 0.9952 0.0752
vn 0.3998 0.0536 0.9150
vn 0.4632 -0.1750 0.8688
vn 0.4103 -0.1798 0.8941
vn 0.4071 -0.0565 0.9116
vn 0.2344 0.2511 0.9391
vn 0.2624 0.1462 0.9538
vn 0.3125 0.1538 0.9374
vn 0.3668 -0.1081 0.9240
vn 0.3831 -0.2426 0.8913
vn 0.3213 0.7142 0.6218
vn 0.0198 0.9986 0.0491
vn 0.0048 0.9973 0.0736
vn 0.2831 0.6952 0.6607
vn 0.3981 0.0520 0.9159
vn 0.4374 0.0673 0.8968
vn 0.5747 0.1453 0.8054
vn 0.5761 -0.0956 0.8117
vn 0.5910 -0.2074 0.7796
vn 0.6212 0.1586 0.7675
vn 0.6252 0.2157 0.7500
vn 0.7962 -0.2141 0.5659
vn 0.8083 -0.0740 0.5841
vn 0.9758 -0.1642 0.1443
vn 0.9925 -0.0078 0.1222
vn 0.8304 0.1805 0.5271
vn 0.9656 0.2564 0.0438
vn 0.8111 0.2626 0.5227
vn 0.9607 0.2753 0.0367
vn 0.8277 0.1221 0.5478
vn 0.9907 0.0549 0.1246
vn 0.8192 0.0513 0.5712
vn 0.9954 -0.0374 0.0881
vn 0.8503 0.1612 0.5009
vn 0.7961 0.1941 0.5732
vn 0.9854 0.1255 0.1153
vn 0.9949 0.1010 0.0063
vn 0.8538 -0.0999 -0.5110
vn 0.8566 -0.0255 -0.5154
vn 0.8317 0.2614 -0.4899
vn 0.7806 0.2748 -0.5613
vn 0.8493 0.0321 -0.5269
vn 0.8542 -0.1109 -0.5079
vn 0.8672 0.0303 -0.4971
vn 0.8631 0.0300 -0.5042
vn -0.3684 0.9238 0.1048
vn -0.4427 0.8744 0.1988
vn -0.4726 0.8083 0.3511
vn -0.3802 0.4831 0.7887
vn -0.7330 0.5919 0.3353
vn -0.5346 0.3642 0.7626
vn -0.6287 0.2624 0.7320
vn -0.8789 0.2791 0.3867
vn -0.8016 0.4296 0.4158
vn -0.7490 0.0875 -0.6568
vn -0.6736 -0.2570 -0.6930
vn -0.5565 0.6298 -0.5419
vn -0.4636 0.1364 -0.8755
vn -0.4493 -0.1477 -0.8811
vn -0.3170 0.1219 -0.9406
vn -0.2899 -0.1848 -0.9391
vn -0.2668 0.0478 -0.9626
vn -0.1125 -0.3293 -0.9375
vn -0.3538 0.9035 -0.2418
vn -0.3681 0.6251 -0.6883
vn -0.3663 0.8883 -0.2769
vn -0.3403 0.6726 -0.6571
vn -0.0387 -0.1853 -0.9819
vn 0.1088 -0.4604 -0.8810
vn -0.5022 0.7951 -0.3399
vn -0.3674 0.6599 -0.6554
vn -0.1802 0.3887 -0.9036
vn -0.2298 0.4324 -0.8719
vn -0.0473 -0.1696 -0.9844
vn 0.0260 -0.5446 -0.8383
vn -0.1748 -0.5735 -0.8004
vn -0.1592 -0.1532 -0.9753
vn -0.2152 0.2995 -0.9295
vn -0.4582 0.4432 -0.7704
vn -0.5995 0.7364 -0.3136
vn -0.5685 0.2038 -0.7970
vn -0.8216 0.4609 -0.3354
vn -0.3727 0.1295 -0.9189
vn -0.2633 -0.2039 -0.9429
vn -0.2035 -0.5304 -0.8230
vn -0.9571 0.2206 -0.1878
vn -0.6706 0.0708 -0.7384
vn -0.6247 0.1453 -0.7672
vn -0.9222 0.3349 -0.1932
vn -0.4074 0.0610 -0.9112
vn -0.4369 0.0090 -0.8995
vn -0.3803 0.0480 -0.9236
vn -0.3209 0.0285 -0.9467
vn -0.1433 -0.1818 -0.9728
vn -0.1171 -0.4505 -0.8851
vn -0.4816 0.6489 -0.5890
vn -0.0169 0.9952 -0.0963
vn -0.0141 0.9917 -0.1280
vn -0.3001 0.6278 -0.7182
vn -0.0427 0.9853 -0.1654
vn -0.2088 0.5917 -0.7787
vn -0.1215 0.9514 -0.2831
vn -0.1256 0.5357 -0.8350
vn -0.1095 0.6446 -0.7566
vn -0.1443 0.9882 -0.0507
vn -0.1817 0.9833 -0.0102
vn -0.1637 0.7173 -0.6773
vn -0.1924 0.9754 -0.1078
vn -0.2365 0.6084 -0.7576
vn -0.7225 0.0697 -0.6878
vn -0.4623 -0.0154 -0.8866
vn -0.2634 -0.0605 -0.9628
vn -0.0914 -0.0572 -0.9942
vn 0.0043 -0.0532 -0.9986
vn -0.0454 0.0217 -0.9987
vn -0.1457 -0.1153 -0.9826
vn -0.2349 0.0614 -0.9701
vn -0.2142 -0.0601 -0.9749
vn -0.2009 0.0442 -0.9786
vn -0.2257 -0.0020 -0.9742
vn -0.1158 0.0003 -0.9933
vn -0.1640 -0.0152 -0.9863
vn 0.0840 0.0163 -0.9963
vn 0.0048 0.0625 -0.9980
vn 0.4201 0.0532 -0.9059
vn 0.3699 0.0676 -0.9266
vn -0.1585 -0.4179 -0.8946
vn -0.1616 -0.2033 -0.9657
vn -0.0823 -0.1895 -0.9784
vn -0.1043 -0.4225 -0.9003
vn 0.1283 -0.0823 -0.9883
vn 0.1352 -0.3280 -0.9350
vn 0.4623 -0.0515 -0.8852
vn 0.4407 -0.2001 -0.8751
vn -0.1376 0.0190 -0.9903
vn -0.0222 0.0173 -0.9996
vn 0.2017 0.1036 -0.9740
vn 0.4618 0.1864 -0.8672
vn -0.1519 0.0583 -0.9867
vn 0.0161 0.0793 -0.9967
vn 0.3475 0.1588 -0.9241
vn 0.5801 0.2551 -0.7736
vn -0.1014 0.0160 -0.9947
vn 0.0569 0.0269 -0.9980
vn 0.4301 0.0022 -0.9028
vn 0.3816 -0.1072 -0.9181
vn 0.0534 -0.0550 -0.9971
vn -0.0925 -0.0137 -0.9956
vn -0.6994 -0.6856 0.2019
vn -0.5302 -0.8303 0.1714
vn -0.6197 -0.7612 0.1912
vn -0.6510 -0.7343 0.1925
vn 0.0143 -0.9982 0.0590
vn 0.0288 -0.9982 0.0523
vn 0.1534 -0.9877 0.0294
vn 0.1301 -0.9910 0.0326
vn 0.3610 -0.0213 0.9323
vn -0.2737 -0.1347 -0.9523
vn 0.1836 -0.9828 0.0187
vn 0.1582 -0.9873 0.0144
vn 0.1590 -0.9871 0.0176
vn 0.1772 -0.9840 0.0173
vn 0.1014 -0.9946 0.0226
vn 0.1674 -0.9854 0.0321
vn 0.0552 -0.9977 0.0401
vn 0.0927 -0.9946 0.0466
vn 0.0187 -0.9983 0.0545
vn 0.0159 -0.9983 0.0553
vn -0.0154 -0.9980 0.0607
vn -0.0273 -0.9979 0.0590
vn -0.0468 -0.9970 0.0612
vn -0.0463 -0.9971 0.0608
vn -0.0661 -0.9958 0.0636
vn -0.0169 -0.9975 0.0693
vn -0.0178 -0.9974 0.0694
vn 0.0241 -0.9984 0.0520
vn 0.0253 -0.9983 0.0519
vn 0.0340 -0.9982 0.0489
vn 0.0505 -0.9976 0.0484
vn 0.0389 -0.9979 0.0519
vn 0.0453 -0.9976 0.0519
# 480 vertex normals

vt 0.3070 0.5325 0.0000
vt 0.3008 0.4823 0.0000
vt 0.3114 0.4797 0.0000
vt 0.3185 0.5306 0.0000
vt 0.3018 0.4290 0.0000
vt 0.3169 0.4251 0.0000
vt 0.3265 0.4670 0.0000
vt 0.3356 0.4012 0.0000
vt 0.3384 0.4640 0.0000
vt 0.3271 0.4057 0.0000
vt 0.3432 0.5156 0.0000
vt 0.3551 0.4623 0.0000
vt 0.3580 0.5142 0.0000
vt 0.3538 0.4019 0.0000
vt 0.3711 0.3986 0.0000
vt 0.3706 0.4618 0.0000
vt 0.3731 0.5146 0.0000
vt 0.2940 0.5344 0.0000
vt 0.2918 0.4873 0.0000
vt 0.2378 0.4772 0.0000
vt 0.2500 0.4735 0.0000
vt 0.2471 0.5157 0.0000
vt 0.2347 0.5153 0.0000
vt 0.2426 0.4181 0.0000
vt 0.2505 0.4203 0.0000
vt 0.2618 0.4203 0.0000
vt 0.2616 0.4497 0.0000
vt 0.2913 0.4321 0.0000
vt 0.2776 0.5414 0.0000
vt 0.2758 0.5145 0.0000
vt 0.3327 0.5219 0.0000
vt 0.2651 0.5401 0.0000
vt 0.2628 0.5151 0.0000
vt 0.2520 0.5360 0.0000
vt 0.2613 0.4911 0.0000
vt 0.2753 0.4846 0.0000
vt 0.2776 0.6089 0.0000
vt 0.2656 0.6107 0.0000
vt 0.2648 0.5904 0.0000
vt 0.2737 0.5865 0.0000
vt 0.2770 0.5652 0.0000
vt 0.2665 0.5575 0.0000
vt 0.2753 0.5740 0.0000
vt 0.2638 0.5779 0.0000
vt 0.2575 0.6003 0.0000
vt 0.2526 0.5925 0.0000
vt 0.2511 0.5546 0.0000
vt 0.2516 0.5741 0.0000
vt 0.2918 0.5832 0.0000
vt 0.2915 0.6085 0.0000
vt 0.3217 0.5581 0.0000
vt 0.3073 0.5593 0.0000
vt 0.2920 0.5732 0.0000
vt 0.3030 0.6060 0.0000
vt 0.3022 0.5822 0.0000
vt 0.3196 0.5847 0.0000
vt 0.2937 0.5633 0.0000
vt 0.3372 0.5540 0.0000
vt 0.3358 0.5803 0.0000
vt 0.3496 0.5486 0.0000
vt 0.3465 0.5804 0.0000
vt 0.3590 0.5437 0.0000
vt 0.3628 0.5704 0.0000
vt 0.3547 0.5755 0.0000
vt 0.2336 0.5389 0.0000
vt 0.3738 0.5378 0.0000
vt 0.3751 0.5647 0.0000
vt 0.2341 0.5592 0.0000
vt 0.2372 0.5769 0.0000
vt 0.2360 0.5930 0.0000
vt 0.4151 0.5645 0.0000
vt 0.4154 0.5813 0.0000
vt 0.4006 0.5895 0.0000
vt 0.3995 0.5740 0.0000
vt 0.3888 0.4599 0.0000
vt 0.3901 0.3956 0.0000
vt 0.4044 0.3972 0.0000
vt 0.4049 0.4594 0.0000
vt 0.4073 0.5008 0.0000
vt 0.3905 0.5093 0.0000
vt 0.3908 0.5330 0.0000
vt 0.4099 0.5269 0.0000
vt 0.3926 0.5581 0.0000
vt 0.4126 0.5486 0.0000
vt 0.3873 0.5839 0.0000
vt 0.2986 0.3979 0.0000
vt 0.3034 0.3910 0.0000
vt 0.2988 0.3746 0.0000
vt 0.3044 0.3768 0.0000
vt 0.3149 0.3778 0.0000
vt 0.3182 0.3943 0.0000
vt 0.3392 0.3512 0.0000
vt 0.3513 0.3494 0.0000
vt 0.2736 0.4011 0.0000
vt 0.2785 0.4156 0.0000
vt 0.2737 0.4476 0.0000
vt 0.3695 0.3476 0.0000
vt 0.2654 0.3603 0.0000
vt 0.2716 0.3787 0.0000
vt 0.2677 0.3840 0.0000
vt 0.2606 0.3671 0.0000
vt 0.2795 0.3979 0.0000
vt 0.2919 0.3994 0.0000
vt 0.2924 0.3771 0.0000
vt 0.2768 0.3682 0.0000
vt 0.2828 0.3822 0.0000
vt 0.2588 0.3929 0.0000
vt 0.2548 0.3763 0.0000
vt 0.3524 0.3137 0.0000
vt 0.3682 0.3153 0.0000
vt 0.3392 0.3234 0.0000
vt 0.3569 0.2919 0.0000
vt 0.3672 0.2992 0.0000
vt 0.3599 0.2876 0.0000
vt 0.3675 0.2915 0.0000
vt 0.3878 0.3020 0.0000
vt 0.3879 0.3161 0.0000
vt 0.4017 0.3109 0.0000
vt 0.4002 0.3251 0.0000
vt 0.3896 0.3442 0.0000
vt 0.2469 0.3690 0.0000
vt 0.2499 0.3545 0.0000
vt 0.3978 0.3451 0.0000
vt 0.4088 0.3292 0.0000
vt 0.4052 0.3456 0.0000
vt 0.3864 0.2928 0.0000
vt 0.4149 0.3123 0.0000
vt 0.2533 0.3374 0.0000
vt 0.4050 0.2990 0.0000
vt 0.3603 0.2759 0.0000
vt 0.3656 0.2719 0.0000
vt 0.3831 0.2771 0.0000
vt 0.3653 0.2495 0.0000
vt 0.3841 0.2546 0.0000
vt 0.3989 0.2601 0.0000
vt 0.3974 0.2817 0.0000
vt 0.4147 0.2719 0.0000
vt 0.4131 0.2883 0.0000
vt 0.2417 0.3308 0.0000
vt 0.2480 0.3162 0.0000
vt 0.2574 0.3311 0.0000
vt 0.2487 0.3004 0.0000
vt 0.2621 0.3205 0.0000
vt 0.2693 0.3538 0.0000
vt 0.2730 0.3444 0.0000
vt 0.2833 0.3554 0.0000
vt 0.2921 0.3663 0.0000
vt 0.2844 0.3692 0.0000
vt 0.2869 0.3575 0.0000
vt 0.3836 0.2274 0.0000
vt 0.3670 0.2275 0.0000
vt 0.4027 0.2382 0.0000
vt 0.4170 0.2497 0.0000
vt 0.2944 0.3579 0.0000
vt 0.2932 0.3623 0.0000
vt 0.2880 0.3541 0.0000
vt 0.2995 0.3671 0.0000
vt 0.3035 0.3653 0.0000
vt 0.2853 0.3451 0.0000
vt 0.2890 0.3520 0.0000
vt 0.2839 0.3506 0.0000
vt 0.2935 0.3564 0.0000
vt 0.3027 0.3498 0.0000
vt 0.2920 0.3364 0.0000
vt 0.2975 0.3392 0.0000
vt 0.2764 0.3433 0.0000
vt 0.2821 0.3353 0.0000
vt 0.2908 0.3275 0.0000
vt 0.2988 0.3316 0.0000
vt 0.3077 0.3404 0.0000
vt 0.3244 0.3605 0.0000
vt 0.3238 0.3347 0.0000
vt 0.3134 0.3622 0.0000
vt 0.2893 0.3164 0.0000
vt 0.2988 0.3198 0.0000
vt 0.2796 0.3267 0.0000
vt 0.2723 0.3292 0.0000
vt 0.2689 0.3163 0.0000
vt 0.2765 0.3126 0.0000
vt 0.2873 0.3038 0.0000
vt 0.2976 0.3035 0.0000
vt 0.3063 0.3210 0.0000
vt 0.3074 0.3022 0.0000
vt 0.3231 0.3150 0.0000
vt 0.3237 0.2907 0.0000
vt 0.3382 0.3083 0.0000
vt 0.3353 0.2845 0.0000
vt 0.3479 0.2996 0.0000
vt 0.3554 0.2838 0.0000
vt 0.3466 0.2813 0.0000
vt 0.3596 0.2558 0.0000
vt 0.3516 0.2653 0.0000
vt 0.3592 0.2301 0.0000
vt 0.3492 0.2355 0.0000
vt 0.3406 0.2424 0.0000
vt 0.3072 0.2744 0.0000
vt 0.3246 0.2603 0.0000
vt 0.2965 0.2830 0.0000
vt 0.2847 0.2872 0.0000
vt 0.2768 0.2855 0.0000
vt 0.2683 0.2823 0.0000
vt 0.2594 0.2802 0.0000
vt 0.2497 0.2776 0.0000
vt 0.2936 0.3675 0.0000
vt 0.3084 0.3619 0.0000
vt 0.3306 0.2535 0.0000
vt 0.1834 0.2087 0.0000
vt 0.1850 0.2226 0.0000
vt 0.1678 0.2125 0.0000
vt 0.1774 0.1975 0.0000
vt 0.1716 0.1924 0.0000
vt 0.1820 0.2276 0.0000
vt 0.1779 0.2315 0.0000
vt 0.1737 0.2332 0.0000
vt 0.1653 0.2312 0.0000
vt 0.1588 0.2222 0.0000
vt 0.1571 0.2128 0.0000
vt 0.1575 0.2025 0.0000
vt 0.1603 0.1981 0.0000
vt 0.1635 0.1940 0.0000
vt 0.1673 0.1920 0.0000
vt 0.1685 0.2324 0.0000
vt 0.5931 0.4714 0.0000
vt 0.5934 0.4822 0.0000
vt 0.5796 0.4899 0.0000
vt 0.5785 0.4744 0.0000
vt 0.5942 0.5008 0.0000
vt 0.5809 0.5129 0.0000
vt 0.5680 0.4949 0.0000
vt 0.5660 0.4749 0.0000
vt 0.5683 0.5208 0.0000
vt 0.5644 0.5458 0.0000
vt 0.5624 0.5665 0.0000
vt 0.5508 0.5568 0.0000
vt 0.5561 0.5386 0.0000
vt 0.5417 0.5474 0.0000
vt 0.5460 0.5263 0.0000
vt 0.5559 0.5893 0.0000
vt 0.5455 0.5783 0.0000
vt 0.5373 0.5621 0.0000
vt 0.5406 0.5219 0.0000
vt 0.5355 0.5412 0.0000
vt 0.5308 0.5569 0.0000
vt 0.5256 0.5902 0.0000
vt 0.5281 0.5723 0.0000
vt 0.5343 0.5751 0.0000
vt 0.5328 0.5940 0.0000
vt 0.5358 0.6156 0.0000
vt 0.5405 0.6231 0.0000
vt 0.5300 0.6221 0.0000
vt 0.5240 0.6206 0.0000
vt 0.0162 0.0670 0.0000
vt 0.0202 0.0477 0.0000
vt 0.0213 0.0485 0.0000
vt 0.0171 0.0676 0.0000
vt 0.0144 0.0653 0.0000
vt 0.0183 0.0457 0.0000
vt 0.0134 0.0829 0.0000
vt 0.0144 0.0834 0.0000
vt 0.0113 0.0822 0.0000
vt 0.0125 0.0972 0.0000
vt 0.0118 0.0968 0.0000
vt 0.0097 0.0960 0.0000
vt 0.0118 0.1119 0.0000
vt 0.0105 0.1122 0.0000
vt 0.0084 0.1114 0.0000
vt 0.0104 0.1340 0.0000
vt 0.0090 0.1339 0.0000
vt 0.0068 0.1328 0.0000
vt 0.5314 0.6388 0.0000
vt 0.5258 0.6411 0.0000
vt 0.5346 0.6515 0.0000
vt 0.5301 0.6574 0.0000
vt 0.0101 0.1479 0.0000
vt 0.0084 0.1496 0.0000
vt 0.0088 0.1607 0.0000
vt 0.0104 0.1597 0.0000
vt 0.0064 0.1489 0.0000
vt 0.0069 0.1610 0.0000
vt 0.5382 0.6603 0.0000
vt 0.5357 0.6694 0.0000
vt 0.5441 0.6646 0.0000
vt 0.5425 0.6751 0.0000
vt 0.0096 0.1705 0.0000
vt 0.0122 0.1690 0.0000
vt 0.0118 0.1799 0.0000
vt 0.0140 0.1769 0.0000
vt 0.0078 0.1717 0.0000
vt 0.0103 0.1828 0.0000
vt 0.5353 0.6360 0.0000
vt 0.5369 0.6441 0.0000
vt 0.5406 0.6499 0.0000
vt 0.5457 0.6538 0.0000
vt 0.5442 0.6281 0.0000
vt 0.0207 0.0339 0.0000
vt 0.0226 0.0357 0.0000
vt 0.0221 0.0257 0.0000
vt 0.0241 0.0264 0.0000
vt 0.0237 0.0364 0.0000
vt 0.0254 0.0273 0.0000
vt 0.5477 0.5163 0.0000
vt 0.5427 0.5122 0.0000
vt 0.5434 0.5067 0.0000
vt 0.5477 0.5074 0.0000
vt 0.5579 0.5215 0.0000
vt 0.5572 0.5051 0.0000
vt 0.5574 0.4860 0.0000
vt 0.5467 0.4911 0.0000
vt 0.5415 0.4911 0.0000
vt 0.1223 0.2349 0.0000
vt 0.1225 0.2331 0.0000
vt 0.1305 0.2360 0.0000
vt 0.1302 0.2387 0.0000
vt 0.1299 0.2427 0.0000
vt 0.1204 0.2492 0.0000
vt 0.5570 0.4752 0.0000
vt 0.5463 0.4756 0.0000
vt 0.5400 0.4755 0.0000
vt 0.1132 0.2463 0.0000
vt 0.1152 0.2318 0.0000
vt 0.5395 0.4655 0.0000
vt 0.5456 0.4665 0.0000
vt 0.5389 0.4538 0.0000
vt 0.5454 0.4537 0.0000
vt 0.5566 0.4652 0.0000
vt 0.5567 0.4524 0.0000
vt 0.5644 0.4651 0.0000
vt 0.5649 0.4539 0.0000
vt 0.5762 0.4624 0.0000
vt 0.5759 0.4558 0.0000
vt 0.5926 0.4590 0.0000
vt 0.5923 0.4519 0.0000
vt 0.1076 0.2434 0.0000
vt 0.1105 0.2291 0.0000
vt 0.1054 0.2266 0.0000
vt 0.1030 0.2406 0.0000
vt 0.5929 0.4419 0.0000
vt 0.5754 0.4406 0.0000
vt 0.5654 0.4411 0.0000
vt 0.5574 0.4374 0.0000
vt 0.5465 0.4374 0.0000
vt 0.5384 0.4375 0.0000
vt 0.0970 0.2372 0.0000
vt 0.0989 0.2232 0.0000
vt 0.5622 0.5972 0.0000
vt 0.5678 0.5792 0.0000
vt 0.5736 0.5641 0.0000
vt 0.5770 0.5327 0.0000
vt 0.5831 0.5454 0.0000
vt 0.5845 0.5216 0.0000
vt 0.5950 0.5097 0.0000
vt 0.5969 0.5161 0.0000
vt 0.5893 0.5322 0.0000
vt 0.5502 0.6646 0.0000
vt 0.5529 0.6759 0.0000
vt 0.5500 0.6554 0.0000
vt 0.5611 0.6589 0.0000
vt 0.5638 0.6703 0.0000
vt 0.5694 0.6521 0.0000
vt 0.5724 0.6637 0.0000
vt 0.5807 0.6376 0.0000
vt 0.5853 0.6497 0.0000
vt 0.5517 0.6343 0.0000
vt 0.5609 0.6436 0.0000
vt 0.5681 0.6041 0.0000
vt 0.5745 0.6140 0.0000
vt 0.5888 0.6274 0.0000
vt 0.5941 0.6403 0.0000
vt 0.5735 0.5847 0.0000
vt 0.5818 0.5952 0.0000
vt 0.5895 0.6081 0.0000
vt 0.5836 0.6176 0.0000
vt 0.5948 0.6179 0.0000
vt 0.6006 0.6335 0.0000
vt 0.6091 0.6229 0.0000
vt 0.6021 0.6098 0.0000
vt 0.5962 0.5964 0.0000
vt 0.5894 0.5841 0.0000
vt 0.5784 0.5721 0.0000
vt 0.5967 0.5671 0.0000
vt 0.5879 0.5520 0.0000
vt 0.6045 0.5843 0.0000
vt 0.6091 0.6052 0.0000
vt 0.6145 0.6170 0.0000
vt 0.5991 0.5171 0.0000
vt 0.6060 0.5189 0.0000
vt 0.6018 0.5461 0.0000
vt 0.5927 0.5371 0.0000
vt 0.6130 0.5501 0.0000
vt 0.6151 0.5167 0.0000
vt 0.6121 0.5638 0.0000
vt 0.6148 0.5716 0.0000
vt 0.6189 0.5968 0.0000
vt 0.6203 0.6122 0.0000
vt 0.0170 0.1912 0.0000
vt 0.0183 0.1874 0.0000
vt 0.0247 0.1964 0.0000
vt 0.0235 0.1991 0.0000
vt 0.0310 0.2018 0.0000
vt 0.0303 0.2053 0.0000
vt 0.0420 0.2080 0.0000
vt 0.0422 0.2108 0.0000
vt 0.0508 0.2108 0.0000
vt 0.0502 0.2076 0.0000
vt 0.0565 0.2060 0.0000
vt 0.0570 0.2097 0.0000
vt 0.0650 0.2061 0.0000
vt 0.0652 0.2093 0.0000
vt 0.0154 0.1935 0.0000
vt 0.0217 0.2020 0.0000
vt 0.0297 0.2091 0.0000
vt 0.0417 0.2148 0.0000
vt 0.0505 0.2149 0.0000
vt 0.0569 0.2138 0.0000
vt 0.0648 0.2135 0.0000
vt 0.0703 0.2092 0.0000
vt 0.0697 0.2135 0.0000
vt 0.0754 0.2101 0.0000
vt 0.0738 0.2144 0.0000
vt 0.0816 0.2132 0.0000
vt 0.0785 0.2269 0.0000
vt 0.0881 0.2169 0.0000
vt 0.0849 0.2306 0.0000
vt 0.0947 0.2205 0.0000
vt 0.0914 0.2344 0.0000
vt 0.5416 0.3765 0.0000
vt 0.5495 0.3806 0.0000
vt 0.5481 0.3948 0.0000
vt 0.5407 0.3928 0.0000
vt 0.5481 0.4104 0.0000
vt 0.5397 0.4100 0.0000
vt 0.5465 0.4256 0.0000
vt 0.5389 0.4272 0.0000
vt 0.5635 0.3852 0.0000
vt 0.5601 0.3991 0.0000
vt 0.5582 0.4171 0.0000
vt 0.5568 0.4271 0.0000
vt 0.5697 0.3833 0.0000
vt 0.5683 0.4019 0.0000
vt 0.5656 0.4187 0.0000
vt 0.5652 0.4307 0.0000
vt 0.5775 0.3894 0.0000
vt 0.5762 0.4044 0.0000
vt 0.5745 0.4247 0.0000
vt 0.5934 0.4287 0.0000
vt 0.5942 0.4144 0.0000
vt 0.5945 0.3956 0.0000
vt 0.6103 0.1883 0.0000
vt 0.6105 0.1929 0.0000
vt 0.5988 0.1920 0.0000
vt 0.5991 0.1874 0.0000
vt 0.6099 0.1807 0.0000
vt 0.5990 0.1819 0.0000
vt 0.6109 0.1967 0.0000
vt 0.5989 0.1958 0.0000
vt 0.1285 0.2523 0.0000
vt 0.0728 0.2241 0.0000
vt 0.6115 0.2021 0.0000
vt 0.6123 0.2109 0.0000
vt 0.5988 0.1999 0.0000
vt 0.5983 0.2066 0.0000
vt 0.6131 0.2177 0.0000
vt 0.5976 0.2122 0.0000
vt 0.6133 0.2223 0.0000
vt 0.5969 0.2201 0.0000
vt 0.6128 0.2272 0.0000
vt 0.5975 0.2315 0.0000
vt 0.6120 0.2349 0.0000
vt 0.5991 0.2390 0.0000
vt 0.6107 0.2403 0.0000
vt 0.6012 0.2445 0.0000
vt 0.6090 0.2439 0.0000
vt 0.6043 0.2471 0.0000
vt 0.6070 0.2464 0.0000
vt 0.5994 0.1758 0.0000
vt 0.6091 0.1740 0.0000
vt 0.6006 0.1699 0.0000
vt 0.6077 0.1694 0.0000
vt 0.6029 0.1669 0.0000
vt 0.6057 0.1671 0.0000
# 480 texture coords

o Alumno2SubLeftLeg
g Alumno2SubLeftLeg
usemtl mat_1_Doctor_body_d_jpg
s 1
f 1/1/1 2/2/2 3/3/3 
f 3/3/3 4/4/4 1/1/1 
f 3/3/3 5/5/5 6/6/6 
f 6/6/6 7/7/7 3/3/3 
f 8/8/8 9/9/9 7/7/7 
f 7/7/7 10/10/10 8/8/8 
f 11/11/11 9/9/9 12/12/12 
f 12/12/12 13/13/13 11/11/11 
f 9/9/9 8/8/8 14/14/14 
f 14/14/14 12/12/12 9/9/9 
f 15/15/15 16/16/16 12/12/12 
f 12/12/12 14/14/14 15/15/15 
f 16/16/16 17/17/17 13/13/13 
f 13/13/13 12/12/12 16/16/16 
f 18/18/18 19/19/19 2/2/2 
f 2/2/2 1/1/1 18/18/18 
f 20/20/20 21/21/21 22/22/22 
f 22/22/22 23/23/23 20/20/20 
f 20/20/20 24/24/24 25/25/25 
f 25/25/25 21/21/21 20/20/20 
f 21/21/21 25/25/25 26/26/26 
f 26/26/26 27/27/27 21/21/21 
f 2/2/2 28/28/28 5/5/5 
f 5/5/5 3/3/3 2/2/2 
f 18/18/18 29/29/29 30/30/30 
f 30/30/30 19/19/19 18/18/18 
f 9/9/9 11/11/11 31/31/31 
f 31/31/31 7/7/7 9/9/9 
f 3/3/3 7/7/7 31/31/31 
f 31/31/31 4/4/4 3/3/3 
f 32/32/32 33/33/33 30/30/30 
f 30/30/30 29/29/29 32/32/32 
f 34/34/34 22/22/22 33/33/33 
f 33/33/33 32/32/32 34/34/34 
f 21/21/21 35/35/35 33/33/33 
f 33/33/33 22/22/22 21/21/21 
f 36/36/36 30/30/30 33/33/33 
f 33/33/33 35/35/35 36/36/36 
f 37/37/37 38/38/38 39/39/39 
f 39/39/39 40/40/40 37/37/37 
f 29/29/29 41/41/41 42/42/42 
f 42/42/42 32/32/32 29/29/29 
f 43/43/43 44/44/44 42/42/42 
f 42/42/42 41/41/41 43/43/43 
f 40/40/40 39/39/39 44/44/44 
f 44/44/44 43/43/43 40/40/40 
f 39/39/39 45/45/45 46/46/46 
f 46/46/46 44/44/44 39/39/39 
f 42/42/42 47/47/47 34/34/34 
f 34/34/34 32/32/32 42/42/42 
f 44/44/44 48/48/48 47/47/47 
f 47/47/47 42/42/42 44/44/44 
f 40/40/40 49/49/49 50/50/50 
f 50/50/50 37/37/37 40/40/40 
f 51/51/51 52/52/52 1/1/1 
f 1/1/1 4/4/4 51/51/51 
f 43/43/43 53/53/53 49/49/49 
f 49/49/49 40/40/40 43/43/43 
f 54/54/54 55/55/55 56/56/56 
f 50/50/50 49/49/49 55/55/55 
f 55/55/55 54/54/54 50/50/50 
f 56/56/56 55/55/55 52/52/52 
f 52/52/52 51/51/51 56/56/56 
f 52/52/52 57/57/57 18/18/18 
f 18/18/18 1/1/1 52/52/52 
f 55/55/55 53/53/53 57/57/57 
f 57/57/57 52/52/52 55/55/55 
f 18/18/18 57/57/57 41/41/41 
f 41/41/41 29/29/29 18/18/18 
f 41/41/41 57/57/57 53/53/53 
f 53/53/53 43/43/43 41/41/41 
f 31/31/31 58/58/58 51/51/51 
f 51/51/51 4/4/4 31/31/31 
f 58/58/58 59/59/59 56/56/56 
f 56/56/56 51/51/51 58/58/58 
f 58/58/58 60/60/60 61/61/61 
f 61/61/61 59/59/59 58/58/58 
f 11/11/11 60/60/60 58/58/58 
f 58/58/58 31/31/31 11/11/11 
f 11/11/11 13/13/13 62/62/62 
f 62/62/62 60/60/60 11/11/11 
f 60/60/60 62/62/62 63/63/63 
f 63/63/63 64/64/64 60/60/60 
f 34/34/34 65/65/65 23/23/23 
f 23/23/23 22/22/22 34/34/34 
f 13/13/13 17/17/17 66/66/66 
f 66/66/66 62/62/62 13/13/13 
f 62/62/62 66/66/66 67/67/67 
f 67/67/67 63/63/63 62/62/62 
f 34/34/34 47/47/47 68/68/68 
f 68/68/68 65/65/65 34/34/34 
f 48/48/48 69/69/69 68/68/68 
f 68/68/68 47/47/47 48/48/48 
f 48/48/48 46/46/46 70/70/70 
f 70/70/70 69/69/69 48/48/48 
f 69/71/71 70/72/72 71/73/73 
f 71/73/73 72/74/74 69/71/71 
f 73/75/75 74/76/76 24/77/77 
f 24/77/77 20/78/78 73/75/75 
f 15/15/15 74/76/76 73/75/75 
f 73/75/75 16/16/16 15/15/15 
f 20/78/78 23/79/79 75/80/80 
f 75/80/80 73/75/75 20/78/78 
f 16/16/16 73/75/75 75/80/80 
f 75/80/80 17/17/17 16/16/16 
f 76/81/81 75/80/80 23/79/79 
f 23/79/79 65/82/82 76/81/81 
f 72/74/74 77/83/83 68/84/84 
f 68/84/84 69/71/71 72/74/74 
f 17/17/17 75/80/80 76/81/81 
f 76/81/81 66/66/66 17/17/17 
f 66/66/66 76/81/81 77/83/83 
f 77/83/83 67/67/67 66/66/66 
f 68/84/84 77/83/83 76/81/81 
f 76/81/81 65/82/82 68/84/84 
f 67/67/67 77/83/83 78/85/85 
f 5/5/5 79/86/86 80/87/87 
f 80/87/87 6/6/6 5/5/5 
f 81/88/88 82/89/89 80/87/87 
f 80/87/87 79/86/86 81/88/88 
f 82/89/89 83/90/90 84/91/91 
f 84/91/91 80/87/87 82/89/89 
f 85/92/92 86/93/93 14/14/14 
f 14/14/14 8/8/8 85/92/92 
f 26/26/26 87/94/94 88/95/95 
f 88/95/95 89/96/96 26/26/26 
f 86/93/93 90/97/97 15/15/15 
f 15/15/15 14/14/14 86/93/93 
f 91/98/98 92/99/99 93/100/100 
f 93/100/100 94/101/101 91/98/98 
f 93/100/100 92/99/99 95/102/102 
f 95/102/102 87/94/94 93/100/100 
f 28/28/28 96/103/103 79/86/86 
f 79/86/86 5/5/5 28/28/28 
f 88/95/95 95/102/102 96/103/103 
f 96/103/103 28/28/28 88/95/95 
f 79/86/86 96/103/103 97/104/104 
f 97/104/104 81/88/88 79/86/86 
f 98/105/105 99/106/106 95/102/102 
f 95/102/102 92/99/99 98/105/105 
f 26/26/26 100/107/107 93/100/100 
f 93/100/100 87/94/94 26/26/26 
f 100/107/107 101/108/108 94/101/101 
f 94/101/101 93/100/100 100/107/107 
f 90/97/97 86/93/93 102/109/109 
f 102/109/109 103/110/110 90/97/97 
f 104/111/111 102/109/109 86/93/93 
f 86/93/93 85/92/92 104/111/111 
f 103/110/110 102/109/109 105/112/112 
f 105/112/112 106/113/113 103/110/110 
f 107/114/114 108/115/115 106/113/113 
f 106/113/113 105/112/112 107/114/114 
f 109/116/116 110/117/117 103/110/110 
f 103/110/110 106/113/113 109/116/116 
f 111/118/118 112/119/119 110/117/117 
f 110/117/117 109/116/116 111/118/118 
f 103/110/110 110/117/117 113/120/120 
f 113/120/120 90/97/97 103/110/110 
f 101/108/108 114/121/121 115/122/122 
f 115/122/122 94/101/101 101/108/108 
f 90/97/97 113/120/120 74/76/76 
f 74/76/76 15/15/15 90/97/97 
f 110/117/117 112/119/119 116/123/123 
f 116/123/123 113/120/120 110/117/117 
f 101/108/108 25/25/25 24/24/24 
f 24/24/24 114/121/121 101/108/108 
f 115/124/124 114/125/125 116/123/123 
f 116/123/123 112/119/119 115/124/124 
f 108/115/115 117/126/126 109/116/116 
f 109/116/116 106/113/113 108/115/115 
f 112/119/119 111/118/118 118/127/127 
f 118/127/127 115/124/124 112/119/119 
f 94/101/101 115/122/122 118/128/128 
f 118/128/128 91/98/98 94/101/101 
f 109/116/116 117/126/126 119/129/129 
f 119/129/129 111/118/118 109/116/116 
f 120/130/130 121/131/131 108/115/115 
f 108/115/115 107/114/114 120/130/130 
f 108/115/115 121/131/131 122/132/132 
f 122/132/132 117/126/126 108/115/115 
f 123/133/133 124/134/134 122/132/132 
f 122/132/132 121/131/131 123/133/133 
f 124/134/134 125/135/135 126/136/136 
f 126/136/136 122/132/132 124/134/134 
f 125/135/135 127/137/137 128/138/138 
f 128/138/138 126/136/136 125/135/135 
f 119/139/139 128/140/140 129/141/141 
f 129/141/141 118/128/128 119/139/139 
f 127/142/142 130/143/143 129/141/141 
f 129/141/141 128/140/140 127/142/142 
f 129/141/141 131/144/144 91/98/98 
f 91/98/98 118/128/128 129/141/141 
f 130/143/143 132/145/145 131/144/144 
f 131/144/144 129/141/141 130/143/143 
f 92/99/99 91/98/98 131/144/144 
f 131/144/144 98/105/105 92/99/99 
f 131/144/144 132/145/145 133/146/146 
f 133/146/146 98/105/105 131/144/144 
f 134/147/147 97/104/104 135/148/148 
f 135/148/148 136/149/149 134/147/147 
f 137/150/150 124/134/134 123/133/133 
f 123/133/133 138/151/151 137/150/150 
f 124/134/134 137/150/150 139/152/152 
f 139/152/152 125/135/135 124/134/134 
f 125/135/135 139/152/152 140/153/153 
f 140/153/153 127/137/137 125/135/135 
f 141/154/154 142/155/155 136/149/149 
f 136/149/149 143/156/156 141/154/154 
f 144/157/157 142/155/155 141/154/154 
f 141/154/154 145/158/158 144/157/157 
f 146/159/159 147/160/160 143/156/156 
f 143/156/156 148/161/161 146/159/159 
f 141/154/154 149/162/162 150/163/163 
f 150/163/163 145/158/158 141/154/154 
f 149/162/162 151/164/164 152/165/165 
f 152/165/165 150/163/163 149/162/162 
f 153/166/166 148/161/161 133/146/146 
f 133/146/146 132/145/145 153/166/166 
f 148/161/161 153/166/166 154/167/167 
f 154/167/167 146/159/159 148/161/161 
f 154/167/167 155/168/168 151/164/164 
f 151/164/164 146/159/159 154/167/167 
f 151/164/164 155/168/168 156/169/169 
f 156/169/169 152/165/165 151/164/164 
f 152/165/165 156/169/169 157/170/170 
f 157/170/170 150/163/163 152/165/165 
f 158/171/171 10/10/10 84/91/91 
f 84/91/91 83/90/90 158/171/171 
f 158/171/171 85/92/92 8/8/8 
f 8/8/8 10/10/10 158/171/171 
f 85/92/92 158/171/171 159/172/172 
f 159/172/172 104/111/111 85/92/92 
f 159/172/172 158/171/171 160/173/173 
f 160/173/173 157/170/170 159/172/172 
f 156/169/169 155/168/168 161/174/174 
f 161/174/174 162/175/175 156/169/169 
f 163/176/176 161/174/174 155/168/168 
f 155/168/168 154/167/167 163/176/176 
f 153/166/166 164/177/177 163/176/176 
f 163/176/176 154/167/167 153/166/166 
f 164/177/177 153/166/166 132/145/145 
f 132/145/145 130/143/143 164/177/177 
f 165/178/178 166/179/179 163/176/176 
f 163/176/176 164/177/177 165/178/178 
f 166/179/179 167/180/180 161/174/174 
f 161/174/174 163/176/176 166/179/179 
f 161/174/174 167/180/180 168/181/181 
f 168/181/181 162/175/175 161/174/174 
f 156/169/169 162/175/175 169/182/182 
f 169/182/182 157/170/170 156/169/169 
f 170/183/183 169/182/182 162/175/175 
f 162/175/175 168/181/181 170/183/183 
f 157/170/170 169/182/182 171/184/184 
f 171/184/184 159/172/172 157/170/170 
f 172/185/185 171/184/184 169/182/182 
f 169/182/182 170/183/183 172/185/185 
f 159/172/172 171/184/184 173/186/186 
f 173/186/186 104/111/111 159/172/172 
f 172/185/185 174/187/187 173/186/186 
f 173/186/186 171/184/184 172/185/185 
f 104/111/111 173/186/186 175/188/188 
f 175/188/188 102/109/109 104/111/111 
f 175/188/188 176/189/189 105/112/112 
f 105/112/112 102/109/109 175/188/188 
f 177/190/190 175/188/188 173/186/186 
f 173/186/186 174/187/187 177/190/190 
f 178/191/191 123/133/133 121/131/131 
f 121/131/131 120/130/130 178/191/191 
f 179/192/192 178/191/191 120/130/130 
f 120/130/130 176/189/189 179/192/192 
f 123/133/133 178/191/191 180/193/193 
f 180/193/193 138/151/151 123/133/133 
f 181/194/194 180/193/193 178/191/191 
f 178/191/191 179/192/192 181/194/194 
f 177/190/190 182/195/195 181/194/194 
f 181/194/194 179/192/192 177/190/190 
f 183/196/196 184/197/197 172/185/185 
f 172/185/185 170/183/183 183/196/196 
f 185/198/198 183/196/196 170/183/183 
f 170/183/183 168/181/181 185/198/198 
f 167/180/180 186/199/199 185/198/198 
f 185/198/198 168/181/181 167/180/180 
f 166/179/179 187/200/200 186/199/199 
f 186/199/199 167/180/180 166/179/179 
f 188/201/201 187/200/200 166/179/179 
f 166/179/179 165/178/178 188/201/201 
f 189/202/202 188/201/201 165/178/178 
f 165/178/178 130/143/143 189/202/202 
f 189/202/202 130/143/143 127/142/142 
f 127/142/142 140/203/203 189/202/202 
f 190/204/204 144/157/157 81/88/88 
f 81/88/88 97/104/104 190/204/204 
f 133/146/146 148/161/161 143/156/156 
f 143/156/156 136/149/149 133/146/146 
f 149/162/162 141/154/154 143/156/156 
f 143/156/156 147/160/160 149/162/162 
f 145/158/158 82/89/89 81/88/88 
f 81/88/88 144/157/157 145/158/158 
f 157/170/170 160/173/173 191/205/205 
f 191/205/205 150/163/163 157/170/170 
f 2/2/2 19/19/19 28/28/28 
f 35/35/35 21/21/21 27/27/27 
f 35/35/35 27/27/27 89/96/96 
f 27/27/27 26/26/26 89/96/96 
f 19/19/19 30/30/30 36/36/36 
f 36/36/36 35/35/35 89/96/96 
f 28/28/28 19/19/19 36/36/36 
f 36/36/36 89/96/96 28/28/28 
f 28/28/28 89/96/96 88/95/95 
f 45/45/45 39/39/39 38/38/38 
f 44/44/44 46/46/46 48/48/48 
f 55/55/55 49/49/49 53/53/53 
f 64/64/64 61/61/61 60/60/60 
f 77/83/83 72/74/74 78/85/85 
f 84/91/91 6/6/6 80/87/87 
f 95/102/102 88/95/95 87/94/94 
f 96/103/103 95/102/102 99/106/106 
f 99/106/106 97/104/104 96/103/103 
f 100/107/107 26/26/26 25/25/25 
f 101/108/108 100/107/107 25/25/25 
f 107/114/114 176/189/189 120/130/130 
f 107/114/114 105/112/112 176/189/189 
f 24/77/77 74/76/76 116/123/123 
f 116/123/123 114/125/125 24/77/77 
f 74/76/76 113/120/120 116/123/123 
f 118/127/127 111/118/118 119/129/129 
f 126/136/136 117/126/126 122/132/132 
f 119/129/129 117/126/126 126/136/136 
f 128/138/138 119/129/129 126/136/136 
f 7/7/7 6/6/6 10/10/10 
f 10/10/10 6/6/6 84/91/91 
f 134/147/147 190/204/204 97/104/104 
f 135/148/148 97/104/104 99/106/106 
f 135/148/148 99/106/106 98/105/105 
f 98/105/105 133/146/146 135/148/148 
f 151/164/164 147/160/160 146/159/159 
f 83/90/90 160/173/173 158/171/171 
f 165/178/178 164/177/177 130/143/143 
f 176/189/189 175/188/188 177/190/190 
f 176/189/189 177/190/190 179/192/192 
f 182/195/195 177/190/190 174/187/187 
f 182/195/195 174/187/187 192/206/206 
f 174/187/187 172/185/185 192/206/206 
f 172/185/185 184/197/197 192/206/206 
f 142/155/155 134/147/147 136/149/149 
f 144/157/157 190/204/204 142/155/155 
f 190/204/204 134/147/147 142/155/155 
f 135/148/148 133/146/146 136/149/149 
f 151/164/164 149/162/162 147/160/160 
f 145/158/158 83/90/90 82/89/89 
f 83/90/90 191/205/205 160/173/173 
f 83/90/90 145/158/158 191/205/205 
f 145/158/158 150/163/163 191/205/205 
f 137/207/207 138/208/208 193/209/209 
f 139/210/210 137/207/207 193/209/209 
f 140/211/211 139/210/210 193/209/209 
f 138/208/208 180/212/212 193/209/209 
f 180/212/212 181/213/213 193/209/209 
f 181/213/213 182/214/214 193/209/209 
f 184/215/215 183/216/216 193/209/209 
f 183/216/216 185/217/217 193/209/209 
f 185/217/217 186/218/218 193/209/209 
f 186/218/218 187/219/219 193/209/209 
f 187/219/219 188/220/220 193/209/209 
f 188/220/220 189/221/221 193/209/209 
f 189/221/221 140/211/211 193/209/209 
f 182/214/214 192/222/222 193/209/209 
f 192/222/222 184/215/215 193/209/209 
f 194/223/223 195/224/224 196/225/225 
f 196/225/225 197/226/226 194/223/223 
f 195/224/224 198/227/227 199/228/228 
f 199/228/228 196/225/225 195/224/224 
f 197/226/226 196/225/225 200/229/229 
f 200/229/229 201/230/230 197/226/226 
f 196/225/225 199/228/228 202/231/231 
f 202/231/231 200/229/229 196/225/225 
f 203/232/232 204/233/233 205/234/234 
f 205/234/234 206/235/235 203/232/232 
f 206/235/235 205/234/234 207/236/236 
f 207/236/236 208/237/237 206/235/235 
f 204/233/233 209/238/238 210/239/239 
f 210/239/239 205/234/234 204/233/233 
f 205/234/234 210/239/239 211/240/240 
f 211/240/240 207/236/236 205/234/234 
f 212/241/241 208/237/237 207/236/236 
f 207/236/236 213/242/242 212/241/241 
f 207/236/236 211/240/240 214/243/243 
f 214/243/243 213/242/242 207/236/236 
f 215/244/244 216/245/245 217/246/246 
f 217/246/246 218/247/247 215/244/244 
f 219/248/248 210/239/239 209/238/238 
f 209/238/238 220/249/249 219/248/248 
f 218/247/247 217/246/246 210/239/239 
f 210/239/239 219/248/248 218/247/247 
f 211/240/240 217/246/246 216/245/245 
f 216/245/245 214/243/243 211/240/240 
f 218/247/247 221/250/250 222/251/251 
f 222/251/251 215/244/244 218/247/247 
f 223/252/252 224/253/253 212/254/254 
f 212/254/254 213/255/255 223/252/252 
f 225/256/256 226/257/257 224/253/253 
f 224/253/253 223/252/252 225/256/256 
f 227/258/258 223/252/252 213/255/255 
f 213/255/255 214/259/259 227/258/258 
f 228/260/260 225/256/256 223/252/252 
f 223/252/252 227/258/258 228/260/260 
f 214/259/259 216/261/261 229/262/262 
f 229/262/262 227/258/258 214/259/259 
f 228/260/260 227/258/258 229/262/262 
f 229/262/262 230/263/263 228/260/260 
f 216/261/261 215/264/264 231/265/265 
f 231/265/265 229/262/262 216/261/261 
f 229/262/262 231/265/265 232/266/266 
f 232/266/266 230/263/263 229/262/262 
f 231/265/265 215/264/264 222/267/267 
f 222/267/267 233/268/268 231/265/265 
f 234/269/269 232/266/266 231/265/265 
f 231/265/265 233/268/268 234/269/269 
f 235/270/270 236/271/271 222/251/251 
f 222/251/251 221/250/250 235/270/270 
f 237/272/272 238/273/273 236/271/271 
f 236/271/271 235/270/270 237/272/272 
f 233/268/268 222/267/267 236/274/274 
f 236/274/274 239/275/275 233/268/268 
f 240/276/276 239/275/275 236/274/274 
f 236/274/274 238/277/277 240/276/276 
f 241/278/278 234/269/269 233/268/268 
f 233/268/268 239/275/275 241/278/278 
f 241/278/278 239/275/275 240/276/276 
f 240/276/276 242/279/279 241/278/278 
f 243/280/280 244/281/281 238/273/273 
f 238/273/273 237/272/272 243/280/280 
f 245/282/282 246/283/283 244/281/281 
f 244/281/281 243/280/280 245/282/282 
f 247/284/284 240/276/276 238/277/277 
f 238/277/277 244/285/285 247/284/284 
f 248/286/286 247/284/284 244/285/285 
f 244/285/285 246/287/287 248/286/286 
f 249/288/288 242/279/279 240/276/276 
f 240/276/276 247/284/284 249/288/288 
f 247/284/284 248/286/286 250/289/289 
f 250/289/289 249/288/288 247/284/284 
f 221/250/250 219/248/248 251/290/290 
f 251/290/290 235/270/270 221/250/250 
f 252/291/291 237/272/272 235/270/270 
f 235/270/270 251/290/290 252/291/291 
f 220/249/249 252/291/291 251/290/290 
f 251/290/290 219/248/248 220/249/249 
f 253/292/292 243/280/280 237/272/272 
f 237/272/272 252/291/291 253/292/292 
f 254/293/293 245/282/282 243/280/280 
f 243/280/280 253/292/292 254/293/293 
f 252/291/291 220/249/249 255/294/294 
f 255/294/294 253/292/292 252/291/291 
f 226/257/257 256/295/295 257/296/296 
f 257/296/296 224/253/253 226/257/257 
f 258/297/297 259/298/298 257/296/296 
f 257/296/296 256/295/295 258/297/297 
f 260/299/299 212/254/254 224/253/253 
f 224/253/253 257/296/296 260/299/299 
f 257/296/296 259/298/298 261/300/300 
f 261/300/300 260/299/299 257/296/296 
f 262/301/301 208/237/237 212/241/241 
f 212/241/241 260/302/302 262/301/301 
f 260/302/302 261/303/303 263/304/304 
f 263/304/304 262/301/301 260/302/302 
f 264/305/305 206/235/235 208/237/237 
f 208/237/237 262/301/301 264/305/305 
f 262/301/301 263/304/304 265/306/306 
f 265/306/306 264/305/305 262/301/301 
f 202/231/231 203/232/232 206/235/235 
f 206/235/235 264/305/305 202/231/231 
f 265/306/306 200/229/229 202/231/231 
f 202/231/231 264/305/305 265/306/306 
f 201/230/230 200/229/229 265/306/306 
f 265/306/306 266/307/307 201/230/230 
f 265/306/306 263/304/304 267/308/308 
f 267/308/308 266/307/307 265/306/306 
f 263/304/304 261/303/303 268/309/309 
f 268/309/309 267/308/308 263/304/304 
f 269/310/310 268/311/311 261/312/312 
f 261/312/312 259/313/313 269/310/310 
f 258/314/314 270/315/315 269/310/310 
f 269/310/310 259/313/313 258/314/314 
f 271/316/316 266/307/307 267/308/308 
f 267/308/308 272/317/317 271/316/316 
f 267/308/308 268/309/309 273/318/318 
f 273/318/318 272/317/317 267/308/308 
f 269/310/310 270/315/315 274/319/319 
f 274/319/319 273/320/320 269/310/310 
f 275/321/321 276/322/322 272/317/317 
f 272/317/317 273/318/318 275/321/321 
f 277/323/323 278/324/324 276/322/322 
f 276/322/322 275/321/321 277/323/323 
f 279/325/325 271/316/316 272/317/317 
f 272/317/317 276/322/322 279/325/325 
f 276/322/322 278/324/324 280/326/326 
f 280/326/326 279/325/325 276/322/322 
f 281/327/327 201/230/230 271/316/316 
f 271/316/316 279/325/325 281/327/327 
f 281/327/327 279/325/325 280/326/326 
f 280/326/326 282/328/328 281/327/327 
f 283/329/329 197/226/226 201/230/230 
f 201/230/230 281/327/327 283/329/329 
f 281/327/327 282/328/328 284/330/330 
f 284/330/330 283/329/329 281/327/327 
f 283/329/329 285/331/331 194/223/223 
f 194/223/223 197/226/226 283/329/329 
f 283/329/329 284/330/330 286/332/332 
f 286/332/332 285/331/331 283/329/329 
f 273/320/320 274/319/319 287/333/333 
f 287/333/333 275/334/334 273/320/320 
f 277/335/335 275/334/334 287/333/333 
f 287/333/333 288/336/336 277/335/335 
f 289/337/337 286/332/332 284/330/330 
f 284/330/330 290/338/338 289/337/337 
f 284/330/330 282/328/328 291/339/339 
f 291/339/339 290/338/338 284/330/330 
f 282/328/328 280/326/326 292/340/340 
f 292/340/340 291/339/339 282/328/328 
f 293/341/341 292/340/340 280/326/326 
f 280/326/326 278/324/324 293/341/341 
f 278/324/324 277/323/323 294/342/342 
f 294/342/342 293/341/341 278/324/324 
f 277/335/335 288/336/336 295/343/343 
f 295/343/343 294/344/344 277/335/335 
f 220/249/249 209/238/238 296/345/345 
f 296/345/345 255/294/294 220/249/249 
f 297/346/346 204/233/233 203/232/232 
f 203/232/232 298/347/347 297/346/346 
f 299/348/348 300/349/349 298/347/347 
f 298/347/347 203/232/232 299/348/348 
f 299/348/348 202/231/231 199/228/228 
f 199/228/228 301/350/350 299/348/348 
f 199/228/228 198/227/227 302/351/351 
f 302/351/351 301/350/350 199/228/228 
f 301/350/350 302/351/351 303/352/352 
f 303/352/352 304/353/353 301/350/350 
f 305/354/354 306/355/355 246/283/283 
f 246/283/283 245/282/282 305/354/354 
f 245/282/282 254/293/293 307/356/356 
f 307/356/356 305/354/354 245/282/282 
f 308/357/357 309/358/358 306/355/355 
f 306/355/355 305/354/354 308/357/357 
f 310/359/359 311/360/360 309/358/358 
f 309/358/358 308/357/357 310/359/359 
f 312/361/361 313/362/362 311/360/360 
f 311/360/360 310/359/359 312/361/361 
f 254/293/293 253/292/292 255/294/294 
f 255/294/294 314/363/363 254/293/293 
f 307/356/356 254/293/293 314/363/363 
f 314/363/363 315/364/364 307/356/356 
f 308/357/357 305/354/354 307/356/356 
f 307/356/356 315/364/364 308/357/357 
f 255/294/294 296/345/345 316/365/365 
f 316/365/365 314/363/363 255/294/294 
f 314/363/363 316/365/365 317/366/366 
f 317/366/366 315/364/364 314/363/363 
f 310/359/359 315/364/364 317/366/366 
f 317/366/366 312/361/361 310/359/359 
f 313/362/362 312/361/361 318/367/367 
f 318/367/367 319/368/368 313/362/362 
f 316/365/365 320/369/369 321/370/370 
f 321/370/370 317/366/366 316/365/365 
f 322/371/371 323/372/372 317/366/366 
f 317/366/366 321/370/370 322/371/371 
f 318/367/367 323/372/372 322/371/371 
f 322/371/371 324/373/373 318/367/367 
f 325/374/374 319/368/368 318/367/367 
f 318/367/367 324/373/373 325/374/374 
f 326/375/375 325/374/374 324/373/373 
f 324/373/373 327/376/376 326/375/375 
f 324/373/373 322/371/371 328/377/377 
f 328/377/377 327/376/376 324/373/373 
f 322/371/371 321/370/370 329/378/378 
f 329/378/378 328/377/377 322/371/371 
f 321/370/370 320/369/369 330/379/379 
f 330/379/379 329/378/378 321/370/370 
f 331/380/380 329/378/378 330/379/379 
f 330/379/379 332/381/381 331/380/380 
f 333/382/382 328/377/377 329/378/378 
f 329/378/378 331/380/380 333/382/382 
f 333/382/382 334/383/383 327/376/376 
f 327/376/376 328/377/377 333/382/382 
f 335/384/384 326/375/375 327/376/376 
f 327/376/376 334/383/383 335/384/384 
f 336/385/385 337/386/386 338/387/387 
f 338/387/387 339/388/388 336/385/385 
f 301/350/350 304/353/353 300/349/349 
f 300/349/349 299/348/348 301/350/350 
f 332/381/381 339/388/388 338/387/387 
f 338/387/387 331/380/380 332/381/381 
f 340/389/389 338/387/387 337/386/386 
f 337/386/386 341/390/390 340/389/389 
f 342/391/391 331/380/380 338/387/387 
f 338/387/387 340/389/389 342/391/391 
f 333/382/382 331/380/380 342/391/391 
f 342/391/391 343/392/392 333/382/382 
f 343/392/392 344/393/393 334/383/383 
f 334/383/383 333/382/382 343/392/392 
f 345/394/394 335/384/384 334/383/383 
f 334/383/383 344/393/393 345/394/394 
f 346/395/395 248/286/286 246/287/287 
f 246/287/287 306/396/396 346/395/395 
f 306/396/396 309/397/397 347/398/398 
f 347/398/398 346/395/395 306/396/396 
f 347/398/398 309/397/397 311/399/399 
f 311/399/399 348/400/400 347/398/398 
f 311/399/399 313/401/401 349/402/402 
f 349/402/402 348/400/400 311/399/399 
f 350/403/403 349/402/402 313/401/401 
f 313/401/401 319/404/404 350/403/403 
f 319/404/404 325/405/405 351/406/406 
f 351/406/406 350/403/403 319/404/404 
f 325/405/405 326/407/407 352/408/408 
f 352/408/408 351/406/406 325/405/405 
f 353/409/409 250/289/289 248/286/286 
f 248/286/286 346/395/395 353/409/409 
f 346/395/395 347/398/398 354/410/410 
f 354/410/410 353/409/409 346/395/395 
f 347/398/398 348/400/400 355/411/411 
f 355/411/411 354/410/410 347/398/398 
f 348/400/400 349/402/402 356/412/412 
f 356/412/412 355/411/411 348/400/400 
f 349/402/402 350/403/403 357/413/413 
f 357/413/413 356/412/412 349/402/402 
f 350/403/403 351/406/406 358/414/414 
f 358/414/414 357/413/413 350/403/403 
f 351/406/406 352/408/408 359/415/415 
f 359/415/415 358/414/414 351/406/406 
f 352/408/408 335/416/416 360/417/417 
f 360/417/417 359/415/415 352/408/408 
f 335/416/416 345/418/418 361/419/419 
f 361/419/419 360/417/417 335/416/416 
f 362/420/420 363/421/421 361/419/419 
f 361/419/419 345/418/418 362/420/420 
f 364/422/422 365/423/423 363/421/421 
f 363/421/421 362/420/420 364/422/422 
f 366/424/424 367/425/425 365/423/423 
f 365/423/423 364/422/422 366/424/424 
f 367/425/425 366/424/424 294/344/344 
f 294/344/344 295/343/343 367/425/425 
f 345/426/426 344/427/427 368/428/428 
f 368/428/428 362/429/429 345/426/426 
f 368/428/428 369/430/430 364/431/431 
f 364/431/431 362/429/429 368/428/428 
f 370/432/432 366/433/433 364/431/431 
f 364/431/431 369/430/430 370/432/432 
f 370/432/432 293/341/341 294/342/342 
f 294/342/342 366/433/433 370/432/432 
f 368/428/428 344/427/427 343/434/434 
f 343/434/434 371/435/435 368/428/428 
f 372/436/436 369/430/430 368/428/428 
f 368/428/428 371/435/435 372/436/436 
f 370/432/432 369/430/430 372/436/436 
f 372/436/436 373/437/437 370/432/432 
f 373/437/437 292/340/340 293/341/341 
f 293/341/341 370/432/432 373/437/437 
f 343/434/434 342/438/438 374/439/439 
f 374/439/439 371/435/435 343/434/434 
f 374/439/439 375/440/440 372/436/436 
f 372/436/436 371/435/435 374/439/439 
f 375/440/440 376/441/441 373/437/437 
f 373/437/437 372/436/436 375/440/440 
f 376/441/441 291/339/339 292/340/340 
f 292/340/340 373/437/437 376/441/441 
f 342/438/438 340/442/442 377/443/443 
f 377/443/443 374/439/439 342/438/438 
f 378/444/444 375/440/440 374/439/439 
f 374/439/439 377/443/443 378/444/444 
f 378/444/444 290/338/338 291/339/339 
f 291/339/339 376/441/441 378/444/444 
f 378/444/444 379/445/445 289/337/337 
f 289/337/337 290/338/338 378/444/444 
f 380/446/446 379/445/445 378/444/444 
f 378/444/444 377/443/443 380/446/446 
f 377/443/443 340/442/442 341/447/447 
f 341/447/447 380/446/446 377/443/443 
f 304/353/353 303/352/352 336/385/385 
f 336/385/385 339/388/388 304/353/353 
f 300/349/349 304/353/353 339/388/388 
f 339/388/388 332/381/381 300/349/349 
f 332/381/381 330/379/379 298/347/347 
f 298/347/347 300/349/349 332/381/381 
f 330/379/379 320/369/369 297/346/346 
f 297/346/346 298/347/347 330/379/379 
f 381/448/448 258/449/449 361/450/450 
f 361/450/450 382/451/451 381/448/448 
f 270/452/452 381/448/448 382/451/451 
f 382/451/451 363/453/453 270/452/452 
f 258/449/449 256/454/454 360/455/455 
f 360/455/455 361/450/450 258/449/449 
f 210/239/239 217/246/246 211/240/240 
f 219/248/248 221/250/250 218/247/247 
f 271/316/316 201/230/230 266/307/307 
f 269/310/310 273/320/320 268/311/311 
f 297/346/346 209/238/238 204/233/233 
f 209/238/238 297/346/346 296/345/345 
f 258/314/314 381/456/456 270/315/315 
f 308/357/357 315/364/364 310/359/359 
f 320/369/369 316/365/365 296/345/345 
f 317/366/366 323/372/372 312/361/361 
f 323/372/372 318/367/367 312/361/361 
f 352/408/408 326/407/407 335/416/416 
f 363/421/421 382/457/457 361/419/419 
f 375/440/440 378/444/444 376/441/441 
f 320/369/369 296/345/345 297/346/346 
f 202/231/231 299/348/348 203/232/232 
f 226/458/458 225/459/459 359/460/460 
f 226/458/458 360/455/455 256/454/454 
f 226/458/458 359/460/460 360/455/455 
f 359/460/460 225/459/459 358/461/461 
f 358/461/461 225/459/459 228/462/462 
f 358/461/461 228/462/462 357/463/463 
f 357/463/463 228/462/462 230/464/464 
f 357/463/463 230/464/464 356/465/465 
f 356/465/465 230/464/464 232/466/466 
f 356/465/465 232/466/466 355/467/467 
f 355/467/467 232/466/466 234/468/468 
f 355/467/467 234/468/468 354/469/469 
f 354/469/469 234/468/468 241/470/470 
f 354/469/469 241/470/470 353/471/471 
f 353/471/471 241/470/470 242/472/472 
f 353/471/471 242/472/472 250/473/473 
f 250/473/473 242/472/472 249/474/474 
f 270/452/452 363/453/453 365/475/475 
f 274/476/476 365/475/475 367/477/477 
f 270/452/452 365/475/475 274/476/476 
f 274/476/476 367/477/477 287/478/478 
f 287/478/478 367/477/477 295/479/479 
f 287/478/478 295/479/479 288/480/480 
# 0 polygons - 731 triangles

