# 3ds Max Wavefront OBJ Exporter v0.99 - (c)2007 guruware
# File Created: 10.05.2025 14:20:49

mtllib Alumno2RightLeg.mtl

#
# object Alumno2RightLeg
#

v  -0.0137 -0.0073 0.0918
v  -0.0215 -0.0803 0.0734
v  0.0012 -0.0649 0.0288
v  0.0154 0.0127 0.0389
v  -0.1656 0.0348 -0.1120
v  -0.1538 -0.0376 -0.1161
v  -0.2049 -0.0463 -0.0993
v  -0.2152 0.0254 -0.0925
v  -0.2427 -0.0569 -0.0586
v  -0.2500 0.0144 -0.0547
v  0.0113 -0.0428 -0.0046
v  0.0223 0.0238 0.0004
v  -0.0150 -0.0336 -0.0541
v  -0.0089 0.0353 -0.0548
v  -0.0655 0.0467 -0.0952
v  -0.0682 -0.0190 -0.0963
v  0.0063 -0.2634 0.0199
v  0.0166 -0.3017 0.0080
v  0.0150 -0.3017 -0.0358
v  0.0132 -0.2460 -0.0278
v  -0.0434 -0.2239 -0.0967
v  -0.0360 -0.2853 -0.0943
v  -0.0559 -0.2993 -0.1365
v  -0.0693 -0.2442 -0.1315
v  -0.0027 -0.3047 -0.0638
v  -0.0072 -0.2458 -0.0622
v  -0.0248 -0.3155 -0.0910
v  -0.0033 -0.3457 -0.0865
v  -0.0201 -0.3601 -0.1043
v  -0.0359 -0.3229 -0.1078
v  0.0131 -0.3780 -0.0774
v  -0.0045 -0.3917 -0.0966
v  0.0226 -0.3945 -0.0638
v  0.0047 -0.4172 -0.0827
v  0.0311 -0.3635 -0.0562
v  -0.1066 -0.3169 -0.1337
v  -0.1214 -0.2502 -0.1300
v  -0.1553 -0.3334 -0.1177
v  -0.1619 -0.2591 -0.1087
v  -0.2006 -0.3466 -0.0898
v  -0.2115 -0.2689 -0.0815
v  -0.1467 -0.3725 -0.1320
v  -0.1967 -0.3820 -0.1053
v  -0.1324 -0.4070 -0.1373
v  -0.1840 -0.4190 -0.1101
v  -0.0445 -0.3359 -0.1365
v  -0.0866 -0.3480 -0.1362
v  -0.0287 -0.3679 -0.1321
v  -0.0754 -0.3940 -0.1399
v  -0.0021 -0.1607 0.0190
v  -0.0313 -0.1830 0.0590
v  -0.0063 -0.2690 0.0624
v  0.0070 -0.1436 -0.0180
v  -0.0187 -0.1392 -0.0559
v  -0.0576 -0.1216 -0.0956
v  -0.0925 -0.1298 -0.1235
v  -0.1109 -0.0261 -0.1130
v  -0.1350 -0.1424 -0.1257
v  -0.1846 -0.1536 -0.1033
v  -0.2284 -0.1634 -0.0696
v  0.0240 -0.3964 -0.0342
v  0.0232 -0.4218 -0.0233
v  0.0254 -0.3730 -0.0264
v  0.0161 -0.3713 0.0096
v  0.0175 -0.4034 -0.0002
v  0.0291 -0.3348 -0.0438
v  0.0020 -0.3499 -0.0002
v  -0.0183 -0.3290 0.0539
v  0.0126 -0.3265 0.0092
v  -0.0207 -0.3585 0.0473
v  -0.0037 -0.3829 0.0397
v  0.0127 -0.4148 0.0141
v  -0.0276 -0.4068 0.0551
v  -0.0093 -0.4014 -0.1249
v  -0.2496 -0.2733 -0.0345
v  -0.2561 -0.1690 -0.0213
v  -0.2322 -0.3928 -0.0497
v  -0.2346 -0.3475 -0.0434
v  -0.2205 -0.4008 -0.0076
v  -0.2180 -0.3514 -0.0021
v  -0.2351 -0.2748 0.0144
v  -0.2430 -0.1737 0.0357
v  -0.2069 -0.2748 0.0505
v  -0.2161 -0.1718 0.0705
v  -0.1660 -0.2794 0.0798
v  -0.1702 -0.1774 0.0958
v  -0.1887 -0.3490 0.0333
v  -0.1920 -0.4074 0.0429
v  -0.1548 -0.3420 0.0805
v  -0.1379 -0.3941 0.0820
v  -0.0528 -0.3728 0.0705
v  -0.0940 -0.3870 0.0804
v  -0.0824 -0.4225 0.0720
v  -0.0562 -0.3410 0.0779
v  -0.1102 -0.3385 0.0928
v  -0.0507 -0.2853 0.0849
v  -0.1090 -0.2848 0.0946
v  -0.1217 -0.1797 0.1128
v  -0.0660 -0.1878 0.1085
v  -0.2607 -0.0668 -0.0145
v  -0.2528 -0.0743 0.0411
v  -0.2314 -0.0768 0.0783
v  -0.1907 -0.0860 0.1094
v  -0.0704 -0.1050 0.1221
v  -0.1255 -0.0979 0.1277
v  -0.2655 0.0009 -0.0050
v  -0.2634 -0.0079 0.0415
v  -0.2544 -0.0121 0.0819
v  -0.1329 -0.0244 0.1358
v  -0.1825 -0.0271 0.1308
v  -0.2159 -0.0196 0.1165
v  -0.0718 -0.0231 0.1294
# 112 vertices

vn 0.7207 -0.4007 0.5658
vn 0.8054 -0.1499 0.5734
vn 0.9398 -0.1331 0.3148
vn 0.9188 -0.3424 0.1963
vn -0.2027 0.0555 -0.9777
vn -0.1479 0.0305 -0.9885
vn -0.5315 -0.0232 -0.8468
vn -0.5775 0.0257 -0.8160
vn -0.8340 -0.0437 -0.5501
vn -0.8627 -0.0072 -0.5056
vn 0.9834 -0.0980 -0.1529
vn 0.9540 -0.1954 -0.2275
vn 0.7651 -0.0178 -0.6437
vn 0.7176 -0.1058 -0.6884
vn 0.4380 0.0014 -0.8990
vn 0.5060 0.0409 -0.8616
vn 0.9564 0.1499 0.2505
vn 0.9710 0.0789 0.2258
vn 0.9220 0.2768 -0.2708
vn 0.9817 0.0777 -0.1738
vn 0.7507 0.1171 -0.6502
vn 0.7961 0.1186 -0.5934
vn 0.4534 0.1281 -0.8820
vn 0.3646 0.1394 -0.9207
vn 0.7463 0.2313 -0.6241
vn 0.7867 0.0956 -0.6099
vn 0.7095 0.2594 -0.6552
vn 0.6649 0.2530 -0.7028
vn 0.7825 0.2975 -0.5470
vn 0.8273 0.2593 -0.4983
vn 0.8623 0.2165 -0.4577
vn 0.8519 0.2426 -0.4642
vn 0.9112 -0.0859 -0.4029
vn 0.9085 0.3012 -0.2897
vn 0.9594 0.0655 -0.2744
vn -0.1595 0.0474 -0.9861
vn -0.2439 0.0291 -0.9694
vn -0.4606 0.1422 -0.8761
vn -0.4741 0.0046 -0.8805
vn -0.6924 0.1192 -0.7116
vn -0.6500 -0.0353 -0.7591
vn -0.3349 0.0932 -0.9376
vn -0.6819 0.0262 -0.7310
vn -0.2643 0.1258 -0.9562
vn -0.6674 0.0185 -0.7445
vn 0.4970 0.1873 -0.8473
vn -0.0541 0.0567 -0.9969
vn 0.5980 0.2140 -0.7724
vn -0.0075 0.1284 -0.9917
vn 0.9208 -0.0237 0.3893
vn 0.8188 0.0471 0.5721
vn 0.7857 0.0076 0.6186
vn 0.9851 0.0188 -0.1708
vn 0.7787 0.0543 -0.6250
vn 0.6656 0.0779 -0.7422
vn 0.3041 0.1103 -0.9462
vn 0.1985 0.0720 -0.9775
vn -0.1924 0.0306 -0.9808
vn -0.4912 -0.0372 -0.8703
vn -0.7497 -0.0372 -0.6608
vn 0.9939 -0.0884 0.0661
vn 0.9864 0.1529 0.0604
vn 0.9537 0.1870 0.2356
vn 0.8372 0.3201 0.4435
vn 0.9506 -0.0197 0.3097
vn 0.9821 0.1480 -0.1164
vn 0.9112 0.0035 0.4120
vn 0.6924 -0.2013 0.6929
vn 0.8723 -0.2910 0.3930
vn 0.7249 -0.0182 0.6886
vn 0.7304 0.1015 0.6754
vn 0.8447 -0.0700 0.5307
vn 0.5227 -0.1431 0.8404
vn 0.6958 0.2145 -0.6855
vn -0.9750 -0.1216 -0.1861
vn -0.9881 -0.0662 -0.1392
vn -0.9787 -0.1320 -0.1573
vn -0.9849 -0.1030 -0.1389
vn -0.9126 -0.1563 0.3779
vn -0.8562 -0.1645 0.4898
vn -0.8731 -0.2077 0.4412
vn -0.8941 -0.1487 0.4224
vn -0.6730 -0.2424 0.6988
vn -0.6485 -0.1993 0.7347
vn -0.4762 -0.1668 0.8634
vn -0.4178 -0.1996 0.8864
vn -0.7837 -0.0848 0.6154
vn -0.7529 -0.1253 0.6460
vn -0.5349 -0.0650 0.8424
vn -0.2770 -0.2750 0.9207
vn 0.4078 -0.1376 0.9026
vn 0.2963 -0.1497 0.9433
vn 0.3200 -0.1032 0.9418
vn 0.0305 -0.2636 0.9641
vn 0.0689 -0.2165 0.9738
vn 0.3922 -0.1471 0.9081
vn -0.1884 -0.0829 0.9786
vn 0.2665 -0.0925 0.9594
vn 0.3500 -0.1648 0.9221
vn -0.2592 -0.1053 0.9601
vn 0.1866 -0.1204 0.9750
vn -0.3152 -0.1854 0.9307
vn 0.4385 -0.1015 0.8930
vn 0.0650 -0.1872 0.9802
vn -0.9901 -0.0537 -0.1299
vn -0.9470 -0.1468 0.2857
vn -0.7431 -0.2353 0.6265
vn -0.4431 -0.2276 0.8671
vn 0.4417 -0.1202 0.8891
vn -0.2943 -0.1623 0.9418
vn 0.0793 -0.1285 0.9885
vn -0.9764 -0.1130 -0.1840
vn -0.9583 -0.2777 0.0681
vn -0.8119 -0.4060 0.4195
vn -0.1434 -0.2291 0.9628
vn -0.2363 -0.2812 0.9301
vn -0.5133 -0.3667 0.7759
vn 0.3451 -0.2175 0.9130
vn 0.1029 -0.1368 0.9852
# 119 vertex normals

vt 0.0468 0.7977 0.0000
vt 0.0488 0.7587 0.0000
vt 0.0620 0.7633 0.0000
vt 0.0623 0.8048 0.0000
vt 0.1278 0.8027 0.0000
vt 0.1253 0.7664 0.0000
vt 0.1387 0.7642 0.0000
vt 0.1405 0.8005 0.0000
vt 0.1525 0.7616 0.0000
vt 0.1531 0.7985 0.0000
vt 0.0715 0.7721 0.0000
vt 0.0721 0.8075 0.0000
vt 0.0860 0.7725 0.0000
vt 0.0876 0.8069 0.0000
vt 0.1042 0.8091 0.0000
vt 0.1035 0.7761 0.0000
vt 0.0601 0.6622 0.0000
vt 0.0622 0.6426 0.0000
vt 0.0727 0.6393 0.0000
vt 0.0725 0.6671 0.0000
vt 0.0957 0.6723 0.0000
vt 0.0929 0.6424 0.0000
vt 0.1039 0.6337 0.0000
vt 0.1060 0.6595 0.0000
vt 0.0814 0.6364 0.0000
vt 0.0826 0.6650 0.0000
vt 0.0900 0.6292 0.0000
vt 0.0855 0.6152 0.0000
vt 0.0910 0.6080 0.0000
vt 0.0947 0.6247 0.0000
vt 0.0801 0.6014 0.0000
vt 0.0862 0.5939 0.0000
vt 0.0755 0.5950 0.0000
vt 0.0812 0.5831 0.0000
vt 0.0742 0.6091 0.0000
vt 0.1165 0.6264 0.0000
vt 0.1193 0.6575 0.0000
vt 0.1293 0.6190 0.0000
vt 0.1306 0.6543 0.0000
vt 0.1427 0.6142 0.0000
vt 0.1446 0.6516 0.0000
vt 0.1266 0.5998 0.0000
vt 0.1401 0.5958 0.0000
vt 0.1234 0.5835 0.0000
vt 0.1382 0.5770 0.0000
vt 0.1014 0.6166 0.0000
vt 0.1117 0.6112 0.0000
vt 0.0976 0.6015 0.0000
vt 0.1092 0.5889 0.0000
vt 0.0618 0.7135 0.0000
vt 0.0484 0.7053 0.0000
vt 0.0493 0.6619 0.0000
vt 0.0724 0.7192 0.0000
vt 0.0845 0.7187 0.0000
vt 0.0992 0.7246 0.0000
vt 0.1104 0.7186 0.0000
vt 0.1146 0.7715 0.0000
vt 0.1212 0.7129 0.0000
vt 0.1350 0.7092 0.0000
vt 0.1489 0.7066 0.0000
vt 0.0681 0.5953 0.0000
vt 0.0644 0.5837 0.0000
vt 0.0670 0.6068 0.0000
vt 0.0580 0.6084 0.0000
vt 0.0593 0.5936 0.0000
vt 0.0728 0.6222 0.0000
vt 0.0596 0.6200 0.0000
vt 0.0466 0.6334 0.0000
vt 0.0602 0.6317 0.0000
vt 0.0462 0.6198 0.0000
vt 0.0492 0.6070 0.0000
vt 0.0549 0.5900 0.0000
vt 0.0415 0.5993 0.0000
vt 0.0925 0.5857 0.0000
vt 0.1593 0.6519 0.0000
vt 0.1625 0.7056 0.0000
vt 0.1558 0.5943 0.0000
vt 0.1571 0.6161 0.0000
vt 0.1656 0.5901 0.0000
vt 0.1682 0.6131 0.0000
vt 0.1715 0.6510 0.0000
vt 0.1769 0.7037 0.0000
vt 0.1826 0.6486 0.0000
vt 0.1876 0.7026 0.0000
vt 0.1945 0.6422 0.0000
vt 0.2001 0.6950 0.0000
vt 0.1797 0.6115 0.0000
vt 0.1788 0.5843 0.0000
vt 0.1941 0.6112 0.0000
vt 0.1951 0.5856 0.0000
vt 0.0357 0.6165 0.0000
vt 0.0246 0.6121 0.0000
vt 0.0268 0.5963 0.0000
vt 0.2055 0.5633 0.0000
vt 0.2058 0.5820 0.0000
vt 0.0352 0.6317 0.0000
vt 0.2055 0.6084 0.0000
vt 0.0213 0.6348 0.0000
vt 0.0373 0.6573 0.0000
vt 0.2088 0.6344 0.0000
vt 0.0225 0.6586 0.0000
vt 0.2124 0.6883 0.0000
vt 0.0331 0.7059 0.0000
vt 0.0191 0.7098 0.0000
vt 0.1645 0.7588 0.0000
vt 0.1786 0.7560 0.0000
vt 0.1893 0.7534 0.0000
vt 0.2016 0.7446 0.0000
vt 0.0312 0.7481 0.0000
vt 0.2172 0.7292 0.0000
vt 0.0173 0.7503 0.0000
vt 0.1662 0.7952 0.0000
vt 0.1781 0.7920 0.0000
vt 0.1884 0.7904 0.0000
vt 0.2215 0.7648 0.0000
vt 0.2095 0.7727 0.0000
vt 0.2012 0.7820 0.0000
vt 0.0293 0.7893 0.0000
vt 0.0138 0.7860 0.0000
# 119 texture coords

o Alumno2RightLeg
g Alumno2RightLeg
usemtl mat_1_Doctor_body_d_jpg
s 1
f 1/1/1 2/2/2 3/3/3 
f 3/3/3 4/4/4 1/1/1 
f 5/5/5 6/6/6 7/7/7 
f 7/7/7 8/8/8 5/5/5 
f 8/8/8 7/7/7 9/9/9 
f 9/9/9 10/10/10 8/8/8 
f 4/4/4 3/3/3 11/11/11 
f 11/11/11 12/12/12 4/4/4 
f 11/11/11 13/13/13 14/14/14 
f 14/14/14 12/12/12 11/11/11 
f 15/15/15 14/14/14 13/13/13 
f 13/13/13 16/16/16 15/15/15 
f 17/17/17 18/18/18 19/19/19 
f 19/19/19 20/20/20 17/17/17 
f 21/21/21 22/22/22 23/23/23 
f 23/23/23 24/24/24 21/21/21 
f 19/19/19 25/25/25 26/26/26 
f 26/26/26 20/20/20 19/19/19 
f 27/27/27 28/28/28 29/29/29 
f 29/29/29 30/30/30 27/27/27 
f 28/28/28 31/31/31 32/32/32 
f 32/32/32 29/29/29 28/28/28 
f 31/31/31 33/33/33 34/34/34 
f 34/34/34 32/32/32 31/31/31 
f 28/28/28 35/35/35 33/33/33 
f 33/33/33 31/31/31 28/28/28 
f 21/21/21 26/26/26 25/25/25 
f 25/25/25 22/22/22 21/21/21 
f 24/24/24 23/23/23 36/36/36 
f 36/36/36 37/37/37 24/24/24 
f 37/37/37 36/36/36 38/38/38 
f 38/38/38 39/39/39 37/37/37 
f 39/39/39 38/38/38 40/40/40 
f 40/40/40 41/41/41 39/39/39 
f 38/38/38 42/42/42 43/43/43 
f 43/43/43 40/40/40 38/38/38 
f 43/43/43 42/42/42 44/44/44 
f 44/44/44 45/45/45 43/43/43 
f 46/46/46 47/47/47 36/36/36 
f 36/36/36 23/23/23 46/46/46 
f 36/36/36 47/47/47 42/42/42 
f 42/42/42 38/38/38 36/36/36 
f 30/30/30 29/29/29 48/48/48 
f 48/48/48 46/46/46 30/30/30 
f 46/46/46 48/48/48 49/49/49 
f 49/49/49 47/47/47 46/46/46 
f 42/42/42 47/47/47 49/49/49 
f 49/49/49 44/44/44 42/42/42 
f 17/17/17 50/50/50 51/51/51 
f 51/51/51 52/52/52 17/17/17 
f 2/2/2 51/51/51 50/50/50 
f 50/50/50 3/3/3 2/2/2 
f 20/20/20 53/53/53 50/50/50 
f 50/50/50 17/17/17 20/20/20 
f 3/3/3 50/50/50 53/53/53 
f 53/53/53 11/11/11 3/3/3 
f 26/26/26 54/54/54 53/53/53 
f 53/53/53 20/20/20 26/26/26 
f 21/21/21 55/55/55 54/54/54 
f 54/54/54 26/26/26 21/21/21 
f 53/53/53 54/54/54 13/13/13 
f 13/13/13 11/11/11 53/53/53 
f 13/13/13 54/54/54 55/55/55 
f 55/55/55 16/16/16 13/13/13 
f 24/24/24 56/56/56 55/55/55 
f 55/55/55 21/21/21 24/24/24 
f 16/16/16 55/55/55 56/56/56 
f 56/56/56 57/57/57 16/16/16 
f 37/37/37 58/58/58 56/56/56 
f 56/56/56 24/24/24 37/37/37 
f 57/57/57 56/56/56 58/58/58 
f 58/58/58 6/6/6 57/57/57 
f 39/39/39 59/59/59 58/58/58 
f 58/58/58 37/37/37 39/39/39 
f 6/6/6 58/58/58 59/59/59 
f 59/59/59 7/7/7 6/6/6 
f 41/41/41 60/60/60 59/59/59 
f 59/59/59 39/39/39 41/41/41 
f 7/7/7 59/59/59 60/60/60 
f 60/60/60 9/9/9 7/7/7 
f 33/33/33 61/61/61 62/62/62 
f 35/35/35 63/63/63 61/61/61 
f 61/61/61 33/33/33 35/35/35 
f 63/63/63 64/64/64 65/65/65 
f 65/65/65 61/61/61 63/63/63 
f 35/35/35 66/66/66 67/67/67 
f 67/67/67 63/63/63 35/35/35 
f 52/52/52 68/68/68 69/69/69 
f 69/69/69 18/18/18 52/52/52 
f 18/18/18 69/69/69 66/66/66 
f 66/66/66 19/19/19 18/18/18 
f 69/69/69 68/68/68 70/70/70 
f 70/70/70 67/67/67 69/69/69 
f 67/67/67 70/70/70 71/71/71 
f 71/71/71 64/64/64 67/67/67 
f 71/71/71 72/72/72 65/65/65 
f 65/65/65 64/64/64 71/71/71 
f 62/62/62 65/65/65 72/72/72 
f 72/72/72 71/71/71 73/73/73 
f 29/29/29 32/32/32 74/74/74 
f 74/74/74 48/48/48 29/29/29 
f 60/60/60 41/41/41 75/75/75 
f 75/75/75 76/76/76 60/60/60 
f 77/77/77 43/43/43 45/45/45 
f 43/43/43 77/77/77 78/78/78 
f 78/78/78 40/40/40 43/43/43 
f 41/41/41 40/40/40 78/78/78 
f 78/78/78 75/75/75 41/41/41 
f 77/77/77 79/79/79 80/80/80 
f 80/80/80 78/78/78 77/77/77 
f 76/76/76 75/75/75 81/81/81 
f 81/81/81 82/82/82 76/76/76 
f 78/78/78 80/80/80 81/81/81 
f 81/81/81 75/75/75 78/78/78 
f 81/81/81 83/83/83 84/84/84 
f 84/84/84 82/82/82 81/81/81 
f 83/83/83 85/85/85 86/86/86 
f 86/86/86 84/84/84 83/83/83 
f 80/80/80 87/87/87 83/83/83 
f 83/83/83 81/81/81 80/80/80 
f 79/79/79 88/88/88 87/87/87 
f 87/87/87 80/80/80 79/79/79 
f 87/87/87 89/89/89 85/85/85 
f 85/85/85 83/83/83 87/87/87 
f 88/88/88 90/90/90 89/89/89 
f 89/89/89 87/87/87 88/88/88 
f 71/71/71 70/70/70 91/91/91 
f 91/91/91 73/73/73 71/71/71 
f 73/73/73 91/91/91 92/92/92 
f 92/92/92 93/93/93 73/73/73 
f 93/94/94 92/95/95 90/90/90 
f 68/68/68 94/96/96 91/91/91 
f 91/91/91 70/70/70 68/68/68 
f 90/90/90 92/95/95 95/97/97 
f 95/97/97 89/89/89 90/90/90 
f 91/91/91 94/96/96 95/98/98 
f 95/98/98 92/92/92 91/91/91 
f 68/68/68 52/52/52 96/99/99 
f 96/99/99 94/96/96 68/68/68 
f 95/97/97 97/100/100 85/85/85 
f 85/85/85 89/89/89 95/97/97 
f 94/96/96 96/99/99 97/101/101 
f 97/101/101 95/98/98 94/96/96 
f 85/85/85 97/100/100 98/102/102 
f 98/102/102 86/86/86 85/85/85 
f 52/52/52 51/51/51 99/103/103 
f 99/103/103 96/99/99 52/52/52 
f 96/99/99 99/103/103 98/104/104 
f 98/104/104 97/101/101 96/99/99 
f 76/76/76 100/105/105 9/9/9 
f 9/9/9 60/60/60 76/76/76 
f 76/76/76 82/82/82 101/106/106 
f 101/106/106 100/105/105 76/76/76 
f 82/82/82 84/84/84 102/107/107 
f 102/107/107 101/106/106 82/82/82 
f 84/84/84 86/86/86 103/108/108 
f 103/108/108 102/107/107 84/84/84 
f 51/51/51 2/2/2 104/109/109 
f 104/109/109 99/103/103 51/51/51 
f 98/102/102 105/110/110 103/108/108 
f 103/108/108 86/86/86 98/102/102 
f 99/103/103 104/109/109 105/111/111 
f 105/111/111 98/104/104 99/103/103 
f 100/105/105 106/112/112 10/10/10 
f 10/10/10 9/9/9 100/105/105 
f 101/106/106 107/113/113 106/112/112 
f 106/112/112 100/105/105 101/106/106 
f 101/106/106 102/107/107 108/114/114 
f 108/114/114 107/113/113 101/106/106 
f 103/108/108 105/110/110 109/115/115 
f 109/115/115 110/116/116 103/108/108 
f 102/107/107 103/108/108 111/117/117 
f 111/117/117 108/114/114 102/107/107 
f 104/109/109 112/118/118 109/119/119 
f 109/119/119 105/111/111 104/109/109 
f 2/2/2 1/1/1 112/118/118 
f 112/118/118 104/109/109 2/2/2 
f 17/17/17 52/52/52 18/18/18 
f 23/23/23 22/22/22 30/30/30 
f 22/22/22 27/27/27 30/30/30 
f 27/27/27 22/22/22 25/25/25 
f 25/25/25 28/28/28 27/27/27 
f 66/66/66 35/35/35 28/28/28 
f 23/23/23 30/30/30 46/46/46 
f 65/65/65 62/62/62 61/61/61 
f 25/25/25 19/19/19 66/66/66 
f 66/66/66 28/28/28 25/25/25 
f 67/67/67 66/66/66 69/69/69 
f 64/64/64 63/63/63 67/67/67 
f 110/116/116 111/117/117 103/108/108 
# 0 polygons - 190 triangles

