# 3ds Max Wavefront OBJ Exporter v0.99 - (c)2007 guruware
# File Created: 10.05.2025 14:15:11

mtllib Alumno2LeftLeg.mtl

#
# object Alumno2LeftLeg
#

v  -0.2251 0.0213 0.1155
v  -0.2151 -0.0505 0.1224
v  -0.1626 -0.0403 0.1388
v  -0.2607 0.0100 0.0792
v  -0.2538 -0.0615 0.0793
v  -0.0026 -0.0562 0.0085
v  -0.0295 -0.0365 0.0734
v  -0.0325 -0.1439 0.0743
v  -0.0040 -0.1559 0.0210
v  -0.0751 -0.0237 0.1157
v  -0.0672 -0.1275 0.1165
v  -0.1193 -0.0303 0.1337
v  -0.1044 -0.1350 0.1437
v  -0.1442 -0.1472 0.1535
v  -0.1978 -0.1589 0.1242
v  -0.2348 -0.1674 0.0896
v  -0.2693 -0.0710 0.0350
v  -0.2608 -0.1736 0.0404
v  -0.2608 -0.0786 -0.0228
v  -0.2542 -0.1787 -0.0153
v  -0.2402 -0.0808 -0.0575
v  -0.2273 -0.1772 -0.0521
v  -0.1999 -0.0910 -0.0901
v  -0.1785 -0.1812 -0.0739
v  -0.2759 -0.0035 0.0267
v  -0.2715 -0.0122 -0.0197
v  -0.2613 -0.0148 -0.0581
v  -0.2265 -0.0261 -0.0993
v  -0.0353 -0.1330 -0.0595
v  -0.0519 -0.1749 -0.0461
v  -0.0800 -0.1069 -0.0938
v  -0.0506 -0.0971 -0.0886
v  -0.1176 -0.1041 -0.1049
v  -0.1301 -0.1825 -0.0876
v  -0.1241 -0.0256 -0.1182
v  -0.0777 -0.0581 -0.1073
v  -0.0404 -0.0893 -0.0696
v  -0.0028 -0.0621 -0.0322
v  -0.0188 -0.1625 -0.0179
v  0.0152 0.0364 0.0138
v  -0.0191 0.0318 0.0748
v  0.0020 -0.0220 -0.0361
v  -0.0310 -0.0221 -0.0754
v  -0.0751 -0.0168 -0.1136
v  -0.2139 -0.2818 -0.0277
v  -0.2435 -0.2812 0.0066
v  -0.1720 -0.2827 -0.0559
v  -0.1868 -0.3298 -0.0366
v  -0.2260 -0.3260 0.0103
v  -0.1910 -0.3830 -0.0266
v  -0.2200 -0.3840 0.0143
v  -0.1619 -0.3402 -0.0616
v  -0.1669 -0.4048 -0.0516
v  -0.1170 -0.2881 -0.0692
v  -0.1261 -0.3455 -0.0626
v  -0.1414 -0.4163 -0.0490
v  -0.2184 -0.2765 0.1015
v  -0.1687 -0.2670 0.1307
v  -0.2535 -0.2808 0.0538
v  -0.2490 -0.3266 0.0582
v  -0.2222 -0.3209 0.1030
v  -0.1656 -0.3070 0.1336
v  -0.2412 -0.3796 0.0678
v  -0.2165 -0.3727 0.1087
v  -0.1618 -0.3587 0.1405
v  -0.1525 -0.4040 0.1463
v  -0.1171 -0.2509 0.1571
v  -0.0940 -0.2468 0.1527
v  -0.1138 -0.2986 0.1473
v  -0.0890 -0.2941 0.1574
v  -0.1007 -0.3535 0.1558
v  -0.0648 -0.3413 0.1569
v  -0.0442 -0.3205 0.1486
v  -0.0748 -0.2865 0.1546
v  -0.0120 -0.3456 0.1315
v  -0.0111 -0.3654 0.1424
v  -0.0879 -0.4035 0.1569
v  -0.0444 -0.3964 0.1570
v  -0.0124 -0.4028 0.1448
v  0.0137 -0.3750 0.1082
v  0.0048 -0.3500 0.1014
v  0.0134 -0.4115 0.1226
v  0.0374 -0.4216 0.0760
v  0.0254 -0.3786 0.0630
v  0.0051 -0.3885 0.0282
v  -0.0048 -0.3678 0.0234
v  0.0157 -0.3605 0.0576
v  -0.0151 -0.4142 -0.0138
v  -0.0223 -0.3811 -0.0192
v  0.0005 -0.3440 0.0180
v  0.0198 -0.3434 0.0534
v  -0.0100 -0.2665 -0.0083
v  -0.0365 -0.2388 -0.0530
v  0.0019 -0.3223 0.0116
v  0.0130 -0.3243 0.0483
v  0.0117 -0.2581 0.0320
v  -0.0020 -0.2929 0.0018
v  0.0113 -0.2898 0.0401
v  -0.0128 -0.3231 0.0898
v  -0.0250 -0.3220 0.1079
v  -0.0030 -0.2896 0.0778
v  -0.0414 -0.3031 0.1208
v  -0.0669 -0.2724 0.1367
v  -0.0183 -0.2534 0.0824
v  -0.0498 -0.2325 0.1196
v  -0.0191 -0.2800 0.1054
v  -0.0530 -0.2549 0.1281
v  -0.0249 -0.3412 -0.0258
v  -0.0623 -0.2898 -0.0583
v  -0.0696 -0.3461 -0.0452
v  -0.0300 -0.2809 -0.0363
v  -0.0770 -0.1904 -0.0824
v  -0.0190 -0.3183 -0.0288
v  -0.0258 -0.2995 -0.0337
v  -0.0777 -0.3997 -0.0362
v  -0.1716 -0.0288 -0.1107
# 116 vertices

vn -0.5280 0.0473 0.8479
vn -0.5452 -0.0190 0.8381
vn -0.1059 0.0959 0.9897
vn -0.8551 -0.0307 0.5176
vn -0.8520 -0.0910 0.5156
vn 0.9753 -0.0841 0.2044
vn 0.8049 -0.0781 0.5883
vn 0.8401 0.0899 0.5349
vn 0.9954 0.0431 0.0854
vn 0.5108 0.0061 0.8597
vn 0.6718 0.1116 0.7322
vn 0.2388 0.0936 0.9665
vn 0.3857 0.1339 0.9128
vn -0.1343 0.0389 0.9902
vn -0.5714 -0.0601 0.8185
vn -0.7939 -0.0567 0.6054
vn -0.9862 -0.0965 0.1346
vn -0.9784 -0.0704 0.1945
vn -0.9337 -0.1191 -0.3378
vn -0.9147 -0.1353 -0.3807
vn -0.7549 -0.1945 -0.6263
vn -0.6195 -0.1783 -0.7645
vn -0.4435 -0.2618 -0.8572
vn -0.3588 -0.1999 -0.9118
vn -0.9850 -0.1064 0.1357
vn -0.9637 -0.2109 -0.1636
vn -0.8605 -0.3435 -0.3762
vn -0.5276 -0.3409 -0.7781
vn 0.7381 -0.2467 -0.6280
vn 0.7012 -0.0376 -0.7119
vn 0.3235 -0.2452 -0.9139
vn 0.6284 -0.1310 -0.7667
vn -0.1622 -0.2080 -0.9646
vn -0.1135 -0.1994 -0.9733
vn 0.2721 -0.1318 -0.9532
vn 0.1101 -0.1506 -0.9824
vn 0.3403 -0.1905 -0.9208
vn 0.8005 -0.0591 -0.5964
vn 0.9243 -0.1395 -0.3552
vn 0.8564 -0.0817 -0.5098
vn 0.9271 -0.3186 0.1974
vn 0.7312 -0.1307 0.6695
vn 0.9404 -0.1758 -0.2910
vn 0.6377 -0.3845 -0.6675
vn 0.3368 -0.2169 -0.9162
vn -0.6694 -0.2229 -0.7086
vn -0.8740 -0.2663 -0.4064
vn -0.4035 -0.1031 -0.9092
vn -0.7453 -0.1971 -0.6369
vn -0.8420 -0.2106 -0.4967
vn -0.7721 -0.0636 -0.6323
vn -0.8757 -0.1528 -0.4580
vn -0.3577 -0.0536 -0.9323
vn -0.3857 -0.2906 -0.8757
vn 0.0018 -0.1566 -0.9877
vn 0.1064 -0.1401 -0.9844
vn -0.0332 -0.3619 -0.9316
vn -0.6798 0.0214 0.7331
vn -0.4736 -0.0208 0.8805
vn -0.9794 -0.0939 0.1788
vn -0.9935 -0.1029 0.0488
vn -0.7024 0.0272 0.7113
vn -0.3999 0.0326 0.9160
vn -0.9865 -0.1378 0.0886
vn -0.6987 0.0291 0.7148
vn -0.3723 0.0555 0.9265
vn -0.3119 0.1871 0.9315
vn -0.0788 -0.0721 0.9943
vn 0.3426 0.0816 0.9359
vn -0.2366 -0.0528 0.9702
vn -0.1250 -0.0090 0.9921
vn -0.1482 0.0444 0.9880
vn 0.1352 0.0686 0.9884
vn 0.5802 0.2993 0.7575
vn 0.4553 0.2286 0.8605
vn 0.6948 0.4671 0.5468
vn 0.6159 0.2185 0.7570
vn -0.1025 0.1312 0.9860
vn 0.1949 0.1182 0.9737
vn 0.5712 0.1132 0.8130
vn 0.8667 0.2962 0.4014
vn 0.8313 0.4470 0.3302
vn 0.7938 0.1332 0.5934
vn 0.9952 0.0850 -0.0494
vn 0.9314 0.3167 -0.1794
vn 0.8343 0.1612 -0.5272
vn 0.8682 -0.0060 -0.4962
vn 0.9825 0.0762 -0.1702
vn 0.7230 -0.0257 -0.6903
vn 0.6801 -0.0041 -0.7331
vn 0.8711 -0.2095 -0.4442
vn 0.9957 0.0482 -0.0787
vn 0.8642 0.0096 -0.5030
vn 0.6209 -0.0979 -0.7778
vn 0.9182 -0.0762 -0.3888
vn 0.9777 0.2069 0.0366
vn 0.9969 0.0763 -0.0205
vn 0.8953 0.0374 -0.4440
vn 0.9996 0.0183 0.0199
vn 0.8150 0.3326 0.4744
vn 0.7619 0.4036 0.5066
vn 0.8992 0.0550 0.4341
vn 0.7151 0.2510 0.6524
vn 0.6384 0.2058 0.7417
vn 0.8363 0.2589 0.4833
vn 0.6758 0.1746 0.7162
vn 0.7716 0.1280 0.6231
vn 0.4227 0.2053 0.8827
vn 0.6418 -0.2082 -0.7380
vn 0.1677 -0.2100 -0.9632
vn 0.2510 -0.2094 -0.9451
vn 0.7046 -0.0363 -0.7086
vn 0.5459 -0.1535 -0.8237
vn 0.7127 0.0208 -0.7012
vn 0.0611 -0.2261 -0.9722
vn 0.7104 -0.0607 -0.7012
vn 0.6745 -0.0154 -0.7381
vn 0.1671 -0.1177 -0.9789
vn 0.3027 0.0124 -0.9530
vn 0.4240 -0.2135 -0.8801
vn -0.1666 -0.2432 -0.9556
vn -0.1377 -0.2051 -0.9690
# 122 vertex normals

vt 0.3183 0.8019 0.0000
vt 0.3183 0.7652 0.0000
vt 0.3321 0.7649 0.0000
vt 0.3057 0.8024 0.0000
vt 0.3037 0.7658 0.0000
vt 0.3894 0.7522 0.0000
vt 0.3711 0.7619 0.0000
vt 0.3700 0.7066 0.0000
vt 0.3859 0.7001 0.0000
vt 0.3552 0.7689 0.0000
vt 0.3559 0.7160 0.0000
vt 0.3432 0.7673 0.0000
vt 0.3440 0.7136 0.0000
vt 0.3334 0.7098 0.0000
vt 0.3178 0.7095 0.0000
vt 0.3050 0.7105 0.0000
vt 0.2918 0.7659 0.0000
vt 0.2911 0.7126 0.0000
vt 0.2772 0.7662 0.0000
vt 0.2772 0.7139 0.0000
vt 0.2672 0.7659 0.0000
vt 0.2661 0.7152 0.0000
vt 0.2544 0.7593 0.0000
vt 0.2534 0.7103 0.0000
vt 0.2919 0.8024 0.0000
vt 0.2802 0.8018 0.0000
vt 0.2702 0.8027 0.0000
vt 0.2569 0.7962 0.0000
vt 0.4083 0.7117 0.0000
vt 0.4078 0.6887 0.0000
vt 0.4235 0.7200 0.0000
vt 0.4170 0.7282 0.0000
vt 0.2343 0.7447 0.0000
vt 0.2410 0.7059 0.0000
vt 0.4334 0.7175 0.0000
vt 0.4404 0.7541 0.0000
vt 0.4267 0.7446 0.0000
vt 0.4121 0.7330 0.0000
vt 0.3995 0.7496 0.0000
vt 0.3971 0.6967 0.0000
vt 0.3890 0.8009 0.0000
vt 0.3723 0.7973 0.0000
vt 0.4009 0.7700 0.0000
vt 0.4141 0.7669 0.0000
vt 0.4291 0.7650 0.0000
vt 0.2687 0.6602 0.0000
vt 0.2798 0.6606 0.0000
vt 0.2561 0.6576 0.0000
vt 0.2628 0.6351 0.0000
vt 0.2780 0.6369 0.0000
vt 0.2656 0.6107 0.0000
vt 0.2776 0.6089 0.0000
vt 0.2544 0.6294 0.0000
vt 0.2575 0.6003 0.0000
vt 0.2419 0.6519 0.0000
vt 0.2461 0.6249 0.0000
vt 0.2526 0.5925 0.0000
vt 0.3061 0.6539 0.0000
vt 0.3206 0.6526 0.0000
vt 0.2914 0.6577 0.0000
vt 0.2910 0.6347 0.0000
vt 0.3037 0.6317 0.0000
vt 0.3198 0.6323 0.0000
vt 0.2915 0.6085 0.0000
vt 0.3030 0.6060 0.0000
vt 0.3189 0.6066 0.0000
vt 0.3196 0.5847 0.0000
vt 0.3358 0.6564 0.0000
vt 0.3419 0.6573 0.0000
vt 0.3335 0.6328 0.0000
vt 0.3401 0.6331 0.0000
vt 0.3345 0.6051 0.0000
vt 0.3435 0.6083 0.0000
vt 0.3499 0.6163 0.0000
vt 0.3441 0.6356 0.0000
vt 0.3578 0.6016 0.0000
vt 0.3560 0.5928 0.0000
vt 0.3358 0.5803 0.0000
vt 0.3465 0.5804 0.0000
vt 0.3547 0.5755 0.0000
vt 0.3659 0.5875 0.0000
vt 0.3665 0.6000 0.0000
vt 0.3628 0.5704 0.0000
vt 0.3751 0.5647 0.0000
vt 0.3773 0.5861 0.0000
vt 0.3873 0.5839 0.0000
vt 0.3887 0.5944 0.0000
vt 0.3783 0.5963 0.0000
vt 0.3995 0.5740 0.0000
vt 0.4006 0.5895 0.0000
vt 0.3884 0.6060 0.0000
vt 0.3786 0.6052 0.0000
vt 0.3939 0.6441 0.0000
vt 0.4067 0.6569 0.0000
vt 0.3889 0.6168 0.0000
vt 0.3792 0.6150 0.0000
vt 0.3827 0.6481 0.0000
vt 0.3910 0.6310 0.0000
vt 0.3809 0.6322 0.0000
vt 0.3668 0.6166 0.0000
vt 0.3613 0.6174 0.0000
vt 0.3709 0.6328 0.0000
vt 0.3560 0.6271 0.0000
vt 0.3489 0.6435 0.0000
vt 0.3681 0.6520 0.0000
vt 0.3560 0.6634 0.0000
vt 0.3631 0.6379 0.0000
vt 0.3534 0.6520 0.0000
vt 0.4011 0.6085 0.0000
vt 0.2281 0.6463 0.0000
vt 0.2317 0.6183 0.0000
vt 0.4027 0.6365 0.0000
vt 0.4126 0.6328 0.0000
vt 0.4189 0.6800 0.0000
vt 0.2281 0.6972 0.0000
vt 0.4001 0.6194 0.0000
vt 0.4017 0.6279 0.0000
vt 0.2360 0.5930 0.0000
vt 0.4154 0.5813 0.0000
vt 0.4134 0.6060 0.0000
vt 0.2433 0.7883 0.0000
vt 0.2313 0.7838 0.0000
# 122 texture coords

o Alumno2LeftLeg
g Alumno2LeftLeg
usemtl mat_1_Doctor_body_d_jpg
s 1
f 1/1/1 2/2/2 3/3/3 
f 4/4/4 5/5/5 2/2/2 
f 2/2/2 1/1/1 4/4/4 
f 6/6/6 7/7/7 8/8/8 
f 8/8/8 9/9/9 6/6/6 
f 10/10/10 11/11/11 8/8/8 
f 8/8/8 7/7/7 10/10/10 
f 12/12/12 13/13/13 11/11/11 
f 11/11/11 10/10/10 12/12/12 
f 3/3/3 14/14/14 13/13/13 
f 13/13/13 12/12/12 3/3/3 
f 2/2/2 15/15/15 14/14/14 
f 14/14/14 3/3/3 2/2/2 
f 5/5/5 16/16/16 15/15/15 
f 15/15/15 2/2/2 5/5/5 
f 16/16/16 5/5/5 17/17/17 
f 17/17/17 18/18/18 16/16/16 
f 17/17/17 19/19/19 20/20/20 
f 20/20/20 18/18/18 17/17/17 
f 19/19/19 21/21/21 22/22/22 
f 22/22/22 20/20/20 19/19/19 
f 21/21/21 23/23/23 24/24/24 
f 24/24/24 22/22/22 21/21/21 
f 5/5/5 4/4/4 25/25/25 
f 25/25/25 17/17/17 5/5/5 
f 17/17/17 25/25/25 26/26/26 
f 26/26/26 19/19/19 17/17/17 
f 26/26/26 27/27/27 21/21/21 
f 21/21/21 19/19/19 26/26/26 
f 27/27/27 28/28/28 23/23/23 
f 23/23/23 21/21/21 27/27/27 
f 29/29/29 30/30/30 31/31/31 
f 31/31/31 32/32/32 29/29/29 
f 24/24/24 23/23/23 33/33/33 
f 33/33/33 34/34/34 24/24/24 
f 31/31/31 33/35/35 35/36/36 
f 35/36/36 36/37/37 31/31/31 
f 37/38/38 38/39/39 39/40/40 
f 39/40/40 29/29/29 37/38/38 
f 6/6/6 40/41/41 41/42/42 
f 41/42/42 7/7/7 6/6/6 
f 40/41/41 6/6/6 42/43/43 
f 9/9/9 39/40/40 38/39/39 
f 38/39/39 6/6/6 9/9/9 
f 42/43/43 38/39/39 43/44/44 
f 36/37/37 44/45/45 43/44/44 
f 43/44/44 37/38/38 36/37/37 
f 20/20/20 22/22/22 45/46/46 
f 45/46/46 46/47/47 20/20/20 
f 24/24/24 47/48/48 45/46/46 
f 45/46/46 22/22/22 24/24/24 
f 46/47/47 45/46/46 48/49/49 
f 48/49/49 49/50/50 46/47/47 
f 50/51/51 51/52/52 49/50/50 
f 49/50/50 48/49/49 50/51/51 
f 50/51/51 48/49/49 52/53/53 
f 52/53/53 53/54/54 50/51/51 
f 45/46/46 47/48/48 52/53/53 
f 52/53/53 48/49/49 45/46/46 
f 24/24/24 34/34/34 54/55/55 
f 54/55/55 47/48/48 24/24/24 
f 47/48/48 54/55/55 55/56/56 
f 55/56/56 52/53/53 47/48/48 
f 55/56/56 56/57/57 53/54/54 
f 53/54/54 52/53/53 55/56/56 
f 15/15/15 16/16/16 57/58/58 
f 57/58/58 58/59/59 15/15/15 
f 18/18/18 59/60/60 57/58/58 
f 57/58/58 16/16/16 18/18/18 
f 20/20/20 46/47/47 59/60/60 
f 59/60/60 18/18/18 20/20/20 
f 49/50/50 60/61/61 59/60/60 
f 59/60/60 46/47/47 49/50/50 
f 58/59/59 57/58/58 61/62/62 
f 61/62/62 62/63/63 58/59/59 
f 59/60/60 60/61/61 61/62/62 
f 61/62/62 57/58/58 59/60/60 
f 51/52/52 63/64/64 60/61/61 
f 60/61/61 49/50/50 51/52/52 
f 61/62/62 64/65/65 65/66/66 
f 65/66/66 62/63/63 61/62/62 
f 60/61/61 63/64/64 64/65/65 
f 64/65/65 61/62/62 60/61/61 
f 66/67/67 65/66/66 64/65/65 
f 13/13/13 14/14/14 67/68/68 
f 67/68/68 68/69/69 13/13/13 
f 58/59/59 67/68/68 14/14/14 
f 14/14/14 15/15/15 58/59/59 
f 62/63/63 69/70/70 67/68/68 
f 67/68/68 58/59/59 62/63/63 
f 69/70/70 70/71/71 68/69/69 
f 68/69/69 67/68/68 69/70/70 
f 62/63/63 65/66/66 71/72/72 
f 71/72/72 69/70/70 62/63/63 
f 69/70/70 71/72/72 72/73/73 
f 72/73/73 70/71/71 69/70/70 
f 70/71/71 72/73/73 73/74/74 
f 73/74/74 74/75/75 70/71/71 
f 75/76/76 73/74/74 72/73/73 
f 72/73/73 76/77/77 75/76/76 
f 71/72/72 77/78/78 78/79/79 
f 78/79/79 72/73/73 71/72/72 
f 65/66/66 66/67/67 77/78/78 
f 77/78/78 71/72/72 65/66/66 
f 78/79/79 79/80/80 76/77/77 
f 76/77/77 72/73/73 78/79/79 
f 76/77/77 80/81/81 81/82/82 
f 81/82/82 75/76/76 76/77/77 
f 79/80/80 82/83/83 80/81/81 
f 80/81/81 76/77/77 79/80/80 
f 83/84/84 84/85/85 80/81/81 
f 80/81/81 82/83/83 83/84/84 
f 85/86/86 86/87/87 87/88/88 
f 87/88/88 84/85/85 85/86/86 
f 88/89/89 89/90/90 86/87/87 
f 86/87/87 85/86/86 88/89/89 
f 86/87/87 90/91/91 91/92/92 
f 91/92/92 87/88/88 86/87/87 
f 39/40/40 92/93/93 93/94/94 
f 93/94/94 30/30/30 39/40/40 
f 90/91/91 94/95/95 95/96/96 
f 95/96/96 91/92/92 90/91/91 
f 39/40/40 9/9/9 96/97/97 
f 96/97/97 92/93/93 39/40/40 
f 97/98/98 98/99/99 95/96/96 
f 95/96/96 94/95/95 97/98/98 
f 92/93/93 96/97/97 98/99/99 
f 98/99/99 97/98/98 92/93/93 
f 75/76/76 81/82/82 99/100/100 
f 99/100/100 100/101/101 75/76/76 
f 95/96/96 99/100/100 81/82/82 
f 81/82/82 91/92/92 95/96/96 
f 98/99/99 101/102/102 99/100/100 
f 99/100/100 95/96/96 98/99/99 
f 102/103/103 103/104/104 74/75/75 
f 74/75/75 73/74/74 102/103/103 
f 100/101/101 102/103/103 73/74/74 
f 73/74/74 75/76/76 100/101/101 
f 96/97/97 104/105/105 101/102/102 
f 101/102/102 98/99/99 96/97/97 
f 9/9/9 8/8/8 104/105/105 
f 104/105/105 96/97/97 9/9/9 
f 68/69/69 105/106/106 11/11/11 
f 11/11/11 13/13/13 68/69/69 
f 8/8/8 11/11/11 105/106/106 
f 105/106/106 104/105/105 8/8/8 
f 102/103/103 106/107/107 107/108/108 
f 107/108/108 103/104/104 102/103/103 
f 103/104/104 107/108/108 105/106/106 
f 105/106/106 68/69/69 103/104/104 
f 105/106/106 107/108/108 106/107/107 
f 106/107/107 104/105/105 105/106/106 
f 101/102/102 106/107/107 100/101/101 
f 100/101/101 99/100/100 101/102/102 
f 86/87/87 89/90/90 108/109/109 
f 108/109/109 90/91/91 86/87/87 
f 54/55/55 109/110/110 110/111/111 
f 110/111/111 55/56/56 54/55/55 
f 111/112/112 109/113/113 112/114/114 
f 112/114/114 93/94/94 111/112/112 
f 34/34/34 112/115/115 109/110/110 
f 109/110/110 54/55/55 34/34/34 
f 94/95/95 113/116/116 114/117/117 
f 114/117/117 97/98/98 94/95/95 
f 97/98/98 114/117/117 111/112/112 
f 111/112/112 92/93/93 97/98/98 
f 56/57/57 55/56/56 110/111/111 
f 110/111/111 115/118/118 56/57/57 
f 115/119/119 110/120/120 108/109/109 
f 108/109/109 89/90/90 115/119/119 
f 90/91/91 108/109/109 113/116/116 
f 113/116/116 94/95/95 90/91/91 
f 85/86/86 84/85/85 83/84/84 
f 10/10/10 7/7/7 41/42/42 
f 29/29/29 32/32/32 37/38/38 
f 35/36/36 44/45/45 36/37/37 
f 37/38/38 32/32/32 36/37/37 
f 36/37/37 32/32/32 31/31/31 
f 29/29/29 39/40/40 30/30/30 
f 112/114/114 30/30/30 93/94/94 
f 31/31/31 30/30/30 112/114/114 
f 112/115/115 34/34/34 33/33/33 
f 33/35/35 31/31/31 112/114/114 
f 33/33/33 116/121/121 35/122/122 
f 38/39/39 37/38/38 43/44/44 
f 42/43/43 6/6/6 38/39/39 
f 68/69/69 70/71/71 74/75/75 
f 80/81/81 84/85/85 87/88/88 
f 87/88/88 81/82/82 80/81/81 
f 91/92/92 81/82/82 87/88/88 
f 92/93/93 111/112/112 93/94/94 
f 68/69/69 74/75/75 103/104/104 
f 106/107/107 101/102/102 104/105/105 
f 102/103/103 100/101/101 106/107/107 
f 109/113/113 111/112/112 114/117/117 
f 110/120/120 109/113/113 114/117/117 
f 113/116/116 108/109/109 110/120/120 
f 110/120/120 114/117/117 113/116/116 
f 33/33/33 23/23/23 116/121/121 
f 23/23/23 28/28/28 116/121/121 
# 0 polygons - 200 triangles

