# 3ds Max Wavefront OBJ Exporter v0.99 - (c)2007 guruware
# File Created: 07.05.2025 00:44:29

mtllib Table2.mtl

#
# object Escritorio070
#

v  20.0811 4.4094 -3.6895
v  0.0064 4.4093 5.9138
v  20.0811 4.4094 5.9196
v  0.0064 4.1610 -3.6837
v  20.0811 4.1609 -3.6895
v  20.0811 4.1609 5.9196
v  0.0064 4.4093 -3.6837
v  0.0064 4.1610 5.9138
v  19.1346 3.1171 -4.5317
v  2.3114 3.1105 -4.5164
v  19.1346 3.1136 -3.4816
v  19.1346 3.0987 -4.5445
v  19.1346 3.0902 -3.4612
v  20.0357 3.7620 -5.5537
v  19.5103 3.8074 -5.5438
v  19.3994 -3.1949 -5.5552
v  19.3994 -3.1949 -5.8946
v  19.5103 4.1749 -5.8914
v  20.0182 4.1255 -5.8983
v  19.3984 3.8169 5.5097
v  19.3984 3.8169 -5.5302
v  19.9240 3.8140 -5.5276
v  19.5103 4.1815 5.8547
v  19.9240 4.1815 -5.8752
v  19.3984 4.1799 -5.6874
v  19.9240 3.8140 5.5071
v  19.3994 -3.1949 5.5347
v  19.5103 3.8074 5.5233
v  20.0357 3.7620 5.5332
v  20.0357 4.1789 5.8521
v  19.3984 4.1546 5.8748
v  19.4007 -3.1955 5.8724
v  19.9240 4.1749 5.8709
v  0.1107 3.8140 5.5071
v  0.6363 3.8169 -5.5302
v  0.6363 3.8169 5.5097
v  0.1107 4.1749 -5.8914
v  -0.0010 4.1789 5.8521
v  0.5243 4.1815 5.8547
v  -0.0010 3.7620 5.5332
v  0.5243 3.8074 5.5233
v  0.0000 -3.1949 5.5347
v  0.0000 -3.1948 5.8741
v  0.6363 4.1546 5.8748
v  0.1107 4.1749 5.8709
v  0.6353 -3.1949 -5.5552
v  0.5243 3.8074 -5.5438
v  -0.0010 3.7620 -5.5537
v  0.6340 -3.1955 -5.8929
v  0.6363 4.1546 -5.8953
v  0.6363 4.1789 -5.8726
v  0.1107 3.8140 -5.5276
v  2.3097 4.0079 -5.1438
v  19.1346 4.0018 -5.1352
v  14.8613 3.9934 -5.1360
v  2.3097 3.1136 -3.4816
v  20.0347 -3.1949 -5.8946
v  20.0347 -3.1949 -5.5552
v  19.4205 -4.2038 -5.5962
v  20.0126 -3.1963 -5.5849
v  20.0114 -4.4130 -5.8539
v  19.4215 -3.1963 -5.8648
v  20.0126 -3.1963 -5.8648
v  0.6353 -3.1948 5.8741
v  0.6353 -3.1949 5.5347
v  0.5958 -4.4150 5.5757
v  0.0221 -3.1963 5.5644
v  0.6132 -3.1963 5.5644
v  0.0221 -3.1963 5.8443
v  0.6122 -3.8010 5.8428
v  19.4225 -3.8010 5.8428
v  19.9100 -3.1957 5.8476
v  20.0347 -3.1949 5.5347
v  20.0347 -3.1948 5.8741
v  20.0126 -3.1963 5.5644
v  19.4389 -4.3836 5.5643
v  0.6122 -3.8010 -5.8633
v  0.0221 -3.1963 -5.8648
v  0.6132 -3.1963 -5.5849
v  0.0221 -3.1963 -5.5849
v  0.6141 -4.2038 -5.5962
v  0.0000 -3.1949 -5.5552
v  0.0000 -3.1949 -5.8946
v  20.1012 4.4094 -3.7800
v  20.0811 4.4094 -5.9195
v  0.0015 4.4094 -5.8958
v  0.0015 4.1609 -5.8958
v  20.0811 4.1609 -5.9195
v  20.1012 4.1609 -3.7800
v  0.0015 4.4094 -3.7800
v  0.0064 4.1610 -3.7621
v  19.1346 3.8420 -5.0782
v  19.3117 4.0197 -5.1721
v  19.9952 -4.4130 -5.5867
v  19.4390 -4.4130 -5.8631
v  0.0395 -4.4130 -5.5867
v  0.0233 -4.4130 -5.8539
v  0.0395 -4.4130 5.5662
v  0.0233 -4.4130 5.8334
v  0.6121 -4.2038 5.8428
v  -0.0010 3.8102 -5.5464
v  -0.0010 3.8102 5.5259
v  -0.0010 4.1799 -5.6874
v  20.0114 -4.4130 5.8334
v  19.9952 -4.4130 5.5662
v  19.7172 4.1749 5.8709
v  20.0357 3.9291 5.8757
v  0.6363 4.1722 5.8684
v  2.3125 3.6711 -3.4804
v  17.7735 3.6717 -3.4589
v  20.0357 3.8102 -5.5464
v  20.0357 4.1722 -5.8889
v  -0.0010 4.1722 5.8684
v  -0.0034 3.8842 5.5730
v  20.0357 4.1722 5.8684
v  19.4196 -3.1963 -5.6366
v  0.3175 4.1749 -5.8914
v  20.0144 -3.1963 5.7936
v  20.0135 -4.2038 5.5757
v  -0.0033 -3.1931 5.7051
v  19.4196 -3.1963 5.6161
v  0.6386 -3.1931 5.7051
v  0.6141 -4.2038 5.5757
v  0.6150 -3.1963 5.6161
v  0.6150 -3.1963 -5.6366
v  19.3117 3.5746 -3.4757
v  0.5087 -4.4152 5.8335
v  19.5260 -4.4152 5.8335
v  20.0116 -4.2038 -5.5865
v  0.5087 -4.4152 -5.8540
v  0.5958 -4.4150 -5.5962
v  0.0231 -4.2038 -5.5865
v  19.4066 4.0303 -3.5259
v  0.6280 4.0303 -3.5259
v  0.6280 4.0303 -2.9683
v  19.4066 3.6649 -2.9683
v  0.6280 3.6649 -2.9683
v  0.6280 3.6649 -3.5259
v  19.4066 3.6649 2.9478
v  19.4066 3.6649 3.5054
v  0.6280 3.6649 3.5054
v  19.4066 4.0303 3.5054
v  19.4066 4.0303 2.9478
v  0.6280 4.0303 2.9478
v  19.4066 4.0303 -2.9683
v  19.4066 3.6649 -3.5259
v  0.6280 3.6649 2.9478
v  0.6280 4.0303 3.5054
v  0.0231 -3.8010 5.5660
v  0.0233 -4.3835 5.5662
v  19.4225 -3.8010 -5.8633
v  19.4389 -4.4150 -5.5962
v  3.2779 3.6300 -3.3809
v  4.4091 3.6298 -3.4554
v  4.4091 3.1193 -3.3798
v  3.2783 3.1193 -3.4554
v  14.0630 3.6298 -3.4554
v  12.9322 3.1193 -3.4554
v  14.0630 3.1193 -3.3798
v  12.9318 3.6300 -3.3809
v  13.8235 3.4720 -3.3562
v  13.9209 3.5045 -3.3899
v  13.8035 3.2552 -3.3903
v  13.9351 3.2417 -3.3893
v  4.1696 3.4720 -3.3562
v  4.2670 3.5045 -3.3899
v  4.1492 3.3209 -3.3903
v  4.2812 3.2417 -3.3893
v  13.0985 3.4719 -3.3567
v  13.1697 3.4720 -3.3899
v  13.1898 3.3201 -3.3562
v  13.1723 3.2450 -3.3558
v  3.5359 3.3201 -3.3562
v  3.5879 3.4720 -3.3899
v  3.5158 3.4720 -3.3562
v  20.0357 3.8102 5.5259
v  13.3516 3.5024 -3.3567
v  13.3536 3.2423 -3.3562
v  13.2418 3.4720 -3.3899
v  3.6593 3.4461 -3.3562
v  3.6995 3.2417 -3.3893
v  4.0982 3.4726 -3.3903
v  3.9860 3.2417 -3.3893
v  3.9857 3.4994 -3.3567
v  13.7521 3.4726 -3.3903
v  13.6399 3.2417 -3.3893
v  13.6396 3.4994 -3.3567
v  -0.0010 4.1722 -5.8889
v  19.4225 -4.2038 5.8428
v  19.4236 -4.4121 5.8418
v  0.6110 -4.4121 -5.8623
v  0.6121 -4.2038 -5.8633
v  0.6110 -4.4121 5.8418
v  0.3175 3.8074 5.5233
v  0.3175 3.8074 -5.5438
v  19.7172 3.8074 -5.5438
v  19.7172 3.8074 5.5233
v  0.3175 4.1749 5.8709
v  19.3117 3.1049 -4.5174
v  13.0579 3.2416 -3.3883
v  3.4040 3.2416 -3.3883
v  3.5184 3.2450 -3.3558
v  3.4446 3.4719 -3.3567
v  13.7911 3.2362 -3.3567
v  4.1372 3.2362 -3.3567
v  3.6978 3.5024 -3.3567
v  19.3117 3.1094 -3.4779
v  19.3984 4.1722 5.8684
v  19.7172 4.1749 -5.8914
v  19.3984 4.1722 -5.8889
v  19.1346 3.6566 -3.4624
# 211 vertices

vn 0.0405 0.9984 -0.0384
vn -0.0405 0.9984 0.0384
vn 0.0405 0.9984 0.0384
vn -0.0405 -0.9984 -0.0384
vn 0.0405 -0.9984 -0.0384
vn 0.0405 -0.9984 0.0384
vn -0.0405 0.9984 -0.0384
vn -0.0405 -0.9984 0.0384
vn 0.0097 0.9912 0.1318
vn -0.0010 1.0000 0.0092
vn 0.0101 0.9991 -0.0414
vn 0.0095 -0.9901 -0.1402
vn 0.0098 -0.9990 0.0426
vn -0.0010 -0.9900 -0.1409
vn 0.0032 0.0000 1.0000
vn -0.0032 0.0000 1.0000
vn -0.0036 -0.0004 1.0000
vn -0.0033 -0.0004 -1.0000
vn -0.0029 0.0000 -1.0000
vn 0.0029 0.0000 -1.0000
vn -0.0032 -1.0000 -0.0000
vn 0.0032 -1.0000 -0.0000
vn -0.0029 1.0000 -0.0000
vn 0.0029 1.0000 -0.0000
vn -0.0036 -0.0004 -1.0000
vn -0.0032 0.0000 -1.0000
vn 0.0032 0.0000 -1.0000
vn -0.0029 0.0000 1.0000
vn -0.0033 -0.0004 1.0000
vn 0.0029 0.0000 1.0000
vn 0.0036 -0.0004 1.0000
vn 1.0000 -0.0003 -0.0072
vn 1.0000 0.0002 -0.0065
vn 1.0000 -0.0051 0.0016
vn -0.0011 -0.6074 -0.7944
vn 0.0006 -0.5870 -0.8096
vn 0.0001 -0.4908 -0.8712
vn -0.0053 -0.5388 0.8424
vn 0.0002 -0.5360 0.8442
vn 0.0002 0.1577 0.9875
vn -0.0011 0.9991 -0.0415
vn -0.0010 -0.9991 0.0425
vn 0.0033 -0.0004 -1.0000
vn -0.0028 -0.0016 1.0000
vn 0.0014 -0.0014 1.0000
vn -0.0014 -0.0013 1.0000
vn 0.0025 -0.0014 -1.0000
vn -0.0011 -0.0014 -1.0000
vn 0.0011 -0.0013 -1.0000
vn 0.0033 -0.0004 1.0000
vn 0.0036 -0.0005 -1.0000
vn 0.0028 -0.0016 -1.0000
vn -0.0014 -0.0013 -1.0000
vn 0.0014 -0.0014 -1.0000
vn -0.0001 -0.0290 0.9996
vn 0.0002 -0.0279 0.9996
vn 0.0001 -0.0290 0.9996
vn -0.0002 -0.0279 0.9996
vn 0.0036 -0.0004 -1.0000
vn -0.0014 -0.0014 -1.0000
vn 0.0014 -0.0013 -1.0000
vn -0.0028 -0.0016 -1.0000
vn -0.0001 -0.0289 -0.9996
vn 0.0002 -0.0278 -0.9996
vn 0.0014 -0.0013 1.0000
vn -0.0014 -0.0014 1.0000
vn 0.0028 -0.0016 1.0000
vn 0.0085 -0.6189 -0.7854
vn 0.0095 -0.7422 -0.6702
vn -0.0010 -0.6383 -0.7698
vn -0.0011 0.7355 0.6775
vn 0.0097 0.7363 0.6766
vn 0.0075 0.5718 0.8203
vn -0.0025 -0.0014 -1.0000
vn -0.0011 -0.0013 -1.0000
vn -0.0011 -0.0013 1.0000
vn -0.0025 -0.0014 1.0000
vn 0.0025 -0.0014 1.0000
vn -1.0000 -0.0015 0.0050
vn -1.0000 -0.0016 -0.0049
vn -1.0000 0.0065 -0.0000
vn -1.0000 0.0000 0.0064
vn -1.0000 -0.0003 0.0070
vn 0.0011 -0.0013 1.0000
vn -0.0008 -0.4858 -0.8741
vn -0.0008 0.5824 0.8129
vn 0.0000 0.9995 0.0321
vn 0.0030 0.9995 0.0321
vn -0.0015 0.9995 0.0321
vn 0.1082 0.0000 0.9941
vn 0.1106 -0.0010 0.9939
vn 1.0000 0.0033 0.0033
vn 1.0000 -0.0049 -0.0016
vn 1.0000 0.0002 0.0065
vn 1.0000 -0.0003 0.0072
vn -0.0009 0.0144 -0.9999
vn 0.0007 0.0520 -0.9986
vn 0.0104 0.0700 -0.9975
vn 0.0101 -0.0694 0.9975
vn 0.0001 0.0122 0.9999
vn -0.0008 0.0125 0.9999
vn -1.0000 0.0033 0.0033
vn -1.0000 0.0067 -0.0000
vn -1.0000 -0.0050 0.0016
vn -1.0000 -0.0003 0.0071
vn -1.0000 -0.0049 -0.0016
vn -1.0000 -0.0003 -0.0071
vn 1.0000 -0.0016 0.0050
vn 1.0000 0.0033 -0.0033
vn 1.0000 0.0000 0.0065
vn 1.0000 -0.0003 0.0069
vn 1.0000 -0.0001 0.0064
vn -1.0000 0.0032 0.0032
vn -1.0000 -0.0051 -0.0001
vn -1.0000 0.0063 0.0002
vn 1.0000 0.0065 -0.0002
vn 0.0040 0.9331 0.3596
vn 0.0020 0.9331 0.3596
vn -1.0000 -0.0009 0.0074
vn -1.0000 -0.0008 0.0024
vn -1.0000 -0.0010 -0.0053
vn -1.0000 -0.0003 -0.0072
vn 0.0030 0.0301 -0.9995
vn 0.0000 0.0301 -0.9995
vn 0.0015 0.0301 -0.9995
vn 1.0000 -0.0002 0.0035
vn 1.0000 -0.0003 -0.0070
vn 1.0000 -0.0010 -0.0051
vn 1.0000 -0.0008 0.0024
vn 1.0000 -0.0009 -0.0072
vn -1.0000 -0.0003 -0.0070
vn -1.0000 -0.0002 0.0035
vn -1.0000 -0.0018 0.0073
vn -1.0000 -0.0010 0.0051
vn -1.0000 -0.0010 -0.0051
vn -1.0000 -0.0010 -0.0052
vn -1.0000 -0.0018 -0.0073
vn 1.0000 -0.0018 -0.0073
vn 1.0000 -0.0010 0.0051
vn 1.0000 -0.0003 -0.0071
vn -1.0000 -0.0010 0.0053
vn -1.0000 -0.0008 -0.0024
vn -1.0000 -0.0009 -0.0074
vn -1.0000 -0.0003 0.0072
vn 1.0000 -0.0002 -0.0036
vn 1.0000 -0.0009 -0.0074
vn 1.0000 -0.0008 -0.0024
vn 1.0000 -0.0010 0.0053
vn 1.0000 -0.0010 -0.0053
vn 1.0000 -0.0009 0.0074
vn 1.0000 -0.0003 0.0071
vn 1.0000 0.0063 0.0002
vn 1.0000 0.0032 0.0032
vn 0.0129 0.0212 0.9997
vn 0.0007 0.0464 0.9989
vn 0.0133 0.0229 -0.9996
vn 1.0000 -0.0001 0.0072
vn -0.0027 -1.0000 -0.0064
vn 0.0027 -1.0000 -0.0064
vn 0.0014 -1.0000 0.0065
vn -0.0014 -1.0000 0.0065
vn -0.0014 -1.0000 -0.0064
vn -1.0000 -0.0001 0.0072
vn 0.0027 -1.0000 0.0064
vn 1.0000 -0.0009 0.0072
vn 0.0014 -1.0000 -0.0065
vn -0.0027 -1.0000 0.0064
vn 1.0000 -0.0001 -0.0072
vn -1.0000 -0.0009 0.0072
vn 1.0000 -0.0018 0.0073
vn 0.0000 1.0000 -0.0000
vn 0.0000 -1.0000 -0.0000
vn -1.0000 -0.0001 -0.0070
vn -1.0000 -0.0018 -0.0072
vn -1.0000 -0.0001 -0.0072
vn -1.0000 -0.0018 -0.0075
vn -0.1129 0.1506 -0.9821
vn 0.1053 0.0410 -0.9936
vn 0.1089 -0.1632 -0.9806
vn 0.1089 0.1507 0.9826
vn -0.1053 -0.0417 0.9936
vn 0.1053 -0.0417 0.9936
vn 0.0000 0.1017 -0.9948
vn -0.1570 0.0050 -0.9876
vn 0.0000 -0.0105 -0.9999
vn 0.0621 0.1073 0.9923
vn 0.0982 -0.0563 0.9936
vn 0.1944 -0.1341 0.9717
vn -0.0070 -0.0558 -0.9984
vn 0.0288 0.0202 -0.9994
vn -0.1529 -0.0410 -0.9874
vn 0.0070 -0.0558 -0.9984
vn -0.0070 -0.0257 0.9996
vn 0.0396 -0.1375 0.9897
vn 0.0000 -0.0105 0.9999
vn -0.0039 -0.1431 -0.9897
vn -0.1089 0.1507 0.9826
vn -0.1089 -0.1632 -0.9806
vn 0.1549 -0.0408 0.9871
vn 0.0327 0.0202 0.9993
vn 0.1790 -0.0155 -0.9837
vn -0.0011 0.0705 -0.9975
vn -0.0010 -0.0690 0.9976
vn 1.0000 -0.0016 -0.0049
vn 1.0000 0.0000 -0.0064
vn 0.0218 0.0968 0.9951
vn 0.0218 -0.1121 0.9935
vn 0.0364 -0.1024 -0.9941
vn -0.1287 0.0409 0.9908
vn -0.1533 0.0463 0.9871
vn -0.0518 0.0000 0.9987
vn -0.0263 -0.0055 -0.9996
vn -0.0354 0.0919 -0.9951
vn -0.1082 0.0000 -0.9941
vn -0.1106 -0.0010 -0.9939
vn -0.1081 0.9941 -0.0000
vn -0.0022 -0.0601 0.9982
vn -0.0011 -0.0606 0.9982
vn 0.0011 -0.0606 0.9982
vn -1.0000 -0.0018 0.0074
vn -1.0000 -0.0009 0.0075
vn 1.0000 -0.0018 -0.0075
vn 1.0000 -0.0009 -0.0075
vn 0.0021 -0.0601 -0.9982
vn 0.0011 -0.0606 -0.9982
vn -0.0022 -0.0601 -0.9982
vn 1.0000 -0.0009 0.0075
vn 1.0000 -0.0018 0.0074
vn 0.0022 -0.0601 0.9982
vn -0.0998 -0.0563 -0.9934
vn 0.1291 -0.0407 0.9908
vn -0.0554 0.0052 0.9984
vn 0.0000 0.0868 0.9962
vn -0.1234 -0.0011 -0.9924
vn -0.1209 0.0000 -0.9927
vn -0.1210 0.0000 -0.9927
vn 0.0016 -0.0309 -0.9995
vn -0.0033 -0.0309 -0.9995
vn 0.0000 -0.0309 -0.9995
vn -1.0000 -0.0001 -0.0064
vn -0.0016 -0.0309 -0.9995
vn -0.1210 -0.9927 -0.0000
vn -0.1209 -0.9927 -0.0000
vn 0.1081 0.9941 -0.0000
vn 0.1082 0.0000 -0.9941
vn 0.1106 -0.0010 -0.9939
vn 0.0000 -0.9995 0.0330
vn 0.0033 -0.9994 0.0330
vn -0.0016 -0.9995 0.0330
vn 0.1202 0.0000 0.9927
vn 0.1226 -0.0011 0.9925
vn 0.0016 -0.9995 0.0330
vn -0.0033 -0.9994 0.0330
vn -0.1202 0.0000 0.9927
vn -0.1226 -0.0011 0.9925
vn -0.1202 0.0000 -0.9928
vn -0.1227 -0.0011 -0.9924
vn 0.0000 -0.9995 -0.0330
vn -0.0033 -0.9994 -0.0330
vn 0.0016 -0.9995 -0.0330
vn 0.9864 -0.0509 0.1565
vn 0.9864 -0.0509 -0.1565
vn 0.9864 0.0509 0.1565
vn -0.1748 -0.0541 0.9831
vn 0.1748 -0.0541 0.9831
vn 0.1749 0.0541 0.9831
vn -0.0015 0.0301 0.9995
vn 0.0030 0.0301 0.9995
vn 0.0000 0.0300 0.9995
vn 0.1074 0.9942 -0.0000
vn 0.1075 0.9942 -0.0000
vn 0.0020 0.3546 0.9350
vn 0.0040 0.3546 0.9350
vn 0.0079 -0.4928 -0.8701
vn 0.6855 -0.3626 -0.6314
vn 0.6894 -0.5373 -0.4857
vn -0.9864 -0.0508 -0.1565
vn -0.9864 0.0509 0.1565
vn -0.9864 0.0508 -0.1565
vn 0.1748 -0.0541 -0.9831
vn -0.1749 -0.0541 -0.9831
vn -0.1748 0.0541 -0.9831
vn 0.0644 0.0000 -0.9979
vn -0.0621 0.1073 0.9923
vn 0.6895 -0.7172 -0.1011
vn 0.1748 -0.0542 -0.9831
vn -0.1748 -0.0541 -0.9831
vn 0.0096 0.0562 -0.9984
vn 0.9864 0.0508 -0.1565
vn 0.0000 -0.0919 0.9958
vn -0.0361 -0.1024 -0.9941
vn 0.1549 0.0463 -0.9868
vn -0.0505 0.1628 0.9854
vn 0.0654 -0.0055 -0.9978
vn 0.9864 -0.0509 -0.1566
vn 0.9864 0.0509 -0.1565
vn 0.1748 0.0541 -0.9831
vn -0.9864 -0.0509 0.1565
vn -0.9864 -0.0508 0.1565
vn 0.0097 -0.0560 0.9984
vn -0.1749 0.0543 0.9831
vn -0.1749 -0.0541 0.9831
vn -0.0396 -0.1375 -0.9897
vn 0.0037 -0.0558 -0.9984
vn 0.1748 0.0541 0.9831
vn -0.1748 0.0540 0.9831
vn -0.9864 0.0508 0.1565
vn 0.6996 -0.0489 0.7129
vn 0.7054 -0.7082 0.0297
vn -0.0178 -0.9998 -0.0037
vn -0.0177 -0.9998 0.0038
vn 0.0015 -0.9999 0.0170
vn -0.0015 -0.9999 0.0170
vn -0.0176 -0.9998 0.0038
vn -0.0175 -0.9998 -0.0039
vn -0.0210 -0.9998 -0.0000
vn -0.0994 -0.0014 0.9951
vn -0.1043 -0.0007 0.9945
vn -0.0960 -0.0025 0.9954
vn -0.0960 -0.0025 -0.9954
vn -0.1038 -0.0014 -0.9946
vn -0.0992 -0.0014 -0.9951
vn -0.0176 -0.9998 0.0039
vn -0.0177 -0.9998 -0.0037
vn 0.0017 -0.9999 -0.0168
vn -0.0017 -0.9999 -0.0168
vn 0.0177 -0.9998 -0.0037
vn 0.0176 -0.9998 0.0039
vn 0.0210 -0.9998 -0.0000
vn 0.0000 -0.9960 0.0892
vn 0.0000 -0.9960 -0.0891
vn 0.2514 -0.9637 -0.0904
vn 0.0489 0.1628 0.9854
vn 0.0000 0.0000 -1.0000
vn 0.0033 -0.0309 -0.9995
vn -0.1045 -0.0002 -0.9945
vn -0.0966 -0.0025 -0.9953
vn -0.1044 -0.0014 -0.9945
vn 0.1210 -0.9927 -0.0000
vn 0.0015 -0.9999 -0.0169
vn -0.0015 -0.9999 -0.0169
vn 0.0851 -0.0025 0.9964
vn 0.0933 -0.0013 0.9956
vn 0.0885 -0.0014 0.9961
vn 0.0177 -0.9998 0.0038
vn 0.0209 -0.9998 -0.0000
vn 0.0178 -0.9998 -0.0037
vn 0.0094 0.8658 0.5003
vn -0.0009 0.6741 0.7386
vn 0.0007 0.6686 0.7436
vn 0.0097 -0.7044 0.7097
vn 0.0095 -0.9323 0.3615
vn -0.0010 -0.9378 0.3471
vn 0.0450 -0.1375 -0.9895
vn 0.0000 0.0868 -0.9962
vn 0.7162 0.4521 0.5317
vn 0.7299 0.3864 0.5638
vn 0.7161 0.6980 0.0071
vn 0.0033 -0.9994 -0.0330
vn 0.1202 0.0000 -0.9928
vn 0.1227 -0.0011 -0.9924
vn 0.0178 -0.9998 0.0039
vn 0.0179 -0.9998 -0.0037
vn 0.0211 -0.9998 -0.0000
vn 0.0016 -0.0309 0.9995
vn 0.0000 -0.0308 0.9995
vn 0.0033 -0.0309 0.9995
vn -0.0033 -0.0309 0.9995
vn -0.0016 -0.0309 0.9995
vn -1.0000 -0.0018 0.0072
vn -0.1043 -0.0014 0.9945
vn -0.0966 -0.0025 0.9953
vn -0.1050 -0.0007 0.9945
vn -0.0030 0.0301 0.9995
vn -1.0000 0.0065 0.0001
vn 0.0175 -0.9998 -0.0039
vn 0.0176 -0.9998 0.0038
vn 0.0017 -0.9999 0.0167
vn -0.0017 -0.9999 0.0167
vn -0.0040 0.3546 0.9350
vn -0.0020 0.3546 0.9350
vn -0.1075 0.9942 -0.0000
vn -0.0208 -0.9998 -0.0000
vn 0.1050 -0.0007 0.9945
vn 0.0966 -0.0025 0.9953
vn 0.1043 -0.0014 0.9945
vn 1.0000 -0.0018 0.0072
vn 0.0177 -0.9998 0.0037
vn 0.0175 -0.9998 -0.0038
vn 0.0000 0.9995 -0.0321
vn -0.0015 0.9995 -0.0321
vn -0.0030 0.9995 -0.0321
vn -1.0000 0.0033 -0.0034
vn -0.1075 0.0000 -0.9942
vn -0.1099 -0.0010 -0.9939
vn -0.0176 -0.9998 -0.0038
vn -0.0177 -0.9998 0.0037
vn 1.0000 -0.0018 -0.0072
vn 0.0966 -0.0025 -0.9953
vn 0.1050 -0.0007 -0.9945
vn 0.1044 -0.0014 -0.9945
vn -0.0015 0.0301 -0.9995
vn -0.0926 -0.0002 -0.9957
vn -0.0846 -0.0025 -0.9964
vn -0.0927 -0.0012 -0.9957
vn 0.7292 0.0486 -0.6826
vn 0.7223 0.6910 -0.0291
vn -0.1549 0.0463 0.9868
vn 0.0030 0.9995 -0.0321
vn 0.0015 0.9995 -0.0321
vn 0.0015 0.0301 0.9995
vn 0.0015 0.9995 0.0321
vn -0.0030 0.9995 0.0321
vn -0.0016 -0.9995 -0.0330
vn -1.0000 0.0002 -0.0063
vn 0.0000 0.0000 1.0000
vn 0.0069 0.5296 0.8482
vn 0.0070 0.5504 -0.8349
vn -0.9972 -0.0751 0.0063
vn -0.9972 -0.0751 -0.0062
vn -0.0020 0.9331 0.3596
vn -0.0040 0.9331 0.3596
vn -0.1106 -0.0010 0.9939
vn -0.1082 0.0000 0.9941
vn 0.1038 -0.0014 -0.9946
vn 0.0960 -0.0025 -0.9954
vn 0.1044 -0.0007 -0.9945
vn 1.0000 -0.0018 -0.0074
vn 0.0024 -0.0673 0.9977
vn -0.0024 -0.0673 0.9977
vn 0.0000 -0.9999 0.0172
# 431 vertex normals

vt 0.6477 0.0113 0.0000
vt 0.4413 0.4918 0.0000
vt 0.4414 0.0112 0.0000
vt 0.9358 0.0058 0.0000
vt 0.9360 0.4871 0.0000
vt 0.7290 0.4871 0.0000
vt 0.6473 0.4920 0.0000
vt 0.7292 0.0058 0.0000
vt 0.0780 0.5759 0.0000
vt 0.0754 0.9921 0.0000
vt 0.0339 0.5751 0.0000
vt 0.1775 0.5748 0.0000
vt 0.2246 0.5750 0.0000
vt 0.1792 0.9929 0.0000
vt 0.7895 0.7897 0.0000
vt 0.7683 0.7913 0.0000
vt 0.7640 0.5527 0.0000
vt 0.6161 0.5446 0.0000
vt 0.6075 0.7870 0.0000
vt 0.5983 0.7864 0.0000
vt 0.9020 0.7919 0.0000
vt 0.8974 0.8973 0.0000
vt 0.8808 0.8973 0.0000
vt 0.6125 0.9944 0.0000
vt 0.5999 0.7872 0.0000
vt 0.6106 0.7898 0.0000
vt 0.8807 0.7920 0.0000
vt 0.9017 0.5527 0.0000
vt 0.8974 0.7913 0.0000
vt 0.8762 0.7897 0.0000
vt 0.6561 0.7869 0.0000
vt 0.6654 0.7868 0.0000
vt 0.6728 0.9940 0.0000
vt 0.6544 0.7864 0.0000
vt 0.6475 0.5442 0.0000
vt 0.6637 0.7866 0.0000
vt 0.8600 0.7920 0.0000
vt 0.8395 0.9907 0.0000
vt 0.8387 0.7919 0.0000
vt 0.7162 0.8886 0.0000
vt 0.7197 0.7868 0.0000
vt 0.7290 0.7869 0.0000
vt 0.8645 0.7897 0.0000
vt 0.8433 0.7913 0.0000
vt 0.8642 0.5527 0.0000
vt 0.7127 0.5443 0.0000
vt 0.7307 0.7864 0.0000
vt 0.7214 0.7866 0.0000
vt 0.8267 0.5527 0.0000
vt 0.8225 0.7913 0.0000
vt 0.8012 0.7897 0.0000
vt 0.5343 0.5446 0.0000
vt 0.5412 0.7868 0.0000
vt 0.5294 0.7876 0.0000
vt 0.5412 0.7871 0.0000
vt 0.5506 0.7870 0.0000
vt 0.5379 0.9944 0.0000
vt 0.8141 0.9907 0.0000
vt 0.8058 0.7920 0.0000
vt 0.8270 0.7919 0.0000
vt 0.1237 0.9942 0.0000
vt 0.1204 0.5767 0.0000
vt 0.1212 0.5767 0.0000
vt 0.1289 0.5749 0.0000
vt 0.1299 0.5750 0.0000
vt 0.0256 0.9943 0.0000
vt 0.2302 0.9900 0.0000
vt 0.5912 0.5446 0.0000
vt 0.7892 0.5527 0.0000
vt 0.7650 0.5178 0.0000
vt 0.7884 0.5516 0.0000
vt 0.5923 0.5017 0.0000
vt 0.6162 0.5433 0.0000
vt 0.5911 0.5433 0.0000
vt 0.7377 0.5443 0.0000
vt 0.8390 0.5527 0.0000
vt 0.8407 0.5105 0.0000
vt 0.8634 0.5516 0.0000
vt 0.8399 0.5516 0.0000
vt 0.7127 0.5430 0.0000
vt 0.7367 0.5213 0.0000
vt 0.6484 0.5213 0.0000
vt 0.6680 0.5421 0.0000
vt 0.8765 0.5527 0.0000
vt 0.6724 0.5443 0.0000
vt 0.8773 0.5516 0.0000
vt 0.9000 0.5118 0.0000
vt 0.5353 0.5216 0.0000
vt 0.5593 0.5433 0.0000
vt 0.8259 0.5516 0.0000
vt 0.8024 0.5516 0.0000
vt 0.8257 0.5178 0.0000
vt 0.8015 0.5527 0.0000
vt 0.5592 0.5446 0.0000
vt 0.7136 0.4921 0.0000
vt 0.6676 0.4916 0.0000
vt 0.6681 0.0105 0.0000
vt 0.9923 0.0057 0.0000
vt 0.9928 0.4871 0.0000
vt 0.9467 0.4876 0.0000
vt 0.7136 0.0105 0.0000
vt 0.9463 0.0058 0.0000
vt 0.1411 0.5750 0.0000
vt 0.1195 0.5767 0.0000
vt 0.7875 0.5108 0.0000
vt 0.6141 0.5017 0.0000
vt 0.8032 0.5108 0.0000
vt 0.5581 0.5017 0.0000
vt 0.8625 0.5108 0.0000
vt 0.7138 0.5013 0.0000
vt 0.7364 0.5080 0.0000
vt 0.5638 0.7869 0.0000
vt 0.5731 0.9944 0.0000
vt 0.5537 0.7898 0.0000
vt 0.5645 0.7851 0.0000
vt 0.5711 0.5416 0.0000
vt 0.6713 0.5013 0.0000
vt 0.8782 0.5108 0.0000
vt 0.1296 0.9902 0.0000
vt 0.6599 0.7866 0.0000
vt 0.6671 0.7833 0.0000
vt 0.5326 0.9944 0.0000
vt 0.5200 0.9944 0.0000
vt 0.7426 0.7873 0.0000
vt 0.0035 0.9887 0.0000
vt 0.0128 0.5748 0.0000
vt 0.2285 0.5749 0.0000
vt 0.2467 0.5750 0.0000
vt 0.2485 0.7707 0.0000
vt 0.6280 0.9944 0.0000
vt 0.6210 0.7876 0.0000
vt 0.6279 0.5416 0.0000
vt 0.6426 0.7873 0.0000
vt 0.6356 0.5413 0.0000
vt 0.5866 0.7869 0.0000
vt 0.5982 0.7870 0.0000
vt 0.5793 0.9944 0.0000
vt 0.5793 0.5416 0.0000
vt 0.5859 0.7851 0.0000
vt 0.7198 0.7866 0.0000
vt 0.7111 0.7871 0.0000
vt 0.7009 0.9940 0.0000
vt 0.6654 0.7866 0.0000
vt 0.6240 0.5081 0.0000
vt 0.6248 0.5412 0.0000
vt 0.5467 0.7870 0.0000
vt 0.6842 0.5413 0.0000
vt 0.6830 0.5405 0.0000
vt 0.6745 0.5422 0.0000
vt 0.6803 0.5078 0.0000
vt 0.7009 0.5413 0.0000
vt 0.7071 0.5424 0.0000
vt 0.7021 0.5405 0.0000
vt 0.5698 0.5408 0.0000
vt 0.5806 0.5408 0.0000
vt 0.6388 0.5408 0.0000
vt 0.6396 0.5078 0.0000
vt 0.7433 0.5424 0.0000
vt 0.7495 0.5413 0.0000
vt 0.7456 0.5078 0.0000
vt 0.7464 0.5408 0.0000
vt 0.5256 0.5412 0.0000
vt 0.5264 0.5081 0.0000
vt 0.5225 0.5416 0.0000
vt 0.6759 0.9940 0.0000
vt 0.2558 0.9887 0.0000
vt 0.2529 0.9123 0.0000
vt 0.2740 0.9814 0.0000
vt 0.4954 0.9875 0.0000
vt 0.4771 0.9822 0.0000
vt 0.4978 0.9105 0.0000
vt 0.8441 0.5014 0.0000
vt 0.8966 0.5014 0.0000
vt 0.7656 0.5011 0.0000
vt 0.7883 0.5014 0.0000
vt 0.5829 0.5081 0.0000
vt 0.8217 0.5014 0.0000
vt 0.8250 0.5105 0.0000
vt 0.5675 0.5081 0.0000
vt 0.8025 0.5014 0.0000
vt 0.8775 0.5014 0.0000
vt 0.9735 0.9920 0.0000
vt 0.9735 0.5011 0.0000
vt 0.9866 0.5011 0.0000
vt 0.9530 0.9920 0.0000
vt 0.9530 0.5011 0.0000
vt 0.9661 0.5011 0.0000
vt 0.9080 0.5011 0.0000
vt 0.9210 0.5011 0.0000
vt 0.9210 0.9920 0.0000
vt 0.9285 0.5011 0.0000
vt 0.9416 0.5011 0.0000
vt 0.9416 0.9920 0.0000
vt 0.9866 0.9920 0.0000
vt 0.9661 0.9920 0.0000
vt 0.9080 0.9920 0.0000
vt 0.9285 0.9920 0.0000
vt 0.7041 0.5209 0.0000
vt 0.7047 0.5020 0.0000
vt 0.8632 0.5014 0.0000
vt 0.6151 0.5216 0.0000
vt 0.7657 0.5105 0.0000
vt 0.3978 0.7449 0.0000
vt 0.4628 0.0673 0.0000
vt 0.8017 0.0730 0.0000
vt 0.4114 0.0160 0.0000
vt 0.0595 0.7894 0.0000
vt 0.0731 0.0600 0.0000
vt 0.0095 0.7390 0.0000
vt 0.8770 0.5781 0.0000
vt 0.8203 0.5986 0.0000
vt 0.8922 0.4356 0.0000
vt 0.9281 0.2248 0.0000
vt 0.9209 0.2028 0.0000
vt 0.9922 0.0509 0.0000
vt 0.8914 0.4782 0.0000
vt 0.9634 0.7491 0.0000
vt 0.9212 0.7645 0.0000
vt 0.9105 0.6645 0.0000
vt 0.8759 0.3922 0.0000
vt 0.8348 0.3921 0.0000
vt 0.8812 0.2431 0.0000
vt 0.7890 0.7520 0.0000
vt 0.8898 0.2923 0.0000
vt 0.9193 0.3762 0.0000
vt 0.8780 0.7638 0.0000
vt 0.5774 0.9944 0.0000
vt 0.6777 0.7847 0.0000
vt 0.9836 0.4153 0.0000
vt 0.9904 0.2411 0.0000
vt 0.8123 0.6087 0.0000
vt 0.9614 0.3775 0.0000
vt 0.8779 0.1851 0.0000
vt 0.8119 0.0477 0.0000
vt 0.8916 0.1021 0.0000
vt 0.9917 0.4255 0.0000
vt 0.9856 0.5984 0.0000
vt 0.5522 0.7870 0.0000
vt 0.5596 0.9944 0.0000
vt 0.6487 0.5080 0.0000
vt 0.6527 0.5013 0.0000
vt 0.6489 0.5013 0.0000
vt 0.5357 0.5017 0.0000
vt 0.5356 0.5084 0.0000
vt 0.5396 0.5017 0.0000
vt 0.7363 0.5013 0.0000
vt 0.7324 0.5013 0.0000
vt 0.9201 0.5786 0.0000
vt 0.8118 0.2197 0.0000
vt 0.8615 0.2236 0.0000
vt 0.8644 0.6699 0.0000
vt 0.7081 0.7866 0.0000
vt 0.8516 0.7913 0.0000
vt 0.7074 0.7847 0.0000
vt 0.8646 0.7913 0.0000
vt 0.8020 0.9907 0.0000
vt 0.8013 0.9907 0.0000
vt 0.8141 0.7913 0.0000
vt 0.7850 0.7920 0.0000
vt 0.7637 0.7919 0.0000
vt 0.7766 0.7913 0.0000
vt 0.8891 0.7913 0.0000
vt 0.7138 0.4968 0.0000
vt 0.6675 0.4968 0.0000
vt 0.7187 0.0104 0.0000
vt 0.7187 0.4921 0.0000
vt 0.7252 0.7866 0.0000
vt 0.7307 0.7866 0.0000
vt 0.7381 0.9940 0.0000
vt 0.1328 0.5750 0.0000
vt 0.3627 0.9828 0.0000
vt 0.3701 0.9909 0.0000
vt 0.2977 0.9925 0.0000
vt 0.6475 0.4967 0.0000
vt 0.6524 0.0111 0.0000
vt 0.6521 0.4921 0.0000
vt 0.6474 0.4919 0.0000
vt 0.8122 0.7817 0.0000
vt 0.3237 0.9834 0.0000
vt 0.6629 0.4917 0.0000
vt 0.6629 0.0104 0.0000
vt 0.8109 0.2351 0.0000
vt 0.9924 0.6119 0.0000
vt 0.9040 0.0487 0.0000
vt 0.8116 0.4223 0.0000
vt 0.4413 0.0060 0.0000
vt 0.6478 0.0061 0.0000
vt 0.6679 0.0058 0.0000
vt 0.7142 0.0058 0.0000
vt 0.4411 0.4966 0.0000
vt 0.4368 0.0110 0.0000
vt 0.4365 0.4920 0.0000
vt 0.8365 0.7637 0.0000
vt 0.2699 0.9900 0.0000
vt 0.7650 0.5448 0.0000
vt 0.9008 0.5448 0.0000
vt 0.1085 0.9634 0.0000
vt 0.0181 0.9413 0.0000
vt 0.1971 0.9418 0.0000
vt 0.9490 0.5011 0.0000
vt 0.9490 0.9920 0.0000
vt 0.6770 0.7866 0.0000
vt 0.8633 0.5313 0.0000
vt 0.7894 0.9907 0.0000
vt 0.7887 0.9907 0.0000
vt 0.8761 0.7913 0.0000
vt 0.4274 0.9824 0.0000
vt 0.4282 0.9919 0.0000
vt 0.3802 0.9928 0.0000
vt 0.7896 0.7913 0.0000
vt 0.8012 0.7913 0.0000
vt 0.5672 0.5014 0.0000
vt 0.8025 0.5178 0.0000
vt 0.6544 0.7866 0.0000
vt 0.6439 0.9940 0.0000
vt 0.6470 0.9940 0.0000
vt 0.7883 0.5178 0.0000
vt 0.5832 0.5014 0.0000
vt 0.6037 0.7870 0.0000
vt 0.6091 0.7870 0.0000
vt 0.8371 0.7638 0.0000
vt 0.6804 0.5011 0.0000
vt 0.8775 0.5178 0.0000
vt 0.8400 0.5011 0.0000
vt 0.9007 0.5011 0.0000
vt 0.8257 0.5011 0.0000
vt 0.4779 0.9924 0.0000
vt 0.9941 0.9920 0.0000
vt 0.9941 0.5011 0.0000
vt 0.2523 0.9810 0.0000
vt 0.4988 0.9806 0.0000
vt 0.8632 0.5118 0.0000
vt 0.7047 0.5011 0.0000
vt 0.8400 0.5178 0.0000
vt 0.7454 0.5020 0.0000
vt 0.7483 0.5405 0.0000
vt 0.5237 0.5408 0.0000
vt 0.5266 0.5014 0.0000
vt 0.6238 0.5014 0.0000
# 339 texture coords

o Escritorio070
g Escritorio070
usemtl Material__7910
s 1
f 1/1/1 2/2/2 3/3/3 
f 4/4/4 5/5/5 6/6/6 
f 2/2/2 1/1/1 7/7/7 
f 6/6/6 8/8/8 4/4/4 
f 9/9/9 10/10/10 11/11/11 
f 12/12/12 13/13/13 10/14/14 
usemtl Material__7923
f 14/15/15 15/16/16 16/17/17 
f 17/18/18 18/19/19 19/20/20 
f 20/21/21 21/22/21 22/23/22 
f 23/24/23 24/25/24 25/26/23 
f 22/23/22 26/27/22 20/21/21 
f 27/28/25 28/29/26 29/30/27 
f 23/31/23 30/32/24 24/33/24 
f 31/34/28 32/35/29 33/36/30 
f 34/37/21 35/38/22 36/39/22 
f 37/40/23 38/41/23 39/42/24 
f 40/43/26 41/44/27 42/45/25 
f 43/46/29 44/47/30 45/48/28 
f 46/49/31 47/50/15 48/51/16 
f 49/52/32 50/53/33 35/54/34 
f 51/55/24 37/56/23 39/57/24 
f 34/58/21 52/59/21 35/60/22 
usemtl Material__7910
f 53/61/35 54/62/36 55/63/37 
f 53/61/38 55/64/39 54/65/40 
f 11/11/11 10/10/10 56/66/41 
f 10/14/14 13/13/13 56/67/42 
usemtl Material__7923
f 19/20/20 57/68/43 17/18/18 
f 16/17/17 58/69/31 14/15/15 
f 59/70/44 60/71/45 16/17/46 
f 61/72/47 62/73/48 63/74/49 
f 44/47/30 43/46/29 64/75/50 
f 65/76/51 42/45/25 41/44/27 
f 66/77/52 67/78/53 68/79/54 
f 64/75/55 69/80/56 70/81/55 
f 71/82/57 72/83/58 32/35/57 
f 29/30/27 73/84/59 27/28/25 
f 32/35/29 74/85/50 33/36/30 
f 27/28/60 75/86/61 76/87/62 
f 77/88/63 78/89/64 49/52/63 
f 79/90/65 80/91/66 81/92/67 
f 48/51/16 82/93/17 46/49/31 
f 49/52/43 83/94/18 37/56/19 
usemtl Material__7910
f 84/95/3 85/96/1 86/97/7 
f 87/98/4 88/99/5 89/100/6 
f 86/97/7 90/101/2 84/95/3 
f 89/100/6 91/102/8 87/98/4 
f 92/103/68 12/12/69 10/14/70 
f 10/10/71 9/9/72 93/104/73 
usemtl Material__7923
f 60/71/45 59/70/44 94/105/67 
f 62/73/48 61/72/47 95/106/74 
f 96/107/44 81/92/67 80/91/66 
f 78/89/75 77/88/49 97/108/74 
f 67/78/53 66/77/52 98/109/62 
f 69/80/76 99/110/77 100/111/78 
f 101/112/79 102/113/80 103/114/81 
f 48/115/82 103/114/81 82/116/83 
f 72/83/84 71/82/76 104/117/78 
f 105/118/52 76/87/62 75/86/61 
usemtl Material__7910
f 10/14/70 53/119/85 92/103/68 
f 93/104/73 53/61/86 10/10/71 
usemtl Material__7923
f 106/120/87 30/32/88 23/31/89 
f 107/121/90 33/36/90 74/85/91 
f 108/122/92 36/123/93 35/54/34 
f 36/124/93 44/47/94 64/75/95 
usemtl Material__7910
f 109/125/96 110/126/97 11/11/98 
f 13/127/99 110/128/100 109/129/101 
usemtl Material__7923
f 31/130/102 25/26/103 21/131/104 
f 21/131/104 25/26/103 16/132/105 
f 31/34/102 21/131/104 20/133/106 
f 27/134/107 31/34/102 20/133/106 
f 111/135/108 112/136/109 107/137/110 
f 58/138/111 112/136/109 14/139/112 
f 43/46/83 113/140/113 114/141/114 
f 114/141/114 38/41/115 103/142/81 
f 50/53/33 51/55/116 35/54/34 
f 35/54/34 51/55/116 108/122/92 
f 115/143/117 30/32/117 33/36/118 
f 107/121/90 115/143/90 33/36/90 
f 59/144/119 116/145/120 62/73/121 
f 17/18/122 16/132/105 25/26/103 
f 37/56/19 50/53/20 49/52/43 
f 50/53/123 117/146/124 51/55/125 
f 74/85/126 73/147/127 107/121/110 
f 75/148/128 118/149/129 119/150/130 
f 114/141/114 42/151/131 120/152/132 
f 99/110/133 69/80/134 67/153/135 
f 82/116/83 103/114/81 83/94/131 
f 80/154/134 78/89/136 97/108/137 
f 61/72/138 63/74/128 60/155/139 
f 112/136/109 58/138/111 57/68/140 
f 32/35/141 121/156/142 76/157/143 
f 31/34/102 27/134/107 32/35/144 
f 122/158/145 65/159/140 36/124/93 
f 123/160/146 124/161/147 64/75/148 
f 49/52/149 125/162/129 81/163/150 
f 35/54/34 46/164/151 49/52/32 
f 30/32/152 115/143/153 107/121/110 
f 112/165/109 30/32/152 107/121/110 
usemtl Material__7910
f 126/166/154 110/167/155 13/168/99 
f 126/169/156 11/170/98 110/171/97 
usemtl Material__7923
f 64/75/148 70/81/157 123/160/146 
f 98/109/158 66/77/159 127/172/160 
f 128/173/161 76/87/162 105/118/159 
f 76/157/143 71/82/163 32/35/141 
f 95/174/158 61/175/159 94/105/164 
f 61/72/138 60/155/139 129/176/165 
f 130/177/166 131/178/164 96/107/167 
f 81/163/150 77/88/168 49/52/149 
f 132/179/169 80/154/134 97/108/137 
f 96/107/167 97/180/158 130/177/166 
f 105/118/159 104/181/164 128/173/161 
f 104/117/170 119/150/130 118/149/129 
usemtl Material__7910
f 133/182/171 134/183/171 135/184/171 
f 136/185/172 137/186/172 138/187/172 
f 139/188/172 140/189/172 141/190/172 
f 142/191/171 143/192/171 144/193/171 
f 135/184/171 145/194/171 133/182/171 
f 138/187/172 146/195/172 136/185/172 
f 141/190/172 147/196/172 139/188/172 
f 144/193/171 148/197/171 142/191/171 
usemtl Material__7923
f 149/198/173 150/199/174 99/110/133 
f 127/172/160 99/200/167 98/109/158 
f 151/201/175 95/106/176 59/144/119 
f 94/105/164 152/202/167 95/174/158 
usemtl Material__27358
s 2
f 153/203/177 154/204/178 155/205/179 
f 154/206/180 156/207/181 155/208/182 
f 157/204/180 158/209/181 159/208/182 
f 160/203/177 157/204/178 159/205/179 
usemtl Material__27357
f 161/210/183 162/211/184 163/212/185 
f 162/213/186 161/214/187 164/215/188 
f 165/210/183 166/211/184 167/216/189 
f 166/213/186 165/214/187 168/215/188 
f 169/217/190 170/218/191 171/219/192 
f 170/220/193 169/221/194 172/222/195 
usemtl Material__27358
f 153/203/177 155/205/179 156/223/196 
f 153/203/197 156/207/181 154/206/180 
f 160/203/197 158/209/181 157/204/180 
f 160/203/177 159/205/179 158/223/198 
usemtl Material__27357
f 173/224/199 174/225/200 175/220/193 
f 173/219/192 175/218/191 174/226/201 
usemtl Material__7910
s 1
f 11/11/98 56/66/202 109/125/96 
f 56/67/203 13/127/99 109/129/101 
usemtl Material__7923
f 107/137/110 176/227/204 111/135/108 
f 29/228/205 107/121/110 73/147/127 
usemtl Material__27357
s 2
f 177/229/206 171/224/199 178/230/207 
f 171/219/192 179/226/201 178/231/208 
f 180/232/209 173/224/199 181/230/207 
f 173/219/192 174/226/201 181/231/208 
f 182/233/210 183/234/211 167/235/199 
f 167/216/189 183/236/212 184/237/213 
f 185/233/210 186/234/211 163/235/199 
f 163/212/185 186/236/212 187/237/213 
usemtl Material__7923
s 1
f 188/238/214 37/56/214 83/94/215 
f 103/114/216 38/239/216 37/56/216 
f 189/240/217 128/241/218 104/117/219 
f 190/242/220 189/240/221 76/157/143 
f 191/243/222 192/244/223 81/163/150 
f 192/244/224 130/245/225 97/108/226 
f 123/160/146 100/111/227 193/246/228 
f 100/111/229 99/110/218 127/247/219 
usemtl Material__27357
s 2
f 185/248/230 163/212/185 187/237/213 
f 187/249/231 186/234/211 185/233/210 
f 187/249/232 162/213/186 185/250/233 
f 187/249/232 161/214/187 162/213/186 
f 184/249/232 165/214/187 166/213/186 
f 184/249/232 166/213/186 182/250/233 
f 182/248/230 167/216/189 184/237/213 
f 184/249/231 183/234/211 182/233/210 
usemtl Material__7923
s 1
f 42/45/234 114/251/235 40/43/236 
f 102/252/80 114/141/114 103/142/81 
f 41/44/237 40/43/238 194/253/239 
f 114/141/114 102/252/80 40/254/240 
f 102/255/238 34/37/241 40/43/238 
f 52/59/242 34/256/243 102/257/243 
f 112/165/244 24/33/244 30/32/244 
f 112/136/245 57/68/246 19/20/245 
f 195/258/247 35/60/248 52/59/249 
f 47/50/250 46/49/251 35/60/250 
f 22/259/252 21/260/253 196/261/247 
f 21/260/254 16/17/255 15/16/254 
f 28/29/256 27/28/257 20/21/256 
f 197/262/258 20/21/259 26/27/260 
usemtl Material__7910
f 89/263/261 88/264/262 84/95/263 
f 91/265/264 89/266/265 84/95/266 
usemtl Material__7923
f 45/48/267 44/47/268 198/267/269 
f 36/124/93 108/268/92 44/47/94 
f 51/269/270 39/42/271 108/268/271 
f 39/42/272 44/47/273 108/268/273 
usemtl Material__7910
f 92/103/68 53/119/85 93/270/274 
f 92/271/68 93/272/275 199/273/276 
f 4/274/277 2/2/278 7/7/279 
f 5/275/280 4/276/281 7/277/282 
usemtl Material__27357
s 2
f 177/229/206 179/225/200 171/224/199 
f 177/278/283 170/218/191 169/217/190 
f 177/229/206 169/221/284 170/220/193 
f 178/231/208 179/226/201 177/278/283 
usemtl Material__7910
s 1
f 199/273/276 12/279/69 92/271/68 
f 199/273/285 13/168/13 12/279/12 
f 88/280/286 87/281/287 85/96/288 
f 88/264/262 85/96/289 84/95/263 
usemtl Material__27357
s 2
f 200/282/290 172/222/195 169/221/194 
f 169/217/190 171/219/192 200/283/291 
f 200/283/291 171/219/292 178/231/208 
f 178/230/207 172/222/195 200/282/290 
f 201/282/290 202/222/195 203/221/194 
f 203/217/190 173/219/192 201/283/291 
f 201/283/291 173/219/292 181/231/208 
f 181/230/207 202/222/195 201/282/290 
f 164/215/188 163/235/199 204/284/293 
f 163/212/185 162/211/184 164/285/294 
f 164/215/188 161/214/187 163/235/199 
f 164/285/294 186/236/212 163/212/185 
usemtl Material__7910
s 1
f 6/286/261 5/287/295 1/1/296 
f 5/275/280 7/277/282 1/1/297 
f 85/96/288 87/281/287 86/97/282 
f 86/97/279 87/288/277 91/289/298 
f 4/274/277 8/290/299 2/2/278 
f 6/291/300 2/2/301 8/292/302 
usemtl Material__27357
s 2
f 168/285/294 183/236/212 167/216/189 
f 168/215/188 165/214/187 167/235/199 
f 168/215/188 167/235/199 205/284/293 
f 167/216/189 166/211/184 168/285/294 
f 206/229/206 175/220/193 174/225/200 
f 180/232/209 181/230/207 206/229/206 
f 206/278/283 181/231/208 180/293/303 
f 206/278/283 174/226/304 175/218/191 
usemtl Material__7910
s 1
f 2/2/301 6/291/300 3/3/305 
f 3/3/263 6/286/261 1/1/296 
f 90/101/306 91/265/264 84/95/266 
f 86/97/279 91/289/298 90/101/307 
f 126/166/154 13/168/99 207/294/308 
f 13/168/13 199/273/285 207/294/309 
usemtl Material__7923
f 67/153/310 69/80/311 43/46/311 
f 64/75/312 43/46/313 69/80/313 
f 16/132/314 17/18/315 116/145/316 
f 116/295/317 59/70/318 16/17/319 
f 27/28/320 76/87/321 121/296/322 
f 121/156/316 32/35/323 27/134/324 
f 68/79/325 67/78/326 65/76/325 
f 65/159/327 64/75/328 124/161/329 
usemtl Material__27357
s 2
f 204/297/330 186/298/331 164/299/332 
f 186/234/211 204/284/333 163/235/199 
f 183/234/211 205/284/333 167/235/199 
f 205/297/330 183/298/331 168/299/332 
usemtl Material__7910
s 1
f 143/192/334 139/300/334 147/301/334 
f 146/195/334 138/187/334 134/183/334 
f 134/183/334 133/182/334 146/195/334 
f 147/301/334 144/193/334 143/192/334 
usemtl Material__7923
f 29/30/335 197/262/239 26/27/237 
f 29/228/205 176/302/204 107/121/110 
f 99/110/133 67/153/135 149/198/173 
f 149/303/336 67/78/337 98/109/338 
f 176/304/339 26/305/339 22/259/339 
f 29/30/335 26/27/237 176/306/335 
f 62/73/315 116/145/316 17/18/315 
f 63/74/340 62/73/341 17/18/341 
f 72/83/342 104/117/343 118/149/344 
f 74/85/345 118/149/346 75/148/347 
usemtl Material__7910
f 93/270/348 53/119/349 54/65/350 
f 93/104/351 54/62/352 53/61/353 
usemtl Material__27357
s 2
f 167/216/189 182/248/230 165/210/183 
f 182/233/210 165/214/187 184/249/232 
f 165/214/187 182/233/210 167/235/199 
f 165/210/354 182/248/230 166/211/355 
usemtl Material__7910
s 1
f 9/307/72 199/308/356 93/309/357 
f 199/308/358 9/307/9 11/170/11 
usemtl Material__7923
f 70/81/157 100/111/227 123/160/146 
f 100/111/78 70/81/84 69/80/76 
f 76/157/143 189/240/221 71/82/163 
f 189/240/77 104/117/78 71/82/76 
f 192/244/47 97/108/74 77/88/49 
f 81/163/150 192/244/223 77/88/168 
f 41/44/260 194/253/258 36/39/359 
f 41/44/360 36/39/360 65/76/361 
f 122/158/145 36/124/93 64/75/95 
f 64/75/362 65/159/363 122/158/364 
f 22/259/365 196/261/366 14/15/367 
f 112/136/109 111/135/108 14/139/112 
f 48/51/368 195/258/366 52/59/369 
f 48/115/82 101/112/79 103/114/81 
usemtl Material__27357
s 2
f 161/210/354 185/248/230 162/211/355 
f 161/214/187 185/233/210 163/235/199 
f 185/233/210 161/214/187 187/249/232 
f 163/212/185 185/248/230 161/210/183 
usemtl Material__7923
s 1
f 22/259/339 111/310/339 176/304/339 
f 111/310/367 22/259/365 14/15/367 
f 48/51/368 52/59/369 101/311/368 
f 102/257/243 101/311/242 52/59/242 
usemtl Material__27357
s 2
f 175/220/193 203/221/194 202/222/195 
f 203/217/190 175/218/191 173/219/192 
f 206/278/283 175/218/191 203/217/190 
f 206/229/206 203/221/284 175/220/193 
usemtl Material__7923
s 1
f 96/312/370 132/179/169 97/108/137 
f 96/107/371 80/91/372 132/313/373 
f 31/34/374 106/120/269 23/31/267 
f 208/314/375 25/315/103 31/34/102 
f 125/162/329 49/52/376 46/164/377 
f 46/49/378 80/91/379 79/90/378 
f 208/314/380 31/34/380 23/31/381 
f 208/314/382 23/31/382 25/316/382 
usemtl Material__27357
s 2
f 177/278/283 179/226/304 170/218/191 
f 177/229/206 170/220/193 179/225/200 
f 171/224/199 179/225/200 170/220/193 
f 171/219/192 170/218/191 179/226/201 
usemtl Material__7923
s 1
f 75/86/325 27/28/326 73/84/325 
f 75/148/347 73/147/347 74/85/345 
f 114/141/114 120/152/132 43/46/83 
f 42/151/310 43/46/311 120/152/383 
f 129/317/384 60/71/385 94/105/386 
f 61/72/138 129/176/165 94/318/387 
f 17/18/341 57/68/340 63/74/340 
f 60/155/388 63/74/389 57/68/389 
f 209/319/390 18/19/391 25/26/392 
f 25/26/103 210/320/393 17/18/122 
usemtl Material__27357
s 2
f 180/232/209 174/225/200 173/224/199 
f 206/229/206 174/225/200 180/232/209 
f 180/321/303 174/226/304 206/278/283 
f 181/231/208 174/226/201 180/293/303 
usemtl Material__7923
s 1
f 18/19/394 17/18/395 210/320/394 
f 18/19/391 210/320/392 25/26/392 
f 78/89/341 83/94/341 49/52/340 
f 83/94/396 78/89/396 80/154/397 
f 104/117/170 105/322/398 119/150/130 
f 75/86/399 119/323/400 105/118/401 
f 19/20/123 18/19/402 209/319/124 
f 24/25/125 112/136/123 19/20/123 
f 57/68/389 58/138/388 60/155/388 
f 58/69/378 16/17/379 60/71/378 
f 127/247/219 193/246/229 100/111/229 
f 127/172/160 66/77/159 193/324/164 
f 151/201/403 62/73/404 95/106/405 
f 62/73/121 151/201/175 59/144/119 
f 189/240/217 190/242/217 128/241/218 
f 190/325/167 76/87/162 128/173/161 
f 191/326/159 131/178/164 130/177/166 
f 192/244/224 191/243/224 130/245/225 
usemtl Material__7910
f 11/170/98 126/169/156 207/327/406 
f 11/170/11 207/327/407 199/308/358 
usemtl Material__27357
s 2
f 175/220/193 202/222/195 173/224/199 
f 202/222/408 181/230/207 173/224/199 
usemtl Material__7923
s 1
f 117/146/124 50/53/123 37/56/402 
f 117/146/390 37/56/391 51/55/409 
f 25/26/392 24/25/410 209/319/390 
f 209/319/124 24/25/125 19/20/123 
f 39/42/411 198/267/269 44/47/268 
f 39/42/412 38/41/413 198/267/87 
f 106/120/269 31/34/374 33/36/411 
f 30/32/88 106/120/87 33/36/412 
f 34/37/241 194/253/239 40/43/238 
f 34/37/414 36/39/359 194/253/258 
f 15/16/249 196/261/247 21/260/253 
f 15/16/369 14/15/367 196/261/366 
f 197/262/239 29/30/335 28/29/241 
f 20/21/259 197/262/258 28/29/414 
f 195/258/366 48/51/368 47/50/365 
f 35/60/248 195/258/247 47/50/252 
f 103/114/81 188/238/415 83/94/131 
f 188/238/216 103/114/216 37/56/216 
usemtl Material__27357
s 2
f 172/222/408 178/230/207 171/224/199 
f 170/220/193 172/222/195 171/224/199 
usemtl Material__7923
s 1
f 80/154/397 82/116/397 83/94/396 
f 80/91/379 46/49/378 82/93/379 
usemtl Material__7910
f 136/328/416 135/184/416 137/329/416 
f 140/189/416 142/191/416 141/190/416 
f 142/191/416 148/197/416 141/190/416 
f 136/328/416 145/194/416 135/184/416 
usemtl Material__7923
f 114/141/114 113/140/113 38/41/115 
f 45/48/89 198/267/87 38/41/413 
usemtl Material__7910
f 110/167/155 126/166/154 211/330/417 
f 211/331/418 126/169/156 110/171/97 
usemtl Material__7923
f 98/109/338 150/332/338 149/303/336 
f 99/110/419 150/199/420 98/333/420 
f 45/48/421 38/41/422 113/140/422 
f 43/46/423 45/48/424 113/140/424 
f 66/77/425 68/79/426 123/334/427 
f 123/160/146 193/246/228 66/335/428 
f 124/161/147 123/160/146 68/336/149 
f 124/161/329 68/336/327 65/159/327 
f 46/164/377 79/337/377 125/162/329 
f 79/337/148 81/163/150 125/162/129 
f 81/92/429 96/107/430 131/178/429 
f 131/338/228 191/243/222 81/163/150 
f 43/46/311 42/151/310 67/153/310 
f 42/45/326 65/76/325 67/78/326 
f 152/202/430 94/105/429 59/70/430 
f 59/144/119 95/106/176 152/339/220 
f 118/149/344 74/85/342 72/83/342 
f 72/83/431 74/85/312 32/35/313 
# 388 faces

