# 3ds Max Wavefront OBJ Exporter v0.99 - (c)2007 guruware
# File Created: 07.05.2025 00:44:05

mtllib Table1.mtl

#
# object Mesa1
#

v  -0.0635 4.1789 5.8520
v  -0.1752 4.1749 -5.8915
v  -0.7008 4.1789 -5.8726
v  -0.3820 4.1749 -5.8915
v  -0.7008 4.1722 -5.8890
v  -0.7008 4.1546 -5.8954
v  -0.6985 -3.1955 -5.8930
v  -0.7008 4.1722 5.8684
v  -0.7008 3.8169 5.5096
v  -0.7008 3.8169 -5.5303
v  -0.1752 3.8140 -5.5277
v  -20.0976 4.1609 -3.6659
v  -0.0029 4.1610 -3.6838
v  -0.0029 4.1610 5.9137
v  0.0027 4.4007 -3.6660
v  -20.0775 4.4094 5.9195
v  -0.0053 4.4129 5.9109
v  -20.0928 4.4093 -3.6838
v  -20.0775 4.1609 5.9195
v  -0.6998 -3.1949 -5.5553
v  -0.0635 3.7620 -5.5537
v  -0.5889 3.8074 -5.5439
v  -2.2043 3.1058 -3.4580
v  -16.3648 3.1054 -3.4576
v  -5.2149 3.0859 -3.4858
v  -16.3648 3.1106 -4.3406
v  -5.2149 3.1133 -3.5090
v  -2.2043 3.1116 -4.5204
v  -17.6069 3.2511 -4.6581
v  -17.6069 3.5449 -4.8695
v  -0.9646 3.5458 -4.8681
v  -0.7874 3.8475 -5.0622
v  -17.6069 3.5586 -4.8487
v  -17.6069 3.2685 -4.6397
v  -20.0928 4.1566 -5.8955
v  -0.0029 4.1610 -3.7622
v  -20.0775 4.1609 -3.7563
v  -20.0775 4.4094 -5.9196
v  -20.0928 4.4093 -3.7622
v  -0.0181 4.4094 -3.7563
v  -0.0029 4.4093 -5.9138
v  -0.0181 4.1609 -5.9196
v  -0.9646 3.8420 -5.0783
v  -5.2378 3.6733 -3.4590
v  -17.6069 3.5709 -3.4573
v  -0.9646 3.1095 -4.0005
v  -2.2043 3.1314 -3.4811
v  -0.5889 4.1815 5.8546
v  -0.1752 3.8140 5.5070
v  -0.7008 4.1546 5.8747
v  -0.6777 -3.1963 5.8442
v  -0.1752 4.1749 5.8708
v  -0.6998 -3.1949 5.5346
v  -0.5889 3.8074 5.5232
v  -0.0635 3.7620 5.5331
v  -17.7895 4.0278 -5.1335
v  -0.9646 4.0018 -5.1353
v  -5.2149 4.0007 -5.1204
v  -2.2043 4.0234 -5.1755
v  -13.3563 4.0238 -5.1758
v  -5.2149 4.0338 -5.1428
v  -17.6069 3.0841 -3.9900
v  -17.6069 3.0851 -3.6418
v  -17.6069 3.1125 -3.6613
v  -20.1002 4.1789 5.8520
v  -19.5748 4.1815 5.8546
v  -20.1002 4.1789 -5.8726
v  -19.9885 3.8140 5.5070
v  -19.4629 3.8169 -5.5303
v  -19.4629 3.8169 5.5096
v  -20.1002 3.7620 5.5331
v  -19.5748 3.8074 5.5232
v  -20.0992 -3.1949 5.5346
v  -20.0992 -3.1948 5.8740
v  -19.4629 4.1546 5.8747
v  -19.9885 4.1749 5.8708
v  -19.9885 3.8140 -5.5277
v  -19.5748 4.1815 -5.8753
v  -19.4639 -3.1949 -5.5553
v  -19.5748 3.8074 -5.5439
v  -20.1002 3.7620 -5.5537
v  -19.4629 4.1546 -5.8954
v  -20.0992 -3.1949 -5.8947
v  -19.9885 4.1749 -5.8915
v  -0.0878 -4.4130 -5.8540
v  -0.6777 -3.1963 -5.8649
v  -0.0866 -3.1963 -5.8649
v  -0.0645 -3.1949 -5.8947
v  -0.0645 -3.1949 -5.5553
v  -0.6786 -4.2038 -5.5963
v  -0.0866 -3.1963 -5.5850
v  -2.2043 3.0846 -4.5211
v  -20.0761 -4.2038 5.5659
v  -20.0771 -3.1963 5.5643
v  -19.4860 -3.1963 5.5643
v  -19.4639 -3.1949 5.5346
v  -19.4639 -3.1948 5.8740
v  -19.4870 -4.2038 5.8427
v  -19.4870 -3.8010 5.8427
v  -20.0771 -3.1963 5.8442
v  -19.4870 -3.8010 -5.8634
v  -20.0771 -3.1963 -5.8649
v  -19.4639 -3.1949 -5.8947
v  -20.0992 -3.1949 -5.5553
v  -20.0771 -3.1963 -5.5850
v  -19.5034 -4.4150 -5.5963
v  -0.1892 -3.1957 5.8475
v  -0.0860 -4.3836 5.8334
v  -0.0645 -3.1949 5.5346
v  -0.0645 -3.1948 5.8740
v  -0.5749 -3.1957 5.5609
v  -0.0866 -3.1963 5.5643
v  -0.1040 -4.4130 5.5661
v  -16.3648 4.0125 -5.1822
v  -17.6069 4.0338 -5.1428
v  -13.3563 3.1319 -3.4815
v  -2.2043 4.0290 -5.1328
v  -19.5034 -4.4150 5.5757
v  -20.0759 -4.4130 5.8333
v  -0.9646 3.0860 -3.9908
v  -0.9646 3.6566 -3.4625
v  -2.2043 3.6720 -3.4758
v  -20.0761 -4.2038 -5.5866
v  -20.0777 -4.3836 -5.8541
v  -0.6602 -4.4130 -5.8632
v  -0.1040 -4.4130 -5.5868
v  -0.6603 -4.3836 5.5642
v  -0.5732 -4.4132 5.8427
v  -17.6069 3.9805 -5.1715
v  -16.3648 4.0238 -5.1758
v  -19.7817 4.1749 -5.8915
v  -20.1002 3.9291 -5.8962
v  -0.0635 3.8102 -5.5465
v  -0.0635 4.1799 -5.6875
v  -0.0635 3.9291 5.8756
v  -19.4629 4.1799 -5.6875
v  -19.4629 4.1722 5.8684
v  -20.1026 3.8842 5.5729
v  -20.1002 4.1722 5.8683
v  -0.0635 3.8102 5.5258
v  -0.9646 3.1086 -4.3404
v  -0.9646 3.1383 -4.5478
v  -0.9646 3.5576 -4.8503
v  -17.6069 3.3820 -3.4573
v  -17.6067 3.6718 -3.4807
v  -0.9646 3.3946 -3.4794
v  -0.9646 3.1136 -3.4817
v  -0.9646 3.3829 -3.4590
v  -20.1002 4.1722 -5.8890
v  -0.6796 -3.1963 -5.6367
v  -0.7874 3.9803 -5.1664
v  -0.7874 3.5479 -4.8650
v  -0.7874 3.2549 -4.6541
v  -0.9646 3.0851 -4.3381
v  -0.9646 3.0944 -4.5393
v  -17.7895 3.0907 -4.5334
v  -19.4851 -4.2038 5.5756
v  -19.4842 -3.1963 5.6160
v  -19.4605 -3.1931 5.7050
v  -19.4842 -3.1963 -5.6367
v  -19.4851 -4.2038 -5.5963
v  -0.0848 -3.1963 5.7936
v  -0.0857 -4.2038 5.5756
v  -20.1025 -3.1931 5.7050
v  -0.6796 -3.1963 5.6160
v  -17.6069 3.8493 -5.0570
v  -2.2043 4.0080 -5.1480
v  -17.6069 4.0068 -5.1563
v  -0.9646 3.0870 -3.6431
v  -0.9646 3.0902 -3.4612
v  -0.9646 3.1105 -3.6599
v  -17.7898 3.1094 -3.4780
v  -17.7877 3.1110 -4.0011
v  -17.7895 3.1171 -4.5318
v  -17.7877 3.5584 -4.8491
v  -17.7877 3.8491 -5.0574
v  -17.7895 4.0027 -5.1621
v  -2.2043 3.0976 -4.5453
v  -19.4882 -4.4121 -5.8624
v  -20.0750 -4.4121 -5.5877
v  -0.0876 -4.2038 -5.5866
v  -19.4882 -4.4121 5.8417
v  -20.0750 -4.4121 5.5670
v  -20.0759 -4.4130 -5.8540
v  -19.4870 -4.2038 -5.8634
v  -17.6069 3.1121 -4.5203
v  -17.7877 3.0846 -3.9902
v  -17.6069 3.0832 -4.4936
v  -0.6767 -3.8010 5.8427
v  -0.6755 -4.4121 5.8417
v  -19.4712 4.0303 -3.5260
v  -0.6925 4.0303 -2.9684
v  -0.6925 4.0303 -3.5260
v  -19.4712 3.6649 -3.5260
v  -0.6925 3.6649 -3.5260
v  -0.6925 3.6649 -2.9684
v  -0.6925 3.6649 2.9477
v  -0.6925 3.6649 3.5053
v  -19.4712 3.6649 2.9477
v  -0.6925 4.0303 3.5053
v  -0.6925 4.0303 2.9477
v  -19.4712 4.0303 2.9477
v  -19.4712 4.0303 -2.9684
v  -19.4712 3.6649 -2.9684
v  -19.4712 3.6649 3.5053
v  -19.4712 4.0303 3.5053
v  -17.7877 3.5451 -4.8691
v  -0.6603 -4.4150 -5.5963
v  -0.6767 -3.8010 -5.8634
v  -5.8863 3.3201 -3.3562
v  -5.7635 3.4453 -3.3559
v  -5.7227 3.2417 -3.3893
v  -5.8337 3.4728 -3.3901
v  -0.9646 3.2523 -4.6569
v  -0.7874 3.1044 -4.3400
v  -0.7874 3.0901 -3.9924
v  -6.7260 3.6300 -3.3809
v  -5.5948 3.6298 -3.4554
v  -5.5948 3.1193 -3.3798
v  -6.7256 3.1193 -3.4554
v  -17.7877 3.1120 -3.6610
v  -17.6069 3.1156 -3.4834
v  -17.7895 3.5712 -3.4590
v  -15.3709 3.2945 -3.3903
v  -15.4219 3.4462 -3.3903
v  -15.3498 3.4464 -3.3901
v  -5.7369 3.5045 -3.3899
v  -20.0761 -4.4132 -5.8128
v  -6.5594 3.4719 -3.3567
v  -6.4881 3.4720 -3.3899
v  -6.4681 3.3201 -3.3562
v  -6.4856 3.2450 -3.3558
v  -20.1002 3.8102 -5.5465
v  -20.1002 3.8102 5.5258
v  -16.0042 3.4455 -3.3899
v  -16.0755 3.4455 -3.3567
v  -16.0017 3.2186 -3.3558
v  -15.9842 3.2936 -3.3562
v  -16.2461 3.6057 -3.3809
v  -15.1149 3.6056 -3.4554
v  -15.1149 3.0951 -3.3798
v  -16.2457 3.0951 -3.4554
v  -0.7874 3.0911 -3.6460
v  -0.7874 3.1112 -3.4628
v  -0.7874 3.5746 -3.4758
v  -17.7877 3.1101 -4.3406
v  -17.7876 3.6717 -3.4590
v  -17.6069 3.3956 -3.4812
v  -0.7874 3.0944 -4.5319
v  -15.8607 3.4196 -3.3562
v  -15.8206 3.2153 -3.3893
v  -15.9322 3.4455 -3.3899
v  -6.3446 3.4461 -3.3562
v  -6.3045 3.2417 -3.3893
v  -6.4161 3.4720 -3.3899
v  -0.3820 4.1749 5.8709
v  -0.0635 4.1722 5.8683
v  -17.7877 3.0837 -4.3380
v  -15.5340 3.2153 -3.3893
v  -15.5343 3.4730 -3.3567
v  -17.6069 3.0884 -3.4596
v  -0.0635 4.1722 -5.8890
v  -19.4629 4.1722 -5.8890
v  -6.0182 3.4994 -3.3567
v  -5.9058 3.4726 -3.3903
v  -6.0179 3.2417 -3.3893
v  -16.1102 3.2116 -3.3898
v  -6.5941 3.2381 -3.3898
v  -0.3820 3.8074 5.5232
v  -19.7817 3.8074 -5.5439
v  -0.3820 3.8074 -5.5439
v  -19.7817 3.8074 5.5232
v  -19.7817 4.1749 5.8709
v  -5.8668 3.2362 -3.3567
v  -17.7877 3.2514 -4.6578
v  -15.2406 3.4752 -3.3562
v  -15.2388 3.2153 -3.3893
v  -15.3829 3.2098 -3.3567
v  -15.2792 3.4459 -3.3899
v  -17.6068 4.0132 -5.1196
v  -17.6069 3.1115 -4.0013
# 281 vertices

vn 0.0029 1.0000 -0.0000
vn -0.0029 1.0000 -0.0000
vn 0.0000 0.9995 -0.0321
vn -0.0015 0.9995 -0.0321
vn -0.0030 0.9995 -0.0321
vn -0.0015 0.0301 -0.9995
vn 0.0000 0.0301 -0.9995
vn -0.0030 0.0301 -0.9995
vn -0.9874 0.0561 -0.1477
vn -0.0029 0.0000 -1.0000
vn 0.0029 0.0000 -1.0000
vn -0.0033 -0.0004 -1.0000
vn -1.0000 0.0033 0.0033
vn -1.0000 0.0033 -0.0034
vn -1.0000 0.0002 -0.0065
vn -1.0000 -0.0049 -0.0016
vn -1.0000 -0.0050 0.0016
vn 0.0032 -1.0000 -0.0000
vn -0.0032 -1.0000 -0.0000
vn -0.0405 -0.9984 -0.0384
vn 0.0405 -0.9984 -0.0384
vn 0.0405 -0.9984 0.0384
vn 0.0405 0.9984 -0.0384
vn -0.0405 0.9984 0.0384
vn 0.0405 0.9984 0.0384
vn -0.0405 0.9984 -0.0384
vn -0.0405 -0.9984 0.0384
vn -1.0000 -0.0003 0.0071
vn 0.0032 0.0000 1.0000
vn -0.0032 0.0000 1.0000
vn -0.0036 -0.0004 1.0000
vn 0.0005 -0.0690 0.9976
vn 0.0000 -0.0689 0.9976
vn 0.0001 -0.7258 0.6879
vn 0.0000 1.0000 -0.0016
vn 0.0001 0.9991 -0.0415
vn 0.0005 0.9914 0.1309
vn -0.0010 -0.6383 -0.7698
vn -0.0009 -0.6343 -0.7731
vn 0.0092 -0.6345 -0.7729
vn 0.0087 0.6295 0.7770
vn -0.0010 0.6365 0.7713
vn -0.0011 0.6382 0.7698
vn 0.0005 0.7357 0.6773
vn 0.0085 -0.6189 -0.7854
vn 0.0001 0.0122 0.9999
vn -0.0010 0.0003 1.0000
vn 0.0097 1.0000 -0.0024
vn 0.0006 0.9991 -0.0415
vn -0.0029 0.0000 1.0000
vn -0.0033 -0.0004 1.0000
vn 0.0029 0.0000 1.0000
vn -0.0036 -0.0004 -1.0000
vn -0.0032 0.0000 -1.0000
vn 0.0032 0.0000 -1.0000
vn -0.0011 -0.6074 -0.7944
vn 0.0006 -0.5870 -0.8096
vn 0.0001 -0.4908 -0.8713
vn 0.0005 0.7034 -0.7108
vn 0.0000 0.9139 -0.4060
vn 0.0001 0.9139 -0.4059
vn -0.0010 -1.0000 0.0024
vn 0.0001 -0.9991 0.0425
vn -0.0010 -1.0000 0.0035
vn -0.0011 1.0000 -0.0035
vn 0.0036 -0.0004 1.0000
vn 0.0025 -0.0014 -1.0000
vn -0.0011 -0.0014 -1.0000
vn 0.0011 -0.0013 -1.0000
vn 0.0033 -0.0004 -1.0000
vn -0.0028 -0.0016 1.0000
vn 0.0014 -0.0014 1.0000
vn -0.0014 -0.0013 1.0000
vn 0.0005 -0.9991 0.0424
vn 0.0005 -0.9901 -0.1407
vn -0.0028 -0.0016 -1.0000
vn -0.0014 -0.0013 -1.0000
vn 0.0014 -0.0014 -1.0000
vn 0.0036 -0.0005 -1.0000
vn 0.0033 -0.0004 1.0000
vn 0.0025 -0.0014 1.0000
vn 0.0011 -0.0013 1.0000
vn -0.0011 -0.0013 1.0000
vn -0.0001 -0.0289 -0.9996
vn 0.0002 -0.0278 -0.9996
vn 0.0014 -0.0013 1.0000
vn -0.0014 -0.0014 1.0000
vn 0.0028 -0.0016 1.0000
vn 0.0036 -0.0004 -1.0000
vn -0.0014 -0.0014 -1.0000
vn 0.0014 -0.0013 -1.0000
vn 0.0028 -0.0016 -1.0000
vn 0.0000 0.1064 -0.9943
vn 0.0000 0.7034 -0.7108
vn 0.0000 0.9951 -0.0984
vn -0.0009 0.9788 0.2047
vn 0.0001 0.9788 0.2047
vn 0.0001 0.7276 -0.6861
vn 0.0000 0.0705 -0.9975
vn 0.0006 0.0705 -0.9975
vn 0.0005 0.8664 0.4993
vn 0.0005 0.9952 -0.0983
vn 0.0005 0.9141 -0.4055
vn -0.0025 -0.0014 1.0000
vn 0.0095 -1.0000 0.0024
vn 0.0129 0.0212 0.9997
vn 0.0007 0.0464 0.9989
vn -0.0011 -0.0013 -1.0000
vn -0.0025 -0.0014 -1.0000
vn 0.0001 0.0141 -0.9999
vn -0.0008 -0.4858 -0.8741
vn 0.0004 -0.4876 -0.8731
vn 0.0093 0.9147 -0.4041
vn 0.0015 0.9995 -0.0321
vn -0.1082 0.0000 -0.9941
vn -0.1106 -0.0010 -0.9939
vn -1.0000 -0.0003 0.0072
vn -1.0000 0.0001 0.0065
vn 1.0000 -0.0016 0.0050
vn 1.0000 0.0065 -0.0000
vn 1.0000 0.0000 0.0065
vn 1.0000 -0.0003 0.0069
vn 1.0000 -0.0001 0.0064
vn 1.0000 0.0067 -0.0000
vn 1.0000 0.0033 0.0033
vn 1.0000 -0.0049 -0.0016
vn 1.0000 0.0002 0.0065
vn 1.0000 -0.0003 0.0072
vn -1.0000 -0.0051 -0.0001
vn -1.0000 0.0032 0.0032
vn -1.0000 0.0064 -0.0002
vn -1.0000 -0.0003 0.0070
vn -1.0000 0.0002 0.0063
vn 1.0000 0.0000 -0.0064
vn 1.0000 -0.0003 -0.0070
vn 1.0000 -0.0016 -0.0049
vn 0.0097 1.0000 -0.0016
vn 0.0097 0.6475 0.7620
vn 0.0095 0.6363 0.7714
vn 0.0000 0.6736 0.7391
vn 0.0001 0.6742 0.7385
vn 0.0002 -0.9981 -0.0623
vn 0.0028 -0.9419 -0.3358
vn 0.0027 -0.9225 0.3861
vn -0.0010 0.0000 1.0000
vn -0.0009 0.0144 -0.9999
vn 0.0007 0.0520 -0.9986
vn 0.0097 0.0000 -1.0000
vn 0.0104 0.0700 -0.9975
vn 0.0095 0.0000 1.0000
vn -0.0040 0.9331 -0.3596
vn -0.0020 0.9331 -0.3596
vn 1.0000 -0.0003 0.0071
vn 1.0000 -0.0051 0.0016
vn -1.0000 -0.0009 0.0074
vn -1.0000 -0.0008 0.0024
vn -1.0000 -0.0010 -0.0053
vn -1.0000 -0.0003 -0.0072
vn 0.6855 -0.3626 -0.6314
vn 0.7126 -0.4452 -0.5422
vn 1.0000 0.0000 -0.0000
vn 1.0000 0.0000 -0.0001
vn 0.7149 0.4396 0.5437
vn 0.0095 -1.0000 0.0013
vn 0.0095 -0.8458 -0.5334
vn -0.0010 -0.9058 -0.4237
vn 1.0000 -0.0009 -0.0074
vn 1.0000 -0.0008 -0.0024
vn 1.0000 -0.0010 0.0053
vn 1.0000 -0.0002 -0.0036
vn 1.0000 -0.0003 -0.0071
vn 1.0000 -0.0003 -0.0072
vn 1.0000 -0.0010 -0.0053
vn 1.0000 -0.0008 0.0024
vn 1.0000 -0.0009 0.0074
vn 1.0000 -0.0010 -0.0051
vn 1.0000 -0.0009 -0.0072
vn 1.0000 -0.0002 0.0035
vn -0.0010 0.1061 -0.9944
vn 0.0005 0.1042 -0.9946
vn -1.0000 -0.0010 0.0051
vn -1.0000 -0.0010 -0.0052
vn -1.0000 -0.0018 -0.0073
vn -1.0000 0.0000 -0.0065
vn -1.0000 -0.0003 -0.0070
vn 1.0000 -0.0018 -0.0073
vn 1.0000 -0.0010 0.0051
vn -1.0000 -0.0018 0.0073
vn -1.0000 -0.0010 -0.0051
vn -1.0000 -0.0002 0.0035
vn -1.0000 -0.0010 0.0053
vn -1.0000 -0.0008 -0.0024
vn -1.0000 -0.0009 -0.0074
vn -1.0000 -0.0003 -0.0071
vn 0.7299 0.3864 0.5638
vn 0.0075 0.5718 0.8203
vn -0.0009 0.6308 0.7760
vn 0.0001 0.5824 0.8129
vn -1.0000 0.0032 -0.0033
vn -0.0011 -0.8443 -0.5358
vn 0.0005 -0.8457 -0.5337
vn 0.0095 -0.9999 0.0035
vn 0.0098 -0.9990 0.0426
vn 0.0098 0.9999 -0.0035
vn -0.8658 0.5003 0.0049
vn -0.8757 0.4822 -0.0242
vn -0.2956 0.9553 -0.0023
vn -0.2947 0.6183 0.7286
vn -0.0010 0.8667 0.4989
vn -0.8790 0.3517 0.3221
vn -0.8621 0.3225 0.3909
vn -0.9991 0.0272 0.0337
vn -0.3059 -0.5856 -0.7507
vn -0.3076 -0.8043 -0.5084
vn 0.0005 -0.7425 -0.6698
vn 1.0000 -0.0001 -0.0072
vn 0.0027 -1.0000 -0.0064
vn 0.0027 -1.0000 0.0064
vn -0.0027 -1.0000 0.0064
vn 1.0000 -0.0009 0.0072
vn -0.0027 -1.0000 -0.0064
vn -1.0000 -0.0009 -0.0073
vn 1.0000 -0.0001 0.0072
vn 1.0000 -0.0009 0.0075
vn -0.0022 -0.0601 -0.9982
vn 0.0021 -0.0601 -0.9982
vn -1.0000 -0.0009 0.0072
vn -0.3015 0.9454 0.1236
vn -0.2946 0.9556 0.0088
vn -0.0011 0.9914 0.1306
vn -0.9991 -0.0418 -0.0057
vn -0.9994 0.0264 0.0238
vn -0.8566 -0.5158 0.0172
vn -0.8544 -0.5196 -0.0074
vn -0.2808 -0.9598 0.0023
vn -0.0010 -0.9999 -0.0149
vn -1.0000 -0.0001 0.0072
vn -0.0014 -1.0000 -0.0064
vn 1.0000 -0.0018 0.0073
vn -0.0014 -1.0000 0.0065
vn 0.1749 0.0541 0.9831
vn -0.1748 0.0540 0.9831
vn -0.1748 -0.0541 0.9831
vn -0.9864 0.0508 -0.1565
vn -0.9864 -0.0509 0.1565
vn -0.9864 0.0508 0.1565
vn 0.0000 1.0000 -0.0000
vn 0.0000 -1.0000 -0.0000
vn -0.8532 -0.3310 -0.4031
vn -1.0000 -0.0001 -0.0072
vn -1.0000 -0.0018 -0.0075
vn -0.0070 -0.0558 -0.9984
vn -0.1570 0.0050 -0.9876
vn 0.0654 -0.0055 -0.9978
vn 0.1944 -0.1341 0.9717
vn 0.0982 -0.0563 0.9936
vn 0.1549 -0.0408 0.9871
vn 0.1748 -0.0542 -0.9831
vn -0.1748 -0.0541 -0.9831
vn 0.0096 0.0562 -0.9984
vn 0.9864 -0.0509 -0.1565
vn 0.9864 0.0508 -0.1565
vn 0.9864 0.0509 0.1565
vn 0.0094 -0.6383 -0.7697
vn 0.7133 -0.7009 0.0009
vn 0.7135 -0.7007 0.0017
vn 0.9864 -0.0509 0.1565
vn 0.9864 -0.0509 -0.1566
vn 0.9864 0.0509 -0.1565
vn 0.1748 -0.0541 -0.9831
vn -0.1748 0.0541 -0.9831
vn 0.1748 0.0541 -0.9831
vn -0.9864 -0.0508 -0.1565
vn -0.9864 -0.0508 0.1565
vn -0.9864 0.0509 0.1565
vn 0.1748 0.0541 0.9831
vn -0.1749 0.0543 0.9831
vn -0.1749 -0.0541 0.9831
vn 0.1759 0.0001 0.9844
vn -0.1749 -0.0541 -0.9831
vn 0.1748 -0.0540 0.9831
vn -0.1129 0.1506 -0.9821
vn 0.1053 0.0410 -0.9936
vn 0.1089 -0.1632 -0.9806
vn 0.1089 0.1507 0.9826
vn -0.1053 -0.0417 0.9936
vn 0.1053 -0.0417 0.9936
vn -0.2960 0.9552 -0.0032
vn -0.0011 0.0705 -0.9975
vn -0.3099 0.0584 -0.9490
vn -0.2968 0.0008 -0.9549
vn -0.0998 -0.0563 -0.9934
vn 0.1776 0.0155 -0.9840
vn -0.1533 0.0463 0.9871
vn 0.9691 0.2099 -0.1297
vn 0.9987 0.0504 0.0054
vn 0.9758 -0.0500 0.2129
vn 0.0000 0.0868 -0.9962
vn -0.0028 -1.0000 0.0032
vn -0.9972 -0.0750 -0.0063
vn -0.9971 -0.0757 -0.0032
vn 0.0288 0.0202 -0.9994
vn -0.1529 -0.0410 -0.9874
vn 0.0070 -0.0558 -0.9984
vn -0.0070 -0.0257 0.9996
vn 0.0396 -0.1375 0.9897
vn 0.0000 -0.0105 0.9999
vn -1.0000 -0.0015 0.0050
vn -1.0000 -0.0016 -0.0049
vn -1.0000 0.0000 0.0064
vn -0.1089 0.1507 0.9826
vn -0.0039 -0.1431 -0.9897
vn 0.7139 0.7003 -0.0025
vn 0.7137 0.7004 -0.0017
vn 0.7138 0.7003 -0.0011
vn -0.0308 0.0202 0.9993
vn -0.0396 -0.1375 -0.9897
vn 0.0255 0.9950 -0.0966
vn 0.0000 0.9954 0.0958
vn 0.0221 0.9950 0.0971
vn 0.0000 0.1017 -0.9948
vn 0.0101 0.9991 -0.0414
vn 0.7223 0.6910 -0.0291
vn 0.7136 0.0000 -0.7006
vn 0.7292 0.0486 -0.6826
vn -0.2731 0.6067 0.7465
vn -0.2902 0.6091 0.7381
vn -0.2951 0.9555 -0.0015
vn -0.0035 0.9997 -0.0234
vn -0.0031 0.9119 0.4104
vn 0.0002 0.9093 0.4161
vn -0.0011 0.0000 -1.0000
vn 0.6894 -0.5373 -0.4857
vn 0.0094 -0.6513 -0.7588
vn 0.0097 0.7363 0.6766
vn -0.1287 0.0409 0.9908
vn 0.0218 -0.1121 0.9935
vn 0.1790 -0.0155 -0.9837
vn 0.0364 -0.1024 -0.9941
vn 1.0000 0.0032 0.0032
vn 0.0000 0.9995 0.0321
vn 0.0030 0.9995 0.0321
vn -0.0015 0.9995 0.0321
vn 0.1082 0.0000 0.9941
vn 0.1106 -0.0010 0.9939
vn 1.0000 0.0002 0.0063
vn -0.2803 -0.9599 0.0012
vn -0.0010 -0.9900 -0.1409
vn -0.0263 -0.0055 -0.9996
vn -0.0354 0.0919 -0.9951
vn -0.0518 0.0000 0.9987
vn -0.2890 -0.9563 0.0453
vn -0.2818 0.0006 0.9595
vn -0.2812 -0.0020 0.9596
vn -0.0010 -0.0690 0.9976
vn -0.2746 -0.6099 -0.7434
vn -0.2558 -0.5967 -0.7606
vn -0.0009 0.7034 -0.7108
vn 0.1082 0.0000 -0.9941
vn 0.1106 -0.0010 -0.9939
vn 0.1081 0.9941 -0.0000
vn -0.0015 0.7276 -0.6860
vn 0.6996 -0.0489 0.7129
vn 0.7134 0.0000 0.7007
vn 0.7054 -0.7082 0.0297
vn 0.0040 0.3546 -0.9350
vn 0.0020 0.3545 -0.9350
vn 0.0030 0.0301 -0.9995
vn 0.0015 0.0301 -0.9995
vn 1.0000 0.0002 -0.0065
vn 1.0000 0.0033 -0.0033
vn 0.1075 0.9942 -0.0000
vn 0.1074 0.9942 -0.0000
vn -0.0554 0.0052 0.9985
vn 0.0000 0.0868 0.9962
vn 0.1291 -0.0407 0.9908
vn 0.7139 0.4455 0.5403
vn -0.0361 -0.1024 -0.9941
vn 0.1549 0.0463 -0.9868
vn 0.0000 -0.0919 0.9958
vn -0.0071 -0.0919 0.9957
vn 1.0000 -0.0018 -0.0075
vn 1.0000 -0.0009 -0.0075
vn -0.3263 0.0283 -0.9448
vn -0.0015 0.3882 0.9216
vn -0.1202 0.0000 -0.9928
vn -0.1227 -0.0011 -0.9924
vn 0.0000 -0.9995 -0.0330
vn -0.0033 -0.9994 -0.0330
vn 0.0016 -0.9995 -0.0330
vn 0.0000 -0.9995 0.0330
vn 0.0033 -0.9994 0.0330
vn -0.0016 -0.9995 0.0330
vn 0.1202 0.0000 0.9927
vn 0.1226 -0.0011 0.9925
vn 0.0016 -0.9995 0.0330
vn -0.0033 -0.9994 0.0330
vn -0.1202 0.0000 0.9927
vn -0.1226 -0.0011 0.9925
vn -0.1234 -0.0011 -0.9924
vn -0.1209 0.0000 -0.9927
vn -0.1210 0.0000 -0.9927
vn -1.0000 -0.0001 -0.0064
vn 0.0016 -0.0309 -0.9995
vn -0.0033 -0.0309 -0.9995
vn 0.0000 -0.0309 -0.9995
vn -0.1209 -0.9927 -0.0000
vn -0.1210 -0.9927 -0.0000
vn -0.0016 -0.0309 -0.9995
vn -0.0015 0.0301 0.9995
vn 0.0030 0.0301 0.9995
vn 0.0000 0.0300 0.9995
vn 0.0020 0.3546 0.9350
vn 0.0040 0.3546 0.9350
vn -0.0621 0.1073 0.9923
vn 0.0327 0.0202 0.9993
vn -0.3100 0.0251 0.9504
vn 0.0000 -0.9960 0.0892
vn 0.0000 -0.9960 -0.0891
vn 0.0221 -0.9958 -0.0891
vn -0.2793 -0.6129 -0.7391
vn -0.8542 -0.3387 -0.3946
vn -0.0010 -0.7427 -0.6697
vn 0.0621 0.1073 0.9923
vn 0.0094 -0.9999 -0.0144
vn 0.6895 -0.7172 -0.1011
vn 0.0097 0.9912 0.1318
vn 0.7138 0.4470 0.5392
vn 0.7395 0.4960 0.4550
vn 0.0040 0.9331 0.3596
vn 0.0020 0.9331 0.3596
vn -0.0011 0.9991 -0.0415
vn -0.3035 0.9522 -0.0346
vn -0.9972 -0.0750 0.0063
vn -0.0001 -0.0290 0.9996
vn 0.0002 -0.0279 0.9996
vn -0.2365 -0.4634 -0.8540
vn -0.0008 0.5824 0.8129
vn -0.2443 0.5666 0.7870
vn -0.0505 0.1628 0.9854
vn -0.0210 -0.9998 -0.0000
vn -0.0176 -0.9998 0.0039
vn -0.0177 -0.9998 -0.0037
vn -0.0960 -0.0025 -0.9954
vn -0.1038 -0.0014 -0.9946
vn -0.0992 -0.0014 -0.9951
vn -0.0927 -0.0013 0.9957
vn -0.0847 -0.0025 0.9964
vn -0.0925 -0.0002 0.9957
vn 0.0210 -0.9998 -0.0000
vn 0.0175 -0.9998 -0.0039
vn 0.0176 -0.9998 0.0038
vn 0.0960 -0.0025 0.9954
vn 0.1037 -0.0014 0.9946
vn 0.0994 -0.0014 0.9950
vn 0.0015 -0.9999 0.0170
vn -0.0015 -0.9999 0.0170
vn -0.0178 -0.9998 -0.0037
vn -0.0177 -0.9998 0.0038
vn -0.0994 -0.0014 0.9950
vn -0.1043 -0.0007 0.9945
vn -0.0960 -0.0025 0.9954
vn -0.0176 -0.9998 0.0038
vn -0.0175 -0.9998 -0.0039
vn 0.0017 -0.9999 -0.0168
vn -0.0017 -0.9999 -0.0168
vn 0.0177 -0.9998 -0.0037
vn 0.0176 -0.9998 0.0039
vn 0.2514 -0.9637 -0.0904
vn 0.0489 0.1628 0.9854
vn 0.0000 0.0000 1.0000
vn 0.0000 0.0000 -1.0000
vn 0.0000 0.8269 0.5624
vn 0.0000 0.3078 0.9515
vn 0.0077 0.3122 0.9500
vn -0.0033 -0.0309 0.9995
vn 0.0000 -0.0308 0.9995
vn -0.0016 -0.0309 0.9995
vn 0.0033 -0.0309 -0.9995
vn 0.0101 -0.0694 0.9975
vn 0.1210 -0.9927 -0.0000
vn 0.0851 -0.0025 0.9964
vn 0.0933 -0.0013 0.9956
vn 0.0885 -0.0014 0.9961
vn 0.0177 -0.9998 0.0038
vn 0.0209 -0.9998 -0.0000
vn 0.0178 -0.9998 -0.0037
vn 0.0133 0.0229 -0.9996
vn 0.6477 0.5012 -0.5738
vn -0.0010 -0.9991 0.0425
vn -0.0064 -0.8977 0.4406
vn -0.0050 -0.9306 0.3659
vn 0.0006 -0.8930 0.4500
vn 0.0000 0.1715 0.9852
vn 0.0000 0.4626 0.8866
vn -0.0008 0.4667 0.8844
vn 0.0079 -0.4928 -0.8701
vn -0.2755 -0.9516 -0.1362
vn 0.0015 -0.9999 -0.0169
vn -0.0015 -0.9999 -0.0169
vn 0.0177 -0.9998 0.0037
vn 0.0175 -0.9998 -0.0038
vn -0.0011 0.7355 0.6775
vn 0.1202 0.0000 -0.9928
vn 0.1227 -0.0011 -0.9924
vn 0.0033 -0.9994 -0.0330
vn 0.0178 -0.9998 0.0039
vn 0.0179 -0.9998 -0.0037
vn 0.0211 -0.9998 -0.0000
vn 0.0016 -0.0309 0.9995
vn 0.0033 -0.0309 0.9995
vn -1.0000 -0.0018 0.0074
vn -1.0000 -0.0018 -0.0072
vn 0.0024 -0.0674 -0.9977
vn -0.0024 -0.0673 -0.9977
vn 0.0022 -0.0601 0.9982
vn -0.0022 -0.0601 0.9982
vn 1.0000 -0.0018 0.0074
vn 1.0000 -0.0018 -0.0074
vn 0.1038 -0.0014 -0.9946
vn 0.0960 -0.0025 -0.9954
vn 0.1044 -0.0007 -0.9945
vn 0.1043 -0.0007 0.9945
vn 0.0037 -0.0558 -0.9984
vn -0.0208 -0.9998 -0.0000
vn -0.0030 0.0301 0.9995
vn 1.0000 -0.0018 0.0072
vn 0.1050 -0.0007 0.9945
vn 0.0966 -0.0025 0.9953
vn 0.1043 -0.0014 0.9945
vn -0.0040 0.3546 0.9350
vn -0.0020 0.3546 0.9350
vn -0.1075 0.9942 -0.0000
vn -0.1074 0.9942 -0.0000
vn 0.0017 -0.9999 0.0167
vn -0.0017 -0.9999 0.0167
vn -0.0926 -0.0002 -0.9957
vn -0.0846 -0.0025 -0.9964
vn -0.0927 -0.0012 -0.9957
vn -0.0176 -0.9998 -0.0038
vn -0.0177 -0.9998 0.0037
vn 0.7131 -0.4475 -0.5397
vn -0.0011 1.0000 -0.0025
vn -0.1549 0.0463 0.9868
vn 0.0015 0.0301 0.9995
vn 0.0015 0.9995 0.0321
vn -0.0030 0.9995 0.0321
vn -0.0016 -0.9995 -0.0330
vn 0.7133 -0.7009 0.0025
vn 1.0000 -0.0018 -0.0072
vn 0.0966 -0.0025 -0.9953
vn 0.1050 -0.0007 -0.9945
vn 0.1044 -0.0014 -0.9945
vn -0.2699 0.9424 0.1975
vn -0.2718 0.8337 0.4807
vn -0.0009 0.9139 -0.4059
vn 1.0000 0.0002 -0.0063
vn 0.0000 -0.9999 -0.0171
vn -1.0000 -0.0018 0.0072
vn -0.0024 -0.0673 0.9977
vn 0.0024 -0.0673 0.9977
vn -0.1106 -0.0010 0.9939
vn -0.1082 0.0000 0.9941
vn -0.0020 0.9331 0.3596
vn -0.0040 0.9331 0.3596
vn -0.2755 -0.7145 -0.6432
vn -0.0013 -0.7258 0.6879
vn 0.7394 0.6673 0.0893
vn 0.0000 -0.9999 0.0172
# 569 vertex normals

vt 0.5948 0.9944 0.0000
vt 0.5999 0.7870 0.0000
vt 0.6092 0.7871 0.0000
vt 0.6037 0.7870 0.0000
vt 0.6091 0.7870 0.0000
vt 0.6092 0.7868 0.0000
vt 0.6161 0.5446 0.0000
vt 0.6178 0.9944 0.0000
vt 0.6280 0.9944 0.0000
vt 0.6210 0.7876 0.0000
vt 0.7850 0.7920 0.0000
vt 0.7646 0.9907 0.0000
vt 0.7637 0.7919 0.0000
vt 0.9355 0.0057 0.0000
vt 0.9358 0.4875 0.0000
vt 0.7291 0.4874 0.0000
vt 0.6472 0.0106 0.0000
vt 0.4412 0.4914 0.0000
vt 0.4416 0.0108 0.0000
vt 0.6473 0.4920 0.0000
vt 0.7290 0.0062 0.0000
vt 0.6279 0.5416 0.0000
vt 0.7895 0.7897 0.0000
vt 0.7683 0.7913 0.0000
vt 0.7640 0.5527 0.0000
vt 0.2749 0.9190 0.0000
vt 0.2761 0.5751 0.0000
vt 0.2778 0.7712 0.0000
vt 0.0677 0.9183 0.0000
vt 0.0349 0.5751 0.0000
vt 0.0762 0.5759 0.0000
vt 0.1703 0.9834 0.0000
vt 0.1552 0.9830 0.0000
vt 0.1555 0.5749 0.0000
vt 0.1125 0.5766 0.0000
vt 0.0994 0.9828 0.0000
vt 0.0841 0.9824 0.0000
vt 0.9923 0.0058 0.0000
vt 0.9463 0.4875 0.0000
vt 0.9462 0.0061 0.0000
vt 0.6676 0.0110 0.0000
vt 0.7139 0.0106 0.0000
vt 0.7141 0.4916 0.0000
vt 0.6677 0.4920 0.0000
vt 0.9928 0.4871 0.0000
vt 0.0774 0.5759 0.0000
vt 0.1411 0.5750 0.0000
vt 0.2285 0.5749 0.0000
vt 0.2467 0.5750 0.0000
vt 0.2452 0.9821 0.0000
vt 0.4525 0.9823 0.0000
vt 0.4284 0.9180 0.0000
vt 0.4762 0.9174 0.0000
vt 0.6561 0.7869 0.0000
vt 0.6654 0.7868 0.0000
vt 0.6470 0.9940 0.0000
vt 0.8808 0.8973 0.0000
vt 0.8807 0.7920 0.0000
vt 0.9020 0.7919 0.0000
vt 0.6544 0.7864 0.0000
vt 0.6474 0.5430 0.0000
vt 0.6637 0.7866 0.0000
vt 0.9017 0.5527 0.0000
vt 0.8974 0.7913 0.0000
vt 0.8762 0.7897 0.0000
vt 0.1236 0.9945 0.0000
vt 0.1206 0.5767 0.0000
vt 0.1212 0.5767 0.0000
vt 0.3707 0.9190 0.0000
vt 0.3695 0.5749 0.0000
vt 0.3709 0.7714 0.0000
vt 0.2035 0.9827 0.0000
vt 0.2234 0.5750 0.0000
vt 0.2189 0.9814 0.0000
vt 0.0348 0.9832 0.0000
vt 0.5556 0.9944 0.0000
vt 0.5379 0.9944 0.0000
vt 0.5523 0.7871 0.0000
vt 0.8600 0.7920 0.0000
vt 0.8395 0.9907 0.0000
vt 0.8387 0.7919 0.0000
vt 0.8645 0.7897 0.0000
vt 0.8433 0.7913 0.0000
vt 0.8642 0.5527 0.0000
vt 0.7127 0.5443 0.0000
vt 0.7307 0.7864 0.0000
vt 0.7214 0.7866 0.0000
vt 0.8270 0.7919 0.0000
vt 0.8020 0.9907 0.0000
vt 0.8058 0.7920 0.0000
vt 0.5429 0.7872 0.0000
vt 0.8267 0.5527 0.0000
vt 0.8225 0.7913 0.0000
vt 0.8012 0.7897 0.0000
vt 0.5412 0.7868 0.0000
vt 0.5592 0.5446 0.0000
vt 0.5506 0.7870 0.0000
vt 0.5923 0.5017 0.0000
vt 0.6162 0.5433 0.0000
vt 0.5911 0.5433 0.0000
vt 0.5912 0.5446 0.0000
vt 0.7892 0.5527 0.0000
vt 0.7650 0.5178 0.0000
vt 0.7884 0.5516 0.0000
vt 0.3230 0.9199 0.0000
vt 0.1786 0.5748 0.0000
vt 0.8632 0.5178 0.0000
vt 0.8634 0.5516 0.0000
vt 0.8399 0.5516 0.0000
vt 0.8390 0.5527 0.0000
vt 0.7377 0.5443 0.0000
vt 0.7364 0.5080 0.0000
vt 0.7367 0.5213 0.0000
vt 0.7127 0.5430 0.0000
vt 0.5353 0.5216 0.0000
vt 0.5593 0.5433 0.0000
vt 0.5343 0.5446 0.0000
vt 0.8015 0.5527 0.0000
vt 0.8024 0.5516 0.0000
vt 0.8250 0.5105 0.0000
vt 0.6680 0.5421 0.0000
vt 0.6714 0.5023 0.0000
vt 0.8765 0.5527 0.0000
vt 0.6724 0.5443 0.0000
vt 0.8967 0.5517 0.0000
vt 0.8773 0.5516 0.0000
vt 0.8782 0.5108 0.0000
vt 0.1319 0.9204 0.0000
vt 0.1322 0.7712 0.0000
vt 0.1328 0.5750 0.0000
vt 0.1297 0.9813 0.0000
vt 0.1312 0.5750 0.0000
vt 0.4739 0.7666 0.0000
vt 0.4758 0.5748 0.0000
vt 0.1308 0.5750 0.0000
vt 0.3727 0.9190 0.0000
vt 0.8407 0.5105 0.0000
vt 0.7138 0.5013 0.0000
vt 0.2980 0.9829 0.0000
vt 0.2523 0.9810 0.0000
vt 0.2524 0.9184 0.0000
vt 0.8025 0.5178 0.0000
vt 0.5582 0.5026 0.0000
vt 0.6141 0.5017 0.0000
vt 0.7875 0.5108 0.0000
vt 0.9000 0.5118 0.0000
vt 0.6527 0.5013 0.0000
vt 0.0302 0.5750 0.0000
vt 0.0307 0.7663 0.0000
vt 0.0128 0.5748 0.0000
vt 0.2543 0.7724 0.0000
vt 0.1330 0.9813 0.0000
vt 0.3795 0.9831 0.0000
vt 0.1313 0.9204 0.0000
vt 0.5467 0.7870 0.0000
vt 0.5539 0.7836 0.0000
vt 0.6426 0.7873 0.0000
vt 0.6544 0.7866 0.0000
vt 0.6439 0.9940 0.0000
vt 0.5866 0.7869 0.0000
vt 0.5967 0.7898 0.0000
vt 0.5793 0.9944 0.0000
vt 0.5793 0.5416 0.0000
vt 0.5859 0.7851 0.0000
vt 0.7393 0.9940 0.0000
vt 0.7307 0.7866 0.0000
vt 0.7426 0.7873 0.0000
vt 0.7111 0.7871 0.0000
vt 0.7197 0.7868 0.0000
vt 0.7116 0.9940 0.0000
vt 0.7198 0.7866 0.0000
vt 0.6777 0.7847 0.0000
vt 0.6671 0.7833 0.0000
vt 0.6842 0.5413 0.0000
vt 0.5774 0.9944 0.0000
vt 0.4364 0.9823 0.0000
vt 0.4262 0.9823 0.0000
vt 0.4040 0.9824 0.0000
vt 0.3715 0.5749 0.0000
vt 0.3729 0.7720 0.0000
vt 0.3838 0.7660 0.0000
vt 0.3805 0.9168 0.0000
vt 0.2277 0.9198 0.0000
vt 0.2379 0.9817 0.0000
vt 0.0036 0.9807 0.0000
vt 0.4980 0.9167 0.0000
vt 0.4883 0.9811 0.0000
vt 0.4771 0.9822 0.0000
vt 0.2628 0.9812 0.0000
vt 0.5522 0.7870 0.0000
vt 0.5225 0.5416 0.0000
vt 0.5398 0.7898 0.0000
vt 0.5294 0.7876 0.0000
vt 0.5200 0.9944 0.0000
vt 0.6240 0.5081 0.0000
vt 0.6248 0.5412 0.0000
vt 0.3627 0.9828 0.0000
vt 0.3701 0.9909 0.0000
vt 0.3475 0.9929 0.0000
vt 0.4040 0.9917 0.0000
vt 0.3818 0.9925 0.0000
vt 0.3888 0.9916 0.0000
vt 0.3141 0.9834 0.0000
vt 0.1781 0.5748 0.0000
vt 0.1789 0.9924 0.0000
vt 0.7456 0.5078 0.0000
vt 0.7464 0.5408 0.0000
vt 0.7433 0.5424 0.0000
vt 0.7495 0.5413 0.0000
vt 0.5256 0.5412 0.0000
vt 0.5264 0.5081 0.0000
vt 0.6830 0.5405 0.0000
vt 0.6745 0.5422 0.0000
vt 0.6803 0.5078 0.0000
vt 0.5698 0.5408 0.0000
vt 0.5711 0.5416 0.0000
vt 0.5806 0.5408 0.0000
vt 0.7021 0.5405 0.0000
vt 0.7009 0.5413 0.0000
vt 0.7071 0.5424 0.0000
vt 0.6388 0.5408 0.0000
vt 0.6396 0.5078 0.0000
vt 0.6356 0.5413 0.0000
vt 0.1147 0.9839 0.0000
vt 0.1201 0.5767 0.0000
vt 0.5628 0.9944 0.0000
vt 0.1224 0.9843 0.0000
vt 0.3818 0.9172 0.0000
vt 0.2822 0.9819 0.0000
vt 0.2740 0.9814 0.0000
vt 0.4687 0.9823 0.0000
vt 0.0743 0.9925 0.0000
vt 0.0256 0.9945 0.0000
vt 0.0513 0.9919 0.0000
vt 0.0762 0.9922 0.0000
vt 0.1296 0.9896 0.0000
vt 0.4968 0.7691 0.0000
vt 0.0991 0.9918 0.0000
vt 0.1145 0.9927 0.0000
vt 0.1227 0.9945 0.0000
vt 0.1775 0.5748 0.0000
vt 0.3317 0.9928 0.0000
vt 0.8257 0.5011 0.0000
vt 0.8026 0.5108 0.0000
vt 0.5829 0.5081 0.0000
vt 0.7656 0.5011 0.0000
vt 0.7883 0.5014 0.0000
vt 0.7045 0.5078 0.0000
vt 0.8400 0.5011 0.0000
vt 0.8632 0.5014 0.0000
vt 0.8631 0.5108 0.0000
vt 0.5581 0.5017 0.0000
vt 0.5356 0.5084 0.0000
vt 0.5675 0.5081 0.0000
vt 0.0756 0.9824 0.0000
vt 0.1394 0.9912 0.0000
vt 0.1771 0.9931 0.0000
vt 0.2302 0.9900 0.0000
vt 0.2041 0.9920 0.0000
vt 0.1808 0.9833 0.0000
vt 0.6484 0.5213 0.0000
vt 0.9007 0.5011 0.0000
vt 0.8781 0.5014 0.0000
vt 0.8966 0.5010 0.0000
vt 0.7140 0.0106 0.0000
vt 0.7187 0.0108 0.0000
vt 0.7138 0.0058 0.0000
vt 0.9735 0.5011 0.0000
vt 0.9866 0.9920 0.0000
vt 0.9735 0.9920 0.0000
vt 0.9661 0.5011 0.0000
vt 0.9661 0.9920 0.0000
vt 0.9530 0.9920 0.0000
vt 0.9080 0.5011 0.0000
vt 0.9210 0.5011 0.0000
vt 0.9080 0.9920 0.0000
vt 0.9285 0.5011 0.0000
vt 0.9416 0.5011 0.0000
vt 0.9416 0.9920 0.0000
vt 0.9866 0.5011 0.0000
vt 0.9530 0.5011 0.0000
vt 0.9210 0.9920 0.0000
vt 0.9285 0.9920 0.0000
vt 0.1547 0.9925 0.0000
vt 0.7657 0.5105 0.0000
vt 0.6151 0.5216 0.0000
vt 0.8914 0.4782 0.0000
vt 0.8358 0.5773 0.0000
vt 0.8116 0.4223 0.0000
vt 0.9922 0.0509 0.0000
vt 0.9209 0.2028 0.0000
vt 0.8916 0.1021 0.0000
vt 0.6629 0.4917 0.0000
vt 0.6629 0.0108 0.0000
vt 0.6675 0.4968 0.0000
vt 0.3319 0.9835 0.0000
vt 0.3242 0.9199 0.0000
vt 0.3473 0.9835 0.0000
vt 0.3140 0.9929 0.0000
vt 0.2976 0.9921 0.0000
vt 0.4413 0.0060 0.0000
vt 0.6478 0.0061 0.0000
vt 0.6524 0.0107 0.0000
vt 0.6474 0.4919 0.0000
vt 0.6471 0.4967 0.0000
vt 0.4411 0.4966 0.0000
vt 0.4365 0.4916 0.0000
vt 0.6679 0.0058 0.0000
vt 0.7142 0.4968 0.0000
vt 0.7187 0.4921 0.0000
vt 0.6521 0.4921 0.0000
vt 0.4368 0.0106 0.0000
vt 0.3978 0.7449 0.0000
vt 0.4628 0.0673 0.0000
vt 0.8017 0.0730 0.0000
vt 0.4114 0.0160 0.0000
vt 0.0095 0.7390 0.0000
vt 0.0731 0.0600 0.0000
vt 0.0348 0.9927 0.0000
vt 0.0264 0.9832 0.0000
vt 0.0067 0.9905 0.0000
vt 0.9201 0.5786 0.0000
vt 0.8770 0.5781 0.0000
vt 0.8779 0.1851 0.0000
vt 0.3786 0.9422 0.0000
vt 0.3704 0.9640 0.0000
vt 0.1971 0.9418 0.0000
vt 0.8203 0.5986 0.0000
vt 0.8025 0.5029 0.0000
vt 0.8025 0.5014 0.0000
vt 0.5595 0.5016 0.0000
vt 0.9634 0.7491 0.0000
vt 0.9212 0.7645 0.0000
vt 0.9105 0.6645 0.0000
vt 0.8759 0.3922 0.0000
vt 0.8348 0.3921 0.0000
vt 0.8812 0.2431 0.0000
vt 0.7009 0.9940 0.0000
vt 0.6989 0.9940 0.0000
vt 0.7081 0.7866 0.0000
vt 0.5645 0.7851 0.0000
vt 0.7890 0.7520 0.0000
vt 0.4527 0.9919 0.0000
vt 0.4365 0.9916 0.0000
vt 0.9629 0.1867 0.0000
vt 0.4368 0.9423 0.0000
vt 0.4785 0.9925 0.0000
vt 0.4954 0.9875 0.0000
vt 0.0673 0.9916 0.0000
vt 0.2494 0.9824 0.0000
vt 0.2483 0.9905 0.0000
vt 0.0149 0.9818 0.0000
vt 0.3230 0.9924 0.0000
vt 0.3234 0.9834 0.0000
vt 0.4277 0.9922 0.0000
vt 0.9614 0.3775 0.0000
vt 0.8898 0.2923 0.0000
vt 0.9904 0.2411 0.0000
vt 0.8780 0.7638 0.0000
vt 0.8123 0.6087 0.0000
vt 0.6759 0.9940 0.0000
vt 0.6599 0.7866 0.0000
vt 0.6654 0.7866 0.0000
vt 0.1880 0.9926 0.0000
vt 0.2814 0.9907 0.0000
vt 0.9917 0.4255 0.0000
vt 0.9856 0.5984 0.0000
vt 0.8119 0.0477 0.0000
vt 0.2445 0.9912 0.0000
vt 0.2268 0.9811 0.0000
vt 0.1316 0.9899 0.0000
vt 0.5982 0.7870 0.0000
vt 0.6728 0.9940 0.0000
vt 0.2733 0.9892 0.0000
vt 0.2558 0.9887 0.0000
vt 0.5413 0.7870 0.0000
vt 0.7381 0.9940 0.0000
vt 0.8118 0.2197 0.0000
vt 0.8615 0.2236 0.0000
vt 0.9887 0.6094 0.0000
vt 0.8109 0.2351 0.0000
vt 0.5357 0.5017 0.0000
vt 0.0030 0.9890 0.0000
vt 0.8891 0.7913 0.0000
vt 0.8141 0.7913 0.0000
vt 0.7766 0.7913 0.0000
vt 0.8644 0.6699 0.0000
vt 0.7074 0.7847 0.0000
vt 0.8516 0.7913 0.0000
vt 0.8646 0.7913 0.0000
vt 0.8644 0.9907 0.0000
vt 0.7252 0.7866 0.0000
vt 0.7290 0.7869 0.0000
vt 0.8365 0.7637 0.0000
vt 0.9193 0.3762 0.0000
vt 0.1085 0.9634 0.0000
vt 0.0181 0.9413 0.0000
vt 0.1703 0.9928 0.0000
vt 0.9849 0.2241 0.0000
vt 0.5672 0.5014 0.0000
vt 0.9040 0.0487 0.0000
vt 0.9008 0.5448 0.0000
vt 0.8258 0.5448 0.0000
vt 0.7650 0.5448 0.0000
vt 0.9941 0.9920 0.0000
vt 0.9490 0.5011 0.0000
vt 0.9490 0.9920 0.0000
vt 0.9281 0.2248 0.0000
vt 0.5638 0.7869 0.0000
vt 0.6770 0.7866 0.0000
vt 0.8012 0.7913 0.0000
vt 0.8761 0.7913 0.0000
vt 0.7894 0.9907 0.0000
vt 0.7887 0.9907 0.0000
vt 0.4988 0.9806 0.0000
vt 0.1284 0.9814 0.0000
vt 0.1292 0.5750 0.0000
vt 0.6489 0.5013 0.0000
vt 0.7896 0.7913 0.0000
vt 0.7047 0.5011 0.0000
vt 0.7363 0.5013 0.0000
vt 0.7454 0.5020 0.0000
vt 0.8400 0.5178 0.0000
vt 0.8257 0.5178 0.0000
vt 0.5266 0.5014 0.0000
vt 0.5832 0.5014 0.0000
vt 0.7883 0.5178 0.0000
vt 0.0511 0.9825 0.0000
vt 0.6804 0.5011 0.0000
vt 0.8775 0.5178 0.0000
vt 0.9941 0.5011 0.0000
vt 0.7483 0.5405 0.0000
vt 0.6238 0.5014 0.0000
# 433 texture coords

o Mesa1
g Mesa1
usemtl Material__7923
s 1
f 1/1/1 2/2/1 3/3/2 
f 4/4/3 5/5/4 3/3/5 
f 5/5/6 4/4/7 6/6/8 
f 3/3/9 5/5/9 6/6/9 
f 6/6/10 2/2/11 7/7/12 
f 8/8/13 3/3/14 6/6/15 
f 9/9/16 6/6/15 10/10/17 
f 11/11/18 9/12/19 10/13/19 
usemtl Material__7910
f 12/14/20 13/15/21 14/16/22 
f 15/17/23 16/18/24 17/19/25 
f 16/18/24 15/17/23 18/20/26 
f 14/16/22 19/21/27 12/14/20 
usemtl Material__7923
f 10/10/17 6/6/15 20/22/28 
f 21/23/29 22/24/30 20/25/31 
usemtl Material__7910
f 23/26/32 24/27/33 25/28/34 
f 26/29/35 27/30/36 28/31/37 
f 29/32/38 30/33/39 31/34/40 
f 32/35/41 33/36/42 34/37/43 
f 35/38/20 36/39/22 37/40/27 
f 38/41/26 39/42/24 40/43/25 
f 38/41/26 40/43/25 41/44/23 
f 35/38/20 42/45/21 36/39/22 
f 34/37/43 28/46/44 32/35/41 
f 43/47/45 31/34/40 30/33/39 
f 23/48/32 44/49/46 45/50/47 
f 46/51/48 28/52/37 47/53/49 
usemtl Material__7923
f 48/54/2 1/55/1 3/56/2 
f 11/57/18 49/58/18 9/59/19 
f 50/60/50 51/61/51 52/62/52 
f 53/63/53 54/64/54 55/65/55 
usemtl Material__7910
f 56/66/56 57/67/57 58/68/58 
f 59/69/59 60/70/60 61/71/61 
f 62/72/62 25/73/63 63/74/64 
f 27/30/36 26/29/35 64/75/65 
usemtl Material__7923
f 65/76/2 66/77/1 67/78/2 
f 68/79/19 69/80/18 70/81/18 
f 71/82/54 72/83/55 73/84/53 
f 74/85/51 75/86/52 76/87/50 
f 69/88/18 68/89/19 77/90/19 
f 78/91/1 67/78/2 66/77/1 
f 79/92/66 80/93/29 81/94/30 
f 82/95/11 83/96/12 84/97/10 
f 85/98/67 86/99/68 87/100/69 
f 2/2/11 88/101/70 7/7/12 
f 20/25/31 89/102/66 21/23/29 
f 90/103/71 91/104/72 20/25/73 
usemtl Material__7910
f 23/26/74 25/28/63 92/105/75 
f 92/106/75 25/73/63 62/72/62 
usemtl Material__7923
f 93/107/76 94/108/77 95/109/78 
f 96/110/79 73/84/53 72/83/55 
f 75/86/52 74/85/51 97/111/80 
f 98/112/81 99/113/82 100/114/83 
f 101/115/84 102/116/85 103/117/84 
f 81/94/30 104/118/31 79/92/66 
f 79/92/86 105/119/87 106/120/88 
f 83/96/12 82/95/11 103/117/70 
f 107/121/82 51/61/83 108/122/81 
f 55/65/55 109/123/89 53/63/53 
f 51/61/51 110/124/80 52/62/52 
f 111/125/90 112/126/91 113/127/92 
usemtl Material__7910
f 114/128/93 60/129/94 59/130/59 
f 60/129/95 115/131/96 61/132/97 
f 47/53/49 28/52/37 27/133/36 
f 27/133/98 116/134/99 47/53/100 
f 117/135/101 61/132/97 115/131/96 
f 117/136/102 59/69/103 61/71/61 
usemtl Material__7923
f 95/109/78 118/137/92 93/107/76 
f 100/114/83 119/138/104 98/112/81 
usemtl Material__7910
f 120/139/105 23/26/74 92/105/75 
f 121/140/106 122/141/107 23/26/32 
usemtl Material__7923
f 123/142/71 106/120/88 105/119/87 
f 102/116/108 101/115/69 124/143/109 
f 86/99/68 85/98/67 125/144/109 
f 91/104/72 90/103/71 126/145/88 
f 113/127/92 127/146/76 111/125/90 
f 128/147/104 108/122/81 51/61/83 
usemtl Material__7910
f 47/148/100 116/149/99 44/150/110 
f 122/141/107 44/151/46 23/26/32 
f 43/47/45 129/152/111 59/130/112 
f 57/153/113 59/69/103 117/136/102 
f 114/128/93 130/154/94 60/129/94 
f 115/131/96 60/129/95 130/154/95 
usemtl Material__7923
f 131/155/3 67/78/5 78/91/114 
f 132/156/115 84/97/115 83/96/116 
f 51/61/117 50/60/118 9/157/16 
f 8/158/13 6/159/15 9/157/16 
f 133/160/119 134/161/120 135/162/121 
f 89/163/122 134/161/120 21/164/123 
f 136/165/124 137/166/125 70/167/126 
f 70/167/126 75/86/127 97/111/128 
f 138/168/129 65/169/130 67/170/131 
f 74/85/132 139/171/133 138/168/129 
f 55/172/134 135/173/121 109/174/135 
f 135/162/121 140/175/136 133/160/119 
usemtl Material__7910
f 28/52/37 46/51/48 141/176/137 
f 28/52/44 142/177/138 143/178/139 
f 117/136/101 56/179/140 58/180/141 
f 58/181/142 57/153/143 117/182/144 
f 24/183/33 23/48/32 144/184/145 
f 145/185/146 44/150/110 116/149/99 
f 122/186/147 146/187/148 147/188/149 
f 23/26/32 148/189/150 121/140/106 
usemtl Material__7923
f 132/156/115 149/190/115 84/97/115 
f 149/190/151 67/78/151 84/97/152 
f 79/191/153 136/192/124 69/193/154 
f 69/193/154 136/192/124 70/194/126 
f 90/195/155 150/196/156 86/99/157 
f 7/7/158 20/22/28 6/6/15 
usemtl Material__7910
f 43/197/45 151/198/159 152/199/160 
f 153/200/161 151/201/162 32/202/163 
f 92/105/75 154/203/164 120/139/105 
f 155/204/165 92/106/75 156/205/166 
usemtl Material__7923
f 157/206/167 158/207/168 97/111/169 
f 159/208/170 96/209/171 70/167/126 
f 136/192/124 79/191/153 103/117/172 
f 103/117/173 160/210/174 161/211/175 
f 112/212/176 162/213/174 163/214/177 
f 110/124/178 109/174/135 135/173/121 
usemtl Material__7910
f 130/154/94 114/128/93 129/152/179 
f 129/152/111 114/128/93 59/130/180 
usemtl Material__7923
f 105/215/181 102/116/182 124/143/183 
f 104/216/132 132/156/184 83/96/185 
f 134/161/120 89/163/122 88/101/171 
f 85/98/186 87/100/176 91/217/187 
f 119/138/188 100/114/181 94/218/189 
f 138/168/129 73/219/185 164/220/190 
f 51/61/191 165/221/192 127/222/193 
f 9/157/16 53/223/194 51/61/117 
usemtl Material__7910
f 32/202/163 151/201/195 57/153/196 
f 166/224/197 32/35/41 167/225/198 
usemtl Material__7923
f 67/78/131 149/190/199 132/156/184 
f 132/156/184 138/226/129 67/78/131 
usemtl Material__7910
f 168/227/200 167/225/201 57/67/57 
f 57/153/196 167/228/198 32/202/41 
f 23/26/74 169/229/202 170/230/203 
f 47/53/49 171/231/204 46/51/48 
f 156/232/205 172/233/206 173/234/207 
f 174/235/208 34/37/43 33/36/42 
f 168/227/200 57/67/57 56/66/56 
f 115/131/96 56/236/209 117/135/101 
f 147/188/149 47/53/100 122/186/147 
f 47/53/100 44/237/110 122/186/147 
f 174/235/210 175/238/211 176/239/212 
f 56/66/213 177/240/214 168/227/200 
f 31/34/40 178/241/215 29/32/38 
f 151/198/162 153/242/161 152/199/160 
usemtl Material__7923
f 161/211/175 101/115/216 103/117/173 
f 179/243/217 106/120/218 180/244/219 
f 85/98/186 91/217/187 181/245/220 
f 125/246/221 85/247/217 126/145/218 
f 119/138/188 94/218/189 93/248/222 
f 182/249/218 119/250/219 183/251/221 
f 183/251/221 118/137/217 182/249/218 
f 99/113/223 98/112/224 157/206/167 
f 184/252/225 124/143/225 185/253/226 
f 123/254/227 105/215/181 124/143/183 
usemtl Material__7910
f 174/235/228 156/232/229 186/255/230 
f 176/256/212 156/205/231 174/257/232 
f 172/258/233 156/205/234 187/259/235 
f 62/72/62 188/260/236 92/106/75 
usemtl Material__7923
f 127/222/193 189/261/237 51/61/191 
f 190/262/219 127/146/238 113/127/217 
f 108/122/239 163/214/177 162/213/174 
f 113/127/217 108/263/218 128/264/240 
usemtl Material__7910
f 40/43/241 39/265/242 37/266/243 
f 38/41/244 37/267/245 39/42/246 
f 191/268/247 192/269/247 193/270/247 
f 194/271/248 195/272/248 196/273/248 
f 197/274/248 198/275/248 199/276/248 
f 200/277/247 201/278/247 202/279/247 
f 192/269/247 191/268/247 203/280/247 
f 196/273/248 204/281/248 194/271/248 
f 205/282/248 199/276/248 198/275/248 
f 202/279/247 206/283/247 200/277/247 
f 30/33/39 129/152/111 43/47/45 
f 156/205/231 176/256/212 207/284/249 
usemtl Material__7923
f 126/145/218 208/285/219 125/246/221 
f 209/286/250 125/144/251 90/195/155 
usemtl Material__27357
s 2
f 210/287/252 211/288/253 212/289/254 
f 212/290/255 213/291/256 210/292/257 
usemtl Material__7910
s 1
f 42/293/258 35/294/259 41/44/260 
f 42/295/261 41/44/262 40/43/263 
f 214/296/264 178/297/215 31/298/40 
f 154/203/164 215/299/265 216/300/266 
f 14/301/267 13/302/268 15/17/269 
f 13/303/270 18/304/271 15/17/272 
f 12/305/273 19/306/274 16/18/275 
f 17/19/276 16/18/277 19/307/278 
f 38/41/244 35/308/273 37/267/245 
f 41/44/260 35/294/259 38/41/271 
f 40/43/263 36/309/267 42/295/261 
f 37/266/243 36/310/279 40/43/241 
f 12/305/273 16/18/275 18/20/244 
f 13/303/270 12/311/280 18/304/271 
f 17/19/263 14/301/267 15/17/269 
f 17/19/276 19/307/278 14/312/281 
usemtl Material__27358
s 2
f 217/313/282 218/314/283 219/315/284 
f 218/316/285 220/317/286 219/318/287 
usemtl Material__7910
s 1
f 221/319/288 173/234/207 172/233/206 
f 222/320/289 172/233/290 223/321/291 
usemtl Material__27357
s 2
f 224/287/252 225/322/292 226/323/293 
f 226/291/256 225/324/294 224/292/257 
f 227/325/295 211/326/296 212/327/297 
f 227/328/298 212/289/254 211/288/253 
usemtl Material__7923
s 1
f 228/329/299 184/330/221 179/243/217 
f 124/143/300 184/252/300 228/331/301 
usemtl Material__27357
s 2
f 229/332/302 230/333/303 231/334/304 
f 230/335/305 229/336/306 232/337/307 
usemtl Material__7923
s 1
f 132/338/184 233/339/308 234/340/309 
f 81/341/310 132/156/184 104/216/132 
usemtl Material__27357
s 2
f 235/335/305 236/336/306 237/337/307 
f 236/332/302 235/333/303 238/334/304 
usemtl Material__27358
f 239/313/282 240/314/283 241/315/284 
f 240/316/285 242/317/286 241/318/287 
f 217/313/311 220/317/286 218/316/285 
f 217/313/282 219/315/284 220/342/312 
f 239/313/282 241/315/284 242/342/312 
f 239/313/311 242/317/286 240/316/285 
usemtl Material__7910
s 1
f 171/231/204 243/343/313 46/51/314 
f 215/344/315 46/51/314 243/343/161 
usemtl Material__27357
s 2
f 211/345/316 213/291/256 212/290/255 
f 211/288/317 213/323/298 227/328/298 
f 227/325/318 213/346/319 211/326/320 
f 213/323/321 211/288/253 210/287/252 
usemtl Material__7910
s 1
f 147/188/322 244/347/323 243/343/313 
f 245/348/324 244/347/325 147/188/149 
f 166/224/197 176/239/326 175/238/327 
f 32/35/41 166/224/197 33/36/42 
f 186/255/230 246/349/328 173/234/207 
f 28/31/37 186/255/230 26/29/35 
f 145/350/329 247/351/330 44/49/331 
f 223/321/291 248/352/332 222/320/289 
f 249/353/333 155/354/334 214/296/264 
f 28/52/44 249/355/335 142/177/138 
usemtl Material__27357
s 2
f 250/356/336 238/357/257 251/358/337 
f 238/334/304 252/359/338 251/360/339 
f 253/356/336 231/357/257 254/358/337 
f 231/334/304 255/359/338 254/360/339 
usemtl Material__7923
s 1
f 134/361/120 1/55/340 135/173/121 
f 256/362/341 1/55/342 48/54/343 
f 135/173/344 52/62/344 110/124/345 
f 1/55/340 257/363/346 135/173/121 
usemtl Material__7910
f 258/364/347 187/259/235 156/205/234 
f 188/260/236 156/205/348 92/106/75 
f 23/26/74 120/139/105 169/229/202 
f 215/299/161 243/365/161 216/300/266 
usemtl Material__27357
s 2
f 224/287/252 259/366/349 260/367/350 
f 225/324/294 259/368/351 224/292/257 
usemtl Material__7910
s 1
f 62/72/62 63/74/64 172/258/352 
f 223/369/353 172/258/354 261/370/355 
f 207/284/356 176/256/357 129/152/111 
f 129/152/179 177/371/358 130/154/94 
usemtl Material__7923
f 262/372/359 88/101/360 2/2/359 
f 134/361/361 2/373/361 1/55/361 
usemtl Material__7910
f 27/30/98 222/320/362 116/149/99 
f 116/149/99 222/320/289 248/352/332 
f 244/374/363 245/375/364 148/189/150 
f 244/374/365 170/230/203 169/229/202 
usemtl Material__7923
f 263/376/366 82/95/366 78/91/367 
f 82/95/368 131/155/7 78/91/369 
f 82/95/370 263/376/371 136/192/124 
f 103/117/172 82/95/370 136/192/124 
f 136/192/372 263/376/373 78/91/373 
f 137/166/372 136/165/372 78/377/373 
usemtl Material__27357
s 2
f 264/378/374 211/345/305 265/379/375 
f 265/322/292 210/287/252 264/367/350 
f 264/378/376 266/368/351 265/324/294 
f 264/378/374 213/291/256 211/345/305 
usemtl Material__7910
s 1
f 147/188/149 146/187/148 245/348/324 
f 121/140/106 148/189/150 245/375/364 
f 143/178/139 32/202/41 28/52/44 
f 32/202/163 143/178/377 153/200/161 
usemtl Material__27357
s 2
f 267/380/378 238/334/379 251/360/339 
f 251/358/337 237/337/307 267/381/380 
f 267/381/380 237/337/307 236/336/306 
f 236/332/302 238/334/304 267/380/378 
f 268/381/381 232/337/307 229/336/306 
f 268/380/378 231/334/379 254/360/339 
f 229/332/302 231/334/304 268/380/378 
f 254/358/337 232/337/307 268/381/381 
usemtl Material__7923
s 1
f 179/382/382 185/253/383 161/211/175 
f 185/253/226 179/382/226 184/252/225 
usemtl Material__7910
f 223/321/291 247/383/384 145/185/146 
f 44/49/331 247/351/330 45/50/385 
usemtl Material__7923
f 54/64/386 53/63/387 9/59/386 
f 269/384/388 9/59/389 49/58/390 
f 270/385/391 69/88/392 77/90/393 
f 80/93/394 79/92/395 69/88/394 
f 11/11/396 10/13/397 271/386/391 
f 10/13/398 20/25/399 22/24/398 
f 234/340/309 138/168/129 132/338/184 
f 73/84/400 138/387/401 71/82/402 
f 138/168/129 234/340/309 71/388/403 
f 72/83/404 71/82/405 272/389/406 
f 68/79/407 234/390/407 233/391/408 
f 234/390/405 68/79/409 71/82/405 
f 70/167/126 137/166/125 75/86/127 
f 76/87/410 75/86/411 273/392/412 
f 66/393/413 75/86/414 137/166/414 
f 78/377/373 66/393/372 137/166/372 
usemtl Material__27357
s 2
f 253/394/317 230/333/303 229/332/302 
f 253/356/336 229/336/415 230/335/305 
f 253/356/336 255/395/416 231/357/257 
f 254/360/339 255/359/338 253/394/317 
usemtl Material__7910
s 1
f 261/370/355 144/184/145 223/369/353 
f 247/351/417 223/369/353 45/50/47 
f 178/241/215 155/204/165 156/205/166 
f 178/297/215 214/296/264 155/354/334 
usemtl Material__27357
s 2
f 250/394/317 235/333/303 236/332/302 
f 250/356/336 236/336/415 235/335/305 
f 250/356/336 252/395/416 238/357/257 
f 251/360/339 252/359/338 250/394/317 
f 210/287/252 266/366/349 264/367/350 
f 212/289/254 266/366/349 210/287/252 
f 265/324/294 266/368/351 210/292/257 
f 274/396/418 266/397/419 212/327/420 
usemtl Material__7910
s 1
f 207/284/356 275/398/421 156/205/422 
f 156/205/423 29/32/38 178/241/215 
usemtl Material__27357
s 2
f 225/322/292 224/287/252 260/367/350 
f 260/378/376 259/368/351 225/324/294 
f 225/324/294 226/291/256 260/378/374 
f 260/378/374 276/399/424 225/379/375 
usemtl Material__7910
s 1
f 155/354/425 249/353/426 215/299/265 
f 28/52/37 141/176/137 249/355/427 
f 142/177/138 153/200/428 143/178/377 
f 142/177/138 249/355/429 153/200/428 
usemtl Material__7923
f 257/363/430 1/55/430 52/62/431 
f 135/173/344 257/363/344 52/62/344 
usemtl Material__7910
f 222/320/432 27/30/36 64/75/65 
f 172/233/433 222/320/432 64/75/65 
usemtl Material__7923
f 124/143/300 228/331/301 180/400/434 
f 180/244/219 228/329/299 179/243/217 
f 97/111/435 100/114/436 99/113/435 
f 97/111/169 99/113/223 157/206/167 
usemtl Material__7910
f 176/256/357 177/371/437 129/152/111 
f 168/227/438 177/240/439 176/239/326 
usemtl Material__27357
s 2
f 277/290/255 226/291/256 224/292/257 
f 277/290/255 224/292/257 278/401/440 
f 277/289/254 259/366/349 224/287/252 
f 224/287/252 279/288/253 277/289/254 
usemtl Material__7923
s 1
f 165/221/441 51/61/442 53/223/443 
f 111/125/444 127/146/445 165/402/446 
f 128/264/240 190/262/219 113/127/217 
f 128/147/447 51/61/448 189/261/449 
f 160/210/450 103/117/451 79/191/452 
f 79/92/453 106/120/454 160/403/455 
f 97/111/456 74/85/457 100/114/457 
f 94/218/458 100/114/459 74/85/459 
f 150/404/460 90/103/461 20/25/462 
f 20/22/463 7/7/464 150/196/441 
f 95/109/465 94/108/466 96/110/465 
f 96/209/467 97/111/468 158/207/450 
usemtl Material__27357
s 2
f 278/396/418 259/397/419 277/327/469 
f 259/368/351 278/401/470 224/292/257 
usemtl Material__7910
s 1
f 203/280/471 196/405/471 192/269/471 
f 198/275/471 200/277/471 205/282/471 
f 194/271/472 191/268/472 193/270/472 
f 197/406/472 199/407/472 202/279/472 
usemtl Material__27357
s 2
f 279/325/295 276/326/296 277/327/297 
f 279/345/316 277/290/255 276/399/424 
f 226/408/473 225/379/474 276/399/475 
f 260/378/374 226/291/256 276/399/424 
usemtl Material__7923
s 1
f 81/94/476 270/385/477 77/90/478 
f 81/341/310 233/409/308 132/156/184 
f 55/172/134 140/410/136 135/173/121 
f 55/65/479 269/384/406 49/58/404 
f 77/90/408 68/89/407 233/411/408 
f 81/94/476 77/90/478 233/411/476 
usemtl Material__7910
f 148/189/150 170/230/480 244/374/363 
f 23/26/32 170/230/480 148/189/150 
usemtl Material__7923
f 55/65/479 49/58/404 140/412/479 
f 140/413/481 49/414/481 11/11/481 
f 107/121/482 108/122/483 162/213/484 
f 110/124/485 162/213/486 112/212/487 
usemtl Material__7910
f 146/187/148 121/415/488 245/348/489 
f 122/186/147 121/415/488 146/187/148 
usemtl Material__27357
s 2
f 279/345/316 226/291/256 277/290/255 
f 276/399/424 226/291/256 279/345/305 
f 279/325/318 226/346/319 276/326/320 
f 226/323/321 279/288/253 224/287/252 
usemtl Material__7910
s 1
f 63/74/64 261/370/490 172/258/352 
f 261/370/490 63/74/64 25/73/63 
f 280/416/491 56/66/492 58/68/493 
f 58/417/494 56/236/495 280/416/496 
f 59/69/112 57/153/497 43/197/45 
f 43/197/45 57/153/497 151/198/159 
usemtl Material__27357
s 2
f 265/324/294 213/291/256 264/378/374 
f 210/287/252 265/322/292 213/323/321 
f 213/291/256 265/324/294 210/292/257 
f 213/408/473 265/379/474 211/345/475 
usemtl Material__7910
s 1
f 258/364/347 156/205/498 188/260/236 
f 187/259/235 258/364/347 188/260/236 
f 223/321/291 145/185/146 248/352/332 
f 248/352/332 145/185/146 116/149/99 
usemtl Material__7923
f 87/100/499 86/99/500 7/7/500 
f 86/99/464 150/196/441 7/7/464 
f 91/217/501 87/100/502 88/101/502 
f 7/7/500 88/101/499 87/100/499 
f 161/211/175 185/253/383 101/115/216 
f 185/253/67 124/143/109 101/115/69 
usemtl Material__7910
f 174/235/208 186/255/503 34/37/43 
f 28/46/44 34/37/43 186/255/503 
usemtl Material__7923
f 72/83/504 70/81/504 96/110/505 
f 72/83/390 272/389/388 70/81/506 
f 159/208/170 70/167/126 97/111/128 
f 97/111/507 96/209/508 159/208/509 
f 134/161/120 133/160/119 21/164/123 
f 11/11/510 271/386/477 21/23/511 
f 189/261/449 190/418/447 128/147/447 
f 127/222/193 190/418/512 189/261/237 
f 133/419/511 11/11/510 21/23/511 
f 11/11/481 133/419/481 140/413/481 
f 119/138/188 93/248/222 183/420/513 
f 118/137/514 183/251/515 93/107/515 
f 98/112/516 119/138/517 182/421/516 
f 157/206/167 98/112/224 182/421/518 
f 157/206/167 182/421/518 118/422/519 
f 118/137/520 95/109/521 157/423/522 
f 161/424/523 160/403/455 106/120/454 
f 106/425/518 179/382/382 161/211/175 
usemtl Material__27357
s 2
f 231/334/304 230/333/303 255/359/338 
f 253/394/317 255/359/524 230/333/303 
f 253/356/336 230/335/305 255/395/416 
f 231/357/257 255/395/416 230/335/305 
usemtl Material__7923
s 1
f 112/126/465 53/63/466 109/123/465 
f 112/212/487 109/174/487 110/124/485 
f 73/219/458 74/85/459 164/220/525 
f 138/168/129 164/220/190 74/85/132 
f 50/60/526 256/362/412 48/54/410 
f 50/60/118 8/158/13 9/157/16 
f 85/98/186 181/245/220 126/426/527 
f 181/427/528 91/104/529 126/145/530 
f 8/158/531 50/60/531 48/54/532 
f 8/158/533 48/54/533 3/56/534 
usemtl Material__27357
s 2
f 238/357/257 252/395/416 235/335/305 
f 238/334/304 235/333/303 252/359/338 
f 250/394/317 252/359/524 235/333/303 
f 250/356/336 235/335/305 252/395/416 
usemtl Material__7923
s 1
f 89/102/535 20/25/536 91/104/535 
f 88/101/502 89/163/501 91/217/501 
usemtl Material__27357
s 2
f 212/290/255 210/292/257 274/401/440 
f 266/368/351 274/401/470 210/292/257 
usemtl Material__7923
s 1
f 86/99/157 209/286/250 90/195/155 
f 209/286/537 86/99/538 125/144/539 
f 102/116/500 83/96/500 103/117/499 
f 83/96/540 102/116/540 105/215/541 
usemtl Material__7910
f 173/234/207 246/349/328 156/232/205 
f 186/255/230 156/232/229 246/349/328 
f 144/184/145 45/50/47 223/369/353 
f 45/50/47 144/184/145 23/48/32 
f 172/258/352 187/259/235 62/72/62 
f 188/260/236 62/72/62 187/259/235 
f 152/199/160 31/298/40 43/197/45 
f 31/298/40 152/199/160 153/242/542 
f 26/29/35 281/428/543 64/75/65 
f 26/29/35 186/255/230 281/428/543 
f 281/428/543 173/234/207 221/319/288 
f 173/234/207 281/428/543 186/255/230 
f 275/398/421 207/284/356 30/33/39 
f 129/152/111 30/33/39 207/284/356 
f 175/238/327 33/36/42 166/224/197 
f 33/36/42 175/238/327 174/235/208 
usemtl Material__27357
s 2
f 235/335/305 237/337/307 238/357/257 
f 237/337/544 251/358/337 238/357/257 
usemtl Material__7923
s 1
f 3/3/5 2/2/114 4/4/3 
f 2/2/369 6/6/8 4/4/7 
f 66/393/545 273/392/412 75/86/411 
f 66/393/546 65/169/547 273/392/341 
usemtl Material__27357
s 2
f 230/335/305 232/337/307 231/357/257 
f 232/337/544 254/358/337 231/357/257 
usemtl Material__7923
s 1
f 1/55/342 256/362/341 52/62/546 
f 256/362/412 50/60/526 52/62/545 
f 131/155/7 82/95/368 84/97/6 
f 67/78/5 131/155/3 84/97/4 
f 68/79/409 272/389/406 71/82/405 
f 68/79/548 70/81/506 272/389/388 
f 22/24/478 21/23/511 271/386/477 
f 22/24/393 271/386/391 10/13/397 
f 9/59/389 269/384/388 54/64/548 
f 269/384/406 55/65/479 54/64/409 
f 270/385/477 81/94/476 80/93/510 
f 69/88/392 270/385/391 80/93/396 
usemtl Material__7910
f 47/53/49 147/188/322 171/231/204 
f 243/343/313 171/231/204 147/188/322 
f 216/300/266 120/139/105 154/203/164 
f 120/139/105 216/300/266 243/365/549 
usemtl Material__7923
f 108/122/239 113/429/550 163/214/177 
f 112/126/551 163/430/552 113/127/553 
usemtl Material__7910
f 115/131/96 177/371/554 56/236/555 
f 177/371/358 115/131/556 130/154/60 
usemtl Material__7923
f 88/101/171 262/372/557 134/161/120 
f 2/2/361 134/161/361 262/372/361 
f 53/63/466 112/126/465 111/125/558 
f 165/402/446 53/63/444 111/125/444 
f 105/215/541 104/216/541 83/96/540 
f 105/119/536 79/92/535 104/118/536 
usemtl Material__7910
f 200/277/471 206/283/471 205/282/471 
f 203/280/471 204/431/471 196/405/471 
f 194/271/472 193/270/472 195/272/472 
f 201/278/472 197/406/472 202/279/472 
f 92/105/75 155/354/425 154/203/164 
f 215/299/265 154/203/164 155/354/425 
usemtl Material__7923
f 180/400/559 123/254/227 124/143/183 
f 123/142/560 180/244/560 106/120/561 
f 76/87/343 273/392/341 65/169/547 
f 138/168/129 139/171/133 65/169/130 
usemtl Material__7910
f 167/225/198 168/227/438 166/224/197 
f 176/239/326 166/224/197 168/227/438 
usemtl Material__7923
f 74/85/562 76/87/563 139/171/563 
f 76/87/564 65/169/565 139/171/565 
usemtl Material__7910
f 64/75/65 221/319/288 172/233/433 
f 221/319/288 64/75/65 281/428/543 
f 156/205/566 275/398/421 29/32/38 
f 30/33/39 29/32/38 275/398/421 
f 24/183/33 144/184/145 261/370/355 
f 24/183/33 261/370/567 25/73/34 
usemtl Material__7923
f 158/207/168 157/206/167 95/432/173 
f 158/207/450 95/432/467 96/209/467 
usemtl Material__7910
f 243/365/549 169/229/202 120/139/105 
f 169/229/202 243/365/549 244/374/365 
f 215/344/315 141/176/137 46/51/48 
f 141/176/137 215/344/315 249/355/568 
f 214/296/264 153/242/542 249/353/333 
f 153/242/542 214/296/264 31/298/40 
usemtl Material__7923
f 73/84/466 96/110/465 94/108/466 
f 74/85/459 73/219/458 94/218/458 
f 90/195/155 125/144/251 208/433/512 
f 208/285/560 126/145/561 90/103/560 
f 107/121/569 110/124/456 51/61/457 
f 162/213/484 110/124/482 107/121/482 
# 530 faces

