# Made in Blockbench 4.10.4
mtllib cielo.mtl

o cube
v 31.25 62.1875 31.25
v 31.25 62.1875 -31.25
v 31.25 -0.3125 31.25
v 31.25 -0.3125 -31.25
v -31.25 62.1875 -31.25
v -31.25 62.1875 31.25
v -31.25 -0.3125 -31.25
v -31.25 -0.3125 31.25
vt -62.25 0.875
vt 0.25 0.875
vt 0.25 -61.625
vt -62.25 -61.625
vt -124.75 0.875
vt -62.25 0.875
vt -62.25 -61.625
vt -124.75 -61.625
vt 62.75 0.875
vt 125.25 0.875
vt 125.25 -61.625
vt 62.75 -61.625
vt 0.25 0.875
vt 62.75 0.875
vt 62.75 -61.625
vt 0.25 -61.625
vt 0.25 0.875
vt -62.25 0.875
vt -62.25 63.375
vt 0.25 63.375
vt 62.75 63.375
vt 0.25 63.375
vt 0.25 0.875
vt 62.75 0.875
vn 0 0 -1
vn 1 0 0
vn 0 0 1
vn -1 0 0
vn 0 1 0
vn 0 -1 0
usemtl m_08885413-794c-efbc-51a8-7f99c08285e9
f 4/4/1 7/3/1 5/2/1 2/1/1
f 3/8/2 4/7/2 2/6/2 1/5/2
f 8/12/3 3/11/3 1/10/3 6/9/3
f 7/16/4 8/15/4 6/14/4 5/13/4
f 6/20/5 1/19/5 2/18/5 5/17/5
f 7/24/6 4/23/6 3/22/6 8/21/6