# 3ds Max Wavefront OBJ Exporter v0.99 - (c)2007 guruware
# File Created: 28.04.2025 16:13:09

mtllib Mon_Prof.mtl

#
# object pCube007
#

v  3.4030 1.0289 0.2970
v  3.4028 0.8289 0.2972
v  2.7273 0.9336 0.2114
v  2.7275 1.0289 0.2111
v  2.7278 1.2859 0.2106
v  3.4031 1.2859 0.2968
v  2.6245 0.8289 0.3914
v  3.3000 0.8289 0.4462
v  2.0556 1.0510 0.1594
v  2.0559 1.0766 0.1587
v  3.3148 1.2859 0.4462
v  3.3148 1.0289 0.4462
v  4.1163 1.0289 0.5157
v  4.1163 1.2859 0.5157
v  2.0563 1.2859 0.1578
v  1.9741 0.8289 0.3507
v  3.2692 0.8289 0.4758
v  2.5978 0.8289 0.4214
v  1.3732 1.1457 0.1290
v  1.3734 1.1622 0.1283
v  1.3737 1.2859 0.1274
v  1.3188 0.8289 0.3215
v  2.6392 1.2859 0.3914
v  2.6392 1.0289 0.3914
v  1.9539 0.8289 0.3810
v  0.6876 1.2235 0.1100
v  0.6875 1.2184 0.1107
v  0.6877 1.2859 0.1091
v  0.6602 0.8289 0.3040
v  1.9888 1.2859 0.3507
v  1.9888 1.0289 0.3507
v  0.0000 0.8289 0.2981
v  0.0003 1.0033 0.2166
v  0.2476 0.9992 0.2166
v  0.2476 1.2320 0.1078
v  0.2476 1.2396 0.1061
v  0.2476 1.2859 0.1052
v  1.3053 0.8289 0.3522
v  -0.6875 1.2184 0.1107
v  -0.6876 1.2235 0.1100
v  -0.2706 1.2388 0.1063
v  -0.2706 1.2313 0.1079
v  1.3336 1.2859 0.3215
v  1.3336 1.0289 0.3215
v  -0.6877 1.2859 0.1091
v  -0.2706 1.2859 0.1054
v  -0.2706 0.9988 0.2166
v  -0.6602 0.8289 0.3040
v  0.6534 0.8289 0.3348
v  -1.3188 0.8289 0.3215
v  -1.3732 1.1457 0.1290
v  -1.3734 1.1622 0.1283
v  -1.3737 1.2859 0.1274
v  0.6750 1.2859 0.3040
v  0.6750 1.0289 0.3040
v  -2.0556 1.0510 0.1594
v  -2.0559 1.0766 0.1587
v  -1.9741 0.8289 0.3507
v  -2.0563 1.2859 0.1578
v  0.0000 0.8289 0.3290
v  -2.7273 0.9260 0.2114
v  -2.7275 1.0289 0.2111
v  -2.6245 0.8289 0.3914
v  -2.7278 1.2859 0.2106
v  2.6487 4.4961 0.3766
v  2.6487 1.3227 0.3766
v  3.3287 1.3226 0.4315
v  3.3287 4.4961 0.4315
v  0.0147 1.2859 0.2981
v  0.0147 1.0289 0.2981
v  -3.3000 0.8289 0.4462
v  -3.4028 0.8289 0.2972
v  -3.4030 1.0289 0.2970
v  -0.6534 0.8289 0.3348
v  -3.4031 1.2859 0.2968
v  1.9952 4.4961 0.3357
v  1.9952 1.3227 0.3357
v  -0.6455 1.2859 0.3040
v  -0.6455 1.0289 0.3040
v  -4.1810 1.0289 0.4006
v  -4.1817 0.8289 0.3996
v  -4.1801 1.2859 0.4020
v  -1.3053 0.8289 0.3522
v  1.3378 4.4961 0.3064
v  1.3378 1.3227 0.3064
v  -1.3041 1.2859 0.3215
v  -1.3041 1.0289 0.3215
v  0.6771 4.4961 0.2888
v  0.6771 1.3227 0.2888
v  -1.9539 0.8289 0.3810
v  -0.2706 1.5437 0.2166
v  0.2476 1.5437 0.2166
v  -1.9594 1.2859 0.3507
v  -1.9594 1.0289 0.3507
v  0.0147 4.4961 0.2829
v  0.0147 1.3227 0.2829
v  -2.5978 0.8289 0.4214
v  -2.6097 1.2859 0.3914
v  -2.6097 1.0289 0.3914
v  -0.6476 4.4961 0.2888
v  -0.6476 1.3227 0.2888
v  -3.2692 0.8289 0.4758
v  -1.3083 4.4961 0.3064
v  -1.3083 1.3227 0.3064
v  -3.2853 1.2859 0.4462
v  -3.2853 1.0289 0.4462
v  -4.1016 0.8289 0.5157
v  -4.0697 0.8289 0.5453
v  -1.9658 4.4961 0.3357
v  -1.9658 1.3227 0.3357
v  -4.0868 1.2859 0.5157
v  -4.0868 1.0289 0.5157
v  -4.0697 1.0105 0.5453
v  -4.0782 1.0289 0.5374
v  0.0000 1.5437 0.1021
v  0.2476 1.5437 0.1043
v  -0.2706 1.5437 0.1045
v  -2.6192 4.4961 0.3766
v  -2.6192 1.3227 0.3766
v  -3.2993 4.4961 0.4315
v  -3.2993 1.3226 0.4315
v  4.0697 0.8289 0.5453
v  4.1016 0.8289 0.5157
v  4.1801 1.2859 0.4020
v  4.1810 1.0289 0.4006
v  4.1817 0.8289 0.3996
v  4.0782 1.0289 0.5374
v  4.0697 1.0105 0.5453
v  3.2774 1.0289 0.4680
v  3.2692 1.0104 0.4758
v  2.5978 1.0105 0.4214
v  2.6024 1.0289 0.4132
v  1.9539 1.0105 0.3810
v  1.9574 1.0289 0.3728
v  1.3053 1.0105 0.3522
v  1.3076 1.0289 0.3438
v  0.6534 1.0105 0.3348
v  0.6546 1.0289 0.3264
v  0.0000 1.0105 0.3290
v  0.0000 1.0289 0.3206
v  -0.6534 1.0105 0.3348
v  -0.6546 1.0289 0.3264
v  -1.3053 1.0105 0.3522
v  -1.3076 1.0289 0.3438
v  -1.9539 1.0105 0.3810
v  -1.9574 1.0289 0.3728
v  -2.5978 1.0105 0.4214
v  -2.6024 1.0289 0.4132
v  -3.2691 1.0104 0.4758
v  -3.2773 1.0289 0.4680
v  0.6864 4.5329 0.1183
v  1.3711 4.5329 0.1366
v  1.3752 4.5195 0.1221
v  0.6885 4.5195 0.1038
v  1.3769 4.4872 0.1161
v  0.6893 4.4872 0.0978
v  -4.1004 4.5329 0.4308
v  -3.3829 4.5329 0.3127
v  -3.3987 4.5196 0.2992
v  -4.1484 4.5196 0.4225
v  -3.4053 4.4873 0.2937
v  -4.1683 4.4875 0.4190
v  4.1683 4.4875 0.4190
v  3.4053 4.4873 0.2937
v  2.7308 4.4873 0.2052
v  2.0610 4.4872 0.1466
v  4.1016 4.4873 0.5157
v  -0.6893 4.4872 0.0978
v  -1.3769 4.4872 0.1161
v  -2.0610 4.4872 0.1466
v  -2.7308 4.4873 0.2052
v  4.1004 4.5329 0.4308
v  3.3829 4.5329 0.3127
v  3.3000 4.5329 0.4462
v  4.0451 4.5329 0.5108
v  2.7137 4.5329 0.2249
v  2.6245 4.5329 0.3914
v  2.0504 4.5329 0.1668
v  1.9741 4.5329 0.3507
v  0.0000 4.4872 0.0917
v  1.3188 4.5329 0.3215
v  0.6602 4.5329 0.3040
v  0.0000 4.5329 0.1122
v  0.0000 4.5329 0.2981
v  -0.6864 4.5329 0.1183
v  -0.6602 4.5329 0.3040
v  -1.3711 4.5329 0.1366
v  -1.3188 4.5329 0.3215
v  -2.0504 4.5329 0.1668
v  -1.9741 4.5329 0.3507
v  -2.7137 4.5329 0.2249
v  -2.6245 4.5329 0.3914
v  -4.0868 4.4873 0.5157
v  -3.3000 4.5329 0.4462
v  -4.0451 4.5329 0.5108
v  4.0761 1.3226 0.4962
v  4.0761 4.4515 0.4962
v  4.0617 4.4830 0.4950
v  4.0268 4.4960 0.4920
v  -4.0466 4.4515 0.4962
v  -4.0466 1.3226 0.4962
v  -3.9973 4.4960 0.4920
v  -4.0322 4.4830 0.4950
v  4.1484 4.5196 0.4225
v  3.3988 4.5196 0.2992
v  4.0850 4.5196 0.5143
v  2.7258 4.5195 0.2110
v  2.0579 4.5195 0.1525
v  -1.3752 4.5195 0.1221
v  -0.6885 4.5195 0.1038
v  0.0000 4.5195 0.0977
v  -2.7258 4.5195 0.2110
v  -2.0579 4.5195 0.1525
v  -4.0850 4.5196 0.5143
v  2.6253 1.3227 0.3919
v  3.3039 1.3226 0.4466
v  2.6253 4.4961 0.3919
v  3.3039 4.4961 0.4466
v  1.9739 1.3227 0.3510
v  1.9739 4.4961 0.3510
v  1.3187 1.3227 0.3219
v  1.3187 4.4961 0.3219
v  0.6602 1.3227 0.3043
v  0.6602 4.4961 0.3043
v  0.0000 1.3227 0.2985
v  0.0000 4.4961 0.2985
v  -0.6602 1.3227 0.3043
v  -0.6602 4.4961 0.3043
v  -1.3187 1.3227 0.3219
v  -1.3187 4.4961 0.3219
v  -1.9739 1.3227 0.3510
v  -1.9739 4.4961 0.3510
v  -2.6253 1.3227 0.3919
v  -2.6252 4.4961 0.3919
v  -3.3039 1.3226 0.4466
v  -3.3039 4.4961 0.4466
v  4.0016 4.4960 0.5071
v  4.0510 1.3226 0.5114
v  4.0510 4.4515 0.5114
v  4.0365 4.4830 0.5101
v  -4.0365 4.4830 0.5101
v  -4.0362 4.4515 0.5114
v  -4.0362 1.3226 0.5114
v  -4.0016 4.4960 0.5071
v  -0.3318 0.0584 -0.4486
v  -0.3318 2.0697 0.0753
v  -0.3318 2.0697 -0.0358
v  -0.3318 0.0584 -0.5596
v  0.3002 2.0697 -0.0358
v  0.3002 2.0697 0.0753
v  0.3002 0.0584 -0.4486
v  0.3002 0.0584 -0.5596
v  -0.0149 2.0697 0.0753
v  -0.0149 0.0584 -0.4486
v  -0.0158 2.0697 -0.1842
v  -0.0158 0.0584 -0.7080
v  -0.1738 0.0584 -0.6881
v  -0.1738 2.0697 -0.1643
v  -0.2895 0.0584 -0.6338
v  -0.2895 2.0697 -0.1100
v  0.1422 0.0584 -0.6881
v  0.1422 2.0697 -0.1643
v  0.2579 0.0584 -0.6338
v  0.2579 2.0697 -0.1100
v  -0.1738 -0.3399 -0.7919
v  -0.0158 -0.3399 -0.8117
v  0.1422 -0.3399 -0.7919
v  0.2579 -0.3399 -0.7375
v  0.3002 -0.3399 -0.6633
v  0.3002 -0.3399 -0.5523
v  -0.0149 -0.3399 -0.5523
v  -0.3318 -0.3399 -0.5523
v  -0.3318 -0.3399 -0.6633
v  -0.2895 -0.3399 -0.7375
v  2.5504 -0.1110 0.6589
v  2.5425 -0.1110 0.7276
v  2.5145 -0.3394 0.7263
v  2.5224 -0.3394 0.6576
v  0.3002 -0.2561 -0.5305
v  0.3002 -0.2561 -0.6415
v  0.2579 -0.2561 -0.7157
v  0.1422 -0.2561 -0.7700
v  -0.0158 -0.2561 -0.7899
v  -0.1738 -0.2561 -0.7700
v  -0.2895 -0.2561 -0.7157
v  -0.3318 -0.2561 -0.6415
v  -0.3318 -0.2561 -0.5305
v  0.3002 -0.3399 -0.4755
v  -0.0149 -0.3399 -0.4755
v  0.3002 0.0584 -0.3718
v  0.3002 -0.2561 -0.4537
v  -0.0149 0.0584 -0.3718
v  -0.3318 -0.2561 -0.4537
v  -0.3318 0.0584 -0.3718
v  -0.3318 -0.3399 -0.4755
v  -0.0149 -0.2561 -0.4537
v  0.3002 -0.2561 -0.1488
v  -0.0149 -0.2561 -0.1488
v  0.3002 -0.0214 -0.0246
v  -0.0149 -0.0214 -0.0246
v  -0.3318 -0.2561 -0.1488
v  -0.3318 -0.0214 -0.0246
v  0.3002 -0.3358 0.0011
v  -0.0149 -0.3358 0.0011
v  0.3002 -0.1011 0.1253
v  -0.0149 -0.1011 0.1253
v  -0.3318 -0.3358 0.0011
v  -0.3318 -0.1011 0.1253
v  0.3002 -0.3326 0.3012
v  -0.0149 -0.3326 0.3012
v  0.3002 -0.1043 0.3029
v  -0.0149 -0.1043 0.3029
v  -0.3318 -0.3326 0.3012
v  -0.3318 -0.1043 0.3029
v  -2.5690 -0.1110 0.6531
v  -2.5365 -0.3394 0.6520
v  -2.5393 -0.3394 0.7320
v  -2.5718 -0.1110 0.7332
v  0.0082 -0.1078 0.4051
v  0.0082 -0.3361 0.4034
v  0.2771 -0.3361 0.4034
v  0.2771 -0.1078 0.4051
v  -0.3085 -0.3361 0.4034
v  -0.0382 -0.3361 0.4034
v  -0.0382 -0.1078 0.4051
v  -0.3085 -0.1078 0.4051
v  0.0394 -0.1110 0.5340
v  0.0367 -0.3394 0.5327
v  0.3321 -0.3394 0.4639
v  0.3359 -0.1110 0.4652
v  -0.3501 -0.3394 0.4584
v  -0.0796 -0.3394 0.5384
v  -0.0827 -0.1110 0.5395
v  -0.3544 -0.1110 0.4595
# 334 vertices

vn 0.3459 0.0013 -0.9383
vn 0.3451 0.0017 -0.9386
vn 0.3082 -0.0076 -0.9513
vn 0.2887 -0.0058 -0.9574
vn 0.2867 -0.0044 -0.9580
vn 0.3661 0.0012 -0.9306
vn -0.0357 -0.9710 -0.2364
vn -0.0403 -0.9586 -0.2820
vn -0.0289 -0.9960 -0.0848
vn -0.0226 -0.9975 -0.0663
vn 0.1901 -0.0310 -0.9813
vn 0.1812 -0.0130 -0.9834
vn -0.2308 -0.0011 0.9730
vn -0.2309 0.0000 0.9730
vn -0.2377 0.0000 0.9713
vn -0.2377 -0.0002 0.9713
vn 0.1767 -0.0069 -0.9842
vn -0.0171 -0.9112 -0.4116
vn -0.0185 -0.8836 -0.4678
vn 0.0000 -1.0000 -0.0000
vn 0.0955 -0.0950 -0.9909
vn 0.1060 -0.0238 -0.9941
vn 0.1000 -0.0081 -0.9950
vn -0.0063 -0.8439 -0.5364
vn -0.0068 -0.8047 -0.5937
vn -0.1990 -0.0024 0.9800
vn -0.1991 0.0000 0.9800
vn 0.0592 -0.0443 -0.9973
vn 0.0001 -0.7458 -0.6661
vn 0.0505 -0.0082 -0.9987
vn -0.0007 -0.8011 -0.5985
vn -0.1494 -0.0028 0.9888
vn -0.1494 0.0000 0.9888
vn -0.0002 -0.7887 -0.6147
vn -0.0002 -0.7319 -0.6814
vn 0.0046 -0.7317 -0.6816
vn 0.0046 -0.7288 -0.6847
vn 0.0221 -0.0733 -0.9971
vn 0.0250 -0.0081 -0.9997
vn -0.0003 -0.7462 -0.6657
vn -0.0597 -0.0435 -0.9973
vn -0.0222 -0.0721 -0.9972
vn -0.0051 -0.7292 -0.6843
vn -0.0998 -0.0028 0.9950
vn -0.0998 0.0000 0.9950
vn -0.0506 -0.0082 -0.9987
vn -0.0250 -0.0081 -0.9997
vn -0.0051 -0.7321 -0.6812
vn 0.0005 -0.8019 -0.5975
vn 0.0063 -0.8439 -0.5364
vn 0.0068 -0.8047 -0.5937
vn -0.0955 -0.0950 -0.9909
vn -0.1060 -0.0238 -0.9941
vn -0.1000 -0.0081 -0.9950
vn -0.0500 -0.0028 0.9987
vn -0.0500 0.0000 0.9988
vn -0.1913 -0.0295 -0.9811
vn -0.1814 -0.0129 -0.9833
vn 0.0206 -0.9123 -0.4091
vn 0.0221 -0.8848 -0.4655
vn -0.1767 -0.0069 -0.9842
vn -0.3075 -0.0073 -0.9515
vn -0.2886 -0.0057 -0.9574
vn 0.0380 -0.9727 -0.2289
vn 0.0436 -0.9609 -0.2735
vn -0.2867 -0.0044 -0.9580
vn -0.1986 0.0000 0.9801
vn -0.2300 0.0000 0.9732
vn -0.0000 -0.0028 1.0000
vn -0.0000 0.0000 1.0000
vn 0.0210 -0.9979 -0.0615
vn 0.0268 -0.9965 -0.0786
vn -0.3450 0.0017 -0.9386
vn -0.3459 0.0013 -0.9383
vn -0.3661 0.0012 -0.9306
vn 0.0500 -0.0028 0.9987
vn 0.0500 0.0000 0.9988
vn -0.3522 0.0049 -0.9359
vn -0.3496 0.0049 -0.9369
vn -0.3864 0.0049 -0.9223
vn 0.0998 -0.0028 0.9950
vn 0.0998 0.0000 0.9950
vn 0.0000 0.0000 -1.0000
vn 0.1494 -0.0028 0.9888
vn 0.1494 0.0000 0.9888
vn 0.1990 -0.0024 0.9800
vn 0.1990 0.0000 0.9800
vn 0.2308 -0.0011 0.9730
vn 0.2309 0.0000 0.9730
vn 0.2377 -0.0002 0.9713
vn 0.2377 0.0000 0.9713
vn -0.9713 0.0000 0.2377
vn -0.9648 0.0000 0.2628
vn -0.9682 0.0000 0.2502
vn -0.9342 0.0000 0.3568
vn 0.1986 0.0000 0.9801
vn 0.2300 0.0000 0.9732
vn -1.0000 0.0000 -0.0000
vn 1.0000 0.0000 0.0000
vn 0.3864 0.0049 -0.9223
vn 0.3522 0.0049 -0.9359
vn 0.9682 0.0000 0.2502
vn 0.9713 0.0000 0.2377
vn 0.9648 -0.0000 0.2628
vn 0.9713 -0.0000 0.2377
vn 0.9342 0.0000 0.3568
vn 0.3496 0.0049 -0.9369
vn -0.1639 0.7058 0.6892
vn -0.1633 0.7058 0.6893
vn -0.1684 0.7060 0.6879
vn -0.1410 0.7065 0.6936
vn -0.1056 0.7072 0.6991
vn -0.0705 0.7072 0.7035
vn -0.0353 0.7072 0.7061
vn -0.0000 0.7072 0.7070
vn 0.0353 0.7072 0.7061
vn 0.0705 0.7072 0.7035
vn 0.1056 0.7072 0.6991
vn 0.1410 0.7065 0.6936
vn 0.1633 0.7058 0.6893
vn 0.1639 0.7058 0.6892
vn 0.1684 0.7060 0.6879
vn -0.2310 0.0000 0.9730
vn 0.0000 1.0000 -0.0000
vn -0.1992 0.0000 0.9800
vn 0.1991 0.0000 0.9800
vn 0.1992 0.0000 0.9800
vn -0.0000 1.0000 -0.0000
vn 0.2310 0.0000 0.9730
vn 0.0016 0.9995 -0.0317
vn 0.0032 0.9995 -0.0316
vn 0.0383 0.9232 -0.3825
vn 0.0192 0.9232 -0.3839
vn 0.0463 0.3774 -0.9249
vn 0.0924 0.3774 -0.9214
vn 0.0998 -0.0037 -0.9950
vn 0.0503 -0.0036 -0.9987
vn -0.0424 0.9979 -0.0491
vn -0.0171 0.9990 -0.0409
vn -0.1476 0.9242 -0.3524
vn -0.2143 0.9445 -0.2488
vn -0.3878 0.3866 -0.8367
vn -0.3570 0.3841 -0.8515
vn -0.3678 0.0053 -0.9299
vn -0.3892 0.0082 -0.9211
vn 0.3892 0.0082 -0.9211
vn 0.3678 0.0053 -0.9299
vn 0.2871 -0.0003 -0.9579
vn 0.1767 -0.0027 -0.9843
vn 0.9713 0.0029 0.2377
vn 0.9713 0.0037 0.2377
vn -0.0504 -0.0036 -0.9987
vn -0.0998 -0.0037 -0.9950
vn -0.1767 -0.0027 -0.9843
vn -0.2871 -0.0003 -0.9579
vn 0.0424 0.9979 -0.0491
vn 0.0171 0.9990 -0.0409
vn 0.0166 0.9999 0.0041
vn 0.0107 0.9993 -0.0348
vn 0.0061 0.9994 -0.0330
vn 0.0000 -0.0036 -1.0000
vn 0.0000 -0.0078 -1.0000
vn -0.0250 -0.0078 -0.9997
vn 0.0000 0.9995 -0.0317
vn -0.0016 0.9995 -0.0317
vn -0.0032 0.9995 -0.0316
vn -0.0061 0.9994 -0.0330
vn 0.0250 -0.0078 -0.9997
vn -0.0107 0.9993 -0.0348
vn -0.9713 0.0029 0.2377
vn -0.9713 0.0037 0.2377
vn -0.0166 0.9999 0.0041
vn -0.2373 0.0000 0.9714
vn 0.2373 0.0000 0.9714
vn 0.3878 0.3866 -0.8367
vn 0.3570 0.3841 -0.8515
vn 0.2143 0.9445 -0.2488
vn 0.1476 0.9242 -0.3524
vn 0.8973 0.3828 0.2198
vn 0.3709 0.9242 0.0909
vn 0.1130 0.9237 -0.3661
vn 0.2726 0.3802 -0.8838
vn 0.0700 0.9235 -0.3773
vn 0.1689 0.3785 -0.9101
vn -0.0924 0.3774 -0.9214
vn -0.0463 0.3774 -0.9249
vn -0.0192 0.9232 -0.3839
vn -0.0383 0.9232 -0.3825
vn 0.0000 0.3774 -0.9261
vn 0.0000 0.9232 -0.3844
vn -0.2726 0.3802 -0.8838
vn -0.1689 0.3785 -0.9101
vn -0.0700 0.9235 -0.3773
vn -0.1130 0.9237 -0.3661
vn -0.3709 0.9242 0.0909
vn -0.8973 0.3828 0.2198
vn -0.1991 -0.0188 0.9798
vn -0.2308 -0.0086 0.9730
vn -0.1992 0.0188 0.9798
vn -0.2306 0.0088 0.9730
vn -0.2297 0.0095 0.9732
vn -0.1985 0.0189 0.9799
vn -0.1494 -0.0224 0.9885
vn -0.1494 0.0224 0.9885
vn -0.0998 -0.0221 0.9948
vn -0.0998 0.0221 0.9948
vn -0.0499 -0.0221 0.9985
vn -0.0499 0.0221 0.9985
vn -0.0000 -0.0221 0.9998
vn -0.0000 0.0221 0.9998
vn 0.0499 -0.0221 0.9985
vn 0.0499 0.0221 0.9985
vn 0.0998 -0.0221 0.9948
vn 0.0998 0.0221 0.9948
vn 0.1494 -0.0224 0.9885
vn 0.1494 0.0224 0.9885
vn 0.1991 -0.0188 0.9798
vn 0.1985 0.0189 0.9799
vn 0.1992 0.0188 0.9798
vn 0.2308 -0.0087 0.9730
vn 0.2297 0.0095 0.9732
vn 0.2306 0.0088 0.9730
vn -0.2375 0.0033 0.9714
vn -0.2375 0.0029 0.9714
vn -0.2377 -0.0005 0.9713
vn -0.2377 -0.0000 0.9713
vn 0.2377 -0.0000 0.9713
vn 0.2377 -0.0005 0.9713
vn 0.2375 0.0033 0.9714
vn 0.2375 0.0029 0.9714
vn 0.0000 1.0000 0.0000
vn 0.0001 1.0000 0.0000
vn -0.0001 -1.0000 -0.0000
vn -0.0000 -1.0000 -0.0000
vn -0.0000 1.0000 0.0000
vn -0.0001 1.0000 0.0000
vn 0.0001 -1.0000 -0.0000
vn -0.0215 -0.9998 -0.0053
vn -0.9714 0.0000 -0.2373
vn -0.9714 -0.0037 -0.2373
vn -0.9109 -0.3474 -0.2225
vn -0.4082 -0.9074 -0.0997
vn 0.9109 -0.3474 -0.2225
vn 0.9714 -0.0037 -0.2373
vn 0.9714 0.0000 -0.2373
vn 0.0215 -0.9998 -0.0053
vn 0.0215 -0.9998 -0.0052
vn 0.4082 -0.9074 -0.0997
vn -0.9976 0.0335 -0.0601
vn -0.9905 0.0669 -0.1202
vn 0.9976 0.0335 -0.0601
vn 0.9905 0.0669 -0.1202
vn -0.0000 -0.4862 0.8738
vn -0.2588 0.4697 -0.8441
vn -0.4702 0.4291 -0.7712
vn -0.5351 0.4108 -0.7382
vn -0.7071 0.3438 -0.6179
vn -0.9659 0.1259 -0.2262
vn 0.4702 0.4291 -0.7712
vn 0.2588 0.4697 -0.8441
vn 0.5351 0.4108 -0.7382
vn 0.7071 0.3438 -0.6179
vn 0.9659 0.1259 -0.2262
vn 0.0000 -1.0000 0.0000
vn 0.9931 -0.1075 0.0467
vn 0.9914 0.0637 -0.1144
vn 0.4766 0.4275 -0.7682
vn -0.4766 0.4275 -0.7682
vn -0.9914 0.0637 -0.1144
vn -0.0000 0.9962 0.0876
vn 0.9887 0.0728 -0.1308
vn 0.4581 0.4322 -0.7767
vn -0.4581 0.4322 -0.7767
vn -0.9887 0.0728 -0.1308
vn 0.0000 -0.9967 -0.0817
vn -0.0000 0.9889 0.1484
vn 0.0000 -0.9969 -0.0793
vn -0.0000 0.9931 0.1177
vn -0.0000 -1.0000 0.0002
vn 0.9996 -0.0004 0.0273
vn 0.9996 -0.0004 0.0277
vn -0.0000 0.9999 0.0110
vn -0.9996 -0.0004 0.0275
vn -0.9996 -0.0004 0.0278
vn -0.9922 -0.1235 -0.0144
vn -0.9956 0.0015 0.0936
vn -0.9957 -0.0015 0.0925
vn -0.0021 -0.9999 -0.0157
vn -0.0024 -0.9999 -0.0156
vn 0.9963 -0.0016 -0.0857
vn 0.9964 -0.0016 -0.0845
vn 0.0024 0.9999 0.0156
vn 0.0021 0.9999 0.0157
vn 0.0027 -0.9999 -0.0155
vn 0.0024 -0.9999 -0.0156
vn 0.9935 0.0018 0.1140
vn 0.9957 -0.0015 0.0930
vn 0.9935 0.0018 0.1141
vn -0.0024 0.9999 0.0156
vn -0.0028 0.9999 0.0155
vn -0.9986 -0.0024 -0.0529
vn -0.9985 -0.0024 -0.0542
vn -0.9955 0.0038 0.0945
vn -0.0004 -1.0000 -0.0015
vn -0.0009 -1.0000 -0.0030
vn 0.9324 -0.0017 -0.3613
vn 0.0004 1.0000 0.0014
vn 0.0009 1.0000 0.0030
vn 0.0005 -1.0000 -0.0014
vn 0.0008 -1.0000 -0.0022
vn 0.9915 0.0042 0.1300
vn -0.0005 1.0000 0.0014
vn -0.0008 1.0000 0.0022
vn -0.9501 -0.0038 -0.3119
vn -0.1861 -0.0010 0.9825
vn 0.2094 -0.0008 -0.9778
vn 0.1872 0.0023 0.9823
vn -0.2096 -0.0044 -0.9778
# 318 vertex normals

vt 0.1458 0.0135 0.0000
vt 0.1458 0.0000 0.0000
vt 0.1667 0.0000 0.0000
vt 0.1667 0.0135 0.0000
vt 0.1667 0.0308 0.0000
vt 0.1458 0.0308 0.0000
vt 0.6250 0.7917 0.0000
vt 0.3750 0.7917 0.0000
vt 0.3750 0.7708 0.0000
vt 0.6250 0.7708 0.0000
vt 0.1875 0.0000 0.0000
vt 0.1875 0.0135 0.0000
vt 0.8542 0.0308 0.0000
vt 0.8542 0.0135 0.0000
vt 0.8750 0.0135 0.0000
vt 0.8750 0.0308 0.0000
vt 0.1875 0.0308 0.0000
vt 0.6250 0.8125 0.0000
vt 0.3750 0.8125 0.0000
vt 0.8542 0.0000 0.0000
vt 0.8333 0.0000 0.0000
vt 0.2083 0.0000 0.0000
vt 0.2083 0.0135 0.0000
vt 0.2083 0.0308 0.0000
vt 0.6250 0.8333 0.0000
vt 0.3750 0.8333 0.0000
vt 0.8333 0.0308 0.0000
vt 0.8333 0.0135 0.0000
vt 0.8125 0.0000 0.0000
vt 0.2292 0.0135 0.0000
vt 0.2292 0.0000 0.0000
vt 0.2292 0.0308 0.0000
vt 0.6250 0.8542 0.0000
vt 0.3750 0.8542 0.0000
vt 0.8125 0.0308 0.0000
vt 0.8125 0.0135 0.0000
vt 0.6250 0.8750 0.0000
vt 0.5189 0.8750 0.0000
vt 0.5167 0.8675 0.0000
vt 0.3750 0.8675 0.0000
vt 0.2425 -0.0000 0.0000
vt 0.2425 0.0135 0.0000
vt 0.2425 0.0308 0.0000
vt 0.7917 0.0000 0.0000
vt 0.2708 0.0000 0.0000
vt 0.2708 0.0135 0.0000
vt 0.2582 0.0135 0.0000
vt 0.2582 0.0000 0.0000
vt 0.7917 0.0308 0.0000
vt 0.7917 0.0135 0.0000
vt 0.2708 0.0308 0.0000
vt 0.2582 0.0308 0.0000
vt 0.3750 0.8958 0.0000
vt 0.3750 0.8832 0.0000
vt 0.5165 0.8832 0.0000
vt 0.6250 0.8958 0.0000
vt 0.7708 0.0000 0.0000
vt 0.6250 0.9167 0.0000
vt 0.3750 0.9167 0.0000
vt 0.2917 0.0000 0.0000
vt 0.2917 0.0135 0.0000
vt 0.2917 0.0308 0.0000
vt 0.7708 0.0308 0.0000
vt 0.7708 0.0135 0.0000
vt 0.3125 0.0000 0.0000
vt 0.3125 0.0135 0.0000
vt 0.6250 0.9375 0.0000
vt 0.3750 0.9375 0.0000
vt 0.3125 0.0308 0.0000
vt 0.7500 0.0000 0.0000
vt 0.3333 0.0000 0.0000
vt 0.3333 0.0135 0.0000
vt 0.6250 0.9583 0.0000
vt 0.3750 0.9583 0.0000
vt 0.3333 0.0308 0.0000
vt 0.8251 0.9000 -0.3750
vt 0.8251 0.0103 -0.3750
vt 0.9084 0.0103 1.7398
vt 0.9084 0.9000 1.7398
vt 0.7500 0.0308 0.0000
vt 0.7500 0.0135 0.0000
vt 0.6250 0.9792 0.0000
vt 0.3750 0.9792 0.0000
vt 0.3542 0.0000 0.0000
vt 0.3542 0.0135 0.0000
vt 0.7292 0.0000 0.0000
vt 0.3542 0.0308 0.0000
vt 0.7451 0.9000 -1.9539
vt 0.7451 0.0103 -1.9539
vt 0.7292 0.0308 0.0000
vt 0.7292 0.0135 0.0000
vt 0.3750 0.0135 0.0000
vt 0.3750 0.0000 0.0000
vt 0.3750 0.0308 0.0000
vt 0.7083 0.0000 0.0000
vt 0.6645 0.9000 -3.0824
vt 0.6645 0.0103 -3.0824
vt 0.7083 0.0308 0.0000
vt 0.7083 0.0135 0.0000
vt 0.5836 0.9000 -3.7606
vt 0.5836 0.0103 -3.7606
vt 0.6875 0.0000 0.0000
vt 0.7557 0.0494 0.0000
vt 0.6250 0.0477 0.0000
vt 0.6250 0.2500 0.0000
vt 0.8750 0.2500 0.0000
vt 0.8750 0.0479 0.0000
vt 0.6875 0.0308 0.0000
vt 0.6875 0.0135 0.0000
vt 0.5025 0.9000 -3.9868
vt 0.5025 0.0103 -3.9868
vt 0.6667 0.0000 0.0000
vt 0.6667 0.0308 0.0000
vt 0.6667 0.0135 0.0000
vt 0.4213 0.9000 -3.7606
vt 0.4213 0.0103 -3.7606
vt 0.6458 0.0000 0.0000
vt 0.3404 0.9000 -3.0824
vt 0.3404 0.0103 -3.0824
vt 0.6458 0.0308 0.0000
vt 0.6458 0.0135 0.0000
vt 0.3750 1.0000 0.0000
vt 0.6250 1.0000 0.0000
vt 0.6250 0.0000 0.0000
vt 0.2598 0.9000 -1.9539
vt 0.2598 0.0103 -1.9539
vt 0.6250 0.0308 0.0000
vt 0.6250 0.0135 0.0000
vt 0.6250 0.0123 0.0000
vt 0.3810 0.3806 0.0000
vt 0.3857 0.5000 0.0000
vt 0.6250 0.5000 0.0000
vt 0.3861 0.2500 0.0000
vt 0.1798 0.9000 -0.3750
vt 0.1798 0.0103 -0.3750
vt 0.0965 0.9000 1.7398
vt 0.0965 0.0103 1.7398
vt 0.3876 0.5957 0.0000
vt 0.3895 0.6129 0.0000
vt 0.3930 0.6157 0.0000
vt 0.6250 0.7021 0.0000
vt 0.3934 0.1340 0.0000
vt 0.3900 0.1368 0.0000
vt 0.3880 0.1543 0.0000
vt 0.8750 0.0000 0.0000
vt 0.1250 0.0308 0.0000
vt 0.1250 0.0135 0.0000
vt 0.6250 0.7365 0.0000
vt 0.3750 0.7365 0.0000
vt 0.3750 0.7192 0.0000
vt 0.6250 0.7192 0.0000
vt 0.6250 0.7500 0.0000
vt 0.3750 0.7500 0.0000
vt 0.8750 0.0123 0.0000
vt 0.1250 0.0000 0.0000
vt 0.8542 0.0122 0.0000
vt 0.8333 0.0123 0.0000
vt 0.8125 0.0123 0.0000
vt 0.8124 0.0135 0.0000
vt 0.7917 0.0123 0.0000
vt 0.7916 0.0135 0.0000
vt 0.7708 0.0123 0.0000
vt 0.7500 0.0123 0.0000
vt 0.7292 0.0123 0.0000
vt 0.7083 0.0123 0.0000
vt 0.7084 0.0135 0.0000
vt 0.6875 0.0123 0.0000
vt 0.6876 0.0135 0.0000
vt 0.6667 0.0123 0.0000
vt 0.6458 0.0122 0.0000
vt 0.4000 0.3958 0.0000
vt 0.4000 0.4167 0.0000
vt 0.3750 0.4167 0.0000
vt 0.3750 0.3958 0.0000
vt 0.2292 0.2500 0.0000
vt 0.2083 0.2500 0.0000
vt 0.2083 0.2469 0.0000
vt 0.2292 0.2469 0.0000
vt 0.4176 0.2515 0.0000
vt 0.4074 0.2711 0.0000
vt 0.3750 0.2708 0.0000
vt 0.3750 0.2500 0.0000
vt 0.3542 0.2500 0.0000
vt 0.3542 0.2469 0.0000
vt 0.3750 0.2469 0.0000
vt 0.1250 0.2469 0.0000
vt 0.1458 0.2469 0.0000
vt 0.1667 0.2469 0.0000
vt 0.1875 0.2469 0.0000
vt 0.3750 0.5031 0.0000
vt 0.6250 0.5031 0.0000
vt 0.2708 0.2469 0.0000
vt 0.2917 0.2469 0.0000
vt 0.3125 0.2469 0.0000
vt 0.3333 0.2469 0.0000
vt 0.4176 0.4985 0.0000
vt 0.4074 0.4789 0.0000
vt 0.6250 0.4792 0.0000
vt 0.6250 0.4985 0.0000
vt 0.4020 0.4582 0.0000
vt 0.6250 0.4583 0.0000
vt 0.4000 0.4374 0.0000
vt 0.6250 0.4375 0.0000
vt 0.2500 0.2469 0.0000
vt 0.2500 0.0482 0.0000
vt 0.2582 0.0482 0.0000
vt 0.6250 0.4167 0.0000
vt 0.6250 0.3958 0.0000
vt 0.4000 0.3750 0.0000
vt 0.6250 0.3750 0.0000
vt 0.4000 0.3542 0.0000
vt 0.6250 0.3542 0.0000
vt 0.4000 0.3333 0.0000
vt 0.6250 0.3333 0.0000
vt 0.4000 0.3126 0.0000
vt 0.6250 0.3125 0.0000
vt 0.2425 0.0482 0.0000
vt 0.4020 0.2918 0.0000
vt 0.6250 0.2917 0.0000
vt 0.6250 0.2469 0.0000
vt 0.6250 0.2708 0.0000
vt 0.6250 0.2515 0.0000
vt 1.0000 0.0103 4.2349
vt 1.0000 0.8875 4.2349
vt 0.9982 0.8963 4.1865
vt 0.9940 0.9000 4.0699
vt 0.0049 0.8875 4.2348
vt 0.0049 0.0103 4.2348
vt 0.0110 0.9000 4.0698
vt 0.0067 0.8963 4.1865
vt 0.1250 0.2500 0.0000
vt 0.1458 0.2500 0.0000
vt 0.3750 0.5000 0.0000
vt 0.3750 0.4792 0.0000
vt 0.3750 0.4583 0.0000
vt 0.1667 0.2500 0.0000
vt 0.3750 0.4375 0.0000
vt 0.1875 0.2500 0.0000
vt 0.2917 0.2500 0.0000
vt 0.2708 0.2500 0.0000
vt 0.3750 0.3542 0.0000
vt 0.3750 0.3333 0.0000
vt 0.2500 0.2500 0.0000
vt 0.3750 0.3750 0.0000
vt 0.3333 0.2500 0.0000
vt 0.3125 0.2500 0.0000
vt 0.3750 0.3125 0.0000
vt 0.3750 0.2917 0.0000
vt 0.8333 0.2500 0.0000
vt 0.8542 0.2500 0.0000
vt 0.8125 0.2500 0.0000
vt 0.7917 0.2500 0.0000
vt 0.7708 0.2500 0.0000
vt 0.7500 0.2500 0.0000
vt 0.7292 0.2500 0.0000
vt 0.7083 0.2500 0.0000
vt 0.6875 0.2500 0.0000
vt 0.6667 0.2500 0.0000
vt 0.6458 0.2500 0.0000
vt 0.8735 0.2500 0.0000
vt 0.8750 0.2469 0.0000
vt 0.0062 0.8875 4.8176
vt 0.0000 0.8975 4.9868
vt 0.0000 0.0000 4.9868
vt 0.0062 0.0103 4.8176
vt 0.6265 0.2500 0.0000
vt 0.6250 0.0413 0.0000
vt 0.5180 0.2500 0.0000
vt 0.5180 0.0413 0.0000
vt 0.5180 0.5000 0.0000
vt 0.6250 0.7087 0.0000
vt 0.5180 0.7087 0.0000
vt 0.7503 0.2500 0.0000
vt 0.7503 0.0413 0.0000
vt 0.8750 0.0413 0.0000
vt 0.2500 0.0413 0.0000
vt 0.3388 0.0413 0.0000
vt 0.4265 0.0411 0.0000
vt 0.4480 0.2485 0.0000
vt 0.1250 0.0413 0.0000
vt 0.4451 0.7090 0.0000
vt 0.3750 0.7087 0.0000
vt 0.4468 0.5013 0.0000
vt 0.6250 0.3753 0.0000
vt 0.4199 0.9142 0.0000
vt 0.3750 0.8750 0.0000
vt 0.4448 0.7501 0.0000
vt 0.5180 0.7500 0.0000
vt 0.6250 0.8747 0.0000
vt 0.5180 1.0000 0.0000
vt 0.4676 0.9559 0.0000
vt 0.7503 0.0087 0.0000
vt 0.8750 0.0087 0.0000
vt 0.6250 0.7413 0.0000
vt 0.5180 0.7413 0.0000
vt 0.4448 0.7415 0.0000
vt 0.3750 0.7413 0.0000
vt 0.1250 0.0087 0.0000
vt 0.2500 0.0087 0.0000
vt 0.3331 0.0087 0.0000
vt 0.4232 0.0086 0.0000
vt 0.5180 0.0087 0.0000
vt 0.6250 0.0087 0.0000
vt 0.7503 0.0000 0.0000
vt 0.2500 0.0000 0.0000
vt 0.3316 0.0000 0.0000
vt 0.4223 0.0000 0.0000
vt 0.5180 0.0000 0.0000
# 308 texture coords

o pCube007
g pCube007
usemtl Material__27360
s 1
f 1/1/1 2/2/2 3/3/3 
f 3/3/3 4/4/4 1/1/1 
f 5/5/5 6/6/6 1/1/1 
f 1/1/1 4/4/4 5/5/5 
f 7/7/7 3/8/8 2/9/9 
f 2/9/9 8/10/10 7/7/7 
f 9/11/11 10/12/12 4/4/4 
f 4/4/4 3/3/3 9/11/11 
s 3
f 11/13/13 12/14/14 13/15/15 
f 13/15/15 14/16/16 11/13/13 
s 1
f 10/12/12 15/17/17 5/5/5 
f 5/5/5 4/4/4 10/12/12 
f 16/18/18 9/19/19 3/8/8 
f 3/8/8 7/7/7 16/18/18 
f 17/20/20 18/21/20 7/21/7 
f 7/21/7 8/20/10 17/20/20 
f 19/22/21 20/23/22 10/12/12 
f 10/12/12 9/11/11 19/22/21 
f 20/23/22 21/24/23 15/17/17 
f 15/17/17 10/12/12 20/23/22 
f 22/25/24 19/26/25 9/19/19 
f 9/19/19 16/18/18 22/25/24 
s 3
f 23/27/26 24/28/27 12/14/14 
f 12/14/14 11/13/13 23/27/26 
s 1
f 18/21/20 25/29/20 16/29/18 
f 16/29/18 7/21/7 18/21/20 
f 26/30/28 20/23/22 19/22/21 
f 19/22/21 27/31/29 26/30/28 
f 26/30/28 28/32/30 21/24/23 
f 21/24/23 20/23/22 26/30/28 
f 29/33/31 27/34/29 19/26/25 
f 19/26/25 22/25/24 29/33/31 
s 3
f 30/35/32 31/36/33 24/28/27 
f 24/28/27 23/27/26 30/35/32 
s 1
f 32/37/34 33/38/35 34/39/36 
f 34/39/36 35/40/37 27/34/29 
f 32/37/34 34/39/36 27/34/29 
f 32/37/34 27/34/29 29/33/31 
f 35/41/37 36/42/38 26/30/28 
f 26/30/28 27/31/29 35/41/37 
f 36/42/38 37/43/39 28/32/30 
f 28/32/30 26/30/28 36/42/38 
f 25/29/20 38/44/20 22/44/24 
f 22/44/24 16/29/18 25/29/20 
usemtl initialShadingGroup
f 39/45/40 40/46/41 41/47/42 
f 41/47/42 42/48/43 39/45/40 
usemtl Material__27360
s 3
f 43/49/44 44/50/45 31/36/33 
f 31/36/33 30/35/32 43/49/44 
s 1
f 41/47/42 40/46/41 45/51/46 
f 45/51/46 46/52/47 41/47/42 
f 39/53/40 42/54/43 47/55/48 
f 47/55/48 33/38/35 32/37/34 
f 39/53/40 47/55/48 32/37/34 
f 39/53/40 32/37/34 48/56/49 
f 38/44/20 49/57/20 29/57/31 
f 29/57/31 22/44/24 38/44/20 
f 48/56/49 50/58/50 51/59/51 
f 51/59/51 39/53/40 48/56/49 
f 51/60/52 52/61/53 40/46/41 
f 40/46/41 39/45/40 51/60/52 
f 40/46/41 52/61/53 53/62/54 
f 53/62/54 45/51/46 40/46/41 
s 3
f 54/63/55 55/64/56 44/50/45 
f 44/50/45 43/49/44 54/63/55 
s 1
f 51/60/52 56/65/57 57/66/58 
f 57/66/58 52/61/53 51/60/52 
f 50/58/50 58/67/59 56/68/60 
f 56/68/60 51/59/51 50/58/50 
f 52/61/53 57/66/58 59/69/61 
f 59/69/61 53/62/54 52/61/53 
f 60/70/20 32/70/34 29/57/31 
f 29/57/31 49/57/20 60/70/20 
f 56/65/57 61/71/62 62/72/63 
f 62/72/63 57/66/58 56/65/57 
f 58/67/59 63/73/64 61/74/65 
f 61/74/65 56/68/60 58/67/59 
f 57/66/58 62/72/63 64/75/66 
f 64/75/66 59/69/61 57/66/58 
usemtl Material__9567
s 5
f 65/76/67 66/77/67 67/78/68 
f 67/78/68 68/79/68 65/76/67 
usemtl Material__27360
s 3
f 69/80/69 70/81/70 55/64/56 
f 55/64/56 54/63/55 69/80/69 
s 1
f 63/73/64 71/82/71 72/83/72 
f 72/83/72 61/74/65 63/73/64 
f 61/71/62 72/84/73 73/85/74 
f 73/85/74 62/72/63 61/71/62 
f 74/86/20 48/86/49 32/70/34 
f 32/70/34 60/70/20 74/86/20 
f 73/85/74 75/87/75 64/75/66 
f 64/75/66 62/72/63 73/85/74 
usemtl Material__9567
s 5
f 76/88/33 77/89/33 66/77/67 
f 66/77/67 65/76/67 76/88/33 
usemtl Material__27360
s 3
f 78/90/76 79/91/77 70/81/70 
f 70/81/70 69/80/69 78/90/76 
s 1
f 80/92/78 73/85/74 72/84/73 
f 72/84/73 81/93/79 80/92/78 
f 82/94/80 75/87/75 73/85/74 
f 73/85/74 80/92/78 82/94/80 
f 83/95/20 50/95/50 48/86/49 
f 48/86/49 74/86/20 83/95/20 
usemtl Material__9567
s 5
f 84/96/45 85/97/45 77/89/33 
f 77/89/33 76/88/33 84/96/45 
usemtl Material__27360
s 3
f 86/98/81 87/99/82 79/91/77 
f 79/91/77 78/90/76 86/98/81 
usemtl Material__9567
s 5
f 88/100/56 89/101/56 85/97/45 
f 85/97/45 84/96/45 88/100/56 
usemtl Material__27360
s 1
f 90/102/20 58/102/59 50/95/50 
f 50/95/50 83/95/20 90/102/20 
s off
f 33/103/83 47/104/83 91/105/83 
f 91/105/83 92/106/83 34/107/83 
f 33/103/83 91/105/83 34/107/83 
s 3
f 93/108/84 94/109/85 87/99/82 
f 87/99/82 86/98/81 93/108/84 
usemtl Material__9567
s 5
f 95/110/70 96/111/70 89/101/56 
f 89/101/56 88/100/56 95/110/70 
usemtl Material__27360
s 1
f 97/112/20 63/112/64 58/102/59 
f 58/102/59 90/102/20 97/112/20 
s 3
f 98/113/86 99/114/87 94/109/85 
f 94/109/85 93/108/84 98/113/86 
usemtl Material__9567
s 5
f 100/115/77 101/116/77 96/111/70 
f 96/111/70 95/110/70 100/115/77 
usemtl Material__27360
s 1
f 102/117/20 71/117/71 63/112/64 
f 63/112/64 97/112/20 102/117/20 
usemtl Material__9567
s 5
f 103/118/82 104/119/82 101/116/77 
f 101/116/77 100/115/77 103/118/82 
usemtl Material__27360
s 3
f 105/120/88 106/121/89 99/114/87 
f 99/114/87 98/113/86 105/120/88 
s 1
f 81/122/20 72/83/72 71/82/71 
f 71/82/71 107/123/20 81/122/20 
f 108/124/20 107/124/20 71/117/71 
f 71/117/71 102/117/20 108/124/20 
usemtl Material__9567
s 5
f 109/125/85 110/126/85 104/119/82 
f 104/119/82 103/118/82 109/125/85 
usemtl Material__27360
s 3
f 111/127/90 112/128/91 106/121/89 
f 106/121/89 105/120/88 111/127/90 
s 6
f 80/92/92 81/93/92 107/124/93 
f 107/124/93 112/128/94 80/92/92 
f 107/124/93 108/124/95 113/129/95 
f 107/124/93 113/129/95 114/128/95 
f 107/124/93 114/128/95 112/128/94 
s off
f 115/130/20 116/131/20 92/132/20 
f 115/130/20 92/132/20 91/105/20 
f 115/130/20 91/105/20 117/133/20 
s 6
f 82/94/92 80/92/92 112/128/94 
f 112/128/94 111/127/92 82/94/92 
usemtl Material__9567
s 5
f 118/134/96 119/135/96 110/126/85 
f 110/126/85 109/125/85 118/134/96 
f 120/136/97 121/137/97 119/135/96 
f 119/135/96 118/134/96 120/136/97 
usemtl Material__27360
s off
f 37/138/98 36/139/98 35/140/98 
f 37/138/98 35/140/98 34/141/98 
f 37/138/98 34/141/98 92/132/98 
f 37/138/98 92/132/98 116/131/98 
f 42/142/99 41/143/99 46/144/99 
f 42/142/99 46/144/99 117/133/99 
f 42/142/99 117/133/99 91/105/99 
f 42/142/99 91/105/99 47/104/99 
s 1
f 122/145/20 17/20/20 8/20/10 
f 8/20/10 123/145/20 122/145/20 
f 124/146/100 125/147/101 1/1/1 
f 1/1/1 6/6/6 124/146/100 
s 7
f 13/148/102 125/149/103 124/150/103 
f 124/150/103 14/151/103 13/148/102 
f 123/152/104 126/153/105 125/149/103 
f 125/149/103 13/148/102 123/152/104 
f 13/15/102 127/15/106 128/154/106 
f 13/15/102 128/154/106 122/145/106 
f 13/15/102 122/145/106 123/145/104 
s 1
f 125/147/101 126/155/107 2/2/2 
f 2/2/2 1/1/1 125/147/101 
f 8/10/10 2/9/9 126/153/20 
f 126/153/20 123/152/20 8/10/10 
s 8
f 129/14/108 130/156/109 128/154/110 
f 128/154/110 127/15/110 129/14/108 
f 131/157/111 130/156/109 129/14/108 
f 129/14/108 132/28/111 131/157/111 
f 133/158/112 131/157/111 132/28/111 
f 132/28/111 134/159/112 133/158/112 
f 135/160/113 133/158/112 134/159/112 
f 134/159/112 136/161/113 135/160/113 
f 137/162/114 135/160/113 136/161/113 
f 136/161/113 138/64/114 137/162/114 
f 139/163/115 137/162/114 138/64/114 
f 138/64/114 140/81/115 139/163/115 
f 141/164/116 139/163/115 140/81/115 
f 140/81/115 142/91/116 141/164/116 
f 143/165/117 141/164/116 142/91/116 
f 142/91/116 144/166/117 143/165/117 
f 145/167/118 143/165/117 144/166/117 
f 144/166/117 146/168/118 145/167/118 
f 147/169/119 145/167/118 146/168/118 
f 146/168/118 148/114/119 147/169/119 
f 149/170/120 147/169/119 148/114/119 
f 148/114/119 150/121/121 149/170/120 
f 113/129/122 149/170/120 150/121/121 
f 150/121/121 114/128/122 113/129/122 
s 9
f 130/156/123 17/20/123 122/145/15 
f 122/145/15 128/154/15 130/156/123 
s 10
f 127/15/124 13/15/124 12/14/124 
f 12/14/124 129/14/124 127/15/124 
s 9
f 131/157/27 18/21/125 17/20/123 
f 17/20/123 130/156/123 131/157/27 
s 10
f 129/14/124 12/14/124 24/28/124 
f 24/28/124 132/28/124 129/14/124 
s 9
f 133/158/33 25/29/33 18/21/125 
f 18/21/125 131/157/27 133/158/33 
s 10
f 132/28/124 24/28/124 31/36/124 
f 31/36/124 134/159/124 132/28/124 
s 9
f 135/160/45 38/44/45 25/29/33 
f 25/29/33 133/158/33 135/160/45 
s 10
f 134/159/124 31/36/124 44/50/124 
f 44/50/124 136/161/124 134/159/124 
s 9
f 137/162/56 49/57/56 38/44/45 
f 38/44/45 135/160/45 137/162/56 
s 10
f 136/161/124 44/50/124 55/64/124 
f 55/64/124 138/64/124 136/161/124 
s 9
f 139/163/70 60/70/70 49/57/56 
f 49/57/56 137/162/56 139/163/70 
s 10
f 138/64/124 55/64/124 70/81/124 
f 70/81/124 140/81/124 138/64/124 
s 9
f 141/164/77 74/86/77 60/70/70 
f 60/70/70 139/163/70 141/164/77 
s 10
f 140/81/124 70/81/124 79/91/124 
f 79/91/124 142/91/124 140/81/124 
s 9
f 143/165/82 83/95/82 74/86/77 
f 74/86/77 141/164/77 143/165/82 
s 10
f 144/166/124 142/91/124 79/91/124 
f 79/91/124 87/99/124 144/166/124 
s 9
f 145/167/85 90/102/85 83/95/82 
f 83/95/82 143/165/82 145/167/85 
s 10
f 146/168/124 144/166/124 87/99/124 
f 87/99/124 94/109/124 146/168/124 
s 9
f 147/169/126 97/112/127 90/102/85 
f 90/102/85 145/167/85 147/169/126 
s 10
f 148/114/128 146/168/124 94/109/124 
f 94/109/124 99/114/128 148/114/128 
s 9
f 149/170/129 102/117/129 97/112/127 
f 97/112/127 147/169/126 149/170/129 
s 10
f 150/121/128 148/114/128 99/114/128 
f 99/114/128 106/121/128 150/121/128 
s 9
f 113/129/91 108/124/91 102/117/129 
f 102/117/129 149/170/129 113/129/91 
s 10
f 114/128/124 150/121/128 106/121/128 
f 106/121/128 112/128/124 114/128/124 
s 11
f 151/171/130 152/172/131 153/173/132 
f 153/173/132 154/174/133 151/171/130 
s 1
f 154/175/134 153/176/135 155/177/136 
f 155/177/136 156/178/137 154/175/134 
s 11
f 157/179/138 158/180/139 159/181/140 
f 159/181/140 160/182/141 157/179/138 
s 1
f 160/182/142 159/183/143 161/184/144 
f 161/184/144 162/185/145 160/182/142 
f 163/186/146 124/146/100 6/6/6 
f 6/6/6 164/187/147 163/186/146 
f 165/188/148 164/187/147 6/6/6 
f 6/6/6 5/5/5 165/188/148 
f 166/189/149 165/188/148 5/5/5 
f 5/5/5 15/17/17 166/189/149 
f 155/177/136 166/189/149 15/17/17 
f 15/17/17 21/24/23 155/177/136 
s 7
f 124/150/103 163/190/150 167/191/151 
f 167/191/151 14/151/103 124/150/103 
s 1
f 168/192/152 45/51/46 53/62/54 
f 53/62/54 169/193/153 168/192/152 
f 170/194/154 59/69/61 64/75/66 
f 64/75/66 171/195/155 170/194/154 
f 155/177/136 21/24/23 28/32/30 
f 28/32/30 156/178/137 155/177/136 
s 11
f 172/196/156 173/197/157 174/198/124 
f 174/198/124 175/199/158 172/196/156 
s 1
f 171/195/155 64/75/66 75/87/75 
f 75/87/75 161/184/144 171/195/155 
s 11
f 173/197/157 176/200/159 177/201/124 
f 177/201/124 174/198/124 173/197/157 
s 1
f 162/185/145 161/184/144 75/87/75 
f 75/87/75 82/94/80 162/185/145 
s 11
f 176/200/159 178/202/160 179/203/124 
f 179/203/124 177/201/124 176/200/159 
s 1
f 168/192/152 180/204/161 115/205/162 
f 168/192/152 115/205/162 117/206/163 
f 168/192/152 117/206/163 46/52/47 
f 168/192/152 46/52/47 45/51/46 
s 11
f 178/202/160 152/172/131 181/207/124 
f 181/207/124 179/203/124 178/202/160 
f 152/172/131 151/171/130 182/208/124 
f 182/208/124 181/207/124 152/172/131 
s 1
f 169/193/153 53/62/54 59/69/61 
f 59/69/61 170/194/154 169/193/153 
s 11
f 151/171/130 183/209/164 184/210/124 
f 184/210/124 182/208/124 151/171/130 
f 183/209/164 185/211/165 186/212/124 
f 186/212/124 184/210/124 183/209/164 
f 185/211/165 187/213/166 188/214/124 
f 188/214/124 186/212/124 185/211/165 
f 187/213/166 189/215/167 190/216/124 
f 190/216/124 188/214/124 187/213/166 
s 1
f 116/217/168 115/205/162 180/204/161 
f 180/204/161 156/178/137 28/32/30 
f 116/217/168 180/204/161 28/32/30 
f 116/217/168 28/32/30 37/43/39 
s 11
f 190/216/124 189/215/167 191/218/169 
f 191/218/169 192/219/124 190/216/124 
s 6
f 162/185/170 82/94/92 111/127/92 
f 111/127/92 193/220/171 162/185/170 
s 11
f 192/219/124 191/218/169 158/180/139 
f 158/180/139 194/221/124 192/219/124 
f 194/221/124 158/180/139 157/179/138 
f 157/179/138 195/222/172 194/221/124 
usemtl Material__9567
s 5
f 68/79/68 67/78/68 196/223/173 
f 68/79/68 196/223/173 197/224/173 
f 68/79/68 197/224/173 198/225/173 
f 68/79/68 198/225/173 199/226/173 
f 200/227/174 201/228/174 121/137/97 
f 200/227/174 121/137/97 120/136/97 
f 200/227/174 120/136/97 202/229/174 
f 200/227/174 202/229/174 203/230/174 
usemtl Material__27360
s 1
f 204/231/175 163/186/146 164/187/147 
f 164/187/147 205/232/176 204/231/175 
s 11
f 172/196/156 204/233/177 205/234/178 
f 205/234/178 173/197/157 172/196/156 
s 7
f 167/191/151 163/190/150 204/233/179 
f 204/233/179 206/132/179 167/191/151 
s 11
f 206/132/180 204/233/177 172/196/156 
f 172/196/156 175/199/158 206/132/180 
f 176/200/159 173/197/157 205/234/178 
f 205/234/178 207/235/181 176/200/159 
s 1
f 207/236/182 205/232/176 164/187/147 
f 164/187/147 165/188/148 207/236/182 
s 11
f 178/202/160 176/200/159 207/235/181 
f 207/235/181 208/237/183 178/202/160 
s 1
f 208/238/184 207/236/182 165/188/148 
f 165/188/148 166/189/149 208/238/184 
s 11
f 152/172/131 178/202/160 208/237/183 
f 208/237/183 153/173/132 152/172/131 
s 1
f 153/176/135 208/238/184 166/189/149 
f 166/189/149 155/177/136 153/176/135 
f 168/192/152 169/193/153 209/239/185 
f 209/239/185 210/240/186 168/192/152 
s 11
f 210/241/187 209/242/188 187/213/166 
f 187/213/166 185/211/165 210/241/187 
s 1
f 180/204/161 168/192/152 210/240/186 
f 210/240/186 211/243/189 180/204/161 
s 11
f 211/244/190 210/241/187 185/211/165 
f 185/211/165 183/209/164 211/244/190 
s 1
f 170/194/154 171/195/155 212/245/191 
f 212/245/191 213/246/192 170/194/154 
s 11
f 213/247/193 212/248/194 191/218/169 
f 191/218/169 189/215/167 213/247/193 
f 189/215/167 187/213/166 209/242/188 
f 209/242/188 213/247/193 189/215/167 
s 1
f 213/246/192 209/239/185 169/193/153 
f 169/193/153 170/194/154 213/246/192 
s 11
f 158/180/139 191/218/169 212/248/194 
f 212/248/194 159/181/140 158/180/139 
s 1
f 159/183/143 212/245/191 171/195/155 
f 171/195/155 161/184/144 159/183/143 
s 11
f 183/209/164 151/171/130 154/174/133 
f 154/174/133 211/244/190 183/209/164 
s 1
f 211/243/189 154/175/134 156/178/137 
f 156/178/137 180/204/161 211/243/189 
s 11
f 214/105/195 195/222/172 157/179/138 
f 157/179/138 160/182/141 214/105/195 
s 6
f 193/220/171 214/105/196 160/182/196 
f 160/182/196 162/185/170 193/220/171 
usemtl Material__9129
s 3
f 215/27/197 23/27/26 11/13/13 
f 11/13/13 216/13/198 215/27/197 
f 217/249/199 218/250/200 174/250/201 
f 174/250/201 177/249/202 217/249/199 
f 219/35/203 30/35/32 23/27/26 
f 23/27/26 215/27/197 219/35/203 
f 217/249/199 177/249/202 179/251/204 
f 179/251/204 220/251/204 217/249/199 
f 221/49/205 43/49/44 30/35/32 
f 30/35/32 219/35/203 221/49/205 
f 220/251/204 179/251/204 181/252/206 
f 181/252/206 222/252/206 220/251/204 
f 223/63/207 54/63/55 43/49/44 
f 43/49/44 221/49/205 223/63/207 
f 222/252/206 181/252/206 182/253/208 
f 182/253/208 224/253/208 222/252/206 
f 225/80/209 69/80/69 54/63/55 
f 54/63/55 223/63/207 225/80/209 
f 224/253/208 182/253/208 184/254/210 
f 184/254/210 226/254/210 224/253/208 
f 227/90/211 78/90/76 69/80/69 
f 69/80/69 225/80/209 227/90/211 
f 226/254/210 184/254/210 186/255/212 
f 186/255/212 228/255/212 226/254/210 
f 229/98/213 86/98/81 78/90/76 
f 78/90/76 227/90/211 229/98/213 
f 228/255/212 186/255/212 188/256/214 
f 188/256/214 230/256/214 228/255/212 
f 231/108/215 93/108/84 86/98/81 
f 86/98/81 229/98/213 231/108/215 
f 230/256/214 188/256/214 190/257/216 
f 190/257/216 232/257/216 230/256/214 
f 233/113/217 98/113/86 93/108/84 
f 93/108/84 231/108/215 233/113/217 
f 232/257/216 190/257/216 192/258/218 
f 192/258/218 234/258/219 232/257/216 
f 233/113/217 235/120/220 105/120/88 
f 105/120/88 98/113/86 233/113/217 
f 234/258/219 192/258/218 194/259/221 
f 194/259/221 236/259/222 234/258/219 
f 237/260/223 175/260/224 174/250/201 
f 174/250/201 218/250/200 237/260/223 
f 238/16/225 216/13/198 11/13/13 
f 11/13/13 14/16/16 238/16/225 
f 238/16/225 14/16/16 167/261/15 
f 167/261/15 239/261/15 238/16/225 
f 240/106/226 239/261/15 167/261/15 
f 167/261/15 206/106/226 240/106/226 
f 240/106/226 206/106/226 175/260/224 
f 175/260/224 237/260/223 240/106/226 
f 241/105/227 214/105/227 193/220/91 
f 193/220/91 242/220/91 241/105/227 
usemtl Material__9567
f 242/262/91 193/263/91 111/264/90 
f 111/264/90 243/265/228 242/262/91 
usemtl Material__9129
f 243/127/228 111/127/90 105/120/88 
f 105/120/88 235/120/220 243/127/228 
f 244/266/229 236/259/222 194/259/221 
f 194/259/221 195/266/230 244/266/229 
f 241/105/227 244/266/229 195/266/230 
f 195/266/230 214/105/227 241/105/227 
s 18
f 66/27/231 215/27/231 216/13/232 
f 216/13/232 67/13/232 66/27/231 
usemtl initialShadingGroup
s 19
f 68/250/233 218/250/233 217/249/234 
f 217/249/234 65/249/234 68/250/233 
usemtl Material__9129
s 18
f 77/35/124 219/35/124 215/27/231 
f 215/27/231 66/27/231 77/35/124 
usemtl initialShadingGroup
s 19
f 65/249/234 217/249/234 220/251/20 
f 220/251/20 76/251/20 65/249/234 
usemtl Material__9129
s 18
f 85/49/124 221/49/124 219/35/124 
f 219/35/124 77/35/124 85/49/124 
usemtl initialShadingGroup
s 19
f 76/251/20 220/251/20 222/252/20 
f 222/252/20 84/252/20 76/251/20 
usemtl Material__9129
s 18
f 89/63/124 223/63/124 221/49/124 
f 221/49/124 85/49/124 89/63/124 
usemtl initialShadingGroup
s 19
f 84/252/20 222/252/20 224/253/20 
f 224/253/20 88/253/20 84/252/20 
usemtl Material__9129
s 18
f 96/80/124 225/80/124 223/63/124 
f 223/63/124 89/63/124 96/80/124 
usemtl initialShadingGroup
s 19
f 88/253/20 224/253/20 226/254/20 
f 226/254/20 95/254/20 88/253/20 
usemtl Material__9129
s 18
f 101/90/124 227/90/124 225/80/124 
f 225/80/124 96/80/124 101/90/124 
usemtl initialShadingGroup
s 19
f 95/254/20 226/254/20 228/255/20 
f 228/255/20 100/255/20 95/254/20 
usemtl Material__9129
s 18
f 104/98/124 229/98/124 227/90/124 
f 227/90/124 101/90/124 104/98/124 
usemtl initialShadingGroup
s 19
f 100/255/20 228/255/20 230/256/20 
f 230/256/20 103/256/20 100/255/20 
usemtl Material__9129
s 18
f 110/108/128 231/108/128 229/98/124 
f 229/98/124 104/98/124 110/108/128 
usemtl initialShadingGroup
s 19
f 103/256/20 230/256/20 232/257/20 
f 232/257/20 109/257/20 103/256/20 
usemtl Material__9129
s 18
f 119/113/235 233/113/235 231/108/128 
f 231/108/128 110/108/128 119/113/235 
usemtl initialShadingGroup
s 19
f 109/257/20 232/257/20 234/258/20 
f 234/258/20 118/258/20 109/257/20 
usemtl Material__9129
s 18
f 121/120/236 235/120/236 233/113/235 
f 233/113/235 119/113/235 121/120/236 
usemtl initialShadingGroup
s 19
f 118/258/20 234/258/20 236/259/237 
f 236/259/237 120/259/237 118/258/20 
f 199/260/238 237/260/238 218/250/233 
f 218/250/233 68/250/233 199/260/238 
usemtl Material__9129
s 18
f 67/13/232 216/13/232 238/16/232 
f 238/16/232 196/16/232 67/13/232 
usemtl initialShadingGroup
s 20
f 196/16/239 238/16/239 239/261/240 
f 239/261/240 197/261/240 196/16/239 
f 197/261/240 239/261/240 240/106/241 
f 240/106/241 198/106/241 197/261/240 
s 19
f 198/106/242 240/106/242 237/260/238 
f 237/260/238 199/260/238 198/106/242 
usemtl Material__9129
s 21
f 203/105/243 241/105/243 242/220/244 
f 242/220/244 200/220/244 203/105/243 
usemtl initialShadingGroup
f 200/220/244 242/220/244 243/127/245 
f 243/127/245 201/127/245 200/220/244 
usemtl Material__9129
s 18
f 201/127/236 243/127/236 235/120/236 
f 235/120/236 121/120/236 201/127/236 
usemtl initialShadingGroup
s 19
f 120/259/237 236/259/237 244/266/246 
f 244/266/246 202/266/247 120/259/237 
f 202/266/247 244/266/246 241/105/248 
f 241/105/248 203/105/248 202/266/247 
usemtl Material__27360
s 22
f 245/267/98 246/105/98 247/268/249 
f 247/268/249 248/269/250 245/267/98 
s 23
f 249/270/251 250/132/99 251/271/99 
f 251/271/99 252/272/252 249/270/251 
s 24
f 250/106/253 253/273/253 254/274/253 
f 254/274/253 251/275/253 250/106/253 
s 25
f 255/243/254 256/276/254 257/277/255 
f 257/277/255 258/182/256 255/243/254 
f 258/182/256 257/277/255 259/278/257 
f 259/278/257 260/279/257 258/182/256 
s 22
f 260/279/258 259/278/258 248/269/250 
f 248/269/250 247/268/249 260/279/258 
s 26
f 261/280/259 256/276/260 255/243/260 
f 255/243/260 262/231/261 261/280/259 
f 263/281/262 261/282/259 262/233/261 
f 262/233/261 264/283/262 263/281/262 
s 23
f 252/272/252 263/281/263 264/283/263 
f 264/283/263 249/270/251 252/272/252 
s off
f 260/279/124 247/268/124 246/105/124 
f 260/279/124 246/105/124 253/284/124 
f 250/132/124 249/270/124 264/283/124 
f 253/284/124 250/132/124 264/283/124 
f 260/279/124 253/284/124 264/283/124 
f 264/283/124 262/233/124 255/244/124 
f 260/279/124 264/283/124 255/244/124 
f 260/279/124 255/244/124 258/182/124 
s 27
f 265/285/264 266/286/264 267/153/264 
f 268/287/264 269/288/264 270/152/20 
f 267/153/264 268/287/264 270/152/20 
f 271/289/20 272/123/20 273/290/264 
f 270/152/20 271/289/20 273/290/264 
f 267/153/264 270/152/20 273/290/264 
f 265/285/264 267/153/264 273/290/264 
f 265/285/264 273/290/264 274/291/264 
s off
f 275/275/265 276/274/265 277/292/265 
f 277/292/265 278/293/265 275/275/265 
s 23
f 252/272/252 251/271/99 279/294/99 
f 279/294/99 280/295/266 252/272/252 
f 280/295/266 281/296/263 263/281/263 
f 263/281/263 252/272/252 280/295/266 
s 26
f 281/296/262 282/297/267 261/282/259 
f 261/282/259 263/281/262 281/296/262 
f 282/298/267 283/299/260 256/276/260 
f 256/276/260 261/280/259 282/298/267 
s 25
f 256/276/254 283/299/254 284/300/268 
f 284/300/268 257/277/255 256/276/254 
f 257/277/255 284/300/268 285/301/257 
f 285/301/257 259/278/257 257/277/255 
s 22
f 259/278/258 285/301/258 286/302/269 
f 286/302/269 248/269/250 259/278/258 
f 287/303/98 245/267/98 248/269/250 
f 248/269/250 286/302/269 287/303/98 
s 27
f 288/145/20 289/304/20 271/304/20 
f 271/304/20 270/145/20 288/145/20 
s 23
f 251/275/99 290/275/99 291/293/99 
f 291/293/99 279/293/99 251/275/99 
s 28
f 290/275/270 251/275/124 254/274/124 
f 254/274/124 292/274/270 290/275/270 
s 22
f 293/303/98 294/267/98 245/267/98 
f 245/267/98 287/303/98 293/303/98 
f 295/124/98 293/303/98 287/303/98 
f 287/303/98 272/124/98 295/124/98 
s 29
f 291/293/253 296/292/253 289/304/253 
f 289/304/253 288/145/253 291/293/253 
s 23
f 288/145/99 270/145/99 279/293/99 
f 279/293/99 291/293/99 288/145/99 
f 270/152/99 269/288/271 280/295/266 
f 280/295/266 279/294/99 270/152/99 
f 269/288/271 268/287/263 281/296/263 
f 281/296/263 280/295/266 269/288/271 
s 26
f 268/287/262 267/153/272 282/297/267 
f 282/297/267 281/296/262 268/287/262 
f 267/155/272 266/305/260 283/299/260 
f 283/299/260 282/298/267 267/155/272 
s 25
f 283/299/254 266/305/254 265/306/273 
f 265/306/273 284/300/268 283/299/254 
f 284/300/268 265/306/273 274/307/257 
f 274/307/257 285/301/257 284/300/268 
s 22
f 285/301/258 274/307/258 273/308/274 
f 273/308/274 286/302/269 285/301/258 
f 272/124/98 287/303/98 286/302/269 
f 286/302/269 273/308/274 272/124/98 
s 30
f 297/293/275 298/292/275 296/292/20 
f 296/292/20 291/293/20 297/293/275 
s 23
f 297/293/99 291/293/99 290/275/99 
f 290/275/99 299/275/99 297/293/99 
s 28
f 299/275/276 290/275/270 292/274/270 
f 292/274/270 300/274/276 299/275/276 
s 22
f 301/303/98 302/267/98 294/267/98 
f 294/267/98 293/303/98 301/303/98 
s 30
f 303/293/277 304/292/277 298/292/275 
f 298/292/275 297/293/275 303/293/277 
s 23
f 303/293/99 297/293/99 299/275/99 
f 299/275/99 305/275/99 303/293/99 
s 28
f 305/275/278 299/275/276 300/274/276 
f 300/274/276 306/274/278 305/275/278 
s 22
f 307/303/98 308/267/98 302/267/98 
f 302/267/98 301/303/98 307/303/98 
s 30
f 309/293/279 310/292/279 304/292/277 
f 304/292/277 303/293/277 309/293/279 
s 23
f 309/293/280 303/293/99 305/275/99 
f 305/275/99 311/275/281 309/293/280 
s 28
f 311/275/282 305/275/278 306/274/278 
f 306/274/278 312/274/282 311/275/282 
s 22
f 313/303/283 314/267/284 308/267/98 
f 308/267/98 307/303/98 313/303/283 
s 24
f 246/105/253 245/267/253 254/274/253 
f 254/274/253 253/273/253 246/105/253 
s 28
f 294/267/270 292/274/270 254/274/124 
f 254/274/124 245/267/124 294/267/270 
f 302/267/276 300/274/276 292/274/270 
f 292/274/270 294/267/270 302/267/276 
f 308/267/278 306/274/278 300/274/276 
f 300/274/276 302/267/276 308/267/278 
f 314/267/282 312/274/282 306/274/278 
f 306/274/278 308/267/278 314/267/282 
s off
f 315/267/285 316/303/285 317/292/285 
f 317/292/285 318/274/285 315/267/285 
s 30
f 313/303/279 307/303/277 304/292/277 
f 304/292/277 310/292/279 313/303/279 
f 307/303/277 301/303/275 298/292/275 
f 298/292/275 304/292/277 307/303/277 
f 301/303/275 293/303/20 296/292/20 
f 296/292/20 298/292/275 301/303/275 
s 29
f 293/303/253 295/124/253 289/304/253 
f 289/304/253 296/292/253 293/303/253 
s 27
f 295/124/20 272/124/20 271/304/20 
f 271/304/20 289/304/20 295/124/20 
s 31
f 319/274/286 312/274/287 310/292/287 
f 310/292/287 320/292/286 319/274/286 
s 30
f 320/292/288 310/292/279 309/293/279 
f 309/293/279 321/293/289 320/292/288 
s 23
f 321/293/290 309/293/280 311/275/281 
f 311/275/281 322/275/291 321/293/290 
s 28
f 322/275/292 311/275/282 312/274/282 
f 312/274/282 319/274/293 322/275/292 
s 30
f 323/303/294 313/303/279 310/292/279 
f 310/292/279 324/292/295 323/303/294 
s 32
f 324/292/296 310/292/297 312/274/297 
f 312/274/297 325/274/298 324/292/296 
s 28
f 325/274/299 312/274/282 314/267/282 
f 314/267/282 326/267/300 325/274/299 
s 22
f 326/267/301 314/267/284 313/303/283 
f 313/303/283 323/303/302 326/267/301 
s 31
f 327/274/303 319/274/286 320/292/286 
f 320/292/286 328/292/303 327/274/303 
s 30
f 329/293/304 328/292/305 320/292/288 
f 320/292/288 321/293/289 329/293/304 
s 23
f 330/275/306 329/293/306 321/293/290 
f 321/293/290 322/275/291 330/275/306 
s 28
f 330/275/307 322/275/292 319/274/293 
f 319/274/293 327/274/308 330/275/307 
s 30
f 331/303/309 323/303/294 324/292/295 
f 324/292/295 332/292/310 331/303/309 
s 32
f 332/292/311 324/292/296 325/274/298 
f 325/274/298 333/274/311 332/292/311 
s 28
f 334/267/312 333/274/313 325/274/299 
f 325/274/299 326/267/300 334/267/312 
s 22
f 334/267/314 326/267/301 323/303/302 
f 323/303/302 331/303/314 334/267/314 
s off
f 277/292/315 276/274/315 327/274/315 
f 327/274/315 328/292/315 277/292/315 
s 30
f 277/292/20 328/292/305 329/293/304 
f 329/293/304 278/293/20 277/292/20 
s off
f 278/293/316 329/293/316 330/275/316 
f 330/275/316 275/275/316 278/293/316 
s 28
f 276/274/124 275/275/124 330/275/307 
f 330/275/307 327/274/308 276/274/124 
s 30
f 317/292/20 316/303/20 331/303/309 
f 331/303/309 332/292/310 317/292/20 
s off
f 317/292/317 332/292/317 333/274/317 
f 333/274/317 318/274/317 317/292/317 
s 28
f 318/274/124 333/274/313 334/267/312 
f 334/267/312 315/267/124 318/274/124 
s off
f 316/303/318 315/267/318 334/267/318 
f 334/267/318 331/303/318 316/303/318 
# 660 faces

