# 3ds Max Wavefront OBJ Exporter v0.99 - (c)2007 guruware
# File Created: 30.04.2025 23:50:06

mtllib Ventanas.mtl

#
# object Ventanas_Vidrio
#

v  -37.5007 -16.3953 -65.5958
v  -53.2917 -16.3953 -71.3432
v  -53.1786 -16.3953 -71.6541
v  -37.3875 -16.3953 -65.9066
v  -37.5007 -5.4905 -65.5958
v  -37.3875 -5.4905 -65.9066
v  -53.1786 -5.4905 -71.6541
v  -53.2917 -5.4905 -71.3432
v  -37.5096 -4.6270 -65.5713
v  -53.3673 -4.6270 -71.3430
v  -53.2541 -4.6270 -71.6538
v  -37.3964 -4.6270 -65.8821
v  -37.5096 16.8756 -65.5713
v  -37.3964 16.8756 -65.8821
v  -53.2541 16.8756 -71.6538
v  -53.3673 16.8756 -71.3430
v  -53.4190 -4.6270 -40.5714
v  -53.4190 -4.6270 -51.5994
v  -53.0882 -4.6270 -51.5994
v  -53.0882 -4.6270 -40.5714
v  -53.4190 16.8756 -40.5714
v  -53.0882 16.8756 -40.5714
v  -53.0882 16.8756 -51.5994
v  -53.4190 16.8756 -51.5994
v  -53.4190 -16.6232 -40.5714
v  -53.4190 -16.6232 -51.5994
v  -53.0882 -16.6232 -51.5994
v  -53.0882 -16.6232 -40.5714
v  -53.4190 -5.8830 -40.5714
v  -53.0882 -5.8830 -40.5714
v  -53.0882 -5.8830 -51.5994
v  -53.4190 -5.8830 -51.5994
v  -53.4190 -4.6270 -28.0722
v  -53.4190 -4.6270 -39.1001
v  -53.0882 -4.6270 -39.1001
v  -53.0882 -4.6270 -28.0722
v  -53.4190 16.8756 -28.0722
v  -53.0882 16.8756 -28.0722
v  -53.0882 16.8756 -39.1001
v  -53.4190 16.8756 -39.1001
v  -53.4190 -16.6232 -28.0715
v  -53.4190 -16.6232 -39.0994
v  -53.0882 -16.6232 -39.0994
v  -53.0882 -16.6232 -28.0715
v  -53.4190 -5.8830 -28.0715
v  -53.0882 -5.8830 -28.0715
v  -53.0882 -5.8830 -39.0994
v  -53.4190 -5.8830 -39.0994
v  -54.0588 -4.6583 -4.9828
v  -54.0588 -4.6583 -21.8540
v  -53.7280 -4.6583 -21.8540
v  -53.7280 -4.6583 -4.9828
v  -54.0588 16.8443 -4.9828
v  -53.7280 16.8443 -4.9828
v  -53.7280 16.8443 -21.8540
v  -54.0588 16.8443 -21.8540
v  -54.0589 -4.6270 14.1345
v  -54.0588 -4.6270 -2.7368
v  -53.7280 -4.6270 -2.7368
v  -53.7280 -4.6270 14.1345
v  -54.0589 16.8756 14.1345
v  -53.7280 16.8756 14.1345
v  -53.7280 16.8756 -2.7368
v  -54.0588 16.8756 -2.7368
v  -54.0589 -4.6270 33.2498
v  -54.0589 -4.6270 16.3785
v  -53.7280 -4.6270 16.3785
v  -53.7280 -4.6270 33.2498
v  -54.0589 16.8756 33.2498
v  -53.7280 16.8756 33.2498
v  -53.7280 16.8756 16.3785
v  -54.0589 16.8756 16.3785
v  -54.0588 -4.6270 52.3732
v  -54.0589 -4.6270 35.5019
v  -53.7280 -4.6270 35.5019
v  -53.7280 -4.6270 52.3732
v  -54.0588 16.8756 52.3732
v  -53.7280 16.8756 52.3732
v  -53.7280 16.8756 35.5019
v  -54.0589 16.8756 35.5019
v  -54.0588 -4.6270 70.6535
v  -54.0588 -4.6270 54.5697
v  -53.7280 -4.6270 54.5697
v  -53.7280 -4.6270 70.6535
v  -54.0588 16.8756 70.6535
v  -53.7280 16.8756 70.6535
v  -53.7280 16.8756 54.5697
v  -54.0588 16.8756 54.5697
v  54.6528 -4.6270 -61.9485
v  54.6528 -4.6270 -71.0038
v  54.9836 -4.6270 -71.0038
v  54.9836 -4.6270 -61.9485
v  54.6528 16.8756 -61.9485
v  54.9836 16.8756 -61.9485
v  54.9836 16.8756 -71.0038
v  54.6528 16.8756 -71.0038
v  54.6528 -4.6270 -43.3608
v  54.6528 -4.6270 -60.2321
v  54.9836 -4.6270 -60.2321
v  54.9837 -4.6270 -43.3608
v  54.6528 16.8756 -43.3608
v  54.9837 16.8756 -43.3608
v  54.9836 16.8756 -60.2321
v  54.6528 16.8756 -60.2321
v  54.6528 -4.6270 -24.2409
v  54.6528 -4.6270 -41.1122
v  54.9837 -4.6270 -41.1122
v  54.9837 -4.6270 -24.2409
v  54.6528 16.8756 -24.2409
v  54.9837 16.8756 -24.2409
v  54.9837 16.8756 -41.1122
v  54.6528 16.8756 -41.1122
v  54.6528 -4.6270 -5.1243
v  54.6528 -4.6270 -21.9955
v  54.9837 -4.6270 -21.9955
v  54.9837 -4.6270 -5.1243
v  54.6528 16.8756 -5.1243
v  54.9837 16.8756 -5.1243
v  54.9837 16.8756 -21.9955
v  54.6528 16.8756 -21.9955
v  54.6528 -4.6270 13.9912
v  54.6528 -4.6270 -2.8801
v  54.9837 -4.6270 -2.8801
v  54.9836 -4.6270 13.9912
v  54.6528 16.8756 13.9912
v  54.9836 16.8756 13.9912
v  54.9837 16.8756 -2.8801
v  54.6528 16.8756 -2.8801
v  54.6528 -4.6270 33.1093
v  54.6528 -4.6270 16.2381
v  54.9836 -4.6270 16.2381
v  54.9836 -4.6270 33.1093
v  54.6528 16.8756 33.1093
v  54.9836 16.8756 33.1093
v  54.9836 16.8756 16.2381
v  54.6528 16.8756 16.2381
v  54.6528 -4.6270 52.2243
v  54.6528 -4.6270 35.3530
v  54.9836 -4.6270 35.3530
v  54.9836 -4.6270 52.2243
v  54.6528 16.8756 52.2243
v  54.9836 16.8756 52.2243
v  54.9836 16.8756 35.3530
v  54.6528 16.8756 35.3530
v  54.6528 -4.6263 70.5035
v  54.6528 -4.6263 54.4196
v  54.9836 -4.6263 54.4196
v  54.9836 -4.6263 70.5035
v  54.6528 16.8764 70.5035
v  54.9836 16.8764 70.5035
v  54.9836 16.8764 54.4196
v  54.6528 16.8764 54.4196
# 152 vertices

vn 0.0000 -1.0000 -0.0000
vn 0.0000 1.0000 -0.0000
vn 0.9604 0.0000 0.2785
vn 0.4155 0.0000 -0.9096
vn -0.9604 0.0000 -0.2785
vn -0.4155 0.0000 0.9096
vn 0.0000 0.0000 1.0000
vn 1.0000 0.0000 -0.0000
vn 0.0000 0.0000 -1.0000
vn -1.0000 0.0000 -0.0000
# 10 vertex normals

vt 1.0000 0.0000 0.0000
vt 1.0000 1.0000 0.0000
vt 0.0000 1.0000 0.0000
vt 0.0000 0.0000 0.0000
# 4 texture coords

o Ventanas_Vidrio
g Ventanas_Vidrio
usemtl Material__43226
s 2
f 1/1/1 2/2/1 3/3/1 
f 3/3/1 4/4/1 1/1/1 
s 4
f 5/4/2 6/1/2 7/2/2 
f 7/2/2 8/3/2 5/4/2 
s 8
f 1/4/3 4/1/3 6/2/3 
f 6/2/3 5/3/3 1/4/3 
s 16
f 4/4/4 3/1/4 7/2/4 
f 7/2/4 6/3/4 4/4/4 
s 32
f 3/4/5 2/1/5 8/2/5 
f 8/2/5 7/3/5 3/4/5 
s 64
f 2/4/6 1/1/6 5/2/6 
f 5/2/6 8/3/6 2/4/6 
s 2
f 9/1/1 10/2/1 11/3/1 
f 11/3/1 12/4/1 9/1/1 
s 4
f 13/4/2 14/1/2 15/2/2 
f 15/2/2 16/3/2 13/4/2 
s 8
f 9/4/3 12/1/3 14/2/3 
f 14/2/3 13/3/3 9/4/3 
s 16
f 12/4/4 11/1/4 15/2/4 
f 15/2/4 14/3/4 12/4/4 
s 32
f 11/4/5 10/1/5 16/2/5 
f 16/2/5 15/3/5 11/4/5 
s 64
f 10/4/6 9/1/6 13/2/6 
f 13/2/6 16/3/6 10/4/6 
s 2
f 17/1/1 18/2/1 19/3/1 
f 19/3/1 20/4/1 17/1/1 
s 4
f 21/4/2 22/1/2 23/2/2 
f 23/2/2 24/3/2 21/4/2 
s 8
f 17/4/7 20/1/7 22/2/7 
f 22/2/7 21/3/7 17/4/7 
s 16
f 20/4/8 19/1/8 23/2/8 
f 23/2/8 22/3/8 20/4/8 
s 32
f 19/4/9 18/1/9 24/2/9 
f 24/2/9 23/3/9 19/4/9 
s 64
f 18/4/10 17/1/10 21/2/10 
f 21/2/10 24/3/10 18/4/10 
s 2
f 25/1/1 26/2/1 27/3/1 
f 27/3/1 28/4/1 25/1/1 
s 4
f 29/4/2 30/1/2 31/2/2 
f 31/2/2 32/3/2 29/4/2 
s 8
f 25/4/7 28/1/7 30/2/7 
f 30/2/7 29/3/7 25/4/7 
s 16
f 28/4/8 27/1/8 31/2/8 
f 31/2/8 30/3/8 28/4/8 
s 32
f 27/4/9 26/1/9 32/2/9 
f 32/2/9 31/3/9 27/4/9 
s 64
f 26/4/10 25/1/10 29/2/10 
f 29/2/10 32/3/10 26/4/10 
s 2
f 33/1/1 34/2/1 35/3/1 
f 35/3/1 36/4/1 33/1/1 
s 4
f 37/4/2 38/1/2 39/2/2 
f 39/2/2 40/3/2 37/4/2 
s 8
f 33/4/7 36/1/7 38/2/7 
f 38/2/7 37/3/7 33/4/7 
s 16
f 36/4/8 35/1/8 39/2/8 
f 39/2/8 38/3/8 36/4/8 
s 32
f 35/4/9 34/1/9 40/2/9 
f 40/2/9 39/3/9 35/4/9 
s 64
f 34/4/10 33/1/10 37/2/10 
f 37/2/10 40/3/10 34/4/10 
s 2
f 41/1/1 42/2/1 43/3/1 
f 43/3/1 44/4/1 41/1/1 
s 4
f 45/4/2 46/1/2 47/2/2 
f 47/2/2 48/3/2 45/4/2 
s 8
f 41/4/7 44/1/7 46/2/7 
f 46/2/7 45/3/7 41/4/7 
s 16
f 44/4/8 43/1/8 47/2/8 
f 47/2/8 46/3/8 44/4/8 
s 32
f 43/4/9 42/1/9 48/2/9 
f 48/2/9 47/3/9 43/4/9 
s 64
f 42/4/10 41/1/10 45/2/10 
f 45/2/10 48/3/10 42/4/10 
s 2
f 49/1/1 50/2/1 51/3/1 
f 51/3/1 52/4/1 49/1/1 
s 4
f 53/4/2 54/1/2 55/2/2 
f 55/2/2 56/3/2 53/4/2 
s 8
f 49/4/7 52/1/7 54/2/7 
f 54/2/7 53/3/7 49/4/7 
s 16
f 52/4/8 51/1/8 55/2/8 
f 55/2/8 54/3/8 52/4/8 
s 32
f 51/4/9 50/1/9 56/2/9 
f 56/2/9 55/3/9 51/4/9 
s 64
f 50/4/10 49/1/10 53/2/10 
f 53/2/10 56/3/10 50/4/10 
s 2
f 57/1/1 58/2/1 59/3/1 
f 59/3/1 60/4/1 57/1/1 
s 4
f 61/4/2 62/1/2 63/2/2 
f 63/2/2 64/3/2 61/4/2 
s 8
f 57/4/7 60/1/7 62/2/7 
f 62/2/7 61/3/7 57/4/7 
s 16
f 60/4/8 59/1/8 63/2/8 
f 63/2/8 62/3/8 60/4/8 
s 32
f 59/4/9 58/1/9 64/2/9 
f 64/2/9 63/3/9 59/4/9 
s 64
f 58/4/10 57/1/10 61/2/10 
f 61/2/10 64/3/10 58/4/10 
s 2
f 65/1/1 66/2/1 67/3/1 
f 67/3/1 68/4/1 65/1/1 
s 4
f 69/4/2 70/1/2 71/2/2 
f 71/2/2 72/3/2 69/4/2 
s 8
f 65/4/7 68/1/7 70/2/7 
f 70/2/7 69/3/7 65/4/7 
s 16
f 68/4/8 67/1/8 71/2/8 
f 71/2/8 70/3/8 68/4/8 
s 32
f 67/4/9 66/1/9 72/2/9 
f 72/2/9 71/3/9 67/4/9 
s 64
f 66/4/10 65/1/10 69/2/10 
f 69/2/10 72/3/10 66/4/10 
s 2
f 73/1/1 74/2/1 75/3/1 
f 75/3/1 76/4/1 73/1/1 
s 4
f 77/4/2 78/1/2 79/2/2 
f 79/2/2 80/3/2 77/4/2 
s 8
f 73/4/7 76/1/7 78/2/7 
f 78/2/7 77/3/7 73/4/7 
s 16
f 76/4/8 75/1/8 79/2/8 
f 79/2/8 78/3/8 76/4/8 
s 32
f 75/4/9 74/1/9 80/2/9 
f 80/2/9 79/3/9 75/4/9 
s 64
f 74/4/10 73/1/10 77/2/10 
f 77/2/10 80/3/10 74/4/10 
s 2
f 81/1/1 82/2/1 83/3/1 
f 83/3/1 84/4/1 81/1/1 
s 4
f 85/4/2 86/1/2 87/2/2 
f 87/2/2 88/3/2 85/4/2 
s 8
f 81/4/7 84/1/7 86/2/7 
f 86/2/7 85/3/7 81/4/7 
s 16
f 84/4/8 83/1/8 87/2/8 
f 87/2/8 86/3/8 84/4/8 
s 32
f 83/4/9 82/1/9 88/2/9 
f 88/2/9 87/3/9 83/4/9 
s 64
f 82/4/10 81/1/10 85/2/10 
f 85/2/10 88/3/10 82/4/10 
s 2
f 89/1/1 90/2/1 91/3/1 
f 91/3/1 92/4/1 89/1/1 
s 4
f 93/4/2 94/1/2 95/2/2 
f 95/2/2 96/3/2 93/4/2 
s 8
f 89/4/7 92/1/7 94/2/7 
f 94/2/7 93/3/7 89/4/7 
s 16
f 92/4/8 91/1/8 95/2/8 
f 95/2/8 94/3/8 92/4/8 
s 32
f 91/4/9 90/1/9 96/2/9 
f 96/2/9 95/3/9 91/4/9 
s 64
f 90/4/10 89/1/10 93/2/10 
f 93/2/10 96/3/10 90/4/10 
s 2
f 97/1/1 98/2/1 99/3/1 
f 99/3/1 100/4/1 97/1/1 
s 4
f 101/4/2 102/1/2 103/2/2 
f 103/2/2 104/3/2 101/4/2 
s 8
f 97/4/7 100/1/7 102/2/7 
f 102/2/7 101/3/7 97/4/7 
s 16
f 100/4/8 99/1/8 103/2/8 
f 103/2/8 102/3/8 100/4/8 
s 32
f 99/4/9 98/1/9 104/2/9 
f 104/2/9 103/3/9 99/4/9 
s 64
f 98/4/10 97/1/10 101/2/10 
f 101/2/10 104/3/10 98/4/10 
s 2
f 105/1/1 106/2/1 107/3/1 
f 107/3/1 108/4/1 105/1/1 
s 4
f 109/4/2 110/1/2 111/2/2 
f 111/2/2 112/3/2 109/4/2 
s 8
f 105/4/7 108/1/7 110/2/7 
f 110/2/7 109/3/7 105/4/7 
s 16
f 108/4/8 107/1/8 111/2/8 
f 111/2/8 110/3/8 108/4/8 
s 32
f 107/4/9 106/1/9 112/2/9 
f 112/2/9 111/3/9 107/4/9 
s 64
f 106/4/10 105/1/10 109/2/10 
f 109/2/10 112/3/10 106/4/10 
s 2
f 113/1/1 114/2/1 115/3/1 
f 115/3/1 116/4/1 113/1/1 
s 4
f 117/4/2 118/1/2 119/2/2 
f 119/2/2 120/3/2 117/4/2 
s 8
f 113/4/7 116/1/7 118/2/7 
f 118/2/7 117/3/7 113/4/7 
s 16
f 116/4/8 115/1/8 119/2/8 
f 119/2/8 118/3/8 116/4/8 
s 32
f 115/4/9 114/1/9 120/2/9 
f 120/2/9 119/3/9 115/4/9 
s 64
f 114/4/10 113/1/10 117/2/10 
f 117/2/10 120/3/10 114/4/10 
s 2
f 121/1/1 122/2/1 123/3/1 
f 123/3/1 124/4/1 121/1/1 
s 4
f 125/4/2 126/1/2 127/2/2 
f 127/2/2 128/3/2 125/4/2 
s 8
f 121/4/7 124/1/7 126/2/7 
f 126/2/7 125/3/7 121/4/7 
s 16
f 124/4/8 123/1/8 127/2/8 
f 127/2/8 126/3/8 124/4/8 
s 32
f 123/4/9 122/1/9 128/2/9 
f 128/2/9 127/3/9 123/4/9 
s 64
f 122/4/10 121/1/10 125/2/10 
f 125/2/10 128/3/10 122/4/10 
s 2
f 129/1/1 130/2/1 131/3/1 
f 131/3/1 132/4/1 129/1/1 
s 4
f 133/4/2 134/1/2 135/2/2 
f 135/2/2 136/3/2 133/4/2 
s 8
f 129/4/7 132/1/7 134/2/7 
f 134/2/7 133/3/7 129/4/7 
s 16
f 132/4/8 131/1/8 135/2/8 
f 135/2/8 134/3/8 132/4/8 
s 32
f 131/4/9 130/1/9 136/2/9 
f 136/2/9 135/3/9 131/4/9 
s 64
f 130/4/10 129/1/10 133/2/10 
f 133/2/10 136/3/10 130/4/10 
s 2
f 137/1/1 138/2/1 139/3/1 
f 139/3/1 140/4/1 137/1/1 
s 4
f 141/4/2 142/1/2 143/2/2 
f 143/2/2 144/3/2 141/4/2 
s 8
f 137/4/7 140/1/7 142/2/7 
f 142/2/7 141/3/7 137/4/7 
s 16
f 140/4/8 139/1/8 143/2/8 
f 143/2/8 142/3/8 140/4/8 
s 32
f 139/4/9 138/1/9 144/2/9 
f 144/2/9 143/3/9 139/4/9 
s 64
f 138/4/10 137/1/10 141/2/10 
f 141/2/10 144/3/10 138/4/10 
s 2
f 145/1/1 146/2/1 147/3/1 
f 147/3/1 148/4/1 145/1/1 
s 4
f 149/4/2 150/1/2 151/2/2 
f 151/2/2 152/3/2 149/4/2 
s 8
f 145/4/7 148/1/7 150/2/7 
f 150/2/7 149/3/7 145/4/7 
s 16
f 148/4/8 147/1/8 151/2/8 
f 151/2/8 150/3/8 148/4/8 
s 32
f 147/4/9 146/1/9 152/2/9 
f 152/2/9 151/3/9 147/4/9 
s 64
f 146/4/10 145/1/10 149/2/10 
f 149/2/10 152/3/10 146/4/10 
# 228 faces

